<svg xmlns="http://www.w3.org/2000/svg" viewBox="0 0 31.58 60.27"><defs><style>.cls-1{fill:#4c4c4c;}</style></defs><title>Recurso 15</title><g id="Capa_2" data-name="Capa 2"><g id="Nota04"><path class="cls-1" d="M26.84,58.74a9.66,9.66,0,0,1-2.44,1.13,9.89,9.89,0,0,1-9.47-2.22c-2.44-2.31-3.37-5.48-4.27-8.55-.26-.9-.52-1.75-.8-2.58l-8-23a1.09,1.09,0,1,1,2.06-.71l8,22.94c.31.88.58,1.8.84,2.69.81,2.79,1.66,5.67,3.67,7.57a7.76,7.76,0,0,0,7.34,1.72,8.09,8.09,0,0,0,5.31-5.46c.89-3.18-.17-6.59-1.54-10.38l-11.91-33C15,7.14,14.25,5.1,12.82,3.8A6.58,6.58,0,0,0,8,2.2C5.56,2.33,2.75,4,2.27,6.63c-.33,1.73.35,3.62,1,5.28L14.07,42a10,10,0,0,0,2,3.74,4,4,0,0,0,4.34.95,4.71,4.71,0,0,0,3-4.08,9.53,9.53,0,0,0-.93-4c-.14-.38-.29-.76-.42-1.14L15.19,18.13a1.09,1.09,0,1,1,2.06-.72l6.83,19.41c.13.36.26.71.4,1.07a11.25,11.25,0,0,1,1.07,4.89,6.89,6.89,0,0,1-4.4,6,6.16,6.16,0,0,1-6.64-1.43A11.72,11.72,0,0,1,12,42.77L1.17,12.65C.51,10.82-.31,8.54.12,6.22.74,2.9,4.07.23,7.86,0A8.83,8.83,0,0,1,14.3,2.19c1.82,1.67,2.69,4.08,3.39,6l11.9,33c1.16,3.2,2.75,7.59,1.59,11.71A10.31,10.31,0,0,1,26.84,58.74Z"/></g></g></svg>