<svg xmlns="http://www.w3.org/2000/svg" xmlns:xlink="http://www.w3.org/1999/xlink" viewBox="0 0 756.42 757.87"><defs><style>.cls-1{fill:none;}.cls-2{opacity:0.3;}.cls-3{clip-path:url(#clip-path);}.cls-4{fill:#4d72aa;}</style><clipPath id="clip-path" transform="translate(-0.24 -0.82)"><polygon class="cls-1" points="756.24 757.86 760.24 0 4 0.59 0 757.86 756.24 757.86"/></clipPath></defs><title>Recurso 5</title><g id="Capa_2" data-name="Capa 2"><g id="Fondo"><g class="cls-2"><g class="cls-3"><path class="cls-4" d="M443.37,662.46a.57.57,0,0,0,0-.22.67.67,0,0,0-.87-.41l-28.13,10.36a.68.68,0,1,0,.47,1.27l28.12-10.35A.69.69,0,0,0,443.37,662.46Z" transform="translate(-0.24 -0.82)"/><path class="cls-4" d="M605.9,340.14a.7.7,0,0,0-.47-.64l-10.65-3.56a.69.69,0,0,0-.86.43.66.66,0,0,0,.43.86L605,340.79a.67.67,0,0,0,.86-.43A.85.85,0,0,0,605.9,340.14Z" transform="translate(-0.24 -0.82)"/><path class="cls-4" d="M121.56,652.49a.68.68,0,0,0-1.3-.28l-6.6,14.15a.69.69,0,0,0,.33.91.67.67,0,0,0,.9-.33l6.6-14.16A.59.59,0,0,0,121.56,652.49Z" transform="translate(-0.24 -0.82)"/><path class="cls-4" d="M56.56,209.91a.7.7,0,0,0-.29-.54L44.64,201.1a.68.68,0,0,0-.78,1.11l11.62,8.26a.68.68,0,0,0,1-.16A.73.73,0,0,0,56.56,209.91Z" transform="translate(-0.24 -0.82)"/><path class="cls-4" d="M637.65,598.4v0a.67.67,0,0,0-.7-.65l-42.53,1.69a.72.72,0,0,0-.66.71.69.69,0,0,0,.71.65L637,599.09A.68.68,0,0,0,637.65,598.4Z" transform="translate(-0.24 -0.82)"/><path class="cls-4" d="M400.36,245.31a.67.67,0,0,0-.32-.58.69.69,0,0,0-.94.22l-21.74,35a.69.69,0,0,0,.22.94.68.68,0,0,0,.94-.22l21.74-35A.68.68,0,0,0,400.36,245.31Z" transform="translate(-0.24 -0.82)"/><path class="cls-4" d="M26.61,757.18a.67.67,0,0,0-.62-.67L11.8,755.23a.67.67,0,0,0-.74.61.68.68,0,0,0,.61.74l14.2,1.28a.68.68,0,0,0,.74-.61Z" transform="translate(-0.24 -0.82)"/><path class="cls-4" d="M582.39,7.86a.66.66,0,0,0-.07-.3.67.67,0,0,0-.92-.29l-12.35,6.35a.68.68,0,0,0,.63,1.21L582,8.47A.67.67,0,0,0,582.39,7.86Z" transform="translate(-0.24 -0.82)"/><path class="cls-4" d="M470.13,215v0l-2.4-40.79a.67.67,0,0,0-.72-.63.64.64,0,0,0-.64.71L468.78,215a.67.67,0,0,0,.71.64A.67.67,0,0,0,470.13,215Z" transform="translate(-0.24 -0.82)"/><path class="cls-4" d="M629.66,537.1a.68.68,0,0,0-1.27-.32l-17.08,30.61a.68.68,0,0,0,.27.92.67.67,0,0,0,.92-.26l17.08-30.61A.68.68,0,0,0,629.66,537.1Z" transform="translate(-0.24 -0.82)"/><path class="cls-4" d="M374.93,381.76a.67.67,0,0,0-.08-.33l-4.55-8a.68.68,0,1,0-1.18.67l4.54,8a.68.68,0,0,0,.93.26A.67.67,0,0,0,374.93,381.76Z" transform="translate(-0.24 -0.82)"/><path class="cls-4" d="M84.42,222.26a.67.67,0,0,0-.55-.66.69.69,0,0,0-.8.54L80.86,233.5a.68.68,0,0,0,1.34.26l2.21-11.36A.66.66,0,0,0,84.42,222.26Z" transform="translate(-0.24 -0.82)"/><path class="cls-4" d="M419.46,451.27a.64.64,0,0,0-.1-.35.68.68,0,0,0-.93-.23l-12.53,7.49a.68.68,0,0,0,.7,1.17l12.53-7.49A.68.68,0,0,0,419.46,451.27Z" transform="translate(-0.24 -0.82)"/><path class="cls-4" d="M599.72,638.39a.68.68,0,0,0-1-.57l-34.49,21.55a.68.68,0,1,0,.72,1.15L599.4,639A.67.67,0,0,0,599.72,638.39Z" transform="translate(-0.24 -0.82)"/><path class="cls-4" d="M480.94,349.69a.69.69,0,0,0-.11-.36.68.68,0,0,0-.94-.21l-34.3,22.18a.68.68,0,0,0,.74,1.14l34.3-22.17A.7.7,0,0,0,480.94,349.69Z" transform="translate(-0.24 -0.82)"/><path class="cls-4" d="M79.26,66.4a.79.79,0,0,0-.05-.25.69.69,0,0,0-.89-.37L48.37,77.86a.68.68,0,0,0,.51,1.26L78.83,67A.69.69,0,0,0,79.26,66.4Z" transform="translate(-0.24 -0.82)"/><path class="cls-4" d="M338.3,521.47a.65.65,0,0,0-.22-.5.68.68,0,0,0-1,0l-7.46,8.2a.68.68,0,0,0,0,1,.69.69,0,0,0,1,0l7.45-8.2A.69.69,0,0,0,338.3,521.47Z" transform="translate(-0.24 -0.82)"/><path class="cls-4" d="M42.1,518.19a.66.66,0,0,0-.15-.42l-21.24-26.3a.68.68,0,0,0-1-.11.69.69,0,0,0-.1,1l21.24,26.3a.68.68,0,0,0,1,.1A.63.63,0,0,0,42.1,518.19Z" transform="translate(-0.24 -0.82)"/><path class="cls-4" d="M13.74,406.24a.63.63,0,0,0,0-.19.68.68,0,0,0-.85-.45L1.73,409a.68.68,0,0,0,.4,1.3l11.13-3.43A.69.69,0,0,0,13.74,406.24Z" transform="translate(-0.24 -0.82)"/><path class="cls-4" d="M407.72,753.09a.68.68,0,0,0-.38-.61l-18.63-9.25a.68.68,0,0,0-.61,1.22l18.64,9.25a.67.67,0,0,0,.91-.31A.63.63,0,0,0,407.72,753.09Z" transform="translate(-0.24 -0.82)"/><path class="cls-4" d="M116.3,589.2a.67.67,0,0,0-.18-.46.68.68,0,0,0-1,0L105.25,598a.68.68,0,0,0,.93,1l9.91-9.26A.7.7,0,0,0,116.3,589.2Z" transform="translate(-0.24 -0.82)"/><path class="cls-4" d="M749.53,606.14a.69.69,0,0,0-.23-.5l-37.72-34.1a.67.67,0,0,0-1,0,.68.68,0,0,0,0,1l37.72,34.11a.67.67,0,0,0,1,0A.71.71,0,0,0,749.53,606.14Z" transform="translate(-0.24 -0.82)"/><path class="cls-4" d="M690.4,609.94a.62.62,0,0,0-.14-.41l-30.32-40a.68.68,0,0,0-1-.14.69.69,0,0,0-.13,1l30.32,40a.68.68,0,0,0,1.22-.41Z" transform="translate(-0.24 -0.82)"/><path class="cls-4" d="M54.76,33a.78.78,0,0,0,0-.22l-8.64-25a.68.68,0,1,0-1.28.44l8.63,25A.68.68,0,0,0,54.76,33Z" transform="translate(-0.24 -0.82)"/><path class="cls-4" d="M751.35,308.36a.74.74,0,0,0-.08-.3.67.67,0,0,0-.91-.31l-38.49,19.11a.69.69,0,0,0-.31.91.69.69,0,0,0,.92.31L751,309A.68.68,0,0,0,751.35,308.36Z" transform="translate(-0.24 -0.82)"/><path class="cls-4" d="M396.41,430.54a.68.68,0,0,0-.48-.65l-32.87-10.17a.68.68,0,1,0-.4,1.3l32.87,10.17a.68.68,0,0,0,.85-.45A.75.75,0,0,0,396.41,430.54Z" transform="translate(-0.24 -0.82)"/><path class="cls-4" d="M590.33,533.37a.37.37,0,0,1,0-.11.68.68,0,0,0-.79-.55l-12.32,2.07a.67.67,0,0,0-.56.78.69.69,0,0,0,.79.56l12.32-2.07A.7.7,0,0,0,590.33,533.37Z" transform="translate(-0.24 -0.82)"/><path class="cls-4" d="M14.11,100.89a.68.68,0,0,0-.49-.64L4.56,97.59a.68.68,0,1,0-.38,1.3l9.05,2.66a.68.68,0,0,0,.85-.46A.64.64,0,0,0,14.11,100.89Z" transform="translate(-0.24 -0.82)"/><path class="cls-4" d="M356,572.3a.68.68,0,0,0-.63-.67l-52.44-3.5a.69.69,0,0,0-.73.64.67.67,0,0,0,.64.72l52.44,3.5a.68.68,0,0,0,.72-.64Z" transform="translate(-0.24 -0.82)"/><path class="cls-4" d="M381.24,515a.67.67,0,0,0-.59-.67.69.69,0,0,0-.77.58l-5.07,37.19a.7.7,0,0,0,.59.77.68.68,0,0,0,.76-.59l5.07-37.19A.28.28,0,0,0,381.24,515Z" transform="translate(-0.24 -0.82)"/><path class="cls-4" d="M162.72,397.7a.67.67,0,0,0-.17-.44l-26-29.1a.68.68,0,1,0-1,.9l26,29.1a.68.68,0,0,0,1.19-.46Z" transform="translate(-0.24 -0.82)"/><path class="cls-4" d="M259.77,321.55a.66.66,0,0,0-.36-.59l-21.75-11.61a.68.68,0,0,0-.64,1.2l21.75,11.61a.68.68,0,0,0,.92-.28A.73.73,0,0,0,259.77,321.55Z" transform="translate(-0.24 -0.82)"/><path class="cls-4" d="M555.08,188.21a.69.69,0,0,0-.67-.68.7.7,0,0,0-.69.68l-.2,19.49a.66.66,0,0,0,.67.68.67.67,0,0,0,.69-.67l.21-19.49Z" transform="translate(-0.24 -0.82)"/><path class="cls-4" d="M321.31,687.25a.67.67,0,0,0-.36-.6l-9.76-5.07a.68.68,0,0,0-.62,1.21l9.75,5.06a.67.67,0,0,0,.92-.29A.7.7,0,0,0,321.31,687.25Z" transform="translate(-0.24 -0.82)"/><path class="cls-4" d="M515.36,167.24a.68.68,0,0,0-1.31-.25l-3.83,9.47a.68.68,0,0,0,1.26.52l3.83-9.48A.63.63,0,0,0,515.36,167.24Z" transform="translate(-0.24 -0.82)"/><path class="cls-4" d="M210.69,695.24a.7.7,0,0,0-.11-.37l-29.31-45a.68.68,0,0,0-.94-.2.69.69,0,0,0-.2.94l29.31,45a.67.67,0,0,0,.94.2A.68.68,0,0,0,210.69,695.24Z" transform="translate(-0.24 -0.82)"/><path class="cls-4" d="M214.37,281.25a.65.65,0,0,0-.06-.26l-6.48-15.43a.68.68,0,0,0-1.26.53l6.49,15.43a.68.68,0,0,0,.89.37A.7.7,0,0,0,214.37,281.25Z" transform="translate(-0.24 -0.82)"/><path class="cls-4" d="M643.84,750.46a.67.67,0,0,0,0-.24L639.86,740a.68.68,0,0,0-1.27.49l3.94,10.19a.68.68,0,0,0,1.31-.25Z" transform="translate(-0.24 -0.82)"/><path class="cls-4" d="M377.61,214.16a.66.66,0,0,0-.17-.44.68.68,0,0,0-1-.08l-9.09,7.82a.68.68,0,0,0,.89,1l9.09-7.81A.69.69,0,0,0,377.61,214.16Z" transform="translate(-0.24 -0.82)"/><path class="cls-4" d="M281.35,705.35a.69.69,0,0,0-.37-.6l-20.42-10.5a.68.68,0,0,0-.63,1.21L280.36,706a.68.68,0,0,0,.91-.29A.61.61,0,0,0,281.35,705.35Z" transform="translate(-0.24 -0.82)"/><path class="cls-4" d="M721.43,712.92a.68.68,0,0,0-.65-.67l-32.29-1.67a.68.68,0,0,0-.72.65.67.67,0,0,0,.65.71l32.3,1.67a.68.68,0,0,0,.71-.65Z" transform="translate(-0.24 -0.82)"/><path class="cls-4" d="M432.8,569.76a.7.7,0,0,0-.11-.37l-19.26-29.06a.68.68,0,0,0-1.13.75l19.25,29.06a.68.68,0,0,0,1.25-.38Z" transform="translate(-0.24 -0.82)"/><path class="cls-4" d="M624.29,12.07a.62.62,0,0,0-.17-.45L616.74,3.4a.68.68,0,0,0-1-.06.67.67,0,0,0-.06,1l7.39,8.23a.68.68,0,0,0,1,.05A.66.66,0,0,0,624.29,12.07Z" transform="translate(-0.24 -0.82)"/><path class="cls-4" d="M280.75,434.77a.69.69,0,0,0-.45-.63l-16.38-5.81a.69.69,0,0,0-.87.42.68.68,0,0,0,.42.87l16.37,5.8a.68.68,0,0,0,.87-.41A.67.67,0,0,0,280.75,434.77Z" transform="translate(-0.24 -0.82)"/><path class="cls-4" d="M707.19,482.53a.6.6,0,0,0-.05-.26L698,460.58a.68.68,0,0,0-1.26.53l9.18,21.69a.67.67,0,0,0,.89.36A.66.66,0,0,0,707.19,482.53Z" transform="translate(-0.24 -0.82)"/><path class="cls-4" d="M43.74,557.7a.76.76,0,0,0,0-.15.69.69,0,0,0-.82-.51L9.63,564.7A.68.68,0,1,0,9.94,566l33.28-7.65A.67.67,0,0,0,43.74,557.7Z" transform="translate(-0.24 -0.82)"/><path class="cls-4" d="M119.55,133.83a.67.67,0,0,0-.32-.57.68.68,0,0,0-.94.22L113.06,142a.68.68,0,0,0,.22.94.69.69,0,0,0,.94-.23l5.23-8.54A.65.65,0,0,0,119.55,133.83Z" transform="translate(-0.24 -0.82)"/><path class="cls-4" d="M364.74,709.45a.64.64,0,0,0-.16-.43l-6.82-7.94a.68.68,0,0,0-1-.08.69.69,0,0,0-.07,1l6.82,7.94a.68.68,0,0,0,1.19-.45Z" transform="translate(-0.24 -0.82)"/><path class="cls-4" d="M655.89,623.66a.71.71,0,0,0-.24-.52.68.68,0,0,0-1,.08l-28.64,33.84a.67.67,0,0,0,.08,1,.66.66,0,0,0,1-.08l28.65-33.84A.68.68,0,0,0,655.89,623.66Z" transform="translate(-0.24 -0.82)"/><path class="cls-4" d="M519,348.72a.67.67,0,0,0-.51-.65.69.69,0,0,0-.83.49l-2.94,11.63a.68.68,0,1,0,1.32.33L519,348.9A.55.55,0,0,0,519,348.72Z" transform="translate(-0.24 -0.82)"/><path class="cls-4" d="M562.48,334.49a.66.66,0,0,0-.4-.61.68.68,0,0,0-.9.35l-4,9.16a.67.67,0,0,0,.35.89.69.69,0,0,0,.9-.35l4-9.16A.66.66,0,0,0,562.48,334.49Z" transform="translate(-0.24 -0.82)"/><path class="cls-4" d="M749.12,640.2a.69.69,0,0,0-.53-.65l-28.37-6.42a.69.69,0,0,0-.82.52.68.68,0,0,0,.52.81l28.37,6.41a.67.67,0,0,0,.81-.51A.78.78,0,0,0,749.12,640.2Z" transform="translate(-0.24 -0.82)"/><path class="cls-4" d="M238.15,148.57a.69.69,0,0,0-.11-.36l-7.21-11.09a.67.67,0,0,0-.94-.2.68.68,0,0,0-.2.94l7.2,11.09a.69.69,0,0,0,1.26-.38Z" transform="translate(-0.24 -0.82)"/><path class="cls-4" d="M666,455.71a.72.72,0,0,0-.34-.58.68.68,0,0,0-.93.25l-17.41,30a.68.68,0,0,0,1.17.69l17.42-30A.73.73,0,0,0,666,455.71Z" transform="translate(-0.24 -0.82)"/><path class="cls-4" d="M95.93,552.69a.71.71,0,0,0-.2-.48.68.68,0,0,0-1,0L82.39,564.64a.69.69,0,0,0,0,1,.7.7,0,0,0,1,0l12.37-12.42A.67.67,0,0,0,95.93,552.69Z" transform="translate(-0.24 -0.82)"/><path class="cls-4" d="M342.64,290.25a.74.74,0,0,0-.1-.35.69.69,0,0,0-.94-.23l-7.86,4.85a.69.69,0,0,0-.22.94.68.68,0,0,0,.94.22l7.85-4.85A.68.68,0,0,0,342.64,290.25Z" transform="translate(-0.24 -0.82)"/><path class="cls-4" d="M370.58,331a.52.52,0,0,0,0-.21l-3.2-9.53a.68.68,0,0,0-1.29.43l3.2,9.53a.68.68,0,0,0,1.33-.22Z" transform="translate(-0.24 -0.82)"/><path class="cls-4" d="M749.77,145.47a.59.59,0,0,0-.1-.34l-4.85-8a.68.68,0,1,0-1.16.71l4.85,8a.67.67,0,0,0,.93.23A.7.7,0,0,0,749.77,145.47Z" transform="translate(-0.24 -0.82)"/><path class="cls-4" d="M235.5,449.68a.41.41,0,0,0,0-.11.68.68,0,0,0-.79-.55l-16.22,3a.67.67,0,0,0-.55.79.68.68,0,0,0,.79.55l16.22-2.95A.68.68,0,0,0,235.5,449.68Z" transform="translate(-0.24 -0.82)"/><path class="cls-4" d="M621.25,463.63a.71.71,0,0,0-.18-.45.68.68,0,0,0-1-.05l-30.57,27.49a.68.68,0,1,0,.91,1L621,464.14A.68.68,0,0,0,621.25,463.63Z" transform="translate(-0.24 -0.82)"/><path class="cls-4" d="M5.06,528.62a.22.22,0,0,0,0-.08l-1.31-9.85a.69.69,0,0,0-.77-.58.66.66,0,0,0-.58.76l1.31,9.85a.68.68,0,0,0,1.36-.1Z" transform="translate(-0.24 -0.82)"/><path class="cls-4" d="M465.18,739.71a.69.69,0,0,0-.05-.24L446,690.88a.67.67,0,0,0-.88-.38.69.69,0,0,0-.39.88L463.86,740a.68.68,0,0,0,1.32-.26Z" transform="translate(-0.24 -0.82)"/><path class="cls-4" d="M750.84,403.07a.66.66,0,0,0-.16-.44l-11.91-14a.68.68,0,0,0-1,.88l11.9,14a.68.68,0,0,0,1.2-.44Z" transform="translate(-0.24 -0.82)"/><path class="cls-4" d="M238.72,557s0-.06,0-.08L235,527.18a.68.68,0,1,0-1.35.16l3.67,29.71a.68.68,0,0,0,1.36-.08Z" transform="translate(-0.24 -0.82)"/><path class="cls-4" d="M212.73,326.12a.68.68,0,0,0-.52-.66L160,312.78a.68.68,0,1,0-.33,1.32l52.24,12.68a.68.68,0,0,0,.82-.5A.88.88,0,0,0,212.73,326.12Z" transform="translate(-0.24 -0.82)"/><path class="cls-4" d="M422.83,217.7a.58.58,0,0,0,0-.19l-12.41-41a.68.68,0,0,0-.85-.45.67.67,0,0,0-.45.84l12.41,41a.68.68,0,0,0,1.33-.2Z" transform="translate(-0.24 -0.82)"/><path class="cls-4" d="M301.14,406.33A.69.69,0,0,0,301,406l-9.09-13.9a.68.68,0,0,0-.94-.2.69.69,0,0,0-.2.94l9.09,13.9a.67.67,0,0,0,.94.2A.69.69,0,0,0,301.14,406.33Z" transform="translate(-0.24 -0.82)"/><path class="cls-4" d="M367.73,95.26a.67.67,0,0,0-.26-.53L333.4,68.37a.68.68,0,0,0-.83,1.08L366.64,95.8a.67.67,0,0,0,.95-.12A.65.65,0,0,0,367.73,95.26Z" transform="translate(-0.24 -0.82)"/><path class="cls-4" d="M171,57.33a.68.68,0,0,0-.88-.64l-12.38,3.76a.68.68,0,0,0,.4,1.31L170.56,58A.69.69,0,0,0,171,57.33Z" transform="translate(-0.24 -0.82)"/><path class="cls-4" d="M32.5,242.8a.67.67,0,0,0-.2-.47l-28-28.54a.67.67,0,0,0-1,0,.68.68,0,0,0,0,1l28,28.55a.68.68,0,0,0,1,0A.67.67,0,0,0,32.5,242.8Z" transform="translate(-0.24 -0.82)"/><path class="cls-4" d="M156.16,455.05a.72.72,0,0,0-.07-.28L142.28,425a.68.68,0,0,0-.9-.33.67.67,0,0,0-.33.9l13.81,29.75a.68.68,0,0,0,1.3-.29Z" transform="translate(-0.24 -0.82)"/><path class="cls-4" d="M15.36,141.8a.68.68,0,0,0-.47-.64l-10-3.23a.7.7,0,0,0-.86.44.68.68,0,0,0,.44.86l10,3.23a.7.7,0,0,0,.86-.44A.83.83,0,0,0,15.36,141.8Z" transform="translate(-0.24 -0.82)"/><path class="cls-4" d="M164,693.9a.7.7,0,0,0-.59-.67.68.68,0,0,0-.77.58l-1.39,9.44a.68.68,0,0,0,.57.78.7.7,0,0,0,.78-.58L164,694S164,693.93,164,693.9Z" transform="translate(-0.24 -0.82)"/><path class="cls-4" d="M704.07,41.33a.68.68,0,0,0-1.35-.11L700.16,55a.7.7,0,0,0,.55.8.68.68,0,0,0,.79-.55l2.56-13.8S704.07,41.38,704.07,41.33Z" transform="translate(-0.24 -0.82)"/><path class="cls-4" d="M222.37,55.58a.72.72,0,0,0-.08-.32.7.7,0,0,0-.93-.28l-11.53,6.25a.7.7,0,0,0-.28.93.69.69,0,0,0,.93.27L222,56.18A.68.68,0,0,0,222.37,55.58Z" transform="translate(-0.24 -0.82)"/><path class="cls-4" d="M598.07,437.93a.69.69,0,0,0-.28-.54l-10-7.32a.68.68,0,0,0-.95.15.68.68,0,0,0,.15.95l10,7.32a.7.7,0,0,0,1-.15A.76.76,0,0,0,598.07,437.93Z" transform="translate(-0.24 -0.82)"/><path class="cls-4" d="M433.26,111.21a.68.68,0,0,0-1.36,0l.21,47.45h0a.67.67,0,0,0,.68.67.67.67,0,0,0,.68-.68l-.21-47.45Z" transform="translate(-0.24 -0.82)"/><path class="cls-4" d="M468.72,632a.7.7,0,0,0-.48-.65.68.68,0,0,0-.85.45l-3.15,10.25a.68.68,0,0,0,1.3.4l3.15-10.25A.75.75,0,0,0,468.72,632Z" transform="translate(-0.24 -0.82)"/><path class="cls-4" d="M470.81,545.53a.71.71,0,0,0-.51-.66l-15.34-4a.68.68,0,1,0-.34,1.31L470,546.19a.68.68,0,0,0,.83-.48A.62.62,0,0,0,470.81,545.53Z" transform="translate(-0.24 -0.82)"/><path class="cls-4" d="M353.47,247.94a1,1,0,0,0,0-.17.68.68,0,0,0-.83-.49l-13.35,3.43a.68.68,0,1,0,.34,1.32L353,248.6A.68.68,0,0,0,353.47,247.94Z" transform="translate(-0.24 -0.82)"/><path class="cls-4" d="M754.21,560.5a.13.13,0,0,0,0-.06l-1.47-17.74a.68.68,0,0,0-.74-.62.67.67,0,0,0-.62.73l1.48,17.75a.68.68,0,0,0,1.36-.06Z" transform="translate(-0.24 -0.82)"/><path class="cls-4" d="M194.63,422.15a.37.37,0,0,0,0-.11.68.68,0,0,0-.78-.56L181,423.69a.68.68,0,0,0-.55.79.67.67,0,0,0,.78.55l12.83-2.21A.67.67,0,0,0,194.63,422.15Z" transform="translate(-0.24 -0.82)"/><path class="cls-4" d="M204.91,757.54a.7.7,0,0,0-.07-.31l-19-37.24a.68.68,0,1,0-1.21.61l19,37.25a.68.68,0,0,0,.92.3A.67.67,0,0,0,204.91,757.54Z" transform="translate(-0.24 -0.82)"/><path class="cls-4" d="M752.28,435.07a.65.65,0,0,0-.24-.51.67.67,0,0,0-1,.08l-16.94,20.13a.69.69,0,0,0,.08,1,.68.68,0,0,0,1-.08l16.94-20.14A.62.62,0,0,0,752.28,435.07Z" transform="translate(-0.24 -0.82)"/><path class="cls-4" d="M685.29,551.48a.59.59,0,0,0-.07-.29l-4.79-9.78a.68.68,0,0,0-.91-.31.69.69,0,0,0-.32.91l4.8,9.78a.69.69,0,0,0,.91.31A.7.7,0,0,0,685.29,551.48Z" transform="translate(-0.24 -0.82)"/><path class="cls-4" d="M171,7.83a.68.68,0,0,0-1.36,0l-.79,9.65a.69.69,0,0,0,.62.73.67.67,0,0,0,.74-.62L171,7.89Z" transform="translate(-0.24 -0.82)"/><path class="cls-4" d="M494.85,700.05a.67.67,0,0,0-.62-.67.68.68,0,0,0-.74.62l-1.33,16.33a.69.69,0,0,0,.62.74.68.68,0,0,0,.74-.62l1.33-16.34Z" transform="translate(-0.24 -0.82)"/><path class="cls-4" d="M683,683.55a.69.69,0,0,0-.63-.67L644.25,680a.68.68,0,0,0-.11,1.36l38.08,2.85a.67.67,0,0,0,.72-.63A.13.13,0,0,0,683,683.55Z" transform="translate(-0.24 -0.82)"/><path class="cls-4" d="M142.63,553a.66.66,0,0,0-.46-.63l-12.76-4.34a.68.68,0,1,0-.44,1.28l12.76,4.34a.68.68,0,0,0,.87-.42A.91.91,0,0,0,142.63,553Z" transform="translate(-0.24 -0.82)"/><path class="cls-4" d="M103.72,731.82a.67.67,0,0,0-.25-.52l-12.15-9.94a.68.68,0,0,0-.87,1l12.16,9.94a.66.66,0,0,0,1-.1A.64.64,0,0,0,103.72,731.82Z" transform="translate(-0.24 -0.82)"/><path class="cls-4" d="M651.38,428.4a.69.69,0,0,0-.37-.6L610.79,407a.67.67,0,0,0-.91.3.66.66,0,0,0,.29.91L650.39,429a.68.68,0,0,0,.91-.29A.61.61,0,0,0,651.38,428.4Z" transform="translate(-0.24 -0.82)"/><path class="cls-4" d="M96.07,443.13a.68.68,0,0,0-1.32-.23l-3,8.51a.67.67,0,0,0,.41.87.68.68,0,0,0,.87-.41l3-8.5A.67.67,0,0,0,96.07,443.13Z" transform="translate(-0.24 -0.82)"/><path class="cls-4" d="M202.65,385.33a.67.67,0,0,0-.08-.3l-11.66-23.19a.68.68,0,0,0-1.22.61l11.67,23.19a.67.67,0,0,0,.91.3A.68.68,0,0,0,202.65,385.33Z" transform="translate(-0.24 -0.82)"/><path class="cls-4" d="M119.31,406.94a.68.68,0,0,0-1.18-.45l-6.52,7.17a.68.68,0,0,0,0,1,.67.67,0,0,0,1,0l6.52-7.18A.62.62,0,0,0,119.31,406.94Z" transform="translate(-0.24 -0.82)"/><path class="cls-4" d="M755.63,187.39a.69.69,0,0,0-.31-.56l-13.27-8.89a.68.68,0,1,0-.76,1.13L754.57,188a.69.69,0,0,0,1.06-.57Z" transform="translate(-0.24 -0.82)"/><path class="cls-4" d="M612.25,47.5a.76.76,0,0,0,0-.15.68.68,0,0,0-.82-.5L562.71,58.21a.69.69,0,0,0-.51.82.68.68,0,0,0,.81.51l48.72-11.37A.67.67,0,0,0,612.25,47.5Z" transform="translate(-0.24 -0.82)"/><path class="cls-4" d="M459.65,9.92a.67.67,0,0,0-.26-.53l-7.84-6.06a.68.68,0,0,0-1,.12.7.7,0,0,0,.13,1l7.84,6.06a.68.68,0,0,0,.95-.12A.69.69,0,0,0,459.65,9.92Z" transform="translate(-0.24 -0.82)"/><path class="cls-4" d="M719.46,9.25a.68.68,0,0,0-.52-.66L685.88.84a.68.68,0,1,0-.31,1.32l33.06,7.76a.68.68,0,0,0,.81-.51A.44.44,0,0,0,719.46,9.25Z" transform="translate(-0.24 -0.82)"/><path class="cls-4" d="M24,283.85a.68.68,0,0,0-.26-.53L2.87,266.91a.67.67,0,0,0-1,.11A.69.69,0,0,0,2,268l20.88,16.41a.68.68,0,0,0,.95-.11A.7.7,0,0,0,24,283.85Z" transform="translate(-0.24 -0.82)"/><path class="cls-4" d="M255.37,380.71a.65.65,0,0,0-.29-.55.68.68,0,0,0-1,.16l-24,34.35a.68.68,0,0,0,1.12.78l24-34.35A.71.71,0,0,0,255.37,380.71Z" transform="translate(-0.24 -0.82)"/><path class="cls-4" d="M294.25,160.85a15.65,15.65,0,0,1-26.89-10.63,15.71,15.71,0,0,1,4.4-11.13,15.64,15.64,0,0,1,26.89,10.62v.14A15.57,15.57,0,0,1,294.25,160.85ZM268.72,150.2a14.29,14.29,0,0,0,14.52,14.05v0a14.29,14.29,0,0,0,14.05-14.39v-.13a14.29,14.29,0,0,0-28.57.35Z" transform="translate(-0.24 -0.82)"/><path class="cls-4" d="M505.18,591a17,17,0,1,1,0-1.22C505.22,590.2,505.21,590.6,505.18,591Zm-17.84,14.45a15.55,15.55,0,0,0,16.48-14.54,15.54,15.54,0,0,0-31-1.94c0,.37,0,.74,0,1.1A15.56,15.56,0,0,0,487.34,605.46Z" transform="translate(-0.24 -0.82)"/><path class="cls-4" d="M266.82,644.28a4.32,4.32,0,0,1-5.3,3.06h0a4.33,4.33,0,1,1,5.44-4.21A4.16,4.16,0,0,1,266.82,644.28Zm-6.75.37a3,3,0,0,0,1.8,1.38h0a3,3,0,0,0,2.25-.3,2.93,2.93,0,0,0,1.38-1.81,3,3,0,0,0-5.73-1.52,3,3,0,0,0-.1.79A2.91,2.91,0,0,0,260.07,644.65Z" transform="translate(-0.24 -0.82)"/><path class="cls-4" d="M234.11,721.65a6.73,6.73,0,1,1,1.73-4.56A6.67,6.67,0,0,1,234.11,721.65Zm-10.34-4.23a5.19,5.19,0,1,0,0-.24A1.93,1.93,0,0,1,223.77,717.42Z" transform="translate(-0.24 -0.82)"/><path class="cls-4" d="M660.21,56.86a7.34,7.34,0,1,1,1.2-4A7.25,7.25,0,0,1,660.21,56.86Zm-9.38,1a6,6,0,0,0,8.25-1.72,6,6,0,0,0-1.72-8.24h0a5.86,5.86,0,0,0-4.48-.85,6,6,0,0,0-2,10.81Z" transform="translate(-0.24 -0.82)"/><path class="cls-4" d="M431.17,420.28a11.78,11.78,0,1,1,11.18-12.36c0,.17,0,.34,0,.5A11.82,11.82,0,0,1,431.17,420.28Zm-11-11.25a10,10,0,1,0,0-.45C420.16,408.73,420.17,408.88,420.18,409Z" transform="translate(-0.24 -0.82)"/><path class="cls-4" d="M185.84,471.13a5.22,5.22,0,0,1-5.33-5.09V466a5.21,5.21,0,0,1,5.08-5.25h0a5.23,5.23,0,0,1,5.34,5.09v.08A5.22,5.22,0,0,1,185.84,471.13Zm-.21-9.06a3.85,3.85,0,1,0,.18,7.7,3.8,3.8,0,0,0,3.76-3.94,3.86,3.86,0,0,0-3.94-3.76Z" transform="translate(-0.24 -0.82)"/><path class="cls-4" d="M416.35,716a6.89,6.89,0,1,1-.12-5.26,6.78,6.78,0,0,1,.59,2.71A6.85,6.85,0,0,1,416.35,716Zm-11.45-.27a5.48,5.48,0,0,0,3.05,2.91,5.51,5.51,0,0,0,7.13-3.13,5.51,5.51,0,1,0-10.18.22Z" transform="translate(-0.24 -0.82)"/><path class="cls-4" d="M49.47,736.46a10.85,10.85,0,0,1-.59-21.7h0A10.86,10.86,0,0,1,60,725.32a1.48,1.48,0,0,1,0,.21A10.87,10.87,0,0,1,49.47,736.46Zm-.55-20.34a9.49,9.49,0,1,0,9.74,9.23,9.51,9.51,0,0,0-9.74-9.23Z" transform="translate(-0.24 -0.82)"/><path class="cls-4" d="M423,29.3a14.85,14.85,0,0,1-18.51,9.86h0a14.82,14.82,0,0,1-2.64-27.26,14.66,14.66,0,0,1,11.29-1.1A14.84,14.84,0,0,1,423,29.3Zm-18.11,8.56a13.45,13.45,0,1,0-9.54-12.78A13.39,13.39,0,0,0,404.92,37.86Z" transform="translate(-0.24 -0.82)"/><path class="cls-4" d="M613,713.17a17.3,17.3,0,1,1,3.45-10.49A17.17,17.17,0,0,1,613,713.17Zm-23.39,2.37a15.95,15.95,0,1,0-6.36-12.64A15.94,15.94,0,0,0,589.57,715.54Z" transform="translate(-0.24 -0.82)"/><path class="cls-4" d="M314,461.93a5.88,5.88,0,0,1-10.87.3,5.81,5.81,0,0,1-.13-4.5,5.89,5.89,0,0,1,11.39,2A5.68,5.68,0,0,1,314,461.93Zm-9.63-.25a4.54,4.54,0,0,0,6,2.28,4.52,4.52,0,0,0,2.28-6,4.53,4.53,0,0,0-8.36.23,4.77,4.77,0,0,0-.3,1.66A4.62,4.62,0,0,0,304.32,461.68Z" transform="translate(-0.24 -0.82)"/><path class="cls-4" d="M302.25,274a4,4,0,0,1-2.78,1.28,4,4,0,0,1-3.1-6.71,4,4,0,0,1,2.78-1.28,4,4,0,0,1,4.16,4A4.08,4.08,0,0,1,302.25,274Zm-5.58-2.61a2.64,2.64,0,0,0,4.58,1.68,2.65,2.65,0,0,0-.15-3.72,2.64,2.64,0,0,0-4.43,1.95Z" transform="translate(-0.24 -0.82)"/><path class="cls-4" d="M278.91,602.46h0a15.06,15.06,0,1,1,1.91-7.43A14.89,14.89,0,0,1,278.91,602.46Zm-26.35-3.59a13.7,13.7,0,1,0-.52-3.66A13.94,13.94,0,0,0,252.56,598.87Zm25.76,3.28v0Z" transform="translate(-0.24 -0.82)"/><path class="cls-4" d="M112,518.72h0A12.17,12.17,0,1,1,119,503a12,12,0,0,1,.82,4.3A12.19,12.19,0,0,1,112,518.72Zm-14.48-7.43a10.79,10.79,0,1,0-.74-3.82A10.82,10.82,0,0,0,97.53,511.29Zm14.24,6.81h0Z" transform="translate(-0.24 -0.82)"/><path class="cls-4" d="M696.35,251.89A10.62,10.62,0,0,1,682,256.15h0a10.6,10.6,0,1,1,15.21-12.33,10.29,10.29,0,0,1,.44,3A10.54,10.54,0,0,1,696.35,251.89Zm-18.17-2.43a9.16,9.16,0,0,0,4.45,5.49h0a9.2,9.2,0,1,0-4.84-8.06A9.48,9.48,0,0,0,678.18,249.46Z" transform="translate(-0.24 -0.82)"/><path class="cls-4" d="M212.8,586.05a3.71,3.71,0,1,1-6.15-3,3.65,3.65,0,0,1,2.68-.92,3.71,3.71,0,0,1,3.47,3.67A2.43,2.43,0,0,1,212.8,586.05Zm-5.47,1.31a2.31,2.31,0,0,0,1.62.79,2.34,2.34,0,1,0,.29-4.68,2.36,2.36,0,0,0-2.49,2.19h0v.18A2.3,2.3,0,0,0,207.33,587.36Zm-1.26-1.72v0Z" transform="translate(-0.24 -0.82)"/><path class="cls-4" d="M94.74,13.56h0a4.15,4.15,0,1,1,0-.5C94.76,13.22,94.75,13.39,94.74,13.56Zm-4.48,2.35a2.83,2.83,0,0,0,3.12-2.5h0a2.83,2.83,0,0,0-5.62-.62c0,.11,0,.22,0,.33A2.83,2.83,0,0,0,90.26,15.91Z" transform="translate(-0.24 -0.82)"/><path class="cls-4" d="M406.68,600.06a14.45,14.45,0,1,1,.58-4.17A14.4,14.4,0,0,1,406.68,600.06Zm-25.47,2.31a13.16,13.16,0,1,0-1.11-10,13.27,13.27,0,0,0-.53,3.78A13.11,13.11,0,0,0,381.21,602.37Z" transform="translate(-0.24 -0.82)"/><path class="cls-4" d="M747.56,99.71h0a7.22,7.22,0,0,1-9.49,3.85,7.24,7.24,0,1,1,10.06-6.71A7.06,7.06,0,0,1,747.56,99.71Zm-9,2.6a5.89,5.89,0,0,0,7.71-3.13h0a5.88,5.88,0,1,0-7.71,3.13Z" transform="translate(-0.24 -0.82)"/><path class="cls-4" d="M551,94.93a3.46,3.46,0,0,1-2.64-.15,3.5,3.5,0,0,1-1.76-2,3.45,3.45,0,0,1,.16-2.64,3.41,3.41,0,0,1,2-1.76,3.46,3.46,0,0,1,4.4,2.13,3.91,3.91,0,0,1,.19,1.1A3.46,3.46,0,0,1,551,94.93Zm-3.11-2.58a2.09,2.09,0,0,0,2.67,1.29h0a2.1,2.1,0,0,0-1.38-4,2.1,2.1,0,0,0-1.41,2A2,2,0,0,0,547.9,92.35Z" transform="translate(-0.24 -0.82)"/><path class="cls-4" d="M247.74,200.58a5.12,5.12,0,0,1-9.19-2.24h0a5.11,5.11,0,0,1,10.11-1.56,4.74,4.74,0,0,1,.06.75A5.09,5.09,0,0,1,247.74,200.58Zm-7.84-2.44h0a3.72,3.72,0,1,0-.05-.55A3.51,3.51,0,0,0,239.9,198.14Z" transform="translate(-0.24 -0.82)"/><path class="cls-4" d="M552.49,701.19a11.49,11.49,0,0,1-19.79,7.69,11.54,11.54,0,0,1-3.18-8.2,11.51,11.51,0,0,1,11.74-11.23h0a11.49,11.49,0,0,1,11.23,11.39Zm-18.8,6.75a10.13,10.13,0,0,0,17.44-6.78,9.82,9.82,0,0,0-2.81-7.22,10.13,10.13,0,0,0-17.44,6.77V701A10.06,10.06,0,0,0,533.69,707.94Z" transform="translate(-0.24 -0.82)"/><path class="cls-4" d="M328.66,356.53h0a16.44,16.44,0,1,1,5.3-12.22A16.42,16.42,0,0,1,328.66,356.53Zm-22.19-1.9a15,15,0,0,0,21.27.9h0a15.05,15.05,0,1,0-25.23-11.72c0,.26,0,.51,0,.77A14.94,14.94,0,0,0,306.47,354.63Zm21.73,1.42v0Z" transform="translate(-0.24 -0.82)"/><path class="cls-4" d="M324.68,22.45a7.37,7.37,0,1,1-6.13-12.17h0a7.36,7.36,0,0,1,7.89,6.81,4.1,4.1,0,0,1,0,.5A7.33,7.33,0,0,1,324.68,22.45Zm-6-10.82A6,6,0,1,0,323,13.08a6,6,0,0,0-4.37-1.45Z" transform="translate(-0.24 -0.82)"/><path class="cls-4" d="M16.54,57.69A9.32,9.32,0,0,1,3.38,57.1,9.35,9.35,0,0,1,1,50.4a9.23,9.23,0,0,1,3-6.46H4A9.31,9.31,0,1,1,16.54,57.69ZM4.89,44.94a7.94,7.94,0,0,0-2.58,5.52,7.83,7.83,0,0,0,2.08,5.72,8,8,0,1,0,.5-11.24Z" transform="translate(-0.24 -0.82)"/><path class="cls-4" d="M639.69,372.85a3.7,3.7,0,0,1-2.46,1.46,3.75,3.75,0,0,1-2.78-.71,3.68,3.68,0,0,1-1.46-2.46,3.74,3.74,0,1,1,6.7,1.71Zm-5.35-1.9a2.34,2.34,0,0,0,.93,1.56h0a2.36,2.36,0,1,0-1-1.89A1.84,1.84,0,0,0,634.34,371Z" transform="translate(-0.24 -0.82)"/><path class="cls-4" d="M172.11,214.06a9.93,9.93,0,1,1,1-7.53,9.67,9.67,0,0,1,.32,2.44A9.83,9.83,0,0,1,172.11,214.06Zm-16.86-2.87a8.55,8.55,0,1,0-.28-2.09A8.9,8.9,0,0,0,155.25,211.19Z" transform="translate(-0.24 -0.82)"/><path class="cls-4" d="M701.42,296.85h0a9.42,9.42,0,0,1-18.84,0v-.13a9.42,9.42,0,0,1,18.84,0Zm-15.15,5.63a8.06,8.06,0,0,0,13.79-5.63h0v-.11a8.06,8.06,0,0,0-8-8,8.06,8.06,0,0,0-8.1,8v.1A8,8,0,0,0,686.27,302.48Z" transform="translate(-0.24 -0.82)"/><path class="cls-4" d="M115,60.55a4.36,4.36,0,0,1-3.38-.08,4.41,4.41,0,0,1-2.24-5.83,4.42,4.42,0,0,1,8.16.2A4.43,4.43,0,0,1,115,60.55Zm-4.44-3a3.05,3.05,0,0,0,1.62,1.69,3,3,0,0,0,2.34.06,3.05,3.05,0,0,0-2.2-5.7,3,3,0,0,0-1.7,1.61,2.91,2.91,0,0,0-.26,1.26A3.13,3.13,0,0,0,110.51,57.53Z" transform="translate(-0.24 -0.82)"/><path class="cls-4" d="M219.81,102a6.42,6.42,0,0,1-12.52-2.85c.78-3.45-65.77-5.08-62.32-4.29,3,.67,75,2.75,75,5.66A6.84,6.84,0,0,1,219.81,102Zm-7.38,3.51a5.06,5.06,0,0,0,6-3.81c.62-2.72-71.09-4.9-73.81-5.52s64.56.55,63.94,3.27a5.14,5.14,0,0,0-.12,1.16A5.05,5.05,0,0,0,212.43,105.49Z" transform="translate(-0.24 -0.82)"/><path class="cls-4" d="M393.27,646.64a4.46,4.46,0,0,1-6.3-.25,4.46,4.46,0,1,1,6.55-6.06h0a4.48,4.48,0,0,1-.25,6.31Zm-.75-5.39a3.11,3.11,0,0,0-5.38,2,3.11,3.11,0,0,0,3,3.22,3.1,3.1,0,0,0,2.4-5.21Z" transform="translate(-0.24 -0.82)"/><path class="cls-4" d="M151.69,16.73a4.87,4.87,0,0,1-3.09,2.12h0a4.89,4.89,0,1,1,3.77-5.8,5.56,5.56,0,0,1,.11,1A5,5,0,0,1,151.69,16.73Zm-7.56-1.93a3.53,3.53,0,0,0,4.19,2.72h0A3.55,3.55,0,0,0,150.55,16a3.51,3.51,0,0,0,.49-2.66,3.53,3.53,0,1,0-6.91,1.47Z" transform="translate(-0.24 -0.82)"/><path class="cls-4" d="M201.84,17.8a5.14,5.14,0,0,1-3,2.56,5.11,5.11,0,0,1-6.18-7.14h0a5.1,5.1,0,0,1,9.41.68,5,5,0,0,1,.26,1.57A5,5,0,0,1,201.84,17.8Zm-7.92-4a3.76,3.76,0,0,0,1.68,5,3.75,3.75,0,0,0,5.23-4.53,3.75,3.75,0,0,0-6.91-.5Z" transform="translate(-0.24 -0.82)"/><path class="cls-4" d="M164.3,508.61a7.61,7.61,0,1,1,.22-10.77h0a7.65,7.65,0,0,1-.22,10.77Zm-.77-9.82a6.25,6.25,0,0,0-9,8.66,6.25,6.25,0,0,0,9-8.66Z" transform="translate(-0.24 -0.82)"/><path class="cls-4" d="M552.36,404.76a13.81,13.81,0,1,1,11.32-15.91,13.59,13.59,0,0,1,.19,2.19A13.83,13.83,0,0,1,552.36,404.76Zm-14.57-11.54A12.45,12.45,0,1,0,548,378.87h0a12.48,12.48,0,0,0-10.2,14.35Zm10.09-15v0Z" transform="translate(-0.24 -0.82)"/><path class="cls-4" d="M435.08,505A12.86,12.86,0,0,1,417.35,509,12.87,12.87,0,1,1,435.08,505ZM413,500.7a11.5,11.5,0,1,0-.29-2.5A11.15,11.15,0,0,0,413,500.7Z" transform="translate(-0.24 -0.82)"/><path class="cls-4" d="M223.38,635.23a12.18,12.18,0,1,1,3-8.85l0,.75A12.13,12.13,0,0,1,223.38,635.23Zm-20-7.28A10.83,10.83,0,0,0,214.93,638h0a10.84,10.84,0,1,0-11.56-10.74C203.37,627.5,203.38,627.73,203.39,628Z" transform="translate(-0.24 -0.82)"/><path class="cls-4" d="M57.18,327.12a12.15,12.15,0,1,1-20.39-9.41h0a12.17,12.17,0,0,1,17.18.68,12,12,0,0,1,3.22,8.14C57.19,326.73,57.19,326.93,57.18,327.12Zm-19.47-8.41a10.79,10.79,0,1,0,15.26.61,10.82,10.82,0,0,0-15.26-.61Z" transform="translate(-0.24 -0.82)"/><path class="cls-4" d="M373.38,478.05a11.27,11.27,0,1,1,.09-1.58A10.54,10.54,0,0,1,373.38,478.05Zm-18.83,4.48a9.8,9.8,0,1,0-1.93-7.24,10.81,10.81,0,0,0-.09,1.39A9.71,9.71,0,0,0,354.55,482.53Z" transform="translate(-0.24 -0.82)"/><path class="cls-4" d="M291.13,535.45a11.77,11.77,0,1,1,.52-3.56A11.75,11.75,0,0,1,291.13,535.45ZM276.76,542a10.48,10.48,0,1,0-7-13.08,10.32,10.32,0,0,0-.46,3.13A10.51,10.51,0,0,0,276.76,542Z" transform="translate(-0.24 -0.82)"/><path class="cls-4" d="M428.23,286.65a4.57,4.57,0,0,1-2.68,2.29,4.6,4.6,0,0,1-5.8-2.94,4.6,4.6,0,1,1,8.75-2.86h0a4.57,4.57,0,0,1-.27,3.51ZM421,285.57a3.24,3.24,0,0,0,4.09,2.08,3.23,3.23,0,0,0,2.08-4.09h0a3.24,3.24,0,0,0-6-.46,3.39,3.39,0,0,0-.35,1.49A3.3,3.3,0,0,0,421,285.57Z" transform="translate(-0.24 -0.82)"/><path class="cls-4" d="M266.67,488.57a9.76,9.76,0,1,1,4.44-8.27A9.67,9.67,0,0,1,266.67,488.57Zm-12.33-3.63a8.39,8.39,0,1,0-1.15-6.3,8.22,8.22,0,0,0-.19,1.84A8.32,8.32,0,0,0,254.34,484.94Z" transform="translate(-0.24 -0.82)"/><path class="cls-4" d="M533.22,304.32a7.78,7.78,0,0,1-10.44,3.48,7.78,7.78,0,1,1,7-13.92h0a7.79,7.79,0,0,1,4.3,6.91A7.67,7.67,0,0,1,533.22,304.32Zm-13.05-1.45a6.42,6.42,0,1,0,9-7.78h0a6.43,6.43,0,0,0-9.3,5.79A6.5,6.5,0,0,0,520.17,302.87Z" transform="translate(-0.24 -0.82)"/><path class="cls-4" d="M130,468.83a5,5,0,0,1-5.18,4.76,5,5,0,0,1-4.76-5.17,5,5,0,0,1,5.18-4.76h0a5,5,0,0,1,4.76,4.93ZM125.2,465a3.62,3.62,0,0,0-2.6,1,3.57,3.57,0,0,0-1.16,2.51,3.67,3.67,0,0,0,1,2.59A3.61,3.61,0,1,0,125.2,465Z" transform="translate(-0.24 -0.82)"/><path class="cls-4" d="M354.5,660.29a11.82,11.82,0,1,1,2.13-6.85A11.82,11.82,0,0,1,354.5,660.29Zm-15.67,1.78a10.46,10.46,0,1,0-4.44-8.49A10.37,10.37,0,0,0,338.83,662.07Z" transform="translate(-0.24 -0.82)"/><path class="cls-4" d="M476.66,144a3.79,3.79,0,0,1-6.93-.94h0a3.8,3.8,0,0,1,2.69-4.63,3.79,3.79,0,0,1,4.24,5.57ZM471,142.7h0a2.43,2.43,0,1,0,1.73-3,2.41,2.41,0,0,0-1.48,1.13,2.44,2.44,0,0,0-.33,1.23A2.47,2.47,0,0,0,471,142.7Z" transform="translate(-0.24 -0.82)"/><path class="cls-4" d="M559.71,501.53h0a17.62,17.62,0,1,1,1.83-7.95A17.78,17.78,0,0,1,559.71,501.53ZM528.25,499a16.4,16.4,0,0,0,30.24,1.93h0a16.4,16.4,0,1,0-31.13-7.12A16.65,16.65,0,0,0,528.25,499Z" transform="translate(-0.24 -0.82)"/><path class="cls-4" d="M218.15,497.3a5.93,5.93,0,1,1-4.69-6.94h0a5.94,5.94,0,0,1,4.8,5.77A5.79,5.79,0,0,1,218.15,497.3Zm-5-5.61a4.57,4.57,0,0,0-5.35,3.62,4.57,4.57,0,0,0,7,4.65,4.57,4.57,0,0,0-1.69-8.27Z" transform="translate(-0.24 -0.82)"/><path class="cls-4" d="M17.36,470.73h0a10.61,10.61,0,1,1,7.21-13.16,10.31,10.31,0,0,1,.42,2.89A10.63,10.63,0,0,1,17.36,470.73ZM5.51,463.14A9.26,9.26,0,0,0,17,469.42h0A9.25,9.25,0,1,0,6.28,456.1a9.13,9.13,0,0,0-1.14,4.5A9.24,9.24,0,0,0,5.51,463.14Zm11.66,6.95h0Z" transform="translate(-0.24 -0.82)"/><path class="cls-4" d="M487.46,67.19a14.47,14.47,0,1,1,11.24-17.1,14.32,14.32,0,0,1,.31,2.82A14.5,14.5,0,0,1,487.46,67.19ZM471.69,55.66a13.11,13.11,0,1,0-.27-2.55A13.9,13.9,0,0,0,471.69,55.66Z" transform="translate(-0.24 -0.82)"/><path class="cls-4" d="M415.22,359.66h0a7.52,7.52,0,1,1,.23-1.93A7.54,7.54,0,0,1,415.22,359.66Zm-12.55,1.25a6.13,6.13,0,0,0,3.76,2.82,6.14,6.14,0,0,0,7.47-4.41h0a6.14,6.14,0,1,0-11.23,1.59Z" transform="translate(-0.24 -0.82)"/><path class="cls-4" d="M73.8,683.62a15,15,0,0,1-20.78-4h0a15,15,0,1,1,20.78,4Zm-19.65-4.76h0a13.62,13.62,0,1,0-2.33-7.5A13.5,13.5,0,0,0,54.15,678.86Z" transform="translate(-0.24 -0.82)"/><path class="cls-4" d="M9.8,367.83a5.64,5.64,0,0,1-2.3-11h0a5.65,5.65,0,0,1,6.67,4.37,7,7,0,0,1,.12,1.11A5.65,5.65,0,0,1,9.8,367.83Zm-2-9.7a4.27,4.27,0,1,0,5.06,3.31,4.27,4.27,0,0,0-5.06-3.31Z" transform="translate(-0.24 -0.82)"/><path class="cls-4" d="M200.48,549.21a11.57,11.57,0,1,1,.85-4.44A11.58,11.58,0,0,1,200.48,549.21Zm-14.64,5.18a10.27,10.27,0,1,0-6.43-9.47A10.23,10.23,0,0,0,185.84,554.39Z" transform="translate(-0.24 -0.82)"/><path class="cls-4" d="M127.79,701.36a5.89,5.89,0,1,1-3.7-7.47,5.9,5.9,0,0,1,3.4,3,5.78,5.78,0,0,1,.61,2.57A5.65,5.65,0,0,1,127.79,701.36Zm-9.64.13a4.53,4.53,0,1,0-.23-3.46,4.52,4.52,0,0,0,.23,3.46Z" transform="translate(-0.24 -0.82)"/><path class="cls-4" d="M521.25,662.28a17.89,17.89,0,1,1,16.22-19.4c0,.49.07,1,.08,1.47A17.91,17.91,0,0,1,521.25,662.28ZM503.2,645.94A16.53,16.53,0,1,0,536.12,643h0a16.52,16.52,0,0,0-33,1.59Q503.14,645.26,503.2,645.94Z" transform="translate(-0.24 -0.82)"/><path class="cls-4" d="M718.66,676.86h0a4.47,4.47,0,1,1,.86-6.26,4.49,4.49,0,0,1-.86,6.26Zm-5.18-1.68a3.1,3.1,0,0,0,4.35.6h0a3.11,3.11,0,1,0-5-2.45A3,3,0,0,0,713.48,675.18Zm4.77,1.16v0Z" transform="translate(-0.24 -0.82)"/><path class="cls-4" d="M666.41,200.41a6.26,6.26,0,0,1-8.49-2.49h0a6.26,6.26,0,0,1,11-6,6.24,6.24,0,0,1-2.49,8.49Zm-7.29-3.14h0a4.9,4.9,0,1,0,8.59-4.7,4.9,4.9,0,0,0-9,1,4.66,4.66,0,0,0-.2,1.43A4.84,4.84,0,0,0,659.12,197.27Z" transform="translate(-0.24 -0.82)"/><path class="cls-4" d="M136.48,62.6a13.47,13.47,0,1,1-6.31-18h0a13.47,13.47,0,0,1,6.31,18Zm-6.9-16.75a12.12,12.12,0,0,0-16.16,5.67,12.12,12.12,0,0,0,5.67,16.16,12.11,12.11,0,1,0,10.49-21.83Z" transform="translate(-0.24 -0.82)"/><path class="cls-4" d="M752.57,14.33a4.87,4.87,0,1,1-4.68-7.68h0a4.87,4.87,0,0,1,5.56,4.06,4.37,4.37,0,0,1,.06.72A4.77,4.77,0,0,1,752.57,14.33Zm-6.76-4.94a3.53,3.53,0,0,0-.63,2.61,3.51,3.51,0,0,0,6.3,1.53,3.51,3.51,0,0,0,.63-2.61,3.51,3.51,0,0,0-4-2.92h0A3.49,3.49,0,0,0,745.81,9.39Z" transform="translate(-0.24 -0.82)"/><path class="cls-4" d="M363.77,143.81a16.9,16.9,0,1,1-15-18.6,16.92,16.92,0,0,1,15.1,16.64A16.07,16.07,0,0,1,363.77,143.81Zm-28.9,8a15.54,15.54,0,1,0-3.35-11.4,13.57,13.57,0,0,0-.09,1.8A15.37,15.37,0,0,0,334.87,151.77Z" transform="translate(-0.24 -0.82)"/><path class="cls-4" d="M517.12,453.9a17.4,17.4,0,0,1-21.89-11.2h0A17.39,17.39,0,0,1,528.33,432a17.39,17.39,0,0,1-11.21,21.89Zm-20.6-11.62h0a16,16,0,1,0-.77-4.79A16.06,16.06,0,0,0,496.52,442.28Z" transform="translate(-0.24 -0.82)"/><path class="cls-4" d="M366.48,751.52a5.19,5.19,0,0,1-7.12,1.77h0a5.19,5.19,0,1,1,7.86-4.48A5.13,5.13,0,0,1,366.48,751.52Zm-6.42.61h0a3.85,3.85,0,1,0-1.85-3.26A3.83,3.83,0,0,0,360.06,752.13Z" transform="translate(-0.24 -0.82)"/><path class="cls-4" d="M712.85,154.84a11.79,11.79,0,1,1-8.22-14.51h0a11.78,11.78,0,0,1,8.22,14.51Zm-8.58-13.2a10.43,10.43,0,1,0-5.57,20.1,10.43,10.43,0,1,0,5.57-20.1Z" transform="translate(-0.24 -0.82)"/><path class="cls-4" d="M153.94,161.6a3.74,3.74,0,0,1-1.67,2.39,3.81,3.81,0,1,1,1.17-5.27,3.84,3.84,0,0,1,.6,2A3.67,3.67,0,0,1,153.94,161.6Zm-5.79.49a2.38,2.38,0,0,0,1.54,1.08,2.42,2.42,0,0,0,1.85-.32,2.5,2.5,0,0,0,1.08-1.55,2.47,2.47,0,0,0-.33-1.85,2.46,2.46,0,0,0-4.47.79,2.67,2.67,0,0,0-.06.56A2.32,2.32,0,0,0,148.15,162.09Z" transform="translate(-0.24 -0.82)"/><path class="cls-4" d="M71.5,529.32a4.19,4.19,0,0,1-6.64-4,4.14,4.14,0,0,1,1.65-2.75,4.19,4.19,0,0,1,5.86.87h0a4.11,4.11,0,0,1,.82,2.46A4.18,4.18,0,0,1,71.5,529.32Zm-.22-5.05a2.83,2.83,0,1,0-.59,4,2.83,2.83,0,0,0,.59-4Z" transform="translate(-0.24 -0.82)"/><path class="cls-4" d="M725.18,530.17a10.85,10.85,0,0,1-18.55-11.26h0a10.85,10.85,0,0,1,18.55,11.26ZM711,532.65a9.49,9.49,0,1,0-3.19-13h0a9.51,9.51,0,0,0,3.19,13Zm-3.77-13.37v0Z" transform="translate(-0.24 -0.82)"/><path class="cls-4" d="M200.6,172.88a9.74,9.74,0,1,1,5.32-12.72,9.87,9.87,0,0,1,.73,3.62A9.76,9.76,0,0,1,200.6,172.88Zm-11.46-5.83a8.37,8.37,0,1,0-.63-3.11A8.39,8.39,0,0,0,189.14,167.05Z" transform="translate(-0.24 -0.82)"/><path class="cls-4" d="M519.3,117.31a13.38,13.38,0,0,1-7.95,6.59h0A13.5,13.5,0,1,1,520.27,107a13.32,13.32,0,0,1-1,10.28Zm-23.52-2.74a12.13,12.13,0,0,0,15.17,8h0a12.14,12.14,0,1,0-15.71-11.52A12.32,12.32,0,0,0,495.78,114.57Z" transform="translate(-0.24 -0.82)"/><path class="cls-4" d="M619.22,184.83a4,4,0,0,1-2.58,1.72h0a4,4,0,0,1-4.75-3.19,4,4,0,1,1,7.93-1.57,3.27,3.27,0,0,1,.08.76A4,4,0,0,1,619.22,184.83Zm-6-1.73a2.69,2.69,0,0,0,4.87,1,2.76,2.76,0,0,0,.4-2,2.69,2.69,0,0,0-4.87-1,2.75,2.75,0,0,0-.45,1.51A2.94,2.94,0,0,0,613.22,183.1Zm3.29,2.8v0Z" transform="translate(-0.24 -0.82)"/><path class="cls-4" d="M265.35,751.14h0a10.12,10.12,0,1,1,1.16-4.75A10,10,0,0,1,265.35,751.14ZM248,749.07a8.78,8.78,0,0,0,16.16,1.44h0a8.78,8.78,0,1,0-16.56-4A8.66,8.66,0,0,0,248,749.07Zm16.76,1.78v0Z" transform="translate(-0.24 -0.82)"/><path class="cls-4" d="M527.09,755.06a10.84,10.84,0,1,1,9.64-11.93q0,.54.06,1.08A10.85,10.85,0,0,1,527.09,755.06Zm-10.57-9.78a9.3,9.3,0,1,0-.06-.94C516.47,744.65,516.49,745,516.52,745.28Z" transform="translate(-0.24 -0.82)"/><path class="cls-4" d="M104.76,284.65A17.56,17.56,0,0,1,86.05,301h0a17.55,17.55,0,1,1,18.76-17.67C104.81,283.73,104.8,284.19,104.76,284.65ZM86.14,299.59h0a16.19,16.19,0,1,0-15-17.26c0,.42,0,.83,0,1.25A16.21,16.21,0,0,0,86.14,299.59Z" transform="translate(-0.24 -0.82)"/><path class="cls-4" d="M263.79,99.78a3.63,3.63,0,0,1-5.14.44,3.59,3.59,0,0,1-1.28-2.47c-.09-1-69.78-1.38-69.16-2.12a3.64,3.64,0,0,1,2.48-1.28,3.59,3.59,0,0,1,2.66.84c.74.63,71.2,1,71.28,1.93,0,.1,0,.2,0,.29A3.67,3.67,0,0,1,263.79,99.78Zm-5.07-2.15a2.3,2.3,0,0,0,2.47,2.08,2.31,2.31,0,0,0,1.56-.8,2.36,2.36,0,0,0,.53-1.67c-.06-.61-70.34-.62-70.81-1a2.28,2.28,0,0,0-1.66-.53c-.61,0,68.83-.2,68.44.26a2.31,2.31,0,0,0-.54,1.49C258.71,97.51,258.72,97.57,258.72,97.63Z" transform="translate(-0.24 -0.82)"/><path class="cls-4" d="M164,282.48a17.62,17.62,0,0,1-24.13-6.1h0a17.6,17.6,0,1,1,24.13,6.1Zm-23-6.8h0a16.26,16.26,0,1,0-2.28-8.16A16.13,16.13,0,0,0,141.06,275.68Z" transform="translate(-0.24 -0.82)"/><path class="cls-4" d="M57.65,377.47a4.41,4.41,0,0,1-8-1.63,4.42,4.42,0,0,1,3.49-5.16A4.41,4.41,0,0,1,58.4,375,4.39,4.39,0,0,1,57.65,377.47ZM51,375.58a3,3,0,0,0,1.28,1.94,3,3,0,0,0,4.23-.81,3.09,3.09,0,0,0,.47-2.29,3.05,3.05,0,0,0-1.29-1.94A3.05,3.05,0,0,0,51,375,2.67,2.67,0,0,0,51,375.58Z" transform="translate(-0.24 -0.82)"/><path class="cls-4" d="M538.5,549.94a11.86,11.86,0,0,1-23.72-.08,2.44,2.44,0,0,1,0-.27,11.86,11.86,0,0,1,23.71.07Zm-19.39,7.13a10.5,10.5,0,0,0,15.07-14.62,10.5,10.5,0,0,0-18,7.16,1,1,0,0,0,0,.24A10.39,10.39,0,0,0,519.11,557.07Z" transform="translate(-0.24 -0.82)"/><path class="cls-4" d="M14.75,604.77A4.74,4.74,0,0,1,13.08,608a4.68,4.68,0,0,1-3.47,1.11A4.75,4.75,0,0,1,5.25,604h0a4.76,4.76,0,0,1,9.51.36A3.09,3.09,0,0,1,14.75,604.77ZM7.4,606.58a3.4,3.4,0,0,0,4.8.39,3.36,3.36,0,0,0,1.19-2.31,3.4,3.4,0,1,0-6.78-.57h0c0,.11,0,.22,0,.32A3.43,3.43,0,0,0,7.4,606.58Zm-1.47-2.52v0Z" transform="translate(-0.24 -0.82)"/><path class="cls-4" d="M654.14,151.91a3.59,3.59,0,0,1-2.76-.28,3.62,3.62,0,1,1,5.19-4.23h0a3.48,3.48,0,0,1,.15,1A3.64,3.64,0,0,1,654.14,151.91Zm1.12-4.12a2.26,2.26,0,1,0-1.51,2.81,2.25,2.25,0,0,0,1.51-2.81Z" transform="translate(-0.24 -0.82)"/><path class="cls-4" d="M499,501.26a15.24,15.24,0,1,1-14.54-15.92h0A15.26,15.26,0,0,1,499,500.44C499,500.71,499,501,499,501.26Zm-15.86,13.18a13.88,13.88,0,1,0,1.26-27.74h0a13.89,13.89,0,0,0-14.5,13.24c0,.25,0,.5,0,.75A13.9,13.9,0,0,0,483.12,514.44Z" transform="translate(-0.24 -0.82)"/><path class="cls-4" d="M638.38,235.7a4.8,4.8,0,1,1,1-3.54,4.85,4.85,0,0,1-1,3.54Zm-7.2-2.59a3.45,3.45,0,0,0,1.29,2.31,3.46,3.46,0,0,0,5.57-3.1,3.45,3.45,0,0,0-1.29-2.31,3.45,3.45,0,0,0-5.59,2.72C631.16,232.86,631.17,233,631.18,233.11Z" transform="translate(-0.24 -0.82)"/><path class="cls-4" d="M53.14,434.37A9.91,9.91,0,0,1,48.79,415h0a9.92,9.92,0,0,1,11.84,7.49,9.46,9.46,0,0,1,.24,2.1A9.91,9.91,0,0,1,53.14,434.37Zm-4-18a8.54,8.54,0,1,0,10.21,6.46,8.54,8.54,0,0,0-10.21-6.46Z" transform="translate(-0.24 -0.82)"/><path class="cls-4" d="M59.78,600.15h0a5,5,0,1,1,3.36-6.29,4.67,4.67,0,0,1,.22,1.42A5,5,0,0,1,59.78,600.15Zm-5-3.76a3.69,3.69,0,0,0,4.59,2.46h0a3.69,3.69,0,1,0-4.75-3.5A3.46,3.46,0,0,0,54.79,596.39Zm4.79,3.13v0Z" transform="translate(-0.24 -0.82)"/><path class="cls-4" d="M729,214.68A11.1,11.1,0,1,1,723.45,200a11,11,0,0,1,5.8,6.19,11,11,0,0,1-.27,8.49ZM714.85,219a9.72,9.72,0,1,0-5.72-8.8A9.75,9.75,0,0,0,714.85,219Z" transform="translate(-0.24 -0.82)"/><path class="cls-4" d="M327.75,743.93a17.51,17.51,0,1,1,2.75-13.13,18.76,18.76,0,0,1,.3,3.15A17.41,17.41,0,0,1,327.75,743.93Zm-23.58,3.47a16.16,16.16,0,1,0-4.24-22.46h0a16.17,16.17,0,0,0,4.24,22.46Zm-4.8-22.82v0Z" transform="translate(-0.24 -0.82)"/><path class="cls-4" d="M703.55,99.28a10.46,10.46,0,1,1-20.77-2.54h0a10.46,10.46,0,1,1,20.77,2.54Zm-19.42-2.37A9.1,9.1,0,1,0,694.27,89a9.13,9.13,0,0,0-10.14,7.94Z" transform="translate(-0.24 -0.82)"/><path class="cls-4" d="M648.69,290.75A8.71,8.71,0,1,1,638,277h0a8.72,8.72,0,0,1,12.21,1.55,8.72,8.72,0,0,1-1.54,12.21Zm-9.84-12.68a7.34,7.34,0,1,0,10.31,1.3,7.34,7.34,0,0,0-10.31-1.3Z" transform="translate(-0.24 -0.82)"/><path class="cls-4" d="M703.76,427.24a5.2,5.2,0,0,1-7.34,0,5.19,5.19,0,1,1,8.85-3.72A5.14,5.14,0,0,1,703.76,427.24Zm-6.38-1a3.78,3.78,0,0,0,2.71,1.12,3.82,3.82,0,1,0-2.71-1.12Z" transform="translate(-0.24 -0.82)"/><path class="cls-4" d="M164.74,589.17a5.09,5.09,0,1,1-6.66-7.69h0a5.09,5.09,0,0,1,6.66,7.69ZM159,582.51a3.73,3.73,0,0,0-.38,5.25,3.73,3.73,0,0,0,5.26.38,3.73,3.73,0,1,0-4.88-5.63Z" transform="translate(-0.24 -0.82)"/><path class="cls-4" d="M756.66,493.24h0a8.34,8.34,0,0,1-14.49,5.29,8.35,8.35,0,1,1,14.49-5.72C756.67,493,756.66,493.1,756.66,493.24Zm-.68,0v0Zm-12.81,4.38a6.92,6.92,0,0,0,4.85,2.26,7,7,0,0,0,7.28-6.69h0a7,7,0,0,0-1.84-5,7,7,0,0,0-12.13,4.43V493A6.93,6.93,0,0,0,743.17,497.61Z" transform="translate(-0.24 -0.82)"/><path class="cls-4" d="M167.64,120.92A13.38,13.38,0,1,1,173.69,103h0a13.38,13.38,0,0,1-6.05,17.93Zm4.83-17.33a12,12,0,0,0-16.11-5.43A12,12,0,1,0,167,119.7a12,12,0,0,0,5.44-16.11Z" transform="translate(-0.24 -0.82)"/><path class="cls-4" d="M159.66,625.47a9.44,9.44,0,1,1-7.46-11.08h0a9.46,9.46,0,0,1,7.63,9.19A9.29,9.29,0,0,1,159.66,625.47Zm-16,2.71a8.09,8.09,0,1,0,8.26-12.45h0a8.08,8.08,0,0,0-9.48,6.38,8,8,0,0,0,1.22,6.07Z" transform="translate(-0.24 -0.82)"/><path class="cls-4" d="M556.59,254a4.22,4.22,0,0,1-2.5,2,4.15,4.15,0,0,1-3.22-.32,4.23,4.23,0,0,1,4-7.46,4.27,4.27,0,0,1,2,2.51,4.24,4.24,0,0,1-.32,3.22Zm-6.47-1.16h0a2.87,2.87,0,1,0,4.09-3.36,2.81,2.81,0,0,0-2.18-.22,2.87,2.87,0,0,0-2,2.76A2.6,2.6,0,0,0,550.12,252.86Z" transform="translate(-0.24 -0.82)"/><path class="cls-4" d="M463.14,259.35a12,12,0,1,1,3.11-16.72,12,12,0,0,1-3.11,16.72Zm-15.61-3.88a10.67,10.67,0,1,0-1.69-8,10.18,10.18,0,0,0-.18,2.06A10.52,10.52,0,0,0,447.53,255.47Z" transform="translate(-0.24 -0.82)"/><path class="cls-4" d="M335.48,198.36a5.78,5.78,0,0,1-2.1,3.91,5.79,5.79,0,0,1-9.44-5.05,5.81,5.81,0,0,1,6.34-5.2h0a5.82,5.82,0,0,1,5.23,5.72C335.51,197.94,335.5,198.15,335.48,198.36Zm-6.21,3.85a4.45,4.45,0,0,0,3.25-1,4.35,4.35,0,0,0,1.6-3,4.43,4.43,0,0,0-1-3.25,4.37,4.37,0,0,0-3-1.6h0a4.45,4.45,0,0,0-4.86,4c0,.16,0,.32,0,.48A4.45,4.45,0,0,0,329.27,202.21Z" transform="translate(-0.24 -0.82)"/><path class="cls-4" d="M584,160.92a3.82,3.82,0,0,1-5.18-1.6,3.84,3.84,0,1,1,5.18,1.6Zm-4-2.23a2.47,2.47,0,1,0,4.37-2.31,2.47,2.47,0,0,0-4.66,1.18A2.32,2.32,0,0,0,580.05,158.69Z" transform="translate(-0.24 -0.82)"/><path class="cls-4" d="M77.61,173.6h0A14,14,0,1,1,82.28,163,13.91,13.91,0,0,1,77.61,173.6Zm-18.79-2a12.68,12.68,0,0,0,17.89,1h0a12.67,12.67,0,1,0-21.09-10.15c0,.28,0,.55,0,.82A12.55,12.55,0,0,0,58.82,171.59Zm18.34,1.52v0Z" transform="translate(-0.24 -0.82)"/><path class="cls-4" d="M721.49,750.05a5,5,0,0,1-8.74-2.77,5,5,0,1,1,8.74,2.77Zm-7.39-2.88a3.62,3.62,0,0,0,3.9,3.28,3.6,3.6,0,0,0,2-6.35,3.61,3.61,0,0,0-5.08.44h0a3.58,3.58,0,0,0-.84,2.34C714.09,747,714.09,747.07,714.1,747.17Zm.31-3v0Z" transform="translate(-0.24 -0.82)"/><path class="cls-4" d="M156.17,752.74a11.37,11.37,0,0,1-15.4,4.58,11.36,11.36,0,0,1-4.58-15.4,11.37,11.37,0,0,1,15.4-4.58h0a11.36,11.36,0,0,1,4.58,15.4Zm-5.23-14.2a10,10,0,1,0,4,13.55,10,10,0,0,0-4-13.55Z" transform="translate(-0.24 -0.82)"/><path class="cls-4" d="M98.79,104.18a.7.7,0,0,0-.37-.6.69.69,0,0,0-.92.29l-1.32,2.56a.67.67,0,0,0,.3.91.66.66,0,0,0,.91-.29l1.32-2.56A.68.68,0,0,0,98.79,104.18Z" transform="translate(-0.24 -0.82)"/><path class="cls-4" d="M6.42,726.09a.7.7,0,0,0-.19-.47l-2-2a.68.68,0,1,0-1,1l2,2a.68.68,0,0,0,1.17-.48Z" transform="translate(-0.24 -0.82)"/><path class="cls-4" d="M152.22,667.16a.68.68,0,0,0-.43-.63l-1.1-.44a.67.67,0,0,0-.88.38.69.69,0,0,0,.38.89l1.1.43a.67.67,0,0,0,.88-.38A.56.56,0,0,0,152.22,667.16Z" transform="translate(-0.24 -0.82)"/><path class="cls-4" d="M291.15,304.91a.67.67,0,0,0-.35-.59l-1.66-.94a.68.68,0,0,0-.93.26.69.69,0,0,0,.26.93l1.66.94a.69.69,0,0,0,.93-.26A.72.72,0,0,0,291.15,304.91Z" transform="translate(-0.24 -0.82)"/><path class="cls-4" d="M5.22,8a.66.66,0,0,0-.43-.62.68.68,0,0,0-.88.38l-.21.53A.68.68,0,1,0,5,8.79l.21-.53A.58.58,0,0,0,5.22,8Z" transform="translate(-0.24 -0.82)"/><path class="cls-4" d="M720.44,359.38v0a.7.7,0,0,0-.71-.66l-2.49.08a.64.64,0,0,0-.66.71.67.67,0,0,0,.7.65l2.5-.08A.68.68,0,0,0,720.44,359.38Z" transform="translate(-0.24 -0.82)"/><path class="cls-4" d="M362.17,5.17a.64.64,0,0,0-.16-.43.67.67,0,0,0-.95-.09l-.62.51a.68.68,0,1,0,.87,1l.62-.51A.71.71,0,0,0,362.17,5.17Z" transform="translate(-0.24 -0.82)"/><path class="cls-4" d="M313.22,496.63a.68.68,0,0,0-.48-.64l-2.76-.86a.67.67,0,0,0-.85.44.69.69,0,0,0,.45.86l2.75.86a.68.68,0,0,0,.85-.45A.52.52,0,0,0,313.22,496.63Z" transform="translate(-0.24 -0.82)"/><path class="cls-4" d="M474.94,290.46a.69.69,0,0,0-.49-.65l-3-.91a.69.69,0,0,0-.85.46.68.68,0,0,0,.45.85l3,.9a.68.68,0,0,0,.85-.45A.69.69,0,0,0,474.94,290.46Z" transform="translate(-0.24 -0.82)"/><path class="cls-4" d="M585.28,111.37a.64.64,0,0,0-.1-.35l-.54-.89a.67.67,0,0,0-.93-.22.68.68,0,0,0-.23.94l.54.88a.68.68,0,0,0,1.26-.36Z" transform="translate(-0.24 -0.82)"/><path class="cls-4" d="M549,140.72a.52.52,0,0,0,0-.11l-.32-1.79a.67.67,0,0,0-.79-.54.66.66,0,0,0-.55.79l.33,1.78a.68.68,0,0,0,1.35-.13Z" transform="translate(-0.24 -0.82)"/><path class="cls-4" d="M513.43,219a.68.68,0,0,0-1.06-.56l-.68.47a.67.67,0,0,0-.18.94.68.68,0,0,0,.94.18l.68-.46A.69.69,0,0,0,513.43,219Z" transform="translate(-0.24 -0.82)"/><path class="cls-4" d="M681.19,347.84a.41.41,0,0,0,0-.11.68.68,0,0,0-.79-.55l-1.5.26a.69.69,0,0,0-.55.79.68.68,0,0,0,.79.55l1.5-.26A.69.69,0,0,0,681.19,347.84Z" transform="translate(-0.24 -0.82)"/><path class="cls-4" d="M508.26,259.7a.67.67,0,0,0-.26-.53l-.55-.43a.68.68,0,0,0-.95.11.69.69,0,0,0,.11,1l.55.43a.67.67,0,0,0,.95-.12A.66.66,0,0,0,508.26,259.7Z" transform="translate(-0.24 -0.82)"/><path class="cls-4" d="M656,8.06a.65.65,0,0,0-.13-.39.68.68,0,0,0-1-.15l-.73.53a.68.68,0,0,0,.81,1.1l.73-.53A.66.66,0,0,0,656,8.06Z" transform="translate(-0.24 -0.82)"/><path class="cls-4" d="M744.45,55.27a.88.88,0,0,0,0-.16l-.14-.55a.67.67,0,0,0-.82-.49.66.66,0,0,0-.5.82l.14.55a.68.68,0,0,0,1.34-.17Z" transform="translate(-0.24 -0.82)"/><path class="cls-4" d="M54.68,115.2a.65.65,0,0,0-.45-.63.68.68,0,0,0-.87.41l-.17.49a.68.68,0,0,0,1.28.46l.17-.5A.59.59,0,0,0,54.68,115.2Z" transform="translate(-0.24 -0.82)"/><path class="cls-4" d="M65.11,478.91a.45.45,0,0,0,0-.11l-.38-2.15a.68.68,0,0,0-.79-.54.67.67,0,0,0-.55.79l.38,2.14a.69.69,0,0,0,.79.55A.67.67,0,0,0,65.11,478.91Z" transform="translate(-0.24 -0.82)"/><path class="cls-4" d="M650.06,104.38a.68.68,0,0,0-.61-.67l-2.7-.29a.68.68,0,0,0-.75.6.69.69,0,0,0,.61.75l2.7.29a.68.68,0,0,0,.75-.6Z" transform="translate(-0.24 -0.82)"/><path class="cls-4" d="M84.56,400.58a.7.7,0,0,0-.38-.6.67.67,0,0,0-.91.3l-.63,1.24a.68.68,0,0,0,1.22.62l.62-1.25A.68.68,0,0,0,84.56,400.58Z" transform="translate(-0.24 -0.82)"/><path class="cls-4" d="M237.46,245.47a.66.66,0,0,0-.12-.38L235.87,243a.68.68,0,1,0-1.13.77l1.48,2.14a.68.68,0,0,0,1.24-.39Z" transform="translate(-0.24 -0.82)"/><path class="cls-4" d="M103.68,629.08a.19.19,0,0,0,0-.08l-.17-1.36a.69.69,0,0,0-.76-.59.68.68,0,0,0-.59.76l.17,1.36a.68.68,0,0,0,1.36-.09Z" transform="translate(-0.24 -0.82)"/><path class="cls-4" d="M439.25,751.64a.52.52,0,0,0,0-.21.67.67,0,0,0-.86-.43l-1.56.52a.68.68,0,0,0,.43,1.29l1.56-.52A.69.69,0,0,0,439.25,751.64Z" transform="translate(-0.24 -0.82)"/><path class="cls-4" d="M116.74,183.5s0-.05,0-.07l-.16-1.51a.68.68,0,0,0-.75-.6.67.67,0,0,0-.6.75l.16,1.51a.68.68,0,0,0,.75.6A.69.69,0,0,0,116.74,183.5Z" transform="translate(-0.24 -0.82)"/><path class="cls-4" d="M678,747.38a.67.67,0,0,0-.37-.6.69.69,0,0,0-.92.3l-.36.75a.68.68,0,0,0,.3.91.67.67,0,0,0,.91-.31l.37-.74A.59.59,0,0,0,678,747.38Z" transform="translate(-0.24 -0.82)"/><path class="cls-4" d="M752.65,354.81h0l0-1.08a.67.67,0,0,0-.69-.67.66.66,0,0,0-.67.69l0,1.08a.67.67,0,0,0,.69.67A.69.69,0,0,0,752.65,354.81Z" transform="translate(-0.24 -0.82)"/><path class="cls-4" d="M684.37,648.4a.68.68,0,0,0-1.36-.08l-.07.53a.7.7,0,0,0,.59.77.68.68,0,0,0,.76-.59l.07-.53A.38.38,0,0,0,684.37,648.4Z" transform="translate(-0.24 -0.82)"/><path class="cls-4" d="M332,428.84a.66.66,0,0,0-.12-.38.68.68,0,0,0-.95-.17L328.5,430a.68.68,0,1,0,.78,1.11l2.41-1.68A.67.67,0,0,0,332,428.84Z" transform="translate(-0.24 -0.82)"/><path class="cls-4" d="M308.63,98a.7.7,0,0,0-.25-.52.68.68,0,0,0-1,.09l-.6.73a.68.68,0,1,0,1.05.86l.6-.72A.68.68,0,0,0,308.63,98Z" transform="translate(-0.24 -0.82)"/><path class="cls-4" d="M456.55,457a.69.69,0,0,0-.11-.36.68.68,0,0,0-.94-.2l-.6.38a.69.69,0,0,0-.2.94.68.68,0,0,0,.94.2l.59-.38A.67.67,0,0,0,456.55,457Z" transform="translate(-0.24 -0.82)"/><path class="cls-4" d="M534,40.89a.66.66,0,0,0-.07-.3.69.69,0,0,0-.92-.3l-1.31.67a.68.68,0,1,0,.61,1.21l1.32-.66A.69.69,0,0,0,534,40.89Z" transform="translate(-0.24 -0.82)"/><path class="cls-4" d="M9.14,177.38a.64.64,0,0,0-.22-.49l-.61-.56a.67.67,0,0,0-1,0,.69.69,0,0,0,0,1l.61.56a.69.69,0,0,0,1,0A.71.71,0,0,0,9.14,177.38Z" transform="translate(-0.24 -0.82)"/><path class="cls-4" d="M596,375.56s0,0,0,0a.68.68,0,0,0-.71-.64l-1,.06a.64.64,0,0,0-.64.71.67.67,0,0,0,.71.64l1-.05A.68.68,0,0,0,596,375.56Z" transform="translate(-0.24 -0.82)"/><path class="cls-4" d="M700.56,384.52a.7.7,0,0,0-.07-.31l-.38-.71a.66.66,0,0,0-.91-.29.67.67,0,0,0-.29.92l.37.71a.68.68,0,0,0,1.28-.32Z" transform="translate(-0.24 -0.82)"/><path class="cls-4" d="M486.1,319.8a.72.72,0,0,0-.16-.44.68.68,0,0,0-1-.07l-1.86,1.57a.68.68,0,0,0,.88,1l1.86-1.58A.67.67,0,0,0,486.1,319.8Z" transform="translate(-0.24 -0.82)"/><path class="cls-4" d="M610.26,305.65s0-.09,0-.14a.68.68,0,0,0-.81-.52l-1.92.42a.69.69,0,0,0-.52.81.68.68,0,0,0,.81.52l1.92-.42A.68.68,0,0,0,610.26,305.65Z" transform="translate(-0.24 -0.82)"/><path class="cls-4" d="M207.08,221.46a.69.69,0,0,0-.46-.64l-2.67-.89a.67.67,0,0,0-.86.43.67.67,0,0,0,.43.86l2.67.89a.68.68,0,0,0,.86-.43A.78.78,0,0,0,207.08,221.46Z" transform="translate(-0.24 -0.82)"/><path class="cls-4" d="M618.11,131.66a.71.71,0,0,0-.49-.65.68.68,0,0,0-.85.46l-.19.64a.68.68,0,0,0,.46.85.67.67,0,0,0,.84-.46l.2-.64A.75.75,0,0,0,618.11,131.66Z" transform="translate(-0.24 -0.82)"/><path class="cls-4" d="M469.56,423.87a.72.72,0,0,0-.22-.51.68.68,0,0,0-1,.06l-.46.51a.68.68,0,0,0,1,.91l.46-.52A.65.65,0,0,0,469.56,423.87Z" transform="translate(-0.24 -0.82)"/><path class="cls-4" d="M2.36,316.52a.64.64,0,0,0-.22-.49l-.76-.7a.69.69,0,0,0-1,0,.69.69,0,0,0,0,1l.76.7a.68.68,0,0,0,1.14-.51Z" transform="translate(-0.24 -0.82)"/><path class="cls-4" d="M607.76,751.05a.64.64,0,0,0,0-.2.68.68,0,0,0-.86-.44l-2.15.7a.68.68,0,0,0,.43,1.3l2.14-.71A.66.66,0,0,0,607.76,751.05Z" transform="translate(-0.24 -0.82)"/><path class="cls-4" d="M70.91,626.94a.69.69,0,0,0-.37-.6l-.75-.38a.68.68,0,0,0-.62,1.21l.75.38a.67.67,0,0,0,.91-.29A.72.72,0,0,0,70.91,626.94Z" transform="translate(-0.24 -0.82)"/><path class="cls-4" d="M568.84,619.41a.68.68,0,0,0-1.34-.15l-.18.74a.68.68,0,0,0,1.32.32l.18-.74A.5.5,0,0,0,568.84,619.41Z" transform="translate(-0.24 -0.82)"/><path class="cls-4" d="M667.18,394.61a.6.6,0,0,0-.08-.31l-1.49-2.82a.68.68,0,0,0-1.2.64l1.49,2.82a.68.68,0,0,0,.92.28A.66.66,0,0,0,667.18,394.61Z" transform="translate(-0.24 -0.82)"/><path class="cls-4" d="M405.74,315.93a.58.58,0,0,0-.05-.26l-.86-2a.68.68,0,1,0-1.25.54l.86,2a.68.68,0,0,0,.89.36A.67.67,0,0,0,405.74,315.93Z" transform="translate(-0.24 -0.82)"/><path class="cls-4" d="M118,221.77a.59.59,0,0,0-.07-.29l-.38-.81a.68.68,0,0,0-.91-.31.67.67,0,0,0-.32.9l.39.81a.67.67,0,0,0,.9.32A.69.69,0,0,0,118,221.77Z" transform="translate(-0.24 -0.82)"/><path class="cls-4" d="M658.68,524.89a.68.68,0,0,0-1.29-.29l-1,2.13a.69.69,0,0,0,.33.91.7.7,0,0,0,.91-.33l1-2.13A.79.79,0,0,0,658.68,524.89Z" transform="translate(-0.24 -0.82)"/><path class="cls-4" d="M83.84,756.87a.69.69,0,0,0-.23-.51l-2.15-1.84a.69.69,0,0,0-1,.07.68.68,0,0,0,.08,1l2.14,1.84a.67.67,0,0,0,1-.07A.69.69,0,0,0,83.84,756.87Z" transform="translate(-0.24 -0.82)"/><path class="cls-4" d="M615.52,86.23a.69.69,0,0,0-.93-.63l-1.46.58a.68.68,0,0,0-.39.88.67.67,0,0,0,.88.38l1.46-.57A.7.7,0,0,0,615.52,86.23Z" transform="translate(-0.24 -0.82)"/><path class="cls-4" d="M600,262.41a.67.67,0,0,0-.4-.61l-.56-.26a.68.68,0,1,0-.57,1.24l.57.26a.68.68,0,0,0,.9-.34A.72.72,0,0,0,600,262.41Z" transform="translate(-0.24 -0.82)"/><path class="cls-4" d="M742.29,273.26a.68.68,0,0,0-1-.57l-.74.48a.68.68,0,1,0,.74,1.14l.74-.48A.68.68,0,0,0,742.29,273.26Z" transform="translate(-0.24 -0.82)"/><path class="cls-4" d="M572,747.78a.19.19,0,0,0,0-.08.68.68,0,0,0-.76-.59l-2.24.29a.68.68,0,0,0,.17,1.35l2.24-.29A.68.68,0,0,0,572,747.78Z" transform="translate(-0.24 -0.82)"/><path class="cls-4" d="M94.72,339.7a.78.78,0,0,0,0-.14.67.67,0,0,0-.81-.51l-2,.45a.68.68,0,0,0,.3,1.33l2-.46A.69.69,0,0,0,94.72,339.7Z" transform="translate(-0.24 -0.82)"/><path class="cls-4" d="M533.74,4.46a.66.66,0,0,0-.16-.44l-.71-.84a.68.68,0,0,0-1,.87l.71.85a.68.68,0,0,0,1,.08A.69.69,0,0,0,533.74,4.46Z" transform="translate(-0.24 -0.82)"/><path class="cls-4" d="M337.59,393.48a.69.69,0,0,0-.49-.65l-1-.28a.68.68,0,0,0-.38,1.31l1,.28a.68.68,0,0,0,.84-.46A.69.69,0,0,0,337.59,393.48Z" transform="translate(-0.24 -0.82)"/><path class="cls-4" d="M232.16,356.61a.71.71,0,0,0-.27-.53.69.69,0,0,0-1,.13l-.43.57a.67.67,0,0,0,.14,1,.67.67,0,0,0,1-.13L232,357A.73.73,0,0,0,232.16,356.61Z" transform="translate(-0.24 -0.82)"/><path class="cls-4" d="M348.67,607.72a.59.59,0,0,0-.07-.29.67.67,0,0,0-.91-.31l-1.17.57a.68.68,0,0,0,.6,1.22l1.17-.57A.7.7,0,0,0,348.67,607.72Z" transform="translate(-0.24 -0.82)"/><path class="cls-4" d="M431.38,630.22a.68.68,0,0,0-.63-.67.69.69,0,0,0-.73.63l-.13,2a.68.68,0,0,0,.63.73.69.69,0,0,0,.73-.63l.13-2Z" transform="translate(-0.24 -0.82)"/><path class="cls-4" d="M275.58,238.72a.7.7,0,0,0-.32-.58l-2.46-1.5a.68.68,0,0,0-.94.22.69.69,0,0,0,.23.94l2.45,1.5a.68.68,0,0,0,.94-.22A.7.7,0,0,0,275.58,238.72Z" transform="translate(-0.24 -0.82)"/><path class="cls-4" d="M239.24,671.09a.65.65,0,0,0-.41-.62.67.67,0,0,0-.89.36l-.27.64a.67.67,0,0,0,.36.89.69.69,0,0,0,.89-.36l.27-.64A.65.65,0,0,0,239.24,671.09Z" transform="translate(-0.24 -0.82)"/><path class="cls-4" d="M625.61,508.11a.19.19,0,0,0,0-.08l-.12-1a.69.69,0,0,0-.77-.58.68.68,0,0,0-.58.77l.13.95a.68.68,0,0,0,.76.58A.69.69,0,0,0,625.61,508.11Z" transform="translate(-0.24 -0.82)"/><path class="cls-4" d="M397.12,129.48a.61.61,0,0,0-.11-.36l-1.26-2a.68.68,0,0,0-.94-.2.69.69,0,0,0-.2.94l1.26,2a.68.68,0,0,0,.94.21A.69.69,0,0,0,397.12,129.48Z" transform="translate(-0.24 -0.82)"/><path class="cls-4" d="M496.1,4.09a.66.66,0,0,0-.09-.33.69.69,0,0,0-.93-.26l-1.53.87a.68.68,0,0,0,.67,1.19l1.53-.88A.65.65,0,0,0,496.1,4.09Z" transform="translate(-0.24 -0.82)"/><path class="cls-4" d="M443.69,323.83a.67.67,0,0,0-.18-.46l-1-1.06a.67.67,0,0,0-1,0,.68.68,0,0,0,0,1l1,1.07a.68.68,0,0,0,1,0A.66.66,0,0,0,443.69,323.83Z" transform="translate(-0.24 -0.82)"/><path class="cls-4" d="M486.48,753.45a.63.63,0,0,0-.15-.41l-1-1.31a.67.67,0,0,0-.95-.11.66.66,0,0,0-.12,1l1,1.3a.68.68,0,0,0,1.22-.42Z" transform="translate(-0.24 -0.82)"/><path class="cls-4" d="M434.82,72.56a.69.69,0,0,0-.6-.67.7.7,0,0,0-.76.6l-.1.86a.68.68,0,1,0,1.35.17l.11-.87Z" transform="translate(-0.24 -0.82)"/><path class="cls-4" d="M547.09,595.1a.72.72,0,0,0-.19-.47.7.7,0,0,0-1,0l-1.09,1.06a.69.69,0,0,0,0,1,.68.68,0,0,0,1,0l1.09-1.06A.7.7,0,0,0,547.09,595.1Z" transform="translate(-0.24 -0.82)"/><path class="cls-4" d="M258,279.11a.69.69,0,0,0-.11-.36l-.35-.55a.68.68,0,0,0-1.15.74l.36.55a.68.68,0,0,0,1.25-.38Z" transform="translate(-0.24 -0.82)"/><path class="cls-4" d="M749.18,238.53a.59.59,0,0,0-.07-.29.67.67,0,0,0-.91-.32l-.77.37a.68.68,0,0,0,.59,1.23l.78-.38A.67.67,0,0,0,749.18,238.53Z" transform="translate(-0.24 -0.82)"/><path class="cls-4" d="M755.22,748s0-.08,0-.12l-.22-1.09a.67.67,0,0,0-.8-.53.68.68,0,0,0-.54.8l.22,1.08a.68.68,0,0,0,.8.54A.69.69,0,0,0,755.22,748Z" transform="translate(-0.24 -0.82)"/><path class="cls-4" d="M34.27,633a.88.88,0,0,0,0-.17.68.68,0,0,0-.84-.48l-.53.14a.68.68,0,1,0,.36,1.32l.53-.15A.68.68,0,0,0,34.27,633Z" transform="translate(-0.24 -0.82)"/><path class="cls-4" d="M680,501.37a.67.67,0,0,0-.46-.64.67.67,0,0,0-.86.43l-.17.49a.68.68,0,0,0,1.29.43l.17-.49A.83.83,0,0,0,680,501.37Z" transform="translate(-0.24 -0.82)"/><path class="cls-4" d="M753.16,676.39a.67.67,0,0,0-.23-.5.68.68,0,0,0-1,.05l-.82.92a.68.68,0,0,0,1,.91l.82-.92A.69.69,0,0,0,753.16,676.39Z" transform="translate(-0.24 -0.82)"/><path class="cls-4" d="M398.78,82a.74.74,0,0,0-.16-.44l-.56-.65a.67.67,0,0,0-1-.08.68.68,0,0,0-.08,1l.56.65a.68.68,0,0,0,1.2-.44Z" transform="translate(-0.24 -0.82)"/><path class="cls-4" d="M647.7,331a.68.68,0,0,0-.31-.57l-.52-.34a.7.7,0,0,0-1,.2.68.68,0,0,0,.21.94l.52.34a.67.67,0,0,0,.94-.2A.64.64,0,0,0,647.7,331Z" transform="translate(-0.24 -0.82)"/><path class="cls-4" d="M366.13,45.7a.77.77,0,0,0,0-.15.68.68,0,0,0-.81-.51l-1.9.42a.68.68,0,0,0,.3,1.33l1.9-.42A.68.68,0,0,0,366.13,45.7Z" transform="translate(-0.24 -0.82)"/><path class="cls-4" d="M573,571.05a.68.68,0,0,0-1.35-.13l-.1.51a.67.67,0,0,0,.52.81.69.69,0,0,0,.81-.53l.1-.51A.77.77,0,0,0,573,571.05Z" transform="translate(-0.24 -0.82)"/><path class="cls-4" d="M462.83,98.7a.68.68,0,0,0-1.35-.1l-.1.61a.68.68,0,1,0,1.35.21l.09-.6A.49.49,0,0,0,462.83,98.7Z" transform="translate(-0.24 -0.82)"/><path class="cls-4" d="M271.27,351.64a.67.67,0,0,0-1.12-.51l-1.32,1.13a.67.67,0,0,0-.07,1,.68.68,0,0,0,1,.07l1.32-1.13A.65.65,0,0,0,271.27,351.64Z" transform="translate(-0.24 -0.82)"/><path class="cls-4" d="M315.77,608.69a.67.67,0,0,0-.33-.58l-1.15-.68a.67.67,0,0,0-.93.24.68.68,0,0,0,.24.93l1.14.68a.68.68,0,0,0,.93-.24A.64.64,0,0,0,315.77,608.69Z" transform="translate(-0.24 -0.82)"/><path class="cls-4" d="M101.33,370.53a.67.67,0,0,0-.55-.66.68.68,0,0,0-.8.54l-.19,1a.67.67,0,0,0,.54.79.68.68,0,0,0,.8-.54l.19-1A.57.57,0,0,0,101.33,370.53Z" transform="translate(-0.24 -0.82)"/><path class="cls-4" d="M478.86,674.6a.67.67,0,0,0-.07-.31.68.68,0,0,0-.92-.29l-.55.28a.68.68,0,0,0,.61,1.21l.56-.28A.68.68,0,0,0,478.86,674.6Z" transform="translate(-0.24 -0.82)"/><path class="cls-4" d="M593.09,219.64a.68.68,0,0,0-1.36,0v2.79h0a.69.69,0,1,0,1.37,0v-2.78Z" transform="translate(-0.24 -0.82)"/><path class="cls-4" d="M488.45,390.18a.66.66,0,0,0-.15-.42l-.38-.49a.67.67,0,0,0-1-.11.66.66,0,0,0-.11.95l.39.49a.68.68,0,0,0,1.21-.42Z" transform="translate(-0.24 -0.82)"/><path class="cls-4" d="M385,681.93a.67.67,0,0,0-.67-.67l-1.38,0a.68.68,0,0,0-.69.68.71.71,0,0,0,.67.69h1.38a.68.68,0,0,0,.69-.68Z" transform="translate(-0.24 -0.82)"/><path class="cls-4" d="M311,233.16a.7.7,0,0,0-.56-.67.68.68,0,0,0-.79.55l-.17.91a.69.69,0,0,0,.55.79.68.68,0,0,0,.79-.55l.17-.9S311,233.2,311,233.16Z" transform="translate(-0.24 -0.82)"/><path class="cls-4" d="M8,654.91v-.06l-.27-2.54a.67.67,0,0,0-.75-.6.66.66,0,0,0-.61.74L6.63,655a.67.67,0,0,0,.75.6A.66.66,0,0,0,8,654.91Z" transform="translate(-0.24 -0.82)"/><path class="cls-4" d="M132.56,8a.67.67,0,0,0-.26-.53.69.69,0,0,0-1,.12l-.84,1.09a.69.69,0,0,0,.13,1,.67.67,0,0,0,1-.13l.84-1.08A.69.69,0,0,0,132.56,8Z" transform="translate(-0.24 -0.82)"/><path class="cls-4" d="M288.36,202a.66.66,0,0,0,0-.14.68.68,0,0,0-.81-.52l-1.91.4a.7.7,0,0,0-.53.81.68.68,0,0,0,.81.52l1.92-.4A.67.67,0,0,0,288.36,202Z" transform="translate(-0.24 -0.82)"/><path class="cls-4" d="M162.21,348.76a.68.68,0,0,0-.23-.51l-1.55-1.34a.69.69,0,0,0-1,.07.67.67,0,0,0,.07,1l1.55,1.34a.67.67,0,0,0,1.12-.52Z" transform="translate(-0.24 -0.82)"/><path class="cls-4" d="M126.76,326.71a.79.79,0,0,0-.11-.36l-.38-.6a.68.68,0,0,0-.94-.21.67.67,0,0,0-.21.93l.38.61a.69.69,0,0,0,.94.21A.7.7,0,0,0,126.76,326.71Z" transform="translate(-0.24 -0.82)"/><path class="cls-4" d="M566.57,451.7a.7.7,0,0,0-.17-.45.67.67,0,0,0-1-.05l-.84.75a.67.67,0,0,0-.05,1,.68.68,0,0,0,1,0l.84-.75A.7.7,0,0,0,566.57,451.7Z" transform="translate(-0.24 -0.82)"/><path class="cls-4" d="M574.05,294.52a.59.59,0,0,0,0-.23l-.22-.6a.68.68,0,0,0-1.28.48l.23.59a.67.67,0,0,0,.87.4A.65.65,0,0,0,574.05,294.52Z" transform="translate(-0.24 -0.82)"/><path class="cls-4" d="M753.79,711.13a.68.68,0,0,0-1.28-.31l-1,1.81a.68.68,0,0,0,1.2.64l1-1.81A.8.8,0,0,0,753.79,711.13Z" transform="translate(-0.24 -0.82)"/><path class="cls-4" d="M443.32,601.69a.68.68,0,0,0-.58-.67l-1.26-.19a.7.7,0,0,0-.78.58.69.69,0,0,0,.58.77l1.26.19a.68.68,0,0,0,.77-.58A.34.34,0,0,0,443.32,601.69Z" transform="translate(-0.24 -0.82)"/><path class="cls-4" d="M12.79,688.91a.66.66,0,0,0-.09-.33.68.68,0,0,0-.92-.26l-2.6,1.47A.68.68,0,0,0,9.85,691l2.6-1.47A.69.69,0,0,0,12.79,688.91Z" transform="translate(-0.24 -0.82)"/><path class="cls-4" d="M302.23,641.44a.06.06,0,0,0,0,0l-.13-2.06a.68.68,0,0,0-.72-.64.69.69,0,0,0-.64.73l.14,2.06a.68.68,0,0,0,1.36,0Z" transform="translate(-0.24 -0.82)"/><path class="cls-4" d="M653.43,715.46a.67.67,0,0,0,0-.24l-.39-1a.67.67,0,0,0-.88-.38.68.68,0,0,0-.39.88l.39,1a.68.68,0,0,0,.88.39A.67.67,0,0,0,653.43,715.46Z" transform="translate(-0.24 -0.82)"/><path class="cls-4" d="M376.82,182a.5.5,0,0,0,0-.17.68.68,0,0,0-.82-.49l-.54.14a.68.68,0,0,0,.34,1.32l.53-.14A.67.67,0,0,0,376.82,182Z" transform="translate(-0.24 -0.82)"/><path class="cls-4" d="M282.38,671.07a.68.68,0,0,0-.47-.64L280.5,670a.68.68,0,0,0-.86.42.69.69,0,0,0,.43.87l1.41.48a.68.68,0,0,0,.86-.43A.57.57,0,0,0,282.38,671.07Z" transform="translate(-0.24 -0.82)"/></g></g></g></g></svg>