<svg xmlns="http://www.w3.org/2000/svg" xmlns:xlink="http://www.w3.org/1999/xlink" viewBox="0 0 753.66 756.7"><defs><style>.cls-1{fill:none;}.cls-2{clip-path:url(#clip-path);}.cls-3{opacity:0.2;}.cls-4{fill:#606060;}</style><clipPath id="clip-path" transform="translate(0 -0.52)"><polygon class="cls-1" points="753.66 0 753.66 458.23 0 460.94 0 0 753.66 0"/></clipPath></defs><title>patrones</title><g id="Capa_2" data-name="Capa 2"><g id="Pleca01"><g class="cls-2"><g class="cls-3"><path class="cls-4" d="M659.74,441.29a1,1,0,0,1-.23,0,.69.69,0,0,1-.41-.87l10.14-28.21a.69.69,0,0,1,.87-.41.68.68,0,0,1,.41.87l-10.13,28.21A.7.7,0,0,1,659.74,441.29Z" transform="translate(0 -0.52)"/><path class="cls-4" d="M338.69,606.31a.68.68,0,0,1-.64-.46l-3.64-10.62a.68.68,0,1,1,1.29-.44l3.63,10.62a.66.66,0,0,1-.42.86A.57.57,0,0,1,338.69,606.31Z" transform="translate(0 -0.52)"/><path class="cls-4" d="M647.27,119.56a.68.68,0,0,1-.29-1.29l14.1-6.71a.67.67,0,0,1,.91.32.69.69,0,0,1-.32.91l-14.11,6.7A.59.59,0,0,1,647.27,119.56Z" transform="translate(0 -0.52)"/><path class="cls-4" d="M204.2,58a.7.7,0,0,1-.55-.28L195.3,46.16a.68.68,0,0,1,.15-.95.67.67,0,0,1,1,.15l8.36,11.56a.68.68,0,0,1-.16.95A.73.73,0,0,1,204.2,58Z" transform="translate(0 -0.52)"/><path class="cls-4" d="M597.19,636.06h0a.68.68,0,0,1-.66-.7l1.37-42.54a.7.7,0,0,1,.7-.66.69.69,0,0,1,.66.7l-1.37,42.54A.68.68,0,0,1,597.19,636.06Z" transform="translate(0 -0.52)"/><path class="cls-4" d="M242.26,401.52a.67.67,0,0,1-.57-.32.68.68,0,0,1,.21-.94l34.84-22a.68.68,0,0,1,.94.21.69.69,0,0,1-.21.94l-34.84,22A.7.7,0,0,1,242.26,401.52Z" transform="translate(0 -0.52)"/><path class="cls-4" d="M751.22,23.8a.68.68,0,0,1-.68-.61L749.15,9a.69.69,0,0,1,.61-.75.7.7,0,0,1,.75.61l1.39,14.19a.68.68,0,0,1-.61.74Z" transform="translate(0 -0.52)"/><path class="cls-4" d="M6.24,585.39a.82.82,0,0,1-.3-.07.68.68,0,0,1-.3-.92L11.9,572a.68.68,0,0,1,.91-.3.69.69,0,0,1,.3.92L6.85,585A.68.68,0,0,1,6.24,585.39Z" transform="translate(0 -0.52)"/><path class="cls-4" d="M212.5,471.53h0l-40.8-2.08a.68.68,0,0,1-.65-.71.65.65,0,0,1,.72-.65l40.8,2.09a.67.67,0,0,1,.65.71A.69.69,0,0,1,212.5,471.53Z" transform="translate(0 -0.52)"/><path class="cls-4" d="M535.83,628.55a.7.7,0,0,1-.59-.35.68.68,0,0,1,.26-.92L566,610a.67.67,0,0,1,.92.26.68.68,0,0,1-.25.93l-30.48,17.31A.69.69,0,0,1,535.83,628.55Z" transform="translate(0 -0.52)"/><path class="cls-4" d="M378.52,375a.64.64,0,0,1-.33-.08l-8.06-4.49a.68.68,0,0,1-.27-.92.69.69,0,0,1,.93-.27l8.06,4.49a.67.67,0,0,1,.26.92A.65.65,0,0,1,378.52,375Z" transform="translate(0 -0.52)"/><path class="cls-4" d="M216.77,85.77a.68.68,0,0,1-.67-.55.69.69,0,0,1,.53-.8L228,82.12a.68.68,0,1,1,.27,1.33l-11.34,2.3Z" transform="translate(0 -0.52)"/><path class="cls-4" d="M448.37,419a.64.64,0,0,1-.35-.1.68.68,0,0,1-.24-.93l7.4-12.59a.68.68,0,0,1,1.17.69L449,418.68A.66.66,0,0,1,448.37,419Z" transform="translate(0 -0.52)"/><path class="cls-4" d="M636.88,597.82a.64.64,0,0,1-.35-.1.69.69,0,0,1-.23-.94l21.29-34.65a.66.66,0,0,1,.93-.23.69.69,0,0,1,.23.94l-21.29,34.65A.68.68,0,0,1,636.88,597.82Z" transform="translate(0 -0.52)"/><path class="cls-4" d="M347.27,481.28a.67.67,0,0,1-.57-1l21.9-34.47a.68.68,0,1,1,1.15.73L347.84,481A.66.66,0,0,1,347.27,481.28Z" transform="translate(0 -0.52)"/><path class="cls-4" d="M60.87,81.81a.77.77,0,0,1-.25,0,.69.69,0,0,1-.38-.89l11.85-30a.68.68,0,0,1,1.27.5l-11.85,30A.69.69,0,0,1,60.87,81.81Z" transform="translate(0 -0.52)"/><path class="cls-4" d="M517.93,337.32a.72.72,0,0,1-.5-.22.69.69,0,0,1,0-1l8.14-7.53a.69.69,0,0,1,1,0,.67.67,0,0,1,0,1l-8.13,7.53A.69.69,0,0,1,517.93,337.32Z" transform="translate(0 -0.52)"/><path class="cls-4" d="M512.36,41.15a.7.7,0,0,1-.43-.15L485.47,20a.67.67,0,0,1-.11-.95.68.68,0,0,1,1-.11l26.46,21a.68.68,0,0,1-.42,1.21Z" transform="translate(0 -0.52)"/><path class="cls-4" d="M400.19,13.66a.63.63,0,0,1-.19,0,.68.68,0,0,1-.46-.85l3.34-11.16a.69.69,0,0,1,.85-.45.67.67,0,0,1,.46.84l-3.34,11.16A.68.68,0,0,1,400.19,13.66Z" transform="translate(0 -0.52)"/><path class="cls-4" d="M750.09,404.94a.68.68,0,0,1-.61-.38L740.09,386a.68.68,0,1,1,1.21-.61L750.69,404a.67.67,0,0,1-.3.91A.64.64,0,0,1,750.09,404.94Z" transform="translate(0 -0.52)"/><path class="cls-4" d="M583.94,114.8a.68.68,0,0,1-.5-1.14l9.18-10a.68.68,0,1,1,1,.92l-9.18,10A.72.72,0,0,1,583.94,114.8Z" transform="translate(0 -0.52)"/><path class="cls-4" d="M605.8,747.87a.68.68,0,0,1-.5-.22l-34.4-37.46a.68.68,0,0,1,0-1,.69.69,0,0,1,1,0l34.4,37.46a.68.68,0,0,1-.5,1.14Z" transform="translate(0 -0.52)"/><path class="cls-4" d="M609.14,688.72a.68.68,0,0,1-.41-.14l-40.28-30a.7.7,0,0,1-.14-1,.68.68,0,0,1,1-.14l40.28,30a.68.68,0,0,1-.4,1.23Z" transform="translate(0 -0.52)"/><path class="cls-4" d="M27.27,57.57a.78.78,0,0,1-.22,0L2,49.1a.69.69,0,0,1-.42-.87.68.68,0,0,1,.86-.42l25,8.44a.68.68,0,0,1-.21,1.32Z" transform="translate(0 -0.52)"/><path class="cls-4" d="M308,752a.66.66,0,0,1-.3-.07.67.67,0,0,1-.31-.91l18.81-38.63a.68.68,0,0,1,.91-.32.69.69,0,0,1,.31.91l-18.81,38.64A.68.68,0,0,1,308,752Z" transform="translate(0 -0.52)"/><path class="cls-4" d="M427.46,396.13a.67.67,0,0,1-.65-.47l-10.43-32.79a.69.69,0,0,1,.45-.86.69.69,0,0,1,.85.44l10.43,32.79a.69.69,0,0,1-.45.86A.64.64,0,0,1,427.46,396.13Z" transform="translate(0 -0.52)"/><path class="cls-4" d="M531.8,589.24h-.11a.69.69,0,0,1-.57-.78l2-12.34a.68.68,0,1,1,1.34.22l-2,12.34A.68.68,0,0,1,531.8,589.24Z" transform="translate(0 -0.52)"/><path class="cls-4" d="M94.86,16.4a.68.68,0,0,1-.65-.49l-2.73-9a.68.68,0,1,1,1.3-.4l2.73,9a.68.68,0,0,1-.46.85A.63.63,0,0,1,94.86,16.4Z" transform="translate(0 -0.52)"/><path class="cls-4" d="M568.91,354.59a.67.67,0,0,1-.68-.63l-3.9-52.41a.68.68,0,0,1,.62-.73.67.67,0,0,1,.73.63l3.91,52.41a.7.7,0,0,1-.63.73Z" transform="translate(0 -0.52)"/><path class="cls-4" d="M511.8,380.3a.68.68,0,0,1-.1-1.35l37.15-5.36a.68.68,0,0,1,.19,1.35L511.9,380.3Z" transform="translate(0 -0.52)"/><path class="cls-4" d="M392.81,162.7a.65.65,0,0,1-.45-.17l-29.3-25.74a.68.68,0,0,1,.9-1l29.3,25.75a.68.68,0,0,1-.45,1.19Z" transform="translate(0 -0.52)"/><path class="cls-4" d="M317.42,260.34a.68.68,0,0,1-.6-.36L305,238.33a.68.68,0,1,1,1.2-.66L318,259.33a.69.69,0,0,1-.28.93A.72.72,0,0,1,317.42,260.34Z" transform="translate(0 -0.52)"/><path class="cls-4" d="M186.37,556.68a.68.68,0,0,1,0-1.36l19.49-.36a.68.68,0,1,1,0,1.36l-19.49.36Z" transform="translate(0 -0.52)"/><path class="cls-4" d="M683.58,319a.67.67,0,0,1-.6-.36L677.83,309a.68.68,0,0,1,.28-.92.67.67,0,0,1,.92.28l5.15,9.71a.69.69,0,0,1-.28.92A.66.66,0,0,1,683.58,319Z" transform="translate(0 -0.52)"/><path class="cls-4" d="M165.09,517.12a.68.68,0,0,1-.26-1.31l9.45-3.9a.67.67,0,0,1,.89.37.69.69,0,0,1-.37.89l-9.45,3.9A.58.58,0,0,1,165.09,517.12Z" transform="translate(0 -0.52)"/><path class="cls-4" d="M690.71,208.36a.72.72,0,0,1-.37-.11L645.16,179.3a.68.68,0,0,1,.74-1.15l45.18,28.95a.68.68,0,0,1,.2.94A.67.67,0,0,1,690.71,208.36Z" transform="translate(0 -0.52)"/><path class="cls-4" d="M276.77,215.25a.75.75,0,0,1-.26-.05L261,208.83a.68.68,0,1,1,.51-1.25L277,213.94a.68.68,0,0,1-.26,1.31Z" transform="translate(0 -0.52)"/><path class="cls-4" d="M749.29,641.07a1,1,0,0,1-.24,0l-10.22-3.86a.68.68,0,0,1,.48-1.28l10.23,3.86a.69.69,0,0,1,.39.88A.68.68,0,0,1,749.29,641.07Z" transform="translate(0 -0.52)"/><path class="cls-4" d="M210.94,379a.72.72,0,0,1-.44-.16.68.68,0,0,1-.08-1l7.74-9.15a.68.68,0,1,1,1,.88l-7.74,9.15A.69.69,0,0,1,210.94,379Z" transform="translate(0 -0.52)"/><path class="cls-4" d="M701.37,278.94a.69.69,0,0,1-.6-.37l-10.66-20.34a.68.68,0,0,1,1.21-.63L702,277.94a.68.68,0,0,1-.28.92A.72.72,0,0,1,701.37,278.94Z" transform="translate(0 -0.52)"/><path class="cls-4" d="M712.36,719a.68.68,0,0,1-.68-.64L709.76,686a.69.69,0,0,1,.64-.72.67.67,0,0,1,.72.64L713,718.23a.69.69,0,0,1-.64.72Z" transform="translate(0 -0.52)"/><path class="cls-4" d="M567,431.44a.7.7,0,0,1-.37-.11l-29.21-19a.69.69,0,0,1-.2-.94.68.68,0,0,1,.94-.2l29.21,19a.68.68,0,0,1-.37,1.25Z" transform="translate(0 -0.52)"/><path class="cls-4" d="M10.77,627.26a.7.7,0,0,1-.45-.17L2,619.77a.68.68,0,0,1-.06-1,.67.67,0,0,1,1-.06l8.28,7.31a.69.69,0,0,1-.45,1.2Z" transform="translate(0 -0.52)"/><path class="cls-4" d="M430.8,280.44a.68.68,0,0,1-.64-.45l-5.93-16.33a.68.68,0,1,1,1.28-.46l5.93,16.33a.68.68,0,0,1-.41.87A.66.66,0,0,1,430.8,280.44Z" transform="translate(0 -0.52)"/><path class="cls-4" d="M481.86,706.5a.85.85,0,0,1-.26,0l-21.76-9a.68.68,0,0,1,.53-1.25l21.75,9a.67.67,0,0,1,.37.89A.68.68,0,0,1,481.86,706.5Z" transform="translate(0 -0.52)"/><path class="cls-4" d="M551.88,42.49l-.15,0a.67.67,0,0,1-.51-.81l7.39-33.34a.68.68,0,1,1,1.33.29L552.54,42A.68.68,0,0,1,551.88,42.49Z" transform="translate(0 -0.52)"/><path class="cls-4" d="M128.61,121.58a.68.68,0,0,1-.36-1.25l8.5-5.31a.69.69,0,0,1,.94.22.68.68,0,0,1-.22.94l-8.5,5.3A.65.65,0,0,1,128.61,121.58Z" transform="translate(0 -0.52)"/><path class="cls-4" d="M706.12,362.3a.7.7,0,0,1-.44-.17l-8-6.75a.68.68,0,0,1-.08-1,.69.69,0,0,1,1-.08l8,6.76a.67.67,0,0,1,.08.95A.68.68,0,0,1,706.12,362.3Z" transform="translate(0 -0.52)"/><path class="cls-4" d="M622.59,654.1a.68.68,0,0,1-.45-1.2L655.76,624a.69.69,0,0,1,1,.07.68.68,0,0,1-.07,1L623,653.93A.7.7,0,0,1,622.59,654.1Z" transform="translate(0 -0.52)"/><path class="cls-4" d="M346.6,519.32a.68.68,0,0,1-.66-.51.67.67,0,0,1,.49-.82l11.6-3a.68.68,0,0,1,.35,1.31l-11.61,3A.5.5,0,0,1,346.6,519.32Z" transform="translate(0 -0.52)"/><path class="cls-4" d="M332.71,562.94a.68.68,0,0,1-.28-1.3l9.13-4.06a.69.69,0,0,1,.9.34.68.68,0,0,1-.35.9L333,562.89A.92.92,0,0,1,332.71,562.94Z" transform="translate(0 -0.52)"/><path class="cls-4" d="M639.86,747.2a.67.67,0,0,1-.66-.53l-6.63-28.32a.68.68,0,0,1,1.32-.31l6.63,28.32a.68.68,0,0,1-.51.82Z" transform="translate(0 -0.52)"/><path class="cls-4" d="M144.28,240.06a.7.7,0,0,1-.37-.11l-11.15-7.12a.68.68,0,0,1,.74-1.14l11.14,7.12a.68.68,0,0,1-.36,1.25Z" transform="translate(0 -0.52)"/><path class="cls-4" d="M454.73,665.54a.68.68,0,0,1-.35-1.26l29.83-17.65a.68.68,0,0,1,.93.24.67.67,0,0,1-.24.93l-29.83,17.65A.67.67,0,0,1,454.73,665.54Z" transform="translate(0 -0.52)"/><path class="cls-4" d="M547.28,94.71a.69.69,0,0,1-.49-1.16l12.33-12.47a.68.68,0,1,1,1,1L547.76,94.51A.69.69,0,0,1,547.28,94.71Z" transform="translate(0 -0.52)"/><path class="cls-4" d="M286.76,343.45a.68.68,0,0,1-.36-.1.69.69,0,0,1-.23-.94l4.79-7.89a.68.68,0,0,1,1.17.71l-4.79,7.89A.68.68,0,0,1,286.76,343.45Z" transform="translate(0 -0.52)"/><path class="cls-4" d="M327.74,371.07a.78.78,0,0,1-.22,0L318,367.91a.68.68,0,1,1,.42-1.29l9.56,3.12a.68.68,0,0,1,.43.86A.67.67,0,0,1,327.74,371.07Z" transform="translate(0 -0.52)"/><path class="cls-4" d="M145.15,751.69a.64.64,0,0,1-.35-.1l-8-4.78a.69.69,0,0,1-.24-.94.68.68,0,0,1,.94-.23l8,4.78a.69.69,0,0,1,.23.94A.67.67,0,0,1,145.15,751.69Z" transform="translate(0 -0.52)"/><path class="cls-4" d="M445.36,235.08h-.12a.68.68,0,0,1-.55-.79L447.51,218a.67.67,0,0,1,.79-.55.69.69,0,0,1,.55.79L446,234.51A.67.67,0,0,1,445.36,235.08Z" transform="translate(0 -0.52)"/><path class="cls-4" d="M462.3,620.7a.7.7,0,0,1-.45-.17.68.68,0,0,1-.06-1L489,588.79a.67.67,0,0,1,1-.06.68.68,0,0,1,.06,1l-27.25,30.78A.68.68,0,0,1,462.3,620.7Z" transform="translate(0 -0.52)"/><path class="cls-4" d="M522.5,4h-.08l-9.86-1.24a.68.68,0,1,1,.17-1.35l9.86,1.24A.68.68,0,0,1,522.5,4Z" transform="translate(0 -0.52)"/><path class="cls-4" d="M737.16,462.49a.73.73,0,0,1-.25,0l-48.73-18.77a.68.68,0,0,1,.49-1.27l48.73,18.77a.68.68,0,0,1,.39.88A.67.67,0,0,1,737.16,462.49Z" transform="translate(0 -0.52)"/><path class="cls-4" d="M402.74,750.76a.68.68,0,0,1-.44-.16l-14.07-11.79a.69.69,0,0,1-.08-1,.67.67,0,0,1,1-.08l14.07,11.79a.68.68,0,0,1,.08,1A.66.66,0,0,1,402.74,750.76Z" transform="translate(0 -0.52)"/><path class="cls-4" d="M552.66,237.46h-.08L522.84,234a.68.68,0,0,1-.6-.75.7.7,0,0,1,.76-.6l29.74,3.44a.69.69,0,0,1,.6.76A.7.7,0,0,1,552.66,237.46Z" transform="translate(0 -0.52)"/><path class="cls-4" d="M321.61,213.26a.68.68,0,0,1-.66-.51l-13.08-52.13a.68.68,0,1,1,1.32-.34l13.08,52.14a.67.67,0,0,1-.49.82A.5.5,0,0,1,321.61,213.26Z" transform="translate(0 -0.52)"/><path class="cls-4" d="M214.83,424.2a.63.63,0,0,1-.19,0l-41.11-12.09a.68.68,0,1,1,.38-1.3L215,422.87a.68.68,0,0,1-.19,1.33Z" transform="translate(0 -0.52)"/><path class="cls-4" d="M402.52,301.05a.7.7,0,0,1-.37-.11l-14-9a.68.68,0,0,1,.74-1.15l14,9a.68.68,0,0,1-.37,1.25Z" transform="translate(0 -0.52)"/><path class="cls-4" d="M92,370.06a.68.68,0,0,1-.54-.27L64.81,335.93a.67.67,0,0,1,.12-.95.69.69,0,0,1,1,.11L92.5,369a.67.67,0,0,1-.11,1A.66.66,0,0,1,92,370.06Z" transform="translate(0 -0.52)"/><path class="cls-4" d="M52.52,173.66a.65.65,0,0,1-.65-.87l3.66-12.41a.69.69,0,0,1,.85-.46.68.68,0,0,1,.46.85l-3.67,12.41A.68.68,0,0,1,52.52,173.66Z" transform="translate(0 -0.52)"/><path class="cls-4" d="M236.91,33.69a.69.69,0,0,1-.48-.2L207.67,5.68a.68.68,0,1,1,1-1l28.76,27.82a.67.67,0,0,1,0,1A.66.66,0,0,1,236.91,33.69Z" transform="translate(0 -0.52)"/><path class="cls-4" d="M450.11,155.69a.67.67,0,0,1-.28-.06L420,142.05a.68.68,0,0,1,.56-1.24l29.86,13.58a.69.69,0,0,1,.34.9A.7.7,0,0,1,450.11,155.69Z" transform="translate(0 -0.52)"/><path class="cls-4" d="M135.78,17.33a.67.67,0,0,1-.65-.47l-3.31-10a.69.69,0,0,1,.44-.86.68.68,0,0,1,.86.44l3.3,10a.68.68,0,0,1-.43.86Z" transform="translate(0 -0.52)"/><path class="cls-4" d="M689,161.72a.69.69,0,0,1-.11-1.36l9.44-1.46a.68.68,0,1,1,.21,1.34l-9.44,1.47Z" transform="translate(0 -0.52)"/><path class="cls-4" d="M40.66,706.8a.68.68,0,0,1-.13-1.35l13.78-2.66a.68.68,0,0,1,.25,1.34l-13.77,2.66Z" transform="translate(0 -0.52)"/><path class="cls-4" d="M51.16,225a.61.61,0,0,1-.32-.08.67.67,0,0,1-.28-.92l6.16-11.58a.68.68,0,0,1,1.2.64l-6.16,11.58A.68.68,0,0,1,51.16,225Z" transform="translate(0 -0.52)"/><path class="cls-4" d="M436.42,597.72a.69.69,0,0,1-.55-.27l-7.39-9.92a.68.68,0,0,1,.14-.95.67.67,0,0,1,.95.14l7.39,9.91a.68.68,0,0,1-.14,1A.66.66,0,0,1,436.42,597.72Z" transform="translate(0 -0.52)"/><path class="cls-4" d="M108.43,435.46a.69.69,0,0,1-.68-.68.67.67,0,0,1,.68-.68l47.44-.16h0a.68.68,0,0,1,.68.67.7.7,0,0,1-.68.69l-47.45.16Z" transform="translate(0 -0.52)"/><path class="cls-4" d="M629.49,466.87a.69.69,0,0,1-.65-.48.68.68,0,0,1,.45-.85l10.22-3.23a.68.68,0,0,1,.85.45.67.67,0,0,1-.44.85l-10.22,3.23A.76.76,0,0,1,629.49,466.87Z" transform="translate(0 -0.52)"/><path class="cls-4" d="M543,469.63a.67.67,0,0,1-.65-.5l-4.18-15.31a.68.68,0,1,1,1.31-.35l4.18,15.3a.69.69,0,0,1-.48.84Z" transform="translate(0 -0.52)"/><path class="cls-4" d="M244.53,354.61l-.16,0a.68.68,0,0,1-.5-.82l3.32-13.38a.68.68,0,1,1,1.32.32l-3.32,13.38A.67.67,0,0,1,244.53,354.61Z" transform="translate(0 -0.52)"/><path class="cls-4" d="M560.19,752.9h-.05l-17.75-1.33a.68.68,0,0,1-.63-.73.67.67,0,0,1,.73-.63l17.75,1.34a.67.67,0,0,1,.63.72A.69.69,0,0,1,560.19,752.9Z" transform="translate(0 -0.52)"/><path class="cls-4" d="M417.5,194.42h-.11a.69.69,0,0,1-.56-.79l2.11-12.84a.68.68,0,1,1,1.34.22l-2.11,12.84A.67.67,0,0,1,417.5,194.42Z" transform="translate(0 -0.52)"/><path class="cls-4" d="M753,202.09a.66.66,0,0,1-.3-.07l-37.4-18.67a.68.68,0,0,1-.3-.91.67.67,0,0,1,.91-.31l37.4,18.68a.68.68,0,0,1-.31,1.28Z" transform="translate(0 -0.52)"/><path class="cls-4" d="M434.76,752a.66.66,0,0,1-.52-.24.68.68,0,0,1,.07-1l20-17.1a.68.68,0,1,1,.88,1l-20,17.09A.7.7,0,0,1,434.76,752Z" transform="translate(0 -0.52)"/><path class="cls-4" d="M550.64,684.06a.59.59,0,0,1-.29-.07l-9.81-4.72a.66.66,0,0,1-.32-.9.67.67,0,0,1,.91-.32l9.81,4.72a.68.68,0,0,1-.3,1.29Z" transform="translate(0 -0.52)"/><path class="cls-4" d="M3,174A.68.68,0,0,1,3,172.66l9.64-.87a.7.7,0,0,1,.74.62.68.68,0,0,1-.62.74L3.08,174Z" transform="translate(0 -0.52)"/><path class="cls-4" d="M697.73,492.47a.68.68,0,0,1-.06-1.35L714,489.66a.68.68,0,1,1,.12,1.35l-16.32,1.46Z" transform="translate(0 -0.52)"/><path class="cls-4" d="M682.69,680.69a.67.67,0,0,1-.67-.62L678.87,642a.68.68,0,0,1,1.36-.11L683.37,680a.68.68,0,0,1-.62.73Z" transform="translate(0 -0.52)"/><path class="cls-4" d="M548,141.41a.69.69,0,0,1-.64-.46l-4.44-12.73a.68.68,0,0,1,1.29-.45l4.43,12.73a.68.68,0,0,1-.41.87A.62.62,0,0,1,548,141.41Z" transform="translate(0 -0.52)"/><path class="cls-4" d="M726.46,101.11a.7.7,0,0,1-.53-.25l-10-12.08a.67.67,0,0,1,.09-1,.68.68,0,0,1,1,.09L727,100a.68.68,0,0,1-.09,1A.69.69,0,0,1,726.46,101.11Z" transform="translate(0 -0.52)"/><path class="cls-4" d="M427.3,651.11a.69.69,0,0,1-.6-.37l-21.08-40a.68.68,0,0,1,1.21-.64l21.07,40.06a.68.68,0,0,1-.28.92A.72.72,0,0,1,427.3,651.11Z" transform="translate(0 -0.52)"/><path class="cls-4" d="M437.72,95.7a.68.68,0,0,1-.24-1.32L446,91.26a.68.68,0,0,1,.88.41.67.67,0,0,1-.41.87L438,95.66A.59.59,0,0,1,437.72,95.7Z" transform="translate(0 -0.52)"/><path class="cls-4" d="M380.75,202.72a.66.66,0,0,1-.3-.07l-23.28-11.48a.68.68,0,0,1-.31-.91.69.69,0,0,1,.91-.31l23.28,11.48a.68.68,0,0,1-.3,1.29Z" transform="translate(0 -0.52)"/><path class="cls-4" d="M401.71,119.23a.72.72,0,0,1-.5-.22.69.69,0,0,1,0-1l7.12-6.57a.68.68,0,0,1,.93,1L402.17,119A.63.63,0,0,1,401.71,119.23Z" transform="translate(0 -0.52)"/><path class="cls-4" d="M187.11,757.22a.66.66,0,0,1-.56-.3l-9-13.2a.68.68,0,0,1,1.13-.77l9,13.21a.68.68,0,0,1-.56,1.06Z" transform="translate(0 -0.52)"/><path class="cls-4" d="M46.11,614.94l-.15,0a.68.68,0,0,1-.51-.81l11-48.8a.69.69,0,0,1,.81-.52.68.68,0,0,1,.51.82l-11,48.8A.69.69,0,0,1,46.11,614.94Z" transform="translate(0 -0.52)"/><path class="cls-4" d="M7.35,462.64a.7.7,0,0,1-.54-.26l-6.12-7.8a.68.68,0,0,1,1.07-.84l6.13,7.8a.67.67,0,0,1-.12.95A.66.66,0,0,1,7.35,462.64Z" transform="translate(0 -0.52)"/><path class="cls-4" d="M8.69,722.44a.69.69,0,0,1-.66-.52l-8-33a.68.68,0,0,1,.5-.83.69.69,0,0,1,.82.51l8,33a.69.69,0,0,1-.51.82Z" transform="translate(0 -0.52)"/><path class="cls-4" d="M277.89,24.88a.7.7,0,0,1-.54-.26L260.78,3.87a.67.67,0,0,1,.1-1,.69.69,0,0,1,1,.1l16.58,20.75a.68.68,0,0,1-.11,1A.66.66,0,0,1,277.89,24.88Z" transform="translate(0 -0.52)"/><path class="cls-4" d="M376.54,255.48a.68.68,0,0,1-.4-1.23l34.16-24.31a.68.68,0,1,1,.79,1.11l-34.16,24.3A.65.65,0,0,1,376.54,255.48Z" transform="translate(0 -0.52)"/><path class="cls-4" d="M146,300.55h-.14a15.65,15.65,0,0,1-10.83-26.81A15.65,15.65,0,0,1,161.66,285,15.62,15.62,0,0,1,146,300.55Zm0-29.93a14.29,14.29,0,0,0-.12,28.57H146A14.27,14.27,0,0,0,160.3,285h0a14.27,14.27,0,0,0-14.16-14.41Z" transform="translate(0 -0.52)"/><path class="cls-4" d="M587.56,503.69a16.88,16.88,0,1,1,1.21,0C588.36,503.68,588,503.69,587.56,503.69Zm0-32.44c-.36,0-.73,0-1.1,0a15.51,15.51,0,1,0,1.1,0Z" transform="translate(0 -0.52)"/><path class="cls-4" d="M639,265a4.32,4.32,0,1,1,4.17-5.47h0a4.32,4.32,0,0,1-3,5.32A4.06,4.06,0,0,1,639,265Zm0-7.29a3.07,3.07,0,0,0-.79.11,3,3,0,1,0,3.37,4.32,2.94,2.94,0,0,0,.28-2.25h0a3,3,0,0,0-1.4-1.79A2.9,2.9,0,0,0,639,257.74Z" transform="translate(0 -0.52)"/><path class="cls-4" d="M712.76,233.34a6.72,6.72,0,1,1,.29-13.43,6.72,6.72,0,0,1-.29,13.43Zm0-12.08a5.36,5.36,0,0,0-.22,10.72,5.31,5.31,0,0,0,3.86-1.41,5.39,5.39,0,0,0,1.73-3.72,5.36,5.36,0,0,0-5.13-5.58Z" transform="translate(0 -0.52)"/><path class="cls-4" d="M51.81,664.06a7.38,7.38,0,0,1-6.11-3.27,7.33,7.33,0,0,1,2-10.14,7.32,7.32,0,1,1,4.07,13.41Zm0-13.27A5.94,5.94,0,0,0,46.84,660h0a6,6,0,0,0,8.25,1.65,5.95,5.95,0,0,0,1.66-8.25A6,6,0,0,0,51.78,650.79Z" transform="translate(0 -0.52)"/><path class="cls-4" d="M405.7,442.25h-.5a11.8,11.8,0,1,1,.5,0Zm0-22.2a10.45,10.45,0,1,0,.45,0Z" transform="translate(0 -0.52)"/><path class="cls-4" d="M461.2,190.38h-.08a5.21,5.21,0,0,1-5.12-5.29h0a5.21,5.21,0,0,1,5.21-5.13h.08a5.21,5.21,0,0,1-.09,10.42Zm-3.84-5.27a3.85,3.85,0,0,0,3.78,3.91,3.8,3.8,0,0,0,3.91-3.79,3.85,3.85,0,1,0-7.69-.12Z" transform="translate(0 -0.52)"/><path class="cls-4" d="M710.52,414.34a6.93,6.93,0,0,1-2.72-.56,6.86,6.86,0,1,1,2.72.56Zm0-12.39a5.56,5.56,0,0,0-2,.39,5.46,5.46,0,0,0-3,3,5.4,5.4,0,0,0-.06,4.21,5.51,5.51,0,0,0,10.24-4.07,5.51,5.51,0,0,0-5.12-3.48Z" transform="translate(0 -0.52)"/><path class="cls-4" d="M719.83,57.47h-.21A10.85,10.85,0,0,1,709,46.4h0a10.85,10.85,0,1,1,10.85,11.07Zm-9.49-11A9.49,9.49,0,1,0,720,37.12a9.5,9.5,0,0,0-9.67,9.31Z" transform="translate(0 -0.52)"/><path class="cls-4" d="M22,426.54a14.82,14.82,0,1,1,14.14-19.26h0A14.83,14.83,0,0,1,22,426.54Zm0-28.29a13.46,13.46,0,1,0,12.86,9.43A13.41,13.41,0,0,0,22,398.25Z" transform="translate(0 -0.52)"/><path class="cls-4" d="M701.31,614a17.28,17.28,0,1,1,10.45-3.53A17.25,17.25,0,0,1,701.31,614Zm0-33.2A15.92,15.92,0,1,0,714,587.07,15.87,15.87,0,0,0,701.27,580.81Z" transform="translate(0 -0.52)"/><path class="cls-4" d="M456.07,313.84a5.92,5.92,0,1,1,2.14-.41A5.85,5.85,0,0,1,456.07,313.84Zm0-10.42a4.53,4.53,0,0,0-4.15,2.71,4.53,4.53,0,1,0,6-2.33A4.39,4.39,0,0,0,456.07,303.42Z" transform="translate(0 -0.52)"/><path class="cls-4" d="M267.48,304.26a4,4,0,0,1-2.74-6.91,3.9,3.9,0,0,1,2.87-1.08,4,4,0,0,1,3.86,4.13,4,4,0,0,1-4,3.86Zm0-6.63a2.64,2.64,0,0,0-1.92,4.44,2.59,2.59,0,0,0,1.84.83,2.52,2.52,0,0,0,1.89-.71,2.64,2.64,0,0,0-1.72-4.56Z" transform="translate(0 -0.52)"/><path class="cls-4" d="M591.05,279.26a15.06,15.06,0,1,1,7.42-2h0A15,15,0,0,1,591.05,279.26Zm0-28.78a13.76,13.76,0,1,0,3.67.5A13.93,13.93,0,0,0,591,250.48Zm7.13,26.23h0Z" transform="translate(0 -0.52)"/><path class="cls-4" d="M502,118.9a12.07,12.07,0,0,1-4.31-.79,12.17,12.17,0,1,1,15.7-7h0A12.19,12.19,0,0,1,502,118.9Zm0-23a10.82,10.82,0,1,0,3.83.71A10.81,10.81,0,0,0,502.06,95.92Zm10.74,14.89h0Z" transform="translate(0 -0.52)"/><path class="cls-4" d="M246,698.77a10.64,10.64,0,0,1-9.28-5.47A10.59,10.59,0,0,1,255.29,683h0A10.6,10.6,0,0,1,246,698.77Zm0-19.84a9.23,9.23,0,1,0,8.09,4.77h0a9.2,9.2,0,0,0-5.53-4.41A9.36,9.36,0,0,0,246,678.93Z" transform="translate(0 -0.52)"/><path class="cls-4" d="M581.27,211.32a3.7,3.7,0,0,1-3.69-3.44,3.61,3.61,0,0,1,.89-2.69,3.68,3.68,0,0,1,2.54-1.27,3.7,3.7,0,0,1,.53,7.39Zm0-6h-.17a2.35,2.35,0,1,0,.33,4.69,2.36,2.36,0,0,0,2.18-2.51,2.35,2.35,0,0,0-2.34-2.18Zm-.22-.68h0Z" transform="translate(0 -0.52)"/><path class="cls-4" d="M7.65,97.73a4.22,4.22,0,1,1,.5,0h0A4.19,4.19,0,0,1,7.65,97.73Zm0-7-.33,0A2.83,2.83,0,0,0,8,96.35H8a2.83,2.83,0,0,0-.33-5.64Z" transform="translate(0 -0.52)"/><path class="cls-4" d="M592.89,405.7a14.54,14.54,0,1,1,4.17-.61A14.92,14.92,0,0,1,592.89,405.7Zm0-27.69a13.16,13.16,0,0,0-6.28,24.74A13.16,13.16,0,1,0,592.93,378Z" transform="translate(0 -0.52)"/><path class="cls-4" d="M96.51,750.43a7.24,7.24,0,1,1,6.64-10.11,7.25,7.25,0,0,1-3.78,9.52h0A7.22,7.22,0,0,1,96.51,750.43Zm0-13.12a5.82,5.82,0,0,0-2.33.48,5.9,5.9,0,0,0-3.06,7.74,5.88,5.88,0,0,0,7.73,3.06h0a5.88,5.88,0,0,0-2.34-11.28Z" transform="translate(0 -0.52)"/><path class="cls-4" d="M89.78,555.68a3.57,3.57,0,0,1-1.1-.18,3.46,3.46,0,1,1,4.21-4.81,3.41,3.41,0,0,1,.17,2.64A3.45,3.45,0,0,1,89.78,555.68Zm0-5.55a2.13,2.13,0,0,0-.92.21,2.1,2.1,0,1,0,2.91,2.56h0a2.07,2.07,0,0,0-.1-1.6,2.11,2.11,0,0,0-1.21-1.06A2.25,2.25,0,0,0,89.78,550.13Z" transform="translate(0 -0.52)"/><path class="cls-4" d="M193.31,250.26a4.74,4.74,0,0,1-.75-.06,5.11,5.11,0,1,1,1.49-10.12h0a5.11,5.11,0,0,1,2.31,9.16A5,5,0,0,1,193.31,250.26Zm0-8.88a3.76,3.76,0,1,0,.55,0h0A5.09,5.09,0,0,0,193.3,241.38Z" transform="translate(0 -0.52)"/><path class="cls-4" d="M699,550.11A11.5,11.5,0,0,1,687.49,539h0a11.49,11.49,0,1,1,11.83,11.14Zm0-21.62h-.31A10.12,10.12,0,0,0,692,546a9.81,9.81,0,0,0,7.25,2.75,10.13,10.13,0,0,0-.3-20.25Z" transform="translate(0 -0.52)"/><path class="cls-4" d="M340.75,334.35A16.41,16.41,0,1,1,352.93,329h0A16.39,16.39,0,0,1,340.75,334.35Zm0-31.46-.77,0a15.05,15.05,0,1,0,11.92,25.14h0a15.05,15.05,0,0,0-11.15-25.16Zm11.66,25.61h0Z" transform="translate(0 -0.52)"/><path class="cls-4" d="M14,329.39h-.5a7.37,7.37,0,0,1-6.87-7.85h0A7.37,7.37,0,1,1,14,329.39Zm-6-7.77a6,6,0,1,0,6.4-5.6,6,6,0,0,0-6.4,5.6Z" transform="translate(0 -0.52)"/><path class="cls-4" d="M44.74,22.25A9.31,9.31,0,0,1,37.82,6.7h0a9.26,9.26,0,0,1,6.44-3.07A9.37,9.37,0,0,1,51,6a9.32,9.32,0,0,1-6.24,16.24ZM38.84,7.61a8,8,0,1,0,13.85,4.91A8,8,0,0,0,38.83,7.61Z" transform="translate(0 -0.52)"/><path class="cls-4" d="M369.4,640.61a3.71,3.71,0,0,1-3-1.47,3.75,3.75,0,0,1,.71-5.25,3.81,3.81,0,0,1,2.77-.73,3.76,3.76,0,0,1,2.48,1.45,3.71,3.71,0,0,1,.72,2.77,3.73,3.73,0,0,1-3.7,3.23Zm0-6.12a2.38,2.38,0,0,0-1.89,3.82,2.38,2.38,0,1,0,3.79-2.88h0a2.35,2.35,0,0,0-1.57-.92Z" transform="translate(0 -0.52)"/><path class="cls-4" d="M204.17,174.93a9.74,9.74,0,0,1-2.45-.31,9.83,9.83,0,1,1,2.45.31Zm0-18.51a8.57,8.57,0,1,0,2.1.26A8.39,8.39,0,0,0,204.15,156.42Z" transform="translate(0 -0.52)"/><path class="cls-4" d="M296,702.17a9.43,9.43,0,0,1-.12-18.85H296a9.43,9.43,0,0,1,.12,18.85H296Zm0-17.49h-.1a8.06,8.06,0,0,0,.1,16.12h.1a8.07,8.07,0,0,0-.1-16.13Z" transform="translate(0 -0.52)"/><path class="cls-4" d="M51.16,120.42a4.21,4.21,0,0,1-1.55-.29,4.39,4.39,0,1,1,1.55.29Zm0-7.48a3,3,0,0,0-2.86,2,3.06,3.06,0,1,0,5.65-.18,3,3,0,0,0-1.71-1.6A3.08,3.08,0,0,0,51.16,112.94Z" transform="translate(0 -0.52)"/><path class="cls-4" d="M96.06,222.26c-2.91,0-5.55-72-6.24-74.95-.82-3.45,1.33,63.09,4.77,62.28a6.42,6.42,0,1,1,3,12.49A6.3,6.3,0,0,1,96.06,222.26Zm0-11.49a5.2,5.2,0,0,0-1.17.14c-2.71.64-4.4-66.63-3.76-63.91s3.37,74.4,6.09,73.76a5.06,5.06,0,0,0-1.16-10Z" transform="translate(0 -0.52)"/><path class="cls-4" d="M640.23,392.77a4.45,4.45,0,0,1-3-1.16h0a4.47,4.47,0,1,1,3,1.16Zm-2.09-2.17a3.1,3.1,0,1,0,4.18-4.58,3,3,0,0,0-2.24-.81,3.1,3.1,0,0,0-1.94,5.39Z" transform="translate(0 -0.52)"/><path class="cls-4" d="M9.08,155.44a5.54,5.54,0,0,1-1-.1,4.89,4.89,0,1,1,2-9.59,4.9,4.9,0,0,1,3.81,5.78h0a4.9,4.9,0,0,1-4.78,3.91Zm0-8.43a3.53,3.53,0,0,0-.7,7,3.46,3.46,0,0,0,2.65-.51,3.5,3.5,0,0,0,1.52-2.24h0A3.5,3.5,0,0,0,12,148.6a3.45,3.45,0,0,0-2.23-1.51A3.53,3.53,0,0,0,9.06,147Z" transform="translate(0 -0.52)"/><path class="cls-4" d="M10.9,205.33a5.11,5.11,0,0,1-2.33-9.66h0a5.11,5.11,0,1,1,2.33,9.66Zm-1.71-8.45a3.74,3.74,0,0,0-1.86,2.19,3.75,3.75,0,0,0,5.27,4.49,3.75,3.75,0,0,0,1.86-2.18,3.7,3.7,0,0,0-.23-2.86,3.75,3.75,0,0,0-5-1.64Z" transform="translate(0 -0.52)"/><path class="cls-4" d="M498.19,165.8a7.59,7.59,0,0,1-5.23-2.08h0a7.61,7.61,0,1,1,5.23,2.08Zm-4.29-3.07a6.25,6.25,0,0,0,8.59-9.08,6.16,6.16,0,0,0-4.47-1.71,6.25,6.25,0,0,0-4.12,10.79Z" transform="translate(0 -0.52)"/><path class="cls-4" d="M389.27,563.89a13.81,13.81,0,0,1-13.64-16,13.8,13.8,0,1,1,13.64,16Zm0-26.25A12.45,12.45,0,0,0,377,548.11h0a12.44,12.44,0,1,0,12.26-10.47ZM376.3,548h0Z" transform="translate(0 -0.52)"/><path class="cls-4" d="M495.29,436.24a12.86,12.86,0,1,1,6.91-2A12.87,12.87,0,0,1,495.29,436.24Zm0-24.37a11.6,11.6,0,1,0,2.5.28A11.21,11.21,0,0,0,495.25,411.87Z" transform="translate(0 -0.52)"/><path class="cls-4" d="M622.73,224.58c-.25,0-.5,0-.75,0a12.3,12.3,0,1,1,.75,0Zm0-23A10.84,10.84,0,1,0,633.52,213h0a10.82,10.82,0,0,0-10.16-11.46Z" transform="translate(0 -0.52)"/><path class="cls-4" d="M320.82,57.73a12.16,12.16,0,0,1-9-20.33h0a12.15,12.15,0,1,1,9.58,20.31Zm-8-19.42a10.81,10.81,0,0,0,.73,15.25,10.79,10.79,0,0,0,15.24-.73,10.79,10.79,0,0,0-.72-15.24,10.64,10.64,0,0,0-7.77-2.8,10.76,10.76,0,0,0-7.48,3.52Z" transform="translate(0 -0.52)"/><path class="cls-4" d="M473.21,372.84a11.15,11.15,0,1,1,1.58-.11A11.87,11.87,0,0,1,473.21,372.84Zm.05-20.95a10.83,10.83,0,0,0-1.39.1,9.7,9.7,0,1,0,1.39-.1Z" transform="translate(0 -0.52)"/><path class="cls-4" d="M528,290.59a11.86,11.86,0,1,1,3.56-.55A11.77,11.77,0,0,1,528,290.59Zm0-22.31a10.47,10.47,0,1,0,10,7.33A10.4,10.4,0,0,0,528,268.28Z" transform="translate(0 -0.52)"/><path class="cls-4" d="M281.71,429.58a4.5,4.5,0,0,1-1.4-.22h0a4.6,4.6,0,1,1,5.49-6.5,4.6,4.6,0,0,1-4.09,6.72Zm0-7.85a3.25,3.25,0,0,0-1,6.34h0a3.24,3.24,0,1,0,2-6.18A3.06,3.06,0,0,0,281.7,421.73Z" transform="translate(0 -0.52)"/><path class="cls-4" d="M476.25,270.45a9.72,9.72,0,1,1,8.24-4.51A9.69,9.69,0,0,1,476.25,270.45Zm0-18.12a8.16,8.16,0,0,0-1.83.21,8.37,8.37,0,0,0-2.68,15.24,8.38,8.38,0,1,0,4.51-15.45Z" transform="translate(0 -0.52)"/><path class="cls-4" d="M298.79,534.76a7.78,7.78,0,0,1-7-4.25h0a7.79,7.79,0,1,1,7,4.25Zm0-14.2a6.42,6.42,0,0,0-5.72,9.33h0a6.42,6.42,0,1,0,7.71-9A6.19,6.19,0,0,0,298.77,520.56Z" transform="translate(0 -0.52)"/><path class="cls-4" d="M463.44,129.45a5,5,0,0,1-5-4.72h0a5,5,0,0,1,4.72-5.21,4.87,4.87,0,0,1,3.58,1.28,4.92,4.92,0,0,1,1.62,3.44,5,5,0,0,1-4.71,5.21Zm-3.61-4.79a3.61,3.61,0,1,0,7.22-.36,3.56,3.56,0,0,0-1.19-2.49,3.63,3.63,0,0,0-2.6-.93,3.51,3.51,0,0,0-2.49,1.18,3.61,3.61,0,0,0-.94,2.6Z" transform="translate(0 -0.52)"/><path class="cls-4" d="M650.05,354.62a11.8,11.8,0,1,1,6.83-2.19A11.81,11.81,0,0,1,650.05,354.62Zm0-22.24a10.44,10.44,0,1,0,6.08,18.95,10.46,10.46,0,0,0,2.45-14.58A10.46,10.46,0,0,0,650,332.38Z" transform="translate(0 -0.52)"/><path class="cls-4" d="M139.62,479.13a3.87,3.87,0,0,1-1-.12A3.79,3.79,0,0,1,136,474.4a3.78,3.78,0,0,1,4.6-2.72h0a3.78,3.78,0,0,1-.93,7.45Zm0-6.21a2.35,2.35,0,0,0-1.23.34,2.42,2.42,0,1,0,1.83-.27h0A2.46,2.46,0,0,0,139.61,472.92Z" transform="translate(0 -0.52)"/><path class="cls-4" d="M491.78,560.76a17.87,17.87,0,0,1-5.62-.91,17.77,17.77,0,1,1,13.56-1h0A17.63,17.63,0,0,1,491.78,560.76Zm0-34.17a16.4,16.4,0,1,0,7.36,31.07h0a16.4,16.4,0,0,0-2.17-30.23A16.58,16.58,0,0,0,491.75,526.59Z" transform="translate(0 -0.52)"/><path class="cls-4" d="M491.67,217.48a5.93,5.93,0,0,1-5.81-4.76h0a5.94,5.94,0,0,1,4.64-7,5.93,5.93,0,1,1,1.17,11.75Zm-4.48-5a4.54,4.54,0,0,0,1.95,2.9,4.58,4.58,0,0,0,6.33-1.27,4.57,4.57,0,1,0-8.28-1.63Z" transform="translate(0 -0.52)"/><path class="cls-4" d="M454.5,24.49a10.61,10.61,0,1,1,10.21-7.71h0A10.64,10.64,0,0,1,454.5,24.49Zm0-19.86A9.25,9.25,0,0,0,452,22.78a9.27,9.27,0,0,0,11.42-6.37h0A9.26,9.26,0,0,0,457,5,9.15,9.15,0,0,0,454.49,4.63Zm9.56,12h0Z" transform="translate(0 -0.52)"/><path class="cls-4" d="M50.64,501.65A14.47,14.47,0,1,1,64.83,490,14.44,14.44,0,0,1,50.64,501.65Zm0-27.58a13.11,13.11,0,1,0,2.55.25A13.14,13.14,0,0,0,50.63,474.07Z" transform="translate(0 -0.52)"/><path class="cls-4" d="M354.8,415.74a7.5,7.5,0,1,1,3.77-14,7.5,7.5,0,0,1-1.84,13.73h0A7.58,7.58,0,0,1,354.8,415.74Zm0-13.64a6.07,6.07,0,0,0-1.58.21,6.14,6.14,0,1,0,3.15,11.86h0a6.14,6.14,0,0,0-1.57-12.07Z" transform="translate(0 -0.52)"/><path class="cls-4" d="M665.56,78.23a15,15,0,1,1,8.32-27.41h0a15,15,0,0,1-8.32,27.41Zm0-28.56A13.6,13.6,0,1,0,673.12,52h0A13.52,13.52,0,0,0,665.6,49.67Z" transform="translate(0 -0.52)"/><path class="cls-4" d="M356.22,14.55a6,6,0,0,1-1.1-.11,5.64,5.64,0,0,1-4.42-6.63h0a5.63,5.63,0,1,1,5.52,6.74ZM352,8.07a4.28,4.28,0,1,0,5-3.35,4.28,4.28,0,0,0-5,3.35Z" transform="translate(0 -0.52)"/><path class="cls-4" d="M540.17,200.17a11.69,11.69,0,1,1,4.44-.89A11.59,11.59,0,0,1,540.17,200.17Zm0-21.92a10.28,10.28,0,0,0-9.48,14.2,10.28,10.28,0,1,0,9.48-14.2Z" transform="translate(0 -0.52)"/><path class="cls-4" d="M694.26,125.74a6,6,0,0,1-2.58-.59,5.9,5.9,0,1,1,4.5.27A5.82,5.82,0,0,1,694.26,125.74Zm0-10.42a4.55,4.55,0,1,0,2,.46A4.46,4.46,0,0,0,694.26,115.32Z" transform="translate(0 -0.52)"/><path class="cls-4" d="M642.36,535.6q-.74,0-1.47-.06a17.88,17.88,0,1,1,1.47.06Zm0-34.41a16.55,16.55,0,0,0-16.45,15.19A16.51,16.51,0,0,0,641,534.18h0a16.52,16.52,0,1,0,2.68-32.93Q643,501.19,642.33,501.19Z" transform="translate(0 -0.52)"/><path class="cls-4" d="M672.69,718.25a4.47,4.47,0,1,1,3.59-1.8h0A4.44,4.44,0,0,1,672.69,718.25Zm0-7.58a3.11,3.11,0,0,0-1.86,5.6,3.12,3.12,0,0,0,4.35-.63h0a3.11,3.11,0,0,0-2.49-5Zm3,5.38h0Z" transform="translate(0 -0.52)"/><path class="cls-4" d="M193.91,671.21a6.24,6.24,0,0,1-6-4.45,6.17,6.17,0,0,1,.47-4.76,6.25,6.25,0,0,1,8.47-2.56h0a6.26,6.26,0,0,1-3,11.77Zm0-11.15a5,5,0,0,0-1.42.21,4.89,4.89,0,1,0,3.73.37h0A4.83,4.83,0,0,0,193.93,660.06Z" transform="translate(0 -0.52)"/><path class="cls-4" d="M51.61,140.44a13.51,13.51,0,0,1-12.12-7.54h0a13.47,13.47,0,1,1,12.12,7.54Zm-10.9-8.14a12.12,12.12,0,1,0,5.54-16.21,12.13,12.13,0,0,0-5.54,16.21Z" transform="translate(0 -0.52)"/><path class="cls-4" d="M11.14,756.47a4.36,4.36,0,0,1-.72-.05,4.86,4.86,0,0,1-4.1-5.53h0a4.83,4.83,0,0,1,1.91-3.19,4.78,4.78,0,0,1,3.61-.91,4.87,4.87,0,0,1-.7,9.68Zm-3.48-5.38h0a3.49,3.49,0,0,0,.65,2.6,3.52,3.52,0,0,0,4.91.73,3.51,3.51,0,1,0-5.56-3.33Z" transform="translate(0 -0.52)"/><path class="cls-4" d="M138.53,365.82a16.9,16.9,0,1,1,2-.11A16.21,16.21,0,0,1,138.53,365.82Zm.06-32.43a15.76,15.76,0,0,0-1.8.1,15.58,15.58,0,1,0,1.8-.1Z" transform="translate(0 -0.52)"/><path class="cls-4" d="M435.16,528.83a17.39,17.39,0,1,1,5.22-34h0a17.39,17.39,0,0,1-5.22,34Zm0-33.42a16,16,0,1,0,4.8.74h0A16,16,0,0,0,435.18,495.41Z" transform="translate(0 -0.52)"/><path class="cls-4" d="M745.5,364.47a5.2,5.2,0,0,1-4.44-2.48,5.2,5.2,0,0,1,1.72-7.13,5.2,5.2,0,0,1,7.14,1.72h0a5.18,5.18,0,0,1-4.42,7.89Zm0-9a3.82,3.82,0,0,0-3.71,2.92,3.78,3.78,0,0,0,.46,2.9,3.83,3.83,0,0,0,5.26,1.27,3.84,3.84,0,0,0,1.27-5.26h0A3.83,3.83,0,0,0,745.48,355.46Z" transform="translate(0 -0.52)"/><path class="cls-4" d="M151,715.16a11.81,11.81,0,0,1-11.32-8.56h0a11.8,11.8,0,1,1,14.58,8.1A12.16,12.16,0,0,1,151,715.16Zm-10-8.94a10.43,10.43,0,1,0,7.17-12.89A10.42,10.42,0,0,0,141,706.22Z" transform="translate(0 -0.52)"/><path class="cls-4" d="M155.78,155.86a3.74,3.74,0,0,1-2-.59,3.81,3.81,0,1,1,2.88.49A4.3,4.3,0,0,1,155.78,155.86Zm0-6.28a2.67,2.67,0,0,0-.56.06,2.47,2.47,0,0,0-1.53,1.09,2.46,2.46,0,0,0,.78,3.39,2.45,2.45,0,0,0,3.38-.78,2.46,2.46,0,0,0-2.07-3.76Z" transform="translate(0 -0.52)"/><path class="cls-4" d="M520.33,72.18a4.18,4.18,0,0,1-2.47-.8h0a4.21,4.21,0,1,1,2.47.8Zm-1.67-1.9a2.83,2.83,0,1,0-.61-4,2.84,2.84,0,0,0,.61,4Z" transform="translate(0 -0.52)"/><path class="cls-4" d="M524,725.73a10.85,10.85,0,0,1-5.73-20.08h0a10.87,10.87,0,0,1,14.94,3.53A10.84,10.84,0,0,1,524,725.73Zm0-20.33a9.4,9.4,0,0,0-5,1.41h0a9.51,9.51,0,1,0,5-1.41Zm-5.33.83h0Z" transform="translate(0 -0.52)"/><path class="cls-4" d="M159.23,208.44a9.66,9.66,0,0,1-3.62-.7,9.76,9.76,0,1,1,3.62.7Zm0-18.13a8.38,8.38,0,1,0,3.11.6A8.41,8.41,0,0,0,159.26,190.31Z" transform="translate(0 -0.52)"/><path class="cls-4" d="M108.81,523.07a13.67,13.67,0,0,1-3.89-.57,13.49,13.49,0,1,1,16.8-9.06h0a13.5,13.5,0,0,1-12.91,9.63Zm0-25.64a12.14,12.14,0,1,0,11.64,15.62h0a12.17,12.17,0,0,0-11.64-15.62Z" transform="translate(0 -0.52)"/><path class="cls-4" d="M181.22,621.54a4,4,0,0,1-4-4.8,4,4,0,1,1,7.95,1.51h0a4,4,0,0,1-4,3.29Zm0-6.73a2.65,2.65,0,1,0,.5,0A2.89,2.89,0,0,0,181.21,614.81Zm3.31,3.31h0Z" transform="translate(0 -0.52)"/><path class="cls-4" d="M742.29,263.78a10.14,10.14,0,1,1,4.75-1.19h0A10.16,10.16,0,0,1,742.29,263.78Zm0-18.92a8.77,8.77,0,0,0-7.73,12.9,8.78,8.78,0,0,0,11.87,3.63h0a8.78,8.78,0,0,0-1.57-16.15A9,9,0,0,0,742.26,244.86ZM746.72,262h0Z" transform="translate(0 -0.52)"/><path class="cls-4" d="M742.21,534.07a9.59,9.59,0,0,1-1.07-.06,10.76,10.76,0,1,1,1.07.06Zm0-20.33a9.48,9.48,0,0,0-.91,18.92,9.48,9.48,0,1,0,1.86-18.87C742.81,513.76,742.5,513.74,742.18,513.74Z" transform="translate(0 -0.52)"/><path class="cls-4" d="M277.94,105.68a17.56,17.56,0,1,1,17.52-18.9h0a17.53,17.53,0,0,1-16.15,18.84C278.85,105.66,278.39,105.68,277.94,105.68Zm0-33.75c-.42,0-.83,0-1.25,0a16.19,16.19,0,1,0,17.38,14.91h0A16.21,16.21,0,0,0,278,71.93Z" transform="translate(0 -0.52)"/><path class="cls-4" d="M93.32,267H93c-1-.07-1.85-70.52-2.49-71.26a3.62,3.62,0,0,1-.86-2.66,3.65,3.65,0,0,1,1.26-2.48c.74-.63,1.68,69.06,2.66,69.13a3.62,3.62,0,0,1,2.48,1.27,3.57,3.57,0,0,1,.87,2.65,3.65,3.65,0,0,1-1.27,2.49A3.59,3.59,0,0,1,93.32,267Zm0-5.93a2.32,2.32,0,0,0-1.48.55c-.46.4-.75-69-.79-68.44a2.23,2.23,0,0,0,.54,1.66c.39.47,1,70.75,1.56,70.8A2.29,2.29,0,0,0,94.8,265a2.24,2.24,0,0,0,.79-1.55,2.27,2.27,0,0,0-.54-1.67,2.3,2.3,0,0,0-1.56-.79Z" transform="translate(0 -0.52)"/><path class="cls-4" d="M262.39,173.59a17.38,17.38,0,0,1-8.86-2.41,17.59,17.59,0,1,1,17.78-30.36h0a17.59,17.59,0,0,1-8.92,32.77Zm.06-33.82a16.23,16.23,0,1,0,8.17,2.22h0A16.18,16.18,0,0,0,262.45,139.77Z" transform="translate(0 -0.52)"/><path class="cls-4" d="M369.28,58.56a4.54,4.54,0,0,1-.82-.07,4.39,4.39,0,0,1-2.82-1.84,4.4,4.4,0,0,1,7.26-5,4.41,4.41,0,0,1-1.14,6.13A4.35,4.35,0,0,1,369.28,58.56Zm0-7.45a3.07,3.07,0,0,0-1.72.54,3,3,0,1,0,4.24.78,3.07,3.07,0,0,0-2-1.27A3.53,3.53,0,0,0,369.26,51.11Z" transform="translate(0 -0.52)"/><path class="cls-4" d="M547.68,537.29a11.86,11.86,0,0,1-.26-23.71h.28a11.86,11.86,0,0,1,.26,23.72Zm0-22.36h-.25a9.82,9.82,0,1,0,.25,0Z" transform="translate(0 -0.52)"/><path class="cls-4" d="M598.29,13.15a4.77,4.77,0,0,1-.43-9.52h0a4.77,4.77,0,0,1,.86,9.5Zm0-8.17H598a3.4,3.4,0,0,0,.62,6.78,3.36,3.36,0,0,0,2.31-1.21A3.4,3.4,0,0,0,598.3,5Zm-.38-.67h0Z" transform="translate(0 -0.52)"/><path class="cls-4" d="M147.36,658.62a3.85,3.85,0,0,1-1-.14h0a3.64,3.64,0,1,1,1,.14Zm-.63-1.45a2.26,2.26,0,1,0-1.54-2.81,2.26,2.26,0,0,0,1.54,2.81Z" transform="translate(0 -0.52)"/><path class="cls-4" d="M498.16,498.17A15.26,15.26,0,0,1,483,483.73h0a15.24,15.24,0,1,1,16,14.41Zm0-29.13-.75,0a13.88,13.88,0,0,0-13.12,14.6h0A13.88,13.88,0,1,0,498.18,469Z" transform="translate(0 -0.52)"/><path class="cls-4" d="M231.5,640.67l-.53,0a4.81,4.81,0,0,1-4.26-5.3,4.81,4.81,0,1,1,4.79,5.33Zm0-8.26a3.45,3.45,0,0,0-3.42,3.08,3.45,3.45,0,0,0,3.06,3.8,3.45,3.45,0,0,0,3.06-5.59,3.43,3.43,0,0,0-2.32-1.27Z" transform="translate(0 -0.52)"/><path class="cls-4" d="M419,60.65a9.38,9.38,0,0,1-2.1-.23,9.92,9.92,0,0,1-7.59-11.78h0a9.91,9.91,0,1,1,9.69,12Zm-8.36-11.72a8.55,8.55,0,1,0,10.17-6.54,8.56,8.56,0,0,0-10.17,6.54Z" transform="translate(0 -0.52)"/><path class="cls-4" d="M589.61,61.81a5.35,5.35,0,0,1-1.42-.2,5,5,0,1,1,6.26-3.42h0A5.05,5.05,0,0,1,589.61,61.81Zm0-8.73a3.69,3.69,0,1,0,3.54,4.72h0a3.69,3.69,0,0,0-3.54-4.72ZM593.8,58h0Z" transform="translate(0 -0.52)"/><path class="cls-4" d="M209.54,731.39a11.11,11.11,0,1,1,4.65-1A11.06,11.06,0,0,1,209.54,731.39Zm0-20.84a9.73,9.73,0,1,0,8.85,5.65A9.7,9.7,0,0,0,209.52,710.55Z" transform="translate(0 -0.52)"/><path class="cls-4" d="M730.36,328.17a17.86,17.86,0,0,1-3.16-.29,17.38,17.38,0,1,1,3.16.29Zm-.06-33.68a16,16,0,0,0-9.19,2.88h0A16.17,16.17,0,0,0,717,319.86a16.16,16.16,0,1,0,13.26-25.37Zm-9.58,2.32h0Z" transform="translate(0 -0.52)"/><path class="cls-4" d="M97.24,705.92a10.46,10.46,0,0,1-1.34-20.84h0a10.47,10.47,0,0,1,2.7,20.76A12.55,12.55,0,0,1,97.24,705.92Zm-1.17-19.49a9.11,9.11,0,1,0,10.2,7.85,9.11,9.11,0,0,0-10.2-7.85Z" transform="translate(0 -0.52)"/><path class="cls-4" d="M282.71,652.9a8.7,8.7,0,0,1-6.92-14h0a8.71,8.71,0,1,1,6.92,14Zm-5.83-13.15a7.35,7.35,0,1,0,10.29-1.39,7.34,7.34,0,0,0-10.29,1.39Z" transform="translate(0 -0.52)"/><path class="cls-4" d="M422.85,705a5.17,5.17,0,1,1,3.7-1.54A5.18,5.18,0,0,1,422.85,705Zm0-9a3.83,3.83,0,1,0,2.73,6.52,3.84,3.84,0,0,0,0-5.42A3.83,3.83,0,0,0,422.85,696Z" transform="translate(0 -0.52)"/><path class="cls-4" d="M580.42,165a5.08,5.08,0,0,1-3.87-8.39h0a5.09,5.09,0,0,1,8.94,2.9,5.09,5.09,0,0,1-5.07,5.49Zm-2.84-7.5a3.73,3.73,0,1,0,6.55,2.11,3.67,3.67,0,0,0-1.3-2.53,3.72,3.72,0,0,0-5.25.42Z" transform="translate(0 -0.52)"/><path class="cls-4" d="M492.53,755.89a8.34,8.34,0,1,1,.43,0h-.43Zm.39-.69h0Zm-.37-14.65h-.37a7,7,0,0,0,.71,14h0a7,7,0,0,0,4.33-12.16A6.92,6.92,0,0,0,492.55,740.55Z" transform="translate(0 -0.52)"/><path class="cls-4" d="M104,177.3A13.35,13.35,0,0,1,98.19,176h0A13.4,13.4,0,1,1,104,177.3Zm-5.23-2.57a12,12,0,1,0-5.56-16.06,12,12,0,0,0,5.56,16.06Z" transform="translate(0 -0.52)"/><path class="cls-4" d="M618.66,158.06a9.46,9.46,0,0,1-9.25-7.56h0a9.45,9.45,0,1,1,9.25,7.56Zm0-17.53a8.12,8.12,0,0,0-1.63.16,8.08,8.08,0,0,0-6.31,9.53h0a8.07,8.07,0,1,0,7.94-9.69Z" transform="translate(0 -0.52)"/><path class="cls-4" d="M250.17,558.19A4.52,4.52,0,0,1,249,558a4.28,4.28,0,1,1,1.2.17Zm0-7.1a2.91,2.91,0,0,0-1.37.35,2.88,2.88,0,0,0-1.14,3.89,2.78,2.78,0,0,0,1.71,1.38,2.81,2.81,0,0,0,2.18-.23,2.87,2.87,0,0,0,1.38-1.71,2.86,2.86,0,0,0-1.94-3.56h0A2.91,2.91,0,0,0,250.16,551.09Z" transform="translate(0 -0.52)"/><path class="cls-4" d="M246.81,469.48a12,12,0,1,1,10-5.3A11.94,11.94,0,0,1,246.81,469.48Zm0-22.7a11.06,11.06,0,0,0-2.06.2,10.55,10.55,0,0,0-6.81,4.51,10.67,10.67,0,1,0,19.32,3.93,10.69,10.69,0,0,0-10.45-8.64Z" transform="translate(0 -0.52)"/><path class="cls-4" d="M194.19,337a5.78,5.78,0,0,1-5.75-5.18h0a5.81,5.81,0,0,1,5.15-6.38A5.8,5.8,0,0,1,194.82,337Zm0-10.23-.48,0a4.44,4.44,0,0,0-3.94,4.88h0a4.38,4.38,0,0,0,1.63,3,4.42,4.42,0,0,0,6.23-.67,4.36,4.36,0,0,0,1-3.25A4.44,4.44,0,0,0,194.21,326.8Z" transform="translate(0 -0.52)"/><path class="cls-4" d="M155.9,587.9a3.87,3.87,0,0,1-1.76-.43,3.84,3.84,0,1,1,5.17-1.64A3.84,3.84,0,0,1,155.9,587.9Zm0-6.31a2.47,2.47,0,0,0-2.36,3.22,2.44,2.44,0,0,0,1.22,1.45,2.47,2.47,0,0,0,2.27-4.39A2.42,2.42,0,0,0,155.91,581.59Z" transform="translate(0 -0.52)"/><path class="cls-4" d="M157.52,84.08a14,14,0,1,1,10.53-4.75h0A14,14,0,0,1,157.52,84.08Zm0-26.68c-.27,0-.55,0-.82,0A12.54,12.54,0,0,0,148,61.7a12.66,12.66,0,1,0,19,16.74h0a12.66,12.66,0,0,0-9.48-21Zm10,21.49h0Z" transform="translate(0 -0.52)"/><path class="cls-4" d="M746.27,719.91a5,5,0,1,1,3.22-1.19A4.94,4.94,0,0,1,746.27,719.91Zm0-8.57a3.55,3.55,0,0,0-2.34.87h0a3.58,3.58,0,0,0-1.25,2.45,3.6,3.6,0,0,0,5.93,3,3.61,3.61,0,0,0-2.05-6.34Zm-2.78.35h0Z" transform="translate(0 -0.52)"/><path class="cls-4" d="M742.32,154.8a11.37,11.37,0,0,1-10-5.87h0a11.38,11.38,0,1,1,10,5.87Zm-8.78-6.53a10,10,0,1,0,3.93-13.58,10,10,0,0,0-3.93,13.58Z" transform="translate(0 -0.52)"/><path class="cls-4" d="M98.8,101.05a.66.66,0,0,1-.6-.37.67.67,0,0,1,.28-.91L101,98.43a.68.68,0,0,1,.92.28.69.69,0,0,1-.29.92L99.11,101A.68.68,0,0,1,98.8,101.05Z" transform="translate(0 -0.52)"/><path class="cls-4" d="M720,3.86a.7.7,0,0,1-.47-.19l-2-2a.68.68,0,1,1,.95-1l2.05,2A.68.68,0,0,1,720,3.86Z" transform="translate(0 -0.52)"/><path class="cls-4" d="M662.18,150.11a.67.67,0,0,1-.63-.42l-.45-1.1a.68.68,0,1,1,1.26-.52l.45,1.1a.69.69,0,0,1-.38.89A.74.74,0,0,1,662.18,150.11Z" transform="translate(0 -0.52)"/><path class="cls-4" d="M301,291.85a.67.67,0,0,1-.59-.35l-1-1.65a.69.69,0,0,1,.25-.93.68.68,0,0,1,.93.25l1,1.66a.69.69,0,0,1-.26.93A.66.66,0,0,1,301,291.85Z" transform="translate(0 -0.52)"/><path class="cls-4" d="M1.9,8.23a.68.68,0,0,1-.26-1.31l.53-.21A.68.68,0,1,1,2.68,8l-.52.21A.6.6,0,0,1,1.9,8.23Z" transform="translate(0 -0.52)"/><path class="cls-4" d="M358.82,720.7h0a.68.68,0,0,1-.66-.7l.06-2.5a.64.64,0,0,1,.7-.66.68.68,0,0,1,.66.7L359.5,720A.69.69,0,0,1,358.82,720.7Z" transform="translate(0 -0.52)"/><path class="cls-4" d="M1.84,365.19a.66.66,0,0,1-.43-.15.67.67,0,0,1-.1-1l.51-.62a.69.69,0,0,1,1-.1.68.68,0,0,1,.09,1l-.51.62A.65.65,0,0,1,1.84,365.19Z" transform="translate(0 -0.52)"/><path class="cls-4" d="M492.91,312.42a.67.67,0,0,1-.65-.47l-.88-2.75a.68.68,0,1,1,1.29-.41l.88,2.75a.67.67,0,0,1-.44.85A.64.64,0,0,1,492.91,312.42Z" transform="translate(0 -0.52)"/><path class="cls-4" d="M288,475.74a.69.69,0,0,1-.65-.48l-.93-3a.68.68,0,1,1,1.3-.4l.93,3a.67.67,0,0,1-.44.85A.76.76,0,0,1,288,475.74Z" transform="translate(0 -0.52)"/><path class="cls-4" d="M109.77,587.47a.73.73,0,0,1-.35-.09l-.89-.54a.67.67,0,0,1-.23-.93.68.68,0,0,1,.93-.23l.89.53a.67.67,0,0,1,.23.93A.66.66,0,0,1,109.77,587.47Z" transform="translate(0 -0.52)"/><path class="cls-4" d="M138.84,551h-.12l-1.78-.31a.69.69,0,0,1-.56-.79.67.67,0,0,1,.79-.55l1.79.31a.68.68,0,0,1-.12,1.35Z" transform="translate(0 -0.52)"/><path class="cls-4" d="M216.87,514.79a.64.64,0,0,1-.38-.12.68.68,0,0,1-.19-.94l.46-.69a.68.68,0,0,1,.94-.18.67.67,0,0,1,.19.94l-.46.68A.68.68,0,0,1,216.87,514.79Z" transform="translate(0 -0.52)"/><path class="cls-4" d="M347,681.54h-.12a.67.67,0,0,1-.55-.78l.25-1.5a.68.68,0,1,1,1.34.23l-.25,1.5A.68.68,0,0,1,347,681.54Z" transform="translate(0 -0.52)"/><path class="cls-4" d="M257.49,509.3a.7.7,0,0,1-.53-.25l-.43-.55a.67.67,0,0,1,.1-.95.68.68,0,0,1,1,.1l.43.55a.67.67,0,0,1-.1.95A.7.7,0,0,1,257.49,509.3Z" transform="translate(0 -0.52)"/><path class="cls-4" d="M7,659a.73.73,0,0,1-.4-.13.68.68,0,0,1-.16-1L7,657.2a.68.68,0,0,1,1-.16.68.68,0,0,1,.15,1l-.52.73A.68.68,0,0,1,7,659Z" transform="translate(0 -0.52)"/><path class="cls-4" d="M54.9,747.07a.39.39,0,0,1-.15,0l-.55-.13a.69.69,0,0,1-.51-.82.67.67,0,0,1,.82-.5l.55.13a.69.69,0,0,1,.51.82A.69.69,0,0,1,54.9,747.07Z" transform="translate(0 -0.52)"/><path class="cls-4" d="M109.48,56.86a.68.68,0,0,1-.23-1.32l.49-.18a.69.69,0,0,1,.87.41.67.67,0,0,1-.41.87l-.49.18A.59.59,0,0,1,109.48,56.86Z" transform="translate(0 -0.52)"/><path class="cls-4" d="M473.26,64.47h-.11L471,64.09a.69.69,0,0,1-.56-.79.68.68,0,0,1,.79-.55l2.15.37a.68.68,0,0,1-.12,1.35Z" transform="translate(0 -0.52)"/><path class="cls-4" d="M103.28,652.3a.67.67,0,0,1-.67-.6l-.32-2.7a.68.68,0,0,1,.6-.75.7.7,0,0,1,.76.6l.31,2.69a.69.69,0,0,1-.6.76Z" transform="translate(0 -0.52)"/><path class="cls-4" d="M395.08,84.52a.69.69,0,0,1-.6-.37.68.68,0,0,1,.29-.92l1.24-.64a.67.67,0,0,1,.91.3.66.66,0,0,1-.29.91l-1.24.64A.65.65,0,0,1,395.08,84.52Z" transform="translate(0 -0.52)"/><path class="cls-4" d="M241.16,238.62a.68.68,0,0,1-.38-.12l-2.15-1.45a.69.69,0,0,1-.18-1,.68.68,0,0,1,.94-.18l2.15,1.46a.68.68,0,0,1,.18.94A.66.66,0,0,1,241.16,238.62Z" transform="translate(0 -0.52)"/><path class="cls-4" d="M623.72,101.86h-.08l-1.36-.17a.67.67,0,0,1-.59-.75.69.69,0,0,1,.76-.6l1.35.17a.68.68,0,0,1-.08,1.35Z" transform="translate(0 -0.52)"/><path class="cls-4" d="M748.88,436.47l-.21,0a.68.68,0,0,1-.43-.86l.5-1.57a.68.68,0,0,1,1.3.42l-.51,1.57A.67.67,0,0,1,748.88,436.47Z" transform="translate(0 -0.52)"/><path class="cls-4" d="M178.26,118.38h-.07l-1.51-.15a.68.68,0,0,1,.13-1.36l1.51.15a.68.68,0,0,1-.06,1.36Z" transform="translate(0 -0.52)"/><path class="cls-4" d="M746.48,675.2a.67.67,0,0,1-.61-.37.68.68,0,0,1,.3-.91l.74-.38a.7.7,0,0,1,.92.3.69.69,0,0,1-.3.92l-.74.37A.7.7,0,0,1,746.48,675.2Z" transform="translate(0 -0.52)"/><path class="cls-4" d="M354.5,752.94h-1.08a.7.7,0,0,1-.68-.69.68.68,0,0,1,.69-.68h1.08a.68.68,0,0,1,0,1.36Z" transform="translate(0 -0.52)"/><path class="cls-4" d="M647.55,682.39a.68.68,0,0,1-.09-1.36L648,681a.68.68,0,0,1,.19,1.35l-.53.07Z" transform="translate(0 -0.52)"/><path class="cls-4" d="M425.26,331.71a.68.68,0,0,1-.56-1.06l1.66-2.43a.69.69,0,0,1,.95-.17.67.67,0,0,1,.17.94l-1.66,2.43A.67.67,0,0,1,425.26,331.71Z" transform="translate(0 -0.52)"/><path class="cls-4" d="M94.2,310.93a.66.66,0,0,1-.52-.24.68.68,0,0,1,.08-1l.72-.61a.69.69,0,0,1,.88,1.05l-.73.6A.64.64,0,0,1,94.2,310.93Z" transform="translate(0 -0.52)"/><path class="cls-4" d="M454.38,456.06A.61.61,0,0,1,454,456a.67.67,0,0,1-.21-.93l.37-.6a.69.69,0,0,1,.94-.22.68.68,0,0,1,.21.94l-.37.6A.67.67,0,0,1,454.38,456.06Z" transform="translate(0 -0.52)"/><path class="cls-4" d="M38.9,536.75a.67.67,0,0,1-.31-.07.68.68,0,0,1-.3-.91l.66-1.32a.67.67,0,0,1,.91-.31.68.68,0,0,1,.3.91l-.65,1.32A.68.68,0,0,1,38.9,536.75Z" transform="translate(0 -0.52)"/><path class="cls-4" d="M171.3,10.84a.64.64,0,0,1-.49-.22l-.57-.6a.68.68,0,0,1,1-.93l.56.6a.68.68,0,0,1,0,1A.66.66,0,0,1,171.3,10.84Z" transform="translate(0 -0.52)"/><path class="cls-4" d="M374,596.15h0a.67.67,0,0,1-.65-.71l0-1a.63.63,0,0,1,.71-.64.67.67,0,0,1,.64.71l0,1A.68.68,0,0,1,374,596.15Z" transform="translate(0 -0.52)"/><path class="cls-4" d="M383.81,700.63a.67.67,0,0,1-.31-.07l-.72-.37a.68.68,0,0,1-.3-.92.69.69,0,0,1,.92-.29l.72.36a.68.68,0,0,1,.29.92A.66.66,0,0,1,383.81,700.63Z" transform="translate(0 -0.52)"/><path class="cls-4" d="M317.42,486.67a.68.68,0,0,1-.52-1.11l1.56-1.87a.68.68,0,1,1,1,.87l-1.56,1.87A.67.67,0,0,1,317.42,486.67Z" transform="translate(0 -0.52)"/><path class="cls-4" d="M304.24,610.94l-.14,0a.68.68,0,0,1-.53-.8l.41-1.93a.68.68,0,0,1,1.33.29l-.41,1.92A.68.68,0,0,1,304.24,610.94Z" transform="translate(0 -0.52)"/><path class="cls-4" d="M216.92,208.43a.69.69,0,0,1-.64-.46l-.91-2.66a.68.68,0,1,1,1.28-.44l.91,2.66a.67.67,0,0,1-.42.86A.57.57,0,0,1,216.92,208.43Z" transform="translate(0 -0.52)"/><path class="cls-4" d="M130.31,620.14a.68.68,0,0,1-.2-1.33l.64-.2a.68.68,0,1,1,.4,1.3l-.64.2A.69.69,0,0,1,130.31,620.14Z" transform="translate(0 -0.52)"/><path class="cls-4" d="M421.36,469.33a.68.68,0,0,1-.46-1.18l.51-.47a.68.68,0,0,1,1,.05.69.69,0,0,1,0,1l-.52.46A.66.66,0,0,1,421.36,469.33Z" transform="translate(0 -0.52)"/><path class="cls-4" d="M310.39,3a.7.7,0,0,1-.5-.22l-.7-.75a.68.68,0,1,1,1-.93l.71.75a.68.68,0,0,1-.5,1.15Z" transform="translate(0 -0.52)"/><path class="cls-4" d="M749.61,605a.52.52,0,0,1-.21,0,.67.67,0,0,1-.44-.85l.68-2.15a.68.68,0,1,1,1.3.41l-.69,2.15A.68.68,0,0,1,749.61,605Z" transform="translate(0 -0.52)"/><path class="cls-4" d="M621.33,69.11a.68.68,0,0,1-.6-.36l-.39-.75a.68.68,0,0,1,1.21-.62l.39.74a.68.68,0,0,1-.29.91A.61.61,0,0,1,621.33,69.11Z" transform="translate(0 -0.52)"/><path class="cls-4" d="M617.67,567.09a.68.68,0,0,1-.17-1.34l.74-.19a.68.68,0,0,1,.34,1.32l-.75.19Z" transform="translate(0 -0.52)"/><path class="cls-4" d="M393.64,667.17a.67.67,0,0,1-.31-.07l-2.83-1.47a.68.68,0,0,1,.62-1.21l2.83,1.47a.68.68,0,0,1-.31,1.28Z" transform="translate(0 -0.52)"/><path class="cls-4" d="M312.92,406.35a.63.63,0,0,1-.26-.05l-2-.84a.68.68,0,0,1,.53-1.26l2,.84a.68.68,0,0,1,.36.89A.67.67,0,0,1,312.92,406.35Z" transform="translate(0 -0.52)"/><path class="cls-4" d="M216.53,119.34a.65.65,0,0,1-.29-.07l-.8-.38a.68.68,0,0,1-.33-.9.69.69,0,0,1,.91-.33l.8.38a.69.69,0,0,1,.33.91A.7.7,0,0,1,216.53,119.34Z" transform="translate(0 -0.52)"/><path class="cls-4" d="M523.84,657.66a.66.66,0,0,1-.61-.39.67.67,0,0,1,.32-.9l2.12-1a.68.68,0,1,1,.58,1.23l-2.12,1A.59.59,0,0,1,523.84,657.66Z" transform="translate(0 -0.52)"/><path class="cls-4" d="M751.36,81a.69.69,0,0,1-.52-.24L749,78.68a.68.68,0,0,1,1-.9l1.86,2.13a.68.68,0,0,1-.06,1A.7.7,0,0,1,751.36,81Z" transform="translate(0 -0.52)"/><path class="cls-4" d="M84.86,617.9a.67.67,0,0,1-.24,0,.69.69,0,0,1-.39-.88l.56-1.47a.69.69,0,0,1,.88-.39.68.68,0,0,1,.39.88l-.56,1.46A.67.67,0,0,1,84.86,617.9Z" transform="translate(0 -0.52)"/><path class="cls-4" d="M260.92,601a.68.68,0,0,1-.61-.39l-.27-.57a.67.67,0,0,1,.33-.9.66.66,0,0,1,.9.32l.27.57a.67.67,0,0,1-.33.9A.59.59,0,0,1,260.92,601Z" transform="translate(0 -0.52)"/><path class="cls-4" d="M272.87,743.22a.72.72,0,0,1-.37-.11.68.68,0,0,1-.2-.94l.47-.74a.68.68,0,1,1,1.15.73l-.48.74A.67.67,0,0,1,272.87,743.22Z" transform="translate(0 -0.52)"/><path class="cls-4" d="M746.06,569.21H746a.67.67,0,0,1-.59-.75l.27-2.25a.69.69,0,0,1,.76-.59.67.67,0,0,1,.59.75l-.27,2.25A.68.68,0,0,1,746.06,569.21Z" transform="translate(0 -0.52)"/><path class="cls-4" d="M334.29,95.15l-.15,0a.67.67,0,0,1-.52-.8l.44-2a.67.67,0,0,1,.81-.52.68.68,0,0,1,.52.81l-.44,2A.68.68,0,0,1,334.29,95.15Z" transform="translate(0 -0.52)"/><path class="cls-4" d="M2.46,536.76a.71.71,0,0,1-.44-.15l-.85-.71a.68.68,0,0,1-.09-1,.69.69,0,0,1,1-.09l.85.71a.68.68,0,0,1-.43,1.2Z" transform="translate(0 -0.52)"/><path class="cls-4" d="M390,337.6a.66.66,0,0,1-.65-.49l-.29-.95a.68.68,0,0,1,1.3-.4l.29,1a.68.68,0,0,1-.46.85A.63.63,0,0,1,390,337.6Z" transform="translate(0 -0.52)"/><path class="cls-4" d="M352.26,232.45a.7.7,0,0,1-.54-.26.69.69,0,0,1,.13-1l.57-.43a.67.67,0,0,1,.95.12.69.69,0,0,1-.13,1l-.56.43A.66.66,0,0,1,352.26,232.45Z" transform="translate(0 -0.52)"/><path class="cls-4" d="M604.27,347a.8.8,0,0,1-.3-.06.69.69,0,0,1-.32-.91l.57-1.18a.67.67,0,0,1,.91-.31.68.68,0,0,1,.32.91l-.57,1.17A.68.68,0,0,1,604.27,347Z" transform="translate(0 -0.52)"/><path class="cls-4" d="M627.41,429.55a.69.69,0,0,1-.68-.63.7.7,0,0,1,.63-.73l2-.15a.68.68,0,0,1,.1,1.36l-2,.15Z" transform="translate(0 -0.52)"/><path class="cls-4" d="M234.7,276.79a.67.67,0,0,1-.57-.32L232.6,274a.69.69,0,0,1,.22-.94.68.68,0,0,1,.94.22l1.52,2.44a.68.68,0,0,1-.22.94A.65.65,0,0,1,234.7,276.79Z" transform="translate(0 -0.52)"/><path class="cls-4" d="M666.78,237.1a.67.67,0,0,1-.62-.41.69.69,0,0,1,.35-.9l.64-.27a.68.68,0,0,1,.89.35.69.69,0,0,1-.35.9l-.64.27A.66.66,0,0,1,666.78,237.1Z" transform="translate(0 -0.52)"/><path class="cls-4" d="M506.81,624.72h-.09l-1-.12a.68.68,0,0,1,.17-1.35l1,.12a.68.68,0,0,1-.09,1.36Z" transform="translate(0 -0.52)"/><path class="cls-4" d="M126.42,399.18a.72.72,0,0,1-.37-.11l-2-1.24a.68.68,0,1,1,.72-1.15l2,1.24a.68.68,0,0,1,.21.94A.69.69,0,0,1,126.42,399.18Z" transform="translate(0 -0.52)"/><path class="cls-4" d="M1.8,499.12a.62.62,0,0,1-.33-.08.69.69,0,0,1-.27-.93l.86-1.53a.68.68,0,1,1,1.19.66l-.86,1.54A.66.66,0,0,1,1.8,499.12Z" transform="translate(0 -0.52)"/><path class="cls-4" d="M321.12,444.23a.69.69,0,0,1-.46-.18l-1.07-1a.67.67,0,0,1,0-1,.68.68,0,0,1,1-.05l1.07,1a.67.67,0,0,1,0,1A.66.66,0,0,1,321.12,444.23Z" transform="translate(0 -0.52)"/><path class="cls-4" d="M751.06,483.69a.63.63,0,0,1-.41-.15l-1.31-1a.68.68,0,0,1,.82-1.08l1.31,1a.67.67,0,0,1,.13.95A.7.7,0,0,1,751.06,483.69Z" transform="translate(0 -0.52)"/><path class="cls-4" d="M69.79,437.32a.68.68,0,0,1-.08-1.36l.86-.11a.68.68,0,1,1,.18,1.35l-.87.11Z" transform="translate(0 -0.52)"/><path class="cls-4" d="M593.19,545.52a.67.67,0,0,1-.49-1.15l1-1.1a.68.68,0,1,1,1,1l-1.05,1.09A.67.67,0,0,1,593.19,545.52Z" transform="translate(0 -0.52)"/><path class="cls-4" d="M275,258.88a.69.69,0,0,1-.36-.11l-.55-.35a.67.67,0,0,1-.21-.93.69.69,0,0,1,.94-.22l.55.35a.69.69,0,0,1,.21.94A.67.67,0,0,1,275,258.88Z" transform="translate(0 -0.52)"/><path class="cls-4" d="M238.19,750.38a.62.62,0,0,1-.29-.07.67.67,0,0,1-.32-.9l.37-.78a.68.68,0,1,1,1.23.58l-.37.78A.68.68,0,0,1,238.19,750.38Z" transform="translate(0 -0.52)"/><path class="cls-4" d="M747.73,752.46h-.13l-1.08-.21a.68.68,0,0,1-.54-.79.69.69,0,0,1,.79-.55l1.09.21a.68.68,0,0,1-.13,1.35Z" transform="translate(0 -0.52)"/><path class="cls-4" d="M627.07,32.43l-.17,0a.67.67,0,0,1-.48-.83l.14-.53a.68.68,0,1,1,1.31.35l-.14.53A.67.67,0,0,1,627.07,32.43Z" transform="translate(0 -0.52)"/><path class="cls-4" d="M500.49,679.18a.68.68,0,0,1-.64-.46.67.67,0,0,1,.42-.86l.49-.17a.68.68,0,0,1,.44,1.29l-.49.16A.57.57,0,0,1,500.49,679.18Z" transform="translate(0 -0.52)"/><path class="cls-4" d="M676.08,751a.69.69,0,0,1-.51-.23.68.68,0,0,1,0-1l.91-.83a.68.68,0,0,1,1,0,.69.69,0,0,1,0,1l-.92.83A.66.66,0,0,1,676.08,751Z" transform="translate(0 -0.52)"/><path class="cls-4" d="M79,401.2a.68.68,0,0,1-.44-.16l-.66-.55a.68.68,0,1,1,.87-1l.67.55a.69.69,0,0,1,.08,1A.67.67,0,0,1,79,401.2Z" transform="translate(0 -0.52)"/><path class="cls-4" d="M329.87,648.19a.68.68,0,0,1-.57-.31l-.34-.52a.69.69,0,0,1,.2-1,.68.68,0,0,1,.94.2l.34.52a.67.67,0,0,1-.19.94A.68.68,0,0,1,329.87,648.19Z" transform="translate(0 -0.52)"/><path class="cls-4" d="M42.4,368.84l-.15,0a.68.68,0,0,1-.52-.81l.41-1.9a.69.69,0,0,1,.81-.52.68.68,0,0,1,.52.81l-.41,1.9A.68.68,0,0,1,42.4,368.84Z" transform="translate(0 -0.52)"/><path class="cls-4" d="M569.34,571.58a.69.69,0,0,1-.67-.53.68.68,0,0,1,.52-.81l.52-.12a.69.69,0,0,1,.81.52.68.68,0,0,1-.52.81l-.52.12Z" transform="translate(0 -0.52)"/><path class="cls-4" d="M96.15,465.12a.68.68,0,0,1-.11-1.35l.61-.1a.69.69,0,0,1,.78.56.68.68,0,0,1-.56.78l-.61.1Z" transform="translate(0 -0.52)"/><path class="cls-4" d="M347.59,271.61a.64.64,0,0,1-.43-.16.68.68,0,0,1-.09-1l1.12-1.33a.68.68,0,0,1,1,.88l-1.12,1.33A.66.66,0,0,1,347.59,271.61Z" transform="translate(0 -0.52)"/><path class="cls-4" d="M605,314.11a.67.67,0,0,1-.58-.33l-.69-1.14a.67.67,0,0,1,.23-.93.68.68,0,0,1,.93.23l.69,1.14a.68.68,0,0,1-.23.93A.64.64,0,0,1,605,314.11Z" transform="translate(0 -0.52)"/><path class="cls-4" d="M365.16,101.53a.68.68,0,0,1-.13-1.35l1-.2a.66.66,0,0,1,.8.53.68.68,0,0,1-.54.8l-1,.2Z" transform="translate(0 -0.52)"/><path class="cls-4" d="M672.15,476.68a.63.63,0,0,1-.3-.07.68.68,0,0,1-.31-.91l.28-.56a.68.68,0,0,1,1.22.61l-.28.56A.69.69,0,0,1,672.15,476.68Z" transform="translate(0 -0.52)"/><path class="cls-4" d="M218.1,594.44a.68.68,0,1,1,0-1.36l2.78,0h0a.69.69,0,0,1,.68.68.67.67,0,0,1-.68.68l-2.79,0Z" transform="translate(0 -0.52)"/><path class="cls-4" d="M387.81,488.48a.7.7,0,0,1-.41-.14l-.5-.39a.68.68,0,1,1,.84-1.07l.49.38a.68.68,0,0,1,.12,1A.67.67,0,0,1,387.81,488.48Z" transform="translate(0 -0.52)"/><path class="cls-4" d="M678.76,382.75a.68.68,0,0,1-.68-.67l0-1.38a.68.68,0,0,1,.67-.69.69.69,0,0,1,.69.66l0,1.39a.68.68,0,0,1-.67.69Z" transform="translate(0 -0.52)"/><path class="cls-4" d="M229.42,312.26a.68.68,0,0,1-.12-1.35l.9-.17a.68.68,0,1,1,.25,1.34l-.9.17Z" transform="translate(0 -0.52)"/><path class="cls-4" d="M648.81,6h-.07l-2.54-.26a.68.68,0,0,1,.14-1.35l2.54.26a.68.68,0,0,1,.61.74A.68.68,0,0,1,648.81,6Z" transform="translate(0 -0.52)"/><path class="cls-4" d="M2.93,135.57a.67.67,0,0,1-.53-.26.68.68,0,0,1,.11-1l1.08-.84a.69.69,0,0,1,1,.11.68.68,0,0,1-.12,1l-1.08.84A.66.66,0,0,1,2.93,135.57Z" transform="translate(0 -0.52)"/><path class="cls-4" d="M198.11,289.86H198a.68.68,0,0,1-.53-.8l.39-1.93a.69.69,0,0,1,.8-.53.68.68,0,0,1,.53.81l-.39,1.92A.67.67,0,0,1,198.11,289.86Z" transform="translate(0 -0.52)"/><path class="cls-4" d="M343.86,162.57a.69.69,0,0,1-.51-.23L342,160.8a.68.68,0,1,1,1-.89l1.35,1.53a.69.69,0,0,1-.07,1A.65.65,0,0,1,343.86,162.57Z" transform="translate(0 -0.52)"/><path class="cls-4" d="M321.54,127.29a.68.68,0,0,1-.36-.1l-.6-.38a.68.68,0,0,1,.71-1.16l.61.38a.68.68,0,0,1,.22.94A.7.7,0,0,1,321.54,127.29Z" transform="translate(0 -0.52)"/><path class="cls-4" d="M449.94,566.12a.65.65,0,0,1-.45-.17.68.68,0,0,1-.06-1l.75-.85a.68.68,0,0,1,1,.91l-.75.84A.69.69,0,0,1,449.94,566.12Z" transform="translate(0 -0.52)"/><path class="cls-4" d="M292.83,574.82a.67.67,0,0,1-.24,0l-.59-.22a.67.67,0,0,1-.41-.87.68.68,0,0,1,.87-.4l.6.21a.69.69,0,0,1,.4.88A.68.68,0,0,1,292.83,574.82Z" transform="translate(0 -0.52)"/><path class="cls-4" d="M710.82,751.32a.69.69,0,0,1-.6-.36.68.68,0,0,1,.28-.92l1.8-1a.69.69,0,0,1,.93.27.68.68,0,0,1-.28.92l-1.8,1A.68.68,0,0,1,710.82,751.32Z" transform="translate(0 -0.52)"/><path class="cls-4" d="M599,441.71a.68.68,0,0,1-.67-.58l-.2-1.26a.69.69,0,0,1,.57-.78.7.7,0,0,1,.78.57l.19,1.26a.68.68,0,0,1-.57.78Z" transform="translate(0 -0.52)"/><path class="cls-4" d="M682.85,10.52a.69.69,0,0,1-.34-.09.68.68,0,0,1-.26-.92l1.45-2.62a.68.68,0,0,1,.93-.26.68.68,0,0,1,.26.92l-1.45,2.62A.69.69,0,0,1,682.85,10.52Z" transform="translate(0 -0.52)"/><path class="cls-4" d="M637.62,300.31h0l-2.06-.12a.68.68,0,0,1,.08-1.36l2.06.12a.68.68,0,0,1,0,1.36Z" transform="translate(0 -0.52)"/><path class="cls-4" d="M714.37,650.93a.67.67,0,0,1-.24,0l-1-.38a.68.68,0,0,1,.48-1.27l1,.38a.68.68,0,0,1-.24,1.31Z" transform="translate(0 -0.52)"/><path class="cls-4" d="M178.77,378.47a.47.47,0,0,1-.16,0,.68.68,0,0,1-.5-.82l.13-.53a.68.68,0,0,1,1.33.32l-.14.53A.67.67,0,0,1,178.77,378.47Z" transform="translate(0 -0.52)"/><path class="cls-4" d="M667.1,280.23a.67.67,0,0,1-.65-.46l-.49-1.4a.68.68,0,0,1,1.29-.45l.49,1.41a.68.68,0,0,1-.42.86A.57.57,0,0,1,667.1,280.23Z" transform="translate(0 -0.52)"/></g></g></g></g></svg>