<svg xmlns="http://www.w3.org/2000/svg" viewBox="0 0 236.38 420.31"><defs><style>.cls-1{fill:#1a2e35;}.cls-2{fill:#ffbf9d;}.cls-3{fill:#ff9a6c;}.cls-4{fill:#375a64;}.cls-5{fill:#fff;}.cls-6{fill:#ff735d;}.cls-7{opacity:0.3;}.cls-8{fill:#855a4c;}.cls-9{fill:#1d262d;}.cls-10{fill:#564242;}</style></defs><title>Recurso 2</title><g id="Capa_2" data-name="Capa 2"><g id="Peronsaje"><path class="cls-1" d="M28.3,236.62a6,6,0,0,1,2.82-4.68C56.18,215.36,75.06,178.61,77,147.5c.05-1.77.11-3.57.17-5.38v0h0c1.44-44.49,8-98.44,13.87-112.82,10.87-26.56,47.65-29,47.65-29,48.84-3.5,57.56,34,62.49,68.2C204.2,89.69,216,165.61,216,165.61l-9,3.48c-10.58,31.33-34.39,56.67-65.34,68.33-9,3.39-16.62,4.75-20.2,1.83a122.72,122.72,0,0,1-51.39,31.2c-7.89,2.4-16.15,4-24.36,3.24-5.33-.5-11-2.26-14.13-6.57a12.25,12.25,0,0,1,10.51-19.5C40.28,241.61,28.1,243.38,28.3,236.62Z"/><path class="cls-2" d="M132.15,14l3.06-2.91,33,13.3a9.23,9.23,0,0,1,8.7,8.93l-.29,107.57c0,7.29-1.42,13.61-5.83,19.43l-4.63,6.12c-10.57,14-32.32,12.81-40.69-2.57a11.43,11.43,0,0,1-1.17-2.78,20.23,20.23,0,0,1-.49-2.41c-1-8.65-1-16.16-1-16.16-.59-9.5-.78-13.4-.79-13.31S101.78,126.93,96.32,101C93.6,88.06,94.11,70.3,94.87,52.82,95.93,28.63,112.71,14,132.15,14Z"/><path class="cls-3" d="M122,129.25a66.72,66.72,0,0,0,34.58-11.1s-7.9,18.55-34.22,17.41Z"/><path class="cls-1" d="M139,100.51c-.59,0-.4,3.91-3.62,6.86s-7.41,2.73-7.41,3.28c0,.25,1,.71,2.74.67a9.72,9.72,0,0,0,6.19-2.51,8.46,8.46,0,0,0,2.78-5.75C139.72,101.42,139.24,100.47,139,100.51Z"/><path class="cls-1" d="M176.27,79.26s-18.5,5.76-29-39.89c-3.58-15.6-18.05-28.24-18.05-28.24l5.87-1.77S171.6,19.64,172.21,20.1,181.42,39,181.42,39Z"/><path class="cls-2" d="M171.71,77.56c-.09-1.94,1.93-6.65,3.84-7,5.1-1.06,14.38-1.11,15.12,11.94,1,17.83-17.1,15.17-17.16,14.66S172,84.29,171.71,77.56Z"/><path class="cls-3" d="M178.58,90c.07-.06.32.2.86.42a3.13,3.13,0,0,0,2.32-.09c1.85-.8,3.26-3.88,3.17-7.1a10.48,10.48,0,0,0-1.12-4.4,3.6,3.6,0,0,0-2.48-2.25,1.58,1.58,0,0,0-1.78,1c-.21.51-.08.86-.17.89s-.4-.27-.3-1a2,2,0,0,1,.64-1.16,2.38,2.38,0,0,1,1.69-.55,4.39,4.39,0,0,1,3.4,2.58,10.56,10.56,0,0,1,1.36,4.91c.09,3.6-1.56,7.07-4.09,8a3.33,3.33,0,0,1-2.87-.31C178.63,90.47,178.52,90.08,178.58,90Z"/><path class="cls-1" d="M163.73,70.53a22.85,22.85,0,0,1-2.68-.53,16.23,16.23,0,0,1-6.35-3.69,22.28,22.28,0,0,1-3.31-3.88,29.27,29.27,0,0,1-2.69-5.21,111.52,111.52,0,0,1-3.85-13,135,135,0,0,0-4.1-12.95,73.86,73.86,0,0,0-4.65-10.08A54.83,54.83,0,0,0,132,15c-.53-.7-1-1.22-1.28-1.58a4.73,4.73,0,0,0-.47-.52,2.94,2.94,0,0,0,.4.58c.26.38.7.91,1.2,1.63a59.56,59.56,0,0,1,3.94,6.32,78.15,78.15,0,0,1,4.53,10.07c1.46,3.9,2.81,8.28,4.06,12.92a105.63,105.63,0,0,0,3.89,13,30,30,0,0,0,2.77,5.27,22.18,22.18,0,0,0,3.42,3.91A15.83,15.83,0,0,0,161,70.17,9.75,9.75,0,0,0,163.73,70.53Z"/><path class="cls-4" d="M188.1,146.63a4.4,4.4,0,0,0,.19-.86c.12-.63.26-1.47.45-2.54l1.61-9.68-.43-.06c-.09.65-.19,1.37-.29,2.11v-.07l-.37.8.45.17a172.16,172.16,0,0,0,5.72-28.71,177,177,0,0,0,1.09-18.58c-.07-6.52,0-13.44-1.77-20.36a32.22,32.22,0,0,0-3.24-8.09,44.74,44.74,0,0,0-4.93-6.87c-3.63-4.19-7.54-7.79-11.1-11.37L156.34,23.68,143.38,11l-3.55-3.41-.94-.87a1.84,1.84,0,0,0-.34-.28,1.84,1.84,0,0,0,.28.34l.88.93c.83.85,2,2,3.45,3.52l12.77,12.83,19,19c3.55,3.6,7.45,7.22,11,11.36a35.13,35.13,0,0,1,8,14.65c1.71,6.76,1.68,13.66,1.76,20.15a179,179,0,0,1-1,18.5,179.67,179.67,0,0,1-5.46,28.65l.45.17.36-.81v-.06c.09-.75.18-1.46.26-2.11l-.43-.07c-.6,4.15-1.07,7.42-1.4,9.72-.15,1.07-.26,1.92-.34,2.55A5.29,5.29,0,0,0,188.1,146.63Z"/><path class="cls-4" d="M202.14,64.18a2.75,2.75,0,0,0-.31-.75l-1-2.1c-.9-1.81-2.33-4.39-4.2-7.5s-4.25-6.73-7.06-10.63-6.13-8-9.83-12.14-7.49-7.83-11-11.07-6.92-6-9.82-8.14-5.3-3.89-7-5l-2-1.25a3.94,3.94,0,0,0-.72-.4s.2.21.62.53l1.89,1.38c1.65,1.17,4,2.93,6.84,5.17s6.13,5,9.66,8.24,7.23,7,10.94,11.06,7,8.22,9.83,12,5.25,7.41,7.17,10.48,3.42,5.59,4.41,7.35l1.17,2A3.58,3.58,0,0,0,202.14,64.18Z"/><path class="cls-5" d="M181.71,139.88c-.62-.9-4.78-8.93-4.78-8.93l-23.58,20.33s-23.11,19.36-23.11,18.1l-3.69-18.62L122,133.82l-8.48,12.81S86.88,198.87,86.88,199.5s-16.49,54.69-16.49,54.69l3.55,21.91.42,77.66L124,351.67,133.85,336l16.91-99.57Z"/><polygon class="cls-1" points="126.05 337.04 71.23 337.04 55.07 420.31 164.9 420.31 126.05 337.04"/><path class="cls-6" d="M190.7,152.84l32,12L193.15,296.48s1.74,35.56,8,53.69,21.06,70.14,21.06,70.14h-98.3s-4.18-71.43-2.52-96.93,1-73.62,10.73-98.72,49-86.77,49-86.77Z"/><path class="cls-6" d="M120.56,135.29l-14.51,12-39.81,5.93S47.4,221.45,50.88,248.3s-1.37,73.28-1.37,73.28L32.05,420.31H70.39S81.32,304.85,82,306.24s2.75-56.48,6.93-75.3,25.25-77.76,25.25-77.76Z"/><path class="cls-6" d="M16,305.2S0,297.88,0,283.58s9.76-34.51,11.85-42.18,49.51-89.25,54.39-88.21l4.88,1.05L46,264.41l34.17,8.36-14.58,42Z"/><path class="cls-2" d="M65,269.6l-7-22.77-1.21-15.52-16.56-11s-4.44.52-3.06,4,8.09,9.64,8.09,9.64l4,11.05L42.7,233.72l-9.4-4.65-9.3.69s-1.72,4.13,2.58,4.3h4.65l7.06,5.69,4.41,10.67-6.65-10.33-9.81-3.49L20,238.2s-1.72,2.75,1.38,3.1,5.16.34,5.16.34l5.68,3.3,5,10.47-8.78-7.23-11.37-1.35s-1.89,2.73,1,3.76,8.78,4.14,8.78,4.14l6.37,7.74Z"/><path class="cls-1" d="M121,337a2.86,2.86,0,0,0,.16-.51c.11-.39.24-.9.41-1.53l1.47-5.9c1.28-5.17,3.1-12.57,5.36-21.69s5-20.06,8.09-32.14c1.56-6,3.21-12.37,5-18.9q1.33-4.92,2.84-10c.5-1.67,1.07-3.34,1.61-5A43,43,0,0,1,148,236.5c5.85-11.78,11.85-22.87,17.26-33.1s10.45-19.51,14.76-27.56l.11-.21-.17-.16c-1.1-1-2.17-1.9-3.25-2.78a17.25,17.25,0,0,0-1.68-1.23,1.17,1.17,0,0,0-.25-.14l-.15-.06c-.06,0,0,0,0,0s0,0,.09.12a.27.27,0,0,1-.07.3.3.3,0,0,1-.08.05h0l.43,0h1c2.59,0,5,0,7.28,0h.17l.06-.16c2.28-5.89,4.09-10.56,5.34-13.81.6-1.57,1.06-2.8,1.39-3.68l.34-1c.07-.21.11-.32.09-.33a1.55,1.55,0,0,0-.15.31c-.11.24-.24.54-.4.92l-1.5,3.63c-1.31,3.23-3.19,7.88-5.55,13.74l.22-.16c-2.26-.05-4.69-.11-7.3-.12h-1a4,4,0,0,0-.55,0l-.07,0s0,0-.09.06a.31.31,0,0,0-.08.31c.1.17.08.1.1.13a1,1,0,0,0,.16.07l.08,0a1.8,1.8,0,0,1,.18.1,15.51,15.51,0,0,1,1.6,1.2c1.06.87,2.13,1.81,3.21,2.79l-.07-.38c-4.34,8-9.38,17.32-14.89,27.49s-11.45,21.29-17.32,33.1a45.34,45.34,0,0,0-2.09,5c-.54,1.7-1.11,3.38-1.61,5.06-1,3.36-2,6.69-2.84,10-1.8,6.55-3.44,12.89-5,18.94-3.07,12.09-5.73,23-7.92,32.18L122.74,329c-.56,2.54-1,4.52-1.32,5.93-.14.64-.25,1.16-.33,1.55A2.68,2.68,0,0,0,121,337Z"/><path class="cls-1" d="M70.39,259.61a7.05,7.05,0,0,0,0-1.22c0-.88-.11-2.05-.19-3.51,0-.76-.1-1.61-.16-2.52s0-1.94,0-3c0-2.16,0-4.62.16-7.34a152.72,152.72,0,0,1,8.26-41.51A143,143,0,0,1,85.14,184v0h0a143.06,143.06,0,0,1,7.73-15.07c2.55-4.43,4.91-8.3,6.88-11.49l4.66-7.46,1.24-2a3.17,3.17,0,0,0,.39-.72,4.85,4.85,0,0,0-.5.64l-1.35,1.93c-1.16,1.69-2.82,4.17-4.85,7.34s-4.44,7-7,11.42a136.61,136.61,0,0,0-7.88,15.1l0,0a139.2,139.2,0,0,0-6.78,16.58A146.82,146.82,0,0,0,69.61,242c-.18,2.73-.09,5.2,0,7.36,0,1.08.05,2.09.07,3s.16,1.77.23,2.54c.14,1.45.26,2.62.34,3.49A6.3,6.3,0,0,0,70.39,259.61Z"/><path class="cls-1" d="M14.86,304.59a6.44,6.44,0,0,0,1,.27l2.86.66,10.81,2.36,37.77,8,.33.07.11-.32C70.9,306.28,74.38,296,78,285.22c1.29-3.84,2.57-7.62,3.78-11.21l.15-.42-.44-.1-28.42-6.68L40.87,264l-5.52-1.28a26.16,26.16,0,0,0-5.18-.89,19.52,19.52,0,0,0-8.77,1.78,22.12,22.12,0,0,0-5.62,3.68A19,19,0,0,0,13,270.37l-.61.92a1.21,1.21,0,0,0-.18.32A26.89,26.89,0,0,1,16,267.46a22.55,22.55,0,0,1,5.6-3.51,19.33,19.33,0,0,1,8.57-1.64,25.24,25.24,0,0,1,5.06.93l5.51,1.33,12.23,2.93,28.41,6.77-.29-.52c-1.22,3.59-2.5,7.37-3.79,11.21C73.63,295.74,70.16,306,67,315.41l.44-.25L29.6,307.43l-10.85-2.15-2.89-.54A6.32,6.32,0,0,0,14.86,304.59Z"/><polygon class="cls-6" points="199.54 359.28 147.21 364.09 156.21 380.11 211.34 374.72 199.54 359.28"/><path class="cls-1" d="M199.54,359.28a1.22,1.22,0,0,0,.19.3l.58.83,2.29,3.11,8.52,11.37.2-.44-53.2,5.06-2,.19.4.21-9-16-.31.59,37.43-3.6,10.9-1.12,2.93-.32a9.21,9.21,0,0,0,1-.16,6,6,0,0,0-1,0l-2.89.21-10.87.88-37.63,3.3-.6.05.3.53,9,16,.13.23.26,0,1.95-.19L211.37,375l.5-.05-.31-.4-8.8-11.29-2.38-3A10,10,0,0,0,199.54,359.28Z"/><polygon class="cls-6" points="58.64 364.66 50.46 380.11 32.88 376.51 42.2 362.28 58.64 364.66"/><path class="cls-1" d="M58.64,364.66a5.59,5.59,0,0,0-1.09-.23l-3.27-.56c-2.84-.48-7-1.18-12-1.94l-.22,0-.12.19-9.37,14.2-.33.5.59.12.88.18,16.71,3.36.26.06.12-.24c2.47-4.73,4.46-8.69,5.82-11.41l1.56-3.14a8.5,8.5,0,0,0,.49-1.06,13.17,13.17,0,0,0-.69,1.15L56.19,369c-1.5,2.69-3.6,6.46-6,11l.38-.18-16.69-3.47-.88-.17.26.62,9.27-14.27-.34.15c4.86.67,8.93,1.16,11.83,1.52l3.39.4C58.17,364.63,58.61,364.67,58.64,364.66Z"/><g class="cls-7"><polygon points="204.95 375.35 207.13 380.11 152.75 385.09 148.7 366.75 156.21 380.11 204.95 375.35"/></g><g class="cls-7"><path d="M193.75,304.79s-8.54,17.88-19.63,23.12c-15.12,7.15-53,2.48-53,2.48l-.1-10.86L164.9,322Z"/></g><path class="cls-6" d="M220.69,164s15.34,1.05,15.69,41.14-46.72,107.38-54.74,114-17.18,11.08-41.34,7.5c-30.31-4.49-51.4-8.54-51.4-8.54l4.19-36.61,54-2.44,43.92-90.3S205.7,162.26,220.69,164Z"/><g class="cls-7"><path d="M79.91,296.87c5.94-2.48,12.57-2.53,19-2.55l25.59-.06c5.52,0,11.11,0,16.45,1.35s10.5,4.32,13.4,9l13.37,11a88.44,88.44,0,0,1-51.56-3c-4.14-1.54-8.21-3.41-12.57-4.09-11.56-1.82-23.26,4.89-34.76,2.75C68.83,304.88,74,299.35,79.91,296.87Z"/></g><path class="cls-2" d="M166.57,259.61s-10.37,4.11-15.34,5-11,2.81-19,6.05a129.74,129.74,0,0,0-12.67,5.84l-8.07,28.09s13.4,8.43,28.52,8,28.53,4.46,30.47,3.1,2.16-3.74,0-4.82-11.32-2.38-11.32-2.38l-7.91-3.24s27,2.37,29.17,1.29,4.32-2.59,3.46-5a3.4,3.4,0,0,0-3-2.37s5.84.21,5.62-2.16a7.42,7.42,0,0,0-3.24-5c-.86-.44-12.2-5-12.2-5l-14.57-2.9,14-.56,12.23,3.41s4.87.55,3.79-3.56-16-8.64-16-8.64l-19-1.31s14.7-2.15,16.21-6.69S166.57,259.61,166.57,259.61Z"/><polygon class="cls-2" points="119.54 276.47 118.6 276.47 81.49 274.83 70.39 307.23 111.47 304.56 119.54 276.47"/><path class="cls-3" d="M151.92,294.9a33.2,33.2,0,0,0,4.54.35c2.8.17,6.65.49,10.88,1.13s8,1.47,10.72,2.14a31.06,31.06,0,0,0,4.44,1,21.72,21.72,0,0,0-4.29-1.57,81,81,0,0,0-10.75-2.39,80.14,80.14,0,0,0-11-.9A21,21,0,0,0,151.92,294.9Z"/><path class="cls-1" d="M179.71,209.19a11.83,11.83,0,0,0,1.22-1.78c.75-1.16,1.82-2.86,3.2-4.92A180.91,180.91,0,0,1,195.62,187a88.28,88.28,0,0,1,13.69-13.56,71.61,71.61,0,0,1,6.71-4.34,10.57,10.57,0,0,0-2,.82,19.24,19.24,0,0,0-2.23,1.21,25.85,25.85,0,0,0-2.81,1.85,78.1,78.1,0,0,0-14,13.5,143.32,143.32,0,0,0-11.36,15.75c-1.32,2.1-2.32,3.85-3,5.07A10.89,10.89,0,0,0,179.71,209.19Z"/><path class="cls-1" d="M155.67,262.6a8.64,8.64,0,0,0,.84-1.8c.54-1.33,1.22-3,2-5,1.7-4.23,4.09-10,6.85-16.41s5.41-12.07,7.34-16.19l2.28-4.89a9.22,9.22,0,0,0,.75-1.84,9.13,9.13,0,0,0-1,1.7c-.62,1.11-1.48,2.74-2.52,4.78-2.06,4.06-4.78,9.74-7.56,16.12s-5.08,12.24-6.64,16.52c-.79,2.14-1.4,3.88-1.79,5.09A9.29,9.29,0,0,0,155.67,262.6Z"/><path class="cls-1" d="M130.67,169.67a4.2,4.2,0,0,0,.94-.42l2.54-1.34,9-5-.53-.26c.44,4,1.18,8.75,1.92,13.77.3,2,.59,4,.82,5.94l.09.74.56-.48c4.8-4.08,9-7.68,11.93-10.27l3.46-3.07a7.52,7.52,0,0,0,1.18-1.19,8.39,8.39,0,0,0-1.36,1l-3.61,2.9c-3.05,2.48-7.29,6-12.11,10l.65.26c-.22-1.92-.5-3.92-.8-6-.74-5-1.52-9.73-2-13.73l-.06-.54-.46.27L134,167.55l-2.45,1.52C130.94,169.43,130.65,169.63,130.67,169.67Z"/><path class="cls-1" d="M117,146.63a11.12,11.12,0,0,0-.07,2.13c0,1.52.06,3.46.11,5.78.12,4.88.35,11.63.65,19.07,0,.19,0,.37,0,.55l0,1.3.7-1.1,8.92-14.07-.56-.07,2.45,6.72a13.65,13.65,0,0,0,1,2.44,14.63,14.63,0,0,0-.69-2.55c-.57-1.77-1.31-4.06-2.19-6.81l-.2-.62-.36.55-9.08,14,.75.2c0-.18,0-.36,0-.54-.3-7.45-.62-14.19-.89-19.06-.14-2.32-.27-4.25-.36-5.78A10.54,10.54,0,0,0,117,146.63Z"/><path class="cls-1" d="M67.89,168.28a6.21,6.21,0,0,0,1.24-.66L69,167.5C68,171,65.17,182.44,62,196c-1.92,8.27-3.62,15.77-4.82,21.21l-1.36,6.44a14.45,14.45,0,0,0-.4,2.39,12.94,12.94,0,0,0,.7-2.31c.42-1.66,1-3.8,1.63-6.39,1.33-5.41,3.12-12.88,5.05-21.15,3.16-13.58,5.71-25.07,6.37-28.65l0-.29-.23.16C68.22,168,67.86,168.24,67.89,168.28Z"/><path class="cls-1" d="M117,322.82a6.25,6.25,0,0,0,1,.31l2.8.76c2.44.63,6,1.46,10.42,2.28a130.21,130.21,0,0,0,15.73,1.9,73.12,73.12,0,0,0,19.36-1.29,39.24,39.24,0,0,0,9.53-3.33,35.34,35.34,0,0,0,4.13-2.49,29.41,29.41,0,0,0,3.4-3.15,126.12,126.12,0,0,0,9.79-12.46c2.6-3.68,4.59-6.73,5.95-8.85l1.53-2.47a5.08,5.08,0,0,0,.48-.89,3.94,3.94,0,0,0-.62.8l-1.66,2.38c-1.43,2.07-3.5,5.06-6.15,8.69a132.32,132.32,0,0,1-9.87,12.28,28.21,28.21,0,0,1-3.31,3,32.84,32.84,0,0,1-4,2.4,38.21,38.21,0,0,1-9.34,3.25,74.07,74.07,0,0,1-19.15,1.34,137.35,137.35,0,0,1-15.66-1.72c-4.43-.74-8-1.48-10.45-2L118,323A4,4,0,0,0,117,322.82Z"/><g class="cls-7"><polygon points="189.24 156.55 185.09 176.24 181.71 174.14 183.66 178.82 141.29 255.66 146.79 238.11 179.77 175.7 174.55 171.52 183.32 171.52 189.24 156.55"/></g><path class="cls-2" d="M123.78,93.28s-9.09,2.78-12.38.93,3.07-14.06,7-21.86"/><path class="cls-8" d="M123.78,93.28a30.48,30.48,0,0,1-8.94,2,10.7,10.7,0,0,1-2.38-.18,4.55,4.55,0,0,1-1.19-.41,2.07,2.07,0,0,1-1-1,5,5,0,0,1-.25-2.51,14.45,14.45,0,0,1,.49-2.3,49.27,49.27,0,0,1,3.5-8.48c1.36-2.73,2.82-5.39,4.35-8-1.19,2.8-2.47,5.56-3.69,8.33a73.76,73.76,0,0,0-3.2,8.44,14.64,14.64,0,0,0-.44,2.15,4.15,4.15,0,0,0,.14,2,1.09,1.09,0,0,0,.55.57,4,4,0,0,0,1,.35,9.45,9.45,0,0,0,2.15.24,26,26,0,0,0,4.47-.34C120.8,93.86,122.29,93.59,123.78,93.28Z"/><path class="cls-9" d="M133.94,68.59c.11,4.23,2.05,7.6,4.35,7.55s4.08-3.53,4-7.75-2.05-7.6-4.35-7.55S133.84,64.37,133.94,68.59Z"/><path class="cls-9" d="M101.5,69.38c.1,4.22,2,7.6,4.35,7.55s4.08-3.53,4-7.75-2-7.6-4.34-7.55S101.4,65.16,101.5,69.38Z"/><path class="cls-10" d="M148.81,49.05s-10-10.47-19.6,2.53A43.4,43.4,0,0,1,148.81,49.05Z"/><path class="cls-10" d="M115.44,53.29s-10-10.47-19.61,2.53A43.43,43.43,0,0,1,115.44,53.29Z"/></g></g></svg>