<svg xmlns="http://www.w3.org/2000/svg" viewBox="0 0 22.09 25.11"><defs><style>.cls-1{isolation:isolate;}.cls-2{fill:#231f20;}.cls-3{fill:#b0161c;}.cls-4{fill:#ea1d25;}.cls-5{fill:#ee4a51;mix-blend-mode:overlay;}.cls-6,.cls-8{fill:#fff;}.cls-6,.cls-7{opacity:0.2;mix-blend-mode:screen;}</style></defs><title>Recurso 4</title><g class="cls-1"><g id="Capa_2" data-name="Capa 2"><g id="Respuesta02"><polygon class="cls-2" points="15.94 19.5 22.09 25.11 17.77 18.47 15.94 19.5"/><path class="cls-3" d="M20,11.83c1.64,2.85.19,6.88-3.23,9s-7.52,1.53-9.16-1.32-.18-6.88,3.24-9S18.39,9,20,11.83Z"/><path class="cls-4" d="M17.15,9.75c-2.61-2-4.19-1.46-4.94-1.94C11.27,7.21,9,1.34,9,1.34,4.4.43,1.69,7.84,1.69,7.84c2.61,3.35,4.42,2.74,4.55,5.36a12.42,12.42,0,0,0,1,3.39,4.68,4.68,0,0,0,.59,2,4.36,4.36,0,0,0,.93,1.11h0c1.79,1.57,4.81,1.68,7.4.07,3.11-1.93,4.43-5.6,2.94-8.2A4.45,4.45,0,0,0,17.15,9.75Z"/><path class="cls-3" d="M9.81,1.68c1.12,2-.08,4.85-2.67,6.46S1.54,9.47.42,7.51a2.7,2.7,0,0,1-.27-.66C-.44,5,.76,2.48,3.07,1s5-1.36,6.31.08A2.38,2.38,0,0,1,9.81,1.68Z"/><path class="cls-5" d="M9.27,1.34c.61,1.91-.5,4.35-2.72,5.73S1.74,8.31.41,6.84C-.2,4.93.91,2.49,3.13,1.11S8-.13,9.27,1.34Z"/><path class="cls-6" d="M11.3,20.17l.62,0,.7,0a8.87,8.87,0,0,0,.9-.13,3.22,3.22,0,0,0,.5-.11,3.63,3.63,0,0,0,.54-.15,10,10,0,0,0,1.11-.45,6.58,6.58,0,0,0,1.09-.68,4.06,4.06,0,0,0,.51-.42l.25-.23.23-.25a7,7,0,0,0,.79-1.08c.12-.19.2-.4.3-.59s.16-.41.22-.61.12-.42.15-.62.07-.4.07-.6a5.61,5.61,0,0,0,0-.58c0-.18,0-.36-.05-.53s-.06-.34-.1-.49-.08-.29-.12-.43-.21-.48-.28-.67L18.41,11s.13.19.34.53a5.38,5.38,0,0,1,.31.67,3.58,3.58,0,0,1,.15.43l.11.49a4.58,4.58,0,0,1,.07.55,5.71,5.71,0,0,1,0,.59c0,.2,0,.41-.06.62s-.09.41-.13.63-.15.42-.23.63-.19.42-.3.61a6.39,6.39,0,0,1-.81,1.12l-.24.26-.25.23a5.52,5.52,0,0,1-.53.43,7.28,7.28,0,0,1-1.12.68,8,8,0,0,1-1.14.43,3.91,3.91,0,0,1-.54.14,3.39,3.39,0,0,1-.52.1,8.21,8.21,0,0,1-.91.09h-.71Z"/><g class="cls-7"><path class="cls-8" d="M5.78,10.92l.29.25c.08.1.18.22.28.36a4.36,4.36,0,0,1,.27.53c.08.2.15.43.22.67s.13.49.19.75.13.52.2.8.17.53.26.8.2.53.3.79.23.5.34.73.24.46.36.67l.36.59c.12.17.23.33.32.48s.19.25.26.35l.24.32-.27-.28a3.39,3.39,0,0,1-.3-.33l-.37-.46-.39-.56c-.14-.21-.27-.43-.4-.67s-.24-.49-.37-.74-.22-.53-.32-.8-.18-.56-.24-.83-.14-.55-.19-.81-.11-.52-.16-.76a3.83,3.83,0,0,0-.18-.65,4.07,4.07,0,0,0-.21-.54c-.08-.15-.17-.27-.23-.37Z"/></g></g></g></g></svg>