<svg xmlns="http://www.w3.org/2000/svg" viewBox="0 0 753.66 756.7"><defs><clipPath id="clip-path" transform="translate(0 -.52)"><path fill="none" d="M753.66 0v458.23L0 460.94V0h753.66z"/></clipPath><style>.cls-4{fill:#606060}</style></defs><g id="Capa_2" data-name="Capa 2"><g opacity=".2" clip-path="url(#clip-path)" id="Pleca01"><path class="cls-4" d="M659.74 441.29a1 1 0 01-.23 0 .69.69 0 01-.41-.87l10.14-28.21a.69.69 0 01.87-.41.68.68 0 01.41.87l-10.13 28.21a.7.7 0 01-.65.41zM338.69 606.31a.68.68 0 01-.64-.46l-3.64-10.62a.68.68 0 111.29-.44l3.63 10.62a.66.66 0 01-.42.86.57.57 0 01-.22.04zm308.58-486.75a.68.68 0 01-.29-1.29l14.1-6.71a.67.67 0 01.91.32.69.69 0 01-.32.91l-14.11 6.7a.59.59 0 01-.29.07zM204.2 58a.7.7 0 01-.55-.28l-8.35-11.56a.68.68 0 01.15-.95.67.67 0 011 .15l8.36 11.56a.68.68 0 01-.16.95.73.73 0 01-.45.13zm392.99 578.06a.68.68 0 01-.66-.7l1.37-42.54a.7.7 0 01.7-.66.69.69 0 01.66.7l-1.37 42.54a.68.68 0 01-.7.66zM242.26 401.52a.67.67 0 01-.57-.32.68.68 0 01.21-.94l34.84-22a.68.68 0 01.94.21.69.69 0 01-.21.94l-34.84 22a.7.7 0 01-.37.11zM751.22 23.8a.68.68 0 01-.68-.61L749.15 9a.69.69 0 01.61-.75.7.7 0 01.75.61l1.39 14.19a.68.68 0 01-.61.74zM6.24 585.39a.82.82 0 01-.3-.07.68.68 0 01-.3-.92L11.9 572a.68.68 0 01.91-.3.69.69 0 01.3.92L6.85 585a.68.68 0 01-.61.39zM212.5 471.53l-40.8-2.08a.68.68 0 01-.65-.71.65.65 0 01.72-.65l40.8 2.09a.67.67 0 01.65.71.69.69 0 01-.72.64zm323.33 157.02a.7.7 0 01-.59-.35.68.68 0 01.26-.92L566 610a.67.67 0 01.92.26.68.68 0 01-.25.93l-30.48 17.31a.69.69 0 01-.36.05zM378.52 375a.64.64 0 01-.33-.08l-8.06-4.49a.68.68 0 01-.27-.92.69.69 0 01.93-.27l8.06 4.49a.67.67 0 01.26.92.65.65 0 01-.59.35zM216.77 85.77a.68.68 0 01-.67-.55.69.69 0 01.53-.8l11.37-2.3a.68.68 0 11.27 1.33l-11.34 2.3zM448.37 419a.64.64 0 01-.35-.1.68.68 0 01-.24-.93l7.4-12.59a.68.68 0 011.17.69L449 418.68a.66.66 0 01-.63.32zm188.51 178.82a.64.64 0 01-.35-.1.69.69 0 01-.23-.94l21.29-34.65a.66.66 0 01.93-.23.69.69 0 01.23.94l-21.29 34.65a.68.68 0 01-.58.33zM347.27 481.28a.67.67 0 01-.57-1l21.9-34.47a.68.68 0 111.15.73L347.84 481a.66.66 0 01-.57.28zM60.87 81.81a.77.77 0 01-.25 0 .69.69 0 01-.38-.89l11.85-30a.68.68 0 011.27.5l-11.85 30a.69.69 0 01-.64.39zm457.06 255.51a.72.72 0 01-.5-.22.69.69 0 010-1l8.14-7.53a.69.69 0 011 0 .67.67 0 010 1l-8.13 7.53a.69.69 0 01-.51.22zm-5.57-296.17a.7.7 0 01-.43-.15l-26.46-21a.67.67 0 01-.11-.95.68.68 0 011-.11l26.46 21a.68.68 0 01-.42 1.21zM400.19 13.66a.63.63 0 01-.19 0 .68.68 0 01-.46-.85l3.34-11.16a.69.69 0 01.85-.45.67.67 0 01.46.84l-3.34 11.16a.68.68 0 01-.66.46zm349.9 391.28a.68.68 0 01-.61-.38L740.09 386a.68.68 0 111.21-.61l9.39 18.61a.67.67 0 01-.3.91.64.64 0 01-.3.03zM583.94 114.8a.68.68 0 01-.5-1.14l9.18-10a.68.68 0 111 .92l-9.18 10a.72.72 0 01-.5.22zm21.86 633.07a.68.68 0 01-.5-.22l-34.4-37.46a.68.68 0 010-1 .69.69 0 011 0l34.4 37.46a.68.68 0 01-.5 1.14zm3.34-59.15a.68.68 0 01-.41-.14l-40.28-30a.7.7 0 01-.14-1 .68.68 0 011-.14l40.28 30a.68.68 0 01-.4 1.23zM27.27 57.57a.78.78 0 01-.22 0L2 49.1a.69.69 0 01-.42-.87.68.68 0 01.86-.42l25 8.44a.68.68 0 01-.21 1.32zM308 752a.66.66 0 01-.3-.07.67.67 0 01-.31-.91l18.81-38.63a.68.68 0 01.91-.32.69.69 0 01.31.91l-18.81 38.64a.68.68 0 01-.61.38zm119.46-355.87a.67.67 0 01-.65-.47l-10.43-32.79a.69.69 0 01.45-.86.69.69 0 01.85.44l10.43 32.79a.69.69 0 01-.45.86.64.64 0 01-.2.03zM531.8 589.24h-.11a.69.69 0 01-.57-.78l2-12.34a.68.68 0 111.34.22l-2 12.34a.68.68 0 01-.66.56zM94.86 16.4a.68.68 0 01-.65-.49l-2.73-9a.68.68 0 111.3-.4l2.73 9a.68.68 0 01-.46.85.63.63 0 01-.19.04zm474.05 338.19a.67.67 0 01-.68-.63l-3.9-52.41a.68.68 0 01.62-.73.67.67 0 01.73.63l3.91 52.41a.7.7 0 01-.63.73zM511.8 380.3a.68.68 0 01-.1-1.35l37.15-5.36a.68.68 0 01.19 1.35l-37.14 5.36zM392.81 162.7a.65.65 0 01-.45-.17l-29.3-25.74a.68.68 0 01.9-1l29.3 25.75a.68.68 0 01-.45 1.19zm-75.39 97.64a.68.68 0 01-.6-.36L305 238.33a.68.68 0 111.2-.66l11.8 21.66a.69.69 0 01-.28.93.72.72 0 01-.3.08zM186.37 556.68a.68.68 0 010-1.36l19.49-.36a.68.68 0 110 1.36l-19.49.36zM683.58 319a.67.67 0 01-.6-.36l-5.15-9.64a.68.68 0 01.28-.92.67.67 0 01.92.28l5.15 9.71a.69.69 0 01-.28.92.66.66 0 01-.32.01zM165.09 517.12a.68.68 0 01-.26-1.31l9.45-3.9a.67.67 0 01.89.37.69.69 0 01-.37.89l-9.45 3.9a.58.58 0 01-.26.05zm525.62-308.76a.72.72 0 01-.37-.11l-45.18-28.95a.68.68 0 01.74-1.15l45.18 28.95a.68.68 0 01.2.94.67.67 0 01-.57.32zm-413.94 6.89a.75.75 0 01-.26-.05L261 208.83a.68.68 0 11.51-1.25l15.49 6.36a.68.68 0 01-.26 1.31zm472.52 425.82a1 1 0 01-.24 0l-10.22-3.86a.68.68 0 01.48-1.28l10.23 3.86a.69.69 0 01.39.88.68.68 0 01-.64.4zM210.94 379a.72.72 0 01-.44-.16.68.68 0 01-.08-1l7.74-9.15a.68.68 0 111 .88l-7.74 9.15a.69.69 0 01-.48.28zm490.43-100.06a.69.69 0 01-.6-.37l-10.66-20.34a.68.68 0 011.21-.63L702 277.94a.68.68 0 01-.28.92.72.72 0 01-.35.08zM712.36 719a.68.68 0 01-.68-.64L709.76 686a.69.69 0 01.64-.72.67.67 0 01.72.64l1.88 32.31a.69.69 0 01-.64.72zM567 431.44a.7.7 0 01-.37-.11l-29.21-19a.69.69 0 01-.2-.94.68.68 0 01.94-.2l29.21 19a.68.68 0 01-.37 1.25zM10.77 627.26a.7.7 0 01-.45-.17L2 619.77a.68.68 0 01-.06-1 .67.67 0 011-.06l8.28 7.31a.69.69 0 01-.45 1.2zM430.8 280.44a.68.68 0 01-.64-.45l-5.93-16.33a.68.68 0 111.28-.46l5.93 16.33a.68.68 0 01-.41.87.66.66 0 01-.23.04zm51.06 426.06a.85.85 0 01-.26 0l-21.76-9a.68.68 0 01.53-1.25l21.75 9a.67.67 0 01.37.89.68.68 0 01-.63.36zm70.02-664.01h-.15a.67.67 0 01-.51-.81l7.39-33.34a.68.68 0 111.33.29L552.54 42a.68.68 0 01-.66.49zm-423.27 79.09a.68.68 0 01-.36-1.25l8.5-5.31a.69.69 0 01.94.22.68.68 0 01-.22.94l-8.5 5.3a.65.65 0 01-.36.1zM706.12 362.3a.7.7 0 01-.44-.17l-8-6.75a.68.68 0 01-.08-1 .69.69 0 011-.08l8 6.76a.67.67 0 01.08.95.68.68 0 01-.56.29zm-83.53 291.8a.68.68 0 01-.45-1.2l33.62-28.9a.69.69 0 011 .07.68.68 0 01-.07 1L623 653.93a.7.7 0 01-.41.17zM346.6 519.32a.68.68 0 01-.66-.51.67.67 0 01.49-.82l11.6-3a.68.68 0 01.35 1.31l-11.61 3a.5.5 0 01-.17.02zm-13.89 43.62a.68.68 0 01-.28-1.3l9.13-4.06a.69.69 0 01.9.34.68.68 0 01-.35.9l-9.11 4.07a.92.92 0 01-.29.05zM639.86 747.2a.67.67 0 01-.66-.53l-6.63-28.32a.68.68 0 011.32-.31l6.63 28.32a.68.68 0 01-.51.82zM144.28 240.06a.7.7 0 01-.37-.11l-11.15-7.12a.68.68 0 01.74-1.14l11.14 7.12a.68.68 0 01-.36 1.25zm310.45 425.48a.68.68 0 01-.35-1.26l29.83-17.65a.68.68 0 01.93.24.67.67 0 01-.24.93l-29.83 17.65a.67.67 0 01-.34.09zm92.55-570.83a.69.69 0 01-.49-1.16l12.33-12.47a.68.68 0 111 1l-12.36 12.43a.69.69 0 01-.48.2zM286.76 343.45a.68.68 0 01-.36-.1.69.69 0 01-.23-.94l4.79-7.89a.68.68 0 011.17.71l-4.79 7.89a.68.68 0 01-.58.33zm40.98 27.62a.78.78 0 01-.22 0l-9.52-3.16a.68.68 0 11.42-1.29l9.56 3.12a.68.68 0 01.43.86.67.67 0 01-.67.47zM145.15 751.69a.64.64 0 01-.35-.1l-8-4.78a.69.69 0 01-.24-.94.68.68 0 01.94-.23l8 4.78a.69.69 0 01.23.94.67.67 0 01-.58.33zm300.21-516.61h-.12a.68.68 0 01-.55-.79l2.82-16.29a.67.67 0 01.79-.55.69.69 0 01.55.79L446 234.51a.67.67 0 01-.64.57zM462.3 620.7a.7.7 0 01-.45-.17.68.68 0 01-.06-1L489 588.79a.67.67 0 011-.06.68.68 0 01.06 1l-27.25 30.78a.68.68 0 01-.51.19zM522.5 4h-.08l-9.86-1.24a.68.68 0 11.17-1.35l9.86 1.24A.68.68 0 01522.5 4zm214.66 458.49a.73.73 0 01-.25 0l-48.73-18.77a.68.68 0 01.49-1.27l48.73 18.77a.68.68 0 01.39.88.67.67 0 01-.63.39zM402.74 750.76a.68.68 0 01-.44-.16l-14.07-11.79a.69.69 0 01-.08-1 .67.67 0 011-.08l14.07 11.79a.68.68 0 01.08 1 .66.66 0 01-.56.24zm149.92-513.3h-.08L522.84 234a.68.68 0 01-.6-.75.7.7 0 01.76-.6l29.74 3.44a.69.69 0 01.6.76.7.7 0 01-.68.61zm-231.05-24.2a.68.68 0 01-.66-.51l-13.08-52.13a.68.68 0 111.32-.34l13.08 52.14a.67.67 0 01-.49.82.5.5 0 01-.17.02zM214.83 424.2a.63.63 0 01-.19 0l-41.11-12.09a.68.68 0 11.38-1.3L215 422.87a.68.68 0 01-.19 1.33zm187.69-123.15a.7.7 0 01-.37-.11l-14-9a.68.68 0 01.74-1.15l14 9a.68.68 0 01-.37 1.25zM92 370.06a.68.68 0 01-.54-.27l-26.65-33.86a.67.67 0 01.12-.95.69.69 0 011 .11L92.5 369a.67.67 0 01-.11 1 .66.66 0 01-.39.06zm-39.48-196.4a.65.65 0 01-.65-.87l3.66-12.41a.69.69 0 01.85-.46.68.68 0 01.46.85l-3.67 12.41a.68.68 0 01-.65.48zM236.91 33.69a.69.69 0 01-.48-.2L207.67 5.68a.68.68 0 111-1l28.76 27.82a.67.67 0 010 1 .66.66 0 01-.52.19zm213.2 122a.67.67 0 01-.28-.06L420 142.05a.68.68 0 01.56-1.24l29.86 13.58a.69.69 0 01.34.9.7.7 0 01-.65.4zM135.78 17.33a.67.67 0 01-.65-.47l-3.31-10a.69.69 0 01.44-.86.68.68 0 01.86.44l3.3 10a.68.68 0 01-.43.86zM689 161.72a.69.69 0 01-.11-1.36l9.44-1.46a.68.68 0 11.21 1.34l-9.44 1.47zM40.66 706.8a.68.68 0 01-.13-1.35l13.78-2.66a.68.68 0 01.25 1.34l-13.77 2.66zM51.16 225a.61.61 0 01-.32-.08.67.67 0 01-.28-.92l6.16-11.58a.68.68 0 011.2.64l-6.16 11.58a.68.68 0 01-.6.36zm385.26 372.72a.69.69 0 01-.55-.27l-7.39-9.92a.68.68 0 01.14-.95.67.67 0 01.95.14l7.39 9.91a.68.68 0 01-.14 1 .66.66 0 01-.4.09zM108.43 435.46a.69.69 0 01-.68-.68.67.67 0 01.68-.68l47.44-.16a.68.68 0 01.68.67.7.7 0 01-.68.69l-47.45.16zm521.06 31.41a.69.69 0 01-.65-.48.68.68 0 01.45-.85l10.22-3.23a.68.68 0 01.85.45.67.67 0 01-.44.85l-10.22 3.23a.76.76 0 01-.21.03zM543 469.63a.67.67 0 01-.65-.5l-4.18-15.31a.68.68 0 111.31-.35l4.18 15.3a.69.69 0 01-.48.84zM244.53 354.61h-.16a.68.68 0 01-.5-.82l3.32-13.38a.68.68 0 111.32.32l-3.32 13.38a.67.67 0 01-.66.5zM560.19 752.9h-.05l-17.75-1.33a.68.68 0 01-.63-.73.67.67 0 01.73-.63l17.75 1.34a.67.67 0 01.63.72.69.69 0 01-.68.63zM417.5 194.42h-.11a.69.69 0 01-.56-.79l2.11-12.84a.68.68 0 111.34.22l-2.11 12.84a.67.67 0 01-.67.57zm335.5 7.67a.66.66 0 01-.3-.07l-37.4-18.67a.68.68 0 01-.3-.91.67.67 0 01.91-.31l37.4 18.68a.68.68 0 01-.31 1.28zM434.76 752a.66.66 0 01-.52-.24.68.68 0 01.07-1l20-17.1a.68.68 0 11.88 1l-20 17.09a.7.7 0 01-.43.25zm115.88-67.94a.59.59 0 01-.29-.07l-9.81-4.72a.66.66 0 01-.32-.9.67.67 0 01.91-.32l9.81 4.72a.68.68 0 01-.3 1.29zM3 174a.68.68 0 010-1.34l9.64-.87a.7.7 0 01.74.62.68.68 0 01-.62.74l-9.68.85zm694.73 318.47a.68.68 0 01-.06-1.35l16.33-1.46a.68.68 0 11.12 1.35l-16.32 1.46zm-15.04 188.22a.67.67 0 01-.67-.62L678.87 642a.68.68 0 011.36-.11l3.14 38.11a.68.68 0 01-.62.73zM548 141.41a.69.69 0 01-.64-.46l-4.44-12.73a.68.68 0 011.29-.45l4.43 12.73a.68.68 0 01-.41.87.62.62 0 01-.23.04zm178.46-40.3a.7.7 0 01-.53-.25l-10-12.08a.67.67 0 01.09-1 .68.68 0 011 .09L727 100a.68.68 0 01-.09 1 .69.69 0 01-.45.11zm-299.16 550a.69.69 0 01-.6-.37l-21.08-40a.68.68 0 011.21-.64l21.07 40.06a.68.68 0 01-.28.92.72.72 0 01-.32.03zM437.72 95.7a.68.68 0 01-.24-1.32l8.52-3.12a.68.68 0 01.88.41.67.67 0 01-.41.87L438 95.66a.59.59 0 01-.28.04zm-56.97 107.02a.66.66 0 01-.3-.07l-23.28-11.48a.68.68 0 01-.31-.91.69.69 0 01.91-.31l23.28 11.48a.68.68 0 01-.3 1.29zm20.96-83.49a.72.72 0 01-.5-.22.69.69 0 010-1l7.12-6.57a.68.68 0 01.93 1l-7.09 6.56a.63.63 0 01-.46.23zm-214.6 637.99a.66.66 0 01-.56-.3l-9-13.2a.68.68 0 011.13-.77l9 13.21a.68.68 0 01-.56 1.06zm-141-142.28h-.15a.68.68 0 01-.51-.81l11-48.8a.69.69 0 01.81-.52.68.68 0 01.51.82l-11 48.8a.69.69 0 01-.66.51zM7.35 462.64a.7.7 0 01-.54-.26l-6.12-7.8a.68.68 0 011.07-.84l6.13 7.8a.67.67 0 01-.12.95.66.66 0 01-.42.15zm1.34 259.8a.69.69 0 01-.66-.52l-8-33a.68.68 0 01.5-.83.69.69 0 01.82.51l8 33a.69.69 0 01-.51.82zm269.2-697.56a.7.7 0 01-.54-.26L260.78 3.87a.67.67 0 01.1-1 .69.69 0 011 .1l16.58 20.75a.68.68 0 01-.11 1 .66.66 0 01-.46.16zm98.65 230.6a.68.68 0 01-.4-1.23l34.16-24.31a.68.68 0 11.79 1.11l-34.16 24.3a.65.65 0 01-.39.13zM146 300.55h-.14a15.65 15.65 0 01-10.83-26.81A15.65 15.65 0 01161.66 285 15.62 15.62 0 01146 300.55zm0-29.93a14.29 14.29 0 00-.12 28.57h.12A14.27 14.27 0 00160.3 285a14.27 14.27 0 00-14.16-14.41zm441.56 233.07a16.88 16.88 0 111.21 0c-.41-.01-.77 0-1.21 0zm0-32.44h-1.1a15.51 15.51 0 101.1 0zM639 265a4.32 4.32 0 114.17-5.47 4.32 4.32 0 01-3 5.32 4.06 4.06 0 01-1.17.15zm0-7.29a3.07 3.07 0 00-.79.11 3 3 0 103.37 4.32 2.94 2.94 0 00.28-2.25 3 3 0 00-1.4-1.79 2.9 2.9 0 00-1.46-.36zm73.76-24.37a6.72 6.72 0 11.29-13.43 6.72 6.72 0 01-.29 13.43zm0-12.08a5.36 5.36 0 00-.22 10.72 5.31 5.31 0 003.86-1.41 5.39 5.39 0 001.73-3.72 5.36 5.36 0 00-5.13-5.58zM51.81 664.06a7.38 7.38 0 01-6.11-3.27 7.33 7.33 0 012-10.14 7.32 7.32 0 114.07 13.41zm0-13.27a5.94 5.94 0 00-4.97 9.21 6 6 0 008.25 1.65 5.95 5.95 0 001.66-8.25 6 6 0 00-4.97-2.61zM405.7 442.25h-.5a11.8 11.8 0 11.5 0zm0-22.2a10.45 10.45 0 10.45 0zm55.5-229.67h-.08a5.21 5.21 0 01-5.12-5.29 5.21 5.21 0 015.21-5.13h.08a5.21 5.21 0 01-.09 10.42zm-3.84-5.27a3.85 3.85 0 003.78 3.91 3.8 3.8 0 003.91-3.79 3.85 3.85 0 10-7.69-.12zm253.16 229.23a6.93 6.93 0 01-2.72-.56 6.86 6.86 0 112.72.56zm0-12.39a5.56 5.56 0 00-2 .39 5.46 5.46 0 00-3 3 5.4 5.4 0 00-.06 4.21 5.51 5.51 0 0010.24-4.07 5.51 5.51 0 00-5.12-3.48zm9.31-344.48h-.21A10.85 10.85 0 01709 46.4a10.85 10.85 0 1110.85 11.07zm-9.49-11a9.49 9.49 0 109.66-9.35 9.5 9.5 0 00-9.67 9.31zM22 426.54a14.82 14.82 0 1114.14-19.26A14.83 14.83 0 0122 426.54zm0-28.29a13.46 13.46 0 1012.86 9.43A13.41 13.41 0 0022 398.25zM701.31 614a17.28 17.28 0 1110.45-3.53 17.25 17.25 0 01-10.45 3.53zm0-33.2a15.92 15.92 0 1012.69 6.27 15.87 15.87 0 00-12.73-6.26zM456.07 313.84a5.92 5.92 0 112.14-.41 5.85 5.85 0 01-2.14.41zm0-10.42a4.53 4.53 0 00-4.15 2.71 4.53 4.53 0 106-2.33 4.39 4.39 0 00-1.85-.38zm-188.59.84a4 4 0 01-2.74-6.91 3.9 3.9 0 012.87-1.08 4 4 0 013.86 4.13 4 4 0 01-4 3.86zm0-6.63a2.64 2.64 0 00-1.92 4.44 2.59 2.59 0 001.84.83 2.52 2.52 0 001.89-.71 2.64 2.64 0 00-1.72-4.56zm323.57-18.37a15.06 15.06 0 117.42-2 15 15 0 01-7.42 2zm0-28.78a13.76 13.76 0 103.67.5 13.93 13.93 0 00-3.72-.5zm7.13 26.23zM502 118.9a12.07 12.07 0 01-4.31-.79 12.17 12.17 0 1115.7-7A12.19 12.19 0 01502 118.9zm0-23a10.82 10.82 0 103.83.71 10.81 10.81 0 00-3.77-.69zm10.74 14.89zM246 698.77a10.64 10.64 0 01-9.28-5.47 10.59 10.59 0 0118.57-10.3 10.6 10.6 0 01-9.29 15.77zm0-19.84a9.23 9.23 0 108.09 4.77 9.2 9.2 0 00-5.53-4.41 9.36 9.36 0 00-2.56-.36zm335.27-467.61a3.7 3.7 0 01-3.69-3.44 3.61 3.61 0 01.89-2.69 3.68 3.68 0 012.54-1.27 3.7 3.7 0 01.53 7.39zm0-6h-.17a2.35 2.35 0 10.33 4.69 2.36 2.36 0 002.18-2.51 2.35 2.35 0 00-2.34-2.18zm-.22-.68zM7.65 97.73a4.22 4.22 0 11.5 0 4.19 4.19 0 01-.5 0zm0-7h-.33A2.83 2.83 0 008 96.35a2.83 2.83 0 00-.33-5.64zM592.89 405.7a14.54 14.54 0 114.17-.61 14.92 14.92 0 01-4.17.61zm0-27.69a13.16 13.16 0 00-6.28 24.74 13.16 13.16 0 106.32-24.75zM96.51 750.43a7.24 7.24 0 116.64-10.11 7.25 7.25 0 01-3.78 9.52 7.22 7.22 0 01-2.86.59zm0-13.12a5.82 5.82 0 00-2.33.48 5.9 5.9 0 00-3.06 7.74 5.88 5.88 0 007.73 3.06 5.88 5.88 0 00-2.34-11.28zm-6.73-181.63a3.57 3.57 0 01-1.1-.18 3.46 3.46 0 114.21-4.81 3.41 3.41 0 01.17 2.64 3.45 3.45 0 01-3.28 2.35zm0-5.55a2.13 2.13 0 00-.92.21 2.1 2.1 0 102.91 2.56 2.07 2.07 0 00-.1-1.6 2.11 2.11 0 00-1.21-1.06 2.25 2.25 0 00-.68-.11zm103.53-299.87a4.74 4.74 0 01-.75-.06 5.11 5.11 0 111.49-10.12 5.11 5.11 0 012.31 9.16 5 5 0 01-3.05 1.02zm0-8.88a3.76 3.76 0 10.55 0 5.09 5.09 0 00-.56 0zM699 550.11A11.5 11.5 0 01687.49 539a11.49 11.49 0 1111.83 11.14zm0-21.62h-.31A10.12 10.12 0 00692 546a9.81 9.81 0 007.25 2.75 10.13 10.13 0 00-.3-20.25zM340.75 334.35a16.41 16.41 0 1112.18-5.35 16.39 16.39 0 01-12.18 5.35zm0-31.46h-.77a15.05 15.05 0 1011.92 25.14 15.05 15.05 0 00-11.15-25.16zm11.66 25.61zM14 329.39h-.5a7.37 7.37 0 01-6.87-7.85 7.37 7.37 0 117.37 7.85zm-6-7.77a6 6 0 106.4-5.6 6 6 0 00-6.4 5.6zM44.74 22.25A9.31 9.31 0 0137.82 6.7a9.26 9.26 0 016.44-3.07A9.37 9.37 0 0151 6a9.32 9.32 0 01-6.24 16.24zm-5.9-14.64a8 8 0 1013.85 4.91 8 8 0 00-13.86-4.91zm330.56 633a3.71 3.71 0 01-3-1.47 3.75 3.75 0 01.71-5.25 3.81 3.81 0 012.77-.73 3.76 3.76 0 012.48 1.45 3.71 3.71 0 01.72 2.77 3.73 3.73 0 01-3.7 3.23zm0-6.12a2.38 2.38 0 00-1.89 3.82 2.38 2.38 0 103.79-2.88 2.35 2.35 0 00-1.57-.92zM204.17 174.93a9.74 9.74 0 01-2.45-.31 9.83 9.83 0 112.45.31zm0-18.51a8.57 8.57 0 102.1.26 8.39 8.39 0 00-2.12-.26zM296 702.17a9.43 9.43 0 01-.12-18.85h.12a9.43 9.43 0 01.12 18.85H296zm0-17.49h-.1a8.06 8.06 0 00.1 16.12h.1a8.07 8.07 0 00-.1-16.13zM51.16 120.42a4.21 4.21 0 01-1.55-.29 4.39 4.39 0 111.55.29zm0-7.48a3 3 0 00-2.86 2 3.06 3.06 0 105.65-.18 3 3 0 00-1.71-1.6 3.08 3.08 0 00-1.08-.22zm44.9 109.32c-2.91 0-5.55-72-6.24-74.95-.82-3.45 1.33 63.09 4.77 62.28a6.42 6.42 0 113 12.49 6.3 6.3 0 01-1.53.18zm0-11.49a5.2 5.2 0 00-1.17.14c-2.71.64-4.4-66.63-3.76-63.91s3.37 74.4 6.09 73.76a5.06 5.06 0 00-1.16-10zm544.17 182a4.45 4.45 0 01-3-1.16 4.47 4.47 0 113 1.16zm-2.09-2.17a3.1 3.1 0 104.18-4.58 3 3 0 00-2.24-.81 3.1 3.1 0 00-1.94 5.39zM9.08 155.44a5.54 5.54 0 01-1-.1 4.89 4.89 0 112-9.59 4.9 4.9 0 013.81 5.78 4.9 4.9 0 01-4.78 3.91zm0-8.43a3.53 3.53 0 00-.7 7 3.46 3.46 0 002.65-.51 3.5 3.5 0 001.52-2.24 3.5 3.5 0 00-.55-2.66 3.45 3.45 0 00-2.23-1.51 3.53 3.53 0 00-.71-.09zm1.82 58.32a5.11 5.11 0 01-2.33-9.66 5.11 5.11 0 112.33 9.66zm-1.71-8.45a3.74 3.74 0 00-1.86 2.19 3.75 3.75 0 005.27 4.49 3.75 3.75 0 001.86-2.18 3.7 3.7 0 00-.23-2.86 3.75 3.75 0 00-5-1.64zm489-31.08a7.59 7.59 0 01-5.23-2.08 7.61 7.61 0 115.23 2.08zm-4.29-3.07a6.25 6.25 0 008.59-9.08 6.16 6.16 0 00-4.47-1.71 6.25 6.25 0 00-4.12 10.79zM389.27 563.89a13.81 13.81 0 01-13.64-16 13.8 13.8 0 1113.64 16zm0-26.25A12.45 12.45 0 00377 548.11a12.44 12.44 0 1012.26-10.47zM376.3 548zm118.99-111.76a12.86 12.86 0 116.91-2 12.87 12.87 0 01-6.91 2zm0-24.37a11.6 11.6 0 102.5.28 11.21 11.21 0 00-2.54-.28zm127.44-187.29h-.75a12.3 12.3 0 11.75 0zm0-23A10.84 10.84 0 10633.52 213a10.82 10.82 0 00-10.16-11.46zM320.82 57.73a12.16 12.16 0 01-9-20.33 12.15 12.15 0 119.58 20.31zm-8-19.42a10.81 10.81 0 00.73 15.25 10.79 10.79 0 0015.24-.73 10.79 10.79 0 00-.72-15.24 10.64 10.64 0 00-7.77-2.8 10.76 10.76 0 00-7.48 3.52zm160.39 334.53a11.15 11.15 0 111.58-.11 11.87 11.87 0 01-1.58.11zm.05-20.95a10.83 10.83 0 00-1.39.1 9.7 9.7 0 101.39-.1zm54.74-61.3a11.86 11.86 0 113.56-.55 11.77 11.77 0 01-3.56.55zm0-22.31a10.47 10.47 0 1010 7.33 10.4 10.4 0 00-10-7.33zm-246.29 161.3a4.5 4.5 0 01-1.4-.22 4.6 4.6 0 115.49-6.5 4.6 4.6 0 01-4.09 6.72zm0-7.85a3.25 3.25 0 00-1 6.34 3.24 3.24 0 102-6.18 3.06 3.06 0 00-1.01-.16zm194.54-151.28a9.72 9.72 0 118.24-4.51 9.69 9.69 0 01-8.24 4.51zm0-18.12a8.16 8.16 0 00-1.83.21 8.37 8.37 0 00-2.68 15.24 8.38 8.38 0 104.51-15.45zM298.79 534.76a7.78 7.78 0 01-7-4.25 7.79 7.79 0 117 4.25zm0-14.2a6.42 6.42 0 00-5.72 9.33 6.42 6.42 0 107.71-9 6.19 6.19 0 00-2.01-.33zm164.65-391.11a5 5 0 01-5-4.72 5 5 0 014.72-5.21 4.87 4.87 0 013.58 1.28 4.92 4.92 0 011.62 3.44 5 5 0 01-4.71 5.21zm-3.61-4.79a3.61 3.61 0 107.22-.36 3.56 3.56 0 00-1.19-2.49 3.63 3.63 0 00-2.6-.93 3.51 3.51 0 00-2.49 1.18 3.61 3.61 0 00-.94 2.6zm190.22 229.96a11.8 11.8 0 116.83-2.19 11.81 11.81 0 01-6.83 2.19zm0-22.24a10.44 10.44 0 106.08 18.95 10.46 10.46 0 002.45-14.58 10.46 10.46 0 00-8.58-4.37zM139.62 479.13a3.87 3.87 0 01-1-.12 3.79 3.79 0 01-2.62-4.61 3.78 3.78 0 014.6-2.72 3.78 3.78 0 01-.93 7.45zm0-6.21a2.35 2.35 0 00-1.23.34 2.42 2.42 0 101.83-.27 2.46 2.46 0 00-.61-.07zm352.16 87.84a17.87 17.87 0 01-5.62-.91 17.77 17.77 0 1113.56-1 17.63 17.63 0 01-7.94 1.91zm0-34.17a16.4 16.4 0 107.36 31.07 16.4 16.4 0 00-2.17-30.23 16.58 16.58 0 00-5.22-.84zm-.11-309.11a5.93 5.93 0 01-5.81-4.76 5.94 5.94 0 014.64-7 5.93 5.93 0 111.17 11.75zm-4.48-5a4.54 4.54 0 001.95 2.9 4.58 4.58 0 006.33-1.27 4.57 4.57 0 10-8.28-1.63zM454.5 24.49a10.61 10.61 0 1110.21-7.71 10.64 10.64 0 01-10.21 7.71zm0-19.86a9.25 9.25 0 00-2.5 18.15 9.27 9.27 0 0011.42-6.37A9.26 9.26 0 00457 5a9.15 9.15 0 00-2.51-.37zm9.56 12zM50.64 501.65A14.47 14.47 0 1164.83 490a14.44 14.44 0 01-14.19 11.65zm0-27.58a13.11 13.11 0 102.55.25 13.14 13.14 0 00-2.56-.25zm304.16-58.33a7.5 7.5 0 113.77-14 7.5 7.5 0 01-1.84 13.73 7.58 7.58 0 01-1.93.27zm0-13.64a6.07 6.07 0 00-1.58.21 6.14 6.14 0 103.15 11.86 6.14 6.14 0 00-1.57-12.07zM665.56 78.23a15 15 0 118.32-27.41 15 15 0 01-8.32 27.41zm0-28.56a13.6 13.6 0 107.56 2.33 13.52 13.52 0 00-7.52-2.33zM356.22 14.55a6 6 0 01-1.1-.11 5.64 5.64 0 01-4.42-6.63 5.63 5.63 0 115.52 6.74zM352 8.07a4.28 4.28 0 105-3.35 4.28 4.28 0 00-5 3.35zm188.17 192.1a11.69 11.69 0 114.44-.89 11.59 11.59 0 01-4.44.89zm0-21.92a10.28 10.28 0 00-9.48 14.2 10.28 10.28 0 109.48-14.2zm154.09-52.51a6 6 0 01-2.58-.59 5.9 5.9 0 114.5.27 5.82 5.82 0 01-1.92.32zm0-10.42a4.55 4.55 0 102 .46 4.46 4.46 0 00-2-.46zm-51.9 420.28q-.74 0-1.47-.06a17.88 17.88 0 111.47.06zm0-34.41a16.55 16.55 0 00-16.45 15.19 16.51 16.51 0 0015.09 17.8 16.52 16.52 0 102.68-32.93q-.68-.06-1.35-.06zm30.33 217.06a4.47 4.47 0 113.59-1.8 4.44 4.44 0 01-3.59 1.8zm0-7.58a3.11 3.11 0 00-1.86 5.6 3.12 3.12 0 004.35-.63 3.11 3.11 0 00-2.49-5zm3 5.38zm-481.78-44.84a6.24 6.24 0 01-6-4.45 6.17 6.17 0 01.47-4.76 6.25 6.25 0 018.47-2.56 6.26 6.26 0 01-3 11.77zm0-11.15a5 5 0 00-1.42.21 4.89 4.89 0 103.73.37 4.83 4.83 0 00-2.29-.58z" transform="translate(0 -.52)"/><path class="cls-4" d="M51.61 140.44a13.51 13.51 0 01-12.12-7.54 13.47 13.47 0 1112.12 7.54zm-10.9-8.14a12.12 12.12 0 105.54-16.21 12.13 12.13 0 00-5.54 16.21zM11.14 756.47a4.36 4.36 0 01-.72-.05 4.86 4.86 0 01-4.1-5.53 4.83 4.83 0 011.91-3.19 4.78 4.78 0 013.61-.91 4.87 4.87 0 01-.7 9.68zm-3.48-5.38a3.49 3.49 0 00.65 2.6 3.52 3.52 0 004.91.73 3.51 3.51 0 10-5.56-3.33zm130.87-385.27a16.9 16.9 0 112-.11 16.21 16.21 0 01-2 .11zm.06-32.43a15.76 15.76 0 00-1.8.1 15.58 15.58 0 101.8-.1zm296.57 195.44a17.39 17.39 0 115.22-34 17.39 17.39 0 01-5.22 34zm0-33.42a16 16 0 104.8.74 16 16 0 00-4.78-.74zM745.5 364.47a5.2 5.2 0 01-4.44-2.48 5.2 5.2 0 011.72-7.13 5.2 5.2 0 017.14 1.72 5.18 5.18 0 01-4.42 7.89zm0-9a3.82 3.82 0 00-3.71 2.92 3.78 3.78 0 00.46 2.9 3.83 3.83 0 005.26 1.27 3.84 3.84 0 001.27-5.26 3.83 3.83 0 00-3.3-1.84zM151 715.16a11.81 11.81 0 01-11.32-8.56 11.8 11.8 0 1114.58 8.1 12.16 12.16 0 01-3.26.46zm-10-8.94a10.43 10.43 0 107.17-12.89 10.42 10.42 0 00-7.17 12.89zm14.78-550.36a3.74 3.74 0 01-2-.59 3.81 3.81 0 112.88.49 4.3 4.3 0 01-.88.1zm0-6.28a2.67 2.67 0 00-.56.06 2.47 2.47 0 00-1.53 1.09 2.46 2.46 0 00.78 3.39 2.45 2.45 0 003.38-.78 2.46 2.46 0 00-2.07-3.76zm364.55-77.4a4.18 4.18 0 01-2.47-.8 4.21 4.21 0 112.47.8zm-1.67-1.9a2.83 2.83 0 10-.61-4 2.84 2.84 0 00.61 4zM524 725.73a10.85 10.85 0 01-5.73-20.08 10.87 10.87 0 0114.94 3.53 10.84 10.84 0 01-9.21 16.55zm0-20.33a9.4 9.4 0 00-5 1.41 9.51 9.51 0 105-1.41zm-5.33.83zM159.23 208.44a9.66 9.66 0 01-3.62-.7 9.76 9.76 0 113.62.7zm0-18.13a8.38 8.38 0 103.11.6 8.41 8.41 0 00-3.08-.6zm-50.42 332.76a13.67 13.67 0 01-3.89-.57 13.49 13.49 0 1116.8-9.06 13.5 13.5 0 01-12.91 9.63zm0-25.64a12.14 12.14 0 1011.64 15.62 12.17 12.17 0 00-11.64-15.62zm72.41 124.11a4 4 0 01-4-4.8 4 4 0 117.95 1.51 4 4 0 01-4 3.29zm0-6.73a2.65 2.65 0 10.5 0 2.89 2.89 0 00-.51 0zm3.31 3.31zm557.76-354.34a10.14 10.14 0 114.75-1.19 10.16 10.16 0 01-4.75 1.19zm0-18.92a8.77 8.77 0 00-7.73 12.9 8.78 8.78 0 0011.87 3.63 8.78 8.78 0 00-1.57-16.15 9 9 0 00-2.6-.38zm4.43 17.14zm-4.51 272.07a9.59 9.59 0 01-1.07-.06 10.76 10.76 0 111.07.06zm0-20.33a9.48 9.48 0 00-.91 18.92 9.48 9.48 0 101.86-18.87c-.35-.03-.66-.05-.98-.05zM277.94 105.68a17.56 17.56 0 1117.52-18.9 17.53 17.53 0 01-16.15 18.84c-.46.04-.92.06-1.37.06zm0-33.75h-1.25a16.19 16.19 0 1017.38 14.91A16.21 16.21 0 00278 71.93zM93.32 267H93c-1-.07-1.85-70.52-2.49-71.26a3.62 3.62 0 01-.86-2.66 3.65 3.65 0 011.26-2.48c.74-.63 1.68 69.06 2.66 69.13a3.62 3.62 0 012.48 1.27 3.57 3.57 0 01.87 2.65 3.65 3.65 0 01-1.27 2.49 3.59 3.59 0 01-2.33.86zm0-5.93a2.32 2.32 0 00-1.48.55c-.46.4-.75-69-.79-68.44a2.23 2.23 0 00.54 1.66c.39.47 1 70.75 1.56 70.8a2.29 2.29 0 001.65-.64 2.24 2.24 0 00.79-1.55 2.27 2.27 0 00-.54-1.67 2.3 2.3 0 00-1.56-.79zm169.07-87.48a17.38 17.38 0 01-8.86-2.41 17.59 17.59 0 1117.78-30.36 17.59 17.59 0 01-8.92 32.77zm.06-33.82a16.23 16.23 0 108.17 2.22 16.18 16.18 0 00-8.17-2.22zm106.83-81.21a4.54 4.54 0 01-.82-.07 4.39 4.39 0 01-2.82-1.84 4.4 4.4 0 017.26-5 4.41 4.41 0 01-1.14 6.13 4.35 4.35 0 01-2.48.78zm0-7.45a3.07 3.07 0 00-1.72.54 3 3 0 104.24.78 3.07 3.07 0 00-2-1.27 3.53 3.53 0 00-.54-.05zm178.4 486.18a11.86 11.86 0 01-.26-23.71h.28a11.86 11.86 0 01.26 23.72zm0-22.36h-.25a9.82 9.82 0 10.25 0zm50.61-501.78a4.77 4.77 0 01-.43-9.52 4.77 4.77 0 01.86 9.5zm0-8.17H598a3.4 3.4 0 00.62 6.78 3.36 3.36 0 002.31-1.21A3.4 3.4 0 00598.3 5zm-.38-.67zM147.36 658.62a3.85 3.85 0 01-1-.14 3.64 3.64 0 111 .14zm-.63-1.45a2.26 2.26 0 10-1.54-2.81 2.26 2.26 0 001.54 2.81zm351.43-159A15.26 15.26 0 01483 483.73a15.24 15.24 0 1116 14.41zm0-29.13h-.75a13.88 13.88 0 00-13.12 14.6A13.88 13.88 0 10498.18 469zM231.5 640.67h-.53a4.81 4.81 0 01-4.26-5.3 4.81 4.81 0 114.79 5.33zm0-8.26a3.45 3.45 0 00-3.42 3.08 3.45 3.45 0 003.06 3.8 3.45 3.45 0 003.06-5.59 3.43 3.43 0 00-2.32-1.27zM419 60.65a9.38 9.38 0 01-2.1-.23 9.92 9.92 0 01-7.59-11.78 9.91 9.91 0 119.69 12zm-8.36-11.72a8.55 8.55 0 1010.17-6.54 8.56 8.56 0 00-10.17 6.54zm178.97 12.88a5.35 5.35 0 01-1.42-.2 5 5 0 116.26-3.42 5.05 5.05 0 01-4.84 3.62zm0-8.73a3.69 3.69 0 103.54 4.72 3.69 3.69 0 00-3.54-4.72zM593.8 58zM209.54 731.39a11.11 11.11 0 114.65-1 11.06 11.06 0 01-4.65 1zm0-20.84a9.73 9.73 0 108.85 5.65 9.7 9.7 0 00-8.87-5.65zm520.82-382.38a17.86 17.86 0 01-3.16-.29 17.38 17.38 0 113.16.29zm-.06-33.68a16 16 0 00-9.19 2.88 16.17 16.17 0 00-4.11 22.49 16.16 16.16 0 1013.26-25.37zm-9.58 2.32zM97.24 705.92a10.46 10.46 0 01-1.34-20.84 10.47 10.47 0 012.7 20.76 12.55 12.55 0 01-1.36.08zm-1.17-19.49a9.11 9.11 0 1010.2 7.85 9.11 9.11 0 00-10.2-7.85zm186.64-33.53a8.7 8.7 0 01-6.92-14 8.71 8.71 0 116.92 14zm-5.83-13.15a7.35 7.35 0 1010.29-1.39 7.34 7.34 0 00-10.29 1.39zM422.85 705a5.17 5.17 0 113.7-1.54 5.18 5.18 0 01-3.7 1.54zm0-9a3.83 3.83 0 102.73 6.52 3.84 3.84 0 000-5.42 3.83 3.83 0 00-2.73-1.1zm157.57-531a5.08 5.08 0 01-3.87-8.39 5.09 5.09 0 018.94 2.9 5.09 5.09 0 01-5.07 5.49zm-2.84-7.5a3.73 3.73 0 106.55 2.11 3.67 3.67 0 00-1.3-2.53 3.72 3.72 0 00-5.25.42zm-85.05 598.39a8.34 8.34 0 11.43 0h-.43zm.39-.69zm-.37-14.65h-.37a7 7 0 00.71 14 7 7 0 004.33-12.16 6.92 6.92 0 00-4.67-1.84zM104 177.3a13.35 13.35 0 01-5.81-1.3 13.4 13.4 0 115.81 1.3zm-5.23-2.57a12 12 0 10-5.56-16.06 12 12 0 005.56 16.06zm519.89-16.67a9.46 9.46 0 01-9.25-7.56 9.45 9.45 0 119.25 7.56zm0-17.53a8.12 8.12 0 00-1.63.16 8.08 8.08 0 00-6.31 9.53 8.07 8.07 0 107.94-9.69zM250.17 558.19A4.52 4.52 0 01249 558a4.28 4.28 0 111.2.17zm0-7.1a2.91 2.91 0 00-1.37.35 2.88 2.88 0 00-1.14 3.89 2.78 2.78 0 001.71 1.38 2.81 2.81 0 002.18-.23 2.87 2.87 0 001.38-1.71 2.86 2.86 0 00-1.94-3.56 2.91 2.91 0 00-.83-.12zm-3.36-81.61a12 12 0 1110-5.3 11.94 11.94 0 01-10 5.3zm0-22.7a11.06 11.06 0 00-2.06.2 10.55 10.55 0 00-6.81 4.51 10.67 10.67 0 1019.32 3.93 10.69 10.69 0 00-10.45-8.64zM194.19 337a5.78 5.78 0 01-5.75-5.18 5.81 5.81 0 015.15-6.38 5.8 5.8 0 011.23 11.56zm0-10.23h-.48a4.44 4.44 0 00-3.94 4.88 4.38 4.38 0 001.63 3 4.42 4.42 0 006.23-.67 4.36 4.36 0 001-3.25 4.44 4.44 0 00-4.42-3.93zM155.9 587.9a3.87 3.87 0 01-1.76-.43 3.84 3.84 0 115.17-1.64 3.84 3.84 0 01-3.41 2.07zm0-6.31a2.47 2.47 0 00-2.36 3.22 2.44 2.44 0 001.22 1.45 2.47 2.47 0 002.27-4.39 2.42 2.42 0 00-1.12-.28zm1.62-497.51a14 14 0 1110.53-4.75 14 14 0 01-10.53 4.75zm0-26.68h-.82a12.54 12.54 0 00-8.7 4.3 12.66 12.66 0 1019 16.74 12.66 12.66 0 00-9.48-21zm10 21.49zm578.75 641.02a5 5 0 113.22-1.19 4.94 4.94 0 01-3.22 1.19zm0-8.57a3.55 3.55 0 00-2.34.87 3.58 3.58 0 00-1.25 2.45 3.6 3.6 0 005.93 3 3.61 3.61 0 00-2.05-6.34zm-2.78.35zm-1.17-556.89a11.37 11.37 0 01-10-5.87 11.38 11.38 0 1110 5.87zm-8.78-6.53a10 10 0 103.93-13.58 10 10 0 00-3.93 13.58zM98.8 101.05a.66.66 0 01-.6-.37.67.67 0 01.28-.91l2.52-1.34a.68.68 0 01.92.28.69.69 0 01-.29.92L99.11 101a.68.68 0 01-.31.05zM720 3.86a.7.7 0 01-.47-.19l-2-2a.68.68 0 11.95-1l2.05 2a.68.68 0 01-.53 1.19zm-57.82 146.25a.67.67 0 01-.63-.42l-.45-1.1a.68.68 0 111.26-.52l.45 1.1a.69.69 0 01-.38.89.74.74 0 01-.25.05zM301 291.85a.67.67 0 01-.59-.35l-1-1.65a.69.69 0 01.25-.93.68.68 0 01.93.25l1 1.66a.69.69 0 01-.26.93.66.66 0 01-.33.09zM1.9 8.23a.68.68 0 01-.26-1.31l.53-.21A.68.68 0 112.68 8l-.52.21a.6.6 0 01-.26.02zM358.82 720.7a.68.68 0 01-.66-.7l.06-2.5a.64.64 0 01.7-.66.68.68 0 01.66.7l-.08 2.46a.69.69 0 01-.68.7zM1.84 365.19a.66.66 0 01-.43-.15.67.67 0 01-.1-1l.51-.62a.69.69 0 011-.1.68.68 0 01.09 1l-.51.62a.65.65 0 01-.56.25zm491.07-52.77a.67.67 0 01-.65-.47l-.88-2.75a.68.68 0 111.29-.41l.88 2.75a.67.67 0 01-.44.85.64.64 0 01-.2.03zM288 475.74a.69.69 0 01-.65-.48l-.93-3a.68.68 0 111.3-.4l.93 3a.67.67 0 01-.44.85.76.76 0 01-.21.03zM109.77 587.47a.73.73 0 01-.35-.09l-.89-.54a.67.67 0 01-.23-.93.68.68 0 01.93-.23l.89.53a.67.67 0 01.23.93.66.66 0 01-.58.33zM138.84 551h-.12l-1.78-.31a.69.69 0 01-.56-.79.67.67 0 01.79-.55l1.79.31a.68.68 0 01-.12 1.35zm78.03-36.21a.64.64 0 01-.38-.12.68.68 0 01-.19-.94l.46-.69a.68.68 0 01.94-.18.67.67 0 01.19.94l-.46.68a.68.68 0 01-.56.31zM347 681.54h-.12a.67.67 0 01-.55-.78l.25-1.5a.68.68 0 111.34.23l-.25 1.5a.68.68 0 01-.67.55zM257.49 509.3a.7.7 0 01-.53-.25l-.43-.55a.67.67 0 01.1-.95.68.68 0 011 .1l.43.55a.67.67 0 01-.1.95.7.7 0 01-.47.15zM7 659a.73.73 0 01-.4-.13.68.68 0 01-.16-1l.56-.67a.68.68 0 011-.16.68.68 0 01.15 1l-.52.73A.68.68 0 017 659zm47.9 88.07a.39.39 0 01-.15 0l-.55-.13a.69.69 0 01-.51-.82.67.67 0 01.82-.5l.55.13a.69.69 0 01.51.82.69.69 0 01-.67.5zm54.58-690.21a.68.68 0 01-.23-1.32l.49-.18a.69.69 0 01.87.41.67.67 0 01-.41.87l-.49.18a.59.59 0 01-.23.04zm363.78 7.61h-.11l-2.15-.38a.69.69 0 01-.56-.79.68.68 0 01.79-.55l2.15.37a.68.68 0 01-.12 1.35zM103.28 652.3a.67.67 0 01-.67-.6l-.32-2.7a.68.68 0 01.6-.75.7.7 0 01.76.6l.31 2.69a.69.69 0 01-.6.76zm291.8-567.78a.69.69 0 01-.6-.37.68.68 0 01.29-.92l1.24-.64a.67.67 0 01.91.3.66.66 0 01-.29.91l-1.24.64a.65.65 0 01-.31.08zm-153.92 154.1a.68.68 0 01-.38-.12l-2.15-1.45a.69.69 0 01-.18-1 .68.68 0 01.94-.18l2.15 1.46a.68.68 0 01.18.94.66.66 0 01-.56.35zm382.56-136.76h-.08l-1.36-.17a.67.67 0 01-.59-.75.69.69 0 01.76-.6l1.35.17a.68.68 0 01-.08 1.35zm125.16 334.61h-.21a.68.68 0 01-.43-.86l.5-1.57a.68.68 0 011.3.42l-.51 1.57a.67.67 0 01-.65.44zM178.26 118.38h-.07l-1.51-.15a.68.68 0 01.13-1.36l1.51.15a.68.68 0 01-.06 1.36zM746.48 675.2a.67.67 0 01-.61-.37.68.68 0 01.3-.91l.74-.38a.7.7 0 01.92.3.69.69 0 01-.3.92l-.74.37a.7.7 0 01-.31.07zM354.5 752.94h-1.08a.7.7 0 01-.68-.69.68.68 0 01.69-.68h1.08a.68.68 0 010 1.36zm293.05-70.55a.68.68 0 01-.09-1.36l.54-.03a.68.68 0 01.19 1.35l-.53.07zM425.26 331.71a.68.68 0 01-.56-1.06l1.66-2.43a.69.69 0 01.95-.17.67.67 0 01.17.94l-1.66 2.43a.67.67 0 01-.56.29zM94.2 310.93a.66.66 0 01-.52-.24.68.68 0 01.08-1l.72-.61a.69.69 0 01.88 1.05l-.73.6a.64.64 0 01-.43.2zm360.18 145.13a.61.61 0 01-.38-.06.67.67 0 01-.21-.93l.37-.6a.69.69 0 01.94-.22.68.68 0 01.21.94l-.37.6a.67.67 0 01-.56.27zM38.9 536.75a.67.67 0 01-.31-.07.68.68 0 01-.3-.91l.66-1.32a.67.67 0 01.91-.31.68.68 0 01.3.91l-.65 1.32a.68.68 0 01-.61.38zM171.3 10.84a.64.64 0 01-.49-.22l-.57-.6a.68.68 0 011-.93l.56.6a.68.68 0 010 1 .66.66 0 01-.5.15zM374 596.15a.67.67 0 01-.65-.71v-1a.63.63 0 01.71-.64.67.67 0 01.64.71v1a.68.68 0 01-.7.64zm9.81 104.48a.67.67 0 01-.31-.07l-.72-.37a.68.68 0 01-.3-.92.69.69 0 01.92-.29l.72.36a.68.68 0 01.29.92.66.66 0 01-.6.37zm-66.39-213.96a.68.68 0 01-.52-1.11l1.56-1.87a.68.68 0 111 .87l-1.56 1.87a.67.67 0 01-.48.24zm-13.18 124.27h-.14a.68.68 0 01-.53-.8l.41-1.93a.68.68 0 011.33.29l-.41 1.92a.68.68 0 01-.66.52zm-87.32-402.51a.69.69 0 01-.64-.46l-.91-2.66a.68.68 0 111.28-.44l.91 2.66a.67.67 0 01-.42.86.57.57 0 01-.22.04zm-86.61 411.71a.68.68 0 01-.2-1.33l.64-.2a.68.68 0 11.4 1.3l-.64.2a.69.69 0 01-.2.03zm291.05-150.81a.68.68 0 01-.46-1.18l.51-.47a.68.68 0 011 .05.69.69 0 010 1l-.52.46a.66.66 0 01-.53.14zM310.39 3a.7.7 0 01-.5-.22l-.7-.75a.68.68 0 111-.93l.71.75a.68.68 0 01-.5 1.15zm439.22 602a.52.52 0 01-.21 0 .67.67 0 01-.44-.85l.68-2.15a.68.68 0 111.3.41l-.69 2.15a.68.68 0 01-.64.44zM621.33 69.11a.68.68 0 01-.6-.36l-.39-.75a.68.68 0 011.21-.62l.39.74a.68.68 0 01-.29.91.61.61 0 01-.32.08zm-3.66 497.98a.68.68 0 01-.17-1.34l.74-.19a.68.68 0 01.34 1.32l-.75.19zM393.64 667.17a.67.67 0 01-.31-.07l-2.83-1.47a.68.68 0 01.62-1.21l2.83 1.47a.68.68 0 01-.31 1.28zm-80.72-260.82a.63.63 0 01-.26-.05l-2-.84a.68.68 0 01.53-1.26l2 .84a.68.68 0 01.36.89.67.67 0 01-.63.42zm-96.39-287.01a.65.65 0 01-.29-.07l-.8-.38a.68.68 0 01-.33-.9.69.69 0 01.91-.33l.8.38a.69.69 0 01.33.91.7.7 0 01-.62.39zm307.31 538.32a.66.66 0 01-.61-.39.67.67 0 01.32-.9l2.12-1a.68.68 0 11.58 1.23l-2.12 1a.59.59 0 01-.29.06zM751.36 81a.69.69 0 01-.52-.24L749 78.68a.68.68 0 011-.9l1.86 2.13a.68.68 0 01-.06 1 .7.7 0 01-.44.09zM84.86 617.9a.67.67 0 01-.24 0 .69.69 0 01-.39-.88l.56-1.47a.69.69 0 01.88-.39.68.68 0 01.39.88l-.56 1.46a.67.67 0 01-.64.4zM260.92 601a.68.68 0 01-.61-.39l-.27-.57a.67.67 0 01.33-.9.66.66 0 01.9.32l.27.57a.67.67 0 01-.33.9.59.59 0 01-.29.07zm11.95 142.22a.72.72 0 01-.37-.11.68.68 0 01-.2-.94l.47-.74a.68.68 0 111.15.73l-.48.74a.67.67 0 01-.57.32zm473.19-174.01H746a.67.67 0 01-.59-.75l.27-2.25a.69.69 0 01.76-.59.67.67 0 01.59.75l-.27 2.25a.68.68 0 01-.7.59zM334.29 95.15h-.15a.67.67 0 01-.52-.8l.44-2a.67.67 0 01.81-.52.68.68 0 01.52.81l-.44 2a.68.68 0 01-.66.51zM2.46 536.76a.71.71 0 01-.44-.15l-.85-.71a.68.68 0 01-.09-1 .69.69 0 011-.09l.85.71a.68.68 0 01-.43 1.2zM390 337.6a.66.66 0 01-.65-.49l-.29-.95a.68.68 0 011.3-.4l.29 1a.68.68 0 01-.46.85.63.63 0 01-.19-.01zm-37.74-105.15a.7.7 0 01-.54-.26.69.69 0 01.13-1l.57-.43a.67.67 0 01.95.12.69.69 0 01-.13 1l-.56.43a.66.66 0 01-.42.14zM604.27 347a.8.8 0 01-.3-.06.69.69 0 01-.32-.91l.57-1.18a.67.67 0 01.91-.31.68.68 0 01.32.91l-.57 1.17a.68.68 0 01-.61.38zm23.14 82.55a.69.69 0 01-.68-.63.7.7 0 01.63-.73l2-.15a.68.68 0 01.1 1.36l-2 .15zM234.7 276.79a.67.67 0 01-.57-.32L232.6 274a.69.69 0 01.22-.94.68.68 0 01.94.22l1.52 2.44a.68.68 0 01-.22.94.65.65 0 01-.36.13zm432.08-39.69a.67.67 0 01-.62-.41.69.69 0 01.35-.9l.64-.27a.68.68 0 01.89.35.69.69 0 01-.35.9l-.64.27a.66.66 0 01-.27.06zM506.81 624.72h-.09l-1-.12a.68.68 0 01.17-1.35l1 .12a.68.68 0 01-.09 1.36zM126.42 399.18a.72.72 0 01-.37-.11l-2-1.24a.68.68 0 11.72-1.15l2 1.24a.68.68 0 01.21.94.69.69 0 01-.56.32zM1.8 499.12a.62.62 0 01-.33-.08.69.69 0 01-.27-.93l.86-1.53a.68.68 0 111.19.66l-.86 1.54a.66.66 0 01-.59.34zm319.32-54.89a.69.69 0 01-.46-.18l-1.07-1a.67.67 0 010-1 .68.68 0 011-.05l1.07 1a.67.67 0 010 1 .66.66 0 01-.54.23zm429.94 39.46a.63.63 0 01-.41-.15l-1.31-1a.68.68 0 01.82-1.08l1.31 1a.67.67 0 01.13.95.7.7 0 01-.54.28zM69.79 437.32a.68.68 0 01-.08-1.36l.86-.11a.68.68 0 11.18 1.35l-.87.11zm523.4 108.2a.67.67 0 01-.49-1.15l1-1.1a.68.68 0 111 1l-1.05 1.09a.67.67 0 01-.46.16zM275 258.88a.69.69 0 01-.36-.11l-.55-.35a.67.67 0 01-.21-.93.69.69 0 01.94-.22l.55.35a.69.69 0 01.21.94.67.67 0 01-.58.32zm-36.81 491.5a.62.62 0 01-.29-.07.67.67 0 01-.32-.9l.37-.78a.68.68 0 111.23.58l-.37.78a.68.68 0 01-.62.39zm509.54 2.08h-.13l-1.08-.21a.68.68 0 01-.54-.79.69.69 0 01.79-.55l1.09.21a.68.68 0 01-.13 1.35zM627.07 32.43h-.17a.67.67 0 01-.48-.83l.14-.53a.68.68 0 111.31.35l-.14.53a.67.67 0 01-.66.48zM500.49 679.18a.68.68 0 01-.64-.46.67.67 0 01.42-.86l.49-.17a.68.68 0 01.44 1.29l-.49.16a.57.57 0 01-.22.04zM676.08 751a.69.69 0 01-.51-.23.68.68 0 010-1l.91-.83a.68.68 0 011 0 .69.69 0 010 1l-.92.83a.66.66 0 01-.48.23zM79 401.2a.68.68 0 01-.44-.16l-.66-.55a.68.68 0 11.87-1l.67.55a.69.69 0 01.08 1 .67.67 0 01-.52.16zm250.87 246.99a.68.68 0 01-.57-.31l-.34-.52a.69.69 0 01.2-1 .68.68 0 01.94.2l.34.52a.67.67 0 01-.19.94.68.68 0 01-.38.17zM42.4 368.84h-.15a.68.68 0 01-.52-.81l.41-1.9a.69.69 0 01.81-.52.68.68 0 01.52.81l-.41 1.9a.68.68 0 01-.66.52zm526.94 202.74a.69.69 0 01-.67-.53.68.68 0 01.52-.81l.52-.12a.69.69 0 01.81.52.68.68 0 01-.52.81l-.52.12zM96.15 465.12a.68.68 0 01-.11-1.35l.61-.1a.69.69 0 01.78.56.68.68 0 01-.56.78l-.61.1zm251.44-193.51a.64.64 0 01-.43-.16.68.68 0 01-.09-1l1.12-1.33a.68.68 0 011 .88l-1.12 1.33a.66.66 0 01-.48.28zM605 314.11a.67.67 0 01-.58-.33l-.69-1.14a.67.67 0 01.23-.93.68.68 0 01.93.23l.69 1.14a.68.68 0 01-.23.93.64.64 0 01-.35.1zM365.16 101.53a.68.68 0 01-.13-1.35l1-.2a.66.66 0 01.8.53.68.68 0 01-.54.8l-1 .2zm306.99 375.15a.63.63 0 01-.3-.07.68.68 0 01-.31-.91l.28-.56a.68.68 0 011.22.61l-.28.56a.69.69 0 01-.61.37zM218.1 594.44a.68.68 0 110-1.36h2.78a.69.69 0 01.68.68.67.67 0 01-.68.68h-2.79zm169.71-105.96a.7.7 0 01-.41-.14l-.5-.39a.68.68 0 11.84-1.07l.49.38a.68.68 0 01.12 1 .67.67 0 01-.54.22zm290.95-105.73a.68.68 0 01-.68-.67v-1.38a.68.68 0 01.67-.69.69.69 0 01.69.66v1.39a.68.68 0 01-.67.69zm-449.34-70.49a.68.68 0 01-.12-1.35l.9-.17a.68.68 0 11.25 1.34l-.9.17zM648.81 6h-.07l-2.54-.26a.68.68 0 01.14-1.35l2.54.26a.68.68 0 01.61.74.68.68 0 01-.68.61zM2.93 135.57a.67.67 0 01-.53-.26.68.68 0 01.11-1l1.08-.84a.69.69 0 011 .11.68.68 0 01-.12 1l-1.08.84a.66.66 0 01-.46.15zm195.18 154.29H198a.68.68 0 01-.53-.8l.39-1.93a.69.69 0 01.8-.53.68.68 0 01.53.81l-.39 1.92a.67.67 0 01-.69.53zm145.75-127.29a.69.69 0 01-.51-.23L342 160.8a.68.68 0 111-.89l1.35 1.53a.69.69 0 01-.07 1 .65.65 0 01-.42.13zm-22.32-35.28a.68.68 0 01-.36-.1l-.6-.38a.68.68 0 01.71-1.16l.61.38a.68.68 0 01.22.94.7.7 0 01-.58.32zm128.4 438.83a.65.65 0 01-.45-.17.68.68 0 01-.06-1l.75-.85a.68.68 0 011 .91l-.75.84a.69.69 0 01-.49.27zm-157.11 8.7a.67.67 0 01-.24 0l-.59-.22a.67.67 0 01-.41-.87.68.68 0 01.87-.4l.6.21a.69.69 0 01.4.88.68.68 0 01-.63.4zm417.99 176.5a.69.69 0 01-.6-.36.68.68 0 01.28-.92l1.8-1a.69.69 0 01.93.27.68.68 0 01-.28.92l-1.8 1a.68.68 0 01-.33.09zM599 441.71a.68.68 0 01-.67-.58l-.2-1.26a.69.69 0 01.57-.78.7.7 0 01.78.57l.19 1.26a.68.68 0 01-.57.78zm83.85-431.19a.69.69 0 01-.34-.09.68.68 0 01-.26-.92l1.45-2.62a.68.68 0 01.93-.26.68.68 0 01.26.92l-1.45 2.62a.69.69 0 01-.59.35zm-45.23 289.79l-2.06-.12a.68.68 0 01.08-1.36l2.06.12a.68.68 0 010 1.36zm76.75 350.62a.67.67 0 01-.24 0l-1-.38a.68.68 0 01.48-1.27l1 .38a.68.68 0 01-.24 1.31zm-535.6-272.46a.47.47 0 01-.16 0 .68.68 0 01-.5-.82l.13-.53a.68.68 0 011.33.32l-.14.53a.67.67 0 01-.66.5zm488.33-98.24a.67.67 0 01-.65-.46l-.49-1.4a.68.68 0 011.29-.45l.49 1.41a.68.68 0 01-.42.86.57.57 0 01-.22.04z" transform="translate(0 -.52)"/></g></g></svg>