<svg xmlns="http://www.w3.org/2000/svg" viewBox="0 0 23.58 44.9"><defs><style>.cls-3{fill:#b0161c}</style></defs><g style="isolation:isolate"><g id="Capa_2" data-name="Capa 2"><g id="Respuesta02"><path fill="#231f20" d="M15.94 19.5l6.15 5.61-4.32-6.64-1.83 1.03z"/><path class="cls-3" d="M20 11.83c1.64 2.85.19 6.88-3.23 9s-7.52 1.53-9.16-1.32-.18-6.88 3.24-9S18.39 9 20 11.83z"/><path d="M17.15 9.75c-2.61-2-4.19-1.46-4.94-1.94C11.27 7.21 9 1.34 9 1.34c-4.6-.91-7.31 6.5-7.31 6.5 2.61 3.35 4.42 2.74 4.55 5.36a12.42 12.42 0 001 3.39 4.68 4.68 0 00.59 2 4.36 4.36 0 00.93 1.11c1.79 1.57 4.81 1.68 7.4.07 3.11-1.93 4.43-5.6 2.94-8.2a4.45 4.45 0 00-1.95-1.82z" fill="#ea1d25"/><path class="cls-3" d="M9.81 1.68c1.12 2-.08 4.85-2.67 6.46S1.54 9.47.42 7.51a2.7 2.7 0 01-.27-.66C-.44 5 .76 2.48 3.07 1s5-1.36 6.31.08a2.38 2.38 0 01.43.6z"/><path d="M9.27 1.34c.61 1.91-.5 4.35-2.72 5.73S1.74 8.31.41 6.84c-.61-1.91.5-4.35 2.72-5.73S8-.13 9.27 1.34z" style="mix-blend-mode:overlay" fill="#ee4a51"/><path d="M11.3 20.17h1.32a8.87 8.87 0 00.9-.13 3.22 3.22 0 00.5-.11 3.63 3.63 0 00.54-.15 10 10 0 001.11-.45 6.58 6.58 0 001.09-.68 4.06 4.06 0 00.51-.42l.25-.23.23-.25a7 7 0 00.79-1.08c.12-.19.2-.4.3-.59s.16-.41.22-.61.12-.42.15-.62.07-.4.07-.6a5.61 5.61 0 000-.58c0-.18 0-.36-.05-.53s-.06-.34-.1-.49-.08-.29-.12-.43-.21-.48-.28-.67l-.32-.55s.13.19.34.53a5.38 5.38 0 01.31.67 3.58 3.58 0 01.15.43l.11.49a4.58 4.58 0 01.07.55 5.71 5.71 0 010 .59c0 .2 0 .41-.06.62s-.09.41-.13.63-.15.42-.23.63-.19.42-.3.61a6.39 6.39 0 01-.81 1.12l-.24.26-.25.23a5.52 5.52 0 01-.53.43 7.28 7.28 0 01-1.12.68 8 8 0 01-1.14.43 3.91 3.91 0 01-.54.14 3.39 3.39 0 01-.52.1 8.21 8.21 0 01-.91.09h-.71z" style="mix-blend-mode:screen" opacity=".2" fill="#fff"/><path d="M5.78 10.92l.29.25c.08.1.18.22.28.36a4.36 4.36 0 01.27.53c.08.2.15.43.22.67s.13.49.19.75.13.52.2.8.17.53.26.8.2.53.3.79.23.5.34.73.24.46.36.67l.36.59c.12.17.23.33.32.48s.19.25.26.35l.24.32-.27-.28a3.39 3.39 0 01-.3-.33l-.37-.46-.39-.56c-.14-.21-.27-.43-.4-.67s-.24-.49-.37-.74-.22-.53-.32-.8-.18-.56-.24-.83-.14-.55-.19-.81-.11-.52-.16-.76a3.83 3.83 0 00-.18-.65 4.07 4.07 0 00-.21-.54c-.08-.15-.17-.27-.23-.37z" fill="#fff" opacity=".2"/><path d="M22.08 25.11l-2.43 4.2a6.33 6.33 0 00-5.35 2.63 3.28 3.28 0 00-.51 2.65c-.29 1.8.43 2.29.36 2.83A11.79 11.79 0 0112.42 40 3.64 3.64 0 0011 41.26a2 2 0 00-.22.44c-.51 1.27.26 2.56 1.88 3a4.76 4.76 0 004.58-1.17 3.29 3.29 0 00.34-.42 2.1 2.1 0 00.27-1.84c.63-1.81.17-2.4 1.55-3.43a10.67 10.67 0 001.6-1.59 5.55 5.55 0 002-1.82c1.3-2 .42-4.24-2-4.92l-.26-.06z" style="mix-blend-mode:multiply" opacity=".3" fill="#231f20"/></g></g></g></svg>