<svg xmlns="http://www.w3.org/2000/svg" viewBox="0 0 236.38 420.31"><defs><style>.cls-1{fill:#1a2e35}.cls-2{fill:#ffbf9d}.cls-3{fill:#ff9a6c}.cls-6{fill:#ff735d}</style></defs><g id="Capa_2" data-name="Capa 2"><g id="Peronsaje"><path class="cls-1" d="M28.3 236.62a6 6 0 012.82-4.68C56.18 215.36 75.06 178.61 77 147.5c.05-1.77.11-3.57.17-5.38 1.44-44.49 8-98.44 13.87-112.82 10.87-26.56 47.65-29 47.65-29 48.84-3.5 57.56 34 62.49 68.2C204.2 89.69 216 165.61 216 165.61l-9 3.48c-10.58 31.33-34.39 56.67-65.34 68.33-9 3.39-16.62 4.75-20.2 1.83a122.72 122.72 0 01-51.39 31.2c-7.89 2.4-16.15 4-24.36 3.24-5.33-.5-11-2.26-14.13-6.57a12.25 12.25 0 0110.51-19.5c-1.81-6.01-13.99-4.24-13.79-11z"/><path class="cls-2" d="M132.15 14l3.06-2.91 33 13.3a9.23 9.23 0 018.7 8.93l-.29 107.57c0 7.29-1.42 13.61-5.83 19.43l-4.63 6.12c-10.57 14-32.32 12.81-40.69-2.57a11.43 11.43 0 01-1.17-2.78 20.23 20.23 0 01-.49-2.41c-1-8.65-1-16.16-1-16.16-.59-9.5-.78-13.4-.79-13.31s-20.24-2.28-25.7-28.21c-2.72-12.94-2.21-30.7-1.45-48.18C95.93 28.63 112.71 14 132.15 14z"/><path class="cls-3" d="M122 129.25a66.72 66.72 0 0034.58-11.1s-7.9 18.55-34.22 17.41z"/><path class="cls-1" d="M139 100.51c-.59 0-.4 3.91-3.62 6.86s-7.41 2.73-7.41 3.28c0 .25 1 .71 2.74.67a9.72 9.72 0 006.19-2.51 8.46 8.46 0 002.78-5.75c.04-1.64-.44-2.59-.68-2.55zm37.27-21.25s-18.5 5.76-29-39.89c-3.58-15.6-18.05-28.24-18.05-28.24l5.87-1.77s36.51 10.28 37.12 10.74 9.21 18.9 9.21 18.9z"/><path class="cls-2" d="M171.71 77.56c-.09-1.94 1.93-6.65 3.84-7 5.1-1.06 14.38-1.11 15.12 11.94 1 17.83-17.1 15.17-17.16 14.66s-1.51-12.87-1.8-19.6z"/><path class="cls-3" d="M178.58 90c.07-.06.32.2.86.42a3.13 3.13 0 002.32-.09c1.85-.8 3.26-3.88 3.17-7.1a10.48 10.48 0 00-1.12-4.4 3.6 3.6 0 00-2.48-2.25 1.58 1.58 0 00-1.78 1c-.21.51-.08.86-.17.89s-.4-.27-.3-1a2 2 0 01.64-1.16 2.38 2.38 0 011.69-.55 4.39 4.39 0 013.4 2.58 10.56 10.56 0 011.36 4.91c.09 3.6-1.56 7.07-4.09 8a3.33 3.33 0 01-2.87-.31c-.58-.47-.69-.86-.63-.94z"/><path class="cls-1" d="M163.73 70.53a22.85 22.85 0 01-2.68-.53 16.23 16.23 0 01-6.35-3.69 22.28 22.28 0 01-3.31-3.88 29.27 29.27 0 01-2.69-5.21 111.52 111.52 0 01-3.85-13 135 135 0 00-4.1-12.95 73.86 73.86 0 00-4.65-10.08A54.83 54.83 0 00132 15c-.53-.7-1-1.22-1.28-1.58a4.73 4.73 0 00-.47-.52 2.94 2.94 0 00.4.58c.26.38.7.91 1.2 1.63a59.56 59.56 0 013.94 6.32 78.15 78.15 0 014.53 10.07c1.46 3.9 2.81 8.28 4.06 12.92a105.63 105.63 0 003.89 13 30 30 0 002.77 5.27 22.18 22.18 0 003.42 3.91 15.83 15.83 0 006.54 3.57 9.75 9.75 0 002.73.36z"/><path d="M188.1 146.63a4.4 4.4 0 00.19-.86c.12-.63.26-1.47.45-2.54l1.61-9.68-.43-.06c-.09.65-.19 1.37-.29 2.11v-.07l-.37.8.45.17a172.16 172.16 0 005.72-28.71 177 177 0 001.09-18.58c-.07-6.52 0-13.44-1.77-20.36a32.22 32.22 0 00-3.24-8.09 44.74 44.74 0 00-4.93-6.87c-3.63-4.19-7.54-7.79-11.1-11.37l-19.14-18.84L143.38 11l-3.55-3.41-.94-.87a1.84 1.84 0 00-.34-.28 1.84 1.84 0 00.28.34l.88.93c.83.85 2 2 3.45 3.52l12.77 12.83 19 19c3.55 3.6 7.45 7.22 11 11.36a35.13 35.13 0 018 14.65c1.71 6.76 1.68 13.66 1.76 20.15a179 179 0 01-1 18.5 179.67 179.67 0 01-5.46 28.65l.45.17.36-.81v-.06c.09-.75.18-1.46.26-2.11l-.43-.07c-.6 4.15-1.07 7.42-1.4 9.72-.15 1.07-.26 1.92-.34 2.55a5.29 5.29 0 00-.03.87zm14.04-82.45a2.75 2.75 0 00-.31-.75l-1-2.1c-.9-1.81-2.33-4.39-4.2-7.5s-4.25-6.73-7.06-10.63-6.13-8-9.83-12.14-7.49-7.83-11-11.07-6.92-6-9.82-8.14-5.3-3.89-7-5l-2-1.25a3.94 3.94 0 00-.72-.4s.2.21.62.53l1.89 1.38c1.65 1.17 4 2.93 6.84 5.17s6.13 5 9.66 8.24 7.23 7 10.94 11.06 7 8.22 9.83 12 5.25 7.41 7.17 10.48 3.42 5.59 4.41 7.35l1.17 2a3.58 3.58 0 00.41.77z" fill="#375a64"/><path d="M181.71 139.88c-.62-.9-4.78-8.93-4.78-8.93l-23.58 20.33s-23.11 19.36-23.11 18.1l-3.69-18.62-4.55-16.94-8.48 12.81s-26.64 52.24-26.64 52.87-16.49 54.69-16.49 54.69l3.55 21.91.42 77.66 49.64-2.09 9.85-15.67 16.91-99.57z" fill="#fff"/><path class="cls-1" d="M126.05 337.04H71.23l-16.16 83.27H164.9l-38.85-83.27z"/><path class="cls-6" d="M190.7 152.84l32 12-29.55 131.64s1.74 35.56 8 53.69 21.06 70.14 21.06 70.14h-98.3s-4.18-71.43-2.52-96.93 1-73.62 10.73-98.72 49-86.77 49-86.77zm-70.14-17.55l-14.51 12-39.81 5.93S47.4 221.45 50.88 248.3s-1.37 73.28-1.37 73.28l-17.46 98.73h38.34S81.32 304.85 82 306.24s2.75-56.48 6.93-75.3 25.25-77.76 25.25-77.76z"/><path class="cls-6" d="M16 305.2s-16-7.32-16-21.62 9.76-34.51 11.85-42.18 49.51-89.25 54.39-88.21l4.88 1.05L46 264.41l34.17 8.36-14.58 42z"/><path class="cls-2" d="M65 269.6l-7-22.77-1.21-15.52-16.56-11s-4.44.52-3.06 4 8.09 9.64 8.09 9.64l4 11.05-6.56-11.28-9.4-4.65-9.3.69s-1.72 4.13 2.58 4.3h4.65l7.06 5.69 4.41 10.67-6.65-10.33-9.81-3.49-6.24 1.6s-1.72 2.75 1.38 3.1 5.16.34 5.16.34l5.68 3.3 5 10.47-8.78-7.23-11.37-1.35s-1.89 2.73 1 3.76 8.78 4.14 8.78 4.14l6.37 7.74z"/><path class="cls-1" d="M121 337a2.86 2.86 0 00.16-.51c.11-.39.24-.9.41-1.53l1.47-5.9c1.28-5.17 3.1-12.57 5.36-21.69s5-20.06 8.09-32.14c1.56-6 3.21-12.37 5-18.9q1.33-4.92 2.84-10c.5-1.67 1.07-3.34 1.61-5a43 43 0 012.06-4.83c5.85-11.78 11.85-22.87 17.26-33.1s10.45-19.51 14.76-27.56l.11-.21-.17-.16c-1.1-1-2.17-1.9-3.25-2.78a17.25 17.25 0 00-1.68-1.23 1.17 1.17 0 00-.25-.14l-.15-.06c-.06 0 0 0 0 0l.09.12a.27.27 0 01-.07.3.3.3 0 01-.08.05h8.88l.06-.16c2.28-5.89 4.09-10.56 5.34-13.81.6-1.57 1.06-2.8 1.39-3.68l.34-1c.07-.21.11-.32.09-.33a1.55 1.55 0 00-.15.31c-.11.24-.24.54-.4.92l-1.5 3.63c-1.31 3.23-3.19 7.88-5.55 13.74l.22-.16c-2.26-.05-4.69-.11-7.3-.12h-1a4 4 0 00-.55 0h-.07l-.09.06a.31.31 0 00-.08.31c.1.17.08.1.1.13a1 1 0 00.16.07h.08a1.8 1.8 0 01.18.1 15.51 15.51 0 011.6 1.2c1.06.87 2.13 1.81 3.21 2.79l-.07-.38c-4.34 8-9.38 17.32-14.89 27.49s-11.45 21.29-17.32 33.1a45.34 45.34 0 00-2.09 5c-.54 1.7-1.11 3.38-1.61 5.06-1 3.36-2 6.69-2.84 10-1.8 6.55-3.44 12.89-5 18.94-3.07 12.09-5.73 23-7.92 32.18L122.74 329c-.56 2.54-1 4.52-1.32 5.93-.14.64-.25 1.16-.33 1.55a2.68 2.68 0 00-.09.52zm-50.61-77.39a7.05 7.05 0 000-1.22c0-.88-.11-2.05-.19-3.51 0-.76-.1-1.61-.16-2.52s0-1.94 0-3c0-2.16 0-4.62.16-7.34a152.72 152.72 0 018.26-41.51A143 143 0 0185.14 184a143.06 143.06 0 017.73-15.07c2.55-4.43 4.91-8.3 6.88-11.49l4.66-7.46 1.24-2a3.17 3.17 0 00.39-.72 4.85 4.85 0 00-.5.64l-1.35 1.93c-1.16 1.69-2.82 4.17-4.85 7.34s-4.44 7-7 11.42a136.61 136.61 0 00-7.88 15.1 139.2 139.2 0 00-6.78 16.58A146.82 146.82 0 0069.61 242c-.18 2.73-.09 5.2 0 7.36 0 1.08.05 2.09.07 3s.16 1.77.23 2.54c.14 1.45.26 2.62.34 3.49a6.3 6.3 0 00.14 1.22zm-55.53 44.98a6.44 6.44 0 001 .27l2.86.66 10.81 2.36 37.77 8 .33.07.11-.32C70.9 306.28 74.38 296 78 285.22c1.29-3.84 2.57-7.62 3.78-11.21l.15-.42-.44-.1-28.42-6.68-12.2-2.81-5.52-1.28a26.16 26.16 0 00-5.18-.89 19.52 19.52 0 00-8.77 1.78 22.12 22.12 0 00-5.62 3.68 19 19 0 00-2.78 3.08l-.61.92a1.21 1.21 0 00-.18.32 26.89 26.89 0 013.79-4.15 22.55 22.55 0 015.6-3.51 19.33 19.33 0 018.57-1.64 25.24 25.24 0 015.06.93l5.51 1.33 12.23 2.93 28.41 6.77-.29-.52c-1.22 3.59-2.5 7.37-3.79 11.21-3.67 10.78-7.14 21.04-10.3 30.45l.44-.25-37.84-7.73-10.85-2.15-2.89-.54a6.32 6.32 0 00-1-.15z"/><path class="cls-6" d="M199.54 359.28l-52.33 4.81 9 16.02 55.13-5.39-11.8-15.44z"/><path class="cls-1" d="M199.54 359.28a1.22 1.22 0 00.19.3l.58.83 2.29 3.11 8.52 11.37.2-.44-53.2 5.06-2 .19.4.21-9-16-.31.59 37.43-3.6 10.9-1.12 2.93-.32a9.21 9.21 0 001-.16 6 6 0 00-1 0l-2.89.21-10.87.88-37.63 3.3-.6.05.3.53 9 16 .13.23h.26l1.95-.19 53.25-5.31.5-.05-.31-.4-8.8-11.29-2.38-3a10 10 0 00-.84-.98z"/><path class="cls-6" d="M58.64 364.66l-8.18 15.45-17.58-3.6 9.32-14.23 16.44 2.38z"/><path class="cls-1" d="M58.64 364.66a5.59 5.59 0 00-1.09-.23l-3.27-.56c-2.84-.48-7-1.18-12-1.94h-.22l-.12.19-9.37 14.2-.33.5.59.12.88.18 16.71 3.36.26.06.12-.24c2.47-4.73 4.46-8.69 5.82-11.41l1.56-3.14a8.5 8.5 0 00.49-1.06 13.17 13.17 0 00-.69 1.15L56.19 369c-1.5 2.69-3.6 6.46-6 11l.38-.18-16.69-3.47-.88-.17.26.62 9.27-14.27-.34.15c4.86.67 8.93 1.16 11.83 1.52l3.39.4c.76.03 1.2.07 1.23.06z"/><path d="M204.95 375.35l2.18 4.76-54.38 4.98-4.05-18.34 7.51 13.36 48.74-4.76zm-11.2-70.56s-8.54 17.88-19.63 23.12c-15.12 7.15-53 2.48-53 2.48l-.1-10.86L164.9 322z"/><path class="cls-6" d="M220.69 164s15.34 1.05 15.69 41.14-46.72 107.38-54.74 114-17.18 11.08-41.34 7.5c-30.31-4.49-51.4-8.54-51.4-8.54l4.19-36.61 54-2.44 43.92-90.3s14.69-26.49 29.68-24.75z"/><path d="M79.91 296.87c5.94-2.48 12.57-2.53 19-2.55l25.59-.06c5.52 0 11.11 0 16.45 1.35s10.5 4.32 13.4 9l13.37 11a88.44 88.44 0 01-51.56-3c-4.14-1.54-8.21-3.41-12.57-4.09-11.56-1.82-23.26 4.89-34.76 2.75 0-6.39 5.17-11.92 11.08-14.4z"/><path class="cls-2" d="M166.57 259.61s-10.37 4.11-15.34 5-11 2.81-19 6.05a129.74 129.74 0 00-12.67 5.84l-8.07 28.09s13.4 8.43 28.52 8 28.53 4.46 30.47 3.1 2.16-3.74 0-4.82-11.32-2.38-11.32-2.38l-7.91-3.24s27 2.37 29.17 1.29 4.32-2.59 3.46-5a3.4 3.4 0 00-3-2.37s5.84.21 5.62-2.16a7.42 7.42 0 00-3.24-5c-.86-.44-12.2-5-12.2-5l-14.57-2.9 14-.56 12.23 3.41s4.87.55 3.79-3.56-16-8.64-16-8.64l-19-1.31s14.7-2.15 16.21-6.69-1.15-7.15-1.15-7.15zm-47.03 16.86h-.94l-37.11-1.64-11.1 32.4 41.08-2.67 8.07-28.09z"/><path class="cls-3" d="M151.92 294.9a33.2 33.2 0 004.54.35c2.8.17 6.65.49 10.88 1.13s8 1.47 10.72 2.14a31.06 31.06 0 004.44 1 21.72 21.72 0 00-4.29-1.57 81 81 0 00-10.75-2.39 80.14 80.14 0 00-11-.9 21 21 0 00-4.54.24z"/><path class="cls-1" d="M179.71 209.19a11.83 11.83 0 001.22-1.78c.75-1.16 1.82-2.86 3.2-4.92A180.91 180.91 0 01195.62 187a88.28 88.28 0 0113.69-13.56 71.61 71.61 0 016.71-4.34 10.57 10.57 0 00-2 .82 19.24 19.24 0 00-2.23 1.21 25.85 25.85 0 00-2.81 1.85 78.1 78.1 0 00-14 13.5 143.32 143.32 0 00-11.36 15.75c-1.32 2.1-2.32 3.85-3 5.07a10.89 10.89 0 00-.91 1.89zm-24.04 53.41a8.64 8.64 0 00.84-1.8c.54-1.33 1.22-3 2-5 1.7-4.23 4.09-10 6.85-16.41s5.41-12.07 7.34-16.19l2.28-4.89a9.22 9.22 0 00.75-1.84 9.13 9.13 0 00-1 1.7c-.62 1.11-1.48 2.74-2.52 4.78-2.06 4.06-4.78 9.74-7.56 16.12s-5.08 12.24-6.64 16.52c-.79 2.14-1.4 3.88-1.79 5.09a9.29 9.29 0 00-.55 1.92zm-25-92.93a4.2 4.2 0 00.94-.42l2.54-1.34 9-5-.53-.26c.44 4 1.18 8.75 1.92 13.77.3 2 .59 4 .82 5.94l.09.74.56-.48c4.8-4.08 9-7.68 11.93-10.27l3.46-3.07a7.52 7.52 0 001.18-1.19 8.39 8.39 0 00-1.36 1l-3.61 2.9c-3.05 2.48-7.29 6-12.11 10l.65.26c-.22-1.92-.5-3.92-.8-6-.74-5-1.52-9.73-2-13.73l-.06-.54-.46.27-8.83 5.3-2.45 1.52c-.61.36-.9.56-.88.6zM117 146.63a11.12 11.12 0 00-.07 2.13c0 1.52.06 3.46.11 5.78.12 4.88.35 11.63.65 19.07v1.85l.7-1.1 8.92-14.07-.56-.07 2.45 6.72a13.65 13.65 0 001 2.44 14.63 14.63 0 00-.69-2.55c-.57-1.77-1.31-4.06-2.19-6.81l-.2-.62-.36.55-9.08 14 .75.2v-.54c-.3-7.45-.62-14.19-.89-19.06-.14-2.32-.27-4.25-.36-5.78a10.54 10.54 0 00-.18-2.14zm-49.11 21.65a6.21 6.21 0 001.24-.66l-.13-.12c-1 3.5-3.83 14.94-7 28.5-1.92 8.27-3.62 15.77-4.82 21.21l-1.36 6.44a14.45 14.45 0 00-.4 2.39 12.94 12.94 0 00.7-2.31c.42-1.66 1-3.8 1.63-6.39 1.33-5.41 3.12-12.88 5.05-21.15 3.16-13.58 5.71-25.07 6.37-28.65v-.29l-.23.16c-.72.59-1.08.83-1.05.87zM117 322.82a6.25 6.25 0 001 .31l2.8.76c2.44.63 6 1.46 10.42 2.28a130.21 130.21 0 0015.73 1.9 73.12 73.12 0 0019.36-1.29 39.24 39.24 0 009.53-3.33 35.34 35.34 0 004.13-2.49 29.41 29.41 0 003.4-3.15 126.12 126.12 0 009.79-12.46c2.6-3.68 4.59-6.73 5.95-8.85l1.53-2.47a5.08 5.08 0 00.48-.89 3.94 3.94 0 00-.62.8l-1.66 2.38c-1.43 2.07-3.5 5.06-6.15 8.69a132.32 132.32 0 01-9.87 12.28 28.21 28.21 0 01-3.31 3 32.84 32.84 0 01-4 2.4 38.21 38.21 0 01-9.34 3.25 74.07 74.07 0 01-19.15 1.34 137.35 137.35 0 01-15.66-1.72c-4.43-.74-8-1.48-10.45-2L118 323a4 4 0 00-1-.18z"/><path d="M189.24 156.55l-4.15 19.69-3.38-2.1 1.95 4.68-42.37 76.84 5.5-17.55 32.98-62.41-5.22-4.18h8.77l5.92-14.97z"/><path class="cls-2" d="M123.78 93.28s-9.09 2.78-12.38.93 3.07-14.06 7-21.86"/><path d="M123.78 93.28a30.48 30.48 0 01-8.94 2 10.7 10.7 0 01-2.38-.18 4.55 4.55 0 01-1.19-.41 2.07 2.07 0 01-1-1 5 5 0 01-.25-2.51 14.45 14.45 0 01.49-2.3 49.27 49.27 0 013.5-8.48c1.36-2.73 2.82-5.39 4.35-8-1.19 2.8-2.47 5.56-3.69 8.33a73.76 73.76 0 00-3.2 8.44 14.64 14.64 0 00-.44 2.15 4.15 4.15 0 00.14 2 1.09 1.09 0 00.55.57 4 4 0 001 .35 9.45 9.45 0 002.15.24 26 26 0 004.47-.34c1.46-.28 2.95-.55 4.44-.86z" fill="#855a4c"/><path d="M133.94 68.59c.11 4.23 2.05 7.6 4.35 7.55s4.08-3.53 4-7.75-2.05-7.6-4.35-7.55-4.1 3.53-4 7.75zm-32.44.79c.1 4.22 2 7.6 4.35 7.55s4.08-3.53 4-7.75-2-7.6-4.34-7.55-4.11 3.53-4.01 7.75z" fill="#1d262d"/><path d="M148.81 49.05s-10-10.47-19.6 2.53a43.4 43.4 0 0119.6-2.53zm-33.37 4.24s-10-10.47-19.61 2.53a43.43 43.43 0 0119.61-2.53z" fill="#564242"/></g></g></svg>