<svg xmlns="http://www.w3.org/2000/svg" viewBox="0 0 756.42 757.87"><defs><clipPath id="clip-path" transform="translate(-.24 -.82)"><path fill="none" d="M756.24 757.86l4-757.86L4 .59 0 757.86h756.24z"/></clipPath><style>.cls-4{fill:#4d72aa}</style></defs><g id="Capa_2" data-name="Capa 2"><g clip-path="url(#clip-path)" opacity=".3" id="Fondo"><path class="cls-4" d="M443.37 662.46a.57.57 0 000-.22.67.67 0 00-.87-.41l-28.13 10.36a.68.68 0 10.47 1.27l28.12-10.35a.69.69 0 00.41-.65zM605.9 340.14a.7.7 0 00-.47-.64l-10.65-3.56a.69.69 0 00-.86.43.66.66 0 00.43.86l10.65 3.56a.67.67 0 00.86-.43.85.85 0 00.04-.22zM121.56 652.49a.68.68 0 00-1.3-.28l-6.6 14.15a.69.69 0 00.33.91.67.67 0 00.9-.33l6.6-14.16a.59.59 0 00.07-.29zm-65-442.58a.7.7 0 00-.29-.54l-11.63-8.27a.68.68 0 00-.78 1.11l11.62 8.26a.68.68 0 001-.16.73.73 0 00.08-.4zM637.65 598.4a.67.67 0 00-.7-.65l-42.53 1.69a.72.72 0 00-.66.71.69.69 0 00.71.65l42.53-1.71a.68.68 0 00.65-.69zM400.36 245.31a.67.67 0 00-.32-.58.69.69 0 00-.94.22l-21.74 35a.69.69 0 00.22.94.68.68 0 00.94-.22l21.74-35a.68.68 0 00.1-.36zM26.61 757.18a.67.67 0 00-.62-.67l-14.19-1.28a.67.67 0 00-.74.61.68.68 0 00.61.74l14.2 1.28a.68.68 0 00.74-.61zM582.39 7.86a.66.66 0 00-.07-.3.67.67 0 00-.92-.29l-12.35 6.35a.68.68 0 00.63 1.21L582 8.47a.67.67 0 00.39-.61zM470.13 215l-2.4-40.79a.67.67 0 00-.72-.63.64.64 0 00-.64.71l2.41 40.71a.67.67 0 00.71.64.67.67 0 00.64-.64zm159.53 322.1a.68.68 0 00-1.27-.32l-17.08 30.61a.68.68 0 00.27.92.67.67 0 00.92-.26l17.08-30.61a.68.68 0 00.08-.34zM374.93 381.76a.67.67 0 00-.08-.33l-4.55-8a.68.68 0 10-1.18.67l4.54 8a.68.68 0 00.93.26.67.67 0 00.34-.6zM84.42 222.26a.67.67 0 00-.55-.66.69.69 0 00-.8.54l-2.21 11.36a.68.68 0 001.34.26l2.21-11.36a.66.66 0 00.01-.14zm335.04 229.01a.64.64 0 00-.1-.35.68.68 0 00-.93-.23l-12.53 7.49a.68.68 0 00.7 1.17l12.53-7.49a.68.68 0 00.33-.59zm180.26 187.12a.68.68 0 00-1-.57l-34.49 21.55a.68.68 0 10.72 1.15L599.4 639a.67.67 0 00.32-.61zm-118.78-288.7a.69.69 0 00-.11-.36.68.68 0 00-.94-.21l-34.3 22.18a.68.68 0 00.74 1.14l34.3-22.17a.7.7 0 00.31-.58zM79.26 66.4a.79.79 0 00-.05-.25.69.69 0 00-.89-.37L48.37 77.86a.68.68 0 00.51 1.26L78.83 67a.69.69 0 00.43-.6zM338.3 521.47a.65.65 0 00-.22-.5.68.68 0 00-1 0l-7.46 8.2a.68.68 0 000 1 .69.69 0 001 0l7.45-8.2a.69.69 0 00.23-.5zm-296.2-3.28a.66.66 0 00-.15-.42l-21.24-26.3a.68.68 0 00-1-.11.69.69 0 00-.1 1l21.24 26.3a.68.68 0 001 .1.63.63 0 00.25-.57zM13.74 406.24a.63.63 0 000-.19.68.68 0 00-.85-.45L1.73 409a.68.68 0 00.4 1.3l11.13-3.43a.69.69 0 00.48-.63zm393.98 346.85a.68.68 0 00-.38-.61l-18.63-9.25a.68.68 0 00-.61 1.22l18.64 9.25a.67.67 0 00.91-.31.63.63 0 00.07-.3zM116.3 589.2a.67.67 0 00-.18-.46.68.68 0 00-1 0l-9.87 9.26a.68.68 0 00.93 1l9.91-9.26a.7.7 0 00.21-.54zm633.23 16.94a.69.69 0 00-.23-.5l-37.72-34.1a.67.67 0 00-1 0 .68.68 0 000 1l37.72 34.11a.67.67 0 001 0 .71.71 0 00.23-.51zm-59.13 3.8a.62.62 0 00-.14-.41l-30.32-40a.68.68 0 00-1-.14.69.69 0 00-.13 1l30.32 40a.68.68 0 001.22-.41zM54.76 33a.78.78 0 000-.22l-8.64-25a.68.68 0 10-1.28.44l8.63 25a.68.68 0 001.29-.22zm696.59 275.36a.74.74 0 00-.08-.3.67.67 0 00-.91-.31l-38.49 19.11a.69.69 0 00-.31.91.69.69 0 00.92.31L751 309a.68.68 0 00.35-.64zM396.41 430.54a.68.68 0 00-.48-.65l-32.87-10.17a.68.68 0 10-.4 1.3l32.87 10.17a.68.68 0 00.85-.45.75.75 0 00.03-.2zm193.92 102.83a.37.37 0 010-.11.68.68 0 00-.79-.55l-12.32 2.07a.67.67 0 00-.56.78.69.69 0 00.79.56l12.32-2.07a.7.7 0 00.56-.68zM14.11 100.89a.68.68 0 00-.49-.64l-9.06-2.66a.68.68 0 10-.38 1.3l9.05 2.66a.68.68 0 00.85-.46.64.64 0 00.03-.2zM356 572.3a.68.68 0 00-.63-.67l-52.44-3.5a.69.69 0 00-.73.64.67.67 0 00.64.72l52.44 3.5a.68.68 0 00.72-.64zm25.24-57.3a.67.67 0 00-.59-.67.69.69 0 00-.77.58l-5.07 37.19a.7.7 0 00.59.77.68.68 0 00.76-.59l5.07-37.19a.28.28 0 00.01-.09zM162.72 397.7a.67.67 0 00-.17-.44l-26-29.1a.68.68 0 10-1 .9l26 29.1a.68.68 0 001.19-.46zm97.05-76.15a.66.66 0 00-.36-.59l-21.75-11.61a.68.68 0 00-.64 1.2l21.75 11.61a.68.68 0 00.92-.28.73.73 0 00.08-.33zm295.31-133.34a.69.69 0 00-.67-.68.7.7 0 00-.69.68l-.2 19.49a.66.66 0 00.67.68.67.67 0 00.69-.67l.21-19.49zM321.31 687.25a.67.67 0 00-.36-.6l-9.76-5.07a.68.68 0 00-.62 1.21l9.75 5.06a.67.67 0 00.92-.29.7.7 0 00.07-.31zm194.05-520.01a.68.68 0 00-1.31-.25l-3.83 9.47a.68.68 0 001.26.52l3.83-9.48a.63.63 0 00.05-.26zm-304.67 528a.7.7 0 00-.11-.37l-29.31-45a.68.68 0 00-.94-.2.69.69 0 00-.2.94l29.31 45a.67.67 0 00.94.2.68.68 0 00.31-.57zm3.68-413.99a.65.65 0 00-.06-.26l-6.48-15.43a.68.68 0 00-1.26.53l6.49 15.43a.68.68 0 00.89.37.7.7 0 00.42-.64zm429.47 469.21a.67.67 0 000-.24L639.86 740a.68.68 0 00-1.27.49l3.94 10.19a.68.68 0 001.31-.25zm-266.23-536.3a.66.66 0 00-.17-.44.68.68 0 00-1-.08l-9.09 7.82a.68.68 0 00.89 1l9.09-7.81a.69.69 0 00.28-.49zm-96.26 491.19a.69.69 0 00-.37-.6l-20.42-10.5a.68.68 0 00-.63 1.21L280.36 706a.68.68 0 00.91-.29.61.61 0 00.08-.36zm440.08 7.57a.68.68 0 00-.65-.67l-32.29-1.67a.68.68 0 00-.72.65.67.67 0 00.65.71l32.3 1.67a.68.68 0 00.71-.65zM432.8 569.76a.7.7 0 00-.11-.37l-19.26-29.06a.68.68 0 00-1.13.75l19.25 29.06a.68.68 0 001.25-.38zM624.29 12.07a.62.62 0 00-.17-.45l-7.38-8.22a.68.68 0 00-1-.06.67.67 0 00-.06 1l7.39 8.23a.68.68 0 001 .05.66.66 0 00.22-.55zm-343.54 422.7a.69.69 0 00-.45-.63l-16.38-5.81a.69.69 0 00-.87.42.68.68 0 00.42.87l16.37 5.8a.68.68 0 00.87-.41.67.67 0 00.04-.24zm426.44 47.76a.6.6 0 00-.05-.26L698 460.58a.68.68 0 00-1.26.53l9.18 21.69a.67.67 0 00.89.36.66.66 0 00.38-.63zM43.74 557.7a.76.76 0 000-.15.69.69 0 00-.82-.51L9.63 564.7a.68.68 0 10.31 1.3l33.28-7.65a.67.67 0 00.52-.65zm75.81-423.87a.67.67 0 00-.32-.57.68.68 0 00-.94.22l-5.23 8.52a.68.68 0 00.22.94.69.69 0 00.94-.23l5.23-8.54a.65.65 0 00.1-.34zm245.19 575.62a.64.64 0 00-.16-.43l-6.82-7.94a.68.68 0 00-1-.08.69.69 0 00-.07 1l6.82 7.94a.68.68 0 001.19-.45zm291.15-85.79a.71.71 0 00-.24-.52.68.68 0 00-1 .08l-28.64 33.84a.67.67 0 00.08 1 .66.66 0 001-.08l28.65-33.84a.68.68 0 00.15-.48zM519 348.72a.67.67 0 00-.51-.65.69.69 0 00-.83.49l-2.94 11.63a.68.68 0 101.32.33L519 348.9a.55.55 0 000-.18zm43.48-14.23a.66.66 0 00-.4-.61.68.68 0 00-.9.35l-4 9.16a.67.67 0 00.35.89.69.69 0 00.9-.35l4-9.16a.66.66 0 00.05-.28zM749.12 640.2a.69.69 0 00-.53-.65l-28.37-6.42a.69.69 0 00-.82.52.68.68 0 00.52.81l28.37 6.41a.67.67 0 00.81-.51.78.78 0 00.02-.16zM238.15 148.57a.69.69 0 00-.11-.36l-7.21-11.09a.67.67 0 00-.94-.2.68.68 0 00-.2.94l7.2 11.09a.69.69 0 001.26-.38zM666 455.71a.72.72 0 00-.34-.58.68.68 0 00-.93.25l-17.41 30a.68.68 0 001.17.69l17.42-30a.73.73 0 00.09-.36zM95.93 552.69a.71.71 0 00-.2-.48.68.68 0 00-1 0l-12.34 12.43a.69.69 0 000 1 .7.7 0 001 0l12.37-12.42a.67.67 0 00.17-.53zm246.71-262.44a.74.74 0 00-.1-.35.69.69 0 00-.94-.23l-7.86 4.85a.69.69 0 00-.22.94.68.68 0 00.94.22l7.85-4.85a.68.68 0 00.33-.58zM370.58 331a.52.52 0 000-.21l-3.2-9.53a.68.68 0 00-1.29.43l3.2 9.53a.68.68 0 001.33-.22zm379.19-185.53a.59.59 0 00-.1-.34l-4.85-8a.68.68 0 10-1.16.71l4.85 8a.67.67 0 00.93.23.7.7 0 00.33-.6zM235.5 449.68a.41.41 0 000-.11.68.68 0 00-.79-.55l-16.22 3a.67.67 0 00-.55.79.68.68 0 00.79.55l16.22-2.95a.68.68 0 00.55-.73zm385.75 13.95a.71.71 0 00-.18-.45.68.68 0 00-1-.05l-30.57 27.49a.68.68 0 10.91 1L621 464.14a.68.68 0 00.25-.51zM5.06 528.62a.22.22 0 000-.08l-1.31-9.85a.69.69 0 00-.77-.58.66.66 0 00-.58.76l1.31 9.85a.68.68 0 001.36-.1zm460.12 211.09a.69.69 0 00-.05-.24L446 690.88a.67.67 0 00-.88-.38.69.69 0 00-.39.88L463.86 740a.68.68 0 001.32-.26zm285.66-336.64a.66.66 0 00-.16-.44l-11.91-14a.68.68 0 00-1 .88l11.9 14a.68.68 0 001.2-.44zM238.72 557v-.08L235 527.18a.68.68 0 10-1.35.16l3.67 29.71a.68.68 0 001.36-.08zm-25.99-230.88a.68.68 0 00-.52-.66L160 312.78a.68.68 0 10-.33 1.32l52.24 12.68a.68.68 0 00.82-.5.88.88 0 000-.16zm210.1-108.42a.58.58 0 000-.19l-12.41-41a.68.68 0 00-.85-.45.67.67 0 00-.45.84l12.41 41a.68.68 0 001.33-.2zM301.14 406.33a.69.69 0 00-.14-.33l-9.09-13.9a.68.68 0 00-.94-.2.69.69 0 00-.2.94l9.09 13.9a.67.67 0 00.94.2.69.69 0 00.34-.61zm66.59-311.07a.67.67 0 00-.26-.53L333.4 68.37a.68.68 0 00-.83 1.08l34.07 26.35a.67.67 0 00.95-.12.65.65 0 00.14-.42zM171 57.33a.68.68 0 00-.88-.64l-12.38 3.76a.68.68 0 00.4 1.31L170.56 58a.69.69 0 00.44-.67zM32.5 242.8a.67.67 0 00-.2-.47l-28-28.54a.67.67 0 00-1 0 .68.68 0 000 1l28 28.55a.68.68 0 001 0 .67.67 0 00.2-.54zm123.66 212.25a.72.72 0 00-.07-.28L142.28 425a.68.68 0 00-.9-.33.67.67 0 00-.33.9l13.81 29.75a.68.68 0 001.3-.29zM15.36 141.8a.68.68 0 00-.47-.64l-10-3.23a.7.7 0 00-.86.44.68.68 0 00.44.86l10 3.23a.7.7 0 00.86-.44.83.83 0 00.03-.22zM164 693.9a.7.7 0 00-.59-.67.68.68 0 00-.77.58l-1.39 9.44a.68.68 0 00.57.78.7.7 0 00.78-.58L164 694v-.1zM704.07 41.33a.68.68 0 00-1.35-.11L700.16 55a.7.7 0 00.55.8.68.68 0 00.79-.55l2.56-13.8s.01-.07.01-.12zm-481.7 14.25a.72.72 0 00-.08-.32.7.7 0 00-.93-.28l-11.53 6.25a.7.7 0 00-.28.93.69.69 0 00.93.27L222 56.18a.68.68 0 00.37-.6zm375.7 382.35a.69.69 0 00-.28-.54l-10-7.32a.68.68 0 00-.95.15.68.68 0 00.15.95l10 7.32a.7.7 0 001-.15.76.76 0 00.08-.41zM433.26 111.21a.68.68 0 00-1.36 0l.21 47.45a.67.67 0 00.68.67.67.67 0 00.68-.68l-.21-47.45zM468.72 632a.7.7 0 00-.48-.65.68.68 0 00-.85.45l-3.15 10.25a.68.68 0 001.3.4l3.15-10.25a.75.75 0 00.03-.2zm2.09-86.47a.71.71 0 00-.51-.66l-15.34-4a.68.68 0 10-.34 1.31l15.38 4.01a.68.68 0 00.83-.48.62.62 0 00-.02-.18zM353.47 247.94a1 1 0 000-.17.68.68 0 00-.83-.49l-13.35 3.43a.68.68 0 10.34 1.32L353 248.6a.68.68 0 00.47-.66zM754.21 560.5a.13.13 0 000-.06l-1.47-17.74a.68.68 0 00-.74-.62.67.67 0 00-.62.73l1.48 17.75a.68.68 0 001.36-.06zM194.63 422.15a.37.37 0 000-.11.68.68 0 00-.78-.56L181 423.69a.68.68 0 00-.55.79.67.67 0 00.78.55l12.83-2.21a.67.67 0 00.57-.67zm10.28 335.39a.7.7 0 00-.07-.31l-19-37.24a.68.68 0 10-1.21.61l19 37.25a.68.68 0 00.92.3.67.67 0 00.36-.61zm547.37-322.47a.65.65 0 00-.24-.51.67.67 0 00-1 .08l-16.94 20.13a.69.69 0 00.08 1 .68.68 0 001-.08l16.94-20.14a.62.62 0 00.16-.48zm-66.99 116.41a.59.59 0 00-.07-.29l-4.79-9.78a.68.68 0 00-.91-.31.69.69 0 00-.32.91l4.8 9.78a.69.69 0 00.91.31.7.7 0 00.38-.62zM171 7.83a.68.68 0 00-1.36 0l-.79 9.65a.69.69 0 00.62.73.67.67 0 00.74-.62l.79-9.7zm323.85 692.22a.67.67 0 00-.62-.67.68.68 0 00-.74.62l-1.33 16.33a.69.69 0 00.62.74.68.68 0 00.74-.62l1.33-16.34zM683 683.55a.69.69 0 00-.63-.67L644.25 680a.68.68 0 00-.11 1.36l38.08 2.85a.67.67 0 00.72-.63.13.13 0 00.06-.03zM142.63 553a.66.66 0 00-.46-.63l-12.76-4.34a.68.68 0 10-.44 1.28l12.76 4.34a.68.68 0 00.87-.42.91.91 0 00.03-.23zm-38.91 178.82a.67.67 0 00-.25-.52l-12.15-9.94a.68.68 0 00-.87 1l12.16 9.94a.66.66 0 001-.1.64.64 0 00.11-.38zM651.38 428.4a.69.69 0 00-.37-.6L610.79 407a.67.67 0 00-.91.3.66.66 0 00.29.91L650.39 429a.68.68 0 00.91-.29.61.61 0 00.08-.31zM96.07 443.13a.68.68 0 00-1.32-.23l-3 8.51a.67.67 0 00.41.87.68.68 0 00.87-.41l3-8.5a.67.67 0 00.04-.24zm106.58-57.8a.67.67 0 00-.08-.3l-11.66-23.19a.68.68 0 00-1.22.61l11.67 23.19a.67.67 0 00.91.3.68.68 0 00.38-.61zm-83.34 21.61a.68.68 0 00-1.18-.45l-6.52 7.17a.68.68 0 000 1 .67.67 0 001 0l6.52-7.18a.62.62 0 00.18-.54zm636.32-219.55a.69.69 0 00-.31-.56l-13.27-8.89a.68.68 0 10-.76 1.13l13.28 8.93a.69.69 0 001.06-.57zM612.25 47.5a.76.76 0 000-.15.68.68 0 00-.82-.5l-48.72 11.36a.69.69 0 00-.51.82.68.68 0 00.81.51l48.72-11.37a.67.67 0 00.52-.67zM459.65 9.92a.67.67 0 00-.26-.53l-7.84-6.06a.68.68 0 00-1 .12.7.7 0 00.13 1l7.84 6.06a.68.68 0 00.95-.12.69.69 0 00.18-.47zm259.81-.67a.68.68 0 00-.52-.66L685.88.84a.68.68 0 10-.31 1.32l33.06 7.76a.68.68 0 00.81-.51.44.44 0 00.02-.16zM24 283.85a.68.68 0 00-.26-.53L2.87 266.91a.67.67 0 00-1 .11.69.69 0 00.13.98l20.88 16.41a.68.68 0 00.95-.11.7.7 0 00.17-.45zm231.37 96.86a.65.65 0 00-.29-.55.68.68 0 00-1 .16l-24 34.35a.68.68 0 001.12.78l24-34.35a.71.71 0 00.17-.39zm38.88-219.86a15.65 15.65 0 01-26.89-10.63 15.71 15.71 0 014.4-11.13 15.64 15.64 0 0126.89 10.62v.14a15.57 15.57 0 01-4.4 11zm-25.53-10.65a14.29 14.29 0 0014.52 14.05 14.29 14.29 0 0014.05-14.39v-.13a14.29 14.29 0 00-28.57.35zM505.18 591a17 17 0 110-1.22c.04.42.03.82 0 1.22zm-17.84 14.45a15.55 15.55 0 0016.48-14.54 15.54 15.54 0 00-31-1.94v1.1a15.56 15.56 0 0014.52 15.39zm-220.52 38.83a4.32 4.32 0 01-5.3 3.06 4.33 4.33 0 115.44-4.21 4.16 4.16 0 01-.14 1.15zm-6.75.37a3 3 0 001.8 1.38 3 3 0 002.25-.3 2.93 2.93 0 001.38-1.81 3 3 0 00-5.73-1.52 3 3 0 00-.1.79 2.91 2.91 0 00.4 1.46zm-25.96 77a6.73 6.73 0 111.73-4.56 6.67 6.67 0 01-1.73 4.56zm-10.34-4.23a5.19 5.19 0 100-.24 1.93 1.93 0 010 .24zM660.21 56.86a7.34 7.34 0 111.2-4 7.25 7.25 0 01-1.2 4zm-9.38 1a6 6 0 008.25-1.72 6 6 0 00-1.72-8.24 5.86 5.86 0 00-4.48-.85 6 6 0 00-2 10.81zM431.17 420.28a11.78 11.78 0 1111.18-12.36v.5a11.82 11.82 0 01-11.18 11.86zm-11-11.25a10 10 0 100-.45c-.01.15 0 .3.01.42zm-234.33 62.1a5.22 5.22 0 01-5.33-5.09V466a5.21 5.21 0 015.08-5.25 5.23 5.23 0 015.34 5.09v.08a5.22 5.22 0 01-5.09 5.21zm-.21-9.06a3.85 3.85 0 10.18 7.7 3.8 3.8 0 003.76-3.94 3.86 3.86 0 00-3.94-3.76zM416.35 716a6.89 6.89 0 11-.12-5.26 6.78 6.78 0 01.59 2.71 6.85 6.85 0 01-.47 2.55zm-11.45-.27a5.48 5.48 0 003.05 2.91 5.51 5.51 0 007.13-3.13 5.51 5.51 0 10-10.18.22zM49.47 736.46a10.85 10.85 0 01-.59-21.7A10.86 10.86 0 0160 725.32a1.48 1.48 0 010 .21 10.87 10.87 0 01-10.53 10.93zm-.55-20.34a9.49 9.49 0 109.74 9.23 9.51 9.51 0 00-9.74-9.23zM423 29.3a14.85 14.85 0 01-18.51 9.86 14.82 14.82 0 01-2.64-27.26 14.66 14.66 0 0111.29-1.1A14.84 14.84 0 01423 29.3zm-18.11 8.56a13.45 13.45 0 10-9.54-12.78 13.39 13.39 0 009.57 12.78zM613 713.17a17.3 17.3 0 113.45-10.49 17.17 17.17 0 01-3.45 10.49zm-23.39 2.37a15.95 15.95 0 10-6.36-12.64 15.94 15.94 0 006.32 12.64zM314 461.93a5.88 5.88 0 01-10.87.3 5.81 5.81 0 01-.13-4.5 5.89 5.89 0 0111.39 2 5.68 5.68 0 01-.39 2.2zm-9.63-.25a4.54 4.54 0 006 2.28 4.52 4.52 0 002.28-6 4.53 4.53 0 00-8.36.23 4.77 4.77 0 00-.3 1.66 4.62 4.62 0 00.33 1.83zM302.25 274a4 4 0 01-2.78 1.28 4 4 0 01-3.1-6.71 4 4 0 012.78-1.28 4 4 0 014.16 4 4.08 4.08 0 01-1.06 2.71zm-5.58-2.61a2.64 2.64 0 004.58 1.68 2.65 2.65 0 00-.15-3.72 2.64 2.64 0 00-4.43 1.95zm-17.76 331.07a15.06 15.06 0 111.91-7.43 14.89 14.89 0 01-1.91 7.43zm-26.35-3.59a13.7 13.7 0 10-.52-3.66 13.94 13.94 0 00.52 3.66zm25.76 3.28zM112 518.72a12.17 12.17 0 117-15.72 12 12 0 01.82 4.3 12.19 12.19 0 01-7.82 11.42zm-14.48-7.43a10.79 10.79 0 10-.74-3.82 10.82 10.82 0 00.75 3.82zm14.24 6.81zm584.59-266.21a10.62 10.62 0 01-14.35 4.26 10.6 10.6 0 1115.21-12.33 10.29 10.29 0 01.44 3 10.54 10.54 0 01-1.3 5.07zm-18.17-2.43a9.16 9.16 0 004.45 5.49 9.2 9.2 0 10-4.84-8.06 9.48 9.48 0 00.39 2.57zM212.8 586.05a3.71 3.71 0 11-6.15-3 3.65 3.65 0 012.68-.92 3.71 3.71 0 013.47 3.67 2.43 2.43 0 010 .25zm-5.47 1.31a2.31 2.31 0 001.62.79 2.34 2.34 0 10.29-4.68 2.36 2.36 0 00-2.49 2.19v.18a2.3 2.3 0 00.58 1.52zm-1.26-1.72zM94.74 13.56a4.15 4.15 0 110-.5c.02.16.01.33 0 .5zm-4.48 2.35a2.83 2.83 0 003.12-2.5 2.83 2.83 0 00-5.62-.62v.33a2.83 2.83 0 002.5 2.79zm316.42 584.15a14.45 14.45 0 11.58-4.17 14.4 14.4 0 01-.58 4.17zm-25.47 2.31a13.16 13.16 0 10-1.11-10 13.27 13.27 0 00-.53 3.78 13.11 13.11 0 001.64 6.22zM747.56 99.71a7.22 7.22 0 01-9.49 3.85 7.24 7.24 0 1110.06-6.71 7.06 7.06 0 01-.57 2.86zm-9 2.6a5.89 5.89 0 007.71-3.13 5.88 5.88 0 10-7.71 3.13zM551 94.93a3.46 3.46 0 01-2.64-.15 3.5 3.5 0 01-1.76-2 3.45 3.45 0 01.16-2.64 3.41 3.41 0 012-1.76 3.46 3.46 0 014.4 2.13 3.91 3.91 0 01.19 1.1 3.46 3.46 0 01-2.35 3.32zm-3.11-2.58a2.09 2.09 0 002.67 1.29 2.1 2.1 0 00-1.38-4 2.1 2.1 0 00-1.41 2 2 2 0 00.13.71zM247.74 200.58a5.12 5.12 0 01-9.19-2.24 5.11 5.11 0 0110.11-1.56 4.74 4.74 0 01.06.75 5.09 5.09 0 01-.98 3.05zm-7.84-2.44a3.72 3.72 0 10-.05-.55 3.51 3.51 0 00.05.55zm312.59 503.05a11.49 11.49 0 01-19.79 7.69 11.54 11.54 0 01-3.18-8.2 11.51 11.51 0 0111.74-11.23 11.49 11.49 0 0111.23 11.39zm-18.8 6.75a10.13 10.13 0 0017.44-6.78 9.82 9.82 0 00-2.81-7.22 10.13 10.13 0 00-17.44 6.77v.29a10.06 10.06 0 002.81 6.94zM328.66 356.53a16.44 16.44 0 115.3-12.22 16.42 16.42 0 01-5.3 12.22zm-22.19-1.9a15 15 0 0021.27.9 15.05 15.05 0 10-25.23-11.72v.77a14.94 14.94 0 003.96 10.05zm21.73 1.42zm-3.52-333.6a7.37 7.37 0 11-6.13-12.17 7.36 7.36 0 017.89 6.81 4.1 4.1 0 010 .5 7.33 7.33 0 01-1.76 4.86zm-6-10.82a6 6 0 104.32 1.45 6 6 0 00-4.37-1.45zM16.54 57.69a9.32 9.32 0 01-13.16-.59A9.35 9.35 0 011 50.4a9.23 9.23 0 013-6.46 9.31 9.31 0 1112.54 13.75zM4.89 44.94a7.94 7.94 0 00-2.58 5.52 7.83 7.83 0 002.08 5.72 8 8 0 10.5-11.24zm634.8 327.91a3.7 3.7 0 01-2.46 1.46 3.75 3.75 0 01-2.78-.71 3.68 3.68 0 01-1.46-2.46 3.74 3.74 0 116.7 1.71zm-5.35-1.9a2.34 2.34 0 00.93 1.56 2.36 2.36 0 10-1-1.89 1.84 1.84 0 00.07.38zM172.11 214.06a9.93 9.93 0 111-7.53 9.67 9.67 0 01.32 2.44 9.83 9.83 0 01-1.32 5.09zm-16.86-2.87a8.55 8.55 0 10-.28-2.09 8.9 8.9 0 00.28 2.09zm546.17 85.66a9.42 9.42 0 01-18.84 0v-.13a9.42 9.42 0 0118.84 0zm-15.15 5.63a8.06 8.06 0 0013.79-5.63v-.11a8.06 8.06 0 00-8-8 8.06 8.06 0 00-8.1 8v.1a8 8 0 002.31 5.64zM115 60.55a4.36 4.36 0 01-3.38-.08 4.41 4.41 0 01-2.24-5.83 4.42 4.42 0 018.16.2 4.43 4.43 0 01-2.54 5.71zm-4.44-3a3.05 3.05 0 001.62 1.69 3 3 0 002.34.06 3.05 3.05 0 00-2.2-5.7 3 3 0 00-1.7 1.61 2.91 2.91 0 00-.26 1.26 3.13 3.13 0 00.15 1.06zM219.81 102a6.42 6.42 0 01-12.52-2.85c.78-3.45-65.77-5.08-62.32-4.29 3 .67 75 2.75 75 5.66a6.84 6.84 0 01-.16 1.48zm-7.38 3.51a5.06 5.06 0 006-3.81c.62-2.72-71.09-4.9-73.81-5.52s64.56.55 63.94 3.27a5.14 5.14 0 00-.12 1.16 5.05 5.05 0 003.99 4.88zm180.84 541.13a4.46 4.46 0 01-6.3-.25 4.46 4.46 0 116.55-6.06 4.48 4.48 0 01-.25 6.31zm-.75-5.39a3.11 3.11 0 00-5.38 2 3.11 3.11 0 003 3.22 3.1 3.1 0 002.4-5.21zM151.69 16.73a4.87 4.87 0 01-3.09 2.12 4.89 4.89 0 113.77-5.8 5.56 5.56 0 01.11 1 5 5 0 01-.79 2.68zm-7.56-1.93a3.53 3.53 0 004.19 2.72 3.55 3.55 0 002.23-1.52 3.51 3.51 0 00.49-2.66 3.53 3.53 0 10-6.91 1.47zm57.71 3a5.14 5.14 0 01-3 2.56 5.11 5.11 0 01-6.18-7.14 5.1 5.1 0 019.41.68 5 5 0 01.26 1.57 5 5 0 01-.49 2.33zm-7.92-4a3.76 3.76 0 001.68 5 3.75 3.75 0 005.23-4.53 3.75 3.75 0 00-6.91-.5zM164.3 508.61a7.61 7.61 0 11.22-10.77 7.65 7.65 0 01-.22 10.77zm-.77-9.82a6.25 6.25 0 00-9 8.66 6.25 6.25 0 009-8.66zm388.83-94.03a13.81 13.81 0 1111.32-15.91 13.59 13.59 0 01.19 2.19 13.83 13.83 0 01-11.51 13.72zm-14.57-11.54A12.45 12.45 0 10548 378.87a12.48 12.48 0 00-10.2 14.35zm10.09-15zM435.08 505a12.86 12.86 0 01-17.73 4 12.87 12.87 0 1117.73-4zM413 500.7a11.5 11.5 0 10-.29-2.5 11.15 11.15 0 00.29 2.5zM223.38 635.23a12.18 12.18 0 113-8.85v.75a12.13 12.13 0 01-3 8.1zm-20-7.28A10.83 10.83 0 00214.93 638a10.84 10.84 0 10-11.56-10.74c0 .24.01.47.02.74zM57.18 327.12a12.15 12.15 0 11-20.39-9.41 12.17 12.17 0 0117.18.68 12 12 0 013.22 8.14c0 .2 0 .4-.01.59zm-19.47-8.41a10.79 10.79 0 1015.26.61 10.82 10.82 0 00-15.26-.61zm335.67 159.34a11.27 11.27 0 11.09-1.58 10.54 10.54 0 01-.09 1.58zm-18.83 4.48a9.8 9.8 0 10-1.93-7.24 10.81 10.81 0 00-.09 1.39 9.71 9.71 0 002.02 5.85zm-63.42 52.92a11.77 11.77 0 11.52-3.56 11.75 11.75 0 01-.52 3.56zM276.76 542a10.48 10.48 0 10-7-13.08 10.32 10.32 0 00-.46 3.13 10.51 10.51 0 007.46 9.95zm151.47-255.35a4.57 4.57 0 01-2.68 2.29 4.6 4.6 0 01-5.8-2.94 4.6 4.6 0 118.75-2.86 4.57 4.57 0 01-.27 3.51zm-7.23-1.08a3.24 3.24 0 004.09 2.08 3.23 3.23 0 002.08-4.09 3.24 3.24 0 00-6-.46 3.39 3.39 0 00-.35 1.49 3.3 3.3 0 00.18.98zm-154.33 203a9.76 9.76 0 114.44-8.27 9.67 9.67 0 01-4.44 8.27zm-12.33-3.63a8.39 8.39 0 10-1.15-6.3 8.22 8.22 0 00-.19 1.84 8.32 8.32 0 001.34 4.46zm278.88-180.62a7.78 7.78 0 01-10.44 3.48 7.78 7.78 0 117-13.92 7.79 7.79 0 014.3 6.91 7.67 7.67 0 01-.86 3.53zm-13.05-1.45a6.42 6.42 0 109-7.78 6.43 6.43 0 00-9.3 5.79 6.5 6.5 0 00.3 1.99zM130 468.83a5 5 0 01-5.18 4.76 5 5 0 01-4.76-5.17 5 5 0 015.18-4.76 5 5 0 014.76 4.93zm-4.8-3.83a3.62 3.62 0 00-2.6 1 3.57 3.57 0 00-1.16 2.51 3.67 3.67 0 001 2.59 3.61 3.61 0 102.76-6.1zm229.3 195.29a11.82 11.82 0 112.13-6.85 11.82 11.82 0 01-2.13 6.85zm-15.67 1.78a10.46 10.46 0 10-4.44-8.49 10.37 10.37 0 004.44 8.49zM476.66 144a3.79 3.79 0 01-6.93-.94 3.8 3.8 0 012.69-4.63 3.79 3.79 0 014.24 5.57zm-5.66-1.3a2.43 2.43 0 101.73-3 2.41 2.41 0 00-1.48 1.13 2.44 2.44 0 00-.33 1.23 2.47 2.47 0 00.08.64zm88.71 358.83a17.62 17.62 0 111.83-7.95 17.78 17.78 0 01-1.83 7.95zM528.25 499a16.4 16.4 0 0030.24 1.93 16.4 16.4 0 10-31.13-7.12 16.65 16.65 0 00.89 5.19zm-310.1-1.7a5.93 5.93 0 11-4.69-6.94 5.94 5.94 0 014.8 5.77 5.79 5.79 0 01-.11 1.17zm-5-5.61a4.57 4.57 0 00-5.35 3.62 4.57 4.57 0 007 4.65 4.57 4.57 0 00-1.69-8.27zM17.36 470.73a10.61 10.61 0 117.21-13.16 10.31 10.31 0 01.42 2.89 10.63 10.63 0 01-7.63 10.27zm-11.85-7.59A9.26 9.26 0 0017 469.42 9.25 9.25 0 106.28 456.1a9.13 9.13 0 00-1.14 4.5 9.24 9.24 0 00.37 2.54zm11.66 6.95zm470.29-402.9a14.47 14.47 0 1111.24-17.1 14.32 14.32 0 01.31 2.82 14.5 14.5 0 01-11.55 14.28zm-15.77-11.53a13.11 13.11 0 10-.27-2.55 13.9 13.9 0 00.27 2.55zm-56.47 304a7.52 7.52 0 11.23-1.93 7.54 7.54 0 01-.23 1.93zm-12.55 1.25a6.13 6.13 0 003.76 2.82 6.14 6.14 0 007.47-4.41 6.14 6.14 0 10-11.23 1.59zM73.8 683.62a15 15 0 01-20.78-4 15 15 0 1120.78 4zm-19.65-4.76a13.62 13.62 0 10-2.33-7.5 13.5 13.5 0 002.33 7.5zM9.8 367.83a5.64 5.64 0 01-2.3-11 5.65 5.65 0 016.67 4.37 7 7 0 01.12 1.11 5.65 5.65 0 01-4.49 5.52zm-2-9.7a4.27 4.27 0 105.06 3.31 4.27 4.27 0 00-5.06-3.31zm192.68 191.08a11.57 11.57 0 11.85-4.44 11.58 11.58 0 01-.85 4.44zm-14.64 5.18a10.27 10.27 0 10-6.43-9.47 10.23 10.23 0 006.43 9.47zm-58.05 146.97a5.89 5.89 0 11-3.7-7.47 5.9 5.9 0 013.4 3 5.78 5.78 0 01.61 2.57 5.65 5.65 0 01-.31 1.9zm-9.64.13a4.53 4.53 0 10-.23-3.46 4.52 4.52 0 00.23 3.46zm403.1-39.21a17.89 17.89 0 1116.22-19.4c0 .49.07 1 .08 1.47a17.91 17.91 0 01-16.3 17.93zm-18.05-16.34a16.53 16.53 0 1032.92-2.94 16.52 16.52 0 00-33 1.59q.02.67.08 1.35zm215.46 30.92a4.47 4.47 0 11.86-6.26 4.49 4.49 0 01-.86 6.26zm-5.18-1.68a3.1 3.1 0 004.35.6 3.11 3.11 0 10-5-2.45 3 3 0 00.65 1.85zm4.77 1.16zm-51.84-475.93a6.26 6.26 0 01-8.49-2.49 6.26 6.26 0 0111-6 6.24 6.24 0 01-2.49 8.49zm-7.29-3.14a4.9 4.9 0 108.59-4.7 4.9 4.9 0 00-9 1 4.66 4.66 0 00-.2 1.43 4.84 4.84 0 00.61 2.27z" transform="translate(-.24 -.82)"/><path class="cls-4" d="M136.48 62.6a13.47 13.47 0 11-6.31-18 13.47 13.47 0 016.31 18zm-6.9-16.75a12.12 12.12 0 00-16.16 5.67 12.12 12.12 0 005.67 16.16 12.11 12.11 0 1010.49-21.83zm622.99-31.52a4.87 4.87 0 11-4.68-7.68 4.87 4.87 0 015.56 4.06 4.37 4.37 0 01.06.72 4.77 4.77 0 01-.94 2.9zm-6.76-4.94a3.53 3.53 0 00-.63 2.61 3.51 3.51 0 006.3 1.53 3.51 3.51 0 00.63-2.61 3.51 3.51 0 00-4-2.92 3.49 3.49 0 00-2.3 1.39zM363.77 143.81a16.9 16.9 0 11-15-18.6 16.92 16.92 0 0115.1 16.64 16.07 16.07 0 01-.1 1.96zm-28.9 8a15.54 15.54 0 10-3.35-11.4 13.57 13.57 0 00-.09 1.8 15.37 15.37 0 003.44 9.56zM517.12 453.9a17.4 17.4 0 01-21.89-11.2 17.39 17.39 0 0133.1-10.7 17.39 17.39 0 01-11.21 21.89zm-20.6-11.62a16 16 0 10-.77-4.79 16.06 16.06 0 00.77 4.79zM366.48 751.52a5.19 5.19 0 01-7.12 1.77 5.19 5.19 0 117.86-4.48 5.13 5.13 0 01-.74 2.71zm-6.42.61a3.85 3.85 0 10-1.85-3.26 3.83 3.83 0 001.85 3.26zm352.79-597.29a11.79 11.79 0 11-8.22-14.51 11.78 11.78 0 018.22 14.51zm-8.58-13.2a10.43 10.43 0 10-5.57 20.1 10.43 10.43 0 105.57-20.1zM153.94 161.6a3.74 3.74 0 01-1.67 2.39 3.81 3.81 0 111.17-5.27 3.84 3.84 0 01.6 2 3.67 3.67 0 01-.1.88zm-5.79.49a2.38 2.38 0 001.54 1.08 2.42 2.42 0 001.85-.32 2.5 2.5 0 001.08-1.55 2.47 2.47 0 00-.33-1.85 2.46 2.46 0 00-4.47.79 2.67 2.67 0 00-.06.56 2.32 2.32 0 00.39 1.29zM71.5 529.32a4.19 4.19 0 01-6.64-4 4.14 4.14 0 011.65-2.75 4.19 4.19 0 015.86.87 4.11 4.11 0 01.82 2.46 4.18 4.18 0 01-1.69 3.42zm-.22-5.05a2.83 2.83 0 10-.59 4 2.83 2.83 0 00.59-4zm653.9 5.9a10.85 10.85 0 01-18.55-11.26 10.85 10.85 0 0118.55 11.26zM711 532.65a9.49 9.49 0 10-3.19-13 9.51 9.51 0 003.19 13zm-3.77-13.37zM200.6 172.88a9.74 9.74 0 115.32-12.72 9.87 9.87 0 01.73 3.62 9.76 9.76 0 01-6.05 9.1zm-11.46-5.83a8.37 8.37 0 10-.63-3.11 8.39 8.39 0 00.63 3.11zm330.16-49.74a13.38 13.38 0 01-7.95 6.59 13.5 13.5 0 118.92-16.9 13.32 13.32 0 01-1 10.28zm-23.52-2.74a12.13 12.13 0 0015.17 8 12.14 12.14 0 10-15.71-11.52 12.32 12.32 0 00.54 3.52zm123.44 70.26a4 4 0 01-2.58 1.72 4 4 0 01-4.75-3.19 4 4 0 117.93-1.57 3.27 3.27 0 01.08.76 4 4 0 01-.68 2.28zm-6-1.73a2.69 2.69 0 004.87 1 2.76 2.76 0 00.4-2 2.69 2.69 0 00-4.87-1 2.75 2.75 0 00-.45 1.51 2.94 2.94 0 00.05.49zm3.29 2.8zM265.35 751.14a10.12 10.12 0 111.16-4.75 10 10 0 01-1.16 4.75zM248 749.07a8.78 8.78 0 0016.16 1.44 8.78 8.78 0 10-16.56-4 8.66 8.66 0 00.4 2.56zm16.76 1.78zm262.33 4.21a10.84 10.84 0 119.64-11.93q0 .54.06 1.08a10.85 10.85 0 01-9.7 10.85zm-10.57-9.78a9.3 9.3 0 10-.06-.94c.01.31.03.66.06.94zM104.76 284.65A17.56 17.56 0 0186.05 301a17.55 17.55 0 1118.76-17.67c0 .4-.01.86-.05 1.32zm-18.62 14.94a16.19 16.19 0 10-15-17.26v1.25a16.21 16.21 0 0015 16.01zM263.79 99.78a3.63 3.63 0 01-5.14.44 3.59 3.59 0 01-1.28-2.47c-.09-1-69.78-1.38-69.16-2.12a3.64 3.64 0 012.48-1.28 3.59 3.59 0 012.66.84c.74.63 71.2 1 71.28 1.93v.29a3.67 3.67 0 01-.84 2.37zm-5.07-2.15a2.3 2.3 0 002.47 2.08 2.31 2.31 0 001.56-.8 2.36 2.36 0 00.53-1.67c-.06-.61-70.34-.62-70.81-1a2.28 2.28 0 00-1.66-.53c-.61 0 68.83-.2 68.44.26a2.31 2.31 0 00-.54 1.49c0 .05.01.11.01.17zM164 282.48a17.62 17.62 0 01-24.13-6.1 17.6 17.6 0 1124.13 6.1zm-23-6.8a16.26 16.26 0 10-2.28-8.16 16.13 16.13 0 002.34 8.16zM57.65 377.47a4.41 4.41 0 01-8-1.63 4.42 4.42 0 013.49-5.16A4.41 4.41 0 0158.4 375a4.39 4.39 0 01-.75 2.47zM51 375.58a3 3 0 001.28 1.94 3 3 0 004.23-.81 3.09 3.09 0 00.47-2.29 3.05 3.05 0 00-1.29-1.94A3.05 3.05 0 0051 375a2.67 2.67 0 000 .58zm487.5 174.36a11.86 11.86 0 01-23.72-.08 2.44 2.44 0 010-.27 11.86 11.86 0 0123.71.07zm-19.39 7.13a10.5 10.5 0 0015.07-14.62 10.5 10.5 0 00-18 7.16 1 1 0 000 .24 10.39 10.39 0 002.93 7.22zm-504.36 47.7a4.74 4.74 0 01-1.67 3.23 4.68 4.68 0 01-3.47 1.11A4.75 4.75 0 015.25 604a4.76 4.76 0 019.51.36 3.09 3.09 0 01-.01.41zm-7.35 1.81a3.4 3.4 0 004.8.39 3.36 3.36 0 001.19-2.31 3.4 3.4 0 10-6.78-.57v.32a3.43 3.43 0 00.79 2.17zm-1.47-2.52zm648.21-452.15a3.59 3.59 0 01-2.76-.28 3.62 3.62 0 115.19-4.23 3.48 3.48 0 01.15 1 3.64 3.64 0 01-2.58 3.51zm1.12-4.12a2.26 2.26 0 10-1.51 2.81 2.25 2.25 0 001.51-2.81zM499 501.26a15.24 15.24 0 11-14.54-15.92 15.26 15.26 0 0114.54 15.1v.82zm-15.86 13.18a13.88 13.88 0 101.26-27.74 13.89 13.89 0 00-14.5 13.24v.75a13.9 13.9 0 0013.22 13.75zM638.38 235.7a4.8 4.8 0 111-3.54 4.85 4.85 0 01-1 3.54zm-7.2-2.59a3.45 3.45 0 001.29 2.31 3.46 3.46 0 005.57-3.1 3.45 3.45 0 00-1.29-2.31 3.45 3.45 0 00-5.59 2.72c0 .13.01.27.02.38zM53.14 434.37A9.91 9.91 0 0148.79 415a9.92 9.92 0 0111.84 7.49 9.46 9.46 0 01.24 2.1 9.91 9.91 0 01-7.73 9.78zm-4-18a8.54 8.54 0 1010.21 6.46 8.54 8.54 0 00-10.21-6.46zm10.64 183.78a5 5 0 113.36-6.29 4.67 4.67 0 01.22 1.42 5 5 0 01-3.58 4.87zm-5-3.76a3.69 3.69 0 004.59 2.46 3.69 3.69 0 10-4.75-3.5 3.46 3.46 0 00.17 1.04zm4.79 3.13zM729 214.68a11.1 11.1 0 11-5.55-14.68 11 11 0 015.8 6.19 11 11 0 01-.27 8.49zM714.85 219a9.72 9.72 0 10-5.72-8.8 9.75 9.75 0 005.72 8.8zm-387.1 524.93a17.51 17.51 0 112.75-13.13 18.76 18.76 0 01.3 3.15 17.41 17.41 0 01-3.05 9.98zm-23.58 3.47a16.16 16.16 0 10-4.24-22.46 16.17 16.17 0 004.24 22.46zm-4.8-22.82zm404.18-625.3a10.46 10.46 0 11-20.77-2.54 10.46 10.46 0 1120.77 2.54zm-19.42-2.37A9.1 9.1 0 10694.27 89a9.13 9.13 0 00-10.14 7.94zm-35.44 193.84A8.71 8.71 0 11638 277a8.72 8.72 0 0112.21 1.55 8.72 8.72 0 01-1.54 12.21zm-9.84-12.68a7.34 7.34 0 1010.31 1.3 7.34 7.34 0 00-10.31-1.3zm64.91 149.17a5.2 5.2 0 01-7.34 0 5.19 5.19 0 118.85-3.72 5.14 5.14 0 01-1.51 3.72zm-6.38-1a3.78 3.78 0 002.71 1.12 3.82 3.82 0 10-2.71-1.12zM164.74 589.17a5.09 5.09 0 11-6.66-7.69 5.09 5.09 0 016.66 7.69zm-5.74-6.66a3.73 3.73 0 00-.38 5.25 3.73 3.73 0 005.26.38 3.73 3.73 0 10-4.88-5.63zm597.66-89.27a8.34 8.34 0 01-14.49 5.29 8.35 8.35 0 1114.49-5.72c.01.19 0 .29 0 .43zm-.68 0zm-12.81 4.38a6.92 6.92 0 004.85 2.26 7 7 0 007.28-6.69 7 7 0 00-1.84-5 7 7 0 00-12.13 4.43v.38a6.93 6.93 0 001.84 4.61zm-575.53-376.7a13.38 13.38 0 116.05-17.92 13.38 13.38 0 01-6.05 17.93zm4.83-17.33a12 12 0 00-16.11-5.43A12 12 0 10167 119.7a12 12 0 005.44-16.11zm-12.81 521.88a9.44 9.44 0 11-7.46-11.08 9.46 9.46 0 017.63 9.19 9.29 9.29 0 01-.17 1.89zm-16 2.71a8.09 8.09 0 108.26-12.45 8.08 8.08 0 00-9.48 6.38 8 8 0 001.22 6.07zM556.59 254a4.22 4.22 0 01-2.5 2 4.15 4.15 0 01-3.22-.32 4.23 4.23 0 014-7.46 4.27 4.27 0 012 2.51 4.24 4.24 0 01-.32 3.22zm-6.47-1.16a2.87 2.87 0 104.09-3.36 2.81 2.81 0 00-2.18-.22 2.87 2.87 0 00-2 2.76 2.6 2.6 0 00.09.84zm-86.98 6.51a12 12 0 113.11-16.72 12 12 0 01-3.11 16.72zm-15.61-3.88a10.67 10.67 0 10-1.69-8 10.18 10.18 0 00-.18 2.06 10.52 10.52 0 001.87 5.94zm-112.05-57.11a5.78 5.78 0 01-2.1 3.91 5.79 5.79 0 01-9.44-5.05 5.81 5.81 0 016.34-5.2 5.82 5.82 0 015.23 5.72c0 .2-.01.41-.03.62zm-6.21 3.85a4.45 4.45 0 003.25-1 4.35 4.35 0 001.6-3 4.43 4.43 0 00-1-3.25 4.37 4.37 0 00-3-1.6 4.45 4.45 0 00-4.86 4v.48a4.45 4.45 0 004.01 4.37zM584 160.92a3.82 3.82 0 01-5.18-1.6 3.84 3.84 0 115.18 1.6zm-4-2.23a2.47 2.47 0 104.37-2.31 2.47 2.47 0 00-4.66 1.18 2.32 2.32 0 00.34 1.13zM77.61 173.6a14 14 0 114.67-10.6 13.91 13.91 0 01-4.67 10.6zm-18.79-2a12.68 12.68 0 0017.89 1 12.67 12.67 0 10-21.09-10.15v.82a12.55 12.55 0 003.2 8.32zm18.34 1.52zm644.33 576.93a5 5 0 01-8.74-2.77 5 5 0 118.74 2.77zm-7.39-2.88a3.62 3.62 0 003.9 3.28 3.6 3.6 0 002-6.35 3.61 3.61 0 00-5.08.44 3.58 3.58 0 00-.84 2.34c.01.12.01.19.02.29zm.31-3zm-558.24 8.57a11.37 11.37 0 01-15.4 4.58 11.36 11.36 0 01-4.58-15.4 11.37 11.37 0 0115.4-4.58 11.36 11.36 0 014.58 15.4zm-5.23-14.2a10 10 0 104 13.55 10 10 0 00-4-13.55zM98.79 104.18a.7.7 0 00-.37-.6.69.69 0 00-.92.29l-1.32 2.56a.67.67 0 00.3.91.66.66 0 00.91-.29l1.32-2.56a.68.68 0 00.08-.31zM6.42 726.09a.7.7 0 00-.19-.47l-2-2a.68.68 0 10-1 1l2 2a.68.68 0 001.17-.48zm145.8-58.93a.68.68 0 00-.43-.63l-1.1-.44a.67.67 0 00-.88.38.69.69 0 00.38.89l1.1.43a.67.67 0 00.88-.38.56.56 0 00.05-.25zm138.93-362.25a.67.67 0 00-.35-.59l-1.66-.94a.68.68 0 00-.93.26.69.69 0 00.26.93l1.66.94a.69.69 0 00.93-.26.72.72 0 00.09-.34zM5.22 8a.66.66 0 00-.43-.62.68.68 0 00-.88.38l-.21.53a.68.68 0 101.3.5l.21-.53A.58.58 0 005.22 8zm715.22 351.38a.7.7 0 00-.71-.66l-2.49.08a.64.64 0 00-.66.71.67.67 0 00.7.65l2.5-.08a.68.68 0 00.66-.7zM362.17 5.17a.64.64 0 00-.16-.43.67.67 0 00-.95-.09l-.62.51a.68.68 0 10.87 1l.62-.51a.71.71 0 00.24-.48zm-48.95 491.46a.68.68 0 00-.48-.64l-2.76-.86a.67.67 0 00-.85.44.69.69 0 00.45.86l2.75.86a.68.68 0 00.85-.45.52.52 0 00.04-.21zm161.72-206.17a.69.69 0 00-.49-.65l-3-.91a.69.69 0 00-.85.46.68.68 0 00.45.85l3 .9a.68.68 0 00.85-.45.69.69 0 00.04-.2zm110.34-179.09a.64.64 0 00-.1-.35l-.54-.89a.67.67 0 00-.93-.22.68.68 0 00-.23.94l.54.88a.68.68 0 001.26-.36zM549 140.72a.52.52 0 000-.11l-.32-1.79a.67.67 0 00-.79-.54.66.66 0 00-.55.79l.33 1.78a.68.68 0 001.35-.13zM513.43 219a.68.68 0 00-1.06-.56l-.68.47a.67.67 0 00-.18.94.68.68 0 00.94.18l.68-.46a.69.69 0 00.3-.57zm167.76 128.84a.41.41 0 000-.11.68.68 0 00-.79-.55l-1.5.26a.69.69 0 00-.55.79.68.68 0 00.79.55l1.5-.26a.69.69 0 00.55-.68zM508.26 259.7a.67.67 0 00-.26-.53l-.55-.43a.68.68 0 00-.95.11.69.69 0 00.11 1l.55.43a.67.67 0 00.95-.12.66.66 0 00.15-.46zM656 8.06a.65.65 0 00-.13-.39.68.68 0 00-1-.15l-.73.53a.68.68 0 00.81 1.1l.73-.53a.66.66 0 00.32-.56zm88.45 47.21a.88.88 0 000-.16l-.14-.55a.67.67 0 00-.82-.49.66.66 0 00-.5.82l.14.55a.68.68 0 001.34-.17zM54.68 115.2a.65.65 0 00-.45-.63.68.68 0 00-.87.41l-.17.49a.68.68 0 001.28.46l.17-.5a.59.59 0 00.04-.23zm10.43 363.71a.45.45 0 000-.11l-.38-2.15a.68.68 0 00-.79-.54.67.67 0 00-.55.79l.38 2.14a.69.69 0 00.79.55.67.67 0 00.55-.68zm584.95-374.53a.68.68 0 00-.61-.67l-2.7-.29a.68.68 0 00-.75.6.69.69 0 00.61.75l2.7.29a.68.68 0 00.75-.6zm-565.5 296.2a.7.7 0 00-.38-.6.67.67 0 00-.91.3l-.63 1.24a.68.68 0 001.22.62l.62-1.25a.68.68 0 00.08-.31zm152.9-155.11a.66.66 0 00-.12-.38l-1.47-2.09a.68.68 0 10-1.13.77l1.48 2.14a.68.68 0 001.24-.39zM103.68 629.08a.19.19 0 000-.08l-.17-1.36a.69.69 0 00-.76-.59.68.68 0 00-.59.76l.17 1.36a.68.68 0 001.36-.09zm335.57 122.56a.52.52 0 000-.21.67.67 0 00-.86-.43l-1.56.52a.68.68 0 00.43 1.29l1.56-.52a.69.69 0 00.43-.65zM116.74 183.5v-.07l-.16-1.51a.68.68 0 00-.75-.6.67.67 0 00-.6.75l.16 1.51a.68.68 0 00.75.6.69.69 0 00.6-.68zM678 747.38a.67.67 0 00-.37-.6.69.69 0 00-.92.3l-.36.75a.68.68 0 00.3.91.67.67 0 00.91-.31l.37-.74a.59.59 0 00.07-.31zm74.65-392.57v-1.08a.67.67 0 00-.69-.67.66.66 0 00-.67.69v1.08a.67.67 0 00.69.67.69.69 0 00.67-.69zM684.37 648.4a.68.68 0 00-1.36-.08l-.07.53a.7.7 0 00.59.77.68.68 0 00.76-.59l.07-.53a.38.38 0 00.01-.1zM332 428.84a.66.66 0 00-.12-.38.68.68 0 00-.95-.17L328.5 430a.68.68 0 10.78 1.11l2.41-1.68a.67.67 0 00.31-.59zM308.63 98a.7.7 0 00-.25-.52.68.68 0 00-1 .09l-.6.73a.68.68 0 101.05.86l.6-.72a.68.68 0 00.2-.44zm147.92 359a.69.69 0 00-.11-.36.68.68 0 00-.94-.2l-.6.38a.69.69 0 00-.2.94.68.68 0 00.94.2l.59-.38a.67.67 0 00.32-.58zM534 40.89a.66.66 0 00-.07-.3.69.69 0 00-.92-.3l-1.31.67a.68.68 0 10.61 1.21l1.32-.66a.69.69 0 00.37-.62zM9.14 177.38a.64.64 0 00-.22-.49l-.61-.56a.67.67 0 00-1 0 .69.69 0 000 1l.61.56a.69.69 0 001 0 .71.71 0 00.22-.51zM596 375.56a.68.68 0 00-.71-.64l-1 .06a.64.64 0 00-.64.71.67.67 0 00.71.64l1-.05a.68.68 0 00.64-.72zm104.56 8.96a.7.7 0 00-.07-.31l-.38-.71a.66.66 0 00-.91-.29.67.67 0 00-.29.92l.37.71a.68.68 0 001.28-.32zM486.1 319.8a.72.72 0 00-.16-.44.68.68 0 00-1-.07l-1.86 1.57a.68.68 0 00.88 1l1.86-1.58a.67.67 0 00.28-.48zm124.16-14.15v-.14a.68.68 0 00-.81-.52l-1.92.42a.69.69 0 00-.52.81.68.68 0 00.81.52l1.92-.42a.68.68 0 00.52-.67zm-403.18-84.19a.69.69 0 00-.46-.64l-2.67-.89a.67.67 0 00-.86.43.67.67 0 00.43.86l2.67.89a.68.68 0 00.86-.43.78.78 0 00.03-.22zm411.03-89.8a.71.71 0 00-.49-.65.68.68 0 00-.85.46l-.19.64a.68.68 0 00.46.85.67.67 0 00.84-.46l.2-.64a.75.75 0 00.03-.2zM469.56 423.87a.72.72 0 00-.22-.51.68.68 0 00-1 .06l-.46.51a.68.68 0 001 .91l.46-.52a.65.65 0 00.22-.45zM2.36 316.52a.64.64 0 00-.22-.49l-.76-.7a.69.69 0 00-1 0 .69.69 0 000 1l.76.7a.68.68 0 001.14-.51zm605.4 434.53a.64.64 0 000-.2.68.68 0 00-.86-.44l-2.15.7a.68.68 0 00.43 1.3l2.14-.71a.66.66 0 00.44-.65zM70.91 626.94a.69.69 0 00-.37-.6l-.75-.38a.68.68 0 00-.62 1.21l.75.38a.67.67 0 00.91-.29.72.72 0 00.08-.32zm497.93-7.53a.68.68 0 00-1.34-.15l-.18.74a.68.68 0 001.32.32l.18-.74a.5.5 0 00.02-.17zm98.34-224.8a.6.6 0 00-.08-.31l-1.49-2.82a.68.68 0 00-1.2.64l1.49 2.82a.68.68 0 00.92.28.66.66 0 00.36-.61zm-261.44-78.68a.58.58 0 00-.05-.26l-.86-2a.68.68 0 10-1.25.54l.86 2a.68.68 0 00.89.36.67.67 0 00.41-.64zM118 221.77a.59.59 0 00-.07-.29l-.38-.81a.68.68 0 00-.91-.31.67.67 0 00-.32.9l.39.81a.67.67 0 00.9.32.69.69 0 00.39-.62zm540.68 303.12a.68.68 0 00-1.29-.29l-1 2.13a.69.69 0 00.33.91.7.7 0 00.91-.33l1-2.13a.79.79 0 00.05-.29zM83.84 756.87a.69.69 0 00-.23-.51l-2.15-1.84a.69.69 0 00-1 .07.68.68 0 00.08 1l2.14 1.84a.67.67 0 001-.07.69.69 0 00.16-.49zM615.52 86.23a.69.69 0 00-.93-.63l-1.46.58a.68.68 0 00-.39.88.67.67 0 00.88.38l1.46-.57a.7.7 0 00.44-.64zM600 262.41a.67.67 0 00-.4-.61l-.56-.26a.68.68 0 10-.57 1.24l.57.26a.68.68 0 00.9-.34.72.72 0 00.06-.29zm142.29 10.85a.68.68 0 00-1-.57l-.74.48a.68.68 0 10.74 1.14l.74-.48a.68.68 0 00.26-.57zM572 747.78a.19.19 0 000-.08.68.68 0 00-.76-.59l-2.24.29a.68.68 0 00.17 1.35l2.24-.29a.68.68 0 00.59-.68zM94.72 339.7a.78.78 0 000-.14.67.67 0 00-.81-.51l-2 .45a.68.68 0 00.3 1.33l2-.46a.69.69 0 00.51-.67zM533.74 4.46a.66.66 0 00-.16-.44l-.71-.84a.68.68 0 00-1 .87l.71.85a.68.68 0 001 .08.69.69 0 00.16-.52zM337.59 393.48a.69.69 0 00-.49-.65l-1-.28a.68.68 0 00-.38 1.31l1 .28a.68.68 0 00.84-.46.69.69 0 00.03-.2zm-105.43-36.87a.71.71 0 00-.27-.53.69.69 0 00-1 .13l-.43.57a.67.67 0 00.14 1 .67.67 0 001-.13l.4-.65a.73.73 0 00.16-.39zm116.51 251.11a.59.59 0 00-.07-.29.67.67 0 00-.91-.31l-1.17.57a.68.68 0 00.6 1.22l1.17-.57a.7.7 0 00.38-.62zm82.71 22.5a.68.68 0 00-.63-.67.69.69 0 00-.73.63l-.13 2a.68.68 0 00.63.73.69.69 0 00.73-.63l.13-2zm-155.8-391.5a.7.7 0 00-.32-.58l-2.46-1.5a.68.68 0 00-.94.22.69.69 0 00.23.94l2.45 1.5a.68.68 0 00.94-.22.7.7 0 00.1-.36zm-36.34 432.37a.65.65 0 00-.41-.62.67.67 0 00-.89.36l-.27.64a.67.67 0 00.36.89.69.69 0 00.89-.36l.27-.64a.65.65 0 00.05-.27zm386.37-162.98a.19.19 0 000-.08l-.12-1a.69.69 0 00-.77-.58.68.68 0 00-.58.77l.13.95a.68.68 0 00.76.58.69.69 0 00.58-.64zM397.12 129.48a.61.61 0 00-.11-.36l-1.26-2a.68.68 0 00-.94-.2.69.69 0 00-.2.94l1.26 2a.68.68 0 00.94.21.69.69 0 00.31-.59zM496.1 4.09a.66.66 0 00-.09-.33.69.69 0 00-.93-.26l-1.53.87a.68.68 0 00.67 1.19l1.53-.88a.65.65 0 00.35-.59zm-52.41 319.74a.67.67 0 00-.18-.46l-1-1.06a.67.67 0 00-1 0 .68.68 0 000 1l1 1.07a.68.68 0 001 0 .66.66 0 00.18-.55zm42.79 429.62a.63.63 0 00-.15-.41l-1-1.31a.67.67 0 00-.95-.11.66.66 0 00-.12 1l1 1.3a.68.68 0 001.22-.42zM434.82 72.56a.69.69 0 00-.6-.67.7.7 0 00-.76.6l-.1.86a.68.68 0 101.35.17l.11-.87zM547.09 595.1a.72.72 0 00-.19-.47.7.7 0 00-1 0l-1.09 1.06a.69.69 0 000 1 .68.68 0 001 0l1.09-1.06a.7.7 0 00.19-.53zM258 279.11a.69.69 0 00-.11-.36l-.35-.55a.68.68 0 00-1.15.74l.36.55a.68.68 0 001.25-.38zm491.18-40.58a.59.59 0 00-.07-.29.67.67 0 00-.91-.32l-.77.37a.68.68 0 00.59 1.23l.78-.38a.67.67 0 00.38-.61zM755.22 748v-.12l-.22-1.09a.67.67 0 00-.8-.53.68.68 0 00-.54.8l.22 1.08a.68.68 0 00.8.54.69.69 0 00.54-.68zM34.27 633a.88.88 0 000-.17.68.68 0 00-.84-.48l-.53.14a.68.68 0 10.36 1.32l.53-.15a.68.68 0 00.48-.66zM680 501.37a.67.67 0 00-.46-.64.67.67 0 00-.86.43l-.17.49a.68.68 0 001.29.43l.17-.49a.83.83 0 00.03-.22zm73.16 175.02a.67.67 0 00-.23-.5.68.68 0 00-1 .05l-.82.92a.68.68 0 001 .91l.82-.92a.69.69 0 00.23-.46zM398.78 82a.74.74 0 00-.16-.44l-.56-.65a.67.67 0 00-1-.08.68.68 0 00-.08 1l.56.65a.68.68 0 001.2-.44zM647.7 331a.68.68 0 00-.31-.57l-.52-.34a.7.7 0 00-1 .2.68.68 0 00.21.94l.52.34a.67.67 0 00.94-.2.64.64 0 00.16-.37zM366.13 45.7a.77.77 0 000-.15.68.68 0 00-.81-.51l-1.9.42a.68.68 0 00.3 1.33l1.9-.42a.68.68 0 00.51-.67zM573 571.05a.68.68 0 00-1.35-.13l-.1.51a.67.67 0 00.52.81.69.69 0 00.81-.53l.1-.51a.77.77 0 00.02-.15zM462.83 98.7a.68.68 0 00-1.35-.1l-.1.61a.68.68 0 101.35.21l.09-.6a.49.49 0 00.01-.12zM271.27 351.64a.67.67 0 00-1.12-.51l-1.32 1.13a.67.67 0 00-.07 1 .68.68 0 001 .07l1.32-1.13a.65.65 0 00.19-.56zm44.5 257.05a.67.67 0 00-.33-.58l-1.15-.68a.67.67 0 00-.93.24.68.68 0 00.24.93l1.14.68a.68.68 0 00.93-.24.64.64 0 00.1-.35zM101.33 370.53a.67.67 0 00-.55-.66.68.68 0 00-.8.54l-.19 1a.67.67 0 00.54.79.68.68 0 00.8-.54l.19-1a.57.57 0 00.01-.13zM478.86 674.6a.67.67 0 00-.07-.31.68.68 0 00-.92-.29l-.55.28a.68.68 0 00.61 1.21l.56-.28a.68.68 0 00.37-.61zm114.23-454.96a.68.68 0 00-1.36 0v2.79a.69.69 0 101.37 0v-2.78zM488.45 390.18a.66.66 0 00-.15-.42l-.38-.49a.67.67 0 00-1-.11.66.66 0 00-.11.95l.39.49a.68.68 0 001.21-.42zM385 681.93a.67.67 0 00-.67-.67h-1.38a.68.68 0 00-.69.68.71.71 0 00.67.69h1.38a.68.68 0 00.69-.68zm-74-448.77a.7.7 0 00-.56-.67.68.68 0 00-.79.55l-.17.91a.69.69 0 00.55.79.68.68 0 00.79-.55l.17-.9s.01-.09.01-.13zM8 654.91v-.06l-.27-2.54a.67.67 0 00-.75-.6.66.66 0 00-.61.74l.26 2.55a.67.67 0 00.75.6.66.66 0 00.62-.69zM132.56 8a.67.67 0 00-.26-.53.69.69 0 00-1 .12l-.84 1.09a.69.69 0 00.13 1 .67.67 0 001-.13l.84-1.08a.69.69 0 00.13-.47zm155.8 194a.66.66 0 000-.14.68.68 0 00-.81-.52l-1.91.4a.7.7 0 00-.53.81.68.68 0 00.81.52l1.92-.4a.67.67 0 00.52-.67zM162.21 348.76a.68.68 0 00-.23-.51l-1.55-1.34a.69.69 0 00-1 .07.67.67 0 00.07 1l1.55 1.34a.67.67 0 001.12-.52zm-35.45-22.05a.79.79 0 00-.11-.36l-.38-.6a.68.68 0 00-.94-.21.67.67 0 00-.21.93l.38.61a.69.69 0 00.94.21.7.7 0 00.32-.58zM566.57 451.7a.7.7 0 00-.17-.45.67.67 0 00-1-.05l-.84.75a.67.67 0 00-.05 1 .68.68 0 001 0l.84-.75a.7.7 0 00.22-.5zm7.48-157.18a.59.59 0 000-.23l-.22-.6a.68.68 0 00-1.28.48l.23.59a.67.67 0 00.87.4.65.65 0 00.4-.64zm179.74 416.61a.68.68 0 00-1.28-.31l-1 1.81a.68.68 0 001.2.64l1-1.81a.8.8 0 00.08-.33zM443.32 601.69a.68.68 0 00-.58-.67l-1.26-.19a.7.7 0 00-.78.58.69.69 0 00.58.77l1.26.19a.68.68 0 00.77-.58.34.34 0 00.01-.1zM12.79 688.91a.66.66 0 00-.09-.33.68.68 0 00-.92-.26l-2.6 1.47a.68.68 0 00.67 1.21l2.6-1.47a.69.69 0 00.34-.62zm289.44-47.47l-.13-2.06a.68.68 0 00-.72-.64.69.69 0 00-.64.73l.14 2.06a.68.68 0 001.36 0zm351.2 74.02a.67.67 0 000-.24l-.39-1a.67.67 0 00-.88-.38.68.68 0 00-.39.88l.39 1a.68.68 0 00.88.39.67.67 0 00.39-.65zM376.82 182a.5.5 0 000-.17.68.68 0 00-.82-.49l-.54.14a.68.68 0 00.34 1.32l.53-.14a.67.67 0 00.49-.66zm-94.44 489.07a.68.68 0 00-.47-.64l-1.41-.43a.68.68 0 00-.86.42.69.69 0 00.43.87l1.41.48a.68.68 0 00.86-.43.57.57 0 00.04-.27z" transform="translate(-.24 -.82)"/></g></g></svg>