<svg xmlns="http://www.w3.org/2000/svg" viewBox="0 0 311.23 418.55"><defs><style>.cls-3{stroke:#000}.cls-4{fill:#ffa283}.cls-5{fill:#f2efef;stroke:#3c639b}.cls-6{fill:#ff8d71}.cls-7{fill:#f57d64}.cls-16{fill:#a60c0c}</style></defs><g style="isolation:isolate"><g id="Capa_2" data-name="Capa 2"><g id="Peronsaje"><g style="mix-blend-mode:multiply" opacity=".47"><path d="M140.93 157.18a118.21 118.21 0 00-44.76 0s13.9 47.82 32.1 47.82 12.66-47.82 12.66-47.82zm142.01-40.76c.25.28 1-.27 1.51-.65l17.75-17a2.81 2.81 0 013.95 0 2.7 2.7 0 01-.09 3.86l-18 17.9c-.57.48-.21 1.49.56 1.1L306.81 108a2.62 2.62 0 113.6 3.8l-19.38 16c-.82.72-.26 1.49.33 1.07l15.73-7.56c1.56-.67 2.93-.89 3.67.38a2 2 0 01-.88 3.06l-17 10.38c-14.71 14.16-23.63 15.66-23.63 15.66-17.61 1.8-13.25-12.58-13.25-12.58a33.71 33.71 0 010-12.75c.34-1.8 1.22-5.78 2-9.75a3 3 0 011.27-1.67c1.61-1.66 3.19-3.33 4.4-4.75a27.76 27.76 0 002.08-2.83c.62-.74 1.6-.24 2.47 1.23a4.92 4.92 0 01-.63 5.16s-1.86 2.4-3.54 4.9c0 2.24.25 4.16.83 4.33 1.33.41 5.81-1.87 5.81-1.87a17.71 17.71 0 006.81-6.57L290.21 96s2-3.31 5-1.66 0 5 0 5zM174.58 202.3a15.73 15.73 0 1114.35-28c1.21.62 83.46 53.1 83.46 53.1a13.3 13.3 0 01-12.13 23.67z"/><path d="M278.93 240.18a13.32 13.32 0 01-13.76 12.61 13.56 13.56 0 01-13.07-13.59s-3.17-23.79 3.53-96.4l17 .6s10.34 62.66 6.33 95.86c-.05.22-.03.92-.03.92z"/><path class="cls-3" d="M242.47 202a193.28 193.28 0 01-18.9 33.14 3.62 3.62 0 002.75 3c2.46.51 7.17 6.27 9.72 4.46 0 0 14.65-18.6 18.43-33.62 0 0-.81-3.13-5.39-4.53s-4.96-3.82-6.61-2.45z"/><path d="M34.54 372.6s12.65 6.2 14.35 10.11 6.43 13 6.78 15c.87 4.91 4.34 10.91 3.11 11.58s-3.6 2.29-8.26-6.74l2.78 11s1.24 3.92-1.87 4.82a3.25 3.25 0 01-4.23-2.14l-2.1-3.8a3.07 3.07 0 01-2.89 2.53c-2.79.33-4.46-4.29-4.46-4.29a3.45 3.45 0 01-3.33 2.33 4.18 4.18 0 01-3.56-2 3.6 3.6 0 01-2.64.93c-2.07-.44-4.08-4.66-4.08-4.66a87.61 87.61 0 01-4.21-27.65s1.07-15.17 14.61-7.02z"/><path d="M28.22 411.87a3.6 3.6 0 002.64-.93 4.18 4.18 0 003.56 2 3.45 3.45 0 003.33-2.35s1.67 4.62 4.46 4.29a3.07 3.07 0 002.89-2.53l2.1 3.8a3.25 3.25 0 004.1 2.21c3.12-.86 2-4.89 2-4.89l-2.73-10.74c0-.06-3-9.09-3.63-9.33l2.82 10.86s-.89 5.06-5.21 3.94a5.3 5.3 0 01-6.86.73s-4.37 2.67-7.23-.12c0 0-3.88 2.37-6.48-2.09l.16.45s2.01 4.26 4.08 4.7zm6.12-226.15a15.73 15.73 0 1130.86 6.12c-.27 1.34-28.2 94.83-28.2 94.83a13.3 13.3 0 01-26.09-5.18z"/><path d="M10.4 283.64a13.3 13.3 0 0113.3-13.08 13.74 13.74 0 0113.53 13.36s4 23.93-.11 96.7h-17s-12.55-62.49-9.71-95.81c.03-.22-.01-1.17-.01-1.17z"/><path class="cls-3" d="M247.48 205.89c-3.89 8.23-10.85 21.87-19 32.73l-41.25-23.24c-1 11.7-2.67 26-5.22 43.2-4 27.25-3.17 39.27-2.88 72.88 1 1.27 2.35 4.82 3.29 6.26 1.84 2.82-3 8.14-3 8.14s-33.83 15.22-112.29.26c-2.75-3.12-4.18-5.63-4.47-7.6-.15-1.08 1.68-4.17 3.39-6.79.53-15.6 1.06-41.4-1.46-62.73-1.42-11.92-4.28-23.72-7.14-34.39-2.06 6.88-4.28 14.24-6.54 21.77-9-1.55-24-4.61-36.61-9.52l15.33-62.14a20.57 20.57 0 0116.31-16c5-1.37 30.76-8.43 52.4-13.14L129 185.86c6.14-12.07 9.51-30.31 9.51-30.31 11 1.72 38.64 8.21 49.56 13.3a19.14 19.14 0 014.75 2.66h.06c6 3.73 29.2 18.35 54.6 34.38z"/><path d="M101.02 120.83h35.54v39.77h-35.54z"/><path d="M101 137.61v-16.78h35.55v26.51c-5.91.72-26.22 2.11-35.55-9.73zm58.72-57.42s-4.47 1-6 13.53 1.59 13.61 2.52 14c0 0 11.38 3.19 15.33-15.64 3.26-15.61-11.85-11.89-11.85-11.89z"/><path d="M156.57 99.11s8.28-4.15 1.81-8.32c0 0 2.18-9.49 7.72-7.35s1.1 11 0 12.88c-2.31 3.85-9.53 8.57-9.53 2.79zM78.38 80.19s4.46 1 6 13.53-1.58 13.61-2.52 14c0 0-11.37 3.19-15.32-15.64-3.27-15.61 11.84-11.89 11.84-11.89z"/><path d="M81.53 99.11s-8.29-4.11-1.82-8.32c0 0-2.17-9.49-7.72-7.35s-1.1 11 0 12.88c2.31 3.85 9.54 8.57 9.54 2.79z"/><path d="M119.49 22.67h-.28c-48.82 0-40.45 49.91-40.34 55.09 1.25 6.28 1.32 16.37 2.32 25 3 25.9 21.7 35.68 37.91 35.66h.39c16.21 0 35.06-9.53 38-35.71 1-8.63 1.07-18.7 2.32-25 .12-5.13 8.49-55.04-40.32-55.04z"/><path d="M91.52 77.27L89.78 74c.43-.26 6.43-6.53 15.51-9l2.33 5.32c-7.74 1.3-15.99 6.89-16.1 6.95zm53.85.23l1.86-3.22c-.43-.27-6.2-6.75-15.2-9.53L129.52 70c7.7 1.56 15.74 7.44 15.85 7.5zm-11.78 35.34s-14.5 3-28 0c0 0 2.39 12.41 14 12.38 10.95-.02 13.88-9.98 14-12.38z"/><path d="M119.29 118.76c-8.92 0-11.54-3.7-12.67-5.71 10.47 2.07 18.91.83 26.26-.08-.79 2.24-5.18 5.79-13.59 5.79zM74.75 79.8s-3-22.62-3.16-29.39c0 0-14.61-16.51-6.78-33a18.9 18.9 0 001.27 5.08S66.94 7.23 78.26 3c0 0 .73 11 13.43 9.74S153.2 1.1 160.43 33.48c0 0 8.93 4.44 8.4 16.93s-4.54 29.42-4.54 29.42-5-.54-5.6 7.83c0 0-.53-17.78-2.12-21.59s-8.79-17.14-9-22.44c0 0-38.3 10.37-60.95 7 0 0-2.73 11.19-4.65 15.45s-.43 21.59-.43 21.59-.44-6.41-6.79-7.87z"/><path d="M78.26 3C66.94 7.23 66.08 22.47 66.08 22.47a18.9 18.9 0 01-1.27-5.08 24.28 24.28 0 00-2.13 13.34 125.45 125.45 0 0068.95-.5s-38.14-2.34-47.86-18.72C78.65 8.83 78.26 3 78.26 3zm69.3 40.64c.22 5.3 7.41 18.62 9 22.43s2.12 21.59 2.12 21.59c.58-8.37 5.6-7.83 5.6-7.83s1.52-6.41 2.81-14.25C156.11 61 147.72 44 147.56 43.64zm-76.04 6.11l.07.37c.21 6.77 3.16 29.54 3.16 29.54 6.35 1.46 6.78 7.92 6.78 7.92S80 70.29 82 66s4.61-15.4 4.61-15.4h.1l-.13-.34a38.94 38.94 0 01-15.06-.51z"/><path class="cls-3" d="M136.17 143.53s3-.54 11.43 12a226.47 226.47 0 012.54 26.36 47.54 47.54 0 00-7.9-5.89l-11.42 5.85s4.32-18.12 5.17-27.26c.01.02.18-8.18.18-11.06zm-34.71-1.13l.42 10.44c1.7 4.41 15.93 20.53 22.48 28.46 0 0-11.15-4.73-14.57-4.9 0 0-7.1 4.5-9.6 6.49a155.78 155.78 0 01-11.57-27.09s8.61-12.55 12.84-13.4z"/><path d="M133.76 351.85a.89.89 0 00.85-.87c2.26-119.83-4.38-163.58-4.45-164a.84.84 0 10-1.67.25c.07.42 6.68 44.08 4.42 163.72a.88.88 0 00.84.9z"/><path class="cls-3" d="M81.31 246.89L96.59 254l15.15-8.83-1.58-27.98-30.43 1.72 1.58 27.98z"/><path class="cls-3" d="M80.22 227.6l-.49-8.69 30.43-1.72.49 8.73-14.54 5.21-15.89-3.53z"/><path d="M124.51 282.5a3.2 3.2 0 113.19 3.2 3.19 3.19 0 01-3.19-3.2zm0 28.79a3.2 3.2 0 113.19 3.19 3.19 3.19 0 01-3.19-3.19zm0 29.63a3.2 3.2 0 113.19 3.19 3.19 3.19 0 01-3.19-3.19z"/><path class="cls-3" d="M52.69 249.84a193.11 193.11 0 01-37-9.25 3.6 3.6 0 00-2.18 3.47c.17 2.51-4.11 8.59-1.68 10.56 0 0 21.87 9.09 37.35 8.67 0 0 2.79-1.62 2.91-6.41s2.36-5.82.6-7.04z"/><path d="M111.51 177s2.7 4.91 17.74 12.12c0 0 11.34-6.2 12.58-12.48l-10.28 5.26-2.12 3.93-4.31-4.26s-10.36-4.38-13.61-4.57z"/><path d="M123.84 187.83s-5.46 3.87-3.85 5.56 8.1 6.67 10.39 6.87 7.26-8.76 7.17-9.86-4.66-3.58-6-3.68a67.54 67.54 0 00-7.71 1.11z"/><path d="M128.62 199.66s-4.81 9.27-4 12.66.48 73.11 4 79.49 4.78 12.18 6.75 10.07 6.56-8.08 6.36-11.66-2.79-74.12-4.18-79.7-6-12.55-6-12.55zM132 85.76c0 3.53 2.18 6.22 4.79 6s4.69-3.24 4.66-6.77-2.18-6.22-4.79-6-4.66 3.24-4.66 6.77zm-35.85-1.04c0 3.53 2.18 6.22 4.79 6s4.69-3.24 4.66-6.77-2.18-6.22-4.79-6-4.69 3.24-4.66 6.77zm23.14 21.06c7.93 3.21 12.2-.53 12.52-4.28a5.39 5.39 0 00-3.53-5.5c-4.83-1.88-8.23-9.31-8.27-9.39 0 1.71 1.71 8.13 7.83 11.7 1.33.77 2.15 1.58 2 2.79-.18 2.1-3.21 5.24-10.6 4.71z"/></g><path class="cls-4" d="M130.93 154.18a118.21 118.21 0 00-44.76 0s13.9 47.82 32.1 47.82 12.66-47.82 12.66-47.82zm142.01-40.76c.25.28 1-.27 1.51-.65l17.75-17a2.81 2.81 0 013.95 0 2.7 2.7 0 01-.09 3.86l-18 17.9c-.57.48-.21 1.49.56 1.1L296.81 105a2.62 2.62 0 113.6 3.8l-19.38 16c-.82.72-.26 1.49.33 1.07l15.73-7.56c1.56-.67 2.93-.89 3.67.38a2 2 0 01-.88 3.06l-17 10.38c-14.71 14.16-23.63 15.66-23.63 15.66-17.61 1.8-13.25-12.58-13.25-12.58a33.71 33.71 0 010-12.75c.34-1.8 1.22-5.78 2-9.75a3 3 0 011.27-1.67c1.61-1.66 3.19-3.33 4.4-4.75a27.76 27.76 0 002.08-2.83c.62-.74 1.6-.24 2.47 1.23a4.92 4.92 0 01-.63 5.16s-1.86 2.4-3.54 4.9c0 2.24.25 4.16.83 4.33 1.33.41 5.81-1.87 5.81-1.87a17.71 17.71 0 006.81-6.57L280.21 93s2-3.31 5-1.66 0 5 0 5zM164.58 199.3a15.73 15.73 0 1114.35-28c1.21.62 83.46 53.1 83.46 53.1a13.3 13.3 0 01-12.13 23.67z"/><path class="cls-4" d="M268.93 237.18a13.32 13.32 0 01-13.76 12.61 13.56 13.56 0 01-13.07-13.59s-3.17-23.79 3.53-96.4l17 .6s10.34 62.66 6.33 95.86c-.05.22-.03.92-.03.92z"/><path class="cls-5" d="M232.47 199a193.28 193.28 0 01-18.9 33.14 3.62 3.62 0 002.75 3c2.46.51 7.17 6.27 9.72 4.46 0 0 14.65-18.6 18.43-33.62 0 0-.81-3.13-5.39-4.53s-4.96-3.82-6.61-2.45z"/><path class="cls-4" d="M24.54 369.6s12.65 6.2 14.35 10.11 6.43 13 6.78 15c.87 4.91 4.34 10.91 3.11 11.58s-3.6 2.29-8.26-6.74l2.78 11s1.24 3.92-1.87 4.82a3.25 3.25 0 01-4.23-2.14l-2.1-3.8a3.07 3.07 0 01-2.89 2.53c-2.79.33-4.46-4.29-4.46-4.29a3.45 3.45 0 01-3.33 2.33 4.18 4.18 0 01-3.56-2 3.6 3.6 0 01-2.64.93c-2.07-.44-4.08-4.66-4.08-4.66a87.61 87.61 0 01-4.21-27.65s1.07-15.17 14.61-7.02z"/><path class="cls-6" d="M18.22 408.87a3.6 3.6 0 002.64-.93 4.18 4.18 0 003.56 2 3.45 3.45 0 003.33-2.35s1.67 4.62 4.46 4.29a3.07 3.07 0 002.89-2.53l2.1 3.8a3.25 3.25 0 004.1 2.21c3.12-.86 2-4.89 2-4.89l-2.73-10.74c0-.06-3-9.09-3.63-9.33l2.82 10.86s-.89 5.06-5.21 3.94a5.3 5.3 0 01-6.86.73s-4.37 2.67-7.23-.12c0 0-3.88 2.37-6.48-2.09l.16.45s2.01 4.26 4.08 4.7z"/><path class="cls-4" d="M24.34 182.72a15.73 15.73 0 1130.86 6.12c-.27 1.34-28.2 94.83-28.2 94.83a13.3 13.3 0 01-26.07-5.18z"/><path class="cls-4" d="M.4 280.64a13.3 13.3 0 0113.3-13.08 13.74 13.74 0 0113.53 13.36s4 23.93-.11 96.7h-17s-12.54-62.49-9.7-95.81c.02-.22-.02-1.17-.02-1.17z"/><path class="cls-5" d="M237.48 202.89c-3.89 8.23-10.85 21.87-19 32.73l-41.25-23.24c-1 11.7-2.67 26-5.22 43.2-4 27.25-3.17 39.27-2.88 72.88 1 1.27 2.35 4.82 3.29 6.26 1.84 2.82-3 8.14-3 8.14s-33.83 15.22-112.29.26c-2.75-3.12-4.18-5.63-4.47-7.6-.15-1.08 1.68-4.17 3.39-6.79.53-15.6 1.06-41.4-1.46-62.73-1.42-11.92-4.28-23.72-7.14-34.39-2.06 6.88-4.28 14.24-6.54 21.77-9-1.55-24-4.61-36.61-9.52l15.33-62.14a20.57 20.57 0 0116.31-16c5-1.37 30.76-8.43 52.4-13.14L119 182.86c6.14-12.07 9.51-30.31 9.51-30.31 11 1.72 38.64 8.21 49.56 13.3a19.14 19.14 0 014.75 2.66h.06c6 3.73 29.2 18.35 54.6 34.38z"/><path class="cls-4" d="M91.02 117.83h35.54v39.77H91.02z"/><path class="cls-6" d="M91 134.61v-16.78h35.55v26.51c-5.91.72-26.22 2.11-35.55-9.73z"/><path class="cls-4" d="M149.72 77.19s-4.47 1-6 13.53 1.59 13.61 2.52 14c0 0 11.38 3.19 15.33-15.64 3.26-15.61-11.85-11.89-11.85-11.89z"/><path class="cls-7" d="M146.57 96.11s8.28-4.15 1.81-8.32c0 0 2.18-9.49 7.72-7.35s1.1 11 0 12.88c-2.31 3.85-9.53 8.57-9.53 2.79z"/><path class="cls-4" d="M68.38 77.19s4.46 1 6 13.53-1.58 13.61-2.52 14c0 0-11.37 3.19-15.32-15.64-3.27-15.61 11.84-11.89 11.84-11.89z"/><path class="cls-7" d="M71.53 96.11s-8.29-4.11-1.82-8.32c0 0-2.17-9.49-7.72-7.35s-1.1 11 0 12.88c2.31 3.85 9.54 8.57 9.54 2.79z"/><path class="cls-4" d="M109.49 19.67h-.28c-48.82 0-40.45 49.91-40.34 55.09 1.25 6.28 1.32 16.37 2.32 25 3 25.9 21.7 35.68 37.91 35.66h.39c16.21 0 35.06-9.53 38-35.71 1-8.63 1.07-18.7 2.32-25 .12-5.13 8.49-55.04-40.32-55.04z"/><path d="M81.52 74.27L79.78 71c.43-.26 6.43-6.53 15.51-9l2.33 5.32c-7.74 1.3-15.99 6.89-16.1 6.95zm53.85.23l1.86-3.22c-.43-.27-6.2-6.75-15.2-9.53L119.52 67c7.7 1.56 15.74 7.44 15.85 7.5z" fill="#9b473a"/><path d="M123.59 109.84s-14.5 3-28 0c0 0 2.39 12.41 14 12.38 10.95-.02 13.88-9.98 14-12.38z" fill="#cf2323"/><path d="M109.29 115.76c-8.92 0-11.54-3.7-12.67-5.71 10.47 2.07 18.91.83 26.26-.08-.79 2.24-5.18 5.79-13.59 5.79z" fill="#fff"/><path d="M64.75 76.8s-3-22.62-3.16-29.39c0 0-14.61-16.51-6.78-33a18.9 18.9 0 001.27 5.08S56.94 4.23 68.26 0c0 0 .73 11 13.43 9.74S143.2-1.9 150.43 30.48c0 0 8.93 4.44 8.4 16.93s-4.54 29.42-4.54 29.42-5-.54-5.6 7.83c0 0-.53-17.78-2.12-21.59s-8.79-17.14-9-22.44c0 0-38.3 10.37-60.95 7 0 0-2.73 11.19-4.65 15.45s-.43 21.59-.43 21.59-.44-6.41-6.79-7.87z" fill="#9d3320"/><path d="M68.26 0C56.94 4.23 56.08 19.47 56.08 19.47a18.9 18.9 0 01-1.27-5.08 24.28 24.28 0 00-2.13 13.34 125.45 125.45 0 0068.95-.5S83.49 24.89 73.77 8.51C68.65 5.83 68.26 0 68.26 0z" fill="#b23f31"/><path d="M137.56 40.64c.22 5.3 7.41 18.62 9 22.43s2.12 21.59 2.12 21.59c.58-8.37 5.6-7.83 5.6-7.83s1.52-6.41 2.81-14.25C146.11 58 137.72 41 137.56 40.64zm-76.04 6.11l.07.37c.21 6.77 3.16 29.54 3.16 29.54 6.35 1.46 6.78 7.92 6.78 7.92S70 67.29 72 63s4.61-15.4 4.61-15.4h.1l-.13-.34a38.94 38.94 0 01-15.06-.51z" fill="#8c281b"/><path class="cls-5" d="M126.17 140.53s3-.54 11.43 12a226.47 226.47 0 012.54 26.36 47.54 47.54 0 00-7.9-5.89l-11.42 5.85s4.32-18.12 5.17-27.26c.01.02.18-8.18.18-11.06zm-34.71-1.13l.42 10.44c1.7 4.41 15.93 20.53 22.48 28.46 0 0-11.15-4.73-14.57-4.9 0 0-7.1 4.5-9.6 6.49a155.78 155.78 0 01-11.57-27.09s8.61-12.55 12.84-13.4z"/><path d="M123.76 348.85a.89.89 0 00.85-.87c2.26-119.83-4.38-163.58-4.45-164a.84.84 0 10-1.67.25c.07.42 6.68 44.08 4.42 163.72a.88.88 0 00.84.9z" fill="#003554"/><path class="cls-5" d="M71.31 243.89L86.59 251l15.15-8.83-1.58-27.98-30.43 1.72 1.58 27.98z"/><path class="cls-5" d="M70.22 224.6l-.49-8.69 30.43-1.72.49 8.73-14.54 5.21-15.89-3.53z"/><path d="M114.51 279.5a3.2 3.2 0 113.19 3.2 3.19 3.19 0 01-3.19-3.2zm0 28.79a3.2 3.2 0 113.19 3.19 3.19 3.19 0 01-3.19-3.19zm0 29.63a3.2 3.2 0 113.19 3.19 3.19 3.19 0 01-3.19-3.19z" fill="#2a708d"/><path class="cls-5" d="M42.69 246.84a193.11 193.11 0 01-37-9.25 3.6 3.6 0 00-2.18 3.47c.17 2.51-4.11 8.59-1.68 10.56 0 0 21.87 9.09 37.35 8.67 0 0 2.79-1.62 2.91-6.41s2.36-5.82.6-7.04z"/><path class="cls-16" d="M101.51 174s2.7 4.91 17.74 12.12c0 0 11.34-6.2 12.58-12.48l-10.28 5.26-2.12 3.93-4.31-4.26s-10.36-4.38-13.61-4.57z"/><path class="cls-16" d="M113.84 184.83s-5.46 3.87-3.85 5.56 8.1 6.67 10.39 6.87 7.26-8.76 7.17-9.86-4.66-3.58-6-3.68a67.54 67.54 0 00-7.71 1.11z"/><path class="cls-16" d="M118.62 196.66s-4.81 9.27-4 12.66.48 73.11 4 79.49 4.78 12.18 6.75 10.07 6.56-8.08 6.36-11.66-2.79-74.12-4.18-79.7-6-12.55-6-12.55z"/><path d="M122 82.76c0 3.53 2.18 6.22 4.79 6s4.69-3.24 4.66-6.77-2.18-6.22-4.79-6-4.66 3.24-4.66 6.77zm-35.85-1.04c0 3.53 2.18 6.22 4.79 6s4.69-3.23 4.66-6.72-2.18-6.22-4.79-6-4.69 3.19-4.66 6.72z" fill="#592b20"/><path class="cls-7" d="M109.29 102.78c7.93 3.21 12.2-.53 12.52-4.28a5.39 5.39 0 00-3.53-5.5c-4.83-1.88-8.23-9.31-8.27-9.39 0 1.71 1.71 8.13 7.83 11.7 1.33.77 2.15 1.58 2 2.79-.18 2.1-3.21 5.24-10.6 4.71z"/></g></g></g></svg>