<svg xmlns="http://www.w3.org/2000/svg" viewBox="0 0 278.12 406.86"><defs><style>.cls-3{fill:#214a77}.cls-4{fill:#11416a}.cls-5{fill:#ffa283}.cls-6{fill:#ff8d71}.cls-7{fill:#fff}.cls-9{fill:#f57d64}.cls-15{fill:#f2efef}.cls-16{fill:#3c639b}.cls-19{fill:#a60c0c}</style></defs><g style="isolation:isolate"><g id="Capa_2" data-name="Capa 2"><g id="Peronsaje"><g style="mix-blend-mode:multiply" opacity=".47"><path d="M106.94 304.77l3.42 102.09h35.77l-7.57-86 18.37.13.01 85.87h37.22l-3.36-107.59-83.86 5.5z"/><path d="M190.8 274.92h-84.89l.33 28.14c.23 10.26 9.12 18.52 20 18.88l44.56.28c11.11-.29 20-9 20-19.5z"/><path d="M178 275.66c-1.05 4.18-2.5 15.74 12 20.46 0 0 1.71-12.9.33-20.46z"/><path d="M190.24 299.46c-7.15-2.09-12-5.61-14.52-10.44s-2-10.27-1.24-13.36h-1.34a20.71 20.71 0 001.42 13.87c2.38 4.65 6.8 8.14 13.17 10.39.68.25 1.4.48 2.13.69a.66.66 0 00.81-.4.6.6 0 00-.43-.75zm-39.77 20.33a.65.65 0 01-.62-.43c-5.28-16.23-4.22-42.7-4.21-43a.64.64 0 01.67-.58.63.63 0 01.62.63c0 .26-1.06 26.53 4.15 42.57a.59.59 0 01-.42.75zm-4.28-9.52a9.64 9.64 0 01-8.38-6.69c-2.15-6.18-1.45-25.5-1.42-26.31a.63.63 0 01.67-.59.6.6 0 01.61.62c0 .2-.72 19.91 1.37 25.88a8.26 8.26 0 007.16 5.82.64.64 0 01.63.64.65.65 0 01-.64.63zm-38.5-34.61l.48 16.93s6.86-7.16 7.29-16.17zm1.13 21.07a.67.67 0 01-.55-.28.58.58 0 01.19-.83c9.37-5.69 10.21-19.1 10.22-19.23a.64.64 0 01.67-.58.62.62 0 01.61.64c0 .57-.88 14.15-10.8 20.18a.61.61 0 01-.34.1zm30.85-192.62h26.38v30.88h-26.38z"/><path d="M166 117.14v-13h-26.33v20.42c4.5.52 19.94 1.58 26.33-7.42zM136.07 132a89.79 89.79 0 0134 0s-10.56 36.37-24.39 36.37-9.61-36.37-9.61-36.37zm-31 141l6.84-4.61c-1.66-2.59-3.29-5.08-4.86-7.46v3.56c-.77 1-1.78 3.66-2.49 4.76s-.2 2.46.51 3.75z"/><path d="M180.13 73.87s8.35-44.22-33.36-44.22c-31.31 0-29.45 35.64-29.45 35.64 0 11.31-.26 30.52 7.51 42 3.28 4.83 7.38 9.32 14.38 10 30.18 2.88 37.48-20.78 38.54-25.23 1.33-5.59 2.38-18.19 2.38-18.19z"/><path d="M134 79.45c0 2.61-1.61 4.6-3.53 4.44S127 81.5 127 78.9s1.6-4.6 3.53-4.44 3.47 2.39 3.47 4.99zm26.43-.77c0 2.61-1.61 4.6-3.54 4.44s-3.47-2.39-3.44-5 1.61-4.6 3.54-4.44 3.46 2.4 3.44 5zm-17.09 15.56c-5.86 2.37-9-.38-9.25-3.16a4 4 0 012.6-4.08c3.57-1.39 6.09-6.88 6.11-6.94a11.77 11.77 0 01-5.8 8.64c-1 .57-1.59 1.17-1.52 2.06.14 1.55 2.38 3.87 7.84 3.48zm-21.29-25.3l-.26-2.82a29.77 29.77 0 0113.52-1.72l.07 4.42c-5.82-1.38-13.24.11-13.33.12zm43.18.34c-4.91-2.1-13.68-1.13-13.76-1.15l.3-4.1c.35.06 8.3-.88 13.89 2.72zm-11.71 29.04s-11 2.25-21.27 0c0 0 1.81 9.43 10.64 9.41 8.31-.02 10.53-7.59 10.63-9.41z"/><path d="M142.65 102.82c-6.78 0-8.77-2.81-9.62-4.34 7.95 1.57 14.37.63 19.95-.06-.6 1.7-3.98 4.4-10.33 4.4zm37.8-29.32s-3.39.75-4.57 10.29 1.2 10.34 1.91 10.66c0 0 8.65 2.42 11.65-11.89 2.49-11.88-8.99-9.06-8.99-9.06z"/><path d="M178.05 87.88s6.3-3.15 1.38-6.32c0 0 1.66-7.21 5.87-5.58s.84 8.39 0 9.79c-1.75 2.92-7.25 6.5-7.25 2.11zM117.3 71.14s-1.41-15-1.2-22.09c0 0-14.79-10.29-5.14-23.16a20.13 20.13 0 00.59 3.92s1.77-11.58 11.45-15.28c0 0 .78 6.43 5.61 7.72s47-9.87 52.23 15.44c0 0 8 4.18 6.57 15.54s-3.19 20-3.19 20-6.38-.32-8 5.91c0 0-2.52-13.47-3.59-15.21-3-4.88-3.81-11-4.08-18.55 0 0-35.85 8.9-49 4.39a142.41 142.41 0 00-2.25 21.37z"/><path d="M117.3 71.14a142.41 142.41 0 012.27-21.34l-3.47-.75c-.21 7.08 1.2 22.09 1.2 22.09zm51.23-25.73c.27 7.55 1.08 13.67 4.08 18.55 1.07 1.74 3.59 15.21 3.59 15.21 1.61-6.23 8-5.91 8-5.91s.63-3.19 1.46-8.24c-15.06-3.25-17.13-19.61-17.13-19.61zM123 14.53c-9.65 3.7-11.42 15.28-11.42 15.28a20.13 20.13 0 01-.59-3.92 16.24 16.24 0 00-2.9 5.89c6.15 3.76 22 10.57 49.32 4.19 0 0-26.22-4.54-29.63-14-4.12-1.77-4.78-7.44-4.78-7.44zm103.69 182.18l3.46 3.67 4.19 4.43 5.67 6 7.25 7.67a10.1 10.1 0 0014 1.68l.09-.06a10.12 10.12 0 001.84-14.1l-12.54-14.68-4.31-5-3-3.44a149.86 149.86 0 01-16.65 13.83z"/><path d="M261.87 219.6a10.11 10.11 0 00.48-14.17 10.3 10.3 0 00-14.3-.82s-15.3 9.93-53.89 49.7l8.74 9.5s41.27-25 58.44-43.74c.12-.13.53-.47.53-.47z"/><path d="M67.65 182.19h.11c.84.74 1.69 1.48 2.54 2.18A148.24 148.24 0 0088 197c1.89 1.15 3.12 1.84 3.35 2 3.68-4.61 7.22-9.06 10.46-13.14.74 6.82 1.73 14.54 3 23.27 2.9 19.73 2.45 28.95 2.21 51.82 1.57 2.38 3.2 4.87 4.86 7.46l-6.81 4.59a15.37 15.37 0 001.75 2.43s25.72 11.57 85.34.2c2.09-2.37 3.18-4.27 3.39-5.78.12-.81-1.28-3.16-2.58-5.15-.4-11.87-.64-31.47 1.27-47.68 1.72-14.56 6.36-28.86 9.3-39.79 5.5 5.83 12.66 13.38 20.33 21.48.27-.18 1.28-.86 2.82-2a149.86 149.86 0 0016.7-13.84c.9-.88 1.8-1.78 2.69-2.7h.13L217.81 147a14.86 14.86 0 00-8.82-6.08s-22.22-6.19-40.51-10.17l-23.32 23c-4.67-9.16-7.24-23-7.24-23-8.32 1.31-29.37 6.24-37.67 10.12a15.31 15.31 0 00-7.54 6.38z"/><path d="M67.65 182.19h.11c1.83 1.58 3.67 3.15 5.58 4.62s3.85 2.92 5.83 4.3 4 2.73 6 4 4.12 2.51 6.21 3.72h-.12l10.42-13.18.2-.26v.33l2.48 18.69.62 4.67c.22 1.56.46 3.11.66 4.67.43 3.12.78 6.24 1 9.38.56 6.27.73 12.57.73 18.85s-.1 12.58-.15 18.86v-.16l4.87 7.46.16.24-.25.17-6.84 4.61.1-.41a14.35 14.35 0 001.71 2.38l-.1-.08a57.38 57.38 0 0010.31 2.84c1.75.36 3.52.61 5.29.9s3.55.48 5.34.64a162.08 162.08 0 0021.48.64c7.17-.14 14.32-.83 21.45-1.6 3.56-.46 7.11-1 10.66-1.47l10.6-1.85-.23.13a23.28 23.28 0 001.91-2.44 9.32 9.32 0 001.3-2.7c0-.12.05-.24.07-.36a.46.46 0 000-.26 3.46 3.46 0 00-.2-.66 14.37 14.37 0 00-.68-1.36c-.5-.91-1.05-1.79-1.63-2.66l-.06-.1v-.12c-.26-7.39-.36-14.78-.26-22.18s.41-14.79 1.12-22.16a148.47 148.47 0 013.82-21.87c1.74-7.2 3.88-14.28 5.83-21.39l.23-.84.6.63 20.3 21.5-.59-.07c2-1.36 4-2.73 5.87-4.19s3.82-2.93 5.67-4.46 3.68-3.11 5.45-4.74 3.48-3.32 5.17-5l.13-.13h.31l-.32.7-28.36-33.18a15.32 15.32 0 00-1.71-2.06 13.9 13.9 0 00-2-1.71 14.76 14.76 0 00-2.32-1.32 12.38 12.38 0 00-2.51-.85c-13.42-3.69-26.9-7.19-40.48-10.2l.29-.09-23.34 23-.28.28-.18-.36a71.92 71.92 0 01-4.34-11.33c-1.14-3.88-2.12-7.81-2.9-11.78l.3.21c-3.2.52-6.39 1.18-9.57 1.88s-6.34 1.44-9.5 2.24-6.29 1.65-9.4 2.6a79.33 79.33 0 00-9.17 3.28 15.31 15.31 0 00-7.49 6.29zm0 0l24.95-35a15.32 15.32 0 013.27-3.86 15.08 15.08 0 014.34-2.61 79.62 79.62 0 019.19-3.37q4.66-1.44 9.4-2.66c3.16-.82 6.32-1.59 9.5-2.3s6.38-1.37 9.6-1.9h.25l.05.25c.78 3.95 1.76 7.86 2.91 11.72a71.94 71.94 0 004.32 11.23l-.45-.07 23.29-23.06.13-.12h.17c13.61 3 27.1 6.46 40.54 10.12a12.61 12.61 0 012.68.9 14.3 14.3 0 012.44 1.38 14.77 14.77 0 012.16 1.79 16.9 16.9 0 011.8 2.16l28.43 33.12.6.7h-1l.31-.13c-1.71 1.72-3.41 3.45-5.2 5.07s-3.61 3.23-5.47 4.78-3.77 3-5.7 4.5-3.91 2.85-5.9 4.23l-.32.22-.26-.28-20.35-21.46.83-.21c-1.94 7.14-4.07 14.21-5.83 21.37a147.16 147.16 0 00-3.85 21.73c-.72 7.34-1 14.71-1.16 22.09s0 14.76.21 22.13l-.06-.21c.57.88 1.13 1.78 1.65 2.72a12.35 12.35 0 01.71 1.46 3.77 3.77 0 01.26.84 1.29 1.29 0 010 .52c0 .14-.05.28-.08.42a10.07 10.07 0 01-1.42 2.95 25.53 25.53 0 01-2 2.52l-.09.11h-.14l-10.63 1.83c-3.56.5-7.12 1-10.69 1.46-7.15.76-14.32 1.43-21.52 1.56a165.25 165.25 0 01-21.57-.69c-1.79-.17-3.58-.44-5.36-.65s-3.57-.55-5.33-.92a57.45 57.45 0 01-10.44-2.91 15.1 15.1 0 01-1.79-2.49l-.15-.25.24-.16 6.85-4.6-.08.41-4.85-7.46v-.16c.07-6.29.19-12.57.2-18.86s-.14-12.56-.69-18.81c-.28-3.12-.59-6.25-1-9.36-.19-1.56-.42-3.11-.63-4.67l-.59-4.68-2.37-18.71.25.08L91.43 199v.06h-.07c-2.08-1.23-4.17-2.44-6.2-3.77s-4-2.66-6-4.05-3.91-2.85-5.81-4.35-3.73-3.06-5.55-4.65h-.11z"/><path d="M223.87 198.67c1.17 1.25 2.36 2.5 3.55 3.76.84-.62 1.75-1.31 2.73-2.05a158.24 158.24 0 0016.19-14.07c.92-.94 1.82-1.89 2.69-2.85l-2.82-3.29h-.13c-.89.92-1.79 1.82-2.69 2.7a149.86 149.86 0 01-16.7 13.84c-1.54 1.1-2.55 1.78-2.82 1.96z"/><path d="M226.54 203.33c1.66 3.24 4.11 3.43 4.11 3.43a36.62 36.62 0 003.69-1.95c6.46-3.87 12.83-9.91 16.31-13.46 1.69-1.72 2.7-2.85 2.7-2.85 1-2.15-3.92-4.91-4.63-6.68a2.71 2.71 0 00-2.51-1.65h-.13c-.89.92-1.79 1.82-2.69 2.7a149.86 149.86 0 01-16.7 13.84c-1.54 1.1-2.55 1.78-2.82 2l-.07.05c-.8 1.37 1.08 1.33 2.74 4.57z"/><path d="M226.54 203.33a8.26 8.26 0 00.74 1.17 7.51 7.51 0 00.93 1 4.81 4.81 0 002.44 1.2l3.22-1.73a29.76 29.76 0 003.07-2c2-1.42 3.89-2.95 5.72-4.55s3.61-3.27 5.33-5 3.39-3.5 5-5.28l-.07.11c.28-.61-.23-1.45-.84-2.14s-1.35-1.34-2.07-2a13.73 13.73 0 01-1.06-1.09 4.61 4.61 0 01-.49-.65l-.21-.4c-.05-.09-.08-.19-.13-.27a2.25 2.25 0 00-2.06-1.1l.33-.14c-1.73 1.71-3.43 3.44-5.27 5s-3.68 3.16-5.58 4.67-3.83 3-5.79 4.4-3.94 2.81-6 4.16a1.25 1.25 0 00-.18.65 1.12 1.12 0 00.31.6c.31.35.66.67 1 1a10 10 0 011.66 2.39zm0 0a9.79 9.79 0 00-1.63-2.3c-.32-.34-.68-.65-1-1a1.24 1.24 0 01-.33-.63 1.28 1.28 0 01.18-.7c2-1.38 4-2.76 5.85-4.27s3.78-3 5.61-4.6 3.63-3.19 5.38-4.85 3.45-3.38 5.13-5.11l.13-.13h.2a3.2 3.2 0 012.89 1.54 3.49 3.49 0 01.19.39l.14.25a4.66 4.66 0 00.41.52c.3.34.65.67 1 1 .71.67 1.44 1.34 2.12 2.12a5.87 5.87 0 01.88 1.34 2.19 2.19 0 010 1.81v.07c-1.7 1.77-3.37 3.57-5.19 5.21s-3.64 3.28-5.54 4.83-3.87 3-5.91 4.36c-1 .66-2.05 1.33-3.13 1.91l-3.26 1.69a4.88 4.88 0 01-2.45-1.25 7.12 7.12 0 01-.93-1 10 10 0 01-.74-1.2zM52.88 221.74a10.2 10.2 0 002.12 1.84 10.1 10.1 0 0013.9-2.76l5-6.19 7.1-8.95 3.54-4.42L88 197a148.24 148.24 0 01-17.7-12.63l-3 4.2-3.51 4.85L52 209.73a10.12 10.12 0 00.88 12.01z"/><path d="M52.35 221a5.77 5.77 0 01.43.56 1 1 0 01.1.18c13.25 21.74 49.27 53.15 49.27 53.15l2.9-2 6.84-4.61c-1.66-2.59-3.29-5.08-4.86-7.46-12.49-19-21.68-31.66-27.91-39.66-2.1-2.69-3.86-4.86-5.29-6.59-3.39-4-5-5.61-5-5.61a10.28 10.28 0 00-14.18-2 10.12 10.12 0 00-2.3 14.04zm12.37-34.72c.83.78 1.68 1.54 2.55 2.29a155 155 0 0017.3 12.69c1.19.77 2.3 1.46 3.29 2.07l3.5-4.4c-.23-.13-1.46-.82-3.35-2a148.24 148.24 0 01-17.71-12.56c-.85-.7-1.7-1.44-2.54-2.18h-.11z"/><path d="M61.15 191.06s1 .93 2.61 2.36c3.6 3.17 10.45 8.79 17.27 12.26a35.76 35.76 0 004.17 1.83s2.42-.38 3.83-3.74 3.29-3.46 2.38-4.81c-.23-.13-1.46-.82-3.35-2a148.24 148.24 0 01-17.76-12.59c-.85-.7-1.7-1.44-2.54-2.18h-.11a2.72 2.72 0 00-2.4 1.85c-.57 1.83-5.25 4.96-4.1 7.02z"/><path d="M61.15 191.06c1.87 1.59 3.69 3.19 5.62 4.69s3.87 3 5.87 4.36 4 2.71 6.16 3.89a42 42 0 006.55 3.08h-.22a4.57 4.57 0 002.1-1.3 7.3 7.3 0 001.39-2.23A10.49 10.49 0 0190.1 201c.3-.38.65-.74.88-1.06s.21-.36 0-.72l.18.17c-2.14-1.25-4.2-2.46-6.24-3.8s-4-2.67-6-4.08-3.91-2.87-5.8-4.4-3.72-3.12-5.53-4.73l.18.06a2.53 2.53 0 00-2.17 1.33l-.3.68a7.14 7.14 0 01-.43.64c-.31.4-.65.76-1 1.12a28.92 28.92 0 00-2 2.18 5.26 5.26 0 00-.75 1.24 1.76 1.76 0 00.03 1.43zm0 0a1.77 1.77 0 01-.08-1.44 4.88 4.88 0 01.69-1.32c.58-.81 1.25-1.54 1.89-2.28a6.62 6.62 0 001.54-2.42 2.93 2.93 0 012.57-1.68h.09l.09.07c1.84 1.56 3.69 3.11 5.62 4.57s3.88 2.87 5.85 4.26 4 2.72 6 4 4.16 2.52 6.19 3.7l.14.08v.09a1.69 1.69 0 01.32.93 1.58 1.58 0 01-.36.92c-.33.43-.64.74-.92 1.09a9.28 9.28 0 00-1.37 2.28 8.22 8.22 0 01-1.6 2.49 5.28 5.28 0 01-2.55 1.6h-.22a53.31 53.31 0 01-12.76-7.32c-2-1.45-3.89-3-5.74-4.58-.92-.8-1.84-1.61-2.74-2.44zm143.95 65.79c-2-5.78-5.07-4.86-5.07-4.86l-4.42.21c-3.84-1.92-5.9-5-7.87-5.61-3.58-1.12-4.75-4.6-5.51-4.31a2.37 2.37 0 00-1.32 3.52 14.13 14.13 0 003.44 3.82A83.37 83.37 0 00174 246.8c-2-.25-7.71 3.16-8.4 3.55-.85.48-2.07 1.3-1.67 2.12.67 1.37 2.29 1.35 3.52 1s4.48-2.62 5.59-2.32c.65.17 4.63 1.36 4.94 1.48 0 0-4.9 1.9-7 2.64-2.43.86-7.52 2.95-7.52 2.95-4 2.52 1 4.09 1 4.09-.3.25-1.3 1.14-1 1.91.59 1.44 2.67 1.44 3.18 1.42 1.6-.06 6.52-1.65 6.65-1.64l7.12.22c-2.14 1.67-3.39 2.59-6.06 4.42a25.49 25.49 0 00-3.52 2.52.89.89 0 00.45 1.24 4.48 4.48 0 003.38.07 32 32 0 003.91-1.87c4.63-2.71 7.22-3.55 11.44-.48 6.09 4.43 12.79-4.63 12.79-4.63s4.32-2.86 2.3-8.64z"/><path d="M184.35 249.62l3.25 1.18s.4-.75-3.25-1.18zm-19.91 12.68s6.68-2.35 8.2-2.76 9-.29 8.42-1.93c0 0-2.26-1.97-16.62 4.69zm13.56-9.68s3.75-.55 2.85-.92-2.12.63-2.85.92zm-69.21-1.89s1.57-5.09-.77-6.54-3.78 8.2-3.78 8.2z"/><path d="M127.37 259c-.26-.19-7.81-4-8.92-4.24-.65-.14-6.22-.7-6.25-.73l4.2-1.22c1.74-.51 5 2.19 7.4 1.55 2.23-.59 2-2.22 1.2-2.55-5.71-2.25-7.11-3.48-9.14-3.29a51.3 51.3 0 00-6.41 1.16c-2.7.44-3.69 0-4.81 1.87-.09.15-3.25 5.87-5.16 17.82-.89 5.6 5.4 7.31 5.4 7.31 5.28 1.37 5.13-4.56 7.22-6.44.89-.79 4.88 2.5 6.18 3.25s3.13 1.33 3.83.91c1.61-1 .93-1.7.17-2.31-1.18-.94-9.36-6.7-9.36-6.7 0-.31.13-.55.18-.85 0 0 4.17 1.36 6.15 2.25 1.8.82 5 2.24 6.55 1.26a1.49 1.49 0 00.27-2.56c-.94-.87-12.27-5.94-12.27-5.94a5.21 5.21 0 014-.69 32.05 32.05 0 014.94 1.69c1.08.54 3.68 1.76 4.71.5a1.33 1.33 0 00-.08-2.05z"/><path d="M112.53 270.17a23.31 23.31 0 00-2.42-1.54c-.37-.09-.62.42 2.42 1.54zm-1.53 1.38a18.15 18.15 0 01-3.66-.83c-.34-.36-1.74 1.28 3.66.83zm1.92-6.12s-4.08-2-3.81-2.67c.35-1 3 1.1 4 1.82zm.88-5.84s-4.57-.88-4.42-2 4.42 2 4.42 2zm-1.6-5.52s-3.42-.77-3.66-1.42 1.32-.09 3.66 1.42zm29.32 25.66a.58.58 0 01-.64-.55c-1.72-91.07 3.33-124.25 3.38-124.58a.62.62 0 01.73-.51.65.65 0 01.54.74c-.05.33-5.08 33.4-3.36 124.32a.59.59 0 01-.63.58zm-12.57-81.61l-9.77 5.87-10.31-5.8-.07-20.55 20.07-.07.08 20.55z"/><path d="M129 198.12l-9.63 6.09-.13.08-.13-.08-10.39-5.66-.21-.11v-.25l-.16-20.55v-.5h20.91v.38c-.06 6.96-.16 13.85-.26 20.6zm0 0c-.21-7-.35-13.76-.45-20.55l.37.37c-3.34.07-6.69.08-10 .11l-10 .08.49-.49v20.55l-.21-.36 10.24 5.94h-.26z"/><path d="M128.9 183.94l-.03-6.37-20.07.07.02 6.41 9.77 3.18 10.31-3.29z"/><path d="M128.9 183.94l-.26-6.37.23.23-5 .13c-1.68 0-3.35.09-5 .1l-10 .1.49-.49v6.41l-.32-.44 4.88 1.62c1.62.55 3.23 1.13 4.85 1.68h-.2c1.7-.49 3.4-1 5.14-1.49zm0 0l-5 1.81c-1.69.62-3.43 1.2-5.17 1.79h-.2c-1.64-.5-3.28-1-4.92-1.49l-4.89-1.56-.32-.1v-.34l-.06-6.41v-.5h10.5c1.68 0 3.35.05 5 .07l5 .1h.24v.23zm19.65 20.15a2.43 2.43 0 10-2.42 2.43 2.42 2.42 0 002.42-2.43zm0 23.16a2.43 2.43 0 10-2.42 2.43 2.42 2.42 0 002.42-2.43zm0 21.87a2.43 2.43 0 10-2.42 2.43 2.42 2.42 0 002.42-2.43zm0 22.52a2.43 2.43 0 10-2.42 2.42 2.42 2.42 0 002.42-2.42zm11.19-125.02s-2.19 4-14.43 9.86c0 0-9.23-5-10.23-10.16l8.36 4.29 1.72 3.19 3.51-3.46s8.42-3.6 11.07-3.72z"/><path d="M139.69 121.64s-2.31-.41-8.68 9.13a172.5 172.5 0 00-1.93 20 36.78 36.78 0 016-4.48l8.68 4.45s-3.28-13.76-3.93-20.71c0 .03-.14-6.2-.14-8.39z"/><path d="M139.69 121.64a3 3 0 00-1.42.66 12 12 0 00-1.21 1 22.81 22.81 0 00-2.12 2.38c-1.33 1.67-2.52 3.43-3.69 5.21v-.11c-.48 3.31-.84 6.64-1.12 10s-.53 6.67-.62 10l-.79-.36c.94-.87 1.9-1.67 2.9-2.45a26.63 26.63 0 013.18-2.12l.23-.13.23.12 8.67 4.49-.65.51c-1.12-4.8-2.1-9.63-2.89-14.5q-.3-1.81-.54-3.66a22.86 22.86 0 01-.26-3.68zm0 0L140 129a27.69 27.69 0 00.41 3.66c.19 1.21.41 2.42.63 3.63q.71 3.61 1.52 7.21c.53 2.39 1.06 4.79 1.64 7.18l.23 1-.88-.44-8.7-4.41h.47a34.45 34.45 0 00-5.92 4.38l-.83.74v-1.09q.19-5.06.72-10.07c.37-3.35.83-6.68 1.4-10v-.07a56.6 56.6 0 013.92-5.1 23.36 23.36 0 012.25-2.31 10.21 10.21 0 011.27-1 3 3 0 011.56-.67zm26.38-.86l-.32 7.93c-1.29 3.35-12.11 15.61-17.08 21.63 0 0 8.47-3.6 11.07-3.72 0 0 5.39 3.42 7.29 4.93a118.4 118.4 0 008.8-20.58s-6.55-9.55-9.76-10.19z"/><path d="M166.07 120.78l-.15 7.94v.06a33 33 0 01-3.79 5.81c-1.4 1.84-2.84 3.64-4.29 5.42-2.88 3.59-5.89 7.08-8.81 10.62l-.53-.71c1.81-.77 3.62-1.49 5.46-2.17.93-.34 1.85-.66 2.8-1a14.33 14.33 0 013-.67h.15l.14.09c1.24.8 2.47 1.6 3.69 2.42s2.44 1.64 3.62 2.57l-.69.13c1.81-3.22 3.4-6.61 4.89-10s2.84-6.89 4-10.42v.24c-1.34-2-2.74-3.87-4.25-5.71-.76-.9-1.54-1.8-2.39-2.63a7.91 7.91 0 00-2.85-1.99zm0 0a7.94 7.94 0 013 1.87 35.55 35.55 0 012.5 2.56 66.87 66.87 0 014.47 5.6l.07.11v.13q-1.68 5.37-3.81 10.57c-.71 1.74-1.49 3.44-2.29 5.14s-1.64 3.37-2.56 5l-.25.47-.44-.34c-1.13-.87-2.36-1.68-3.57-2.49s-2.46-1.6-3.69-2.38l.29.08a15.07 15.07 0 00-2.74.61c-.92.28-1.84.6-2.75.92-1.83.66-3.64 1.37-5.44 2.11l-.53-.71c3-3.53 6-7 9-10.5 1.49-1.75 3-3.51 4.4-5.31.71-.89 1.41-1.8 2.09-2.72a17.11 17.11 0 001.82-2.87v.06zm-16.36 34.62s4.44 3.14 3.13 4.52-6.59 5.43-8.45 5.59-5.91-7.13-5.83-8 3.79-2.92 4.89-3a55 55 0 016.26.89z"/><path d="M145.82 165s3.92 7.54 3.27 10.3-.39 59.48-3.27 64.67-3.89 9.9-5.49 8.19-5.34-6.57-5.17-9.49 2.26-60.29 3.4-64.83 4.89-10.21 4.89-10.21z"/></g><path class="cls-3" d="M97.94 301.77l3.42 102.09h35.77l-7.57-86 18.37.13.01 85.87h37.22l-3.36-107.59-83.86 5.5z"/><path class="cls-3" d="M181.8 271.92H96.91l.33 28.14c.23 10.26 9.12 18.52 20 18.88l44.56.28c11.11-.29 20-9 20-19.5z"/><path class="cls-4" d="M169 272.66c-1.05 4.18-2.5 15.74 12 20.46 0 0 1.71-12.9.33-20.46z"/><path class="cls-4" d="M181.24 296.46c-7.15-2.09-12-5.61-14.52-10.44s-2-10.27-1.24-13.36h-1.34a20.71 20.71 0 001.42 13.87c2.38 4.65 6.8 8.14 13.17 10.39.68.25 1.4.48 2.13.69a.66.66 0 00.81-.4.6.6 0 00-.43-.75zm-39.77 20.33a.65.65 0 01-.62-.43c-5.28-16.23-4.22-42.7-4.21-43a.64.64 0 01.67-.58.63.63 0 01.62.63c0 .26-1.06 26.53 4.15 42.57a.59.59 0 01-.42.75zm-4.28-9.52a9.64 9.64 0 01-8.38-6.69c-2.15-6.18-1.45-25.5-1.42-26.31a.63.63 0 01.67-.59.6.6 0 01.61.62c0 .2-.72 19.91 1.37 25.88a8.26 8.26 0 007.16 5.82.64.64 0 01.63.64.65.65 0 01-.64.63zm-38.5-34.61l.48 16.93s6.86-7.16 7.29-16.17zm1.13 21.07a.67.67 0 01-.55-.28.58.58 0 01.19-.83c9.37-5.69 10.21-19.1 10.22-19.23a.64.64 0 01.67-.58.62.62 0 01.61.64c0 .57-.88 14.15-10.8 20.18a.61.61 0 01-.34.1z"/><path class="cls-5" d="M130.67 101.11h26.38v30.88h-26.38z"/><path class="cls-6" d="M157 114.14v-13h-26.33v20.42c4.5.52 19.94 1.58 26.33-7.42z"/><path class="cls-5" d="M127.07 129a89.79 89.79 0 0134 0s-10.56 36.37-24.39 36.37-9.61-36.37-9.61-36.37z"/><path class="cls-7" d="M96.07 270l6.84-4.61c-1.66-2.59-3.29-5.08-4.86-7.46v3.56c-.77 1-1.78 3.66-2.49 4.76s-.2 2.46.51 3.75z"/><path class="cls-5" d="M171.13 70.87s8.35-44.22-33.36-44.22c-31.31 0-29.45 35.64-29.45 35.64 0 11.31-.26 30.52 7.51 42 3.28 4.83 7.38 9.32 14.38 10 30.18 2.88 37.48-20.78 38.54-25.23 1.33-5.59 2.38-18.19 2.38-18.19z"/><path d="M125 76.45c0 2.61-1.61 4.6-3.53 4.44S118 78.5 118 75.9s1.6-4.6 3.53-4.44 3.47 2.39 3.47 4.99zm26.43-.77c0 2.61-1.61 4.6-3.54 4.44s-3.47-2.39-3.44-5 1.61-4.6 3.54-4.44 3.46 2.4 3.44 5z" fill="#592b20"/><path class="cls-9" d="M134.34 91.24c-5.86 2.37-9-.38-9.25-3.16a4 4 0 012.6-4.08c3.57-1.39 6.09-6.88 6.11-6.94a11.77 11.77 0 01-5.8 8.64c-1 .57-1.59 1.17-1.52 2.06.14 1.55 2.38 3.87 7.84 3.48z"/><path d="M113.05 65.94l-.26-2.82a29.77 29.77 0 0113.52-1.72l.07 4.42c-5.82-1.38-13.24.11-13.33.12zm43.18.34c-4.91-2.1-13.68-1.13-13.76-1.15l.3-4.1c.35.06 8.3-.88 13.89 2.72z" fill="#9b473a"/><path d="M144.52 95.32s-11 2.25-21.27 0c0 0 1.81 9.43 10.64 9.41 8.31-.02 10.53-7.59 10.63-9.41z" fill="#cf2323"/><path class="cls-7" d="M133.65 99.82c-6.78 0-8.77-2.81-9.62-4.34 7.95 1.57 14.37.63 19.95-.06-.6 1.7-3.98 4.4-10.33 4.4z"/><path class="cls-5" d="M171.45 70.5s-3.39.75-4.57 10.29 1.2 10.34 1.91 10.66c0 0 8.65 2.42 11.65-11.89 2.49-11.88-8.99-9.06-8.99-9.06z"/><path class="cls-9" d="M169.05 84.88s6.3-3.15 1.38-6.32c0 0 1.66-7.21 5.87-5.58s.84 8.39 0 9.79c-1.75 2.92-7.25 6.5-7.25 2.11z"/><path d="M108.3 68.14s-1.41-15-1.2-22.09c0 0-14.79-10.29-5.14-23.16a20.13 20.13 0 00.59 3.92s1.77-11.58 11.45-15.28c0 0 .78 6.43 5.61 7.72s47-9.87 52.23 15.44c0 0 8 4.18 6.57 15.54s-3.19 20-3.19 20-6.38-.32-8 5.91c0 0-2.52-13.47-3.59-15.21-3-4.88-3.81-11-4.08-18.55 0 0-35.85 8.9-49 4.39a142.41 142.41 0 00-2.25 21.37z" fill="#9d3320"/><path d="M108.3 68.14a142.41 142.41 0 012.27-21.34l-3.47-.75c-.21 7.08 1.2 22.09 1.2 22.09zm51.23-25.73c.27 7.55 1.08 13.67 4.08 18.55 1.07 1.74 3.59 15.21 3.59 15.21 1.61-6.23 8-5.91 8-5.91s.63-3.19 1.46-8.24c-15.06-3.25-17.13-19.61-17.13-19.61z" fill="#8c281b"/><path d="M114 11.53c-9.65 3.7-11.42 15.28-11.42 15.28a20.13 20.13 0 01-.59-3.92 16.24 16.24 0 00-2.9 5.89c6.15 3.76 22 10.57 49.32 4.19 0 0-26.22-4.54-29.63-14-4.12-1.77-4.78-7.44-4.78-7.44z" fill="#b23f31"/><path class="cls-5" d="M217.69 193.71l3.46 3.67 4.19 4.43 5.67 6 7.25 7.67a10.1 10.1 0 0014 1.68l.09-.06a10.12 10.12 0 001.84-14.1l-12.54-14.68-4.31-5-3-3.44a149.86 149.86 0 01-16.65 13.83z"/><path class="cls-5" d="M252.87 216.6a10.11 10.11 0 00.48-14.17 10.3 10.3 0 00-14.3-.82s-15.3 9.93-53.89 49.7l8.74 9.5s41.27-25 58.44-43.74c.12-.13.53-.47.53-.47z"/><path class="cls-15" d="M58.65 179.19h.11c.84.74 1.69 1.48 2.54 2.18A148.24 148.24 0 0079 194c1.89 1.15 3.12 1.84 3.35 2 3.68-4.61 7.22-9.06 10.46-13.14.74 6.82 1.73 14.54 3 23.27 2.9 19.73 2.45 28.95 2.21 51.82 1.57 2.38 3.2 4.87 4.86 7.46L96.07 270a15.37 15.37 0 001.75 2.43s25.72 11.57 85.34.2c2.09-2.37 3.18-4.27 3.39-5.78.12-.81-1.28-3.16-2.58-5.15-.4-11.87-.64-31.47 1.27-47.68 1.72-14.56 6.36-28.86 9.3-39.79 5.5 5.83 12.66 13.38 20.33 21.48.27-.18 1.28-.86 2.82-2a149.86 149.86 0 0016.7-13.84c.9-.88 1.8-1.78 2.69-2.7h.13L208.81 144a14.86 14.86 0 00-8.82-6.08s-22.22-6.19-40.51-10.17l-23.32 23c-4.67-9.16-7.24-23-7.24-23-8.32 1.31-29.37 6.24-37.67 10.12a15.31 15.31 0 00-7.54 6.38z"/><path class="cls-16" d="M58.65 179.19h.11c1.83 1.58 3.67 3.15 5.58 4.62s3.85 2.92 5.83 4.3 4 2.73 6 4 4.12 2.51 6.21 3.72h-.12l10.45-13.13.2-.26v.33l2.48 18.69.62 4.67c.22 1.56.46 3.11.66 4.67.43 3.12.78 6.24 1 9.38.56 6.27.73 12.57.73 18.85s-.1 12.58-.15 18.86v-.16l4.87 7.46.16.24-.25.17-6.84 4.61.1-.41a14.35 14.35 0 001.71 2.38l-.1-.08a57.38 57.38 0 0010.31 2.84c1.75.36 3.52.61 5.29.9s3.55.48 5.34.64a162.08 162.08 0 0021.48.64c7.17-.14 14.32-.83 21.45-1.6 3.56-.46 7.11-1 10.66-1.47l10.6-1.85-.23.13a23.28 23.28 0 001.91-2.44 9.32 9.32 0 001.3-2.7c0-.12.05-.24.07-.36a.46.46 0 000-.26 3.46 3.46 0 00-.2-.66 14.37 14.37 0 00-.68-1.36c-.5-.91-1.05-1.79-1.63-2.66l-.06-.1v-.12c-.26-7.39-.36-14.78-.26-22.18s.41-14.79 1.12-22.16a148.47 148.47 0 013.82-21.87c1.74-7.2 3.88-14.28 5.83-21.39l.23-.84.6.63 20.3 21.5-.59-.07c2-1.36 4-2.73 5.87-4.19s3.82-2.93 5.67-4.46 3.68-3.11 5.45-4.74 3.48-3.32 5.17-5l.13-.13h.31l-.32.7-28.36-33.18a15.32 15.32 0 00-1.71-2.06 13.9 13.9 0 00-2-1.71 14.76 14.76 0 00-2.32-1.32 12.38 12.38 0 00-2.51-.85c-13.42-3.69-26.9-7.19-40.48-10.2l.29-.09-23.34 23-.28.28-.18-.36a71.92 71.92 0 01-4.34-11.33c-1.14-3.88-2.12-7.81-2.9-11.78l.3.21c-3.2.52-6.39 1.18-9.57 1.88s-6.34 1.44-9.5 2.24-6.29 1.65-9.4 2.6a79.33 79.33 0 00-9.22 3.2 15.31 15.31 0 00-7.49 6.29zm0 0l24.95-35a15.32 15.32 0 013.27-3.86 15.08 15.08 0 014.34-2.61 79.62 79.62 0 019.19-3.37q4.66-1.44 9.4-2.66c3.16-.82 6.32-1.59 9.5-2.3s6.38-1.37 9.6-1.9h.25l.05.25c.78 3.95 1.76 7.86 2.91 11.72a71.94 71.94 0 004.32 11.23l-.45-.07 23.29-23.06.13-.12h.17c13.61 3 27.1 6.46 40.54 10.12a12.61 12.61 0 012.68.9 14.3 14.3 0 012.44 1.38 14.77 14.77 0 012.16 1.79 16.9 16.9 0 011.8 2.16l28.43 33.12.6.7h-1l.31-.13c-1.71 1.72-3.41 3.45-5.2 5.07s-3.61 3.23-5.47 4.78-3.77 3-5.7 4.5-3.91 2.85-5.9 4.23l-.32.22-.26-.28-20.35-21.46.83-.21c-1.94 7.14-4.07 14.21-5.83 21.37a147.16 147.16 0 00-3.85 21.73c-.72 7.34-1 14.71-1.16 22.09s0 14.76.21 22.13l-.06-.21c.57.88 1.13 1.78 1.65 2.72a12.35 12.35 0 01.71 1.46 3.77 3.77 0 01.26.84 1.29 1.29 0 010 .52c0 .14-.05.28-.08.42a10.07 10.07 0 01-1.42 2.95 25.53 25.53 0 01-2 2.52l-.09.11h-.14l-10.63 1.83c-3.56.5-7.12 1-10.69 1.46-7.15.76-14.32 1.43-21.52 1.56a165.25 165.25 0 01-21.57-.69c-1.79-.17-3.58-.44-5.36-.65s-3.57-.55-5.33-.92a57.45 57.45 0 01-10.44-2.91 15.1 15.1 0 01-1.79-2.49l-.15-.25.24-.16 6.85-4.6-.08.41-4.85-7.46v-.16c.07-6.29.19-12.57.2-18.86s-.14-12.56-.69-18.81c-.28-3.12-.59-6.25-1-9.36-.19-1.56-.42-3.11-.63-4.67l-.59-4.68-2.65-18.77.25.08L82.43 196v.06h-.07c-2.08-1.23-4.17-2.44-6.2-3.77s-4-2.66-6-4.05-3.91-2.85-5.81-4.35-3.73-3.06-5.55-4.65h-.11z"/><path class="cls-7" d="M214.87 195.67c1.17 1.25 2.36 2.5 3.55 3.76.84-.62 1.75-1.31 2.73-2.05a158.24 158.24 0 0016.19-14.07c.92-.94 1.82-1.89 2.69-2.85l-2.82-3.29h-.13c-.89.92-1.79 1.82-2.69 2.7a149.86 149.86 0 01-16.7 13.84c-1.54 1.1-2.55 1.78-2.82 1.96z"/><path class="cls-15" d="M217.54 200.33c1.66 3.24 4.11 3.43 4.11 3.43a36.62 36.62 0 003.69-1.95c6.46-3.87 12.83-9.91 16.31-13.46 1.69-1.72 2.7-2.85 2.7-2.85 1-2.15-3.92-4.91-4.63-6.68a2.71 2.71 0 00-2.51-1.65h-.13c-.89.92-1.79 1.82-2.69 2.7a149.86 149.86 0 01-16.7 13.84c-1.54 1.1-2.55 1.78-2.82 2l-.07.05c-.8 1.37 1.08 1.33 2.74 4.57z"/><path class="cls-16" d="M217.54 200.33a8.26 8.26 0 00.74 1.17 7.51 7.51 0 00.93 1 4.81 4.81 0 002.44 1.2l3.22-1.73a29.76 29.76 0 003.07-2c2-1.42 3.89-2.95 5.72-4.55s3.61-3.27 5.33-5 3.39-3.5 5-5.28l-.07.11c.28-.61-.23-1.45-.84-2.14s-1.35-1.34-2.07-2a13.73 13.73 0 01-1.06-1.09 4.61 4.61 0 01-.49-.65l-.21-.4c-.05-.09-.08-.19-.13-.27a2.25 2.25 0 00-2.06-1.1l.33-.14c-1.73 1.71-3.43 3.44-5.27 5s-3.68 3.16-5.58 4.67-3.83 3-5.79 4.4-3.94 2.81-6 4.16a1.25 1.25 0 00-.18.65 1.12 1.12 0 00.31.6c.31.35.66.67 1 1a10 10 0 011.66 2.39zm0 0a9.79 9.79 0 00-1.63-2.3c-.32-.34-.68-.65-1-1a1.24 1.24 0 01-.33-.63 1.28 1.28 0 01.18-.7c2-1.38 4-2.76 5.85-4.27s3.78-3 5.61-4.6 3.63-3.19 5.38-4.85 3.45-3.38 5.13-5.11l.13-.13h.2a3.2 3.2 0 012.89 1.54 3.49 3.49 0 01.19.39l.14.25a4.66 4.66 0 00.41.52c.3.34.65.67 1 1 .71.67 1.44 1.34 2.12 2.12a5.87 5.87 0 01.88 1.34 2.19 2.19 0 010 1.81v.07c-1.7 1.77-3.37 3.57-5.19 5.21s-3.64 3.28-5.54 4.83-3.87 3-5.91 4.36c-1 .66-2.05 1.33-3.13 1.91l-3.26 1.69a4.88 4.88 0 01-2.45-1.25 7.12 7.12 0 01-.93-1 10 10 0 01-.74-1.2z"/><path class="cls-5" d="M43.88 218.74a10.2 10.2 0 002.12 1.84 10.1 10.1 0 0013.9-2.76l5-6.19 7.1-8.95 3.54-4.42L79 194a148.24 148.24 0 01-17.7-12.63l-3 4.2-3.51 4.85L43 206.73a10.12 10.12 0 00.88 12.01z"/><path class="cls-5" d="M43.35 218a5.77 5.77 0 01.43.56 1 1 0 01.1.18c13.25 21.74 49.27 53.15 49.27 53.15l2.9-2 6.84-4.61c-1.66-2.59-3.29-5.08-4.86-7.46-12.49-19-21.68-31.66-27.91-39.66-2.1-2.69-3.86-4.86-5.29-6.59-3.39-4-5-5.61-5-5.61a10.28 10.28 0 00-14.18-2 10.12 10.12 0 00-2.3 14.04z"/><path class="cls-7" d="M55.72 183.28c.83.78 1.68 1.54 2.55 2.29a155 155 0 0017.3 12.69c1.19.77 2.3 1.46 3.29 2.07l3.5-4.4c-.23-.13-1.46-.82-3.35-2a148.24 148.24 0 01-17.71-12.56c-.85-.7-1.7-1.44-2.54-2.18h-.11z"/><path class="cls-15" d="M52.15 188.06s1 .93 2.61 2.36c3.6 3.17 10.45 8.79 17.27 12.26a35.76 35.76 0 004.17 1.83s2.42-.38 3.83-3.74 3.29-3.46 2.38-4.81c-.23-.13-1.46-.82-3.35-2a148.24 148.24 0 01-17.76-12.59c-.85-.7-1.7-1.44-2.54-2.18h-.11a2.72 2.72 0 00-2.4 1.85c-.57 1.83-5.25 4.96-4.1 7.02z"/><path class="cls-16" d="M52.15 188.06c1.87 1.59 3.69 3.19 5.62 4.69s3.87 3 5.87 4.36 4 2.71 6.16 3.89a42 42 0 006.55 3.08h-.22a4.57 4.57 0 002.1-1.3 7.3 7.3 0 001.39-2.23A10.49 10.49 0 0181.1 198c.3-.38.65-.74.88-1.06s.21-.36 0-.72l.18.17c-2.14-1.25-4.2-2.46-6.24-3.8s-4-2.67-6-4.08-3.91-2.87-5.8-4.4-3.72-3.12-5.53-4.73l.18.06a2.53 2.53 0 00-2.17 1.33l-.3.68a7.14 7.14 0 01-.43.64c-.31.4-.65.76-1 1.12a28.92 28.92 0 00-2 2.18 5.26 5.26 0 00-.75 1.24 1.76 1.76 0 00.03 1.43zm0 0a1.77 1.77 0 01-.08-1.44 4.88 4.88 0 01.69-1.32c.58-.81 1.25-1.54 1.89-2.28a6.62 6.62 0 001.54-2.42 2.93 2.93 0 012.57-1.68h.09l.09.07c1.84 1.56 3.69 3.11 5.62 4.57s3.88 2.87 5.85 4.26 4 2.72 6 4 4.16 2.52 6.19 3.7l.14.08v.09a1.69 1.69 0 01.32.93 1.58 1.58 0 01-.36.92c-.33.43-.64.74-.92 1.09a9.28 9.28 0 00-1.37 2.28 8.22 8.22 0 01-1.6 2.49 5.28 5.28 0 01-2.55 1.6h-.22a53.31 53.31 0 01-12.76-7.32c-2-1.45-3.89-3-5.74-4.58-.92-.8-1.84-1.61-2.74-2.44z"/><path class="cls-5" d="M196.1 253.85c-2-5.78-5.07-4.86-5.07-4.86l-4.42.21c-3.84-1.92-5.9-5-7.87-5.61-3.58-1.12-4.75-4.6-5.51-4.31a2.37 2.37 0 00-1.32 3.52 14.13 14.13 0 003.44 3.82A83.37 83.37 0 00165 243.8c-2-.25-7.71 3.16-8.4 3.55-.85.48-2.07 1.3-1.67 2.12.67 1.37 2.29 1.35 3.52 1s4.48-2.62 5.59-2.32c.65.17 4.63 1.36 4.94 1.48 0 0-4.9 1.9-7 2.64-2.43.86-7.52 3-7.52 3-4 2.52 1 4.09 1 4.09-.3.25-1.3 1.14-1 1.91.59 1.44 2.67 1.44 3.18 1.42 1.6-.06 6.52-1.65 6.65-1.64l7.12.22c-2.14 1.67-3.39 2.59-6.06 4.42a25.49 25.49 0 00-3.52 2.52.89.89 0 00.45 1.24 4.48 4.48 0 003.38.07 32 32 0 003.91-1.87c4.63-2.71 7.22-3.55 11.44-.48 6.09 4.43 12.79-4.63 12.79-4.63s4.32-2.91 2.3-8.69z"/><path class="cls-6" d="M175.35 246.62l3.25 1.18s.4-.75-3.25-1.18zm-19.91 12.68s6.68-2.35 8.2-2.76 9-.29 8.42-1.93c0 0-2.26-1.97-16.62 4.69zm13.56-9.68s3.75-.55 2.85-.92-2.12.63-2.85.92zm-69.21-1.89s1.57-5.09-.77-6.54-3.78 8.2-3.78 8.2z"/><path class="cls-5" d="M118.37 256c-.26-.19-7.81-4-8.92-4.24-.65-.14-6.22-.7-6.25-.73l4.2-1.22c1.74-.51 5 2.19 7.4 1.55 2.23-.59 2-2.22 1.2-2.55-5.71-2.25-7.11-3.48-9.14-3.29a51.3 51.3 0 00-6.41 1.16c-2.7.44-3.69 0-4.81 1.87-.09.15-3.25 5.87-5.16 17.82-.89 5.6 5.4 7.31 5.4 7.31 5.28 1.37 5.13-4.56 7.22-6.44.89-.79 4.88 2.5 6.18 3.25s3.13 1.33 3.83.91c1.61-1 .93-1.7.17-2.31-1.18-.94-9.36-6.7-9.36-6.7 0-.31.13-.55.18-.85 0 0 4.17 1.36 6.15 2.25 1.8.82 5 2.24 6.55 1.26a1.49 1.49 0 00.27-2.56c-.94-.87-12.27-5.94-12.27-5.94a5.21 5.21 0 014-.69 32.05 32.05 0 014.94 1.69c1.08.54 3.68 1.76 4.71.5a1.33 1.33 0 00-.08-2.05z"/><path class="cls-6" d="M103.53 267.17a23.31 23.31 0 00-2.42-1.54c-.37-.09-.62.42 2.42 1.54zm-1.53 1.38a18.15 18.15 0 01-3.66-.83c-.34-.36-1.74 1.28 3.66.83zm1.92-6.12s-4.08-2-3.81-2.67c.35-1 3 1.1 4 1.82zm.88-5.84s-4.57-.88-4.42-2 4.42 2 4.42 2zm-1.6-5.52s-3.42-.77-3.66-1.42 1.32-.09 3.66 1.42z"/><path d="M132.52 276.73a.58.58 0 01-.64-.55c-1.72-91.07 3.33-124.25 3.38-124.58a.62.62 0 01.73-.51.65.65 0 01.54.74c-.05.33-5.08 33.4-3.36 124.32a.59.59 0 01-.63.58z" fill="#003554"/><path class="cls-15" d="M119.95 195.12l-9.77 5.87-10.31-5.8-.07-20.55 20.07-.07.08 20.55z"/><path class="cls-16" d="M120 195.12l-9.63 6.09-.13.08-.13-.08-10.39-5.66-.21-.11v-.25l-.16-20.55v-.5h20.91v.38c-.06 6.96-.16 13.85-.26 20.6zm0 0c-.21-7-.35-13.76-.45-20.55l.37.37c-3.34.07-6.69.08-10 .11l-10 .08.49-.49v20.55l-.21-.36 10.24 5.94h-.26z"/><path class="cls-15" d="M119.9 180.94l-.03-6.37-20.07.07.02 6.41 9.77 3.18 10.31-3.29z"/><path class="cls-16" d="M119.9 180.94l-.26-6.37.23.23-5 .13c-1.68 0-3.35.09-5 .1l-10 .1.49-.49v6.41l-.32-.44 4.88 1.62c1.62.55 3.23 1.13 4.85 1.68h-.2c1.7-.49 3.4-1 5.14-1.49zm0 0l-5 1.81c-1.69.62-3.43 1.2-5.17 1.79h-.2c-1.64-.5-3.28-1-4.92-1.49l-4.89-1.56-.32-.1v-.34l-.06-6.41v-.5h10.5c1.68 0 3.35.05 5 .07l5 .1h.24v.23z"/><path d="M139.55 201.09a2.43 2.43 0 10-2.42 2.43 2.42 2.42 0 002.42-2.43zm0 23.16a2.43 2.43 0 10-2.42 2.43 2.42 2.42 0 002.42-2.43zm0 21.87a2.43 2.43 0 10-2.42 2.43 2.42 2.42 0 002.42-2.43zm0 22.52a2.43 2.43 0 10-2.42 2.42 2.42 2.42 0 002.42-2.42z" fill="#2a708d"/><path class="cls-19" d="M150.74 143.62s-2.19 4-14.43 9.86c0 0-9.23-5-10.23-10.16l8.36 4.29 1.72 3.19 3.51-3.46s8.42-3.6 11.07-3.72z"/><path class="cls-15" d="M130.69 118.64s-2.31-.41-8.68 9.13a172.5 172.5 0 00-1.93 20 36.78 36.78 0 016-4.48l8.68 4.45s-3.28-13.76-3.93-20.71c0 .03-.14-6.2-.14-8.39z"/><path class="cls-16" d="M130.69 118.64a3 3 0 00-1.42.66 12 12 0 00-1.21 1 22.81 22.81 0 00-2.12 2.38c-1.33 1.67-2.52 3.43-3.69 5.21v-.11c-.48 3.31-.84 6.64-1.12 10s-.53 6.67-.62 10l-.79-.36c.94-.87 1.9-1.67 2.9-2.45a26.63 26.63 0 013.18-2.12l.23-.13.23.12 8.67 4.49-.65.51c-1.12-4.8-2.1-9.63-2.89-14.5q-.3-1.81-.54-3.66a22.86 22.86 0 01-.26-3.68zm0 0L131 126a27.69 27.69 0 00.41 3.66c.19 1.21.41 2.42.63 3.63q.71 3.61 1.52 7.21c.53 2.39 1.06 4.79 1.64 7.18l.23 1-.88-.44-8.7-4.41h.47a34.45 34.45 0 00-5.92 4.38l-.83.74v-1.09q.19-5.06.72-10.07c.37-3.35.83-6.68 1.4-10v-.07a56.6 56.6 0 013.92-5.1 23.36 23.36 0 012.25-2.31 10.21 10.21 0 011.27-1 3 3 0 011.56-.67z"/><path class="cls-15" d="M157.07 117.78l-.32 7.93c-1.29 3.35-12.11 15.61-17.08 21.63 0 0 8.47-3.6 11.07-3.72 0 0 5.39 3.42 7.29 4.93a118.4 118.4 0 008.8-20.58s-6.55-9.55-9.76-10.19z"/><path class="cls-16" d="M157.07 117.78l-.15 7.94v.06a33 33 0 01-3.79 5.81c-1.4 1.84-2.84 3.64-4.29 5.42-2.88 3.59-5.89 7.08-8.81 10.62l-.53-.71c1.81-.77 3.62-1.49 5.46-2.17.93-.34 1.85-.66 2.8-1a14.33 14.33 0 013-.67h.15l.14.09c1.24.8 2.47 1.6 3.69 2.42s2.44 1.64 3.62 2.57l-.69.13c1.81-3.22 3.4-6.61 4.89-10s2.84-6.89 4-10.42v.24c-1.34-2-2.74-3.87-4.25-5.71-.76-.9-1.54-1.8-2.39-2.63a7.91 7.91 0 00-2.85-1.99zm0 0a7.94 7.94 0 013 1.87 35.55 35.55 0 012.5 2.56 66.87 66.87 0 014.47 5.6l.07.11v.13q-1.68 5.37-3.81 10.57c-.71 1.74-1.49 3.44-2.29 5.14s-1.64 3.37-2.56 5l-.25.47-.44-.34c-1.13-.87-2.36-1.68-3.57-2.49s-2.46-1.6-3.69-2.38l.29.08a15.07 15.07 0 00-2.74.61c-.92.28-1.84.6-2.75.92-1.83.66-3.64 1.37-5.44 2.11l-.53-.71c3-3.53 6-7 9-10.5 1.49-1.75 3-3.51 4.4-5.31.71-.89 1.41-1.8 2.09-2.72a17.11 17.11 0 001.82-2.87v.06z"/><path class="cls-19" d="M140.71 152.4s4.44 3.14 3.13 4.52-6.59 5.43-8.45 5.59-5.91-7.13-5.83-8 3.79-2.92 4.89-3a55 55 0 016.26.89z"/><path class="cls-19" d="M136.82 162s3.92 7.54 3.27 10.3-.39 59.48-3.27 64.67-3.89 9.9-5.49 8.19-5.34-6.57-5.17-9.49 2.26-60.29 3.4-64.83 4.89-10.21 4.89-10.21z"/><path fill="none" d="M0 0h278.12v386.52H0z"/></g></g></g></svg>