<svg xmlns="http://www.w3.org/2000/svg" viewBox="0 0 172.04 121.02"><defs><style>.cls-2{opacity:.47;mix-blend-mode:multiply}.cls-3,.cls-4,.cls-5{stroke:#000;stroke-miterlimit:10;stroke-width:.75px}.cls-4{fill:none}.cls-5,.cls-6{fill:#fff}</style></defs><g style="isolation:isolate"><g id="Capa_2" data-name="Capa 2"><g id="IMG04"><g class="cls-2"><path class="cls-3" d="M171.29 85.75v12.51l-38.3 22.11-73.51-42.72v-12.5l111.81 20.6z"/><path class="cls-3" d="M132.99 107.87v12.5l38.3-22.11V85.75l-38.3 22.12z"/><path class="cls-3" d="M59.48 65.15l73.51 42.72 38.3-22.12-73.51-42.72-38.3 22.12z"/><path d="M115.43 69.14a16.75 16.75 0 018.29 2c2 1.19 3.17 2.72 3.17 4.31s-1.15 3.15-3.22 4.35a16.92 16.92 0 01-8.32 2 16.72 16.72 0 01-8.29-2c-2-1.19-3.18-2.72-3.17-4.31s1.14-3.15 3.22-4.35a16.89 16.89 0 018.32-2z"/><path class="cls-4" d="M115.43 69.14a16.75 16.75 0 018.29 2c2 1.19 3.17 2.72 3.17 4.31s-1.15 3.15-3.22 4.35a16.92 16.92 0 01-8.32 2 16.72 16.72 0 01-8.29-2c-2-1.19-3.18-2.72-3.17-4.31s1.14-3.15 3.22-4.35a16.89 16.89 0 018.32-2z"/><path class="cls-3" d="M101.39 68.09A.76.76 0 01101 68l-10.68-6.2a.77.77 0 11.78-1.33l10.67 6.2a.77.77 0 01-.39 1.44zm38.66 22.47a.76.76 0 01-.38-.11L129 84.25a.78.78 0 01-.28-1 .77.77 0 011.06-.28l10.67 6.2a.77.77 0 01-.39 1.44z"/><path d="M69.9 59.13l17.46-10.08 10.41-6 10.35 6 52 30.22 11.15 6.48-10.55 6.09-17.33 10-10.42 6-10.34-6-52.81-30.68-10.34-6zm3.71 8.94L128.47 100l4.53 2.63 4.57-2.64 19-11 5.58-3.22-5.92-3.44L102.3 51l-4.52-2.63L93.21 51 73.66 62.24l-5 2.92z"/><path class="cls-4" d="M69.9 59.13l17.46-10.08 10.41-6 10.35 6 52 30.22 11.15 6.48-10.55 6.09-17.33 10-10.42 6-10.34-6-52.81-30.68-10.34-6zm3.71 8.94L128.47 100l4.53 2.63 4.57-2.64 19-11 5.58-3.22-5.92-3.44L102.3 51l-4.52-2.63L93.21 51 73.66 62.24l-5 2.92z"/><path d="M156.24 82.3a10.32 10.32 0 013.11-2.61c.25-.15.52-.29.79-.42l11.15 6.48-10.55 6.09a13.46 13.46 0 01-1.47-.74 11.12 11.12 0 01-2.69-2.1 5.31 5.31 0 01-1.48-3.54 5.13 5.13 0 011.14-3.16z"/><path class="cls-4" d="M156.24 82.3a10.32 10.32 0 013.11-2.61c.25-.15.52-.29.79-.42l11.15 6.48-10.55 6.09a13.46 13.46 0 01-1.47-.74 11.12 11.12 0 01-2.69-2.1 5.31 5.31 0 01-1.48-3.54 5.13 5.13 0 011.14-3.16z"/><path d="M128.47 100a26.4 26.4 0 019.1 0 19.75 19.75 0 015.84 1.91l-10.42 6-10.34-6a20.21 20.21 0 015.82-1.91z"/><path class="cls-4" d="M128.47 100a26.4 26.4 0 019.1 0 19.75 19.75 0 015.84 1.91l-10.42 6-10.34-6a20.21 20.21 0 015.82-1.91z"/><path d="M97.78 43l10.35 6a20.07 20.07 0 01-5.83 2 26.08 26.08 0 01-4.57.4 26.49 26.49 0 01-4.52-.4c-.48-.08-.95-.18-1.41-.29a18.87 18.87 0 01-4.43-1.62z"/><path class="cls-4" d="M97.78 43l10.35 6a20.07 20.07 0 01-5.83 2 26.08 26.08 0 01-4.57.4 26.49 26.49 0 01-4.52-.4c-.48-.08-.95-.18-1.41-.29a18.87 18.87 0 01-4.43-1.62z"/><path d="M69.9 59.13l.56.31a9.83 9.83 0 013.2 2.8 4.77 4.77 0 010 5.83 9.93 9.93 0 01-3.23 2.78l-.56.31-10.34-6z"/><path class="cls-4" d="M69.9 59.13l.56.31a9.83 9.83 0 013.2 2.8 4.77 4.77 0 010 5.83 9.93 9.93 0 01-3.23 2.78l-.56.31-10.34-6z"/><path class="cls-3" d="M122.33 72.08l-1-.57a.8.8 0 00-.71 0l-.78.46a7.55 7.55 0 00-3.2-.59 5.89 5.89 0 00-2.69.74c-.8.46-1.19.93-1.18 1.4a2.42 2.42 0 00.72 1.53c0 .06.17.21.37.44a6 6 0 01.87 1.17c.12.28 0 .5-.28.68a2.33 2.33 0 01-2.44-.2 5.18 5.18 0 01-1.38-1.14 3 3 0 01-.45-.67.59.59 0 00-.18-.17 1.1 1.1 0 00-1 0l-1.12.65c-.16.09-.21.23-.13.35a6.65 6.65 0 001.88 1.72l-.92.53a.22.22 0 000 .41l1 .57a.8.8 0 00.71 0l1-.56a7.12 7.12 0 003.07.53 6 6 0 002.76-.78 2.16 2.16 0 001-1 1.28 1.28 0 00-.08-1.06 5.16 5.16 0 00-.92-1.22c-.36-.39-.61-.67-.75-.86a.89.89 0 01-.22-.56c0-.18.14-.35.4-.5a1.78 1.78 0 011.14-.21 3.57 3.57 0 011.3.46 3.29 3.29 0 011.13 1 3.47 3.47 0 01.3.52.42.42 0 00.19.18 1.07 1.07 0 001 0l1.13-.66c.16-.09.21-.23.13-.35a4.06 4.06 0 00-.51-.65 6.62 6.62 0 00-.9-.76l.75-.43c.19-.11.19-.29 0-.41"/><path class="cls-3" d="M168.28 73.11v12.5l-38.31 22.12-73.51-42.72V52.5l111.82 20.61z"/><path d="M129.97 95.22v12.51l38.31-22.12v-12.5l-38.31 22.11z"/><path class="cls-4" d="M129.97 95.22v12.51l38.31-22.12v-12.5l-38.31 22.11z"/><path class="cls-3" d="M56.46 52.5l73.51 42.72 38.3-22.11-73.5-42.72L56.46 52.5z"/><path d="M112.41 56.49a16.83 16.83 0 018.29 2c2 1.19 3.18 2.72 3.17 4.32s-1.14 3.15-3.22 4.35a17 17 0 01-8.32 2 16.83 16.83 0 01-8.29-2c-2.05-1.19-3.17-2.72-3.17-4.32s1.15-3.15 3.22-4.35a17 17 0 018.32-2z"/><path class="cls-4" d="M112.41 56.49a16.83 16.83 0 018.29 2c2 1.19 3.18 2.72 3.17 4.32s-1.14 3.15-3.22 4.35a17 17 0 01-8.32 2 16.83 16.83 0 01-8.29-2c-2.05-1.19-3.17-2.72-3.17-4.32s1.15-3.15 3.22-4.35a17 17 0 018.32-2z"/><path class="cls-3" d="M98.37 55.44a.75.75 0 01-.38-.1l-10.67-6.2a.77.77 0 01.77-1.34L98.76 54a.77.77 0 01.24 1.06.76.76 0 01-.63.38zM137 77.91a.75.75 0 01-.38-.1L126 71.6a.76.76 0 01-.28-1 .77.77 0 011-.28l10.67 6.2a.77.77 0 01-.39 1.44z"/><path class="cls-3" d="M66.88 46.49L84.35 36.4l10.41-6 10.35 6 52 30.22 11.15 6.49-10.54 6.09-17.33 10-10.42 6-10.34-6L66.8 58.51l-10.34-6zm3.72 8.93l54.85 31.88 4.55 2.63 4.57-2.64 19-11 5.59-3.22-5.93-3.44-53.94-31.32-4.53-2.63-4.57 2.64L70.65 49.6l-5.06 2.92z"/><path d="M153.22 69.65a10.59 10.59 0 013.11-2.65l.79-.42 11.15 6.49-10.55 6.13q-.76-.35-1.47-.75a10.66 10.66 0 01-2.69-2.14 5.36 5.36 0 01-1.48-3.54 5.15 5.15 0 011.14-3.12z"/><path class="cls-4" d="M153.22 69.65a10.59 10.59 0 013.11-2.65l.79-.42 11.15 6.49-10.55 6.13q-.76-.35-1.47-.75a10.66 10.66 0 01-2.69-2.14 5.36 5.36 0 01-1.48-3.54 5.15 5.15 0 011.14-3.12z"/><path d="M125.45 87.3a27.08 27.08 0 019.1 0 20.35 20.35 0 015.84 1.91l-10.42 6-10.34-6a20.52 20.52 0 015.82-1.91z"/><path class="cls-4" d="M125.45 87.3a27.08 27.08 0 019.1 0 20.35 20.35 0 015.84 1.91l-10.42 6-10.34-6a20.52 20.52 0 015.82-1.91z"/><path d="M94.76 30.39l10.35 6a20.31 20.31 0 01-5.82 1.91 26.29 26.29 0 01-4.58.39 26.59 26.59 0 01-4.52-.38c-.48-.08-1-.18-1.41-.29a19.34 19.34 0 01-4.43-1.63z"/><path class="cls-4" d="M94.76 30.39l10.35 6a20.31 20.31 0 01-5.82 1.91 26.29 26.29 0 01-4.58.39 26.59 26.59 0 01-4.52-.38c-.48-.08-1-.18-1.41-.29a19.34 19.34 0 01-4.43-1.63z"/><path d="M66.88 46.49c.19.1.38.2.56.31a9.86 9.86 0 013.21 2.8 4.79 4.79 0 01-.05 5.82 10 10 0 01-3.23 2.78l-.57.31-10.34-6z"/><path class="cls-4" d="M66.88 46.49c.19.1.38.2.56.31a9.86 9.86 0 013.21 2.8 4.79 4.79 0 01-.05 5.82 10 10 0 01-3.23 2.78l-.57.31-10.34-6z"/><path class="cls-3" d="M119.31 59.44l-1-.57a.81.81 0 00-.71 0l-.78.46a7.25 7.25 0 00-3.2-.59 5.92 5.92 0 00-2.69.73c-.8.46-1.19.93-1.18 1.41a2.48 2.48 0 00.72 1.53c0 .06.17.2.38.44a6.3 6.3 0 01.86 1.17c.12.27 0 .49-.27.67a2.33 2.33 0 01-2.45-.2 5.18 5.18 0 01-1.39-1.13 3.68 3.68 0 01-.45-.66.42.42 0 00-.18-.17 1 1 0 00-1 0l-1.12.65c-.15.09-.21.23-.13.35a6.41 6.41 0 001.89 1.71l-.93.54c-.19.11-.19.29 0 .4l1 .58a.78.78 0 00.7 0l1-.57a6.93 6.93 0 003.06.53 6 6 0 002.76-.77 2.29 2.29 0 001.05-1 1.29 1.29 0 00-.08-1.05 5.32 5.32 0 00-.93-1.22c-.36-.39-.61-.68-.75-.86a.84.84 0 01-.21-.56q0-.28.39-.51a1.85 1.85 0 011.14-.2 3.69 3.69 0 012.45 1.45 5.39 5.39 0 01.3.52.44.44 0 00.18.18 1.06 1.06 0 001 0l1.12-.65c.16-.1.22-.23.13-.36a4.56 4.56 0 00-.51-.65 6 6 0 00-.9-.75l.75-.43a.22.22 0 000-.41"/><path class="cls-3" d="M170.73 60.54v12.51l-38.3 22.11-73.51-42.72v-12.5l111.81 20.6z"/><path d="M132.42 82.66v12.5l38.31-22.11V60.54l-38.31 22.12z"/><path class="cls-4" d="M132.42 82.66v12.5l38.31-22.11V60.54l-38.31 22.12z"/><path class="cls-3" d="M58.91 39.94l73.51 42.72 38.31-22.12-73.51-42.72-38.31 22.12z"/><path d="M114.86 43.93a16.79 16.79 0 018.3 2c2 1.19 3.17 2.72 3.17 4.31s-1.15 3.15-3.23 4.35a16.87 16.87 0 01-8.32 2 16.75 16.75 0 01-8.29-2c-2-1.19-3.17-2.72-3.17-4.31s1.15-3.15 3.23-4.35a16.85 16.85 0 018.31-2z"/><path class="cls-4" d="M114.86 43.93a16.79 16.79 0 018.3 2c2 1.19 3.17 2.72 3.17 4.31s-1.15 3.15-3.23 4.35a16.87 16.87 0 01-8.32 2 16.75 16.75 0 01-8.29-2c-2-1.19-3.17-2.72-3.17-4.31s1.15-3.15 3.23-4.35a16.85 16.85 0 018.31-2z"/><path class="cls-3" d="M100.83 42.88a.79.79 0 01-.39-.11l-10.67-6.2a.77.77 0 01.77-1.33l10.68 6.2a.77.77 0 01.27 1.05.76.76 0 01-.66.39zm38.66 22.47a.79.79 0 01-.39-.11L128.43 59a.77.77 0 01-.28-1 .76.76 0 011-.28l10.68 6.2a.78.78 0 01-.39 1.44z"/><path class="cls-3" d="M69.33 33.92L86.8 23.84l10.42-6 10.34 6 52 30.22 11.16 6.48-10.55 6.09-17.34 10-10.42 6-10.33-6L69.26 46l-10.35-6zm3.72 8.94l54.86 31.88 4.52 2.63 4.57-2.64 19-11 5.58-3.22-5.92-3.44-53.92-31.33-4.53-2.63-4.57 2.64L73.1 37l-5 2.92z"/><path d="M155.68 57.09a10.27 10.27 0 013.1-2.61c.26-.15.52-.29.79-.42l11.16 6.48-10.55 6.09a12.61 12.61 0 01-1.47-.74 10.74 10.74 0 01-2.71-2.14 5.32 5.32 0 01-1.49-3.54 5.15 5.15 0 011.17-3.12z"/><path class="cls-4" d="M155.68 57.09a10.27 10.27 0 013.1-2.61c.26-.15.52-.29.79-.42l11.16 6.48-10.55 6.09a12.61 12.61 0 01-1.47-.74 10.74 10.74 0 01-2.71-2.14 5.32 5.32 0 01-1.49-3.54 5.15 5.15 0 011.17-3.12z"/><path d="M127.91 74.74a26.19 26.19 0 014.58-.4 26.46 26.46 0 014.51.39 19.75 19.75 0 015.84 1.91l-10.42 6-10.33-6a20 20 0 015.82-1.9z"/><path class="cls-4" d="M127.91 74.74a26.19 26.19 0 014.58-.4 26.46 26.46 0 014.51.39 19.75 19.75 0 015.84 1.91l-10.42 6-10.33-6a20 20 0 015.82-1.9z"/><path d="M97.22 17.82l10.34 6a20 20 0 01-5.82 1.9 26.28 26.28 0 01-4.58.4 26.67 26.67 0 01-4.52-.39c-.47-.08-.94-.18-1.41-.29a19 19 0 01-4.43-1.62z"/><path class="cls-4" d="M97.22 17.82l10.34 6a20 20 0 01-5.82 1.9 26.28 26.28 0 01-4.58.4 26.67 26.67 0 01-4.52-.39c-.47-.08-.94-.18-1.41-.29a19 19 0 01-4.43-1.62z"/><path d="M69.33 33.92l.56.31A10 10 0 0173.1 37a4.81 4.81 0 010 5.83 10 10 0 01-3.23 2.78l-.56.31-10.35-6z"/><path class="cls-4" d="M69.33 33.92l.56.31A10 10 0 0173.1 37a4.81 4.81 0 010 5.83 10 10 0 01-3.23 2.78l-.56.31-10.35-6z"/><path class="cls-3" d="M121.76 46.87l-1-.57a.78.78 0 00-.7 0l-.79.46a7.4 7.4 0 00-3.2-.59 5.92 5.92 0 00-2.69.74c-.79.46-1.19.93-1.18 1.4a2.5 2.5 0 00.73 1.53 4.81 4.81 0 00.37.44 5.86 5.86 0 01.86 1.17.5.5 0 01-.27.68 2.35 2.35 0 01-2.45-.2 5.13 5.13 0 01-1.38-1.13 3.48 3.48 0 01-.46-.67.69.69 0 00-.17-.17 1.12 1.12 0 00-1 0l-1.11.65c-.16.09-.22.23-.14.35a6.7 6.7 0 001.89 1.72l-.92.53a.22.22 0 000 .41l1 .57a.78.78 0 00.7 0l1-.56a7.07 7.07 0 003.06.53 6 6 0 002.76-.78 2.24 2.24 0 001-1 1.28 1.28 0 00-.08-1.06 5.55 5.55 0 00-.93-1.22c-.35-.39-.61-.67-.75-.86a.87.87 0 01-.21-.56c0-.18.13-.35.39-.5a1.79 1.79 0 011.14-.21 3.68 3.68 0 011.31.46 3.49 3.49 0 011.13 1 4.63 4.63 0 01.3.52.45.45 0 00.18.18 1.09 1.09 0 001 0l1.13-.66c.15-.09.21-.23.13-.35a4.78 4.78 0 00-.52-.65 5.93 5.93 0 00-.89-.76l.74-.43c.19-.11.2-.29 0-.41"/><path class="cls-4" d="M69.33 31.19L86.8 21.11l10.42-6 10.34 6 52 30.22 11.16 6.48-10.54 6.09-17.34 10-10.42 6-10.33-6-52.83-30.68-10.35-6z"/></g><path class="cls-5" d="M166.29 82.75v12.51l-38.3 22.11-73.51-42.72v-12.5l111.81 20.6z"/><path class="cls-5" d="M127.99 104.87v12.5l38.3-22.11V82.75l-38.3 22.12z"/><path class="cls-5" d="M54.48 62.15l73.51 42.72 38.3-22.12-73.51-42.72-38.3 22.12z"/><path class="cls-6" d="M110.43 66.14a16.75 16.75 0 018.29 2c2 1.19 3.17 2.72 3.17 4.31s-1.15 3.15-3.22 4.35a16.92 16.92 0 01-8.32 2 16.72 16.72 0 01-8.29-2c-2-1.19-3.18-2.72-3.17-4.31s1.14-3.15 3.22-4.35a16.89 16.89 0 018.32-2z"/><path class="cls-4" d="M110.43 66.14a16.75 16.75 0 018.29 2c2 1.19 3.17 2.72 3.17 4.31s-1.15 3.15-3.22 4.35a16.92 16.92 0 01-8.32 2 16.72 16.72 0 01-8.29-2c-2-1.19-3.18-2.72-3.17-4.31s1.14-3.15 3.22-4.35a16.89 16.89 0 018.32-2z"/><path class="cls-5" d="M96.39 65.09A.76.76 0 0196 65l-10.68-6.2a.77.77 0 11.78-1.33l10.67 6.2a.77.77 0 01-.39 1.44zm38.66 22.47a.76.76 0 01-.38-.11L124 81.25a.78.78 0 01-.28-1 .77.77 0 011.06-.28l10.67 6.2a.77.77 0 01-.39 1.44z"/><path class="cls-6" d="M64.9 56.13l17.46-10.08 10.41-6 10.35 6 52 30.22 11.15 6.48-10.55 6.09-17.33 10-10.42 6-10.34-6-52.81-30.68-10.34-6zm3.71 8.94L123.47 97l4.53 2.58 4.57-2.64 19-11 5.58-3.22-5.92-3.44L97.3 48l-4.52-2.63L88.21 48 68.66 59.24l-5 2.92z"/><path class="cls-4" d="M64.9 56.13l17.46-10.08 10.41-6 10.35 6 52 30.22 11.15 6.48-10.55 6.09-17.33 10-10.42 6-10.34-6-52.81-30.68-10.34-6zm3.71 8.94L123.47 97l4.53 2.58 4.57-2.64 19-11 5.58-3.22-5.92-3.44L97.3 48l-4.52-2.63L88.21 48 68.66 59.24l-5 2.92z"/><path class="cls-6" d="M151.24 79.3a10.32 10.32 0 013.11-2.61c.25-.15.52-.29.79-.42l11.15 6.48-10.55 6.09a13.46 13.46 0 01-1.47-.74 11.12 11.12 0 01-2.69-2.1 5.31 5.31 0 01-1.48-3.54 5.13 5.13 0 011.14-3.16z"/><path class="cls-4" d="M151.24 79.3a10.32 10.32 0 013.11-2.61c.25-.15.52-.29.79-.42l11.15 6.48-10.55 6.09a13.46 13.46 0 01-1.47-.74 11.12 11.12 0 01-2.69-2.1 5.31 5.31 0 01-1.48-3.54 5.13 5.13 0 011.14-3.16z"/><path class="cls-6" d="M123.47 97a26.4 26.4 0 019.1 0 19.75 19.75 0 015.84 1.91l-10.42 6-10.34-6a20.21 20.21 0 015.82-1.91z"/><path class="cls-4" d="M123.47 97a26.4 26.4 0 019.1 0 19.75 19.75 0 015.84 1.91l-10.42 6-10.34-6a20.21 20.21 0 015.82-1.91z"/><path class="cls-6" d="M92.78 40l10.35 6a20.07 20.07 0 01-5.83 2 26.08 26.08 0 01-4.57.4 26.49 26.49 0 01-4.52-.4c-.48-.08-.95-.18-1.41-.29a18.87 18.87 0 01-4.43-1.62z"/><path class="cls-4" d="M92.78 40l10.35 6a20.07 20.07 0 01-5.83 2 26.08 26.08 0 01-4.57.4 26.49 26.49 0 01-4.52-.4c-.48-.08-.95-.18-1.41-.29a18.87 18.87 0 01-4.43-1.62z"/><path class="cls-6" d="M64.9 56.13l.56.31a9.83 9.83 0 013.2 2.8 4.77 4.77 0 010 5.83 9.93 9.93 0 01-3.23 2.78l-.56.31-10.34-6z"/><path class="cls-4" d="M64.9 56.13l.56.31a9.83 9.83 0 013.2 2.8 4.77 4.77 0 010 5.83 9.93 9.93 0 01-3.23 2.78l-.56.31-10.34-6z"/><path class="cls-5" d="M117.33 69.08l-1-.57a.8.8 0 00-.71 0l-.78.46a7.55 7.55 0 00-3.2-.59 5.89 5.89 0 00-2.69.74c-.8.46-1.19.93-1.18 1.4a2.42 2.42 0 00.72 1.53c0 .06.17.21.37.44a6 6 0 01.87 1.17c.12.28 0 .5-.28.68a2.33 2.33 0 01-2.44-.2 5.18 5.18 0 01-1.38-1.14 3 3 0 01-.45-.67.59.59 0 00-.18-.17 1.1 1.1 0 00-1 0l-1.12.65c-.16.09-.21.23-.13.35a6.65 6.65 0 001.88 1.72l-.92.53a.22.22 0 000 .41l1 .57a.8.8 0 00.71 0l1-.56a7.12 7.12 0 003.07.53 6 6 0 002.76-.78 2.16 2.16 0 001-1 1.28 1.28 0 00-.08-1.06 5.16 5.16 0 00-.92-1.22c-.36-.39-.61-.67-.75-.86a.89.89 0 01-.22-.56c0-.18.14-.35.4-.5a1.78 1.78 0 011.14-.21 3.57 3.57 0 011.3.46 3.29 3.29 0 011.13 1 3.47 3.47 0 01.3.52.42.42 0 00.19.18 1.07 1.07 0 001 0l1.13-.66c.16-.09.21-.23.13-.35a4.06 4.06 0 00-.51-.65 6.62 6.62 0 00-.9-.76l.75-.43c.19-.11.19-.29 0-.41"/><path class="cls-5" d="M163.28 70.11v12.5l-38.31 22.12-73.51-42.72V49.5l111.82 20.61z"/><path class="cls-6" d="M124.97 92.22v12.51l38.31-22.12v-12.5l-38.31 22.11z"/><path class="cls-4" d="M124.97 92.22v12.51l38.31-22.12v-12.5l-38.31 22.11z"/><path class="cls-5" d="M51.46 49.5l73.51 42.72 38.3-22.11-73.5-42.72L51.46 49.5z"/><path class="cls-6" d="M107.41 53.49a16.83 16.83 0 018.29 2c2 1.19 3.18 2.72 3.17 4.32s-1.14 3.15-3.22 4.35a17 17 0 01-8.32 2 16.83 16.83 0 01-8.29-2C97 63 95.87 61.42 95.87 59.82s1.15-3.15 3.22-4.35a17 17 0 018.32-1.98z"/><path class="cls-4" d="M107.41 53.49a16.83 16.83 0 018.29 2c2 1.19 3.18 2.72 3.17 4.32s-1.14 3.15-3.22 4.35a17 17 0 01-8.32 2 16.83 16.83 0 01-8.29-2C97 63 95.87 61.42 95.87 59.82s1.15-3.15 3.22-4.35a17 17 0 018.32-1.98z"/><path class="cls-5" d="M93.37 52.44a.75.75 0 01-.38-.1l-10.67-6.2a.77.77 0 01.77-1.34L93.76 51a.77.77 0 01.24 1.06.76.76 0 01-.63.38zM132 74.91a.75.75 0 01-.38-.1L121 68.6a.76.76 0 01-.28-1 .77.77 0 011-.28l10.67 6.2a.77.77 0 01-.39 1.44z"/><path class="cls-5" d="M61.88 43.49L79.35 33.4l10.41-6 10.35 6 52 30.22 11.15 6.49-10.54 6.09-17.33 10-10.42 6-10.34-6L61.8 55.51l-10.34-6zm3.72 8.93l54.85 31.88 4.55 2.63 4.57-2.64 19-11 5.59-3.22-5.93-3.44-53.94-31.32-4.53-2.63-4.57 2.64L65.65 46.6l-5.06 2.92z"/><path class="cls-6" d="M148.22 66.65a10.59 10.59 0 013.11-2.65l.79-.42 11.15 6.49-10.55 6.13q-.76-.35-1.47-.75a10.66 10.66 0 01-2.69-2.14 5.36 5.36 0 01-1.48-3.54 5.15 5.15 0 011.14-3.12z"/><path class="cls-4" d="M148.22 66.65a10.59 10.59 0 013.11-2.65l.79-.42 11.15 6.49-10.55 6.13q-.76-.35-1.47-.75a10.66 10.66 0 01-2.69-2.14 5.36 5.36 0 01-1.48-3.54 5.15 5.15 0 011.14-3.12z"/><path class="cls-6" d="M120.45 84.3a27.08 27.08 0 019.1 0 20.35 20.35 0 015.84 1.91l-10.42 6-10.34-6a20.52 20.52 0 015.82-1.91z"/><path class="cls-4" d="M120.45 84.3a27.08 27.08 0 019.1 0 20.35 20.35 0 015.84 1.91l-10.42 6-10.34-6a20.52 20.52 0 015.82-1.91z"/><path class="cls-6" d="M89.76 27.39l10.35 6a20.31 20.31 0 01-5.82 1.91 26.29 26.29 0 01-4.58.39 26.59 26.59 0 01-4.52-.38c-.48-.08-1-.18-1.41-.29a19.34 19.34 0 01-4.43-1.63z"/><path class="cls-4" d="M89.76 27.39l10.35 6a20.31 20.31 0 01-5.82 1.91 26.29 26.29 0 01-4.58.39 26.59 26.59 0 01-4.52-.38c-.48-.08-1-.18-1.41-.29a19.34 19.34 0 01-4.43-1.63z"/><path class="cls-6" d="M61.88 43.49c.19.1.38.2.56.31a9.86 9.86 0 013.21 2.8 4.79 4.79 0 01-.05 5.82 10 10 0 01-3.23 2.78l-.57.31-10.34-6z"/><path class="cls-4" d="M61.88 43.49c.19.1.38.2.56.31a9.86 9.86 0 013.21 2.8 4.79 4.79 0 01-.05 5.82 10 10 0 01-3.23 2.78l-.57.31-10.34-6z"/><path class="cls-5" d="M114.31 56.44l-1-.57a.81.81 0 00-.71 0l-.78.46a7.25 7.25 0 00-3.2-.59 5.92 5.92 0 00-2.69.73c-.8.46-1.19.93-1.18 1.41a2.48 2.48 0 00.72 1.53c0 .06.17.2.38.44a6.3 6.3 0 01.86 1.17c.12.27 0 .49-.27.67a2.33 2.33 0 01-2.45-.2 5.18 5.18 0 01-1.39-1.13 3.68 3.68 0 01-.45-.66.42.42 0 00-.18-.17 1 1 0 00-1 0l-1.12.65c-.15.09-.21.23-.13.35a6.41 6.41 0 001.89 1.71l-.93.54c-.19.11-.19.29 0 .4l1 .58a.78.78 0 00.7 0l1-.57a6.93 6.93 0 003.06.53 6 6 0 002.76-.77 2.29 2.29 0 001.05-1 1.29 1.29 0 00-.08-1.05 5.32 5.32 0 00-.93-1.22c-.36-.39-.61-.68-.75-.86a.84.84 0 01-.21-.56q0-.28.39-.51a1.85 1.85 0 011.14-.2 3.69 3.69 0 012.45 1.45 5.39 5.39 0 01.3.52.44.44 0 00.18.18 1.06 1.06 0 001 0l1.12-.65c.16-.1.22-.23.13-.36a4.56 4.56 0 00-.51-.65 6 6 0 00-.9-.75l.75-.43a.22.22 0 000-.41"/><path class="cls-5" d="M165.73 57.54v12.51l-38.31 22.11-73.5-42.72v-12.5l111.81 20.6z"/><path class="cls-6" d="M127.42 79.66v12.5l38.31-22.11V57.54l-38.31 22.12z"/><path class="cls-4" d="M127.42 79.66v12.5l38.31-22.11V57.54l-38.31 22.12z"/><path class="cls-5" d="M53.91 36.94l73.51 42.72 38.31-22.12-73.51-42.72-38.31 22.12z"/><path class="cls-6" d="M109.86 40.93a16.79 16.79 0 018.3 2c2 1.19 3.17 2.72 3.17 4.31s-1.15 3.15-3.23 4.35a16.87 16.87 0 01-8.32 2 16.75 16.75 0 01-8.29-2c-2-1.19-3.17-2.72-3.17-4.31s1.15-3.15 3.23-4.35a16.85 16.85 0 018.31-2z"/><path class="cls-4" d="M109.86 40.93a16.79 16.79 0 018.3 2c2 1.19 3.17 2.72 3.17 4.31s-1.15 3.15-3.23 4.35a16.87 16.87 0 01-8.32 2 16.75 16.75 0 01-8.29-2c-2-1.19-3.17-2.72-3.17-4.31s1.15-3.15 3.23-4.35a16.85 16.85 0 018.31-2z"/><path class="cls-5" d="M95.83 39.88a.79.79 0 01-.39-.11l-10.67-6.2a.77.77 0 01.77-1.33l10.68 6.2a.77.77 0 01.27 1.05.76.76 0 01-.66.39zm38.66 22.47a.79.79 0 01-.39-.11L123.43 56a.77.77 0 01-.28-1 .76.76 0 011-.28l10.68 6.2a.78.78 0 01-.39 1.44z"/><path class="cls-5" d="M64.33 30.92L81.8 20.84l10.42-6 10.34 6 52 30.22 11.16 6.48-10.55 6.09-17.34 10-10.42 6-10.33-6L64.26 43l-10.35-6zm3.72 8.94l54.86 31.88 4.52 2.63 4.57-2.64 19-11 5.58-3.22-5.92-3.44-53.92-31.33-4.53-2.63-4.57 2.64L68.1 34l-5 2.92z"/><path class="cls-6" d="M150.68 54.09a10.27 10.27 0 013.1-2.61c.26-.15.52-.29.79-.42l11.16 6.48-10.55 6.09a12.61 12.61 0 01-1.47-.74 10.74 10.74 0 01-2.71-2.14 5.32 5.32 0 01-1.49-3.54 5.15 5.15 0 011.17-3.12z"/><path class="cls-4" d="M150.68 54.09a10.27 10.27 0 013.1-2.61c.26-.15.52-.29.79-.42l11.16 6.48-10.55 6.09a12.61 12.61 0 01-1.47-.74 10.74 10.74 0 01-2.71-2.14 5.32 5.32 0 01-1.49-3.54 5.15 5.15 0 011.17-3.12z"/><path class="cls-6" d="M122.91 71.74a26.19 26.19 0 014.58-.4 26.46 26.46 0 014.51.39 19.75 19.75 0 015.84 1.91l-10.42 6-10.33-6a20 20 0 015.82-1.9z"/><path class="cls-4" d="M122.91 71.74a26.19 26.19 0 014.58-.4 26.46 26.46 0 014.51.39 19.75 19.75 0 015.84 1.91l-10.42 6-10.33-6a20 20 0 015.82-1.9z"/><path class="cls-6" d="M92.22 14.82l10.34 6a20 20 0 01-5.82 1.9 26.28 26.28 0 01-4.58.4 26.67 26.67 0 01-4.52-.39c-.47-.08-.94-.18-1.41-.29a19 19 0 01-4.43-1.62z"/><path class="cls-4" d="M92.22 14.82l10.34 6a20 20 0 01-5.82 1.9 26.28 26.28 0 01-4.58.4 26.67 26.67 0 01-4.52-.39c-.47-.08-.94-.18-1.41-.29a19 19 0 01-4.43-1.62z"/><path class="cls-6" d="M64.33 30.92l.56.31A10 10 0 0168.1 34a4.81 4.81 0 010 5.83 10 10 0 01-3.23 2.78l-.56.31-10.35-6z"/><path class="cls-4" d="M64.33 30.92l.56.31A10 10 0 0168.1 34a4.81 4.81 0 010 5.83 10 10 0 01-3.23 2.78l-.56.31-10.35-6z"/><path class="cls-5" d="M116.76 43.87l-1-.57a.78.78 0 00-.7 0l-.79.46a7.4 7.4 0 00-3.2-.59 5.92 5.92 0 00-2.69.74c-.79.46-1.19.93-1.18 1.4a2.5 2.5 0 00.73 1.53 4.81 4.81 0 00.37.44 5.86 5.86 0 01.86 1.17.5.5 0 01-.27.68 2.35 2.35 0 01-2.45-.2 5.13 5.13 0 01-1.38-1.13 3.48 3.48 0 01-.46-.67.69.69 0 00-.17-.17 1.12 1.12 0 00-1 0l-1.11.65c-.16.09-.22.23-.14.35a6.7 6.7 0 001.89 1.72l-.92.53a.22.22 0 000 .41l1 .57a.78.78 0 00.7 0l1-.56a7.07 7.07 0 003.06.53 6 6 0 002.76-.78 2.24 2.24 0 001-1 1.28 1.28 0 00-.08-1.06 5.55 5.55 0 00-.93-1.22c-.35-.39-.61-.67-.75-.86a.87.87 0 01-.21-.56c0-.18.13-.35.39-.5a1.79 1.79 0 011.14-.21 3.68 3.68 0 011.31.46 3.49 3.49 0 011.13 1 4.63 4.63 0 01.3.52.45.45 0 00.18.18 1.09 1.09 0 001 0l1.13-.66c.15-.09.21-.23.13-.35a4.78 4.78 0 00-.52-.65 5.93 5.93 0 00-.89-.76l.74-.43c.19-.11.2-.29 0-.41"/><path class="cls-4" d="M64.33 28.19L81.8 18.11l10.42-6 10.34 6 52 30.22 11.16 6.48-10.54 6.09-17.34 10-10.42 6-10.33-6-52.83-30.68-10.35-6z"/><g class="cls-2"><path d="M12.41 55.36s9 1.25 11 3 5.72 4.13 6.58 6.7 4.12 9.78 4.12 9.78-5.68 1.67-6 9.77 1.62 15.55.94 18.11-11 6.29-11 6.29-12 1.87-12.2-1.47.33-6.73.23-8-.47-12.83 0-15.49 3.79-14.3 5.3-17.24.35-11.2.35-11.2zM115.84 7.14s-.23-1.72-1.82-1.66-6.53 2.69-6.53 2.69a67.77 67.77 0 016.62-1.93 1.66 1.66 0 011.73.9zm3.57 4.36l-48.3 12.94 49.13-11.41-.83-1.53zM91.08 30.37l-17.03 4.85 16.87-3.47.16-1.38zM59.6 32.65s-8.23 2.54-10.4 2-2.33-1.32-2.33-1.32.22 1.77 2.79 1.83 9.94-2.51 9.94-2.51zm1.23 6.01s-6.68 1.87-9.12 1.69-2.77-1.71-2.77-1.71.35 2.44 3.47 2.32 8.42-2.3 8.42-2.3zm2.27 7.49s-9 2.08-10.67 1.69a1.81 1.81 0 01-1.52-2 2.15 2.15 0 002.28 2.59c2.81.12 9.91-2.28 9.91-2.28zM61.11 27s-6.73 1.67-9.27.87-2.68-1-5.36-.22l-11.66 3.4s12.11-2.94 13.91-2.89 1.63 1.14 5.72.63A23.46 23.46 0 0061.11 27zM17.56 38.88a25.37 25.37 0 014.83-1.16 10.62 10.62 0 014.13.36 22.94 22.94 0 00-4.37.18zm7.87 18.29a10.5 10.5 0 013.37-.81c1 .12 2 1.56 2 1.56a2.63 2.63 0 00-2.26-2 3.75 3.75 0 00-3.11 1.25zm.36 2.06a3.53 3.53 0 011.8-1 1.92 1.92 0 011.45.47s-.35-.28-1.55-.07a3.54 3.54 0 00-1.7.6zm3.84-19.36S29 43 25.21 46.78a63.53 63.53 0 01-6.16 5.45 20 20 0 007.14-5.51 23.06 23.06 0 003.44-6.85zm38.45-13.74L72 38.61a10.37 10.37 0 00-.82 4.57 44.15 44.15 0 001.3 8.74s-2-5.75-2.12-9.5.38-4.34.38-4.34zM35.39 38.45A10.27 10.27 0 0034 44.23c0 3.79 1.87 5.44 1.87 5.44a12.24 12.24 0 01-1.29-5.6 22.55 22.55 0 01.81-5.62zM47.4 58.84s8.54-2.75 12.15-1.12 4.38 4.21 4.38 4.21-1-4.09-4.61-5.31-11.92 2.22-11.92 2.22zm-.55 8.81s2.22 2.56 3.81 3.14a7.44 7.44 0 003.25.35A10.41 10.41 0 0150.06 70c-1.54-1-3.21-2.35-3.21-2.35zm-14.19 1.16s1.39 3.66 2.13 3.88 2.32-.18 3.76.28a7.27 7.27 0 012.25 1.11 5.77 5.77 0 00-3.23-2c-1.94-.32-1.9.51-3-.57a15.15 15.15 0 01-1.91-2.7z"/><path d="M16.92 58.24a16.29 16.29 0 019.08 5.2 27.34 27.34 0 015 9.29s-3.31-6.34-6.65-9.5a30.23 30.23 0 00-7.43-4.99zM9.34 77.48a31.12 31.12 0 00-1.78 11c.19 5.87.74 7.29.52 11.09s-.37 6-.37 6a48.64 48.64 0 001.13-8.69c.28-5.38-1.22-6.91-.51-12.11s1.01-7.29 1.01-7.29z"/><path d="M123.8 14.61a10.94 10.94 0 00-3.8-4.88c-1.46-1.06-3.58-5.45-3.58-5.45l-1.16-.46-8.67 3-2 6.92-33.12 9L64 25.26s-6.64 1.28-9.27 1.53a14 14 0 01-5.73-1.1l-15.7 4.7s.79 2-.07 2.62-4.31 2.23-4.31 2.23l-.72 2.26s-1.56-1.5-2.48-1.63-9.91 2.27-9.91 2.27l.55 3.16a29.46 29.46 0 015.11 0c2.54.25 3.92 3.06 3.92 3.06s-1.73 2.1-3.75 4.08-8.8 6.41-8.8 6.41c.23.93 5.58 1.55 7.56 2.4a26.16 26.16 0 017.89 6c2.3 2.66 5.27 10.86 5.27 10.86a21.27 21.27 0 014.61.11c1.15.36 4.22 3.3 8.28 4.55s9.91-1.58 14.94-4.81 5.14-13.49 6-16.44 7.33-3.87 7.33-3.87-1.33-4.89-2-8.06A11.13 11.13 0 0173.88 39l18.58-4.84a23 23 0 01.44-2.95c.34-1.53 2.59-3.72 2.59-3.72l28-8.09a5.64 5.64 0 00.31-4.79zM62.25 68.12c-1.65 1.44-4.69 5.29-8.9 6.71s-8.43 1.89-10.32-.2a12.51 12.51 0 01-2.54-5.07l1.1-3.34s2.1.82 3.63 1.63 3.81 4.26 6.63 4.46 4-1.09 4-1.09A10.3 10.3 0 0151 68.28c-1.85-2.2-1.29-7.17.11-9.07 0 0 6.79-1.8 9.78.86s3.02 6.61 1.36 8.05z"/><path d="M49 59.13a.39.39 0 00-.23.18c-4.39 1.6-9.22 6.53-8.45 11.49 1 6.66 9.58 6.2 14.24 4.11 4.45-2 10.53-6.32 8.92-12-1.71-6.09-9.93-4.73-14.48-3.78zm1.26 1.12zm-2.8.8l-.29.13.25-.14zm-4.68 5.12a2 2 0 00-.05.26h-.06a2.72 2.72 0 01.1-.26zm1.31-2A12.42 12.42 0 0150 60.89a6.81 6.81 0 00-.57 5.55 7.23 7.23 0 002.32 3.24c.93.72 2.46 1 3.45 1.69a5.94 5.94 0 01-5.1-.25 26.69 26.69 0 01-3.5-2.78 8.7 8.7 0 00-3.54-1.85 7.84 7.84 0 011.02-2.27zm12 8.72c-3.5 2-10 4-13.37.32a5.39 5.39 0 01-1-5.89c3.39 0 5.19 3.13 7.93 4.64 2.19 1.21 4.33.83 6.56-.05a.5.5 0 00.23-.78c-1.11-1.44-3.22-1.38-4.56-2.68-2.63-2.54-2.29-6.37.09-8.9a.47.47 0 00.1-.16c2.9-.44 6.12-.66 8.38.89 6.17 4.32-.69 10.56-4.45 12.66z"/><path d="M120.87 9.64a.26.26 0 00-.18-.06.44.44 0 00-.34-.26 9.75 9.75 0 01-3.6-5.95.48.48 0 00-.61-.35c-2.09.68-4.18 1.35-6.25 2.08-1.19.42-3.11.71-4.08 1.65-.24.23-.15.54-.3.81s.13.42.1.56c-.8 3.07-.72 4.88-4 6.2l-.09.07C90.78 17.23 80 20 69.34 23.13a.39.39 0 00-.23.18.3.3 0 00-.31 0A49.79 49.79 0 0158.11 26a20.79 20.79 0 01-5.1.33c-1.15-.15-2.17-1.09-3.16-1.21-2.07-.25-4.75 1.34-6.67 1.93q-5 1.53-10.09 2.83a.45.45 0 00-.23.7 11.56 11.56 0 010 1.44c-.1.84-.4 1-1.12 1.32-1 .42-1.95.8-2.92 1.23a.66.66 0 00-.37.71c-.12.49-.22 1-.32 1.49-1.22-1.43-1.82-1.59-3.9-1.19-2.88.55-5.73 1.24-8.56 2a.61.61 0 00-.36.87 20.56 20.56 0 00.55 3 .45.45 0 00.47.37c3.15-.48 6.68-.42 8.44 2.62-.65.7-1.34 1.37-2 2a49.11 49.11 0 01-11.07 8.44c-.28 0-.43.34-.34.57a.54.54 0 00-.08.36C13.17 67 6 76.61 5.15 87.57c-.43 5.41.71 10.76 0 16.14-.38 2.91-.4 6.17 3 7.08 3.84 1 9.28-1 13-2 3.11-.83 7.6-1.65 9-5 1.21-2.93-.29-7-.76-9.9-.95-6-1.79-15.39 5.06-18.38a.48.48 0 00.21-.19c4.18-1.57 5.84 1.07 9 3a8.08 8.08 0 005.12 1.06c4.09-.29 8.39-1.4 11.66-3.94a17.19 17.19 0 005.9-8.53 24.78 24.78 0 00.7-5.43c.38-5.06 3.18-6.33 7.68-7.34a.59.59 0 00.61-.74C74 49.16 72 44.07 74.05 39.8a.52.52 0 00.19-.2c6-2 12.19-3.34 18.31-5a.4.4 0 00.24-.25A.62.62 0 0093 34a10.24 10.24 0 01.81-3.65A9.83 9.83 0 0195.62 28c9.21-2.64 18.46-5.14 27.77-7.44a.5.5 0 00.65-.2c2.33-3.36-.29-8.51-3.17-10.72zm-1.9 0h-.1zm-12.39-1.38c.51-1.44 7.28-4.38 8.9-3.56.88.44 1 1.75 1.53 2.61a8 8 0 001.07 1.42c-4.18.76-8 2.93-12.32 2.93.48-1.13.38-2.16.82-3.4zm13.77 2.15h.07c1.89 2.25 3.94 5.15 3.3 8.11-8.84 2.26-17.85 4.54-26.56 7.2-3.79 1.16-7.55 2.32-11.35 3.45-4.28 1.26-9.24 4.2-13.74 3-.78-2.68-1.54-5.37-2.36-8a.45.45 0 00-.1-.17c16.96-4.42 33.88-8.85 50.74-13.59zM69.17 23.89zm4.63 13.87zM120 20.34h.26l-.77.2zM25.11 42.47a.17.17 0 00-.12-.06l.27-.18a1.2 1.2 0 00-.15.24zm-8.36-1.75a21.26 21.26 0 00-.56-2.08c3.16-.88 8-2.9 11.07-1.27a6.17 6.17 0 01-.57 2.44c-.5 1-1.26 1.36-2 2.08a1.38 1.38 0 00-.23.27c-2.01-1.7-5.1-1.8-7.71-1.44zM6.34 95.55a48.65 48.65 0 011.07-15.12c2.05-8.56 6.53-15.57 4.86-24.65 4.54.71 9 1.76 12.65 4.72 3.94 3.16 6 8.11 7.8 12.79a5.76 5.76 0 01-.57 2c-4 2.69-5 8-5 12.61a49 49 0 00.38 5.8c.24 2.06 1.12 4.8.66 6.84-.76 3.38-3.29 5.26-6.3 6.51-5.27 1.82-13 3.71-15.83-.27a13.14 13.14 0 01.35-3.72 36.86 36.86 0 00-.07-7.51zm.77 13.29l.14.11a1.36 1.36 0 01-.14-.11zm22.06-7.65a1.89 1.89 0 000-.23 2.28 2.28 0 010 .26zM28.45 82a2.17 2.17 0 00.07-.24zm-.2.79v-.2c0-.07.01.17 0 .23zm4.81-8.63a1.42 1.42 0 00-.12.25c0-.12.06-.23.08-.35zm-.18.45a1.46 1.46 0 010 .22h-.08l.12-.32a.18.18 0 00-.04.13zm-3.27-15.2A4.32 4.32 0 0128 61.9a17.68 17.68 0 00-2.36-2.3c-.11-.09-.23-.16-.35-.25a2.68 2.68 0 01.81-1c1.3-.62 2.89-1 3.48.41v.15c0 .05.02.36.03.53zm-4.7-.32l.07-.07a.73.73 0 00-.05.09zM29.07 102a4.07 4.07 0 000-.5h.06c0 .22-.02.38-.06.5zm45-48.81c-3.07.6-6.4 1.62-7.68 4.77-.66 1.64-.36 3.45-.47 5.17A15.61 15.61 0 0156 76.71c-3 1.11-8.11 2.38-11.17.88-1.85-.9-3-2.82-5-3.58a6.41 6.41 0 00-2.54-.45s0-.08-.09-.08a11.41 11.41 0 00-2.61-.09 2.84 2.84 0 01-.85-.43 51.68 51.68 0 00-2.17-5.35C31 65.75 30.38 63.93 30 62a4.12 4.12 0 00.17-4.15c-1.06-1.68-3.22-1-4.81-.13a.06.06 0 00-.05 0 31.55 31.55 0 01-6.19-1.56A27 27 0 0013.5 55a40 40 0 0010.57-8.15c3.55-3.59 4.43-6.39 5.22-11.31l2.14-.92a6.28 6.28 0 001.84-.94c.82-.75.64-2.06.49-3.11C37 29.81 40.2 29 43.38 28c1.94-.59 4.52-1.93 6.58-1.58.76.13 1.45.75 2.34.86 5.31.66 11.77-1.41 16.67-3.21a.46.46 0 00-.08.33c.85 5.17 2.67 10.25 4.37 15.19-2.26 4.19-.46 9.3.85 13.64zM92 33.86a75.4 75.4 0 00-13 3 19.43 19.43 0 01-5.37.4c-.25-.8-.51-1.6-.75-2.39q10.38-3.26 20.83-6.29A8 8 0 0092 33.86z"/><path d="M60.64 28.68h-.12c-7.91 1.83-15.83 3.59-23.69 5.62a.34.34 0 00-.17.11.71.71 0 00-.44.27.46.46 0 00-.27.12c-3.18 2.79-4.51 8.85-3.28 12.83a11.09 11.09 0 008.67 7.6.44.44 0 00.41-.15 3.62 3.62 0 01.13.35c.13.32.42.29.63.1 8.13-2.29 16.64-3 24.54-6.1a.53.53 0 00.31-.31.62.62 0 00.08-.33c-.69-7-2.37-14.11-6.16-20.12a.37.37 0 00-.64.01zM59.33 30l.36 1.21c-1.63.46-3.28.88-4.94 1.23-1.13.24-2.28.45-3.43.62a8 8 0 01-2.11.07c.09-.18.1-.4.25-.55s.4-.21.57-.37zm-4.08 21.16h-.06a.19.19 0 01-.08-.07c1-.92 3-1.28 4.13-1.62a50.69 50.69 0 015.29-1.23c-.22 1.47-4.33 1.86-5.38 2.11-1.29.27-2.62.48-3.9.81zm2.75-7.1c1.33-.4 3.47-1.57 4.88-1.08a.42.42 0 00.33 0c.15.51.3 1 .44 1.54-1.59.42-3.18.81-4.79 1.13-1 .2-2 .37-3 .53s-1.93.71-2.4-.33a1.36 1.36 0 01-.07-.25c1-1.02 3.4-1.2 4.61-1.54zm6.82 4.75s-.04.02-.04 0zM52.34 38.65a.62.62 0 01-.41-.57c.71-.52 4-1.06 4.49-1.19 1.55-.4 3.1-.76 4.66-1.09l.33 1.12c-1.47.39-3 .74-4.45 1-.96.19-3.48.98-4.62.73zM49 34.18c1.78.2 4.09-.53 5.81-.86s3.44-.77 5.14-1.24c.22.75.45 1.5.68 2.24a28.6 28.6 0 00-8.55 2.3c-.8.33-2.82.85-2.6 2.14.38 2.25 9.4-.18 12.18-.95.33 1.11.65 2.22 1 3.33-3 .77-6.25 1.39-9 2.78-.8.41-2.38 1.22-2.21 2.39.24 1.74 2.9 1 3.91.81a78.28 78.28 0 008.45-1.78c.19.69.38 1.38.56 2.07A34.73 34.73 0 0057 49.18c-1.29.46-2.71.9-3.23 2.22a4.2 4.2 0 00-.79.22c-1.59.35-3.16.75-4.73 1.15s-4.58 1.65-6 .8a118.23 118.23 0 01-5-18.49v-.06c3.49-.75 7-1.54 10.44-2.34-.22.77.2 1.37 1.31 1.5zm-12.4.76a.13.13 0 00.02 0zm6.66 19.48h-.06zm-7.4-18.35c.62 1.86 1.22 3.73 1.86 5.58q.88 4 2.11 7.88c.12.54.21 1.13.38 1.67.11.7.23 1.41.35 2.12a24.58 24.58 0 01-3.41-2 16.07 16.07 0 01-3-2.61c-.17-.34-.33-.69-.47-1a13 13 0 012.2-11.64zm30.38 11.19a1 1 0 00-.15.2.78.78 0 01-.48.09h-.11c-.91-3.45-1.87-6.89-2.91-10.31a.48.48 0 00-.11-.35q-1-3.32-2.12-6.57l.15-.07a.78.78 0 01.52.08.17.17 0 00.12 0 57.56 57.56 0 015.09 16.93z"/></g><path d="M7.41 52.36s9 1.25 11 3 5.72 4.13 6.58 6.7 4.12 9.78 4.12 9.78-5.68 1.67-6 9.77 1.62 15.55.94 18.11-11 6.29-11 6.29-12 1.87-12.2-1.47.33-6.73.23-8-.47-12.83 0-15.49 3.79-14.3 5.3-17.24.35-11.2.35-11.2z" fill="#303030"/><path class="cls-6" d="M110.84 4.14s-.23-1.72-1.82-1.66-6.53 2.69-6.53 2.69a67.77 67.77 0 016.62-1.93 1.66 1.66 0 011.73.9zm3.57 4.36l-48.3 12.94 49.13-11.41-.83-1.53zM86.08 27.37l-17.03 4.85 16.87-3.47.16-1.38zM54.6 29.65s-8.23 2.54-10.4 2-2.33-1.32-2.33-1.32.22 1.77 2.79 1.83 9.94-2.51 9.94-2.51zm1.23 6.01s-6.68 1.87-9.12 1.69-2.77-1.71-2.77-1.71.35 2.44 3.47 2.32 8.42-2.3 8.42-2.3zm2.27 7.49s-9 2.08-10.67 1.69a1.81 1.81 0 01-1.52-2 2.15 2.15 0 002.28 2.59c2.81.12 9.91-2.28 9.91-2.28zM56.11 24s-6.73 1.67-9.27.87-2.68-1-5.36-.22l-11.66 3.4s12.11-2.94 13.91-2.89 1.63 1.14 5.72.63A23.46 23.46 0 0056.11 24zM12.56 35.88a25.37 25.37 0 014.83-1.16 10.62 10.62 0 014.13.36 22.94 22.94 0 00-4.37.18zm7.87 18.29a10.5 10.5 0 013.37-.81c1 .12 2 1.56 2 1.56a2.63 2.63 0 00-2.26-2 3.75 3.75 0 00-3.11 1.25zm.36 2.06a3.53 3.53 0 011.8-1 1.92 1.92 0 011.45.47s-.35-.28-1.55-.07a3.54 3.54 0 00-1.7.6zm3.84-19.36S24 40 20.21 43.78a63.53 63.53 0 01-6.16 5.45 20 20 0 007.14-5.51 23.06 23.06 0 003.44-6.85zm38.45-13.74L67 35.61a10.37 10.37 0 00-.82 4.57 44.15 44.15 0 001.3 8.74s-2-5.75-2.12-9.5.38-4.34.38-4.34zM30.39 35.45A10.27 10.27 0 0029 41.23c.05 3.79 1.87 5.44 1.87 5.44a12.24 12.24 0 01-1.29-5.6 22.55 22.55 0 01.81-5.62zM42.4 55.84s8.54-2.75 12.15-1.12 4.38 4.21 4.38 4.21-1-4.09-4.61-5.31-11.92 2.22-11.92 2.22zm-.55 8.81s2.22 2.56 3.81 3.14a7.44 7.44 0 003.25.35A10.41 10.41 0 0145.06 67c-1.54-1-3.21-2.35-3.21-2.35zm-14.19 1.16s1.39 3.66 2.13 3.88 2.32-.18 3.76.28a7.27 7.27 0 012.25 1.11 5.77 5.77 0 00-3.23-2c-1.94-.32-1.9.51-3-.57a15.15 15.15 0 01-1.91-2.7zM11.92 55.24a16.29 16.29 0 019.08 5.2 27.34 27.34 0 015 9.29s-3.31-6.34-6.65-9.5a30.23 30.23 0 00-7.43-4.99zM4.34 74.48a31.12 31.12 0 00-1.78 11c.19 5.87.74 7.29.52 11.09s-.37 6-.37 6a48.64 48.64 0 001.13-8.69c.28-5.38-1.22-6.91-.51-12.11s1.01-7.29 1.01-7.29z"/><path class="cls-6" d="M118.8 11.61a10.94 10.94 0 00-3.8-4.88c-1.46-1.06-3.58-5.45-3.58-5.45l-1.19-.46-8.67 3-2 6.92-33.12 9L59 22.26s-6.64 1.28-9.27 1.53a14 14 0 01-5.73-1.1l-15.7 4.7s.79 2-.07 2.62-4.31 2.23-4.31 2.23l-.72 2.26s-1.56-1.5-2.48-1.63-9.91 2.27-9.91 2.27l.55 3.16a29.46 29.46 0 015.11 0c2.54.25 3.92 3.06 3.92 3.06s-1.73 2.1-3.75 4.08-8.8 6.41-8.8 6.41c.23.93 5.58 1.55 7.56 2.4a26.16 26.16 0 017.89 6c2.3 2.66 5.27 10.86 5.27 10.86a21.27 21.27 0 014.61.11c1.15.36 4.22 3.3 8.28 4.55s9.91-1.58 14.94-4.81 5.14-13.49 6-16.44 7.33-3.87 7.33-3.87-1.33-4.89-2-8.06A11.13 11.13 0 0168.88 36l18.58-4.84a23 23 0 01.44-3c.34-1.53 2.59-3.72 2.59-3.72l28-8.09a5.64 5.64 0 00.31-4.74zM57.25 65.12c-1.65 1.44-4.69 5.29-8.9 6.71s-8.43 1.89-10.32-.2a12.51 12.51 0 01-2.54-5.07l1.1-3.34s2.1.82 3.63 1.63 3.81 4.26 6.63 4.46 4-1.09 4-1.09A10.3 10.3 0 0146 65.28c-1.85-2.2-1.29-7.17.11-9.07 0 0 6.79-1.8 9.78.86s3.02 6.61 1.36 8.05z"/><path d="M44 56.13a.39.39 0 00-.23.18c-4.39 1.6-9.22 6.53-8.45 11.49 1 6.66 9.58 6.2 14.24 4.11 4.45-2 10.53-6.32 8.92-12-1.71-6.09-9.93-4.73-14.48-3.78zm1.26 1.12zm-2.8.8l-.29.13.25-.14zm-4.68 5.12a2 2 0 00-.05.26h-.06a2.72 2.72 0 01.1-.26zm1.31-2A12.42 12.42 0 0145 57.89a6.81 6.81 0 00-.57 5.55 7.23 7.23 0 002.32 3.24c.93.72 2.46 1 3.45 1.69a5.94 5.94 0 01-5.1-.25 26.69 26.69 0 01-3.5-2.78 8.7 8.7 0 00-3.54-1.85 7.84 7.84 0 011.02-2.27zm12 8.72c-3.5 2-10 4-13.37.32a5.39 5.39 0 01-1-5.89c3.39 0 5.19 3.13 7.93 4.64 2.19 1.21 4.33.83 6.56-.05a.5.5 0 00.23-.78c-1.11-1.44-3.22-1.38-4.56-2.68-2.63-2.54-2.29-6.37.09-8.9a.47.47 0 00.1-.16c2.9-.44 6.12-.66 8.38.89 6.17 4.32-.69 10.56-4.45 12.66z"/><path d="M115.87 6.64a.26.26 0 00-.18-.06.44.44 0 00-.34-.26 9.75 9.75 0 01-3.6-5.95.48.48 0 00-.61-.35c-2.09.68-4.14 1.35-6.25 2.08-1.19.42-3.11.71-4.08 1.65-.24.23-.15.54-.3.81s.13.42.1.56c-.8 3.07-.72 4.88-4 6.2l-.09.07C85.78 14.23 75 17 64.34 20.13a.39.39 0 00-.23.18.3.3 0 00-.31 0A49.79 49.79 0 0153.11 23a20.79 20.79 0 01-5.1.33c-1.15-.15-2.17-1.09-3.16-1.21-2.07-.25-4.75 1.34-6.67 1.93q-5 1.53-10.09 2.83a.45.45 0 00-.23.7 11.56 11.56 0 010 1.44c-.1.84-.4 1-1.12 1.32-1 .42-1.95.8-2.92 1.23a.66.66 0 00-.37.71c-.12.49-.22 1-.32 1.49-1.22-1.43-1.82-1.59-3.9-1.19-2.88.55-5.73 1.24-8.56 2a.61.61 0 00-.36.87 20.56 20.56 0 00.55 3 .45.45 0 00.47.37c3.15-.48 6.68-.42 8.44 2.62-.65.7-1.34 1.37-2 2a49.11 49.11 0 01-11.05 8.47c-.28 0-.43.34-.34.57a.54.54 0 00-.08.36C8.17 64 1 73.61.15 84.57c-.43 5.41.71 10.76 0 16.14-.38 2.91-.4 6.17 3 7.08 3.84 1 9.28-1 13-2 3.11-.83 7.6-1.65 9-5 1.21-2.93-.29-7-.76-9.9-.95-6-1.79-15.39 5.06-18.38a.48.48 0 00.21-.19c4.18-1.57 5.84 1.07 9 3a8.08 8.08 0 005.12 1.06c4.09-.29 8.39-1.4 11.66-3.94a17.19 17.19 0 005.9-8.53 24.78 24.78 0 00.7-5.43c.38-5.06 3.18-6.33 7.68-7.34a.59.59 0 00.61-.74C69 46.16 67 41.07 69.05 36.8a.52.52 0 00.19-.2c6-2 12.19-3.34 18.31-5a.4.4 0 00.24-.25A.62.62 0 0088 31a10.24 10.24 0 01.81-3.65A9.83 9.83 0 0190.62 25c9.21-2.64 18.46-5.14 27.77-7.44a.5.5 0 00.65-.2c2.33-3.36-.29-8.51-3.17-10.72zm-1.9 0h-.1zm-12.39-1.38c.51-1.44 7.28-4.38 8.9-3.56.88.44 1 1.75 1.53 2.61a8 8 0 001.07 1.42c-4.18.76-8 2.93-12.32 2.93.48-1.13.38-2.16.82-3.4zm13.77 2.15h.07c1.89 2.25 3.94 5.15 3.3 8.11-8.84 2.26-17.85 4.54-26.56 7.2-3.79 1.16-7.55 2.32-11.35 3.45-4.28 1.26-9.24 4.2-13.74 3-.78-2.68-1.54-5.37-2.36-8a.45.45 0 00-.1-.17c16.96-4.42 33.88-8.85 50.74-13.59zM64.17 20.89zm4.63 13.87zM115 17.34h.26l-.77.2zM20.11 39.47a.17.17 0 00-.12-.06l.27-.18a1.2 1.2 0 00-.15.24zm-8.36-1.75a21.26 21.26 0 00-.56-2.08c3.16-.88 8-2.9 11.07-1.27a6.17 6.17 0 01-.57 2.44c-.5 1-1.26 1.36-2 2.08a1.38 1.38 0 00-.23.27c-2.01-1.7-5.1-1.8-7.71-1.44zM1.34 92.55a48.65 48.65 0 011.07-15.12c2.05-8.56 6.53-15.57 4.86-24.65 4.54.71 9 1.76 12.65 4.72 3.94 3.16 6 8.11 7.8 12.79a5.76 5.76 0 01-.57 2c-4 2.69-5 8-5 12.61a49 49 0 00.38 5.8c.24 2.06 1.12 4.8.66 6.84-.76 3.38-3.29 5.26-6.3 6.51-5.27 1.82-13 3.71-15.83-.27a13.14 13.14 0 01.35-3.72 36.86 36.86 0 00-.07-7.51zm.77 13.29l.14.11a1.36 1.36 0 01-.14-.11zm22.06-7.65a1.89 1.89 0 000-.23 2.28 2.28 0 010 .26zM23.45 79a2.17 2.17 0 00.07-.24zm-.2.79v-.2c0-.07.01.17 0 .23zm4.81-8.63a1.42 1.42 0 00-.12.25c0-.12.06-.23.08-.35zm-.18.45a1.46 1.46 0 010 .22h-.08l.12-.32a.18.18 0 00-.04.13zm-3.27-15.2A4.32 4.32 0 0123 58.9a17.68 17.68 0 00-2.36-2.3c-.11-.09-.23-.16-.35-.25a2.68 2.68 0 01.81-1c1.3-.62 2.89-1 3.48.41v.15c0 .05.02.36.03.53zm-4.7-.32l.07-.07a.73.73 0 00-.05.09zM24.07 99a4.07 4.07 0 000-.5h.06c0 .22-.02.38-.06.5zm45-48.81c-3.07.6-6.4 1.62-7.68 4.77-.66 1.64-.36 3.45-.47 5.17A15.61 15.61 0 0151 73.71c-3 1.11-8.11 2.38-11.17.88-1.85-.9-3-2.82-5-3.58a6.41 6.41 0 00-2.54-.45s0-.08-.09-.08a11.41 11.41 0 00-2.61-.09 2.84 2.84 0 01-.85-.43 51.68 51.68 0 00-2.17-5.35C26 62.75 25.38 60.93 25 59a4.12 4.12 0 00.17-4.15c-1.06-1.68-3.22-1-4.81-.13a.06.06 0 00-.05 0 31.55 31.55 0 01-6.19-1.56A27 27 0 008.5 52a40 40 0 0010.57-8.15c3.55-3.59 4.43-6.39 5.22-11.31l2.14-.92a6.28 6.28 0 001.84-.94c.82-.75.64-2.06.49-3.11C32 26.81 35.2 26 38.38 25c1.94-.59 4.52-1.93 6.58-1.58.76.13 1.45.75 2.34.86 5.31.66 11.77-1.41 16.67-3.21a.46.46 0 00-.08.33c.85 5.17 2.67 10.25 4.37 15.19-2.26 4.19-.46 9.3.85 13.64zM87 30.86a75.4 75.4 0 00-13 3 19.43 19.43 0 01-5.37.4c-.25-.8-.51-1.6-.75-2.39q10.38-3.25 20.83-6.29A8 8 0 0087 30.86z"/><path d="M55.64 25.68h-.12c-7.91 1.83-15.83 3.59-23.69 5.62a.34.34 0 00-.17.11.71.71 0 00-.44.27.46.46 0 00-.27.12c-3.18 2.79-4.51 8.85-3.28 12.83a11.09 11.09 0 008.67 7.6.44.44 0 00.41-.15 3.62 3.62 0 01.13.35c.13.32.42.29.63.1 8.13-2.29 16.64-3 24.54-6.1a.53.53 0 00.31-.31.62.62 0 00.08-.33c-.69-7-2.37-14.11-6.16-20.12a.37.37 0 00-.64.01zM54.33 27l.36 1.21c-1.63.46-3.28.88-4.94 1.23-1.13.24-2.28.45-3.43.62a8 8 0 01-2.11.07c.09-.18.1-.4.25-.55s.4-.21.57-.37zm-4.08 21.16h-.06a.19.19 0 01-.08-.07c1-.92 3-1.28 4.13-1.62a50.69 50.69 0 015.29-1.23c-.22 1.47-4.33 1.86-5.38 2.11-1.29.27-2.62.48-3.9.81zm2.75-7.1c1.33-.4 3.47-1.57 4.88-1.08a.42.42 0 00.33 0c.15.51.3 1 .44 1.54-1.59.42-3.18.81-4.79 1.13-1 .2-2 .37-3 .53s-1.93.71-2.4-.33a1.36 1.36 0 01-.07-.25c1-1.02 3.4-1.2 4.61-1.54zm6.82 4.75s-.04.02-.04 0zM47.34 35.65a.62.62 0 01-.41-.57c.71-.52 4-1.06 4.49-1.19 1.55-.4 3.1-.76 4.66-1.09l.33 1.12c-1.47.39-3 .74-4.45 1-.96.19-3.48.98-4.62.73zM44 31.18c1.78.2 4.09-.53 5.81-.86s3.44-.77 5.14-1.24c.22.75.45 1.5.68 2.24a28.6 28.6 0 00-8.55 2.3c-.8.33-2.82.85-2.6 2.14.38 2.25 9.4-.18 12.18-.95.33 1.11.65 2.22 1 3.33-3 .77-6.25 1.39-9 2.78-.8.41-2.38 1.22-2.21 2.39.24 1.74 2.9 1 3.91.81a78.28 78.28 0 008.45-1.78c.19.69.38 1.38.56 2.07A34.73 34.73 0 0052 46.18c-1.29.46-2.71.9-3.23 2.22a4.2 4.2 0 00-.79.22c-1.59.35-3.16.75-4.73 1.15s-4.58 1.65-6 .8a118.23 118.23 0 01-5-18.49v-.06c3.49-.75 7-1.54 10.44-2.34-.22.77.2 1.37 1.31 1.5zm-12.4.76a.13.13 0 00.02 0zm6.66 19.48h-.06zm-7.4-18.35c.62 1.86 1.22 3.73 1.86 5.58q.88 4 2.11 7.88c.12.54.21 1.13.38 1.67.11.7.23 1.41.35 2.12a24.58 24.58 0 01-3.41-2 16.07 16.07 0 01-3-2.61c-.17-.34-.33-.69-.47-1a13 13 0 012.2-11.64zm30.38 11.19a1 1 0 00-.15.2.78.78 0 01-.48.09h-.11c-.91-3.45-1.87-6.89-2.91-10.31a.48.48 0 00-.11-.35q-1-3.32-2.12-6.57l.15-.07a.78.78 0 01.52.08.17.17 0 00.12 0 57.56 57.56 0 015.09 16.93z"/></g></g></g></svg>