<svg xmlns="http://www.w3.org/2000/svg" viewBox="0 0 207.67 160.74"><defs><style>.cls-1{fill:#ececec}.cls-3{fill:#e1e1e1}.cls-4{fill:#fff}.cls-5{fill:#10100c}.cls-6{fill:#1a2e35}.cls-9{fill:#375a64}</style></defs><g id="Capa_2" data-name="Capa 2"><g id="IMG02"><path class="cls-1" d="M163.84 129.74l4.71 30.97h27.38l6.36-30.53-38.45-.44z"/><path d="M198.46 149.59c0 .08-7 .16-15.67.16s-15.67-.08-15.67-.16 7-.16 15.67-.16 15.67.07 15.67.16zm.11-1.53c0 .09-7.07.16-15.78.16s-15.78-.07-15.78-.16 7.06-.16 15.78-.16 15.78.1 15.78.16zm-.06-1.72c0 .09-7.06.16-15.77.16s-15.78-.07-15.78-.16 7.06-.16 15.78-.16 15.77.07 15.77.16zm-26.81 12.6a23.52 23.52 0 01-.84-3.9 24.6 24.6 0 01-.53-3.95 23.52 23.52 0 01.84 3.9 26 26 0 01.53 3.95zm1.86-.33a29.36 29.36 0 01-.34-3.8A30.86 30.86 0 01173 151a18 18 0 01.5 3.8 19.34 19.34 0 01.06 3.81zm3.44 0a19.17 19.17 0 01-.71-3.9 19.42 19.42 0 01-.21-4 35.44 35.44 0 01.53 3.92 34.53 34.53 0 01.39 3.98zm2.34.17a19.25 19.25 0 01-.38-4 18.61 18.61 0 01.12-4 33.61 33.61 0 01.2 4 34.56 34.56 0 01.06 4zm4.22-.17a21.79 21.79 0 01-.29-3.76 22.29 22.29 0 010-3.77 21.79 21.79 0 01.29 3.76 23.63 23.63 0 010 3.77zm3.08.17a23.25 23.25 0 01-.13-3.9 24 24 0 01.19-3.89 23.25 23.25 0 01.13 3.9 24 24 0 01-.19 3.89zm2.89-.42a25.06 25.06 0 01.23-4.07 27.91 27.91 0 01.55-4 25.06 25.06 0 01-.23 4.07 27.91 27.91 0 01-.55 4zm3.72-.36a14.15 14.15 0 01.46-3.46 13.79 13.79 0 011-3.34 31.1 31.1 0 01-.7 3.41 30.6 30.6 0 01-.76 3.39z" fill="#fafafa"/><path class="cls-1" d="M190.62 68.61a1 1 0 010 .16c0 .11-.07.26-.13.43-.12.41-.3 1-.52 1.68s-.51 1.61-.8 2.65-.66 2.21-1 3.53-.72 2.75-1.07 4.31-.69 3.23-1 5c-.66 3.53-1.26 7.44-1.68 11.56s-.58 8.07-.64 11.66c0 1.8 0 3.51.05 5.1s.11 3.09.19 4.44.19 2.58.27 3.66.18 2 .27 2.76.13 1.31.18 1.74v.46c0-.15 0-.27-.08-.45q-.08-.65-.24-1.74c-.1-.75-.22-1.68-.31-2.75s-.25-2.3-.32-3.66-.2-2.85-.24-4.45-.07-3.31-.08-5.11c0-3.6.22-7.56.62-11.69s1-8 1.71-11.59c.36-1.76.69-3.44 1.09-5s.74-3 1.1-4.31.73-2.49 1-3.53.6-1.91.85-2.63.44-1.25.58-1.66c.07-.17.12-.31.16-.42s.03-.15.04-.15z"/><path class="cls-1" d="M185.67 87.79a10.17 10.17 0 014.26-5.37 2.45 2.45 0 012.25-.42c1 .46 1 1.81.75 2.83a7.51 7.51 0 01-3.1 4.23 6.32 6.32 0 01-4.65 1.17M184 100.74c.71-2.67 2.84-6.47 5.05-8.12a3.3 3.3 0 011.15-.62 1.35 1.35 0 011.23.27 1.89 1.89 0 01.28 1.77 10.8 10.8 0 01-8 8m-.16 10.11a15.7 15.7 0 015.1-6.42 2.42 2.42 0 011.78-.63c1 .17 1.41 1.36 1.32 2.33-.18 2-1.72 3.64-3.31 4.89a20.55 20.55 0 01-4.71 2.43m.08 5.59a15 15 0 014.34-4.94 3 3 0 011.3-.58 1.34 1.34 0 011.28.48c.43.64 0 1.51-.45 2.12a12.37 12.37 0 01-6.19 4.54m-.5-4.96a48.09 48.09 0 00-6.2-6.32 1.4 1.4 0 00-1.24-.47.94.94 0 00-.57.84 2.35 2.35 0 00.24 1 12 12 0 008 6.72m-.03-12.42c-1.62-2-3.25-4-4.87-5.95a6.25 6.25 0 00-1.58-1.5 2 2 0 00-2.08 0 2 2 0 00-.67 2 5.06 5.06 0 00.95 2 14.53 14.53 0 003.55 3.78 6 6 0 004.45 1.37m.93-13.71a17 17 0 00-4.91-7.34 2.85 2.85 0 00-1.27-.75 2.16 2.16 0 00-2.24 1.57 4 4 0 00.45 3.18 8.37 8.37 0 002.29 2.42 19.62 19.62 0 005.42 2.93m2.21-12.72c-.48-3.44-2.27-6.31-4.35-9.09-.43-.59-1-1.22-1.77-1.11a1.45 1.45 0 00-1 .88 3.38 3.38 0 00-.19 1.38 10.63 10.63 0 006.91 9.5m1.76-7.02a28.81 28.81 0 01-.18-5.33 9.64 9.64 0 011.77-5 4.05 4.05 0 011.77-1.41 2.24 2.24 0 012.17.29 2.36 2.36 0 01.75 1.91 6.06 6.06 0 01-.55 2c-1.3 3.12-3.47 6.58-5.73 7.46"/><path class="cls-3" d="M166.55 82.27a2.12 2.12 0 010 .44v3.25c0 .79 0 1.64.09 2.61.09 1.94.28 4.24.57 6.79s.75 5.33 1.35 8.23 1.34 5.62 2.07 8.07 1.51 4.64 2.21 6.44c.33.92.68 1.72 1 2.44s.55 1.32.77 1.82.36.86.49 1.15a2.38 2.38 0 01.15.41 2.3 2.3 0 01-.21-.38l-.55-1.13c-.23-.49-.51-1.09-.81-1.8s-.67-1.51-1-2.42c-.73-1.81-1.51-4-2.28-6.44s-1.49-5.19-2.11-8.1-1-5.7-1.32-8.26-.45-4.86-.5-6.81c-.05-1 0-1.85-.05-2.62s0-1.44 0-2v-1.25a1.89 1.89 0 01.13-.44z"/><path class="cls-3" d="M167.31 96.39a7.25 7.25 0 011.74-4.57 1.75 1.75 0 011.45-.77c.75.11 1.09 1 1.11 1.77a5.32 5.32 0 01-1.2 3.54 4.54 4.54 0 01-2.91 1.8m1.5 7.41a12.19 12.19 0 011.66-6.57 2.31 2.31 0 01.65-.67.94.94 0 01.89-.08 1.35 1.35 0 01.57 1.15 7.68 7.68 0 01-3.71 7.19m2.05 6.84a11.07 11.07 0 012.09-5.43 1.73 1.73 0 011.07-.82c.7-.09 1.25.62 1.41 1.31a5.43 5.43 0 01-1.2 4 14.94 14.94 0 01-2.69 2.66m1.26 3.85a10.69 10.69 0 011.89-4.29 2.25 2.25 0 01.76-.68.92.92 0 011 .06c.44.34.34 1 .16 1.53a8.86 8.86 0 01-3.24 4.43m-1.44-3.32a34.23 34.23 0 00-5.58-3 1 1 0 00-.94-.06.66.66 0 00-.21.69 1.75 1.75 0 00.38.66 8.61 8.61 0 006.89 2.86m-2.72-8.45l-4.59-3a4.43 4.43 0 00-1.4-.68 1.46 1.46 0 00-1.43.43 1.43 1.43 0 000 1.48 3.84 3.84 0 001.07 1.13 10.29 10.29 0 003.23 1.8 4.27 4.27 0 003.33 0m-2.31-9.48a12.2 12.2 0 00-4.92-4 2.1 2.1 0 00-1-.23 1.53 1.53 0 00-1.19 1.55 2.88 2.88 0 001 2.1 6.09 6.09 0 002.08 1.16 13.84 13.84 0 004.32.82m-1.27-9.11a14.22 14.22 0 00-4.92-5.26c-.43-.3-1-.6-1.45-.37a1 1 0 00-.5.82 2.38 2.38 0 00.16 1 7.6 7.6 0 006.75 5m-.29-5.2a21 21 0 01-1.26-3.59 6.86 6.86 0 01.13-3.76 3 3 0 01.9-1.34 1.6 1.6 0 011.54-.27 1.66 1.66 0 01.92 1.14 4.49 4.49 0 01.07 1.51c-.21 2.4-.95 5.22-2.3 6.31"/><path class="cls-1" d="M201.17 82a3 3 0 010 .44v3.25c0 .79 0 1.65-.05 2.62-.06 1.95-.22 4.26-.5 6.81s-.73 5.35-1.33 8.26-1.35 5.64-2.1 8.1-1.55 4.63-2.28 6.44c-.34.91-.71 1.71-1 2.42s-.58 1.31-.82 1.8l-.54 1.13a2.3 2.3 0 01-.21.38 2.07 2.07 0 01.15-.41c.12-.29.29-.67.49-1.15s.48-1.11.76-1.82.64-1.52 1-2.44c.7-1.8 1.45-4 2.21-6.44s1.45-5.18 2.07-8.08 1-5.68 1.35-8.22.48-4.85.56-6.79c.07-1 .07-1.84.1-2.61s0-1.44 0-2v-1.25a2.5 2.5 0 01.14-.44z"/><path class="cls-1" d="M200.41 96.09a7.26 7.26 0 00-1.75-4.57 1.75 1.75 0 00-1.44-.77c-.75.11-1.09 1-1.12 1.77a5.37 5.37 0 001.2 3.54 4.57 4.57 0 002.92 1.8m-1.47 7.41a12.28 12.28 0 00-1.69-6.62 2.31 2.31 0 00-.65-.67 1 1 0 00-.9-.08 1.37 1.37 0 00-.57 1.15 7.7 7.7 0 003.71 7.19m-2.04 6.89a11.27 11.27 0 00-2.09-5.46 1.75 1.75 0 00-1.08-.82c-.69-.09-1.25.62-1.4 1.31a5.43 5.43 0 001.2 4 14.6 14.6 0 002.69 2.66m-1.26 3.83a10.83 10.83 0 00-1.89-4.29 2.25 2.25 0 00-.76-.68.93.93 0 00-1 .06c-.43.34-.33 1-.15 1.53a8.8 8.8 0 003.24 4.43m1.42-3.27a34.74 34.74 0 015.59-3 1 1 0 01.94-.06.66.66 0 01.21.69 1.65 1.65 0 01-.39.66 8.59 8.59 0 01-6.88 2.86m2.69-8.45l4.6-3a4.43 4.43 0 011.4-.68 1.45 1.45 0 011.42.43 1.39 1.39 0 010 1.48 3.6 3.6 0 01-1.07 1.13 10.18 10.18 0 01-3.23 1.8 4.25 4.25 0 01-3.32 0m2.33-9.48a12.2 12.2 0 014.92-4 2.1 2.1 0 011-.23 1.54 1.54 0 011.26 1.59 2.88 2.88 0 01-1 2.1 6.09 6.09 0 01-2.08 1.16 13.9 13.9 0 01-4.33.82m1.2-9.15a14.25 14.25 0 014.92-5.26c.42-.3 1-.6 1.44-.37a1 1 0 01.51.82 2.39 2.39 0 01-.17 1 7.58 7.58 0 01-6.74 5m.25-5.2a20.17 20.17 0 001.27-3.59 6.77 6.77 0 00-.14-3.76 2.81 2.81 0 00-.9-1.34 1.6 1.6 0 00-1.54-.27 1.69 1.69 0 00-.92 1.14 4.49 4.49 0 00-.06 1.51c.21 2.4.94 5.22 2.29 6.31m-40.31 34.51v5.8a2.29 2.29 0 002.29 2.28h39.65a2.28 2.28 0 002.28-2.28v-5.8z"/><path class="cls-3" d="M164.13 131.68l.33 1.84 36.59 2.61.93-4.45h-37.85z"/><path class="cls-4" d="M73.51 15.48l26.25-1.6a4.82 4.82 0 015.58 3.34L119.88 71a17.3 17.3 0 01-.7 11.09l-1.52 3.7c-3.47 8.45-14.58 10.77-20.85 4.13a6 6 0 01-1-1.24 10.15 10.15 0 01-.57-1.15l-1.92-5.1c-1.56-4.71-2.94-9.56-2.93-9.52s-10.5 1.53-16.72-10.83c-3.09-6.15-6.15-16.86-8.37-25.71-1.96-8 .16-19.23 8.21-20.89z"/><path class="cls-5" d="M105.76 94a12.51 12.51 0 01-9.12-3.92 6 6 0 01-1-1.3 9.46 9.46 0 00-.25-.47 3.85 3.85 0 01-.33-.71l-1.92-5.09a255.92 255.92 0 01-2.88-9.35c-1.6.14-11 .39-16.76-11-3.17-6.31-6.31-17.49-8.38-25.76-1.44-5.73-.65-12.4 1.95-16.5a9.69 9.69 0 016.39-4.64l26.26-1.6a5 5 0 015.81 3.5l14.55 53.76a17.62 17.62 0 01-.71 11.24l-1.52 3.7a13.07 13.07 0 01-9.75 7.9 12.67 12.67 0 01-2.34.24zm-15.3-21.35c.14 0 .2.17.22.27.45 1.54 1.62 5.54 2.9 9.4l1.92 5.1a3.29 3.29 0 00.3.63c.08.15.17.31.26.5a6.06 6.06 0 00.94 1.18 12 12 0 0011.08 3.56 12.58 12.58 0 009.4-7.61L119 82a17.17 17.17 0 00.66-11l-14.55-53.72a4.54 4.54 0 00-5.3-3.17l-26.27 1.61a9.31 9.31 0 00-6.08 4.42c-2.54 4.05-3.3 10.53-1.89 16.14 2.06 8.24 5.19 19.39 8.35 25.67C80 74 90.29 72.67 90.4 72.65z"/><path class="cls-5" d="M90.43 72.88a34.69 34.69 0 0015.95-10.2S104.87 73.08 91.45 76z"/><path class="cls-6" d="M85.14 30.5c.33.43 2-.38 4.24-.79s4.07-.39 4.21-.92c.06-.25-.38-.61-1.22-.86a7.12 7.12 0 00-3.37-.1 7.25 7.25 0 00-3.07 1.39c-.68.56-.93 1.07-.79 1.28zm-17.5 5.75c.44.31 1.55-.51 3-1s2.83-.6 3-1.12c.06-.24-.27-.59-.94-.8A4.62 4.62 0 0067.87 35c-.4.62-.43 1.1-.23 1.25z"/><path class="cls-4" d="M109.6 36.13c2.42-1.21 7.1-2.47 9.21 4 2.89 8.85-6.6 9.92-6.7 9.68"/><path class="cls-5" d="M112.38 50.07c-.25 0-.43 0-.48-.17a.23.23 0 01.13-.3.23.23 0 01.2 0 8.53 8.53 0 005.46-2.47c1.54-1.7 1.84-4 .9-6.93-.76-2.33-1.92-3.83-3.44-4.47a6.77 6.77 0 00-5.45.6.23.23 0 01-.21-.41c1.52-.76 3.76-1.48 5.83-.62 1.66.7 2.91 2.29 3.71 4.75 2.09 6.42-2.29 8.78-4.27 9.49a9.71 9.71 0 01-2.38.53z"/><path class="cls-6" d="M113.72 45.58s.19.06.49.09a1.63 1.63 0 001.16-.35c.83-.65 1.13-2.39.65-4a5.33 5.33 0 00-1.15-2.07 1.88 1.88 0 00-1.55-.81.84.84 0 00-.77.72c0 .29.08.45 0 .48s-.24-.09-.29-.48a1 1 0 01.17-.67 1.21 1.21 0 01.78-.5 2.28 2.28 0 012.06.85 5.48 5.48 0 011.34 2.29c.52 1.81.15 3.77-1 4.56a1.74 1.74 0 01-1.49.23c-.31-.13-.42-.32-.4-.34zM93.2 53.5c0 .14-1.43.68-3 1.75s-2.64 2.22-2.75 2.13a8.72 8.72 0 015.75-3.88z"/><path class="cls-4" d="M103.92 130.42c-2.6-11.07-14.66-60.37-14.66-60.37L83 71.31l-3.88 7.57-6.65 2.93c-1.61.53-6.92 3.36-7.89 4.76-2.33 3.33-5.38 9.44-6.48 22.56-1.7 20.35-4.88 45 3.7 51.1l48.8.27s-4.08-19.01-6.68-30.08z"/><path class="cls-5" d="M110.57 160.73l-48.8-.26a.21.21 0 01-.13-.05c-7.85-5.56-6.06-25.74-4.33-45.24.19-2.05.37-4.08.53-6.07.85-10.2 3-17.62 6.51-22.68 1-1.45 6.37-4.3 8-4.84l6.55-2.89 3.84-7.49a.23.23 0 01.16-.13l6.29-1.26a.23.23 0 01.27.18c.12.49 12.1 49.42 14.67 60.36 2.57 10.95 6.61 29.9 6.65 30.09a.19.19 0 010 .19.21.21 0 01-.21.09zM61.85 160l48.44.26c-.52-2.41-4.2-19.58-6.59-29.79C101.21 119.9 90 73.9 89.08 70.32l-6 1.2L79.29 79a.2.2 0 01-.11.11L72.53 82c-1.57.53-6.84 3.32-7.79 4.68-3.49 5-5.59 12.33-6.43 22.45-.17 2-.35 4-.53 6.07-1.64 18.44-3.49 39.32 4.07 44.8z"/><path class="cls-4" d="M173.32 154.84c-.18.93-.44 1.84-.66 2.75-.78 3.29-3.18 2.91-3.18 2.91h-21.41l-9.94-.09-38.36-.41S84.63 95.17 84.62 95.16s6.9-18.93 6.9-18.93 17.46 12.14 26.92-8l-.63-5.79 12.6 6.4L149 73.72v-.11s11.28 2.49 15.25 12.48 7 38 8 45.95c.51 4 1 7.86 1.4 10.58a37.68 37.68 0 01-.33 12.22z"/><path class="cls-5" d="M169.68 160.74h-21.61l-48.3-.45a.25.25 0 01-.23-.18c-.15-.65-15-64.29-15.15-64.88v-.06c0-.06 0-.08 6.91-19a.24.24 0 01.14-.14.26.26 0 01.21 0c.07 0 7.55 5.15 15.2 3.1 4.71-1.26 8.53-4.93 11.36-10.9l-.64-5.72a.26.26 0 01.1-.22.23.23 0 01.24 0l12.59 6.38 18.32 4.77a.22.22 0 01.19-.05c.12 0 11.45 2.64 15.42 12.62 3.5 8.82 6.23 31.44 7.55 42.32.18 1.48.33 2.73.45 3.69.41 3.2.88 6.76 1.4 10.58a38 38 0 01-.29 12.3c-.13.64-.29 1.28-.45 1.91l-.21.84c-.66 2.83-2.53 3.09-3.2 3.09zm-.2-.47c.12 0 2.24.3 3-2.74l.21-.85c.16-.61.32-1.25.44-1.88a37.39 37.39 0 00.29-12.15c-.52-3.81-1-7.38-1.4-10.59-.12-.95-.27-2.21-.45-3.69-1.31-10.85-4.05-33.44-7.53-42.19-3.58-9-13.31-11.88-14.86-12.29a.25.25 0 01-.2 0l-18.56-4.84h-.05l-12.23-6.2.59 5.35a.19.19 0 010 .13c-2.89 6.14-6.82 9.91-11.68 11.21-7.07 1.89-14-2.13-15.34-3-2.45 6.54-6.79 18.46-6.87 18.69.29 1 1.48 6.15 7.59 32.33l7.57 32.25 48.11.46z"/><path class="cls-6" d="M150.69 144.91v-.5c0-.35-.06-.82-.09-1.43-.07-1.25-.17-3-.29-5.24s-.24-4.85-.39-7.77-.27-6.14-.51-9.52c-.43-6.74-.82-12.84-1.1-17.28-.13-2.2-.23-4-.31-5.24 0-.61-.05-1.08-.07-1.43a2.38 2.38 0 010-.48s.08.67.18 1.9.23 3 .39 5.24c.3 4.43.71 10.54 1.16 17.28.25 3.37.37 6.59.5 9.52s.24 5.55.34 7.78.15 4 .2 5.24v1.8c0 .08 0 .13-.01.13z"/><path class="cls-4" d="M95.31 76.5l-9.47 6.02"/><path class="cls-5" d="M85.84 82.75a.23.23 0 01-.13-.43l9.47-6a.24.24 0 01.32.08.23.23 0 01-.07.32l-9.47 6a.19.19 0 01-.12.03z"/><path class="cls-4" d="M85.84 82.52c-.1 1-15.57 35.37-15.57 35.37L93.1 128l4.71-42.85a11.79 11.79 0 00-2.26-8.3l-.24-.32"/><path class="cls-5" d="M93.1 128.2a.15.15 0 01-.09 0l-22.84-10.1a.22.22 0 01-.12-.13.28.28 0 010-.18c4.28-9.49 15.4-34.33 15.55-35.3a.24.24 0 01.47.05c-.1 1-13.51 30.83-15.49 35.23l22.33 9.86 4.67-42.53a11.45 11.45 0 00-2.22-8.1l-.24-.32a.23.23 0 010-.33.23.23 0 01.32 0l.24.32A12 12 0 0198 85.15L93.33 128a.22.22 0 01-.11.18.27.27 0 01-.12.02z"/><path class="cls-4" d="M71.1 116.64c-.61 1.21-12.69 23.66-12.69 25.77s13.41 16.66 13.41 16.66l12.7-.91s9.08-25.64 9.08-35.34"/><path class="cls-5" d="M71.82 159.31a.25.25 0 01-.17-.08c-1.38-1.5-13.47-14.68-13.47-16.82 0-1.69 6.77-14.67 11.87-24.28.46-.86.76-1.43.84-1.6a.23.23 0 01.31-.1.24.24 0 01.11.31l-.85 1.6c-7.84 14.8-11.81 22.9-11.81 24.07 0 1.48 7.9 10.6 13.27 16.42l12.43-.89c.73-2.08 9-25.94 9-35.12a.23.23 0 01.46 0c0 9.63-9 35.16-9.09 35.41a.24.24 0 01-.21.16l-12.69.92z"/><path d="M151.23 157l-21.94-30.74-5.49 1.95c6.4 7.43 9.34 17.53 16.46 24.28a54 54 0 009 6.43c.76.46 5.23 2.31 5.77 1.6s-3.36-2.91-3.8-3.52z"/><path class="cls-4" d="M155 160.51a47.06 47.06 0 01-11.44-9.51c-6.15-6.71-11.86-14.35-11.86-14.35l-6-8.17 8.45-22.72s6.89.9 7.62 2.4a4.37 4.37 0 01.36 2.84l-.43 3.82a12.9 12.9 0 012.12 5c.22 2.32-1.39 2.85-1.39 2.85a3.86 3.86 0 01-.2 2.71 2.17 2.17 0 01-1.75 1.44l13.75 10.24"/><path class="cls-5" d="M155 160.74a.2.2 0 01-.11 0 48.08 48.08 0 01-11.53-9.54c-6.07-6.64-11.81-14.29-11.86-14.37l-6-8.17a.22.22 0 010-.22l8.45-22.72a.24.24 0 01.25-.15c.71.1 7 1 7.8 2.53a4.55 4.55 0 01.38 3l-.42 3.7a12.7 12.7 0 012.11 5 2.8 2.8 0 01-1.34 3 4.11 4.11 0 01-.26 2.68A2.69 2.69 0 01141 127l13.35 9.94a.24.24 0 11-.28.38L140.31 127a.24.24 0 01-.08-.26.22.22 0 01.22-.16 2 2 0 001.54-1.31 3.66 3.66 0 00.19-2.53.25.25 0 010-.19.26.26 0 01.14-.11s1.43-.51 1.23-2.6a13 13 0 00-2.08-4.91.22.22 0 010-.16l.44-3.81a4.24 4.24 0 00-.34-2.72c-.49-1-4.54-1.87-7.26-2.24l-8.34 22.42 6 8.07c.06.08 5.77 7.71 11.84 14.33a47.74 47.74 0 0011.39 9.45.23.23 0 01-.1.43z"/><path d="M115.78 100v1l3.52 28.77a1.63 1.63 0 001.63 1.43H132a1.62 1.62 0 001.61-1.36l5.1-29.82z" fill="#ffb554"/><path d="M131.78 105.05a5.24 5.24 0 001.27 3.25 16.19 16.19 0 002.62 2.41 42.63 42.63 0 00-8.36-.83 1.88 1.88 0 00-1.5.46 1.68 1.68 0 000 1.78 8.5 8.5 0 004 3.8 25.58 25.58 0 005.36 1.72 18.85 18.85 0 01-8.62-.92c-.72-.26-1.69-.48-2.1.16s0 1.19.36 1.69A15.28 15.28 0 00132 124a4.52 4.52 0 011.33.63 1.25 1.25 0 01.46 1.32 1.23 1.23 0 01-1.28.66 4 4 0 01-1.45-.53 18.62 18.62 0 00-6.17-1.87 13.39 13.39 0 009 7.58 2.15 2.15 0 00-.87-2.26 3.91 3.91 0 002.92-2.3 12 12 0 00.91-3.76c.63-4.58 1.49-9.14 2.57-13.64"/><path class="cls-4" d="M139.93 113c-.09-.14-.13-1.26-2.09-2s-11.54-2-11.67-2a2 2 0 000 3.58c2.41 1.77 8.57 3.21 8.57 3.21l1.45 2.24-12.53-3.03s-1.78 2.28.32 3.73 9.52 3.81 9.52 3.81l1 1.35-.36 1.49-8.53-2.65a2 2 0 00-.09 2.65c1.14 1.26 6.7 3.76 6.7 3.76l1.78 1s-.91 1.81.59 2.61 1.6.66 1.6.66 3.65-2.7 3.78-4.26a6.18 6.18 0 000-2l.52-.29"/><path class="cls-5" d="M136.14 133.63a5.05 5.05 0 01-1.7-.7 2 2 0 01-.78-2.71l-1.59-.89c-.21-.09-5.6-2.52-6.76-3.8a2.22 2.22 0 01.09-3 .24.24 0 01.24-.06l8.29 2.58.28-1.15-.85-1.2c-.83-.27-7.5-2.44-9.51-3.82a2.39 2.39 0 01-1.1-1.63 3.56 3.56 0 01.73-2.43.22.22 0 01.24-.08l11.95 3-1.08-1.66c-.8-.2-6.27-1.55-8.56-3.23-1.29-1-1.31-1.91-1.1-2.56a2.43 2.43 0 011.24-1.45c.06 0 9.68 1.24 11.74 2 1.79.64 2.09 1.62 2.2 2v.08a.22.22 0 01-.08.31.23.23 0 01-.32-.08.54.54 0 01-.07-.17c-.1-.31-.34-1.13-1.91-1.69-1.82-.64-10.7-1.84-11.55-1.94a2.31 2.31 0 00-.91 1.47 1.94 1.94 0 001 1.69c2.35 1.72 8.43 3.16 8.49 3.18a.21.21 0 01.14.1l1.46 2.23a.23.23 0 010 .26.21.21 0 01-.24.09l-12.38-3.12a3 3 0 00-.55 1.95 1.92 1.92 0 00.9 1.31c2 1.41 9.39 3.77 9.47 3.79a.24.24 0 01.11.09l1 1.35a.25.25 0 010 .19l-.37 1.49a.19.19 0 01-.11.14.19.19 0 01-.18 0l-8.37-2.6a1.71 1.71 0 000 2.23c1.1 1.2 6.57 3.67 6.63 3.69l1.79 1a.23.23 0 01.1.3c0 .07-.79 1.63.49 2.3a7.78 7.78 0 001.41.64c1-.78 3.53-2.88 3.63-4a6.57 6.57 0 000-1.9.23.23 0 01.11-.27l.52-.29a.22.22 0 01.31.08.22.22 0 01-.09.32l-.37.21a8.43 8.43 0 010 1.89c-.14 1.59-3.47 4.13-3.84 4.4a.19.19 0 01-.19.07z"/><path class="cls-4" d="M141.57 109.16a2.06 2.06 0 00-1-2.56 62.2 62.2 0 00-6.81-1.89c-.14-.21-2 0-2 0s-.91 2 2 3.65 4 2.44 4 2.44v.51"/><path class="cls-5" d="M137.79 111.54a.23.23 0 01-.23-.23v-.39c-.34-.22-1.53-1-3.88-2.36-3-1.77-2.06-3.92-2.05-3.94a.22.22 0 01.18-.14c1.51-.17 1.95-.08 2.1 0a58.28 58.28 0 016.8 1.89 2.22 2.22 0 011.08 2.84.25.25 0 01-.3.15.24.24 0 01-.14-.3 1.8 1.8 0 00-.83-2.26 60.65 60.65 0 00-6.78-1.88.24.24 0 01-.11-.06 7.25 7.25 0 00-1.62.05c-.13.42-.37 1.89 1.9 3.23 2.84 1.67 4 2.43 4 2.44a.26.26 0 01.1.2v.51a.23.23 0 01-.22.25zm-4.19-6.71z"/><path d="M118.07 100.55L116 102a32.38 32.38 0 0022-.28z"/><path class="cls-6" d="M114.43 99.25h25.65v2.82h-25.65z"/><path class="cls-6" d="M116.34 99.51c.08-.26 1.14-3.4 1.14-3.4l19.6.32 1.45 3.32z"/><path class="cls-9" d="M140.08 99.25c0 .07-5.74.12-12.82.12s-12.83-.05-12.83-.12 5.74-.12 12.83-.12 12.82.05 12.82.12z"/><rect class="cls-9" x="118.1" y="97.42" width="7.57" height="1.05" rx=".51"/><path class="cls-6" d="M156.29 78.84a2.94 2.94 0 01-.33.6c-.25.42-.57 1-1 1.6-.8 1.35-1.88 3.23-3 5.37s-2 4.11-2.6 5.56c-.29.69-.54 1.26-.73 1.71a3.65 3.65 0 01-.29.62 3.59 3.59 0 01.2-.66c.14-.41.37-1 .66-1.74.58-1.47 1.45-3.46 2.54-5.6s2.2-4 3-5.36c.42-.66.77-1.19 1-1.55a3.45 3.45 0 01.55-.55zM74.74 99a2.55 2.55 0 01-.32-.48c-.22-.35-.5-.8-.82-1.33-.71-1.11-1.71-2.64-2.9-4.26s-2.37-3-3.23-4l-1-1.17a2.47 2.47 0 01-.36-.45s.16.12.43.38.64.64 1.09 1.13a50.07 50.07 0 013.3 4 51.24 51.24 0 012.85 4.32c.33.58.59 1 .75 1.38a2.19 2.19 0 01.21.48z"/><path class="cls-5" d="M95.35 108h-.11c0-.21 2.28-20.79 2.58-24.69s-3.26-7.9-3.3-7.94l.09-.08s3.63 4.12 3.33 8-2.57 24.53-2.59 24.71z"/><path class="cls-5" d="M95.58 108.11l-.59-.06V108c0-.2 2.28-20.77 2.58-24.67.29-3.74-3.2-7.73-3.24-7.77l.44-.39c.16.17 3.71 4.19 3.39 8.21s-2.56 24.5-2.58 24.7zm-.46-.16h.36c.13-1.22 2.28-20.84 2.58-24.64s-2.91-7.61-3.32-8.08l-.27.24c.38.45 3.51 4.24 3.23 7.81-.3 3.85-2.45 23.45-2.58 24.72z"/><path class="cls-6" d="M169.48 160.5a1.87 1.87 0 010-.4l-.11-1.15c-.08-1-.23-2.44-.51-4.2a53.62 53.62 0 00-1.35-6.13c-.65-2.27-1.45-4.76-2.39-7.31a17.83 17.83 0 00-3.91-6.51 9.33 9.33 0 00-1.32-1.08 8.83 8.83 0 00-1.43-.74 10 10 0 00-2.81-.67 9.27 9.27 0 00-2.39.08 7.17 7.17 0 00-1.72.53 9.85 9.85 0 00-1.32.81l.3-.27a2.45 2.45 0 01.4-.29 4.27 4.27 0 01.58-.33 6.67 6.67 0 011.74-.58 9 9 0 012.43-.12 10 10 0 012.87.65 9.2 9.2 0 011.47.74 10.83 10.83 0 011.36 1.11 17.93 17.93 0 014 6.58 95.1 95.1 0 012.38 7.34 50.87 50.87 0 011.3 6.16c.26 1.77.38 3.22.44 4.22 0 .5 0 .89.05 1.16s-.06.4-.06.4z"/><path class="cls-6" d="M167.59 135.69s-.51-.49-1.4-1.19a12.26 12.26 0 00-3.85-2.09 11.91 11.91 0 00-4.35-.5c-1.13.08-1.82.25-1.83.2a2.87 2.87 0 01.47-.14 9.26 9.26 0 011.34-.24 11 11 0 014.44.44 11.51 11.51 0 013.89 2.19 10.35 10.35 0 011 .94c.19.24.31.37.29.39z"/><path d="M170.26 150.19c-.47-7.85-3.76-17.56-13.8-18l1.39.4c4.57 2.24 5.42 4.87 6.89 8.19a88.78 88.78 0 013.36 10.36 1.57 1.57 0 00.71 1.08 1.08 1.08 0 001.26-.57 2.86 2.86 0 00.19-1.46z"/><path class="cls-4" d="M96.46 78.31s-3.2-5-5.41-8.26-5.21-7.23-5.21-7.23-3.26-11.41-6.22-10.33l-.29.37a1.76 1.76 0 00-.33 1.58l2.45 9-3.57-5.49s-2.58-8.9-6.1-8.95c0 0-1-2-2.3-1.48S68.39 51 68.39 51s1 10.89 1.43 12.07 5.11 8.51 5.11 8.51-.5 2.49.12 3.06 4.75 5.15 6.44 6.43 4.36 3 4.36 3"/><path class="cls-5" d="M85.85 84.28a.28.28 0 01-.13 0s-2.69-1.68-4.37-3a67.45 67.45 0 01-5.3-5.23c-.56-.6-1-1.06-1.16-1.22-.64-.59-.31-2.59-.2-3.19-.54-.83-4.68-7.33-5.08-8.47S68.2 51.5 68.16 51.05c0-.13-.24-3.17 1.24-3.72 1.31-.49 2.27 1 2.53 1.47 3.5.23 6 8.36 6.16 9l2.74 4.22-2-7.56a2 2 0 01.36-1.78l.3-.38a.23.23 0 01.1-.07 1.49 1.49 0 011.23.1c2.63 1.34 5.07 9.6 5.28 10.35.3.39 3.11 4.17 5.19 7.19 2.19 3.19 5.39 8.23 5.42 8.28a.23.23 0 01-.39.25s-3.32-5.05-5.46-8.22S85.69 63 85.66 63a.2.2 0 010-.08c0-.08-2.55-8.81-5.06-10.09a1 1 0 00-.8-.1l-.25.32a1.53 1.53 0 00-.28 1.37l2.44 9a.22.22 0 01-.13.27.23.23 0 01-.29-.08l-3.57-5.49v-.06c0-.09-2.56-8.73-5.87-8.75a.21.21 0 01-.2-.13s-.9-1.78-2-1.37c-1 .36-1 2.47-.94 3.25.35 3.76 1.1 11.1 1.42 12 .41 1.14 5 8.38 5.09 8.45a.25.25 0 010 .17c-.19 1-.31 2.52 0 2.85l1.18 1.24a67.86 67.86 0 005.24 5.18c1.67 1.27 4.31 2.92 4.34 2.93a.23.23 0 01-.12.43z"/><path class="cls-4" d="M71.78 49.03l1.33 10.65 4.32 8.15"/><path class="cls-5" d="M77.43 68.06a.25.25 0 01-.21-.12l-4.31-8.16a.11.11 0 010-.08l-1.36-10.64a.24.24 0 01.2-.26.22.22 0 01.25.2l1.33 10.6 4.29 8.12a.23.23 0 01-.2.34z"/><path class="cls-4" d="M77.43 67.83a3.45 3.45 0 01-.38-.61l-1-1.72c-.79-1.45-1.89-3.49-3.1-5.77 0-.24-.06-.49-.1-.75-.34-2.73-.63-5.21-.83-7-.09-.87-.17-1.58-.23-2.13s-.06-.78 0-.78a4 4 0 01.15.77c.08.54.18 1.25.3 2.12.25 1.78.57 4.26.91 7q0 .39.09.75c1.21 2.28 2.27 4.33 3 5.8.36.72.66 1.3.88 1.75a4.41 4.41 0 01.31.57z"/><path class="cls-5" d="M77.41 68.08c-.14 0-.24-.19-.56-.75l-.95-1.71c-.83-1.52-1.93-3.57-3.1-5.78a.18.18 0 010-.1l-.13-.74a504.9 504.9 0 01-.84-7l-.23-2.12c-.09-.92-.09-1 .15-1s.27.06.41 1l.3 2.12c.26 1.88.58 4.37.91 7l.09.69c1.16 2.2 2.23 4.24 3 5.75l.88 1.75c.37.75.42.84.2 1a.27.27 0 01-.13-.11zm0-.25zm0 0z"/><path class="cls-3" d="M3.85 107.14h57c1.89 0 3.69 1 4 3l7.59 46.55h30a1.9 1.9 0 010 3.79H6.62L.08 111.91a4.05 4.05 0 013.77-4.77z"/><path class="cls-6" d="M3.85 107.14a7.37 7.37 0 00-1 .16 3.88 3.88 0 00-2.21 1.77 4.36 4.36 0 00-.58 2 5.85 5.85 0 00.09 1.23l.19 1.34c.25 1.85.54 4 .87 6.39 1.3 9.61 3.18 23.45 5.49 40.43l-.1-.09h95.78a1.8 1.8 0 00.57-.11 1.7 1.7 0 00.85-.78 1.91 1.91 0 00-.31-2.19 1.55 1.55 0 00-1-.47H72.32v-.1c-2.54-15.62-4.91-30.2-7-43.27l-.45-2.45c-.07-.4-.13-.81-.21-1.2a3.16 3.16 0 00-.47-1.06 3.59 3.59 0 00-1.87-1.31 5.58 5.58 0 00-1.14-.21H3.85h57.29a5.22 5.22 0 011.18.21 3.71 3.71 0 012 1.39 3.31 3.31 0 01.51 1.13c.08.41.14.8.21 1.21q.2 1.2.39 2.43c2.14 13.07 4.52 27.64 7.08 43.26l-.12-.1h30.11a1.74 1.74 0 011.19.54 2.14 2.14 0 01.35 2.47 2 2 0 01-1 .9 1.88 1.88 0 01-.66.12H6.54v-.09c-2.27-17-4.12-30.83-5.41-40.44-.32-2.4-.6-4.54-.85-6.39-.06-.47-.12-.91-.17-1.34A5.9 5.9 0 010 111.1a4.38 4.38 0 01.61-2.1 3.84 3.84 0 012.26-1.77 3.35 3.35 0 01.73-.12z"/><circle class="cls-4" cx="33.56" cy="133.24" r="3.95"/><path class="cls-6" d="M69.51 160c-.09 0-2.1-11.71-4.49-26.18s-4.25-26.22-4.17-26.24 2.1 11.71 4.5 26.19S69.6 160 69.51 160z"/><path class="cls-5" d="M85.12 51.86a3.16 3.16 0 01-2.12-.14 5.87 5.87 0 01-2.1-1.17 5.94 5.94 0 01-1-1.07c-.07-.11-.14-.2-.21-.32a.78.78 0 01-.11-.26.65.65 0 010-.39.73.73 0 01.51-.44 1.65 1.65 0 01.44-.08l2.95-.29-.29.42c-.63-2.46-1-4.2-.84-4.24A17.87 17.87 0 0183.81 48a.32.32 0 01-.22.4h-.06c-.9.11-1.89.23-2.94.34h-.37.06a.56.56 0 010 .08l.18.27a6.13 6.13 0 00.83 1 6.44 6.44 0 001.84 1.19c1.17.46 2 .46 1.99.58zm-10.97-8.54c-.22-.76-.26-1.7-.9-2.26l-.16-.06a2 2 0 00-1.7.27 1.84 1.84 0 00-.49 1.51 6.48 6.48 0 00.69 2.22 4.17 4.17 0 00.59 1 1.23 1.23 0 002.25-.72 4.74 4.74 0 00-.28-1.96zm16.15-4.75a4.28 4.28 0 00-.73-2.32l-.15-.08a2 2 0 00-1.72.15 1.85 1.85 0 00-.6 1.47 6.54 6.54 0 00.52 2.21 4.44 4.44 0 00.52 1.1 1.22 1.22 0 002.29-.56 4.71 4.71 0 00-.13-1.97z"/><path class="cls-4" d="M64.45 34.84l-1.51-1c-2.51-1.32-5.3-.52-8.92-3.05-4.94-3.44-3.28-7.92-3.28-7.92 1.69-6.08 9.19-8.27 15.16-7.84-3.31-.47-9.31-.13-9.22-3.67-.35-4.69 8.44-7 17.74-6.15C68.91 4.2 68.15.39 72.2.25l20.43 1a22.34 22.34 0 017.89 1.35c5.71 2.47 9.51 8.92 11.55 14.8a42.6 42.6 0 012.09 15.14 17.67 17.67 0 01-.28 2.59 6.76 6.76 0 00-2-.21 8.2 8.2 0 00-4 1.73 4.1 4.1 0 00-1.46 2.66 15.45 15.45 0 01-.31 3.54 2.84 2.84 0 01-2.46 2.22 2.7 2.7 0 01-2.23-1.47 8 8 0 01-.76-2.69l-2-12.48c-9.09.51-16-4.1-19.87-12.27h-.13c.21 1.06.43 3.61-2.23 4.49A32.48 32.48 0 0169.74 22s-.34 6.85-6.49 6.06z"/><path class="cls-5" d="M64.45 34.84c-.11-.58-.49-2.56-1.28-6.74a.09.09 0 01.07-.1l1 .05a10.22 10.22 0 001.07-.11 5 5 0 002.09-1A7.37 7.37 0 0069.61 22a.13.13 0 01.12-.12 32.55 32.55 0 005.72-1.09 12.25 12.25 0 001.48-.5 3.08 3.08 0 001.18-1 4 4 0 00.46-3.14.17.17 0 01.13-.2h.22a.18.18 0 01.1.09A22.35 22.35 0 0086.26 25a19.6 19.6 0 0012.47 3.3.22.22 0 01.23.18c.39 2.46.8 5 1.21 7.57.21 1.29.42 2.6.64 3.92a10 10 0 001 3.81 2.58 2.58 0 001.48 1.1 1.9 1.9 0 001.71-.51c1-.88 1.18-2.33 1.18-3.73v-1.08a3.08 3.08 0 01.24-1.12 5.06 5.06 0 011.29-1.86 8.08 8.08 0 014.11-1.82 7.38 7.38 0 012.07.22l-.33.19.17-1.64a11.62 11.62 0 00.11-1.67c0-1.13 0-2.26-.07-3.4a42.42 42.42 0 00-.9-6.86 36.34 36.34 0 00-2.18-6.72 30.66 30.66 0 00-3.56-6.24 16.92 16.92 0 00-7.4-5.95c-3-1.09-6.24-1-9.37-1.21L72.18.49a2.88 2.88 0 00-2.06.73c-.49.51-.22 1.32.26 1.86a5.36 5.36 0 001.86 1.27 11.18 11.18 0 002.2.67.24.24 0 01.18.29.22.22 0 01-.25.18A36.55 36.55 0 0063.9 6a15.09 15.09 0 00-4.64 1.7 5.73 5.73 0 00-1.75 1.56 3.57 3.57 0 00-.62 2.14 2.32 2.32 0 001.27 2.11 8 8 0 002.54.79c1.76.3 3.51.34 5.22.57a.18.18 0 01.16.21.19.19 0 01-.2.17 19.43 19.43 0 00-9.54 1.66 11.37 11.37 0 00-3.52 2.56A8.74 8.74 0 0050.88 23a6.27 6.27 0 000 3.38 6.92 6.92 0 001.44 2.74 9.57 9.57 0 002.11 1.85 11.15 11.15 0 002.21 1.15 21.81 21.81 0 003.89.94 8.88 8.88 0 012.49.82l1.49 1-1.53-.92a8.77 8.77 0 00-2.47-.75 21.4 21.4 0 01-3.93-.9 10.78 10.78 0 01-2.27-1.15 9.7 9.7 0 01-2.18-1.88 6.8 6.8 0 01-1.47-6.37 9.16 9.16 0 012-3.61 11.69 11.69 0 013.61-2.65 19.78 19.78 0 019.71-1.74v.39c-1.67-.22-3.43-.25-5.23-.55a8.27 8.27 0 01-2.75-.86 3 3 0 01-1.1-1 2.71 2.71 0 01-.4-1.47A4 4 0 0157.15 9 6.07 6.07 0 0159 7.33a15.24 15.24 0 014.8-1.78A36.84 36.84 0 0174.44 5l-.06.47a11.09 11.09 0 01-2.3-.7A5.84 5.84 0 0170 3.4a2.57 2.57 0 01-.6-1.17A1.51 1.51 0 0169.78.9a2.26 2.26 0 01.53-.44 4.66 4.66 0 01.61-.26 6.11 6.11 0 011.27-.2l18.28.92c3.11.2 6.39.1 9.52 1.23a17.52 17.52 0 017.64 6.13 31.68 31.68 0 013.61 6.34 36.46 36.46 0 012.22 6.82 42.42 42.42 0 01.9 6.94c.06 1.15.08 2.3.07 3.43a14 14 0 01-.12 1.71l-.18 1.69a.24.24 0 01-.26.21h-.07a7.57 7.57 0 00-1.9-.19 7.58 7.58 0 00-3.83 1.69 4.57 4.57 0 00-1.17 1.66 3 3 0 00-.21 1v1.07a10.07 10.07 0 01-.23 2.17 3.82 3.82 0 01-1.13 1.92 2.36 2.36 0 01-2.14.6 3 3 0 01-1.77-1.3 10.45 10.45 0 01-1.09-4c-.21-1.33-.41-2.64-.62-3.93l-1.2-7.57.23.19A20 20 0 0186 25.28a22.63 22.63 0 01-7.33-9l.11.09h-.13l.22-.2a4.42 4.42 0 01-.53 3.4 3.42 3.42 0 01-1.32 1.07 13.57 13.57 0 01-1.52.51 33 33 0 01-5.79 1.05l.13-.12a7.58 7.58 0 01-2.29 5 5 5 0 01-2.19 1.05 11 11 0 01-1.11.11l-1.05-.07.1-.1c.7 4.2 1.06 6.19 1.15 6.77z"/></g></g></svg>