<svg xmlns="http://www.w3.org/2000/svg" viewBox="0 0 265.16 286.09"><defs><style>.cls-1,.cls-5{fill:#fff}.cls-2{fill:#10100c}.cls-3{fill:#ffb554}.cls-4{fill:#3d3d3d}.cls-5{stroke:#10100c;stroke-linecap:round;stroke-linejoin:round;stroke-width:.5px}</style></defs><g id="Capa_2" data-name="Capa 2"><g id="IMG03"><path class="cls-1" d="M208.42 57.36l.15-1.67-.35-15.81-1.71-13.16-13.06-8.49-10.13 3a23.71 23.71 0 01-.31 3.51s-1 19.3 1.23 23c2.09 3.45 7 3.77 8.11 5.75C193.72 56 194 62.3 194 62.3s12.05.31 14.42-4.94z"/><path class="cls-2" d="M208.42 57.36l-.12.25c-.09.16-.22.41-.41.72a7.55 7.55 0 01-2.46 2C203 61.6 199 62.46 194 62.47a.17.17 0 01-.17-.16c-.07-1.3-.2-2.67-.4-4.1a16.54 16.54 0 00-1.1-4.32 3.25 3.25 0 00-1.64-1.49c-.71-.38-1.48-.7-2.24-1.06a9.77 9.77 0 01-4.21-3.19 2.56 2.56 0 01-.33-.61 6.11 6.11 0 01-.27-.66c-.11-.45-.27-.9-.34-1.36-.18-.91-.3-1.84-.4-2.78a90 90 0 01-.31-5.78c-.07-3.93 0-8 .2-12.2l.13-1.13.12-1.21v-1.13s0 .1.18.19.28-.11.29-.12l-.34-.27 10.14-3a.22.22 0 01.21 0l13 8.51a.23.23 0 01.1.16c.62 4.87 1.18 9.3 1.67 13.17.14 7.77.22 13.31.23 15.81l-.04 1.26a1.68 1.68 0 01-.06.4 2.07 2.07 0 010-.41l.09-1.27c-.1-2.5-.27-8-.48-15.81-.51-3.86-1.1-8.28-1.75-13.15l.1.16-13.06-8.47h.21l-10.14 3a.26.26 0 01-.32-.17.18.18 0 010-.1.19.19 0 010-.08s.05-.15.29-.11.16.17.18.19v1.22l-.12 1.23-.14 1.14c-.2 4.17-.27 8.24-.21 12.16 0 2 .13 3.88.29 5.74.1.93.21 1.85.38 2.74.08.45.22.87.32 1.3a5.39 5.39 0 00.25.6 2.17 2.17 0 00.3.56 9.3 9.3 0 004 3c.75.36 1.52.69 2.25 1.08a6.55 6.55 0 011.05.69 2.7 2.7 0 01.77 1 16.56 16.56 0 011.1 4.45 41.52 41.52 0 01.37 4.14l-.17-.17c4.94 0 8.93-.76 11.37-2a7.68 7.68 0 002.47-1.87l.44-.68a1.29 1.29 0 01.16-.15z"/><path class="cls-2" d="M186.8 32.93c-.06-.43 0-.93-.3-1.28h-.08a1.08 1.08 0 00-.93 0 1 1 0 00-.39.77 3.66 3.66 0 00.19 1.22 2.28 2.28 0 00.24.61.75.75 0 00.49.38.77.77 0 00.77-.58 2.57 2.57 0 00.01-1.12zm9.7.2c-.06-.42 0-.93-.3-1.28l-.08-.05a1.08 1.08 0 00-.93 0 1 1 0 00-.39.77 3.66 3.66 0 00.2 1.23 2.64 2.64 0 00.23.61.77.77 0 00.5.37.75.75 0 00.77-.58 2.75 2.75 0 000-1.07zm-6.84 18.53l1.69.74c.52.56 1.44 1.4 1.44 2.17a15.65 15.65 0 008.32-5.5 32.31 32.31 0 01-11.45 2.59z"/><path class="cls-1" d="M207.58 45.06a5.8 5.8 0 004.24-1.83 5.36 5.36 0 001.4-4.17 4.77 4.77 0 00-2.52-4 3.57 3.57 0 00-4.38 1.06"/><path class="cls-2" d="M207.58 45.06a5.45 5.45 0 002.26-.59 5.6 5.6 0 001.84-1.38 5.68 5.68 0 001.11-2 5.54 5.54 0 00.16-2.26 4.54 4.54 0 00-2.43-3.59 3.54 3.54 0 00-4.2.92 3.57 3.57 0 014.35-1.28 4.87 4.87 0 012.77 3.89 5.87 5.87 0 01-.22 2.46 5.69 5.69 0 01-1.22 2.12 5.57 5.57 0 01-4.42 1.71z"/><path class="cls-1" d="M210.14 37.17a4.82 4.82 0 00-3.57 3.18 3.13 3.13 0 01.66-.94 1 1 0 011.08-.21c.48.22.59.86.58 1.39a2.72 2.72 0 01-.2 1.1 1.2 1.2 0 01-.8.72"/><path d="M210.14 37.17a5.11 5.11 0 00-3.34 3.26l-.45-.19a2.39 2.39 0 011.11-1.24 1.08 1.08 0 011.51.71 3.41 3.41 0 010 1.62 1.38 1.38 0 01-1.06 1.09 1.32 1.32 0 00.8-1.15 3.06 3.06 0 00-.11-1.42.64.64 0 00-.93-.4 2.09 2.09 0 00-.86 1l-.45-.19a4.57 4.57 0 013.78-3.09z"/><path class="cls-2" d="M192.81 39.37c0 .06-.57.05-1.34-.41a3.94 3.94 0 01-1.12-1.06 3.57 3.57 0 01-.44-.82l-.09-.24a.52.52 0 01.05-.44.66.66 0 01.7-.18l1.87.29-.28.24a10.05 10.05 0 01.18-2.76 10.44 10.44 0 01.3 2.75.22.22 0 01-.22.24l-1.88-.25a.65.65 0 00-.19 0c0-.06-.05-.08 0-.07h.08a.18.18 0 000 .05l.06.19a3.82 3.82 0 00.36.73 4.32 4.32 0 00.94 1c.53.52 1.04.66 1.02.74zm2.65-11.97a1 1 0 01.63-.31 2.8 2.8 0 01.71 0h.06a2.23 2.23 0 01.36.05 3.1 3.1 0 01.4.13 2.13 2.13 0 01.42.23h.07a1.49 1.49 0 01.56.7.82.82 0 01-.19.87.92.92 0 01-.54.13h-.79a3.49 3.49 0 01-1-.08 1.37 1.37 0 01-.83-.65 1.07 1.07 0 01.14-1.07zm-10.18-.08a1.09 1.09 0 01.63-.32 2.82 2.82 0 01.71 0h.06a2.25 2.25 0 01.36.06 2.16 2.16 0 01.41.13 3 3 0 01.42.24h.12a1.47 1.47 0 01.56.69.82.82 0 01-.2.88.89.89 0 01-.53.12h-.8a3.53 3.53 0 01-1-.09 1.33 1.33 0 01-.82-.64 1.06 1.06 0 01.08-1.07zm11.47 15.57c0-.08.55-.09 1-.72a2.57 2.57 0 00-.37-2.72l-.45-.67h.41a5.55 5.55 0 01-3 2.15 20.22 20.22 0 002.6-2.46.25.25 0 01.36 0c.15.21.32.44.47.69a3.81 3.81 0 01.64 1.72 2.05 2.05 0 01-.42 1.49 1.46 1.46 0 01-.88.54c-.22.09-.36.01-.36-.02z"/><path class="cls-1" d="M182.78 27l-.7-.79c-1.22-1.17-3-1.17-4.61-3.22-2.25-2.78-.56-5.07-.56-5.07 2-3.2 6.62-3.21 10-2-1.81-.81-5.3-1.61-4.66-3.62.57-2.74 6-2.59 11.16-.59-3-1.51-2.79-3.81-.45-3.23l11.51 4a13.35 13.35 0 014.29 2.08c2.86 2.35 4 6.67 4.16 10.37a25.24 25.24 0 01-1.31 9 9.85 9.85 0 01-.58 1.44 4.31 4.31 0 00-1.1-.45 5 5 0 00-2.54.34 2.47 2.47 0 00-1.28 1.28 9.35 9.35 0 01-.76 2 1.7 1.7 0 01-1.77.87 1.6 1.6 0 01-1-1.21 4.63 4.63 0 010-1.66q.45-3.74.92-7.47c-5.28-1.21-8.48-5-9.34-10.29l-.07-.05a2.13 2.13 0 01-2 2.2 19.21 19.21 0 01-4.1-.33s-1.33 3.86-4.71 2.39z"/><path class="cls-2" d="M182.78 27c.05-.54.14-1.68.34-4.07a.11.11 0 01.1-.08 3.08 3.08 0 002.53.06 4.29 4.29 0 002-2.41.14.14 0 01.16-.09 19.38 19.38 0 003.44.31 2.54 2.54 0 001.72-.39 2.33 2.33 0 00.75-1.67.17.17 0 01.19-.16h.14a.16.16 0 01.08.12 13.26 13.26 0 002.68 6.2 11.6 11.6 0 006.54 3.91.22.22 0 01.17.24c-.18 1.47-.37 3-.55 4.52l-.29 2.35a6 6 0 000 2.3 1.4 1.4 0 00.62.82 1 1 0 001 0 2.78 2.78 0 001.24-1.89l.19-.61a2 2 0 01.34-.63 3.16 3.16 0 011.08-.88 4.85 4.85 0 012.71-.37 4.88 4.88 0 011.18.48l-.38.1a22.66 22.66 0 00.71-16.15 10.06 10.06 0 00-3.22-4.58 19.73 19.73 0 00-5.13-2.22L192.84 8.7a1.6 1.6 0 00-1.21.06c-.31.17-.3.61-.13 1a4.36 4.36 0 001.95 1.74.24.24 0 01.11.32.25.25 0 01-.3.12 21.23 21.23 0 00-6.06-1.45 9 9 0 00-2.9.2 3.27 3.27 0 00-1.23.59 2 2 0 00-.67 1.07 1.29 1.29 0 00.36 1.33 4.82 4.82 0 001.3.86c1 .46 1.94.77 2.88 1.18a.2.2 0 01.1.26.19.19 0 01-.24.1 11.47 11.47 0 00-5.69-.63A5.77 5.77 0 00177 18a3.86 3.86 0 00-.22 3.67 6.44 6.44 0 002 2.42 13.28 13.28 0 002.06 1.19 4.82 4.82 0 011.28.89l.68.82-.73-.77a5.34 5.34 0 00-1.3-.82 12.77 12.77 0 01-2.1-1.16 6.6 6.6 0 01-2.07-2.47 4.12 4.12 0 01.21-3.94 6.09 6.09 0 014.28-2.7 11.85 11.85 0 015.88.61l-.15.36c-.91-.4-1.91-.71-2.9-1.18a5 5 0 01-1.42-.93 1.73 1.73 0 01-.46-1.75 2.5 2.5 0 01.81-1.32 3.73 3.73 0 011.39-.67 9.18 9.18 0 013.05-.23 21.64 21.64 0 016.2 1.45l-.19.44a4.89 4.89 0 01-2.18-2 1.61 1.61 0 01-.16-.82 1 1 0 01.46-.78 2 2 0 011.6-.13l10.29 3.53a20.71 20.71 0 015.27 2.29 10.51 10.51 0 013.42 4.88 21 21 0 011.17 8.53 25.55 25.55 0 01-.63 4.13q-.24 1-.54 2c-.18.65-.49 1.28-.73 1.91a.24.24 0 01-.3.14 4.19 4.19 0 00-1-.41 4.58 4.58 0 00-2.41.32 2.73 2.73 0 00-.91.74 1.44 1.44 0 00-.26.49l-.19.6a5.81 5.81 0 01-.5 1.22 2.35 2.35 0 01-1 .95 1.49 1.49 0 01-1.42 0 1.89 1.89 0 01-.84-1.09 6.15 6.15 0 010-2.5l.29-2.35q.3-2.33.57-4.53l.17.24a12 12 0 01-6.75-4.08 13.5 13.5 0 01-2.71-6.4l.08.12h-.07l.26-.13a2.65 2.65 0 01-.89 1.9 2.84 2.84 0 01-1.92.44 19 19 0 01-3.5-.36l.16-.09a4.6 4.6 0 01-2.17 2.54 3.29 3.29 0 01-2.7-.11l.12-.07c-.17 1.31-.29 2.32-.38 3l-.1.76c-.11.11-.12.21-.12.21z"/><path class="cls-3" d="M197.52 65.77c-.26 0 1.35 3.19 1.35 3.19l3.3-.27.7-3.4-1.87-2.81-2 .38z"/><path class="cls-4" d="M176.66 127.78c-2.19 0-5.2 66.18-4.93 77.39s-.63 70-.63 70h26.6l3.3-88.29 4.86 88.06h30.42l-6.68-111s2.07-9 1.21-15.86-4.65-20.23-4.65-20.23z"/><path class="cls-1" d="M205.86 274.91a1 1 0 01-.05-.29l-.07-.88c-.05-.81-.13-1.95-.22-3.39-.18-3-.42-7.22-.73-12.45-.57-10.56-1.34-25.07-2.2-41.11s-1.53-30.56-2.06-41.11c-.23-5.23-.42-9.48-.56-12.46q-.08-2.17-.12-3.39v-.88a.86.86 0 010-.3 1.4 1.4 0 010 .3l.07.88c.05.81.13 1.94.22 3.38.18 3 .43 7.22.73 12.46.57 10.55 1.35 25.06 2.21 41.1s1.52 30.56 2 41.11c.23 5.23.43 9.48.56 12.46.05 1.44.1 2.58.13 3.39v.88c.1.2.09.3.09.3zm-9.52-124.81a14.84 14.84 0 01-.54-2.9c-.24-1.81-.49-4.31-.62-7.09s-.11-5.3 0-7.12a14 14 0 01.26-2.93 17.74 17.74 0 01.11 2.94c0 1.81.06 4.32.18 7.08s.32 5.27.47 7.08a19.67 19.67 0 01.14 2.94zm2.24-19.48s.12-.12.42-.15a1.77 1.77 0 011.16.36 2 2 0 01.88 1.62 2 2 0 01-3.57 1.14 2.09 2.09 0 01-.23-1.83 1.8 1.8 0 01.75-1c.25-.15.42-.15.43-.13s-.6.3-.82 1.2a1.71 1.71 0 00.26 1.43 1.45 1.45 0 001.61.4 1.46 1.46 0 001.09-1.27 1.77 1.77 0 00-.62-1.31 2.47 2.47 0 00-1.36-.46zm13.29 6a11.35 11.35 0 01-.58-3.34 11.26 11.26 0 01-.06-3.4 11.56 11.56 0 01.58 3.35 11.17 11.17 0 01.06 3.39zm3.24-.78a8.05 8.05 0 01-.56-2.79 8 8 0 01-.05-2.85 7.67 7.67 0 01.57 2.79 7.64 7.64 0 01.04 2.85zm-32.76.47a10.41 10.41 0 01-.71-3.18 10.53 10.53 0 01-.2-3.25 10.41 10.41 0 01.71 3.18 9.84 9.84 0 01.2 3.25zm3.32.16a12 12 0 01-.5-6.12 12.53 12.53 0 01.37 3.05 12 12 0 01.13 3.07zm-2.89 129.18a1.11 1.11 0 010-.26l-.05-.75c0-.66-.1-1.64-.12-2.9-.07-2.52-.08-6.17.2-10.67a132 132 0 011.91-15.71c.53-2.94 1.2-6 2-9.14.39-1.57.9-3.16 1.26-4.76a9.18 9.18 0 000-4.88 3.23 3.23 0 00-1.53-1.74 6.91 6.91 0 00-2.36-.53 5.67 5.67 0 01-2.46-.77 6 6 0 01-1.81-1.79 8.69 8.69 0 01-1.36-4.64 30 30 0 01.31-4.6c.72-5.92 1.68-11.2 2.64-15.61s1.92-7.92 2.62-10.34c.36-1.21.65-2.14.86-2.77l.24-.72a1 1 0 01.09-.23.7.7 0 010 .25l-.19.73c-.19.68-.44 1.61-.76 2.8-.64 2.43-1.55 6-2.46 10.36s-1.84 9.68-2.52 15.59a29.42 29.42 0 00-.3 4.52 8.35 8.35 0 001.29 4.38 5.61 5.61 0 001.66 1.63 5.21 5.21 0 002.25.7 7.09 7.09 0 012.54.58 3.73 3.73 0 011.77 2 9.56 9.56 0 01.05 5.17c-.38 1.66-.88 3.2-1.27 4.78-.82 3.13-1.5 6.17-2 9.09a137.54 137.54 0 00-2 15.66c-.33 4.48-.37 8.12-.36 10.64v3.65a1.33 1.33 0 01-.14.28zM110.76 48.27a1.41 1.41 0 012.29-.13 70 70 0 007.71 7.77c4.31 3.58 2.94 7.71 2.94 7.71l-6.58 8s-12.45-4.7-17.32-10.31c-3.45-4-5.62-6.3-5.18-7.18s2.24-.52 2.24-.52a2.66 2.66 0 01.14-2.7c1-1.11 3.2 1.09 3.2 1.09s-.64-2.37 1.32-2.52 4.57 4 8.76 5.83 3.66-.44 3.66-.44-2.83-2.76-3.35-5a2.09 2.09 0 01.17-1.6z"/><path class="cls-2" d="M110.76 48.27a2.35 2.35 0 000 1.93 13.66 13.66 0 003.24 4.57v.06a1.11 1.11 0 01-.22.95 1.35 1.35 0 01-.94.37 5.91 5.91 0 01-2-.4 14.09 14.09 0 01-3.85-2.14c-1.27-.93-2.45-2.11-3.8-3.15a2.43 2.43 0 00-2.23-.67c-.77.26-.86 1.32-.65 2.14a.23.23 0 01-.17.28.25.25 0 01-.22 0 6.54 6.54 0 00-1.21-.94 1.8 1.8 0 00-1.34-.35A1.38 1.38 0 0096.8 52a3.06 3.06 0 00.28 1.51.24.24 0 01-.12.33.26.26 0 01-.15 0 2.89 2.89 0 00-1.66.11.48.48 0 00-.32.5 2.27 2.27 0 00.31.78 25.34 25.34 0 002.37 3.05c.86 1 1.74 2 2.65 3a22 22 0 003 2.7 65.51 65.51 0 0014 7.37l-.27.07 6.6-8v.07A6.64 6.64 0 00123 59a9.74 9.74 0 00-2.7-3.26 58.46 58.46 0 01-5-5c-.66-.72-1.24-1.38-1.73-2-.25-.28-.47-.57-.68-.78a1.4 1.4 0 00-.73-.36 1.34 1.34 0 00-1.16.4 3.55 3.55 0 00-.28.29.83.83 0 01.24-.34 1.4 1.4 0 011.14-.36 1.53 1.53 0 01.82.36c.25.24.46.5.72.78.5.57 1.09 1.21 1.76 1.92a65.46 65.46 0 005.09 4.85 10.06 10.06 0 012.83 3.35 7 7 0 01.55 4.86v.06l-6.56 8a.25.25 0 01-.28.08 65.09 65.09 0 01-14.13-7.41 21.83 21.83 0 01-3.13-2.78c-.91-1-1.78-2-2.65-3a25.14 25.14 0 01-2.42-3.13 2.86 2.86 0 01-.37-1 1 1 0 01.59-1 3.34 3.34 0 012-.14l-.27.35a3.33 3.33 0 01-.33-1.74 2 2 0 01.29-.89 1.42 1.42 0 01.73-.65 2.28 2.28 0 011.73.4 8.12 8.12 0 011.3 1l-.39.22a3.3 3.3 0 010-1.5 1.56 1.56 0 011-1.17 2.07 2.07 0 011.47 0 5.44 5.44 0 011.17.71c1.39 1.09 2.54 2.26 3.78 3.19a14.15 14.15 0 003.73 2.13 5.76 5.76 0 001.84.4 1 1 0 00.73-.26.83.83 0 00.16-.69v.07a13.22 13.22 0 01-3.22-4.72 2.61 2.61 0 01-.09-1.51 1.17 1.17 0 01.21-.46z"/><path class="cls-1" d="M96.86 53.63l8.43 7.08s10.63-1.66 13.27 6.57"/><path class="cls-2" d="M118.56 67.28a15.34 15.34 0 00-2.12-3.28 9.64 9.64 0 00-3.51-2.26 15.85 15.85 0 00-5.09-.9 18.61 18.61 0 00-2.51.12.22.22 0 01-.19-.06c-2.4-2-4.48-3.82-6-5.12a21.57 21.57 0 01-2.31-2.15 20.83 20.83 0 012.52 1.9c1.54 1.23 3.67 3 6.08 5h-.21a18.54 18.54 0 012.6-.15 15.52 15.52 0 015.25 1 9.56 9.56 0 013.61 2.45l.57.69a5.71 5.71 0 01.42.68 4.87 4.87 0 01.55 1.14 4.65 4.65 0 01.34.94z"/><path class="cls-1" d="M100.2 52c.44.27 7.66 5.91 7.66 5.91"/><path class="cls-2" d="M107.86 57.91a23.22 23.22 0 01-4-2.74A23.57 23.57 0 01100.2 52a22.71 22.71 0 014 2.74 23.12 23.12 0 013.66 3.17z"/><path class="cls-1" d="M256.53 82.89L233.3 65.33a14.61 14.61 0 00-5.46-2.72l-17.42-4.5-2.23-3.06-8.19 6.06-7.83-4.77-4.17 3.75-17.07 4.4-21.35 13.36-24.12-18.22-11.12 13.63 30.38 24.3a10.66 10.66 0 0012.31.72l17.37-10.85 2.5 16.31-1.45 20.08c-.1 1.34-.14 4 1.21 4l49.3.34c1.45 0 .79-3.09.63-4.53l-2.5-23.6 2.2-11.89 19.4 9.31-9.33 9.87-5.89 5.23 7.61 12.45 6.12-3.81L261.61 105c6.78-7.59 2.88-15.72-5.08-22.11z"/><path class="cls-2" d="M256.53 82.89s.45.35 1.32 1.07a29.18 29.18 0 013.49 3.57 16.54 16.54 0 013.66 7.21 10.86 10.86 0 01-.3 5.18 14.15 14.15 0 01-3 5.12l-17.38 16.29-6.11 3.82a.16.16 0 01-.23 0l-7.63-12.52a.19.19 0 010-.23l5.88-5.23 9.32-9.88.06.33-19.41-9.31.31-.15c-.68 3.68-1.43 7.75-2.19 11.9V100c.81 7.55 1.65 15.4 2.51 23.49a25.14 25.14 0 01.3 3.07 2.2 2.2 0 01-.53 1.62 1.36 1.36 0 01-.89.21h-7.02l-12.74-.08-26.43-.18H177a1.64 1.64 0 01-1-.21 2.44 2.44 0 01-.78-1.69 10.14 10.14 0 01-.07-1.74l.48-6.84q.5-6.87 1-13.84v.06c-.77-5.06-1.6-10.47-2.44-15.93v-.38l.39.19-15.95 10a14.74 14.74 0 01-4.19 2.11 10.93 10.93 0 01-9-1.37c-1.29-.9-2.41-1.89-3.61-2.82l-27.65-22.22a.25.25 0 010-.35l11.13-13.62a.25.25 0 01.34 0l24.11 18.23h-.26l21.31-13.34h.06l17.08-4.39h-.08l4.26-3.74a.18.18 0 01.22 0l7.78 4.76h-.2l8.16-6.06a.16.16 0 01.23 0l2.23 3.06-.09-.06L222 61l5.28 1.37a15.25 15.25 0 014.74 2c5.31 3.91 9.72 7.34 13.36 10.08l8.28 6.32 2.13 1.63.71.57-.74-.53-2.15-1.6-8.34-6.25c-3.65-2.71-8.1-6.15-13.39-10a14.85 14.85 0 00-4.66-1.91L222 61.23l-11.58-3a.15.15 0 01-.09-.06l-2.24-3.06h.23l-8.14 6.07a.17.17 0 01-.2 0l-7.83-4.76h.23c-1.36 1.19-2.73 2.41-4.25 3.75a.12.12 0 01-.08 0l-17.11 4.53h.06L149.7 78a.21.21 0 01-.25 0l-24.13-18.18h.33l-11.12 13.6v-.36l27.6 22.07c1.19.92 2.36 2 3.57 2.79a10.31 10.31 0 004.15 1.59 10.46 10.46 0 004.45-.28 14.81 14.81 0 004.06-2.06l15.94-10a.26.26 0 01.36.09.3.3 0 010 .1l.06.37c.83 5.46 1.66 10.87 2.44 15.93v.06q-.51 7-1 13.84c-.16 2.28-.32 4.56-.49 6.82a10 10 0 00.07 1.65 2 2 0 00.56 1.34 1.08 1.08 0 00.67.11h2.53l26.44.19 12.74.09 6.25.05h.77a.9.9 0 00.59-.1 1.8 1.8 0 00.34-1.24 24.09 24.09 0 00-.29-3c-.85-8.09-1.68-15.94-2.48-23.49v.02c.77-4.14 1.53-8.21 2.21-11.89a.23.23 0 01.26-.18l19.4 9.33a.2.2 0 01.09.27l-9.34 9.86-5.9 5.23v-.24l7.64 12.62-.23-.06 6.13-3.8 17.44-16.23a14 14 0 003-5 10.7 10.7 0 00.31-5.08 16.44 16.44 0 00-3.56-7.18 31.25 31.25 0 00-3.43-3.6z"/><path class="cls-3" d="M198.5 68.52l-4.7 46.73 7.29 8.5 5.87-8.53-4.83-46.84-3.63.14z"/><path class="cls-2" d="M171.1 70.88a3 3 0 01.32.91c.17.59.38 1.46.64 2.53.49 2.16 1.09 5.15 1.65 8.47 1.15 6.64 1.74 12.08 1.5 12.1A4.74 4.74 0 01175 94l-.42-2.58c-.39-2.31-.88-5.24-1.42-8.49s-1.1-6.31-1.51-8.48a31.33 31.33 0 01-.55-3.57zm39.37-12.04a10.36 10.36 0 01-1.47 1.82c-.94 1.08-2.26 2.54-3.74 4.14l-.56.59a2.13 2.13 0 01-.68.55.94.94 0 01-1-.12 3 3 0 01-.56-.56 23.33 23.33 0 01-1.36-2.14c-.7-1.24-1.17-2-1.13-2a6.67 6.67 0 011.45 1.82c.4.58.85 1.32 1.42 2 .29.34.63.69.93.51a5.91 5.91 0 001.06-1c1.49-1.59 2.85-3 3.86-4a10.21 10.21 0 011.78-1.61z"/><path class="cls-2" d="M188.42 60.25a11.91 11.91 0 012 1.44c1.19.94 2.82 2.26 4.6 3.75.44.37.87.78 1.27.8s.64-.43.9-.86l1.42-2.26a11.61 11.61 0 011.43-2 11.67 11.67 0 01-1.11 2.2l-1.33 2.32a5.14 5.14 0 01-.44.68 1.12 1.12 0 01-.89.44 3 3 0 01-1.58-.91c-1.78-1.49-3.37-2.86-4.51-3.87a11.54 11.54 0 01-1.76-1.73z"/><circle cx="126.01" cy="65.39" r="1.04"/><path class="cls-2" d="M229.6 69a26.79 26.79 0 01-.46 3.57c-.38 2.33-.85 5.29-1.38 8.56s-1.13 6.36-1.59 8.53c-.24 1.08-.44 2-.59 2.56a3.58 3.58 0 01-.3.93 28 28 0 01.52-3.56c.4-2.33.89-5.28 1.44-8.55s1.1-6.36 1.54-8.54c.21-1.09.4-2 .54-2.57a3.47 3.47 0 01.28-.93zm5.25 43.53a1 1 0 11-2.08 0 1 1 0 112.08 0z"/><path d="M132.25 64.76a11.36 11.36 0 01-1.37 2.17c-.92 1.3-2.24 3-3.73 4.95l-3.85 4.85a14.53 14.53 0 01-1.67 2 11.16 11.16 0 011.37-2.22c.91-1.3 2.23-3.05 3.73-5l3.84-4.85a14.53 14.53 0 011.68-1.9z"/><path class="cls-2" d="M244.24 118.93a45.34 45.34 0 01-4.24-5.43 47.81 47.81 0 01-3.88-5.74 45.77 45.77 0 014.3 5.43 47 47 0 013.82 5.74z"/><path class="cls-1" d="M237.47 124.09a49.79 49.79 0 01-6.83 4 4 4 0 01-5.24-1.86l-1-1.88s-5 4.88-7.05 3.13a2.39 2.39 0 01.14-2.59s-2.62.45-1.71-2.4c0 0-2.26-.89-1-3.45a2.5 2.5 0 01-.69-3.62c1.47-2.25 6.59-5.46 8.44-5.93 1.6-.4 2.51.81 3.83 2.49a23.09 23.09 0 012.12 4.16l3.05-1.7z"/><path class="cls-2" d="M237.47 124.09s-.17-.24-.46-.68l-1.22-1.91-4.39-7 .25.07-3 1.71a.2.2 0 01-.28-.08 19.41 19.41 0 00-2.23-4.24 10.74 10.74 0 00-1.73-1.89A2.14 2.14 0 00222 110a24 24 0 00-4.9 2.94 14.9 14.9 0 00-2.22 2 2.88 2.88 0 00-1 2.55 2.63 2.63 0 001 1.4.24.24 0 01.08.32 2.75 2.75 0 00-.28 1.82 2.06 2.06 0 001.15 1.28.25.25 0 01.13.31 2.09 2.09 0 000 1.63 1.48 1.48 0 001.43.44.25.25 0 01.28.21.22.22 0 01-.06.19 2.12 2.12 0 00-.12 2.32v-.06a2 2 0 001.84.17 8.09 8.09 0 001.83-.87 20.78 20.78 0 003.07-2.4.22.22 0 01.3 0l.8 1.6a4.34 4.34 0 00.93 1.34 3.85 3.85 0 002.72 1.09 5.84 5.84 0 002.53-.84c.76-.38 1.44-.74 2.06-1.09 1.23-.69 2.17-1.27 2.8-1.67l.73-.45c.17-.11.25-.15.26-.14s-.07.08-.22.19l-.69.51c-.62.43-1.54 1-2.76 1.77-.61.37-1.29.75-2.05 1.15a6 6 0 01-2.65.91 4.2 4.2 0 01-3-1.14 4.72 4.72 0 01-1-1.44l-.83-1.59.34.06a20.62 20.62 0 01-3.12 2.48 8.72 8.72 0 01-1.94.94 2.43 2.43 0 01-2.29-.26.34.34 0 01-.06-.06 2.61 2.61 0 01.15-2.88l.24.4a2.75 2.75 0 01-1 0 1.53 1.53 0 01-.92-.61 2.54 2.54 0 010-2.07l.15.32a2.54 2.54 0 01-1.47-1.63 3.12 3.12 0 01.32-2.17l.09.33a3.13 3.13 0 01-1.25-1.71 2.64 2.64 0 01.16-1.69 5.28 5.28 0 01.91-1.34 16.89 16.89 0 012.3-2 24.26 24.26 0 015-3 3.33 3.33 0 011.44-.31 2.47 2.47 0 011.38.53 10.41 10.41 0 011.81 2 19.76 19.76 0 012.25 4.37l-.29-.1 3.06-1.68a.19.19 0 01.25.06l4.33 7.07 1.13 1.93a3.73 3.73 0 01.34.66z"/><path class="cls-2" d="M226.91 122.47a2.9 2.9 0 00-.86-1.43 2.5 2.5 0 00-1.66-.57 4.26 4.26 0 00-2.12.64 11.15 11.15 0 00-1.83 1.43c-.55.49-1.07.9-1.5 1.25a15.28 15.28 0 01-1.41 1.1c-.07 0 .35-.63 1.17-1.38.4-.39.89-.81 1.41-1.33a11.1 11.1 0 011.89-1.52 4.48 4.48 0 012.4-.67 2.76 2.76 0 011.89.77A2.16 2.16 0 01227 122c0 .3-.06.47-.09.47zm-.24-4.29c-.06 0-.18-.29-.58-.63A3 3 0 00224 117a2.6 2.6 0 00-1.38.39 10.45 10.45 0 00-1.47 1c-1.38 1.19-2.6 2.29-3.55 3a18.87 18.87 0 01-1.54 1.19c-.06 0 .39-.67 1.3-1.47s2.07-2 3.47-3.18a10.17 10.17 0 011.56-1 2.91 2.91 0 011.68-.38H224a3.06 3.06 0 012.28.82c.39.44.42.81.39.81zm-3.04-4.53a6.23 6.23 0 00-1.5.19 9 9 0 00-3.09 1.92c-1.08 1-2.14 1.82-2.88 2.42a8.17 8.17 0 01-1.25.95c-.06 0 .31-.55 1-1.22s1.69-1.55 2.79-2.55a7.88 7.88 0 013.34-1.88c1.01-.21 1.63.12 1.59.17z"/><path class="cls-1" d="M133.08 150.69l-17.43 2.92s-3-16.18-4.58-22.72a15.87 15.87 0 00-9.23-11.1L94 117.43l-14.67.25s-15.42 1-19 8.65c-2.78 6-9.9 19-13.11 28.33-1.82 5.28-.13 12.47 2.91 13.3h12.22l.08 3.72 35.74.26 5.22-15.39a12.67 12.67 0 0013.72 9.33l19.17-2.26z"/><path class="cls-2" d="M133.08 150.69s.08.27.23.83.36 1.4.64 2.47c.56 2.22 1.38 5.45 2.44 9.6a.11.11 0 01-.08.13l-15.95 1.93a48.46 48.46 0 01-4.87.47 12.87 12.87 0 01-12.28-9.53h.39c-1.62 4.8-3.36 10-5.2 15.4a.2.2 0 01-.21.15l-35.74-.23a.25.25 0 01-.25-.25c0-1.16 0-2.43-.08-3.72l.25.25H50a4.55 4.55 0 01-2.49-2.42 12.42 12.42 0 01-1.08-3.32 16.3 16.3 0 01.24-7.08 82.26 82.26 0 013.43-8.72c1.26-2.82 2.59-5.58 3.92-8.29l4-8c.65-1.32 1.31-2.63 1.92-3.94a10.3 10.3 0 012.71-3.48 21 21 0 017.62-3.83 43.77 43.77 0 018.1-1.59 17.16 17.16 0 012-.09h2l3.92-.06 7.61-.12h.1l7.87 2.36a.22.22 0 01.14.14l-.12-.14a15.83 15.83 0 018.07 7.77 21.83 21.83 0 011.62 5c.38 1.66.72 3.28 1 4.84 1.27 6.28 2.29 11.78 3.12 16.38l-.15-.1 13-2.11 3.34-.53c.75-.12 1.12-.16 1.12-.16l-1.15.22-3.36.59-12.9 2.24a.14.14 0 01-.15-.11c-.86-4.59-1.9-10.08-3.21-16.34-.33-1.57-.67-3.18-1.06-4.83a21.53 21.53 0 00-1.61-4.93 15.4 15.4 0 00-7.88-7.54.25.25 0 01-.13-.14l.15.14-7.88-2.34H94l-7.6.14-3.92.07h-2a16.64 16.64 0 00-2 .1 43.54 43.54 0 00-8 1.58 20.68 20.68 0 00-7.48 3.77 9.61 9.61 0 00-2.58 3.31c-.62 1.33-1.27 2.64-1.93 4l-4 8c-1.33 2.71-2.65 5.46-3.9 8.27a84 84 0 00-3.41 8.65 15.85 15.85 0 00-.23 6.85 11.85 11.85 0 001 3.18 4.1 4.1 0 002.17 2.15h12.23a.26.26 0 01.26.25l.07 3.72-.25-.25 35.74.29-.22.16 5.24-15.39a.21.21 0 01.26-.13.24.24 0 01.14.14 12.74 12.74 0 002.63 5 13.07 13.07 0 004.3 3.21 12.72 12.72 0 005 1.09 46.61 46.61 0 004.82-.45l16-1.83-.09.14c-1-4.14-1.77-7.36-2.3-9.56l-.6-2.52c-.21-.6-.27-.91-.27-.91z"/><path class="cls-5" d="M81.91 162.16l6.47-2.57A7.34 7.34 0 0096 158.4a19.12 19.12 0 002.83 2.49c1 .49 2-1 2-1a4 4 0 001.71.78 1 1 0 001-.55 2.9 2.9 0 001.48.27.87.87 0 00.69-.77 1.44 1.44 0 001.51.21 1.24 1.24 0 00.48-1.37s-5.9-4.49-7.73-5.66-12.37 0-12.37 0l-6.25.36z"/><path class="cls-2" d="M62 167.44s.13 0 .38-.05h1.12l4.17-.09 14.53-.2-.25.26c-.2-3.18-.43-6.65-.67-10.27l-.22-4.09.26.24H64.75a.15.15 0 01-.09 0 10 10 0 00-6.88-.73 15.66 15.66 0 00-2.44.93 3 3 0 01.57-.38 9 9 0 011.82-.75 9.9 9.9 0 017.1.59h-.08l16.57-.16a.26.26 0 01.26.24c.09 1.34.17 2.7.26 4.1.23 3.62.44 7.09.64 10.27a.24.24 0 01-.22.26H62.42z"/><path class="cls-2" d="M64.75 153a9.94 9.94 0 01.75-2.53c.55-1.53 1.42-3.61 2.43-5.88l2.56-5.8a19 19 0 011.09-2.4 10.24 10.24 0 01-.74 2.54c-.56 1.53-1.43 3.61-2.44 5.87l-2.56 5.81a18.35 18.35 0 01-1.09 2.39z"/><path class="cls-2" d="M70.75 138.66l-3.13 14.36h-2.87l6-14.36zm24.36 16.26a2.09 2.09 0 011.19-.07 2.43 2.43 0 011.23.53 6.73 6.73 0 011.08 1.17 15.63 15.63 0 012.18 3.3 14.71 14.71 0 01-2.59-3 3.77 3.77 0 00-2-1.66c-.63-.19-1.09-.19-1.09-.27zm2.96-1.52c0-.07.57-.18 1.32.28a7.25 7.25 0 012.06 2.49 19.18 19.18 0 012.18 3.93 19.62 19.62 0 01-2.62-3.66 9.3 9.3 0 00-1.83-2.44 5.91 5.91 0 00-1.11-.6z"/><path d="M102.32 155.88c.12-.09.85.73 1.75 1.72s1.65 1.79 1.55 1.9-1-.53-1.93-1.55a4.93 4.93 0 01-1.37-2.07z"/><path class="cls-2" d="M103.78 154.27c-.08 0 .28-1.1.7-2.87a35.42 35.42 0 00.93-7 36.06 36.06 0 00-.51-7.06c-.32-1.79-.61-2.89-.53-2.91a2.59 2.59 0 01.31.74 21.17 21.17 0 01.58 2.1 29.24 29.24 0 01.67 7.15 29.65 29.65 0 01-1.09 7.09 18 18 0 01-.71 2.06 2.36 2.36 0 01-.35.7zm-31.27-20.98c-.08 0 .3-.91.47-2.41a9.42 9.42 0 00-.08-2.62 6.38 6.38 0 00-1.27-2.85 8.48 8.48 0 00-5.09-2.55 6.65 6.65 0 00-2.4.22 3.24 3.24 0 012.43-.58 8.2 8.2 0 015.43 2.57 6.43 6.43 0 011.35 3.11 8.64 8.64 0 010 2.75 8.47 8.47 0 01-.51 1.77c-.17.4-.3.61-.33.59zm33.8-8.44a6.23 6.23 0 01-.89 2.37c-.62 1.24-1.23 2.2-1.36 2.13A6.27 6.27 0 01105 127a6.4 6.4 0 011.31-2.15z"/><path class="cls-1" d="M114.19 257.67l3.48-9.81 15.2 5.4-5.73 14.14-11.41.25-2.59-7z"/><path class="cls-2" d="M114.19 257.67a4.44 4.44 0 01-.22.78l-.72 2.21v-.08c.66 1.74 1.56 4.12 2.66 7l-.18-.13 11.4-.3-.22.15 3.7-9.16 2-5 .15.34-15.15-5.48.25-.12c-1.1 3-2 5.4-2.64 7.15-.3.8-.55 1.44-.74 1.94a3 3 0 01-.29.66 3.45 3.45 0 01.19-.7l.64-2c.61-1.77 1.45-4.21 2.47-7.21a.2.2 0 01.24-.12L133 253a.27.27 0 01.16.33c-.65 1.62-1.33 3.28-2 5l-3.73 9.16a.25.25 0 01-.23.15l-11.4.2a.2.2 0 01-.19-.13c-1-2.9-1.89-5.3-2.52-7v-.08c.35-.9.62-1.62.83-2.17a4.25 4.25 0 01.27-.79z"/><path class="cls-2" d="M104.1 276.53c2.11-6.25 4.35-9.84 6.46-16.08.39-1.13.94-2.43 2.1-2.73a2.7 2.7 0 012.72 1.36 30.15 30.15 0 011.38 2.93 7.22 7.22 0 0012.61.36l12 14.6s4.9-.08 6.68 1.62a5.55 5.55 0 012 3.84c.34 2.64-.63 3.31-.63 3.31l-19.06.06z"/><path class="cls-1" d="M149.56 285.47a5.86 5.86 0 00.52-1.46L132 283.5c-14.17-5.13-12.46-5.17-26.64-10.3l-.43 1.11c-.27.7-.53 1.44-.79 2.22l26.25 9.27 19.06-.06s-.21.35.11-.27z"/><path class="cls-2" d="M149.56 285.47v.12l-.07.15v.09c-.09-.07 0 0 0 0v-.06c-1.79.08-8.86.16-19.06.23h-.06L104 276.77a.25.25 0 01-.16-.32l.74-2.05.49-1.29a.26.26 0 01.33-.15c5.06 1.82 9.88 3.7 14.3 5.58s8.6 3.41 12.32 4.77H132c8.94.29 15.45.53 18.11.66a.06.06 0 01.06.06 4.06 4.06 0 01-.58 1.44A8.89 8.89 0 00150 284l.06.08c-2.66 0-9.17-.15-18.11-.37h-.07c-3.73-1.33-7.92-2.87-12.36-4.71s-9.24-3.72-14.3-5.54l.34-.15-.5 1.28-.73 2-.16-.33 26.24 9.32h-.07c10.2 0 17.27.05 19.06.11v.06l.06-.09.08-.14c-.01-.02.02-.06.02-.05z"/><path class="cls-2" d="M110.98 226.49l6.33 59.34h-3.16l-9.38-59.34h6.21z"/><path class="cls-1" d="M101.92 257.17v10.08l-2.77 6.74-6.3.66-5.93-6.66v-9.63l15-1.19z"/><path class="cls-2" d="M101.92 257.17a9 9 0 01-1.13.14l-3.08.31-10.77 1 .21-.22v9.63l-.07-.17c.85.95 1.74 1.94 2.64 3l3.29 3.7-.22-.08 6.3-.65-.2.15c1-2.47 2-4.73 2.82-6.73v.08c0-3 .08-5.5.1-7.3v-2.75a3.25 3.25 0 010 .67v2c0 1.83.07 4.35.11 7.43a.17.17 0 010 .07c-.82 2-1.74 4.28-2.74 6.76a.28.28 0 01-.2.15l-6.29.68a.25.25 0 01-.22-.09l-3.3-3.7-2.63-3a.28.28 0 01-.07-.17v-9.63a.24.24 0 01.21-.23l10.94-.75 3-.18z"/><path class="cls-2" d="M84.14 282.49c-.13-6.22.71-10.13.57-16.35 0-1.13.05-2.46 1-3.1a2.59 2.59 0 012.86.33c.82.61 1.41 1.47 2.17 2.16A6.81 6.81 0 00102 261.8l21.32 12.64a11.72 11.72 0 013.9 3.17 4 4 0 01.07 4.72z"/><path class="cls-1" d="M85.36 282.49h41.9a3.83 3.83 0 01-.71 3.31H84.16v-3.34z"/><path class="cls-2" d="M85.36 282.49h-1.19l.06-.05v3.34l-.11-.11c7.27-.09 23.18-.17 41.62-.18h.77l-.19.09a3.59 3.59 0 00.65-3.07l.25.19-29.77-.08-8.89-.08h-2.4a7.91 7.91 0 01-.84-.05 4.22 4.22 0 01.84-.05l2.4-.05 8.89-.08 29.77-.08a.26.26 0 01.25.19 4.12 4.12 0 01-.76 3.55.28.28 0 01-.19.09h-.78c-18.43 0-34.35 0-41.62-.11a.11.11 0 01-.11-.11c0-1.43.06-2.55.07-3.36a.06.06 0 01.06-.05h.89z"/><rect class="cls-1" x="50.55" y="209.56" width="67.07" height="16.93" rx="5.07"/><path class="cls-2" d="M112.55 226.49a6.53 6.53 0 001.58-.31 5 5 0 003.11-3.12 9.78 9.78 0 00.26-3.29v-4a10.64 10.64 0 00-.12-2.18 5 5 0 00-1-2 5.09 5.09 0 00-1.91-1.44 5.84 5.84 0 00-2.52-.38l-56.32.08a4.82 4.82 0 00-4.81 5v6a6.4 6.4 0 00.16 1.87 4.81 4.81 0 002.11 2.87 4.93 4.93 0 001.68.65 9.18 9.18 0 001.83.08h7.32l25.32.06 17.06.08 4.65.05h1.2a1.85 1.85 0 01.41 0h-6.26l-17.06.09H56.59a10.46 10.46 0 01-1.92-.09 5.23 5.23 0 01-1.85-.71 5.32 5.32 0 01-2.35-3.17 7.64 7.64 0 01-.18-2v-6a5.39 5.39 0 011.48-3.63 5.3 5.3 0 013.85-1.65l56.32.08a6.11 6.11 0 012.65.42 5.23 5.23 0 013.07 3.73 11.61 11.61 0 01.11 2.25v4a10 10 0 01-.32 3.35 5.09 5.09 0 01-3.27 3.16 4.6 4.6 0 01-1.19.22z"/><path class="cls-1" d="M27.74 171.06L13.79 285.65h4.65l17.69-114.59h-8.39z"/><path class="cls-2" d="M27.74 171.05h8.4a.09.09 0 01.09.09c-2.55 17.05-9.23 61-17.23 112.44l-.32 2.11a.26.26 0 01-.26.22h-4.63a.26.26 0 01-.26-.26c3.94-32 7.47-60.67 10-81.36l3.05-24.36c.36-2.85.64-5.06.84-6.58l.22-1.7c.05-.38.09-.57.09-.57v.61l-.2 1.73c-.17 1.54-.43 3.77-.77 6.65-.68 5.77-1.67 14.11-2.89 24.44-2.49 20.65-5.93 49.26-9.78 81.2l-.26-.29h4.65l-.26.22.33-2.11C26.45 232.06 33.3 188.13 36 171l.1.11-6.25-.05h-1.6c-.32.01-.51-.01-.51-.01z"/><path class="cls-1" d="M175.16 171.06l14.06 114.77h-4.63l-17.83-114.77h8.4z"/><path class="cls-2" d="M175.16 171.05h-2.15l-6.25.05.09-.11c2.76 17.1 9.67 61.1 17.67 112.63.11.73.23 1.45.33 2.12l-.26-.22h4.62l-.25.3c-3.88-32-7.35-60.66-9.86-81.34-1.23-10.35-2.23-18.7-2.92-24.48-.33-2.88-.59-5.11-.77-6.65l-.2-1.74c0-.39-.05-.61-.05-.61l.09.57.22 1.7c.2 1.53.48 3.74.85 6.59.72 5.77 1.77 14.09 3.07 24.41 2.56 20.72 6.12 49.43 10.08 81.48a.25.25 0 01-.22.29h-4.66a.25.25 0 01-.25-.22c-.11-.67-.22-1.39-.33-2.12-8-51.53-14.78-95.55-17.34-112.68a.1.1 0 01.08-.11h7.88z"/><path class="cls-2" d="M0 163.4h192.91v7.66H0z"/><path class="cls-4" d="M82.87 172a139.82 139.82 0 0115.4-.42l-.51 4.18c15.1.72 36.69 2.34 42.84 5.85 9.52 5.45 10.22 15.39 8 22.76s-14.36 56.42-14.36 56.42l-22.43-5.73 9.89-47.48-51.55.32z"/><path class="cls-4" d="M62.49 171.65a46.28 46.28 0 00-8.61 14.81c-2.33 6.46-1.19 16.14 2.2 19.14a17.2 17.2 0 0011.42 4.24h11.63L81.52 259l27.42-.39s.73-63.18 0-71.49C107.83 174.36 84.27 172 84.27 172z"/><path class="cls-1" d="M65.19 175.21a1.34 1.34 0 01.32 0h.92l3.57-.11 13-.1h9a23.6 23.6 0 0110.13 2 13.29 13.29 0 014.51 3.38 12.27 12.27 0 011.56 2.49 13.29 13.29 0 01.89 2.85c.09.49.14 1 .2 1.5l.08 1.51c.06 1 .07 2 .1 3q0 3.06.09 6.21c.12 16.75-.06 31.91-.18 42.88-.09 5.46-.16 9.89-.2 13l-.09 3.53v.92a1.3 1.3 0 010 .31 1.92 1.92 0 010-.31v-17.46c0-11 .14-26.13 0-42.88 0-2.09-.06-4.16-.09-6.19 0-1 0-2-.09-3l-.08-1.49c-.06-.48-.11-1-.2-1.44a12.09 12.09 0 00-.84-2.74 11.21 11.21 0 00-1.49-2.38 12.67 12.67 0 00-4.32-3.26 23.06 23.06 0 00-9.92-2h-9l-13-.08-3.53-.05h-.92zm64.81 22.9c.1.12-2.11 2-4.39 4.77s-3.8 5.23-3.93 5.15a5.94 5.94 0 01.84-1.73 28.44 28.44 0 012.69-3.76 29.23 29.23 0 013.24-3.3 5.85 5.85 0 011.55-1.13z"/><path class="cls-1" d="M132.17 203.07a31.49 31.49 0 01-5.14 2.58 32.16 32.16 0 01-5.35 2.11 32 32 0 015.14-2.59 32.23 32.23 0 015.35-2.1zm-53.51-6.39c.15 0 .13 3.13.35 7s.58 6.93.43 7a7.42 7.42 0 01-.45-2c-.19-1.25-.39-3-.5-4.92a49.36 49.36 0 010-4.94 7.25 7.25 0 01.17-2.14zm79.65-33.28v-5h31.78v5s-32.16-.4-31.78 0z"/><path class="cls-2" d="M158.31 163.4c-.05-.2 3.44-.3 9.13-.34s13.66 0 22.65.08l-.26.26v-5l.26.26c-13.67 0-25.59-.05-31.78-.13l.12-.13c0 1.65-.06 2.92-.08 3.75v1.23a3 3 0 010-.36v-1l-.08-3.64a.12.12 0 01.12-.13c6.19-.08 18.11-.13 31.78-.13a.26.26 0 01.26.26v5a.26.26 0 01-.26.25l-22.65-.25-6.71-.05H159a2.3 2.3 0 00-.69.07z"/><path class="cls-2" d="M183.12 160.27c0 .15-5.58.26-12.46.26s-12.46-.11-12.46-.26 5.58-.26 12.46-.26 12.46.12 12.46.26zm6.88 1.14c0 .14-5.58.26-12.46.26s-12.46-.12-12.46-.26 5.58-.26 12.46-.26 12.46.11 12.46.26z"/><path class="cls-1" d="M156.53 157.2h31.42v1.22h-31.42z"/><path class="cls-2" d="M188 158.42a1.45 1.45 0 010-.32v-.9l.07.06c-3.6.11-16.32.2-31.42.2l.26-.26v1.21l-.26-.26c8.69 0 16.5.05 22.17.11l6.74.08h2.52a5.15 5.15 0 01-.6 0h-1.79l-6.67.08c-5.67.06-13.57.11-22.37.11a.26.26 0 01-.26-.26v-1.21l.26-.27c15.1 0 27.82.09 31.42.2a.06.06 0 01.06.06v.94c-.13.35-.13.44-.13.43zM58.98 226.49l-6.33 59.34h3.17l9.37-59.34h-6.21z"/><path class="cls-2" d="M159.23 155.66h27.47v1.54h-27.47zm0-7.88h27.47v1.54h-27.47z"/><path class="cls-1" d="M160.14 149.39h26.51v6.27h-26.51z"/><path class="cls-2" d="M186.66 155.66a3.6 3.6 0 010-.45v-1.24c0-1.12-.05-2.66-.09-4.58l.16.15c-5.9.07-15.58.11-26.52.11l.26-.26v6.25l-.26-.26 18.84.12 5.6.07h2.08a2.83 2.83 0 01-.49 0h-1.47l-5.54.07c-4.74 0-11.41.11-19 .12a.26.26 0 01-.25-.26v-6.25c.12-.11-.26.26.26-.26 10.94 0 20.62 0 26.52.11a.15.15 0 01.15.14c0 2-.07 3.52-.09 4.67v1.21a1.7 1.7 0 01-.16.54z"/><path class="cls-2" d="M186.72 157.2h-.91a20.67 20.67 0 000-9.42h.88a.81.81 0 01.81.81v7.82a.79.79 0 01-.78.79zm-2.61-5.45c0 .14-5.34.26-11.93.26s-11.93-.12-11.93-.26 5.34-.26 11.93-.26 11.93.11 11.93.26z"/><path class="cls-2" d="M186.29 153.52c0 .14-5.88.26-13.14.26s-13.14-.12-13.14-.26 5.88-.26 13.14-.26 13.14.12 13.14.26z"/><path class="cls-3" d="M151.6 136.34L144 163.4H91.63a3.75 3.75 0 013.67-3.76l12.76-.27 6.41-25.16a3.14 3.14 0 013.09-2.36l31.07.5a3.14 3.14 0 012.97 3.99z"/><path class="cls-1" d="M133.65 149a2.82 2.82 0 11-2.82-2.82 2.81 2.81 0 012.82 2.82z"/><path class="cls-5" d="M155.04 139.54h37.43v8.77h-37.43z"/><path d="M166.27 148.26a6.14 6.14 0 11-.32-9m6.85 9a6.13 6.13 0 11-.31-9m6.85 9a6.13 6.13 0 11-.31-9m6.85 9a6.13 6.13 0 11-.31-9m6.85 9a6.14 6.14 0 11-.32-9" fill="none" stroke="#10100c" stroke-linecap="round" stroke-linejoin="round" stroke-width=".5"/><path class="cls-2" d="M189.51 145.16c0 .14-7.57.26-16.89.26s-16.9-.12-16.9-.26 7.56-.26 16.9-.26 16.89.1 16.89.26zm2.93-2.16c0 .14-7.56.26-16.89.26s-16.89-.12-16.89-.26 7.56-.26 16.89-.26 16.89.15 16.89.26z"/><path class="cls-4" d="M76.68 103.19l-6.17-9.48a5.6 5.6 0 10-8.16 7.14c-2.07-.88-4.64.81-5 3a5.5 5.5 0 003 5.54c1.58.84 3.84.87 4.89-.58a5.12 5.12 0 004.82 3.19 6.57 6.57 0 005.18-2.93 9.31 9.31 0 001.44-5.88z"/><path class="cls-4" d="M105.39 91.33c.08-2-1.87-4-3.84-3.54a12.29 12.29 0 002.63-2.56 4.16 4.16 0 00.67-3.5 4.89 4.89 0 00-3.32-2.73 11.34 11.34 0 00-7.58.21A2.34 2.34 0 0092.33 77a8.38 8.38 0 00-3.11-.59 12.42 12.42 0 00-4.37.68 5.8 5.8 0 00-3.74 3.36c-6.91 1.3-10.37 8-11.21 12.32l27.66 7.81a8.79 8.79 0 003.43-.28 3.4 3.4 0 002.3-2.38 2.14 2.14 0 00-1.71-2.55 4.59 4.59 0 003.81-4.04z"/><path class="cls-2" d="M98.8 86.2a10.4 10.4 0 00-8.59-4.9L88.1 83a9.92 9.92 0 018.08 4.2 17.39 17.39 0 013 8.86 10.38 10.38 0 00-.38-9.86z"/><path class="cls-5" d="M100.28 92.11v-.08a11.22 11.22 0 00-8.83-8.47l-1.89-.36-11.2 9-.36 12.26.7 13v.3c4.84 5.63 9.35 6.81 12.07 5.58a5.12 5.12 0 003-5.32 7.56 7.56 0 01.31-3.73c.82-1.92 4.24-2.13 5.66-6.93 1.16-3.88.54-15.25.54-15.25z"/><path class="cls-2" d="M98.53 92.28a1 1 0 00-.55-.35 2.3 2.3 0 00-.64-.09H97a1.8 1.8 0 00-.39.08 3.56 3.56 0 00-.41.17h-.06a1.25 1.25 0 00-.59.57.74.74 0 00.08.82.9.9 0 00.48.17l.72.09a3.38 3.38 0 001 0 1.24 1.24 0 00.83-.5 1 1 0 00-.13-.96zm-9-2.66a1 1 0 00-.65-.06 2.23 2.23 0 00-.61.22h-.06l-.28.16a1.54 1.54 0 00-.31.25 2.28 2.28 0 00-.29.33 1.36 1.36 0 00-.26.79.63.63 0 001 .62l.69-.26a3.18 3.18 0 00.85-.41 1.24 1.24 0 00.5-.82 1 1 0 00-.58-.82zM88 97.89a2.23 2.23 0 01.16-1.2h.07a1 1 0 01.85-.08.9.9 0 01.43.67 3.31 3.31 0 01-.06 1.13 2.26 2.26 0 01-.16.58.61.61 0 01-1.18-.07 2.47 2.47 0 01-.11-1.03zm8.24 0a2.13 2.13 0 01.15-1.2h.07a1 1 0 01.85-.08.9.9 0 01.43.67 3.31 3.31 0 01-.06 1.13 2.26 2.26 0 01-.16.58.72.72 0 01-.42.4.7.7 0 01-.75-.47 2.16 2.16 0 01-.11-1.03zm.23 14.24l-2 1.6c-.42.57-.58.7-.51 1.41-3.24-.43-5.88-.77-8.26-3 3.86 1.09 6.49 1.52 10.77-.01zM92 102.25c0-.08.43-.26 1-.78a3.89 3.89 0 001-1.74c0-.12 0-.31.06-.18s0 0-.16.06l-1.71.4a.23.23 0 01-.28-.17 9.29 9.29 0 010-2.58 8.57 8.57 0 01.44 2.54l-.3-.21 1.71-.45a.63.63 0 01.68.11.52.52 0 01.09.42l-.06.23a3.83 3.83 0 01-.33.8 3.58 3.58 0 01-1 1.09c-.64.46-1.14.52-1.14.46z"/><path class="cls-4" d="M78.84 99.89c6.63-4.18 10.42-11.26 11.53-18.54C80.5 78.06 72.49 84.4 70 91.9s1.8 15.37 8.72 19.19"/><path class="cls-5" d="M81.11 107.28a6.62 6.62 0 01-4.56-1.28 5 5 0 01-1.67-3.7 4.4 4.4 0 012-3.86A3.27 3.27 0 0181 99"/><path class="cls-2" d="M80.08 104.84s-.17.07-.43 0a1.54 1.54 0 01-.73-.93 2.49 2.49 0 010-1.77 1 1 0 011.07-.5 1.64 1.64 0 011 .64 4.83 4.83 0 01.32.45l-.45.25a4.54 4.54 0 00-2.12-2.2c-.72-.36-1.23-.42-1.22-.5a2.11 2.11 0 011.36.18 4.42 4.42 0 012.45 2.31.26.26 0 01-.45.25c-.09-.14-.19-.28-.29-.41-.37-.53-1-.64-1.26-.23a2.26 2.26 0 00-.06 1.43 1.55 1.55 0 00.81 1.03zm10.11-1.73s.48-.22 1.19.11a2.14 2.14 0 011.09 2.64.86.86 0 01-.92.48 3.2 3.2 0 01-.75-.28c-.43-.19-.81-.38-1.13-.54-.63-.32-1-.55-1-.61s.46 0 1.13.27l1.17.44c.45.19.88.36 1 0a1.73 1.73 0 00-.08-1.26 1.86 1.86 0 00-.72-.83c-.52-.35-.98-.34-.98-.42z"/><path class="cls-1" d="M74.55 106.45a4.21 4.21 0 01-1.83-.88 9 9 0 01-3.1-3.81 9.16 9.16 0 01-.62-4.88 4.37 4.37 0 01.6-1.88c.09 0-.16.76-.25 2a9.94 9.94 0 00.75 4.63 9.76 9.76 0 002.84 3.72c.94.65 1.64 1.02 1.61 1.1z"/><path class="cls-2" d="M27.74 171.06l-.33 2.74 7.6 4.58 1.12-7.32h-8.39zm139.02-.36l.66 4.12 8.44 2.73-.56-7.39-8.54.54z"/><path class="cls-3" d="M196.86 66.53l1.86 2 3.49.16.89-2.82-2.92-5.01-3.32 5.67z"/><path class="cls-1" d="M130.23 11.38c3.23-5.85 8.81-8.38 15.29-10 4.93-1.25 10.28-1.83 15 0 6.74 2.63 11 10.18 10.32 17.38a21.2 21.2 0 01-12.29 17l-.58.12a19.35 19.35 0 008.74 8.69 11.57 11.57 0 01-13.4-7c-6.76 2.67-14.58.93-20.19-3.71s-7.89-13.4-2.89-22.48z"/><path class="cls-2" d="M130.23 11.38a.79.79 0 01-.08.21l-.27.58-.46 1-.53 1.35a19.11 19.11 0 00-1.1 9.26A15.73 15.73 0 00130 30a15.52 15.52 0 002.34 2.93 21.35 21.35 0 0011.39 5.5 18.6 18.6 0 009.52-1 .22.22 0 01.3.13 11.37 11.37 0 0013.1 6.85v.47a19.55 19.55 0 01-8.89-8.88.27.27 0 01.12-.35h.06l.58-.12h-.05l.84-.4a21 21 0 0010-11.08 18.51 18.51 0 001.35-7.05 17.2 17.2 0 00-1.51-6.74 16.15 16.15 0 00-9-8.74 21.93 21.93 0 00-11.1-.7 44.43 44.43 0 00-9 2.46 21.29 21.29 0 00-6 3.54 16.72 16.72 0 00-3 3.29c-.3.41-.48.76-.63 1a2.19 2.19 0 01-.23.33A14 14 0 01131 10a15.72 15.72 0 012.92-3.38A21.4 21.4 0 01140 3a43.74 43.74 0 019-2.55 22.3 22.3 0 0111.31.65 16.6 16.6 0 019.24 9 17.69 17.69 0 011.61 6.9 19 19 0 01-1.36 7.28 21.49 21.49 0 01-10.26 11.37l-.87.41-.58.12.19-.37a19 19 0 008.61 8.58.25.25 0 01-.05.48 11.83 11.83 0 01-13.68-7.18l.31.14a19 19 0 01-9.76 1 21.89 21.89 0 01-8.35-3.15 21.58 21.58 0 01-3.24-2.53 15.78 15.78 0 01-2.36-3 16 16 0 01-2.21-6.36 18.9 18.9 0 011.25-9.36l.57-1.34.49-.94.31-.57z"/><text transform="translate(142.95 26.88)" font-size="24" font-family="MyriadPro-Regular,Myriad Pro">$</text></g></g></svg>