<svg xmlns="http://www.w3.org/2000/svg" viewBox="0 0 86.36 92.08"><defs><style>.cls-1{fill:#129a63}</style></defs><g id="Capa_2" data-name="Capa 2"><g id="Peronsaje"><path class="cls-1" d="M38.77 83.13a2.13 2.13 0 00-1.32-2.83 2.4 2.4 0 00-3 1.27 2.12 2.12 0 001.3 2.83 2.43 2.43 0 003.02-1.27z"/><path class="cls-1" d="M1.13 75.36l40.28 14.49 3.72-8.91a1.46 1.46 0 00-1.82.77l-3.09 7.35-37-13.34 3.1-7.34a1.29 1.29 0 00-.71-1.66h-.18l-.57-.19-.08.16zM7.52 66a2.26 2.26 0 00.37.22L43 78.86l.87.33c10.85 3.9 14.11-2.25 14.26-2.51v-.08l5.34-12.5c1.53-3.66 0-7.63-3.35-8.84a6.39 6.39 0 00-4 0l12.26-28.93a7 7 0 00-3.88-9.21 7.79 7.79 0 00-10.09 4L47.89 36.4a5.75 5.75 0 00-3-2.47 6.87 6.87 0 00-6.63 1.33 5.87 5.87 0 00-3.54-3.57 6.88 6.88 0 00-6.86 1.52 5.88 5.88 0 00-3.47-3.4c-3.38-1.22-7.38.76-8.91 4.42L4.81 59.43C3.38 62.85 7.33 65.89 7.52 66zm-.1-5.66l10.67-25.16c1-2.3 3.34-3.59 5.26-2.9s2.73 3.14 1.78 5.43v.1l-.68 1.6a1.29 1.29 0 00.78 1.7 1.49 1.49 0 001.77-.78l.66-1.6v-.07l.68-1.6c.95-2.29 3.32-3.59 5.26-2.9s2.73 3.14 1.78 5.43l-.21.44-.51 1.23a1.32 1.32 0 00.86 1.74 1.46 1.46 0 001.83-.78l.51-1.22.21-.47.51-1.23c1-2.3 3.32-3.59 5.27-2.9s2.73 3.13 1.75 5.43l-.7 1.7a1.25 1.25 0 00.79 1.69 1.43 1.43 0 001.82-.75l.72-1.7L57 22.17a4.94 4.94 0 016-2.77 4.35 4.35 0 012.9 5.83L51.25 59.68l-.67 1.64a1.27 1.27 0 00.79 1.7 1.43 1.43 0 001.82-.75l.7-1.65c1-2.29 3.32-3.59 5.26-2.89s2.73 3.13 1.75 5.42L55.61 75.6c-.24.37-2.79 4.25-11.47.83L9.15 63.83c-.53-.44-2.3-2.09-1.73-3.48z"/><path class="cls-1" d="M.89 77.73L40.49 92a1.48 1.48 0 001.85-.75L46 82.64a1.28 1.28 0 00-.82-1.7 1.46 1.46 0 00-1.82.77l-3.09 7.35-37-13.34 3.1-7.34a1.29 1.29 0 00-.71-1.66h-.18a1.43 1.43 0 00-.65 0 1.38 1.38 0 00-1.08.82L.11 76a1.26 1.26 0 00.78 1.73zm50.58-59.06a1.46 1.46 0 01-1.83.76l-10.76-3.87a1.28 1.28 0 01-.79-1.7 1.46 1.46 0 011.83-.77L50.68 17a1.29 1.29 0 01.79 1.67zm5.27-5.91a1.36 1.36 0 01-.78-.69l-4.59-9.91a1.31 1.31 0 01.74-1.75 1.44 1.44 0 011.89.67L58.55 11a1.31 1.31 0 01-.73 1.75 1.55 1.55 0 01-1.08.01zm9.98-.06a1.28 1.28 0 01-.79-1.7L70.19.85A1.46 1.46 0 0172 .09a1.28 1.28 0 01.79 1.7l-4.24 10.15a1.46 1.46 0 01-1.83.76zm8.09 6.55a1.49 1.49 0 01-1.08 0 1.35 1.35 0 01-.77-.7 1.3 1.3 0 01.73-1.74l10.62-4.41a1.44 1.44 0 011.86.67 1.31 1.31 0 01-.74 1.75zm-1.92 7.69a1.44 1.44 0 011.82-.76l10.76 3.87a1.28 1.28 0 01.79 1.7 1.46 1.46 0 01-1.83.77l-10.75-3.88a1.27 1.27 0 01-.79-1.7z"/><path class="cls-1" d="M35.71 84.4a2.43 2.43 0 003.06-1.27 2.13 2.13 0 00-1.32-2.83 2.4 2.4 0 00-3 1.27 2.12 2.12 0 001.26 2.83z"/></g></g></svg>