<svg xmlns="http://www.w3.org/2000/svg" viewBox="0 0 278.12 406.86"><defs><style>.cls-1{isolation:isolate;}.cls-2{opacity:0.47;mix-blend-mode:multiply;}.cls-3{fill:#214a77;}.cls-4{fill:#11416a;}.cls-5{fill:#ffa283;}.cls-6{fill:#ff8d71;}.cls-7{fill:#fff;}.cls-8{fill:#592b20;}.cls-9{fill:#f57d64;}.cls-10{fill:#9b473a;}.cls-11{fill:#cf2323;}.cls-12{fill:#9d3320;}.cls-13{fill:#8c281b;}.cls-14{fill:#b23f31;}.cls-15{fill:#f2efef;}.cls-16{fill:#3c639b;}.cls-17{fill:#003554;}.cls-18{fill:#2a708d;}.cls-19{fill:#a60c0c;}.cls-20{fill:none;}</style></defs><title>hombre_1</title><g class="cls-1"><g id="Capa_2" data-name="Capa 2"><g id="Peronsaje"><g class="cls-2"><polygon points="106.94 304.77 110.36 406.86 146.13 406.86 138.56 320.86 156.93 320.99 156.94 406.86 194.16 406.86 190.8 299.27 106.94 304.77"/><path d="M190.8,274.92H105.91l.33,28.14c.23,10.26,9.12,18.52,20,18.88l44.56.28c11.11-.29,20-9,20-19.5Z"/><path d="M178,275.66c-1.05,4.18-2.5,15.74,12,20.46,0,0,1.71-12.9.33-20.46Z"/><path d="M190.24,299.46c-7.15-2.09-12-5.61-14.52-10.44s-2-10.27-1.24-13.36h-1.34a20.71,20.71,0,0,0,1.42,13.87c2.38,4.65,6.8,8.14,13.17,10.39.68.25,1.4.48,2.13.69a.66.66,0,0,0,.81-.4A.6.6,0,0,0,190.24,299.46Z"/><path d="M150.47,319.79a.65.65,0,0,1-.62-.43c-5.28-16.23-4.22-42.7-4.21-43a.64.64,0,0,1,.67-.58.63.63,0,0,1,.62.63c0,.26-1.06,26.53,4.15,42.57a.59.59,0,0,1-.42.75Z"/><path d="M146.19,310.27h0a9.64,9.64,0,0,1-8.38-6.69c-2.15-6.18-1.45-25.5-1.42-26.31a.63.63,0,0,1,.67-.59.6.6,0,0,1,.61.62c0,.2-.72,19.91,1.37,25.88A8.26,8.26,0,0,0,146.2,309a.64.64,0,0,1,.63.64A.65.65,0,0,1,146.19,310.27Z"/><path d="M107.69,275.66l.48,16.93s6.86-7.16,7.29-16.17Z"/><path d="M108.82,296.73a.67.67,0,0,1-.55-.28.58.58,0,0,1,.19-.83c9.37-5.69,10.21-19.1,10.22-19.23a.64.64,0,0,1,.67-.58.62.62,0,0,1,.61.64c0,.57-.88,14.15-10.8,20.18A.61.61,0,0,1,108.82,296.73Z"/><rect x="139.67" y="104.11" width="26.38" height="30.88"/><path d="M166,117.14v-13H139.67v20.42C144.17,125.08,159.61,126.14,166,117.14Z"/><path d="M136.07,132a89.79,89.79,0,0,1,34,0s-10.56,36.37-24.39,36.37S136.07,132,136.07,132Z"/><path d="M105.07,273l6.84-4.61c-1.66-2.59-3.29-5.08-4.86-7.46,0,1.15,0,2.34,0,3.56-.77,1-1.78,3.66-2.49,4.76S104.36,271.71,105.07,273Z"/><path d="M180.13,73.87s8.35-44.22-33.36-44.22c-31.31,0-29.45,35.64-29.45,35.64,0,11.31-.26,30.52,7.51,42,3.28,4.83,7.38,9.32,14.38,10,30.18,2.88,37.48-20.78,38.54-25.23C179.08,86.47,180.13,73.87,180.13,73.87Z"/><path d="M134,79.45c0,2.61-1.61,4.6-3.53,4.44S127,81.5,127,78.9s1.6-4.6,3.53-4.44S134,76.85,134,79.45Z"/><path d="M160.43,78.68c0,2.61-1.61,4.6-3.54,4.44s-3.47-2.39-3.44-5,1.61-4.6,3.54-4.44S160.45,76.08,160.43,78.68Z"/><path d="M143.34,94.24c-5.86,2.37-9-.38-9.25-3.16a4,4,0,0,1,2.6-4.08c3.57-1.39,6.09-6.88,6.11-6.94h0A11.77,11.77,0,0,1,137,88.7c-1,.57-1.59,1.17-1.52,2.06.14,1.55,2.38,3.87,7.84,3.48Z"/><path d="M122.05,68.94l-.26-2.82a29.77,29.77,0,0,1,13.52-1.72l.07,4.42C129.56,67.44,122.14,68.93,122.05,68.94Z"/><path d="M165.23,69.28c-4.91-2.1-13.68-1.13-13.76-1.15l.3-4.1c.35.06,8.3-.88,13.89,2.72Z"/><path d="M153.52,98.32s-11,2.25-21.27,0c0,0,1.81,9.43,10.64,9.41C151.2,107.71,153.42,100.14,153.52,98.32Z"/><path d="M142.65,102.82c-6.78,0-8.77-2.81-9.62-4.34,7.95,1.57,14.37.63,19.95-.06C152.38,100.12,149,102.82,142.65,102.82Z"/><path d="M180.45,73.5s-3.39.75-4.57,10.29,1.2,10.34,1.91,10.66c0,0,8.65,2.42,11.65-11.89C191.93,70.68,180.45,73.5,180.45,73.5Z"/><path d="M178.05,87.88s6.3-3.15,1.38-6.32c0,0,1.66-7.21,5.87-5.58s.84,8.39,0,9.79C183.55,88.69,178.05,92.27,178.05,87.88Z"/><path d="M117.3,71.14s-1.41-15-1.2-22.09c0,0-14.79-10.29-5.14-23.16a20.13,20.13,0,0,0,.59,3.92S113.32,18.23,123,14.53c0,0,.78,6.43,5.61,7.72s47-9.87,52.23,15.44c0,0,8,4.18,6.57,15.54s-3.19,20-3.19,20-6.38-.32-8,5.91c0,0-2.52-13.47-3.59-15.21-3-4.88-3.81-11-4.08-18.55,0,0-35.85,8.9-49,4.39A142.41,142.41,0,0,0,117.3,71.14Z"/><path d="M117.3,71.14a142.41,142.41,0,0,1,2.27-21.34l-3.47-.75C115.89,56.13,117.3,71.14,117.3,71.14Z"/><path d="M168.53,45.41c.27,7.55,1.08,13.67,4.08,18.55,1.07,1.74,3.59,15.21,3.59,15.21,1.61-6.23,8-5.91,8-5.91s.63-3.19,1.46-8.24C170.6,61.77,168.53,45.41,168.53,45.41Z"/><path d="M123,14.53c-9.65,3.7-11.42,15.28-11.42,15.28a20.13,20.13,0,0,1-.59-3.92,16.24,16.24,0,0,0-2.9,5.89c6.15,3.76,22,10.57,49.32,4.19,0,0-26.22-4.54-29.63-14C123.66,20.2,123,14.53,123,14.53Z"/><path d="M226.69,196.71l3.46,3.67,4.19,4.43,5.67,6,7.25,7.67a10.1,10.1,0,0,0,14,1.68l.09-.06A10.12,10.12,0,0,0,263.19,206l-12.54-14.68-4.31-5-3-3.44A149.86,149.86,0,0,1,226.69,196.71Z"/><path d="M261.87,219.6a10.11,10.11,0,0,0,.48-14.17,10.3,10.3,0,0,0-14.3-.82h0s-15.3,9.93-53.89,49.7l8.74,9.5s41.27-25,58.44-43.74C261.46,219.94,261.87,219.6,261.87,219.6Z"/><path d="M67.65,182.19h.11c.84.74,1.69,1.48,2.54,2.18A148.24,148.24,0,0,0,88,197c1.89,1.15,3.12,1.84,3.35,2,3.68-4.61,7.22-9.06,10.46-13.14.74,6.82,1.73,14.54,3,23.27,2.9,19.73,2.45,28.95,2.21,51.82h0c1.57,2.38,3.2,4.87,4.86,7.46L105.07,273a15.37,15.37,0,0,0,1.75,2.43s25.72,11.57,85.34.2c2.09-2.37,3.18-4.27,3.39-5.78.12-.81-1.28-3.16-2.58-5.15-.4-11.87-.64-31.47,1.27-47.68,1.72-14.56,6.36-28.86,9.3-39.79,5.5,5.83,12.66,13.38,20.33,21.48.27-.18,1.28-.86,2.82-2a149.86,149.86,0,0,0,16.7-13.84c.9-.88,1.8-1.78,2.69-2.7h.13L217.81,147a14.86,14.86,0,0,0-8.82-6.08s-22.22-6.19-40.51-10.17l-23.32,23c-4.67-9.16-7.24-23-7.24-23-8.32,1.31-29.37,6.24-37.67,10.12a15.31,15.31,0,0,0-7.54,6.38Z"/><path d="M67.65,182.19h.11c1.83,1.58,3.67,3.15,5.58,4.62s3.85,2.92,5.83,4.3,4,2.73,6,4,4.12,2.51,6.21,3.72l-.12,0,10.42-13.18.2-.26,0,.33,2.48,18.69.62,4.67c.22,1.56.46,3.11.66,4.67.43,3.12.78,6.24,1,9.38.56,6.27.73,12.57.73,18.85s-.1,12.58-.15,18.86l0-.16,4.87,7.46.16.24-.25.17-6.84,4.61.1-.41a14.35,14.35,0,0,0,1.71,2.38l-.1-.08a57.38,57.38,0,0,0,10.31,2.84c1.75.36,3.52.61,5.29.9s3.55.48,5.34.64a162.08,162.08,0,0,0,21.48.64c7.17-.14,14.32-.83,21.45-1.6,3.56-.46,7.11-1,10.66-1.47l10.6-1.85-.23.13a23.28,23.28,0,0,0,1.91-2.44,9.32,9.32,0,0,0,1.3-2.7c0-.12.05-.24.07-.36a.46.46,0,0,0,0-.26,3.46,3.46,0,0,0-.2-.66,14.37,14.37,0,0,0-.68-1.36c-.5-.91-1.05-1.79-1.63-2.66l-.06-.1v-.12c-.26-7.39-.36-14.78-.26-22.18s.41-14.79,1.12-22.16a148.47,148.47,0,0,1,3.82-21.87c1.74-7.2,3.88-14.28,5.83-21.39l.23-.84.6.63,20.3,21.5-.59-.07c2-1.36,4-2.73,5.87-4.19s3.82-2.93,5.67-4.46,3.68-3.11,5.45-4.74,3.48-3.32,5.17-5l.13-.13h.31l-.32.7-28.36-33.18h0l0,0a15.32,15.32,0,0,0-1.71-2.06,13.9,13.9,0,0,0-2-1.71,14.76,14.76,0,0,0-2.32-1.32,12.38,12.38,0,0,0-2.51-.85h0c-13.42-3.69-26.9-7.19-40.48-10.2l.29-.09-23.34,23-.28.28-.18-.36a71.92,71.92,0,0,1-4.34-11.33c-1.14-3.88-2.12-7.81-2.9-11.78l.3.21c-3.2.52-6.39,1.18-9.57,1.88s-6.34,1.44-9.5,2.24-6.29,1.65-9.4,2.6a79.33,79.33,0,0,0-9.17,3.28h0a15.31,15.31,0,0,0-7.49,6.29h0Zm0,0,24.95-35h0a15.32,15.32,0,0,1,3.27-3.86,15.08,15.08,0,0,1,4.34-2.61h0a79.62,79.62,0,0,1,9.19-3.37q4.66-1.44,9.4-2.66c3.16-.82,6.32-1.59,9.5-2.3s6.38-1.37,9.6-1.9l.25,0,.05.25c.78,3.95,1.76,7.86,2.91,11.72a71.94,71.94,0,0,0,4.32,11.23l-.45-.07,23.29-23.06.13-.12.17,0c13.61,3,27.1,6.46,40.54,10.12h0a12.61,12.61,0,0,1,2.68.9,14.3,14.3,0,0,1,2.44,1.38,14.77,14.77,0,0,1,2.16,1.79,16.9,16.9,0,0,1,1.8,2.16l0,0,28.43,33.12.6.7h-1l.31-.13c-1.71,1.72-3.41,3.45-5.2,5.07s-3.61,3.23-5.47,4.78-3.77,3-5.7,4.5-3.91,2.85-5.9,4.23l-.32.22-.26-.28-20.35-21.46.83-.21c-1.94,7.14-4.07,14.21-5.83,21.37a147.16,147.16,0,0,0-3.85,21.73c-.72,7.34-1,14.71-1.16,22.09s0,14.76.21,22.13l-.06-.21c.57.88,1.13,1.78,1.65,2.72a12.35,12.35,0,0,1,.71,1.46,3.77,3.77,0,0,1,.26.84,1.29,1.29,0,0,1,0,.52c0,.14-.05.28-.08.42a10.07,10.07,0,0,1-1.42,2.95,25.53,25.53,0,0,1-2,2.52l-.09.11-.14,0-10.63,1.83c-3.56.5-7.12,1-10.69,1.46-7.15.76-14.32,1.43-21.52,1.56a165.25,165.25,0,0,1-21.57-.69c-1.79-.17-3.58-.44-5.36-.65s-3.57-.55-5.33-.92a57.45,57.45,0,0,1-10.44-2.91l0,0,0,0a15.1,15.1,0,0,1-1.79-2.49l-.15-.25.24-.16,6.85-4.6-.08.41-4.85-7.46,0-.08v-.08c.07-6.29.19-12.57.2-18.86s-.14-12.56-.69-18.81c-.28-3.12-.59-6.25-1-9.36-.19-1.56-.42-3.11-.63-4.67l-.59-4.68-2.37-18.71.25.08L91.43,199l0,.06-.07,0c-2.08-1.23-4.17-2.44-6.2-3.77s-4-2.66-6-4.05-3.91-2.85-5.81-4.35-3.73-3.06-5.55-4.65h-.11Z"/><path d="M223.87,198.67c1.17,1.25,2.36,2.5,3.55,3.76.84-.62,1.75-1.31,2.73-2.05a158.24,158.24,0,0,0,16.19-14.07c.92-.94,1.82-1.89,2.69-2.85l-2.82-3.29h-.13c-.89.92-1.79,1.82-2.69,2.7a149.86,149.86,0,0,1-16.7,13.84C225.15,197.81,224.14,198.49,223.87,198.67Z"/><path d="M226.54,203.33c1.66,3.24,4.11,3.43,4.11,3.43a36.62,36.62,0,0,0,3.69-1.95c6.46-3.87,12.83-9.91,16.31-13.46,1.69-1.72,2.7-2.85,2.7-2.85,1-2.15-3.92-4.91-4.63-6.68a2.71,2.71,0,0,0-2.51-1.65h-.13c-.89.92-1.79,1.82-2.69,2.7a149.86,149.86,0,0,1-16.7,13.84c-1.54,1.1-2.55,1.78-2.82,2l-.07.05C223,200.13,224.88,200.09,226.54,203.33Z"/><path d="M226.54,203.33a8.26,8.26,0,0,0,.74,1.17,7.51,7.51,0,0,0,.93,1,4.81,4.81,0,0,0,2.44,1.2h0l3.22-1.73a29.76,29.76,0,0,0,3.07-2c2-1.42,3.89-2.95,5.72-4.55s3.61-3.27,5.33-5,3.39-3.5,5-5.28l-.07.11c.28-.61-.23-1.45-.84-2.14s-1.35-1.34-2.07-2a13.73,13.73,0,0,1-1.06-1.09,4.61,4.61,0,0,1-.49-.65l-.21-.4c-.05-.09-.08-.19-.13-.27a2.25,2.25,0,0,0-2.06-1.1l.33-.14c-1.73,1.71-3.43,3.44-5.27,5s-3.68,3.16-5.58,4.67-3.83,3-5.79,4.4-3.94,2.81-6,4.16h0a1.25,1.25,0,0,0-.18.65,1.12,1.12,0,0,0,.31.6c.31.35.66.67,1,1A10,10,0,0,1,226.54,203.33Zm0,0a9.79,9.79,0,0,0-1.63-2.3c-.32-.34-.68-.65-1-1a1.24,1.24,0,0,1-.33-.63,1.28,1.28,0,0,1,.18-.7h0c2-1.38,4-2.76,5.85-4.27s3.78-3,5.61-4.6,3.63-3.19,5.38-4.85,3.45-3.38,5.13-5.11l.13-.13h.2a3.2,3.2,0,0,1,2.89,1.54,3.49,3.49,0,0,1,.19.39l.14.25a4.66,4.66,0,0,0,.41.52c.3.34.65.67,1,1,.71.67,1.44,1.34,2.12,2.12a5.87,5.87,0,0,1,.88,1.34,2.19,2.19,0,0,1,0,1.81l0,.07,0,0c-1.7,1.77-3.37,3.57-5.19,5.21s-3.64,3.28-5.54,4.83-3.87,3-5.91,4.36c-1,.66-2.05,1.33-3.13,1.91l-3.26,1.69h0a4.88,4.88,0,0,1-2.45-1.25,7.12,7.12,0,0,1-.93-1A10,10,0,0,1,226.54,203.33Z"/><path d="M52.88,221.74h0s0,0,0,0A10.2,10.2,0,0,0,55,223.58a10.1,10.1,0,0,0,13.9-2.76l5-6.19L81,205.68l3.54-4.42L88,197A148.24,148.24,0,0,1,70.3,184.37l-3,4.2-3.51,4.85L52,209.73A10.12,10.12,0,0,0,52.88,221.74Z"/><path d="M52.35,221a5.77,5.77,0,0,1,.43.56,1,1,0,0,1,.1.18h0s0,0,0,0c13.25,21.74,49.27,53.15,49.27,53.15l2.9-2,6.84-4.61c-1.66-2.59-3.29-5.08-4.86-7.46h0c-12.49-19-21.68-31.66-27.91-39.66-2.1-2.69-3.86-4.86-5.29-6.59-3.39-4-5-5.61-5-5.61a10.28,10.28,0,0,0-14.18-2A10.12,10.12,0,0,0,52.35,221Z"/><path d="M64.72,186.28c.83.78,1.68,1.54,2.55,2.29a155,155,0,0,0,17.3,12.69c1.19.77,2.3,1.46,3.29,2.07l3.5-4.4c-.23-.13-1.46-.82-3.35-2A148.24,148.24,0,0,1,70.3,184.37c-.85-.7-1.7-1.44-2.54-2.18h-.11Z"/><path d="M61.15,191.06s1,.93,2.61,2.36c3.6,3.17,10.45,8.79,17.27,12.26a35.76,35.76,0,0,0,4.17,1.83s2.42-.38,3.83-3.74,3.29-3.46,2.38-4.81l0,0c-.23-.13-1.46-.82-3.35-2A148.24,148.24,0,0,1,70.3,184.37c-.85-.7-1.7-1.44-2.54-2.18h-.11a2.72,2.72,0,0,0-2.4,1.85C64.68,185.87,60,189,61.15,191.06Z"/><path d="M61.15,191.06c1.87,1.59,3.69,3.19,5.62,4.69s3.87,3,5.87,4.36,4,2.71,6.16,3.89a42,42,0,0,0,6.55,3.08l-.22,0a4.57,4.57,0,0,0,2.1-1.3,7.3,7.3,0,0,0,1.39-2.23A10.49,10.49,0,0,1,90.1,201c.3-.38.65-.74.88-1.06s.21-.36,0-.72l.18.17c-2.14-1.25-4.2-2.46-6.24-3.8s-4-2.67-6-4.08-3.91-2.87-5.8-4.4-3.72-3.12-5.53-4.73l.18.06a2.53,2.53,0,0,0-2.17,1.33l-.3.68a7.14,7.14,0,0,1-.43.64c-.31.4-.65.76-1,1.12a28.92,28.92,0,0,0-2,2.18,5.26,5.26,0,0,0-.75,1.24A1.76,1.76,0,0,0,61.15,191.06Zm0,0a1.77,1.77,0,0,1-.08-1.44,4.88,4.88,0,0,1,.69-1.32c.58-.81,1.25-1.54,1.89-2.28a6.62,6.62,0,0,0,1.54-2.42,2.93,2.93,0,0,1,2.57-1.68h.09l.09.07c1.84,1.56,3.69,3.11,5.62,4.57s3.88,2.87,5.85,4.26,4,2.72,6,4,4.16,2.52,6.19,3.7l.14.08,0,.09a1.69,1.69,0,0,1,.32.93,1.58,1.58,0,0,1-.36.92c-.33.43-.64.74-.92,1.09a9.28,9.28,0,0,0-1.37,2.28,8.22,8.22,0,0,1-1.6,2.49A5.28,5.28,0,0,1,85.26,208l-.1,0-.12,0a53.31,53.31,0,0,1-12.76-7.32c-2-1.45-3.89-3-5.74-4.58-.92-.8-1.84-1.61-2.74-2.44Z"/><path d="M205.1,256.85c-2-5.78-5.07-4.86-5.07-4.86l-4.42.21c-3.84-1.92-5.9-5-7.87-5.61-3.58-1.12-4.75-4.6-5.51-4.31a2.37,2.37,0,0,0-1.32,3.52,14.13,14.13,0,0,0,3.44,3.82A83.37,83.37,0,0,0,174,246.8c-2-.25-7.71,3.16-8.4,3.55-.85.48-2.07,1.3-1.67,2.12.67,1.37,2.29,1.35,3.52,1s4.48-2.62,5.59-2.32c.65.17,4.63,1.36,4.94,1.48,0,0-4.9,1.9-7,2.64-2.43.86-7.52,2.95-7.52,2.95-4,2.52,1,4.09,1,4.09-.3.25-1.3,1.14-1,1.91.59,1.44,2.67,1.44,3.18,1.42,1.6-.06,6.52-1.65,6.65-1.64l7.12.22c-2.14,1.67-3.39,2.59-6.06,4.42a25.49,25.49,0,0,0-3.52,2.52.89.89,0,0,0,.45,1.24,4.48,4.48,0,0,0,3.38.07,32,32,0,0,0,3.91-1.87c4.63-2.71,7.22-3.55,11.44-.48,6.09,4.43,12.79-4.63,12.79-4.63S207.12,262.63,205.1,256.85Z"/><path d="M184.35,249.62l3.25,1.18S188,250.05,184.35,249.62Z"/><path d="M164.44,262.3s6.68-2.35,8.2-2.76,9-.29,8.42-1.93C181.06,257.61,178.8,255.64,164.44,262.3Z"/><path d="M178,252.62s3.75-.55,2.85-.92S178.73,252.33,178,252.62Z"/><path d="M108.79,250.73s1.57-5.09-.77-6.54-3.78,8.2-3.78,8.2Z"/><path d="M127.37,259c-.26-.19-7.81-4-8.92-4.24-.65-.14-6.22-.7-6.25-.73l4.2-1.22c1.74-.51,5,2.19,7.4,1.55,2.23-.59,2-2.22,1.2-2.55-5.71-2.25-7.11-3.48-9.14-3.29a51.3,51.3,0,0,0-6.41,1.16c-2.7.44-3.69,0-4.81,1.87-.09.15-3.25,5.87-5.16,17.82-.89,5.6,5.4,7.31,5.4,7.31,5.28,1.37,5.13-4.56,7.22-6.44.89-.79,4.88,2.5,6.18,3.25s3.13,1.33,3.83.91c1.61-1,.93-1.7.17-2.31-1.18-.94-9.36-6.7-9.36-6.7,0-.31.13-.55.18-.85,0,0,4.17,1.36,6.15,2.25,1.8.82,5,2.24,6.55,1.26a1.49,1.49,0,0,0,.27-2.56c-.94-.87-12.27-5.94-12.27-5.94a5.21,5.21,0,0,1,4-.69,32.05,32.05,0,0,1,4.94,1.69c1.08.54,3.68,1.76,4.71.5A1.33,1.33,0,0,0,127.37,259Z"/><path d="M112.53,270.17a23.31,23.31,0,0,0-2.42-1.54C109.74,268.54,109.49,269.05,112.53,270.17Z"/><path d="M111,271.55a18.15,18.15,0,0,1-3.66-.83C107,270.36,105.6,272,111,271.55Z"/><path d="M112.92,265.43s-4.08-2-3.81-2.67c.35-1,3,1.1,4,1.82Z"/><path d="M113.8,259.59s-4.57-.88-4.42-2S113.8,259.59,113.8,259.59Z"/><path d="M112.2,254.07s-3.42-.77-3.66-1.42S109.86,252.56,112.2,254.07Z"/><path d="M141.52,279.73a.58.58,0,0,1-.64-.55c-1.72-91.07,3.33-124.25,3.38-124.58a.62.62,0,0,1,.73-.51.65.65,0,0,1,.54.74c-.05.33-5.08,33.4-3.36,124.32a.59.59,0,0,1-.63.58Z"/><polygon points="128.95 198.12 119.18 203.99 108.87 198.19 108.8 177.64 128.87 177.57 128.95 198.12"/><path d="M129,198.12l-9.63,6.09-.13.08-.13-.08-10.39-5.66-.21-.11v-.25l-.16-20.55v-.5h10.53c3.35,0,6.7,0,10,0h.38v.38C129.2,184.48,129.1,191.37,129,198.12Zm0,0c-.21-7-.35-13.76-.45-20.55l.37.37c-3.34.07-6.69.08-10,.11l-10,.08.49-.49v20.55l-.21-.36,10.24,5.94h-.26Z"/><polygon points="128.9 183.94 128.87 177.57 108.8 177.64 108.82 184.05 118.59 187.23 128.9 183.94"/><path d="M128.9,183.94l-.26-6.37.23.23-5,.13c-1.68,0-3.35.09-5,.1l-10,.1.49-.49v6.41l-.32-.44,4.88,1.62c1.62.55,3.23,1.13,4.85,1.68h-.2c1.7-.49,3.4-1,5.14-1.49Zm0,0-5,1.81c-1.69.62-3.43,1.2-5.17,1.79l-.09,0-.11,0c-1.64-.5-3.28-1-4.92-1.49l-4.89-1.56-.32-.1v-.34l-.06-6.41v-.5h.5l10,0c1.68,0,3.35.05,5,.07l5,.1h.24v.23Z"/><path d="M148.55,204.09a2.43,2.43,0,1,0-2.42,2.43A2.42,2.42,0,0,0,148.55,204.09Z"/><path d="M148.55,227.25a2.43,2.43,0,1,0-2.42,2.43A2.42,2.42,0,0,0,148.55,227.25Z"/><path d="M148.55,249.12a2.43,2.43,0,1,0-2.42,2.43A2.42,2.42,0,0,0,148.55,249.12Z"/><path d="M148.55,271.64a2.43,2.43,0,1,0-2.42,2.42A2.42,2.42,0,0,0,148.55,271.64Z"/><path d="M159.74,146.62s-2.19,4-14.43,9.86c0,0-9.23-5-10.23-10.16l8.36,4.29,1.72,3.19,3.51-3.46S157.09,146.74,159.74,146.62Z"/><path d="M139.69,121.64s-2.31-.41-8.68,9.13a172.5,172.5,0,0,0-1.93,20,36.78,36.78,0,0,1,6-4.48l8.68,4.45s-3.28-13.76-3.93-20.71C139.83,130.06,139.69,123.83,139.69,121.64Z"/><path d="M139.69,121.64a3,3,0,0,0-1.42.66,12,12,0,0,0-1.21,1,22.81,22.81,0,0,0-2.12,2.38c-1.33,1.67-2.52,3.43-3.69,5.21l0-.11c-.48,3.31-.84,6.64-1.12,10s-.53,6.67-.62,10l-.79-.36c.94-.87,1.9-1.67,2.9-2.45a26.63,26.63,0,0,1,3.18-2.12l.23-.13.23.12,8.67,4.49-.65.51c-1.12-4.8-2.1-9.63-2.89-14.5q-.3-1.81-.54-3.66a22.86,22.86,0,0,1-.26-3.68Zm0,0L140,129a27.69,27.69,0,0,0,.41,3.66c.19,1.21.41,2.42.63,3.63q.71,3.61,1.52,7.21c.53,2.39,1.06,4.79,1.64,7.18l.23,1-.88-.44-8.7-4.41h.47a34.45,34.45,0,0,0-5.92,4.38l-.83.74,0-1.09q.19-5.06.72-10.07c.37-3.35.83-6.68,1.4-10v-.07l0,0a56.6,56.6,0,0,1,3.92-5.1,23.36,23.36,0,0,1,2.25-2.31,10.21,10.21,0,0,1,1.27-1A3,3,0,0,1,139.69,121.64Z"/><path d="M166.07,120.78l-.32,7.93c-1.29,3.35-12.11,15.61-17.08,21.63,0,0,8.47-3.6,11.07-3.72,0,0,5.39,3.42,7.29,4.93a118.4,118.4,0,0,0,8.8-20.58S169.28,121.42,166.07,120.78Z"/><path d="M166.07,120.78l-.15,7.94v.06a33,33,0,0,1-3.79,5.81c-1.4,1.84-2.84,3.64-4.29,5.42-2.88,3.59-5.89,7.08-8.81,10.62l-.53-.71c1.81-.77,3.62-1.49,5.46-2.17.93-.34,1.85-.66,2.8-1a14.33,14.33,0,0,1,3-.67h.15l.14.09c1.24.8,2.47,1.6,3.69,2.42s2.44,1.64,3.62,2.57l-.69.13c1.81-3.22,3.4-6.61,4.89-10s2.84-6.89,4-10.42l0,.24c-1.34-2-2.74-3.87-4.25-5.71-.76-.9-1.54-1.8-2.39-2.63A7.91,7.91,0,0,0,166.07,120.78Zm0,0a7.94,7.94,0,0,1,3,1.87,35.55,35.55,0,0,1,2.5,2.56,66.87,66.87,0,0,1,4.47,5.6l.07.11,0,.13q-1.68,5.37-3.81,10.57c-.71,1.74-1.49,3.44-2.29,5.14s-1.64,3.37-2.56,5l-.25.47-.44-.34c-1.13-.87-2.36-1.68-3.57-2.49s-2.46-1.6-3.69-2.38l.29.08a15.07,15.07,0,0,0-2.74.61c-.92.28-1.84.6-2.75.92-1.83.66-3.64,1.37-5.44,2.11l-.53-.71c3-3.53,6-7,9-10.5,1.49-1.75,3-3.51,4.4-5.31.71-.89,1.41-1.8,2.09-2.72a17.11,17.11,0,0,0,1.82-2.87v.06Z"/><path d="M149.71,155.4s4.44,3.14,3.13,4.52-6.59,5.43-8.45,5.59-5.91-7.13-5.83-8,3.79-2.92,4.89-3A55,55,0,0,1,149.71,155.4Z"/><path d="M145.82,165s3.92,7.54,3.27,10.3-.39,59.48-3.27,64.67-3.89,9.9-5.49,8.19-5.34-6.57-5.17-9.49,2.26-60.29,3.4-64.83,4.89-10.21,4.89-10.21Z"/></g><polygon class="cls-3" points="97.94 301.77 101.36 403.86 137.13 403.86 129.56 317.86 147.93 317.99 147.94 403.86 185.16 403.86 181.8 296.27 97.94 301.77"/><path class="cls-3" d="M181.8,271.92H96.91l.33,28.14c.23,10.26,9.12,18.52,20,18.88l44.56.28c11.11-.29,20-9,20-19.5Z"/><path class="cls-4" d="M169,272.66c-1.05,4.18-2.5,15.74,12,20.46,0,0,1.71-12.9.33-20.46Z"/><path class="cls-4" d="M181.24,296.46c-7.15-2.09-12-5.61-14.52-10.44s-2-10.27-1.24-13.36h-1.34a20.71,20.71,0,0,0,1.42,13.87c2.38,4.65,6.8,8.14,13.17,10.39.68.25,1.4.48,2.13.69a.66.66,0,0,0,.81-.4A.6.6,0,0,0,181.24,296.46Z"/><path class="cls-4" d="M141.47,316.79a.65.65,0,0,1-.62-.43c-5.28-16.23-4.22-42.7-4.21-43a.64.64,0,0,1,.67-.58.63.63,0,0,1,.62.63c0,.26-1.06,26.53,4.15,42.57a.59.59,0,0,1-.42.75Z"/><path class="cls-4" d="M137.19,307.27h0a9.64,9.64,0,0,1-8.38-6.69c-2.15-6.18-1.45-25.5-1.42-26.31a.63.63,0,0,1,.67-.59.6.6,0,0,1,.61.62c0,.2-.72,19.91,1.37,25.88A8.26,8.26,0,0,0,137.2,306a.64.64,0,0,1,.63.64A.65.65,0,0,1,137.19,307.27Z"/><path class="cls-4" d="M98.69,272.66l.48,16.93s6.86-7.16,7.29-16.17Z"/><path class="cls-4" d="M99.82,293.73a.67.67,0,0,1-.55-.28.58.58,0,0,1,.19-.83c9.37-5.69,10.21-19.1,10.22-19.23a.64.64,0,0,1,.67-.58.62.62,0,0,1,.61.64c0,.57-.88,14.15-10.8,20.18A.61.61,0,0,1,99.82,293.73Z"/><rect class="cls-5" x="130.67" y="101.11" width="26.38" height="30.88"/><path class="cls-6" d="M157,114.14v-13H130.67v20.42C135.17,122.08,150.61,123.14,157,114.14Z"/><path class="cls-5" d="M127.07,129a89.79,89.79,0,0,1,34,0s-10.56,36.37-24.39,36.37S127.07,129,127.07,129Z"/><path class="cls-7" d="M96.07,270l6.84-4.61c-1.66-2.59-3.29-5.08-4.86-7.46,0,1.15,0,2.34,0,3.56-.77,1-1.78,3.66-2.49,4.76S95.36,268.71,96.07,270Z"/><path class="cls-5" d="M171.13,70.87s8.35-44.22-33.36-44.22c-31.31,0-29.45,35.64-29.45,35.64,0,11.31-.26,30.52,7.51,42,3.28,4.83,7.38,9.32,14.38,10,30.18,2.88,37.48-20.78,38.54-25.23C170.08,83.47,171.13,70.87,171.13,70.87Z"/><path class="cls-8" d="M125,76.45c0,2.61-1.61,4.6-3.53,4.44S118,78.5,118,75.9s1.6-4.6,3.53-4.44S125,73.85,125,76.45Z"/><path class="cls-8" d="M151.43,75.68c0,2.61-1.61,4.6-3.54,4.44s-3.47-2.39-3.44-5,1.61-4.6,3.54-4.44S151.45,73.08,151.43,75.68Z"/><path class="cls-9" d="M134.34,91.24c-5.86,2.37-9-.38-9.25-3.16a4,4,0,0,1,2.6-4.08c3.57-1.39,6.09-6.88,6.11-6.94h0A11.77,11.77,0,0,1,128,85.7c-1,.57-1.59,1.17-1.52,2.06.14,1.55,2.38,3.87,7.84,3.48Z"/><path class="cls-10" d="M113.05,65.94l-.26-2.82a29.77,29.77,0,0,1,13.52-1.72l.07,4.42C120.56,64.44,113.14,65.93,113.05,65.94Z"/><path class="cls-10" d="M156.23,66.28c-4.91-2.1-13.68-1.13-13.76-1.15l.3-4.1c.35.06,8.3-.88,13.89,2.72Z"/><path class="cls-11" d="M144.52,95.32s-11,2.25-21.27,0c0,0,1.81,9.43,10.64,9.41C142.2,104.71,144.42,97.14,144.52,95.32Z"/><path class="cls-7" d="M133.65,99.82c-6.78,0-8.77-2.81-9.62-4.34,7.95,1.57,14.37.63,19.95-.06C143.38,97.12,140,99.82,133.65,99.82Z"/><path class="cls-5" d="M171.45,70.5s-3.39.75-4.57,10.29,1.2,10.34,1.91,10.66c0,0,8.65,2.42,11.65-11.89C182.93,67.68,171.45,70.5,171.45,70.5Z"/><path class="cls-9" d="M169.05,84.88s6.3-3.15,1.38-6.32c0,0,1.66-7.21,5.87-5.58s.84,8.39,0,9.79C174.55,85.69,169.05,89.27,169.05,84.88Z"/><path class="cls-12" d="M108.3,68.14s-1.41-15-1.2-22.09c0,0-14.79-10.29-5.14-23.16a20.13,20.13,0,0,0,.59,3.92S104.32,15.23,114,11.53c0,0,.78,6.43,5.61,7.72s47-9.87,52.23,15.44c0,0,8,4.18,6.57,15.54s-3.19,20-3.19,20-6.38-.32-8,5.91c0,0-2.52-13.47-3.59-15.21-3-4.88-3.81-11-4.08-18.55,0,0-35.85,8.9-49,4.39A142.41,142.41,0,0,0,108.3,68.14Z"/><path class="cls-13" d="M108.3,68.14a142.41,142.41,0,0,1,2.27-21.34l-3.47-.75C106.89,53.13,108.3,68.14,108.3,68.14Z"/><path class="cls-13" d="M159.53,42.41c.27,7.55,1.08,13.67,4.08,18.55,1.07,1.74,3.59,15.21,3.59,15.21,1.61-6.23,8-5.91,8-5.91s.63-3.19,1.46-8.24C161.6,58.77,159.53,42.41,159.53,42.41Z"/><path class="cls-14" d="M114,11.53c-9.65,3.7-11.42,15.28-11.42,15.28a20.13,20.13,0,0,1-.59-3.92,16.24,16.24,0,0,0-2.9,5.89c6.15,3.76,22,10.57,49.32,4.19,0,0-26.22-4.54-29.63-14C114.66,17.2,114,11.53,114,11.53Z"/><path class="cls-5" d="M217.69,193.71l3.46,3.67,4.19,4.43,5.67,6,7.25,7.67a10.1,10.1,0,0,0,14,1.68l.09-.06A10.12,10.12,0,0,0,254.19,203l-12.54-14.68-4.31-5-3-3.44A149.86,149.86,0,0,1,217.69,193.71Z"/><path class="cls-5" d="M252.87,216.6a10.11,10.11,0,0,0,.48-14.17,10.3,10.3,0,0,0-14.3-.82h0s-15.3,9.93-53.89,49.7l8.74,9.5s41.27-25,58.44-43.74C252.46,216.94,252.87,216.6,252.87,216.6Z"/><path class="cls-15" d="M58.65,179.19h.11c.84.74,1.69,1.48,2.54,2.18A148.24,148.24,0,0,0,79,194c1.89,1.15,3.12,1.84,3.35,2,3.68-4.61,7.22-9.06,10.46-13.14.74,6.82,1.73,14.54,3,23.27,2.9,19.73,2.45,28.95,2.21,51.82h0c1.57,2.38,3.2,4.87,4.86,7.46L96.07,270a15.37,15.37,0,0,0,1.75,2.43s25.72,11.57,85.34.2c2.09-2.37,3.18-4.27,3.39-5.78.12-.81-1.28-3.16-2.58-5.15-.4-11.87-.64-31.47,1.27-47.68,1.72-14.56,6.36-28.86,9.3-39.79,5.5,5.83,12.66,13.38,20.33,21.48.27-.18,1.28-.86,2.82-2a149.86,149.86,0,0,0,16.7-13.84c.9-.88,1.8-1.78,2.69-2.7h.13L208.81,144a14.86,14.86,0,0,0-8.82-6.08s-22.22-6.19-40.51-10.17l-23.32,23c-4.67-9.16-7.24-23-7.24-23-8.32,1.31-29.37,6.24-37.67,10.12a15.31,15.31,0,0,0-7.54,6.38Z"/><path class="cls-16" d="M58.65,179.19h.11c1.83,1.58,3.67,3.15,5.58,4.62s3.85,2.92,5.83,4.3,4,2.73,6,4,4.12,2.51,6.21,3.72l-.12,0L92.71,182.7l.2-.26,0,.33,2.48,18.69.62,4.67c.22,1.56.46,3.11.66,4.67.43,3.12.78,6.24,1,9.38.56,6.27.73,12.57.73,18.85s-.1,12.58-.15,18.86l0-.16,4.87,7.46.16.24-.25.17-6.84,4.61.1-.41a14.35,14.35,0,0,0,1.71,2.38l-.1-.08a57.38,57.38,0,0,0,10.31,2.84c1.75.36,3.52.61,5.29.9s3.55.48,5.34.64a162.08,162.08,0,0,0,21.48.64c7.17-.14,14.32-.83,21.45-1.6,3.56-.46,7.11-1,10.66-1.47l10.6-1.85-.23.13a23.28,23.28,0,0,0,1.91-2.44,9.32,9.32,0,0,0,1.3-2.7c0-.12.05-.24.07-.36a.46.46,0,0,0,0-.26,3.46,3.46,0,0,0-.2-.66,14.37,14.37,0,0,0-.68-1.36c-.5-.91-1.05-1.79-1.63-2.66l-.06-.1v-.12c-.26-7.39-.36-14.78-.26-22.18s.41-14.79,1.12-22.16a148.47,148.47,0,0,1,3.82-21.87c1.74-7.2,3.88-14.28,5.83-21.39l.23-.84.6.63,20.3,21.5-.59-.07c2-1.36,4-2.73,5.87-4.19s3.82-2.93,5.67-4.46,3.68-3.11,5.45-4.74,3.48-3.32,5.17-5l.13-.13h.31l-.32.7-28.36-33.18h0l0,0a15.32,15.32,0,0,0-1.71-2.06,13.9,13.9,0,0,0-2-1.71,14.76,14.76,0,0,0-2.32-1.32,12.38,12.38,0,0,0-2.51-.85h0c-13.42-3.69-26.9-7.19-40.48-10.2l.29-.09-23.34,23-.28.28-.18-.36a71.92,71.92,0,0,1-4.34-11.33c-1.14-3.88-2.12-7.81-2.9-11.78l.3.21c-3.2.52-6.39,1.18-9.57,1.88s-6.34,1.44-9.5,2.24-6.29,1.65-9.4,2.6A79.33,79.33,0,0,0,91.32,138h0a15.31,15.31,0,0,0-7.49,6.29h0Zm0,0,24.95-35h0a15.32,15.32,0,0,1,3.27-3.86,15.08,15.08,0,0,1,4.34-2.61h0a79.62,79.62,0,0,1,9.19-3.37q4.66-1.44,9.4-2.66c3.16-.82,6.32-1.59,9.5-2.3s6.38-1.37,9.6-1.9l.25,0,.05.25c.78,3.95,1.76,7.86,2.91,11.72a71.94,71.94,0,0,0,4.32,11.23l-.45-.07,23.29-23.06.13-.12.17,0c13.61,3,27.1,6.46,40.54,10.12h0a12.61,12.61,0,0,1,2.68.9,14.3,14.3,0,0,1,2.44,1.38,14.77,14.77,0,0,1,2.16,1.79,16.9,16.9,0,0,1,1.8,2.16l0,0,28.43,33.12.6.7h-1l.31-.13c-1.71,1.72-3.41,3.45-5.2,5.07s-3.61,3.23-5.47,4.78-3.77,3-5.7,4.5-3.91,2.85-5.9,4.23l-.32.22-.26-.28-20.35-21.46.83-.21c-1.94,7.14-4.07,14.21-5.83,21.37a147.16,147.16,0,0,0-3.85,21.73c-.72,7.34-1,14.71-1.16,22.09s0,14.76.21,22.13l-.06-.21c.57.88,1.13,1.78,1.65,2.72a12.35,12.35,0,0,1,.71,1.46,3.77,3.77,0,0,1,.26.84,1.29,1.29,0,0,1,0,.52c0,.14-.05.28-.08.42a10.07,10.07,0,0,1-1.42,2.95,25.53,25.53,0,0,1-2,2.52l-.09.11-.14,0-10.63,1.83c-3.56.5-7.12,1-10.69,1.46-7.15.76-14.32,1.43-21.52,1.56a165.25,165.25,0,0,1-21.57-.69c-1.79-.17-3.58-.44-5.36-.65s-3.57-.55-5.33-.92a57.45,57.45,0,0,1-10.44-2.91l0,0,0,0a15.1,15.1,0,0,1-1.79-2.49l-.15-.25.24-.16,6.85-4.6-.08.41-4.85-7.46,0-.08v-.08c.07-6.29.19-12.57.2-18.86s-.14-12.56-.69-18.81c-.28-3.12-.59-6.25-1-9.36-.19-1.56-.42-3.11-.63-4.67l-.59-4.68L92.68,182.8l.25.08L82.43,196l0,.06-.07,0c-2.08-1.23-4.17-2.44-6.2-3.77s-4-2.66-6-4.05-3.91-2.85-5.81-4.35-3.73-3.06-5.55-4.65h-.11Z"/><path class="cls-7" d="M214.87,195.67c1.17,1.25,2.36,2.5,3.55,3.76.84-.62,1.75-1.31,2.73-2.05a158.24,158.24,0,0,0,16.19-14.07c.92-.94,1.82-1.89,2.69-2.85l-2.82-3.29h-.13c-.89.92-1.79,1.82-2.69,2.7a149.86,149.86,0,0,1-16.7,13.84C216.15,194.81,215.14,195.49,214.87,195.67Z"/><path class="cls-15" d="M217.54,200.33c1.66,3.24,4.11,3.43,4.11,3.43a36.62,36.62,0,0,0,3.69-1.95c6.46-3.87,12.83-9.91,16.31-13.46,1.69-1.72,2.7-2.85,2.7-2.85,1-2.15-3.92-4.91-4.63-6.68a2.71,2.71,0,0,0-2.51-1.65h-.13c-.89.92-1.79,1.82-2.69,2.7a149.86,149.86,0,0,1-16.7,13.84c-1.54,1.1-2.55,1.78-2.82,2l-.07.05C214,197.13,215.88,197.09,217.54,200.33Z"/><path class="cls-16" d="M217.54,200.33a8.26,8.26,0,0,0,.74,1.17,7.51,7.51,0,0,0,.93,1,4.81,4.81,0,0,0,2.44,1.2h0l3.22-1.73a29.76,29.76,0,0,0,3.07-2c2-1.42,3.89-2.95,5.72-4.55s3.61-3.27,5.33-5,3.39-3.5,5-5.28l-.07.11c.28-.61-.23-1.45-.84-2.14s-1.35-1.34-2.07-2a13.73,13.73,0,0,1-1.06-1.09,4.61,4.61,0,0,1-.49-.65l-.21-.4c-.05-.09-.08-.19-.13-.27a2.25,2.25,0,0,0-2.06-1.1l.33-.14c-1.73,1.71-3.43,3.44-5.27,5s-3.68,3.16-5.58,4.67-3.83,3-5.79,4.4-3.94,2.81-6,4.16h0a1.25,1.25,0,0,0-.18.65,1.12,1.12,0,0,0,.31.6c.31.35.66.67,1,1A10,10,0,0,1,217.54,200.33Zm0,0a9.79,9.79,0,0,0-1.63-2.3c-.32-.34-.68-.65-1-1a1.24,1.24,0,0,1-.33-.63,1.28,1.28,0,0,1,.18-.7h0c2-1.38,4-2.76,5.85-4.27s3.78-3,5.61-4.6,3.63-3.19,5.38-4.85,3.45-3.38,5.13-5.11l.13-.13h.2a3.2,3.2,0,0,1,2.89,1.54,3.49,3.49,0,0,1,.19.39l.14.25a4.66,4.66,0,0,0,.41.52c.3.34.65.67,1,1,.71.67,1.44,1.34,2.12,2.12a5.87,5.87,0,0,1,.88,1.34,2.19,2.19,0,0,1,0,1.81l0,.07,0,0c-1.7,1.77-3.37,3.57-5.19,5.21s-3.64,3.28-5.54,4.83-3.87,3-5.91,4.36c-1,.66-2.05,1.33-3.13,1.91l-3.26,1.69h0a4.88,4.88,0,0,1-2.45-1.25,7.12,7.12,0,0,1-.93-1A10,10,0,0,1,217.54,200.33Z"/><path class="cls-5" d="M43.88,218.74h0s0,0,0,0A10.2,10.2,0,0,0,46,220.58a10.1,10.1,0,0,0,13.9-2.76l5-6.19L72,202.68l3.54-4.42L79,194A148.24,148.24,0,0,1,61.3,181.37l-3,4.2-3.51,4.85L43,206.73A10.12,10.12,0,0,0,43.88,218.74Z"/><path class="cls-5" d="M43.35,218a5.77,5.77,0,0,1,.43.56,1,1,0,0,1,.1.18h0s0,0,0,0c13.25,21.74,49.27,53.15,49.27,53.15l2.9-2,6.84-4.61c-1.66-2.59-3.29-5.08-4.86-7.46h0c-12.49-19-21.68-31.66-27.91-39.66-2.1-2.69-3.86-4.86-5.29-6.59-3.39-4-5-5.61-5-5.61a10.28,10.28,0,0,0-14.18-2A10.12,10.12,0,0,0,43.35,218Z"/><path class="cls-7" d="M55.72,183.28c.83.78,1.68,1.54,2.55,2.29a155,155,0,0,0,17.3,12.69c1.19.77,2.3,1.46,3.29,2.07l3.5-4.4c-.23-.13-1.46-.82-3.35-2A148.24,148.24,0,0,1,61.3,181.37c-.85-.7-1.7-1.44-2.54-2.18h-.11Z"/><path class="cls-15" d="M52.15,188.06s1,.93,2.61,2.36c3.6,3.17,10.45,8.79,17.27,12.26a35.76,35.76,0,0,0,4.17,1.83s2.42-.38,3.83-3.74,3.29-3.46,2.38-4.81l0,0c-.23-.13-1.46-.82-3.35-2A148.24,148.24,0,0,1,61.3,181.37c-.85-.7-1.7-1.44-2.54-2.18h-.11a2.72,2.72,0,0,0-2.4,1.85C55.68,182.87,51,186,52.15,188.06Z"/><path class="cls-16" d="M52.15,188.06c1.87,1.59,3.69,3.19,5.62,4.69s3.87,3,5.87,4.36,4,2.71,6.16,3.89a42,42,0,0,0,6.55,3.08l-.22,0a4.57,4.57,0,0,0,2.1-1.3,7.3,7.3,0,0,0,1.39-2.23A10.49,10.49,0,0,1,81.1,198c.3-.38.65-.74.88-1.06s.21-.36,0-.72l.18.17c-2.14-1.25-4.2-2.46-6.24-3.8s-4-2.67-6-4.08-3.91-2.87-5.8-4.4-3.72-3.12-5.53-4.73l.18.06a2.53,2.53,0,0,0-2.17,1.33l-.3.68a7.14,7.14,0,0,1-.43.64c-.31.4-.65.76-1,1.12a28.92,28.92,0,0,0-2,2.18,5.26,5.26,0,0,0-.75,1.24A1.76,1.76,0,0,0,52.15,188.06Zm0,0a1.77,1.77,0,0,1-.08-1.44,4.88,4.88,0,0,1,.69-1.32c.58-.81,1.25-1.54,1.89-2.28a6.62,6.62,0,0,0,1.54-2.42,2.93,2.93,0,0,1,2.57-1.68h.09l.09.07c1.84,1.56,3.69,3.11,5.62,4.57s3.88,2.87,5.85,4.26,4,2.72,6,4,4.16,2.52,6.19,3.7l.14.08,0,.09a1.69,1.69,0,0,1,.32.93,1.58,1.58,0,0,1-.36.92c-.33.43-.64.74-.92,1.09a9.28,9.28,0,0,0-1.37,2.28,8.22,8.22,0,0,1-1.6,2.49A5.28,5.28,0,0,1,76.26,205l-.1,0-.12,0a53.31,53.31,0,0,1-12.76-7.32c-2-1.45-3.89-3-5.74-4.58-.92-.8-1.84-1.61-2.74-2.44Z"/><path class="cls-5" d="M196.1,253.85c-2-5.78-5.07-4.86-5.07-4.86l-4.42.21c-3.84-1.92-5.9-5-7.87-5.61-3.58-1.12-4.75-4.6-5.51-4.31a2.37,2.37,0,0,0-1.32,3.52,14.13,14.13,0,0,0,3.44,3.82A83.37,83.37,0,0,0,165,243.8c-2-.25-7.71,3.16-8.4,3.55-.85.48-2.07,1.3-1.67,2.12.67,1.37,2.29,1.35,3.52,1s4.48-2.62,5.59-2.32c.65.17,4.63,1.36,4.94,1.48,0,0-4.9,1.9-7,2.64-2.43.86-7.52,3-7.52,3-4,2.52,1,4.09,1,4.09-.3.25-1.3,1.14-1,1.91.59,1.44,2.67,1.44,3.18,1.42,1.6-.06,6.52-1.65,6.65-1.64l7.12.22c-2.14,1.67-3.39,2.59-6.06,4.42a25.49,25.49,0,0,0-3.52,2.52.89.89,0,0,0,.45,1.24,4.48,4.48,0,0,0,3.38.07,32,32,0,0,0,3.91-1.87c4.63-2.71,7.22-3.55,11.44-.48,6.09,4.43,12.79-4.63,12.79-4.63S198.12,259.63,196.1,253.85Z"/><path class="cls-6" d="M175.35,246.62l3.25,1.18S179,247.05,175.35,246.62Z"/><path class="cls-6" d="M155.44,259.3s6.68-2.35,8.2-2.76,9-.29,8.42-1.93C172.06,254.61,169.8,252.64,155.44,259.3Z"/><path class="cls-6" d="M169,249.62s3.75-.55,2.85-.92S169.73,249.33,169,249.62Z"/><path class="cls-6" d="M99.79,247.73s1.57-5.09-.77-6.54-3.78,8.2-3.78,8.2Z"/><path class="cls-5" d="M118.37,256c-.26-.19-7.81-4-8.92-4.24-.65-.14-6.22-.7-6.25-.73l4.2-1.22c1.74-.51,5,2.19,7.4,1.55,2.23-.59,2-2.22,1.2-2.55-5.71-2.25-7.11-3.48-9.14-3.29a51.3,51.3,0,0,0-6.41,1.16c-2.7.44-3.69,0-4.81,1.87-.09.15-3.25,5.87-5.16,17.82-.89,5.6,5.4,7.31,5.4,7.31,5.28,1.37,5.13-4.56,7.22-6.44.89-.79,4.88,2.5,6.18,3.25s3.13,1.33,3.83.91c1.61-1,.93-1.7.17-2.31-1.18-.94-9.36-6.7-9.36-6.7,0-.31.13-.55.18-.85,0,0,4.17,1.36,6.15,2.25,1.8.82,5,2.24,6.55,1.26a1.49,1.49,0,0,0,.27-2.56c-.94-.87-12.27-5.94-12.27-5.94a5.21,5.21,0,0,1,4-.69,32.05,32.05,0,0,1,4.94,1.69c1.08.54,3.68,1.76,4.71.5A1.33,1.33,0,0,0,118.37,256Z"/><path class="cls-6" d="M103.53,267.17a23.31,23.31,0,0,0-2.42-1.54C100.74,265.54,100.49,266.05,103.53,267.17Z"/><path class="cls-6" d="M102,268.55a18.15,18.15,0,0,1-3.66-.83C98,267.36,96.6,269,102,268.55Z"/><path class="cls-6" d="M103.92,262.43s-4.08-2-3.81-2.67c.35-1,3,1.1,4,1.82Z"/><path class="cls-6" d="M104.8,256.59s-4.57-.88-4.42-2S104.8,256.59,104.8,256.59Z"/><path class="cls-6" d="M103.2,251.07s-3.42-.77-3.66-1.42S100.86,249.56,103.2,251.07Z"/><path class="cls-17" d="M132.52,276.73a.58.58,0,0,1-.64-.55c-1.72-91.07,3.33-124.25,3.38-124.58a.62.62,0,0,1,.73-.51.65.65,0,0,1,.54.74c-.05.33-5.08,33.4-3.36,124.32a.59.59,0,0,1-.63.58Z"/><polygon class="cls-15" points="119.95 195.12 110.18 200.99 99.87 195.19 99.8 174.64 119.87 174.57 119.95 195.12"/><path class="cls-16" d="M120,195.12l-9.63,6.09-.13.08-.13-.08-10.39-5.66-.21-.11v-.25l-.16-20.55v-.5h10.53c3.35,0,6.7,0,10,0h.38v.38C120.2,181.48,120.1,188.37,120,195.12Zm0,0c-.21-7-.35-13.76-.45-20.55l.37.37c-3.34.07-6.69.08-10,.11l-10,.08.49-.49v20.55l-.21-.36,10.24,5.94h-.26Z"/><polygon class="cls-15" points="119.9 180.94 119.87 174.57 99.8 174.64 99.82 181.05 109.59 184.23 119.9 180.94"/><path class="cls-16" d="M119.9,180.94l-.26-6.37.23.23-5,.13c-1.68,0-3.35.09-5,.1l-10,.1.49-.49v6.41l-.32-.44,4.88,1.62c1.62.55,3.23,1.13,4.85,1.68h-.2c1.7-.49,3.4-1,5.14-1.49Zm0,0-5,1.81c-1.69.62-3.43,1.2-5.17,1.79l-.09,0-.11,0c-1.64-.5-3.28-1-4.92-1.49l-4.89-1.56-.32-.1v-.34l-.06-6.41v-.5h.5l10,0c1.68,0,3.35.05,5,.07l5,.1h.24v.23Z"/><path class="cls-18" d="M139.55,201.09a2.43,2.43,0,1,0-2.42,2.43A2.42,2.42,0,0,0,139.55,201.09Z"/><path class="cls-18" d="M139.55,224.25a2.43,2.43,0,1,0-2.42,2.43A2.42,2.42,0,0,0,139.55,224.25Z"/><path class="cls-18" d="M139.55,246.12a2.43,2.43,0,1,0-2.42,2.43A2.42,2.42,0,0,0,139.55,246.12Z"/><path class="cls-18" d="M139.55,268.64a2.43,2.43,0,1,0-2.42,2.42A2.42,2.42,0,0,0,139.55,268.64Z"/><path class="cls-19" d="M150.74,143.62s-2.19,4-14.43,9.86c0,0-9.23-5-10.23-10.16l8.36,4.29,1.72,3.19,3.51-3.46S148.09,143.74,150.74,143.62Z"/><path class="cls-15" d="M130.69,118.64s-2.31-.41-8.68,9.13a172.5,172.5,0,0,0-1.93,20,36.78,36.78,0,0,1,6-4.48l8.68,4.45s-3.28-13.76-3.93-20.71C130.83,127.06,130.69,120.83,130.69,118.64Z"/><path class="cls-16" d="M130.69,118.64a3,3,0,0,0-1.42.66,12,12,0,0,0-1.21,1,22.81,22.81,0,0,0-2.12,2.38c-1.33,1.67-2.52,3.43-3.69,5.21l0-.11c-.48,3.31-.84,6.64-1.12,10s-.53,6.67-.62,10l-.79-.36c.94-.87,1.9-1.67,2.9-2.45a26.63,26.63,0,0,1,3.18-2.12l.23-.13.23.12,8.67,4.49-.65.51c-1.12-4.8-2.1-9.63-2.89-14.5q-.3-1.81-.54-3.66a22.86,22.86,0,0,1-.26-3.68Zm0,0L131,126a27.69,27.69,0,0,0,.41,3.66c.19,1.21.41,2.42.63,3.63q.71,3.61,1.52,7.21c.53,2.39,1.06,4.79,1.64,7.18l.23,1-.88-.44-8.7-4.41h.47a34.45,34.45,0,0,0-5.92,4.38l-.83.74,0-1.09q.19-5.06.72-10.07c.37-3.35.83-6.68,1.4-10v-.07l0,0a56.6,56.6,0,0,1,3.92-5.1,23.36,23.36,0,0,1,2.25-2.31,10.21,10.21,0,0,1,1.27-1A3,3,0,0,1,130.69,118.64Z"/><path class="cls-15" d="M157.07,117.78l-.32,7.93c-1.29,3.35-12.11,15.61-17.08,21.63,0,0,8.47-3.6,11.07-3.72,0,0,5.39,3.42,7.29,4.93a118.4,118.4,0,0,0,8.8-20.58S160.28,118.42,157.07,117.78Z"/><path class="cls-16" d="M157.07,117.78l-.15,7.94v.06a33,33,0,0,1-3.79,5.81c-1.4,1.84-2.84,3.64-4.29,5.42-2.88,3.59-5.89,7.08-8.81,10.62l-.53-.71c1.81-.77,3.62-1.49,5.46-2.17.93-.34,1.85-.66,2.8-1a14.33,14.33,0,0,1,3-.67h.15l.14.09c1.24.8,2.47,1.6,3.69,2.42s2.44,1.64,3.62,2.57l-.69.13c1.81-3.22,3.4-6.61,4.89-10s2.84-6.89,4-10.42l0,.24c-1.34-2-2.74-3.87-4.25-5.71-.76-.9-1.54-1.8-2.39-2.63A7.91,7.91,0,0,0,157.07,117.78Zm0,0a7.94,7.94,0,0,1,3,1.87,35.55,35.55,0,0,1,2.5,2.56,66.87,66.87,0,0,1,4.47,5.6l.07.11,0,.13q-1.68,5.37-3.81,10.57c-.71,1.74-1.49,3.44-2.29,5.14s-1.64,3.37-2.56,5l-.25.47-.44-.34c-1.13-.87-2.36-1.68-3.57-2.49s-2.46-1.6-3.69-2.38l.29.08a15.07,15.07,0,0,0-2.74.61c-.92.28-1.84.6-2.75.92-1.83.66-3.64,1.37-5.44,2.11l-.53-.71c3-3.53,6-7,9-10.5,1.49-1.75,3-3.51,4.4-5.31.71-.89,1.41-1.8,2.09-2.72a17.11,17.11,0,0,0,1.82-2.87v.06Z"/><path class="cls-19" d="M140.71,152.4s4.44,3.14,3.13,4.52-6.59,5.43-8.45,5.59-5.91-7.13-5.83-8,3.79-2.92,4.89-3A55,55,0,0,1,140.71,152.4Z"/><path class="cls-19" d="M136.82,162s3.92,7.54,3.27,10.3-.39,59.48-3.27,64.67-3.89,9.9-5.49,8.19-5.34-6.57-5.17-9.49,2.26-60.29,3.4-64.83,4.89-10.21,4.89-10.21Z"/><rect class="cls-20" width="278.12" height="386.52"/></g></g></g></svg>