<svg xmlns="http://www.w3.org/2000/svg" viewBox="0 0 311.23 418.55"><defs><style>.cls-1{isolation:isolate;}.cls-2{opacity:0.47;mix-blend-mode:multiply;}.cls-3{stroke:#000;}.cls-4{fill:#ffa283;}.cls-5{fill:#f2efef;stroke:#3c639b;}.cls-6{fill:#ff8d71;}.cls-7{fill:#f57d64;}.cls-8{fill:#9b473a;}.cls-9{fill:#cf2323;}.cls-10{fill:#fff;}.cls-11{fill:#9d3320;}.cls-12{fill:#b23f31;}.cls-13{fill:#8c281b;}.cls-14{fill:#003554;}.cls-15{fill:#2a708d;}.cls-16{fill:#a60c0c;}.cls-17{fill:#592b20;}</style></defs><title>hombre_2</title><g class="cls-1"><g id="Capa_2" data-name="Capa 2"><g id="Peronsaje"><g class="cls-2"><path d="M140.93,157.18a118.21,118.21,0,0,0-44.76,0S110.07,205,128.27,205,140.93,157.18,140.93,157.18Z"/><path d="M282.94,116.42c.25.28,1-.27,1.51-.65l17.75-17a2.81,2.81,0,0,1,3.95,0,2.7,2.7,0,0,1-.09,3.86l-18,17.9c-.57.48-.21,1.49.56,1.1L306.81,108a2.62,2.62,0,1,1,3.6,3.8l-19.38,16c-.82.72-.26,1.49.33,1.07h0l15.73-7.56c1.56-.67,2.93-.89,3.67.38a2,2,0,0,1-.88,3.06l-17,10.38c-14.71,14.16-23.63,15.66-23.63,15.66C251.64,152.59,256,138.21,256,138.21a33.71,33.71,0,0,1,0-12.75c.34-1.8,1.22-5.78,2-9.75a3,3,0,0,1,1.27-1.67c1.61-1.66,3.19-3.33,4.4-4.75a27.76,27.76,0,0,0,2.08-2.83c.62-.74,1.6-.24,2.47,1.23a4.92,4.92,0,0,1-.63,5.16s-1.86,2.4-3.54,4.9h0c0,2.24.25,4.16.83,4.33,1.33.41,5.81-1.87,5.81-1.87a17.71,17.71,0,0,0,6.81-6.57L290.21,96s2-3.31,5-1.66,0,5,0,5Z"/><path d="M174.58,202.3a15.73,15.73,0,1,1,14.35-28c1.21.62,83.46,53.1,83.46,53.1a13.3,13.3,0,0,1-12.13,23.67Z"/><path d="M278.93,240.18a13.32,13.32,0,0,1-13.76,12.61A13.56,13.56,0,0,1,252.1,239.2h0s-3.17-23.79,3.53-96.4l17,.6s10.34,62.66,6.33,95.86C278.91,239.48,278.93,240.18,278.93,240.18Z"/><path class="cls-3" d="M242.47,202a193.28,193.28,0,0,1-18.9,33.14,3.62,3.62,0,0,0,2.75,3c2.46.51,7.17,6.27,9.72,4.46,0,0,14.65-18.6,18.43-33.62,0,0-.81-3.13-5.39-4.53S244.12,200.63,242.47,202Z"/><path d="M34.54,372.6s12.65,6.2,14.35,10.11,6.43,13,6.78,15c.87,4.91,4.34,10.91,3.11,11.58s-3.6,2.29-8.26-6.74l2.78,11s1.24,3.92-1.87,4.82a3.25,3.25,0,0,1-4.23-2.14l-2.1-3.8a3.07,3.07,0,0,1-2.89,2.53c-2.79.33-4.46-4.29-4.46-4.29A3.45,3.45,0,0,1,34.42,413a4.18,4.18,0,0,1-3.56-2,3.6,3.6,0,0,1-2.64.93c-2.07-.44-4.08-4.66-4.08-4.66a87.61,87.61,0,0,1-4.21-27.65S21,364.45,34.54,372.6Z"/><path d="M28.22,411.87a3.6,3.6,0,0,0,2.64-.93,4.18,4.18,0,0,0,3.56,2,3.45,3.45,0,0,0,3.33-2.35s1.67,4.62,4.46,4.29a3.07,3.07,0,0,0,2.89-2.53l2.1,3.8a3.25,3.25,0,0,0,4.1,2.21c3.12-.86,2-4.89,2-4.89l-2.73-10.74c0-.06-3-9.09-3.63-9.33l2.82,10.86s-.89,5.06-5.21,3.94a5.3,5.3,0,0,1-6.86.73s-4.37,2.67-7.23-.12c0,0-3.88,2.37-6.48-2.09l.16.45S26.15,411.43,28.22,411.87Z"/><path d="M34.34,185.72a15.73,15.73,0,1,1,30.86,6.12C64.93,193.18,37,286.67,37,286.67a13.3,13.3,0,0,1-26.09-5.18Z"/><path d="M10.4,283.64a13.3,13.3,0,0,1,13.3-13.08,13.74,13.74,0,0,1,13.53,13.36h0s4,23.93-.11,96.7h-17s-12.55-62.49-9.71-95.81C10.44,284.59,10.4,283.64,10.4,283.64Z"/><path class="cls-3" d="M247.48,205.89c-3.89,8.23-10.85,21.87-19,32.73l-41.25-23.24c-1,11.7-2.67,26-5.22,43.2-4,27.25-3.17,39.27-2.88,72.88,1,1.27,2.35,4.82,3.29,6.26,1.84,2.82-3,8.14-3,8.14s-33.83,15.22-112.29.26c-2.75-3.12-4.18-5.63-4.47-7.6-.15-1.08,1.68-4.17,3.39-6.79.53-15.6,1.06-41.4-1.46-62.73-1.42-11.92-4.28-23.72-7.14-34.39-2.06,6.88-4.28,14.24-6.54,21.77-9-1.55-24-4.61-36.61-9.52l15.33-62.14a20.57,20.57,0,0,1,16.31-16c5-1.37,30.76-8.43,52.4-13.14L129,185.86c6.14-12.07,9.51-30.31,9.51-30.31,11,1.72,38.64,8.21,49.56,13.3a19.14,19.14,0,0,1,4.75,2.66l.06,0C198.88,175.24,222.08,189.86,247.48,205.89Z"/><rect x="101.02" y="120.83" width="35.54" height="39.77"/><path d="M101,137.61V120.83h35.55v26.51C130.64,148.06,110.33,149.45,101,137.61Z"/><path d="M159.72,80.19s-4.47,1-6,13.53,1.59,13.61,2.52,14c0,0,11.38,3.19,15.33-15.64C174.83,76.47,159.72,80.19,159.72,80.19Z"/><path d="M156.57,99.11s8.28-4.15,1.81-8.32c0,0,2.18-9.49,7.72-7.35s1.1,11,0,12.88C163.79,100.17,156.57,104.89,156.57,99.11Z"/><path d="M78.38,80.19s4.46,1,6,13.53-1.58,13.61-2.52,14c0,0-11.37,3.19-15.32-15.64C63.27,76.47,78.38,80.19,78.38,80.19Z"/><path d="M81.53,99.11S73.24,95,79.71,90.79c0,0-2.17-9.49-7.72-7.35s-1.1,11,0,12.88C74.3,100.17,81.53,104.89,81.53,99.11Z"/><path d="M119.49,22.67h-.28c-48.82,0-40.45,49.91-40.34,55.09,1.25,6.28,1.32,16.37,2.32,25,3,25.9,21.7,35.68,37.91,35.66l.39,0c16.21,0,35.06-9.53,38-35.71,1-8.63,1.07-18.7,2.32-25C159.93,72.58,168.3,22.67,119.49,22.67Z"/><path d="M91.52,77.27,89.78,74c.43-.26,6.43-6.53,15.51-9l2.33,5.32C99.88,71.62,91.63,77.21,91.52,77.27Z"/><path d="M145.37,77.5l1.86-3.22c-.43-.27-6.2-6.75-15.2-9.53L129.52,70C137.22,71.56,145.26,77.44,145.37,77.5Z"/><path d="M133.59,112.84s-14.5,3-28,0c0,0,2.39,12.41,14,12.38C130.54,125.2,133.47,115.24,133.59,112.84Z"/><path d="M119.29,118.76c-8.92,0-11.54-3.7-12.67-5.71,10.47,2.07,18.91.83,26.26-.08C132.09,115.21,127.7,118.76,119.29,118.76Z"/><path d="M74.75,79.8s-3-22.62-3.16-29.39c0,0-14.61-16.51-6.78-33a18.9,18.9,0,0,0,1.27,5.08S66.94,7.23,78.26,3c0,0,.73,11,13.43,9.74S153.2,1.1,160.43,33.48c0,0,8.93,4.44,8.4,16.93s-4.54,29.42-4.54,29.42-5-.54-5.6,7.83c0,0-.53-17.78-2.12-21.59s-8.79-17.14-9-22.44c0,0-38.3,10.37-60.95,7,0,0-2.73,11.19-4.65,15.45s-.43,21.59-.43,21.59S81.1,81.26,74.75,79.8Z"/><path d="M78.26,3C66.94,7.23,66.08,22.47,66.08,22.47a18.9,18.9,0,0,1-1.27-5.08,24.28,24.28,0,0,0-2.13,13.34,125.45,125.45,0,0,0,68.95-.5S93.49,27.89,83.77,11.51C78.65,8.83,78.26,3,78.26,3Z"/><path d="M147.56,43.64c.22,5.3,7.41,18.62,9,22.43s2.12,21.59,2.12,21.59c.58-8.37,5.6-7.83,5.6-7.83s1.52-6.41,2.81-14.25C156.11,61,147.72,44,147.56,43.64Z"/><path d="M71.52,49.75h0s.07.37.07.37c.21,6.77,3.16,29.54,3.16,29.54,6.35,1.46,6.78,7.92,6.78,7.92S80,70.29,82,66,86.61,50.6,86.61,50.6l.1,0-.13-.34A38.94,38.94,0,0,1,71.52,49.75Z"/><path class="cls-3" d="M136.17,143.53s3-.54,11.43,12a226.47,226.47,0,0,1,2.54,26.36,47.54,47.54,0,0,0-7.9-5.89l-11.42,5.85s4.32-18.12,5.17-27.26C136,154.61,136.17,146.41,136.17,143.53Z"/><path class="cls-3" d="M101.46,142.4l.42,10.44c1.7,4.41,15.93,20.53,22.48,28.46,0,0-11.15-4.73-14.57-4.9,0,0-7.1,4.5-9.6,6.49A155.78,155.78,0,0,1,88.62,155.8S97.23,143.25,101.46,142.4Z"/><path d="M133.76,351.85a.89.89,0,0,0,.85-.87c2.26-119.83-4.38-163.58-4.45-164a.84.84,0,1,0-1.67.25c.07.42,6.68,44.08,4.42,163.72a.88.88,0,0,0,.84.9Z"/><polygon class="cls-3" points="81.31 246.89 96.59 254 111.74 245.17 110.16 217.19 79.73 218.91 81.31 246.89"/><polygon class="cls-3" points="80.22 227.6 79.73 218.91 110.16 217.19 110.65 225.92 96.11 231.13 80.22 227.6"/><path d="M124.51,282.5a3.2,3.2,0,1,1,3.19,3.2A3.19,3.19,0,0,1,124.51,282.5Z"/><path d="M124.51,311.29a3.2,3.2,0,1,1,3.19,3.19A3.19,3.19,0,0,1,124.51,311.29Z"/><path d="M124.51,340.92a3.2,3.2,0,1,1,3.19,3.19A3.19,3.19,0,0,1,124.51,340.92Z"/><path class="cls-3" d="M52.69,249.84a193.11,193.11,0,0,1-37-9.25,3.6,3.6,0,0,0-2.18,3.47c.17,2.51-4.11,8.59-1.68,10.56,0,0,21.87,9.09,37.35,8.67,0,0,2.79-1.62,2.91-6.41S54.45,251.06,52.69,249.84Z"/><path d="M111.51,177s2.7,4.91,17.74,12.12c0,0,11.34-6.2,12.58-12.48l-10.28,5.26-2.12,3.93-4.31-4.26S114.76,177.19,111.51,177Z"/><path d="M123.84,187.83s-5.46,3.87-3.85,5.56,8.1,6.67,10.39,6.87,7.26-8.76,7.17-9.86-4.66-3.58-6-3.68A67.54,67.54,0,0,0,123.84,187.83Z"/><path d="M128.62,199.66s-4.81,9.27-4,12.66.48,73.11,4,79.49,4.78,12.18,6.75,10.07,6.56-8.08,6.36-11.66-2.79-74.12-4.18-79.7-6-12.55-6-12.55Z"/><path d="M132,85.76c0,3.53,2.18,6.22,4.79,6s4.69-3.24,4.66-6.77-2.18-6.22-4.79-6S132,82.23,132,85.76Z"/><path d="M96.15,84.72c0,3.53,2.18,6.22,4.79,6s4.69-3.24,4.66-6.77-2.18-6.22-4.79-6S96.12,81.19,96.15,84.72Z"/><path d="M119.29,105.78c7.93,3.21,12.2-.53,12.52-4.28A5.39,5.39,0,0,0,128.28,96c-4.83-1.88-8.23-9.31-8.27-9.39h0c0,1.71,1.71,8.13,7.83,11.7,1.33.77,2.15,1.58,2,2.79-.18,2.1-3.21,5.24-10.6,4.71Z"/></g><path class="cls-4" d="M130.93,154.18a118.21,118.21,0,0,0-44.76,0S100.07,202,118.27,202,130.93,154.18,130.93,154.18Z"/><path class="cls-4" d="M272.94,113.42c.25.28,1-.27,1.51-.65l17.75-17a2.81,2.81,0,0,1,3.95,0,2.7,2.7,0,0,1-.09,3.86l-18,17.9c-.57.48-.21,1.49.56,1.1L296.81,105a2.62,2.62,0,1,1,3.6,3.8l-19.38,16c-.82.72-.26,1.49.33,1.07h0l15.73-7.56c1.56-.67,2.93-.89,3.67.38a2,2,0,0,1-.88,3.06l-17,10.38c-14.71,14.16-23.63,15.66-23.63,15.66C241.64,149.59,246,135.21,246,135.21a33.71,33.71,0,0,1,0-12.75c.34-1.8,1.22-5.78,2-9.75a3,3,0,0,1,1.27-1.67c1.61-1.66,3.19-3.33,4.4-4.75a27.76,27.76,0,0,0,2.08-2.83c.62-.74,1.6-.24,2.47,1.23a4.92,4.92,0,0,1-.63,5.16s-1.86,2.4-3.54,4.9h0c0,2.24.25,4.16.83,4.33,1.33.41,5.81-1.87,5.81-1.87a17.71,17.71,0,0,0,6.81-6.57L280.21,93s2-3.31,5-1.66,0,5,0,5Z"/><path class="cls-4" d="M164.58,199.3a15.73,15.73,0,1,1,14.35-28c1.21.62,83.46,53.1,83.46,53.1a13.3,13.3,0,0,1-12.13,23.67Z"/><path class="cls-4" d="M268.93,237.18a13.32,13.32,0,0,1-13.76,12.61A13.56,13.56,0,0,1,242.1,236.2h0s-3.17-23.79,3.53-96.4l17,.6s10.34,62.66,6.33,95.86C268.91,236.48,268.93,237.18,268.93,237.18Z"/><path class="cls-5" d="M232.47,199a193.28,193.28,0,0,1-18.9,33.14,3.62,3.62,0,0,0,2.75,3c2.46.51,7.17,6.27,9.72,4.46,0,0,14.65-18.6,18.43-33.62,0,0-.81-3.13-5.39-4.53S234.12,197.63,232.47,199Z"/><path class="cls-4" d="M24.54,369.6s12.65,6.2,14.35,10.11,6.43,13,6.78,15c.87,4.91,4.34,10.91,3.11,11.58s-3.6,2.29-8.26-6.74l2.78,11s1.24,3.92-1.87,4.82a3.25,3.25,0,0,1-4.23-2.14l-2.1-3.8a3.07,3.07,0,0,1-2.89,2.53c-2.79.33-4.46-4.29-4.46-4.29A3.45,3.45,0,0,1,24.42,410a4.18,4.18,0,0,1-3.56-2,3.6,3.6,0,0,1-2.64.93c-2.07-.44-4.08-4.66-4.08-4.66a87.61,87.61,0,0,1-4.21-27.65S11,361.45,24.54,369.6Z"/><path class="cls-6" d="M18.22,408.87a3.6,3.6,0,0,0,2.64-.93,4.18,4.18,0,0,0,3.56,2,3.45,3.45,0,0,0,3.33-2.35s1.67,4.62,4.46,4.29a3.07,3.07,0,0,0,2.89-2.53l2.1,3.8a3.25,3.25,0,0,0,4.1,2.21c3.12-.86,2-4.89,2-4.89l-2.73-10.74c0-.06-3-9.09-3.63-9.33l2.82,10.86s-.89,5.06-5.21,3.94a5.3,5.3,0,0,1-6.86.73s-4.37,2.67-7.23-.12c0,0-3.88,2.37-6.48-2.09l.16.45S16.15,408.43,18.22,408.87Z"/><path class="cls-4" d="M24.34,182.72a15.73,15.73,0,1,1,30.86,6.12C54.93,190.18,27,283.67,27,283.67A13.3,13.3,0,0,1,.93,278.49Z"/><path class="cls-4" d="M.4,280.64a13.3,13.3,0,0,1,13.3-13.08,13.74,13.74,0,0,1,13.53,13.36h0s4,23.93-.11,96.7h-17S-2.42,315.13.42,281.81C.44,281.59.4,280.64.4,280.64Z"/><path class="cls-5" d="M237.48,202.89c-3.89,8.23-10.85,21.87-19,32.73l-41.25-23.24c-1,11.7-2.67,26-5.22,43.2-4,27.25-3.17,39.27-2.88,72.88,1,1.27,2.35,4.82,3.29,6.26,1.84,2.82-3,8.14-3,8.14s-33.83,15.22-112.29.26c-2.75-3.12-4.18-5.63-4.47-7.6-.15-1.08,1.68-4.17,3.39-6.79.53-15.6,1.06-41.4-1.46-62.73-1.42-11.92-4.28-23.72-7.14-34.39-2.06,6.88-4.28,14.24-6.54,21.77-9-1.55-24-4.61-36.61-9.52l15.33-62.14a20.57,20.57,0,0,1,16.31-16c5-1.37,30.76-8.43,52.4-13.14L119,182.86c6.14-12.07,9.51-30.31,9.51-30.31,11,1.72,38.64,8.21,49.56,13.3a19.14,19.14,0,0,1,4.75,2.66l.06,0C188.88,172.24,212.08,186.86,237.48,202.89Z"/><rect class="cls-4" x="91.02" y="117.83" width="35.54" height="39.77"/><path class="cls-6" d="M91,134.61V117.83h35.55v26.51C120.64,145.06,100.33,146.45,91,134.61Z"/><path class="cls-4" d="M149.72,77.19s-4.47,1-6,13.53,1.59,13.61,2.52,14c0,0,11.38,3.19,15.33-15.64C164.83,73.47,149.72,77.19,149.72,77.19Z"/><path class="cls-7" d="M146.57,96.11s8.28-4.15,1.81-8.32c0,0,2.18-9.49,7.72-7.35s1.1,11,0,12.88C153.79,97.17,146.57,101.89,146.57,96.11Z"/><path class="cls-4" d="M68.38,77.19s4.46,1,6,13.53-1.58,13.61-2.52,14c0,0-11.37,3.19-15.32-15.64C53.27,73.47,68.38,77.19,68.38,77.19Z"/><path class="cls-7" d="M71.53,96.11S63.24,92,69.71,87.79c0,0-2.17-9.49-7.72-7.35s-1.1,11,0,12.88C64.3,97.17,71.53,101.89,71.53,96.11Z"/><path class="cls-4" d="M109.49,19.67h-.28c-48.82,0-40.45,49.91-40.34,55.09,1.25,6.28,1.32,16.37,2.32,25,3,25.9,21.7,35.68,37.91,35.66l.39,0c16.21,0,35.06-9.53,38-35.71,1-8.63,1.07-18.7,2.32-25C149.93,69.58,158.3,19.67,109.49,19.67Z"/><path class="cls-8" d="M81.52,74.27,79.78,71c.43-.26,6.43-6.53,15.51-9l2.33,5.32C89.88,68.62,81.63,74.21,81.52,74.27Z"/><path class="cls-8" d="M135.37,74.5l1.86-3.22c-.43-.27-6.2-6.75-15.2-9.53L119.52,67C127.22,68.56,135.26,74.44,135.37,74.5Z"/><path class="cls-9" d="M123.59,109.84s-14.5,3-28,0c0,0,2.39,12.41,14,12.38C120.54,122.2,123.47,112.24,123.59,109.84Z"/><path class="cls-10" d="M109.29,115.76c-8.92,0-11.54-3.7-12.67-5.71,10.47,2.07,18.91.83,26.26-.08C122.09,112.21,117.7,115.76,109.29,115.76Z"/><path class="cls-11" d="M64.75,76.8s-3-22.62-3.16-29.39c0,0-14.61-16.51-6.78-33a18.9,18.9,0,0,0,1.27,5.08S56.94,4.23,68.26,0c0,0,.73,11,13.43,9.74S143.2-1.9,150.43,30.48c0,0,8.93,4.44,8.4,16.93s-4.54,29.42-4.54,29.42-5-.54-5.6,7.83c0,0-.53-17.78-2.12-21.59s-8.79-17.14-9-22.44c0,0-38.3,10.37-60.95,7,0,0-2.73,11.19-4.65,15.45s-.43,21.59-.43,21.59S71.1,78.26,64.75,76.8Z"/><path class="cls-12" d="M68.26,0C56.94,4.23,56.08,19.47,56.08,19.47a18.9,18.9,0,0,1-1.27-5.08,24.28,24.28,0,0,0-2.13,13.34,125.45,125.45,0,0,0,68.95-.5S83.49,24.89,73.77,8.51C68.65,5.83,68.26,0,68.26,0Z"/><path class="cls-13" d="M137.56,40.64c.22,5.3,7.41,18.62,9,22.43s2.12,21.59,2.12,21.59c.58-8.37,5.6-7.83,5.6-7.83s1.52-6.41,2.81-14.25C146.11,58,137.72,41,137.56,40.64Z"/><path class="cls-13" d="M61.52,46.75h0s.07.37.07.37c.21,6.77,3.16,29.54,3.16,29.54,6.35,1.46,6.78,7.92,6.78,7.92S70,67.29,72,63,76.61,47.6,76.61,47.6l.1,0-.13-.34A38.94,38.94,0,0,1,61.52,46.75Z"/><path class="cls-5" d="M126.17,140.53s3-.54,11.43,12a226.47,226.47,0,0,1,2.54,26.36,47.54,47.54,0,0,0-7.9-5.89l-11.42,5.85s4.32-18.12,5.17-27.26C126,151.61,126.17,143.41,126.17,140.53Z"/><path class="cls-5" d="M91.46,139.4l.42,10.44c1.7,4.41,15.93,20.53,22.48,28.46,0,0-11.15-4.73-14.57-4.9,0,0-7.1,4.5-9.6,6.49A155.78,155.78,0,0,1,78.62,152.8S87.23,140.25,91.46,139.4Z"/><path class="cls-14" d="M123.76,348.85a.89.89,0,0,0,.85-.87c2.26-119.83-4.38-163.58-4.45-164a.84.84,0,1,0-1.67.25c.07.42,6.68,44.08,4.42,163.72a.88.88,0,0,0,.84.9Z"/><polygon class="cls-5" points="71.31 243.89 86.59 251 101.74 242.17 100.16 214.19 69.73 215.91 71.31 243.89"/><polygon class="cls-5" points="70.22 224.6 69.73 215.91 100.16 214.19 100.65 222.92 86.11 228.13 70.22 224.6"/><path class="cls-15" d="M114.51,279.5a3.2,3.2,0,1,1,3.19,3.2A3.19,3.19,0,0,1,114.51,279.5Z"/><path class="cls-15" d="M114.51,308.29a3.2,3.2,0,1,1,3.19,3.19A3.19,3.19,0,0,1,114.51,308.29Z"/><path class="cls-15" d="M114.51,337.92a3.2,3.2,0,1,1,3.19,3.19A3.19,3.19,0,0,1,114.51,337.92Z"/><path class="cls-5" d="M42.69,246.84a193.11,193.11,0,0,1-37-9.25,3.6,3.6,0,0,0-2.18,3.47c.17,2.51-4.11,8.59-1.68,10.56,0,0,21.87,9.09,37.35,8.67,0,0,2.79-1.62,2.91-6.41S44.45,248.06,42.69,246.84Z"/><path class="cls-16" d="M101.51,174s2.7,4.91,17.74,12.12c0,0,11.34-6.2,12.58-12.48l-10.28,5.26-2.12,3.93-4.31-4.26S104.76,174.19,101.51,174Z"/><path class="cls-16" d="M113.84,184.83s-5.46,3.87-3.85,5.56,8.1,6.67,10.39,6.87,7.26-8.76,7.17-9.86-4.66-3.58-6-3.68A67.54,67.54,0,0,0,113.84,184.83Z"/><path class="cls-16" d="M118.62,196.66s-4.81,9.27-4,12.66.48,73.11,4,79.49,4.78,12.18,6.75,10.07,6.56-8.08,6.36-11.66-2.79-74.12-4.18-79.7-6-12.55-6-12.55Z"/><path class="cls-17" d="M122,82.76c0,3.53,2.18,6.22,4.79,6s4.69-3.24,4.66-6.77-2.18-6.22-4.79-6S122,79.23,122,82.76Z"/><path class="cls-17" d="M86.15,81.72c0,3.53,2.18,6.22,4.79,6S95.63,84.49,95.6,81s-2.18-6.22-4.79-6S86.12,78.19,86.15,81.72Z"/><path class="cls-7" d="M109.29,102.78c7.93,3.21,12.2-.53,12.52-4.28A5.39,5.39,0,0,0,118.28,93c-4.83-1.88-8.23-9.31-8.27-9.39h0c0,1.71,1.71,8.13,7.83,11.7,1.33.77,2.15,1.58,2,2.79-.18,2.1-3.21,5.24-10.6,4.71Z"/></g></g></g></svg>