<svg xmlns="http://www.w3.org/2000/svg" viewBox="0 0 265.16 286.09"><defs><style>.cls-1,.cls-5{fill:#fff;}.cls-2{fill:#10100c;}.cls-3{fill:#ffb554;}.cls-4{fill:#3d3d3d;}.cls-5,.cls-6{stroke:#10100c;stroke-linecap:round;stroke-linejoin:round;stroke-width:0.5px;}.cls-6{fill:none;}.cls-7{font-size:24px;font-family:MyriadPro-Regular, Myriad Pro;}</style></defs><title>img03</title><g id="Capa_2" data-name="Capa 2"><g id="IMG03"><path class="cls-1" d="M208.42,57.36l.15-1.67-.35-15.81-1.71-13.16-13.06-8.49-10.13,3a23.71,23.71,0,0,1-.31,3.51s-1,19.3,1.23,23c2.09,3.45,7,3.77,8.11,5.75C193.72,56,194,62.3,194,62.3S206.05,62.61,208.42,57.36Z"/><path class="cls-2" d="M208.42,57.36l-.12.25c-.09.16-.22.41-.41.72a7.55,7.55,0,0,1-2.46,2C203,61.6,199,62.46,194,62.47a.17.17,0,0,1-.17-.16h0c-.07-1.3-.2-2.67-.4-4.1a16.54,16.54,0,0,0-1.1-4.32,3.25,3.25,0,0,0-1.64-1.49c-.71-.38-1.48-.7-2.24-1.06a9.77,9.77,0,0,1-4.21-3.19,2.56,2.56,0,0,1-.33-.61,6.11,6.11,0,0,1-.27-.66c-.11-.45-.27-.9-.34-1.36-.18-.91-.3-1.84-.4-2.78-.17-1.89-.26-3.81-.31-5.78-.07-3.93,0-8,.2-12.2v0l.13-1.13.12-1.21,0-.6v-.53h0s0,0,0,0,0,.1.18.19.28-.11.29-.12a.06.06,0,0,0,0,0h0s0,0,0,0l-.34-.27,10.14-3a.22.22,0,0,1,.21,0l13,8.51a.23.23,0,0,1,.1.16c.62,4.87,1.18,9.3,1.67,13.17v0c.14,7.77.22,13.31.23,15.81h0L208.48,57a1.68,1.68,0,0,1-.06.4,2.07,2.07,0,0,1,0-.41l.09-1.27h0c-.1-2.5-.27-8-.48-15.81v0c-.51-3.86-1.1-8.28-1.75-13.15l.1.16-13.06-8.47.21,0-10.14,3a.26.26,0,0,1-.32-.17.18.18,0,0,1,0-.1.19.19,0,0,1,0-.08v0l0,0s.05-.15.29-.11.16.17.18.19v0h0v.61l0,.61-.12,1.23-.14,1.14v0c-.2,4.17-.27,8.24-.21,12.16,0,2,.13,3.88.29,5.74.1.93.21,1.85.38,2.74.08.45.22.87.32,1.3a5.39,5.39,0,0,0,.25.6,2.17,2.17,0,0,0,.3.56,9.3,9.3,0,0,0,4,3c.75.36,1.52.69,2.25,1.08a6.55,6.55,0,0,1,1.05.69,2.7,2.7,0,0,1,.77,1,16.56,16.56,0,0,1,1.1,4.45,41.52,41.52,0,0,1,.37,4.14l-.17-.17c4.94,0,8.93-.76,11.37-2a7.68,7.68,0,0,0,2.47-1.87l.44-.68A1.29,1.29,0,0,1,208.42,57.36Z"/><path class="cls-2" d="M186.8,32.93c-.06-.43,0-.93-.3-1.28l-.08,0a1.08,1.08,0,0,0-.93,0,1,1,0,0,0-.39.77,3.66,3.66,0,0,0,.19,1.22,2.28,2.28,0,0,0,.24.61.75.75,0,0,0,.49.38.77.77,0,0,0,.77-.58A2.57,2.57,0,0,0,186.8,32.93Z"/><path class="cls-2" d="M196.5,33.13c-.06-.42,0-.93-.3-1.28l-.08-.05a1.08,1.08,0,0,0-.93,0,1,1,0,0,0-.39.77A3.66,3.66,0,0,0,195,33.8a2.64,2.64,0,0,0,.23.61.77.77,0,0,0,.5.37.75.75,0,0,0,.77-.58A2.75,2.75,0,0,0,196.5,33.13Z"/><path class="cls-2" d="M189.66,51.66l1.69.74c.52.56,1.44,1.4,1.44,2.17a15.65,15.65,0,0,0,8.32-5.5A32.31,32.31,0,0,1,189.66,51.66Z"/><path class="cls-1" d="M207.58,45.06a5.8,5.8,0,0,0,4.24-1.83,5.36,5.36,0,0,0,1.4-4.17,4.77,4.77,0,0,0-2.52-4,3.57,3.57,0,0,0-4.38,1.06"/><path class="cls-2" d="M207.58,45.06a5.45,5.45,0,0,0,2.26-.59,5.6,5.6,0,0,0,1.84-1.38,5.68,5.68,0,0,0,1.11-2,5.54,5.54,0,0,0,.16-2.26,4.54,4.54,0,0,0-2.43-3.59,3.54,3.54,0,0,0-4.2.92,3.57,3.57,0,0,1,4.35-1.28,4.87,4.87,0,0,1,2.77,3.89,5.87,5.87,0,0,1-.22,2.46A5.69,5.69,0,0,1,212,43.35,5.57,5.57,0,0,1,207.58,45.06Z"/><path class="cls-1" d="M210.14,37.17a4.82,4.82,0,0,0-3.57,3.18,3.13,3.13,0,0,1,.66-.94,1,1,0,0,1,1.08-.21c.48.22.59.86.58,1.39a2.72,2.72,0,0,1-.2,1.1,1.2,1.2,0,0,1-.8.72"/><path d="M210.14,37.17a5.11,5.11,0,0,0-3.34,3.26l-.45-.19A2.39,2.39,0,0,1,207.46,39a1.08,1.08,0,0,1,1.51.71,3.41,3.41,0,0,1,0,1.62,1.38,1.38,0,0,1-1.06,1.09,1.32,1.32,0,0,0,.8-1.15,3.06,3.06,0,0,0-.11-1.42.64.64,0,0,0-.93-.4,2.09,2.09,0,0,0-.86,1l-.45-.19A4.57,4.57,0,0,1,210.14,37.17Z"/><path class="cls-2" d="M192.81,39.37c0,.06-.57.05-1.34-.41a3.94,3.94,0,0,1-1.12-1.06,3.57,3.57,0,0,1-.44-.82l-.09-.24a.52.52,0,0,1,.05-.44.66.66,0,0,1,.7-.18l1.87.29-.28.24a10.05,10.05,0,0,1,.18-2.76,10.44,10.44,0,0,1,.3,2.75.22.22,0,0,1-.22.24h0l-1.88-.25a.65.65,0,0,0-.19,0h0c0-.06-.05-.08,0-.07h.08a.18.18,0,0,0,0,.05l.06.19a3.82,3.82,0,0,0,.36.73,4.32,4.32,0,0,0,.94,1C192.32,39.15,192.83,39.29,192.81,39.37Z"/><path class="cls-2" d="M195.46,27.4a1,1,0,0,1,.63-.31,2.8,2.8,0,0,1,.71,0h.06a2.23,2.23,0,0,1,.36.05,3.1,3.1,0,0,1,.4.13l0,0a2.13,2.13,0,0,1,.42.23l0,0h0l.07,0a1.49,1.49,0,0,1,.56.7.82.82,0,0,1-.19.87.92.92,0,0,1-.54.13h-.79a3.49,3.49,0,0,1-1-.08,1.37,1.37,0,0,1-.83-.65A1.07,1.07,0,0,1,195.46,27.4Z"/><path class="cls-2" d="M185.28,27.32a1.09,1.09,0,0,1,.63-.32,2.82,2.82,0,0,1,.71,0h.06a2.25,2.25,0,0,1,.36.06,2.16,2.16,0,0,1,.41.13h0a3,3,0,0,1,.42.24l.05,0h0l.07,0a1.47,1.47,0,0,1,.56.69.82.82,0,0,1-.2.88.89.89,0,0,1-.53.12h-.8a3.53,3.53,0,0,1-1-.09,1.33,1.33,0,0,1-.82-.64A1.06,1.06,0,0,1,185.28,27.32Z"/><path class="cls-2" d="M196.75,42.89c0-.08.55-.09,1-.72a2.57,2.57,0,0,0-.37-2.72l-.45-.67h.41a5.55,5.55,0,0,1-3,2.15,20.22,20.22,0,0,0,2.6-2.46.25.25,0,0,1,.36,0l0,0h0c.15.21.32.44.47.69a3.81,3.81,0,0,1,.64,1.72,2.05,2.05,0,0,1-.42,1.49,1.46,1.46,0,0,1-.88.54C196.89,43,196.75,42.92,196.75,42.89Z"/><path class="cls-1" d="M182.78,27l-.7-.79c-1.22-1.17-3-1.17-4.61-3.22-2.25-2.78-.56-5.07-.56-5.07,2-3.2,6.62-3.21,10-2-1.81-.81-5.3-1.61-4.66-3.62.57-2.74,6-2.59,11.16-.59-3-1.51-2.79-3.81-.45-3.23l11.51,4a13.35,13.35,0,0,1,4.29,2.08c2.86,2.35,4,6.67,4.16,10.37a25.24,25.24,0,0,1-1.31,9,9.85,9.85,0,0,1-.58,1.44,4.31,4.31,0,0,0-1.1-.45,5,5,0,0,0-2.54.34,2.47,2.47,0,0,0-1.28,1.28,9.35,9.35,0,0,1-.76,2,1.7,1.7,0,0,1-1.77.87,1.6,1.6,0,0,1-1-1.21,4.63,4.63,0,0,1,0-1.66q.45-3.74.92-7.47c-5.28-1.21-8.48-5-9.34-10.29l-.07-.05a2.13,2.13,0,0,1-2,2.2,19.21,19.21,0,0,1-4.1-.33s-1.33,3.86-4.71,2.39Z"/><path class="cls-2" d="M182.78,27c.05-.54.14-1.68.34-4.07a.11.11,0,0,1,.1-.08h0a3.08,3.08,0,0,0,2.53.06,4.29,4.29,0,0,0,2-2.41.14.14,0,0,1,.16-.09,19.38,19.38,0,0,0,3.44.31,2.54,2.54,0,0,0,1.72-.39,2.33,2.33,0,0,0,.75-1.67.17.17,0,0,1,.19-.16l.08,0,.06,0a.16.16,0,0,1,.08.12,13.26,13.26,0,0,0,2.68,6.2,11.6,11.6,0,0,0,6.54,3.91.22.22,0,0,1,.17.24c-.18,1.47-.37,3-.55,4.52l-.29,2.35a6,6,0,0,0,0,2.3,1.4,1.4,0,0,0,.62.82,1,1,0,0,0,1,0,2.78,2.78,0,0,0,1.24-1.89l.19-.61a2,2,0,0,1,.34-.63,3.16,3.16,0,0,1,1.08-.88,4.85,4.85,0,0,1,2.71-.37h0a4.88,4.88,0,0,1,1.18.48l-.38.1a22.66,22.66,0,0,0,.71-16.15,10.06,10.06,0,0,0-3.22-4.58,19.73,19.73,0,0,0-5.13-2.22L192.84,8.7h0a1.6,1.6,0,0,0-1.21.06c-.31.17-.3.61-.13,1a4.36,4.36,0,0,0,1.95,1.74.24.24,0,0,1,.11.32.25.25,0,0,1-.3.12,21.23,21.23,0,0,0-6.06-1.45,9,9,0,0,0-2.9.2,3.27,3.27,0,0,0-1.23.59,2,2,0,0,0-.67,1.07v0a1.29,1.29,0,0,0,.36,1.33,4.82,4.82,0,0,0,1.3.86c1,.46,1.94.77,2.88,1.18a.2.2,0,0,1,.1.26.19.19,0,0,1-.24.1,11.47,11.47,0,0,0-5.69-.63A5.77,5.77,0,0,0,177,18h0a3.86,3.86,0,0,0-.22,3.67,6.44,6.44,0,0,0,2,2.42,13.28,13.28,0,0,0,2.06,1.19,4.82,4.82,0,0,1,1.28.89h0l.68.82-.73-.77h0a5.34,5.34,0,0,0-1.3-.82,12.77,12.77,0,0,1-2.1-1.16,6.6,6.6,0,0,1-2.07-2.47,4.12,4.12,0,0,1,.21-3.94h0a6.09,6.09,0,0,1,4.28-2.7,11.85,11.85,0,0,1,5.88.61l-.15.36c-.91-.4-1.91-.71-2.9-1.18a5,5,0,0,1-1.42-.93,1.73,1.73,0,0,1-.46-1.75v0a2.5,2.5,0,0,1,.81-1.32,3.73,3.73,0,0,1,1.39-.67,9.18,9.18,0,0,1,3.05-.23,21.64,21.64,0,0,1,6.2,1.45l-.19.44a4.89,4.89,0,0,1-2.18-2,1.61,1.61,0,0,1-.16-.82,1,1,0,0,1,.46-.78,2,2,0,0,1,1.6-.13h0l10.29,3.53a20.71,20.71,0,0,1,5.27,2.29A10.51,10.51,0,0,1,212,18.88a21,21,0,0,1,1.17,8.53,25.55,25.55,0,0,1-.63,4.13q-.24,1-.54,2c-.18.65-.49,1.28-.73,1.91a.24.24,0,0,1-.3.14l0,0h0a4.19,4.19,0,0,0-1-.41h0a4.58,4.58,0,0,0-2.41.32,2.73,2.73,0,0,0-.91.74,1.44,1.44,0,0,0-.26.49l-.19.6a5.81,5.81,0,0,1-.5,1.22,2.35,2.35,0,0,1-1,.95,1.49,1.49,0,0,1-1.42,0,1.89,1.89,0,0,1-.84-1.09,6.15,6.15,0,0,1,0-2.5l.29-2.35q.3-2.33.57-4.53l.17.24a12,12,0,0,1-6.75-4.08,13.5,13.5,0,0,1-2.71-6.4l.08.12-.07,0,.26-.13a2.65,2.65,0,0,1-.89,1.9,2.84,2.84,0,0,1-1.92.44,19,19,0,0,1-3.5-.36l.16-.09a4.6,4.6,0,0,1-2.17,2.54,3.29,3.29,0,0,1-2.7-.11l.12-.07c-.17,1.31-.29,2.32-.38,3l-.1.76C182.79,26.9,182.78,27,182.78,27Z"/><path class="cls-3" d="M197.52,65.77c-.26,0,1.35,3.19,1.35,3.19l3.3-.27.7-3.4L201,62.48l-2,.38Z"/><path class="cls-4" d="M176.66,127.78c-2.19,0-5.2,66.18-4.93,77.39s-.63,70-.63,70h26.6l3.3-88.29,4.86,88.06h30.42l-6.68-111s2.07-9,1.21-15.86-4.65-20.23-4.65-20.23Z"/><path class="cls-1" d="M205.86,274.91a1,1,0,0,1-.05-.29l-.07-.88c-.05-.81-.13-1.95-.22-3.39-.18-3-.42-7.22-.73-12.45-.57-10.56-1.34-25.07-2.2-41.11s-1.53-30.56-2.06-41.11c-.23-5.23-.42-9.48-.56-12.46q-.08-2.17-.12-3.39l0-.88a.86.86,0,0,1,0-.3,1.4,1.4,0,0,1,0,.3l.07.88c.05.81.13,1.94.22,3.38.18,3,.43,7.22.73,12.46.57,10.55,1.35,25.06,2.21,41.1s1.52,30.56,2,41.11c.23,5.23.43,9.48.56,12.46.05,1.44.1,2.58.13,3.39l0,.88C205.87,274.81,205.86,274.91,205.86,274.91Z"/><path class="cls-1" d="M196.34,150.1a14.84,14.84,0,0,1-.54-2.9c-.24-1.81-.49-4.31-.62-7.09s-.11-5.3,0-7.12a14,14,0,0,1,.26-2.93,17.74,17.74,0,0,1,.11,2.94c0,1.81.06,4.32.18,7.08s.32,5.27.47,7.08A19.67,19.67,0,0,1,196.34,150.1Z"/><path class="cls-1" d="M198.58,130.62s.12-.12.42-.15a1.77,1.77,0,0,1,1.16.36,2,2,0,0,1,.88,1.62,2,2,0,0,1-3.57,1.14,2.09,2.09,0,0,1-.23-1.83,1.8,1.8,0,0,1,.75-1c.25-.15.42-.15.43-.13s-.6.3-.82,1.2a1.71,1.71,0,0,0,.26,1.43,1.45,1.45,0,0,0,1.61.4,1.46,1.46,0,0,0,1.09-1.27,1.77,1.77,0,0,0-.62-1.31A2.47,2.47,0,0,0,198.58,130.62Z"/><path class="cls-1" d="M211.87,136.62a11.35,11.35,0,0,1-.58-3.34,11.26,11.26,0,0,1-.06-3.4,11.56,11.56,0,0,1,.58,3.35A11.17,11.17,0,0,1,211.87,136.62Z"/><path class="cls-1" d="M215.11,135.84a8.05,8.05,0,0,1-.56-2.79,8,8,0,0,1-.05-2.85,7.67,7.67,0,0,1,.57,2.79A7.64,7.64,0,0,1,215.11,135.84Z"/><path class="cls-1" d="M182.35,136.31a10.41,10.41,0,0,1-.71-3.18,10.53,10.53,0,0,1-.2-3.25,10.41,10.41,0,0,1,.71,3.18A9.84,9.84,0,0,1,182.35,136.31Z"/><path class="cls-1" d="M185.67,136.47a12,12,0,0,1-.5-6.12,12.53,12.53,0,0,1,.37,3.05A12,12,0,0,1,185.67,136.47Z"/><path class="cls-1" d="M182.78,265.65a1.11,1.11,0,0,1,0-.26l-.05-.75c0-.66-.1-1.64-.12-2.9-.07-2.52-.08-6.17.2-10.67a132,132,0,0,1,1.91-15.71c.53-2.94,1.2-6,2-9.14.39-1.57.9-3.16,1.26-4.76a9.18,9.18,0,0,0,0-4.88,3.23,3.23,0,0,0-1.53-1.74,6.91,6.91,0,0,0-2.36-.53,5.67,5.67,0,0,1-2.46-.77,6,6,0,0,1-1.81-1.79,8.69,8.69,0,0,1-1.36-4.64,30,30,0,0,1,.31-4.6c.72-5.92,1.68-11.2,2.64-15.61s1.92-7.92,2.62-10.34c.36-1.21.65-2.14.86-2.77l.24-.72a1,1,0,0,1,.09-.23.7.7,0,0,1,0,.25l-.19.73c-.19.68-.44,1.61-.76,2.8-.64,2.43-1.55,6-2.46,10.36s-1.84,9.68-2.52,15.59a29.42,29.42,0,0,0-.3,4.52,8.35,8.35,0,0,0,1.29,4.38,5.61,5.61,0,0,0,1.66,1.63,5.21,5.21,0,0,0,2.25.7,7.09,7.09,0,0,1,2.54.58,3.73,3.73,0,0,1,1.77,2,9.56,9.56,0,0,1,.05,5.17c-.38,1.66-.88,3.2-1.27,4.78-.82,3.13-1.5,6.17-2,9.09a137.54,137.54,0,0,0-2,15.66c-.33,4.48-.37,8.12-.36,10.64,0,1.22,0,2.19,0,2.9v.75A1.33,1.33,0,0,1,182.78,265.65Z"/><path class="cls-1" d="M110.76,48.27a1.41,1.41,0,0,1,2.29-.13,70,70,0,0,0,7.71,7.77c4.31,3.58,2.94,7.71,2.94,7.71l-6.58,8s-12.45-4.7-17.32-10.31c-3.45-4-5.62-6.3-5.18-7.18s2.24-.52,2.24-.52A2.66,2.66,0,0,1,97,50.91C98,49.8,100.2,52,100.2,52s-.64-2.37,1.32-2.52,4.57,4,8.76,5.83,3.66-.44,3.66-.44-2.83-2.76-3.35-5A2.09,2.09,0,0,1,110.76,48.27Z"/><path class="cls-2" d="M110.76,48.27a2.35,2.35,0,0,0,0,1.93A13.66,13.66,0,0,0,114,54.77h0s0,0,0,.06a1.11,1.11,0,0,1-.22.95,1.35,1.35,0,0,1-.94.37,5.91,5.91,0,0,1-2-.4,14.09,14.09,0,0,1-3.85-2.14c-1.27-.93-2.45-2.11-3.8-3.15a2.43,2.43,0,0,0-2.23-.67c-.77.26-.86,1.32-.65,2.14a.23.23,0,0,1-.17.28.25.25,0,0,1-.22,0,6.54,6.54,0,0,0-1.21-.94,1.8,1.8,0,0,0-1.34-.35A1.38,1.38,0,0,0,96.8,52a3.06,3.06,0,0,0,.28,1.51.24.24,0,0,1-.12.33.26.26,0,0,1-.15,0,2.89,2.89,0,0,0-1.66.11.48.48,0,0,0-.32.5,2.27,2.27,0,0,0,.31.78,25.34,25.34,0,0,0,2.37,3.05c.86,1,1.74,2,2.65,3a22,22,0,0,0,3,2.7,65.51,65.51,0,0,0,14,7.37l-.27.07,6.6-8,0,.07A6.64,6.64,0,0,0,123,59a9.74,9.74,0,0,0-2.7-3.26,58.46,58.46,0,0,1-5-5c-.66-.72-1.24-1.38-1.73-2-.25-.28-.47-.57-.68-.78a1.4,1.4,0,0,0-.73-.36A1.34,1.34,0,0,0,111,48a3.55,3.55,0,0,0-.28.29.83.83,0,0,1,.24-.34,1.4,1.4,0,0,1,1.14-.36,1.53,1.53,0,0,1,.82.36c.25.24.46.5.72.78.5.57,1.09,1.21,1.76,1.92a65.46,65.46,0,0,0,5.09,4.85,10.06,10.06,0,0,1,2.83,3.35,7,7,0,0,1,.55,4.86l0,.06h0l-6.56,8a.25.25,0,0,1-.28.08,65.09,65.09,0,0,1-14.13-7.41,21.83,21.83,0,0,1-3.13-2.78c-.91-1-1.78-2-2.65-3a25.14,25.14,0,0,1-2.42-3.13,2.86,2.86,0,0,1-.37-1,1,1,0,0,1,.59-1,3.34,3.34,0,0,1,2-.14l-.27.35A3.33,3.33,0,0,1,96.32,52a2,2,0,0,1,.29-.89,1.42,1.42,0,0,1,.73-.65,2.28,2.28,0,0,1,1.73.4,8.12,8.12,0,0,1,1.3,1l-.39.22a3.3,3.3,0,0,1,0-1.5,1.56,1.56,0,0,1,1-1.17,2.07,2.07,0,0,1,1.47,0,5.44,5.44,0,0,1,1.17.71c1.39,1.09,2.54,2.26,3.78,3.19a14.15,14.15,0,0,0,3.73,2.13,5.76,5.76,0,0,0,1.84.4,1,1,0,0,0,.73-.26.83.83,0,0,0,.16-.69l0,.07a13.22,13.22,0,0,1-3.22-4.72,2.61,2.61,0,0,1-.09-1.51A1.17,1.17,0,0,1,110.76,48.27Z"/><path class="cls-1" d="M96.86,53.63l8.43,7.08s10.63-1.66,13.27,6.57"/><path class="cls-2" d="M118.56,67.28A15.34,15.34,0,0,0,116.44,64a9.64,9.64,0,0,0-3.51-2.26,15.85,15.85,0,0,0-5.09-.9,18.61,18.61,0,0,0-2.51.12h0a.22.22,0,0,1-.19-.06c-2.4-2-4.48-3.82-6-5.12a21.57,21.57,0,0,1-2.31-2.15,20.83,20.83,0,0,1,2.52,1.9c1.54,1.23,3.67,3,6.08,5l-.21,0a18.54,18.54,0,0,1,2.6-.15,15.52,15.52,0,0,1,5.25,1,9.56,9.56,0,0,1,3.61,2.45l.57.69a5.71,5.71,0,0,1,.42.68,4.87,4.87,0,0,1,.55,1.14A4.65,4.65,0,0,1,118.56,67.28Z"/><path class="cls-1" d="M100.2,52c.44.27,7.66,5.91,7.66,5.91"/><path class="cls-2" d="M107.86,57.91a23.22,23.22,0,0,1-4-2.74A23.57,23.57,0,0,1,100.2,52a22.71,22.71,0,0,1,4,2.74A23.12,23.12,0,0,1,107.86,57.91Z"/><path class="cls-1" d="M256.53,82.89,233.3,65.33a14.61,14.61,0,0,0-5.46-2.72l-17.42-4.5-2.23-3.06L200,61.11l-7.83-4.77L188,60.09l-17.07,4.4L149.58,77.85,125.46,59.63,114.34,73.26l30.38,24.3a10.66,10.66,0,0,0,12.31.72L174.4,87.43l2.5,16.31-1.45,20.08c-.1,1.34-.14,4,1.21,4l49.3.34c1.45,0,.79-3.09.63-4.53l-2.5-23.6,2.2-11.89,19.4,9.31-9.33,9.87-5.89,5.23L238.08,125l6.12-3.81L261.61,105C268.39,97.41,264.49,89.28,256.53,82.89Z"/><path class="cls-2" d="M256.53,82.89s.45.35,1.32,1.07a29.18,29.18,0,0,1,3.49,3.57A16.54,16.54,0,0,1,265,94.74a10.86,10.86,0,0,1-.3,5.18,14.15,14.15,0,0,1-3,5.12h0l-17.38,16.29,0,0-6.11,3.82a.16.16,0,0,1-.23,0h0l-7.63-12.52a.19.19,0,0,1,0-.23l5.88-5.23h0l9.32-9.88.06.33-19.41-9.31.31-.15c-.68,3.68-1.43,7.75-2.19,11.9V100c.81,7.55,1.65,15.4,2.51,23.49a25.14,25.14,0,0,1,.3,3.07,2.2,2.2,0,0,1-.53,1.62,1.36,1.36,0,0,1-.89.21h-.78l-6.24,0-12.74-.08-26.43-.18H177a1.64,1.64,0,0,1-1-.21,2.44,2.44,0,0,1-.78-1.69,10.14,10.14,0,0,1-.07-1.74l.48-6.84q.5-6.87,1-13.84v.06c-.77-5.06-1.6-10.47-2.44-15.93l0-.38.39.19-15.95,10a14.74,14.74,0,0,1-4.19,2.11,10.93,10.93,0,0,1-9-1.37c-1.29-.9-2.41-1.89-3.61-2.82L114.18,73.45a.25.25,0,0,1,0-.35h0l11.13-13.62a.25.25,0,0,1,.34,0l24.11,18.23h-.26l21.31-13.34s0,0,.06,0l17.08-4.39-.08,0,4.26-3.74a.18.18,0,0,1,.22,0L200.13,61h-.2l8.16-6.06a.16.16,0,0,1,.23,0h0L210.55,58l-.09-.06L222,61l5.28,1.37a15.25,15.25,0,0,1,4.74,2c5.31,3.91,9.72,7.34,13.36,10.08l8.28,6.32,2.13,1.63.71.57-.74-.53-2.15-1.6-8.34-6.25c-3.65-2.71-8.1-6.15-13.39-10a14.85,14.85,0,0,0-4.66-1.91L222,61.23l-11.58-3a.15.15,0,0,1-.09-.06l-2.24-3.06.23,0-8.14,6.07a.17.17,0,0,1-.2,0l-7.83-4.76.23,0c-1.36,1.19-2.73,2.41-4.25,3.75a.12.12,0,0,1-.08,0L170.94,64.7l.06,0L149.7,78a.21.21,0,0,1-.25,0L125.32,59.82l.33,0L114.53,73.42l0-.36,27.6,22.07c1.19.92,2.36,2,3.57,2.79a10.31,10.31,0,0,0,4.15,1.59,10.46,10.46,0,0,0,4.45-.28,14.81,14.81,0,0,0,4.06-2.06l15.94-10a.26.26,0,0,1,.36.09.3.3,0,0,1,0,.1l.06.37c.83,5.46,1.66,10.87,2.44,15.93v.06q-.51,7-1,13.84c-.16,2.28-.32,4.56-.49,6.82a10,10,0,0,0,.07,1.65,2,2,0,0,0,.56,1.34,1.08,1.08,0,0,0,.67.11h2.53l26.44.19,12.74.09,6.25.05h.77a.9.9,0,0,0,.59-.1,1.8,1.8,0,0,0,.34-1.24,24.09,24.09,0,0,0-.29-3c-.85-8.09-1.68-15.94-2.48-23.49V100c.77-4.14,1.53-8.21,2.21-11.89a.23.23,0,0,1,.26-.18l0,0,19.4,9.33a.2.2,0,0,1,.09.27l0,0-9.34,9.86h0l-5.9,5.23,0-.24L238.22,125l-.23-.06,6.13-3.8h0l17.44-16.23h0a14,14,0,0,0,3-5,10.7,10.7,0,0,0,.31-5.08,16.44,16.44,0,0,0-3.56-7.18,31.25,31.25,0,0,0-3.43-3.6Z"/><polygon class="cls-3" points="198.5 68.52 193.8 115.25 201.09 123.75 206.96 115.22 202.13 68.38 198.5 68.52"/><path class="cls-2" d="M171.1,70.88a3,3,0,0,1,.32.91c.17.59.38,1.46.64,2.53.49,2.16,1.09,5.15,1.65,8.47,1.15,6.64,1.74,12.08,1.5,12.1A4.74,4.74,0,0,1,175,94l-.42-2.58c-.39-2.31-.88-5.24-1.42-8.49s-1.1-6.31-1.51-8.48A31.33,31.33,0,0,1,171.1,70.88Z"/><path class="cls-2" d="M210.47,58.84A10.36,10.36,0,0,1,209,60.66c-.94,1.08-2.26,2.54-3.74,4.14l-.56.59a2.13,2.13,0,0,1-.68.55.94.94,0,0,1-1-.12,3,3,0,0,1-.56-.56,23.33,23.33,0,0,1-1.36-2.14c-.7-1.24-1.17-2-1.13-2a6.67,6.67,0,0,1,1.45,1.82c.4.58.85,1.32,1.42,2,.29.34.63.69.93.51a5.91,5.91,0,0,0,1.06-1c1.49-1.59,2.85-3,3.86-4A10.21,10.21,0,0,1,210.47,58.84Z"/><path class="cls-2" d="M188.42,60.25a11.91,11.91,0,0,1,2,1.44c1.19.94,2.82,2.26,4.6,3.75.44.37.87.78,1.27.8s.64-.43.9-.86l1.42-2.26a11.61,11.61,0,0,1,1.43-2,11.67,11.67,0,0,1-1.11,2.2l-1.33,2.32a5.14,5.14,0,0,1-.44.68,1.12,1.12,0,0,1-.89.44,3,3,0,0,1-1.58-.91c-1.78-1.49-3.37-2.86-4.51-3.87A11.54,11.54,0,0,1,188.42,60.25Z"/><circle cx="126.01" cy="65.39" r="1.04"/><path class="cls-2" d="M229.6,69a26.79,26.79,0,0,1-.46,3.57c-.38,2.33-.85,5.29-1.38,8.56s-1.13,6.36-1.59,8.53c-.24,1.08-.44,2-.59,2.56a3.58,3.58,0,0,1-.3.93,28,28,0,0,1,.52-3.56c.4-2.33.89-5.28,1.44-8.55s1.1-6.36,1.54-8.54c.21-1.09.4-2,.54-2.57A3.47,3.47,0,0,1,229.6,69Z"/><path class="cls-2" d="M234.85,112.53a1,1,0,1,1-2.08,0,1,1,0,1,1,2.08,0Z"/><path d="M132.25,64.76a11.36,11.36,0,0,1-1.37,2.17c-.92,1.3-2.24,3-3.73,4.95l-3.85,4.85a14.53,14.53,0,0,1-1.67,2A11.16,11.16,0,0,1,123,76.51c.91-1.3,2.23-3.05,3.73-5l3.84-4.85A14.53,14.53,0,0,1,132.25,64.76Z"/><path class="cls-2" d="M244.24,118.93A45.34,45.34,0,0,1,240,113.5a47.81,47.81,0,0,1-3.88-5.74,45.77,45.77,0,0,1,4.3,5.43A47,47,0,0,1,244.24,118.93Z"/><path class="cls-1" d="M237.47,124.09a49.79,49.79,0,0,1-6.83,4,4,4,0,0,1-5.24-1.86l-1-1.88s-5,4.88-7.05,3.13a2.39,2.39,0,0,1,.14-2.59s-2.62.45-1.71-2.4c0,0-2.26-.89-1-3.45a2.5,2.5,0,0,1-.69-3.62c1.47-2.25,6.59-5.46,8.44-5.93,1.6-.4,2.51.81,3.83,2.49a23.09,23.09,0,0,1,2.12,4.16l3.05-1.7Z"/><path class="cls-2" d="M237.47,124.09s-.17-.24-.46-.68l-1.22-1.91-4.39-7,.25.07-3,1.71a.2.2,0,0,1-.28-.08v0h0a19.41,19.41,0,0,0-2.23-4.24,10.74,10.74,0,0,0-1.73-1.89A2.14,2.14,0,0,0,222,110a24,24,0,0,0-4.9,2.94,14.9,14.9,0,0,0-2.22,2,2.88,2.88,0,0,0-1,2.55,2.63,2.63,0,0,0,1,1.4h0a.24.24,0,0,1,.08.32,2.75,2.75,0,0,0-.28,1.82,2.06,2.06,0,0,0,1.15,1.28h0a.25.25,0,0,1,.13.31,2.09,2.09,0,0,0,0,1.63,1.48,1.48,0,0,0,1.43.44h0a.25.25,0,0,1,.28.21.22.22,0,0,1-.06.19,2.12,2.12,0,0,0-.12,2.32l0-.06a2,2,0,0,0,1.84.17,8.09,8.09,0,0,0,1.83-.87,20.78,20.78,0,0,0,3.07-2.4h0a.22.22,0,0,1,.3,0l0,0,.8,1.6a4.34,4.34,0,0,0,.93,1.34,3.85,3.85,0,0,0,2.72,1.09,5.84,5.84,0,0,0,2.53-.84c.76-.38,1.44-.74,2.06-1.09,1.23-.69,2.17-1.27,2.8-1.67l.73-.45c.17-.11.25-.15.26-.14s-.07.08-.22.19l-.69.51c-.62.43-1.54,1-2.76,1.77-.61.37-1.29.75-2.05,1.15a6,6,0,0,1-2.65.91,4.2,4.2,0,0,1-3-1.14,4.72,4.72,0,0,1-1-1.44l-.83-1.59.34.06a20.62,20.62,0,0,1-3.12,2.48,8.72,8.72,0,0,1-1.94.94,2.43,2.43,0,0,1-2.29-.26.34.34,0,0,1-.06-.06,2.61,2.61,0,0,1,.15-2.88l.24.4a2.75,2.75,0,0,1-1,0,1.53,1.53,0,0,1-.92-.61,2.54,2.54,0,0,1,0-2.07l.15.32a2.54,2.54,0,0,1-1.47-1.63,3.12,3.12,0,0,1,.32-2.17l.09.33a3.13,3.13,0,0,1-1.25-1.71,2.64,2.64,0,0,1,.16-1.69,5.28,5.28,0,0,1,.91-1.34,16.89,16.89,0,0,1,2.3-2,24.26,24.26,0,0,1,5-3,3.33,3.33,0,0,1,1.44-.31,2.47,2.47,0,0,1,1.38.53,10.41,10.41,0,0,1,1.81,2,19.76,19.76,0,0,1,2.25,4.37l-.29-.1,3.06-1.68a.19.19,0,0,1,.25.06L236,121.5l1.13,1.93A3.73,3.73,0,0,1,237.47,124.09Z"/><path class="cls-2" d="M226.91,122.47a2.9,2.9,0,0,0-.86-1.43,2.5,2.5,0,0,0-1.66-.57,4.26,4.26,0,0,0-2.12.64,11.15,11.15,0,0,0-1.83,1.43c-.55.49-1.07.9-1.5,1.25a15.28,15.28,0,0,1-1.41,1.1c-.07,0,.35-.63,1.17-1.38.4-.39.89-.81,1.41-1.33a11.1,11.1,0,0,1,1.89-1.52,4.48,4.48,0,0,1,2.4-.67,2.76,2.76,0,0,1,1.89.77A2.16,2.16,0,0,1,227,122C227,122.3,226.94,122.47,226.91,122.47Z"/><path class="cls-2" d="M226.67,118.18c-.06,0-.18-.29-.58-.63A3,3,0,0,0,224,117h0a2.6,2.6,0,0,0-1.38.39,10.45,10.45,0,0,0-1.47,1c-1.38,1.19-2.6,2.29-3.55,3a18.87,18.87,0,0,1-1.54,1.19c-.06,0,.39-.67,1.3-1.47s2.07-2,3.47-3.18a10.17,10.17,0,0,1,1.56-1,2.91,2.91,0,0,1,1.68-.38H224a3.06,3.06,0,0,1,2.28.82C226.67,117.81,226.7,118.18,226.67,118.18Z"/><path class="cls-2" d="M223.63,113.65a6.23,6.23,0,0,0-1.5.19,9,9,0,0,0-3.09,1.92c-1.08,1-2.14,1.82-2.88,2.42a8.17,8.17,0,0,1-1.25.95c-.06,0,.31-.55,1-1.22s1.69-1.55,2.79-2.55a7.88,7.88,0,0,1,3.34-1.88C223.05,113.27,223.67,113.6,223.63,113.65Z"/><path class="cls-1" d="M133.08,150.69l-17.43,2.92s-3-16.18-4.58-22.72a15.87,15.87,0,0,0-9.23-11.1h0L94,117.43l-14.67.25s-15.42,1-19,8.65c-2.78,6-9.9,19-13.11,28.33-1.82,5.28-.13,12.47,2.91,13.3H62.35l.08,3.72,35.74.26,5.22-15.39a12.67,12.67,0,0,0,13.72,9.33l19.17-2.26Z"/><path class="cls-2" d="M133.08,150.69s.08.27.23.83.36,1.4.64,2.47c.56,2.22,1.38,5.45,2.44,9.6a.11.11,0,0,1-.08.13h0l-15.95,1.93a48.46,48.46,0,0,1-4.87.47,12.87,12.87,0,0,1-12.28-9.53h.39c-1.62,4.8-3.36,10-5.2,15.4a.2.2,0,0,1-.21.15l-35.74-.23a.25.25,0,0,1-.25-.25c0-1.16,0-2.43-.08-3.72l.25.25H50a4.55,4.55,0,0,1-2.49-2.42,12.42,12.42,0,0,1-1.08-3.32,16.3,16.3,0,0,1,.24-7.08,82.26,82.26,0,0,1,3.43-8.72c1.26-2.82,2.59-5.58,3.92-8.29l4-8c.65-1.32,1.31-2.63,1.92-3.94a10.3,10.3,0,0,1,2.71-3.48,21,21,0,0,1,7.62-3.83,43.77,43.77,0,0,1,8.1-1.59,17.16,17.16,0,0,1,2-.09l2,0,3.92-.06,7.61-.12H94l7.87,2.36a.22.22,0,0,1,.14.14h0l-.12-.14a15.83,15.83,0,0,1,8.07,7.77,21.83,21.83,0,0,1,1.62,5c.38,1.66.72,3.28,1,4.84,1.27,6.28,2.29,11.78,3.12,16.38l-.15-.1,13-2.11,3.34-.53c.75-.12,1.12-.16,1.12-.16l-1.15.22-3.36.59-12.9,2.24a.14.14,0,0,1-.15-.11c-.86-4.59-1.9-10.08-3.21-16.34-.33-1.57-.67-3.18-1.06-4.83a21.53,21.53,0,0,0-1.61-4.93,15.4,15.4,0,0,0-7.88-7.54.25.25,0,0,1-.13-.14h0l.15.14-7.88-2.34H94l-7.6.14-3.92.07-2,0a16.64,16.64,0,0,0-2,.1,43.54,43.54,0,0,0-8,1.58A20.68,20.68,0,0,0,63,123.32a9.61,9.61,0,0,0-2.58,3.31c-.62,1.33-1.27,2.64-1.93,4q-2,4-4,8c-1.33,2.71-2.65,5.46-3.9,8.27a84,84,0,0,0-3.41,8.65,15.85,15.85,0,0,0-.23,6.85,11.85,11.85,0,0,0,1,3.18,4.1,4.1,0,0,0,2.17,2.15H62.35a.26.26,0,0,1,.26.25l.07,3.72-.25-.25,35.74.29-.22.16,5.24-15.39a.21.21,0,0,1,.26-.13.24.24,0,0,1,.14.14,12.74,12.74,0,0,0,2.63,5,13.07,13.07,0,0,0,4.3,3.21,12.72,12.72,0,0,0,5,1.09,46.61,46.61,0,0,0,4.82-.45l16-1.83-.09.14c-1-4.14-1.77-7.36-2.3-9.56l-.6-2.52C133.14,151,133.08,150.69,133.08,150.69Z"/><path class="cls-5" d="M81.91,162.16l6.47-2.57A7.34,7.34,0,0,0,96,158.4a19.12,19.12,0,0,0,2.83,2.49c1,.49,2-1,2-1a4,4,0,0,0,1.71.78,1,1,0,0,0,1-.55,2.9,2.9,0,0,0,1.48.27.87.87,0,0,0,.69-.77,1.44,1.44,0,0,0,1.51.21,1.24,1.24,0,0,0,.48-1.37s-5.9-4.49-7.73-5.66-12.37,0-12.37,0l-6.25.36Z"/><path class="cls-2" d="M62,167.44s.13,0,.38-.05l1.12,0,4.17-.09,14.53-.2-.25.26c-.2-3.18-.43-6.65-.67-10.27L81.06,153l.26.24-16.57,0a.15.15,0,0,1-.09,0,10,10,0,0,0-6.88-.73,15.66,15.66,0,0,0-2.44.93,3,3,0,0,1,.57-.38,9,9,0,0,1,1.82-.75,9.9,9.9,0,0,1,7.1.59l-.08,0,16.57-.16a.26.26,0,0,1,.26.24c.09,1.34.17,2.7.26,4.1.23,3.62.44,7.09.64,10.27a.24.24,0,0,1-.22.26H67.71l-4.17,0-1.12,0Z"/><path class="cls-2" d="M64.75,153a9.94,9.94,0,0,1,.75-2.53c.55-1.53,1.42-3.61,2.43-5.88l2.56-5.8a19,19,0,0,1,1.09-2.4,10.24,10.24,0,0,1-.74,2.54c-.56,1.53-1.43,3.61-2.44,5.87l-2.56,5.81A18.35,18.35,0,0,1,64.75,153Z"/><polygon class="cls-2" points="70.75 138.66 67.62 153.02 64.75 153.02 70.75 138.66"/><path class="cls-2" d="M95.11,154.92a2.09,2.09,0,0,1,1.19-.07,2.43,2.43,0,0,1,1.23.53,6.73,6.73,0,0,1,1.08,1.17,15.63,15.63,0,0,1,2.18,3.3,14.71,14.71,0,0,1-2.59-3,3.77,3.77,0,0,0-2-1.66C95.57,155,95.11,155,95.11,154.92Z"/><path class="cls-2" d="M98.07,153.4c0-.07.57-.18,1.32.28a7.25,7.25,0,0,1,2.06,2.49,19.18,19.18,0,0,1,2.18,3.93,19.62,19.62,0,0,1-2.62-3.66A9.3,9.3,0,0,0,99.18,154,5.91,5.91,0,0,0,98.07,153.4Z"/><path d="M102.32,155.88c.12-.09.85.73,1.75,1.72s1.65,1.79,1.55,1.9-1-.53-1.93-1.55A4.93,4.93,0,0,1,102.32,155.88Z"/><path class="cls-2" d="M103.78,154.27c-.08,0,.28-1.1.7-2.87a35.42,35.42,0,0,0,.93-7,36.06,36.06,0,0,0-.51-7.06c-.32-1.79-.61-2.89-.53-2.91a2.59,2.59,0,0,1,.31.74,21.17,21.17,0,0,1,.58,2.1,29.24,29.24,0,0,1,.67,7.15,29.65,29.65,0,0,1-1.09,7.09,18,18,0,0,1-.71,2.06A2.36,2.36,0,0,1,103.78,154.27Z"/><path class="cls-2" d="M72.51,133.29c-.08,0,.3-.91.47-2.41a9.42,9.42,0,0,0-.08-2.62,6.38,6.38,0,0,0-1.27-2.85,8.48,8.48,0,0,0-5.09-2.55,6.65,6.65,0,0,0-2.4.22,3.24,3.24,0,0,1,2.43-.58A8.2,8.2,0,0,1,72,125.07a6.43,6.43,0,0,1,1.35,3.11,8.64,8.64,0,0,1,0,2.75,8.47,8.47,0,0,1-.51,1.77C72.67,133.1,72.54,133.31,72.51,133.29Z"/><path class="cls-2" d="M106.31,124.85a6.23,6.23,0,0,1-.89,2.37c-.62,1.24-1.23,2.2-1.36,2.13A6.27,6.27,0,0,1,105,127,6.4,6.4,0,0,1,106.31,124.85Z"/><path class="cls-1" d="M114.19,257.67l3.48-9.81,15.2,5.4-5.73,14.14-11.41.25-2.59-7Z"/><path class="cls-2" d="M114.19,257.67a4.44,4.44,0,0,1-.22.78l-.72,2.21v-.08c.66,1.74,1.56,4.12,2.66,7l-.18-.13,11.4-.3-.22.15,3.7-9.16,2-5,.15.34L117.61,248l.25-.12c-1.1,3-2,5.4-2.64,7.15-.3.8-.55,1.44-.74,1.94a3,3,0,0,1-.29.66,3.45,3.45,0,0,1,.19-.7l.64-2c.61-1.77,1.45-4.21,2.47-7.21a.2.2,0,0,1,.24-.12h0L133,253a.27.27,0,0,1,.16.33h0c-.65,1.62-1.33,3.28-2,5l-3.73,9.16a.25.25,0,0,1-.23.15l-11.4.2a.2.2,0,0,1-.19-.13c-1-2.9-1.89-5.3-2.52-7v-.08c.35-.9.62-1.62.83-2.17A4.25,4.25,0,0,1,114.19,257.67Z"/><path class="cls-2" d="M104.1,276.53c2.11-6.25,4.35-9.84,6.46-16.08.39-1.13.94-2.43,2.1-2.73a2.7,2.7,0,0,1,2.72,1.36,30.15,30.15,0,0,1,1.38,2.93,7.22,7.22,0,0,0,12.61.36l12,14.6s4.9-.08,6.68,1.62a5.55,5.55,0,0,1,2,3.84c.34,2.64-.63,3.31-.63,3.31l-19.06.06Z"/><path class="cls-1" d="M149.56,285.47a5.86,5.86,0,0,0,.52-1.46L132,283.5c-14.17-5.13-12.46-5.17-26.64-10.3l-.43,1.11c-.27.7-.53,1.44-.79,2.22l26.25,9.27,19.06-.06S149.24,286.09,149.56,285.47Z"/><path class="cls-2" d="M149.56,285.47s0,0,0,.12l-.07.15,0,.09v0h0c-.09-.07,0,0,0,0h0l0,0,0-.06,0,0c-1.79.08-8.86.16-19.06.23h-.06L104,276.77a.25.25,0,0,1-.16-.32h0l.74-2.05.49-1.29a.26.26,0,0,1,.33-.15c5.06,1.82,9.88,3.7,14.3,5.58s8.6,3.41,12.32,4.77H132c8.94.29,15.45.53,18.11.66a.06.06,0,0,1,.06.06v0a4.06,4.06,0,0,1-.58,1.44A8.89,8.89,0,0,0,150,284l.06.08c-2.66,0-9.17-.15-18.11-.37l-.07,0c-3.73-1.33-7.92-2.87-12.36-4.71s-9.24-3.72-14.3-5.54l.34-.15-.5,1.28-.73,2-.16-.33,26.24,9.32h-.07c10.2,0,17.27.05,19.06.11a0,0,0,0,1,0,0h0l0,.06,0,0h0s0,0,0,0h0l.06-.09.08-.14C149.53,285.5,149.56,285.46,149.56,285.47Z"/><polygon class="cls-2" points="110.98 226.49 117.31 285.83 114.15 285.83 104.77 226.49 110.98 226.49"/><polygon class="cls-1" points="101.92 257.17 101.92 267.25 99.15 273.99 92.85 274.65 86.92 267.99 86.92 258.36 101.92 257.17"/><path class="cls-2" d="M101.92,257.17a9,9,0,0,1-1.13.14l-3.08.31-10.77,1,.21-.22c0,2.94,0,6.18,0,9.63l-.07-.17c.85.95,1.74,1.94,2.64,3l3.29,3.7-.22-.08,6.3-.65-.2.15c1-2.47,2-4.73,2.82-6.73v.08c0-3,.08-5.5.1-7.3,0-.83,0-1.51,0-2s0-.73,0-.75a3.25,3.25,0,0,1,0,.67l0,2c0,1.83.07,4.35.11,7.43a.17.17,0,0,1,0,.07c-.82,2-1.74,4.28-2.74,6.76a.28.28,0,0,1-.2.15l-6.29.68a.25.25,0,0,1-.22-.09l-3.3-3.7-2.63-3a.28.28,0,0,1-.07-.17c0-3.45,0-6.69,0-9.63a.24.24,0,0,1,.21-.23l10.94-.75,3-.18Z"/><path class="cls-2" d="M84.14,282.49c-.13-6.22.71-10.13.57-16.35,0-1.13.05-2.46,1-3.1a2.59,2.59,0,0,1,2.86.33c.82.61,1.41,1.47,2.17,2.16A6.81,6.81,0,0,0,102,261.8l21.32,12.64a11.72,11.72,0,0,1,3.9,3.17,4,4,0,0,1,.07,4.72Z"/><path class="cls-1" d="M85.36,282.49h41.9a3.83,3.83,0,0,1-.71,3.31l-42.39,0c0-1.19,0-2.29,0-3.34Z"/><path class="cls-2" d="M85.36,282.49l-.3,0-.89,0,.06-.05c0,.8,0,1.92,0,3.34l-.11-.11c7.27-.09,23.18-.17,41.62-.18h.77l-.19.09a3.59,3.59,0,0,0,.65-3.07l.25.19-29.77-.08-8.89-.08-2.4,0a7.91,7.91,0,0,1-.84-.05,4.22,4.22,0,0,1,.84-.05l2.4-.05,8.89-.08,29.77-.08a.26.26,0,0,1,.25.19,4.12,4.12,0,0,1-.76,3.55.28.28,0,0,1-.19.09h-.78c-18.43,0-34.35,0-41.62-.11h0a.11.11,0,0,1-.11-.11h0c0-1.43.06-2.55.07-3.36a.06.06,0,0,1,.06-.05h0l.89,0Z"/><rect class="cls-1" x="50.55" y="209.56" width="67.07" height="16.93" rx="5.07"/><path class="cls-2" d="M112.55,226.49a6.53,6.53,0,0,0,1.58-.31,5,5,0,0,0,3.11-3.12,9.78,9.78,0,0,0,.26-3.29c0-1.23,0-2.56,0-4a10.64,10.64,0,0,0-.12-2.18,5,5,0,0,0-1-2,5.09,5.09,0,0,0-1.91-1.44,5.84,5.84,0,0,0-2.52-.38l-56.32.08a4.82,4.82,0,0,0-4.81,5v6a6.4,6.4,0,0,0,.16,1.87,4.81,4.81,0,0,0,2.11,2.87,4.93,4.93,0,0,0,1.68.65,9.18,9.18,0,0,0,1.83.08h7.32l25.32.06,17.06.08,4.65.05,1.2,0a1.85,1.85,0,0,1,.41,0l-.41,0-1.2,0-4.65,0-17.06.09-25.32,0H56.59a10.46,10.46,0,0,1-1.92-.09,5.23,5.23,0,0,1-1.85-.71,5.32,5.32,0,0,1-2.35-3.17,7.64,7.64,0,0,1-.18-2v-6A5.39,5.39,0,0,1,51.77,211a5.3,5.3,0,0,1,3.85-1.65l56.32.08a6.11,6.11,0,0,1,2.65.42,5.23,5.23,0,0,1,3.07,3.73,11.61,11.61,0,0,1,.11,2.25l0,4a10,10,0,0,1-.32,3.35,5.09,5.09,0,0,1-3.27,3.16,4.6,4.6,0,0,1-1.19.22Z"/><polygon class="cls-1" points="27.74 171.06 13.79 285.65 18.44 285.65 36.13 171.06 27.74 171.06"/><path class="cls-2" d="M27.74,171.05h.52l1.58,0,6.3,0a.09.09,0,0,1,.09.09v0C33.68,188.19,27,232.14,19,283.58l-.32,2.11a.26.26,0,0,1-.26.22H13.79a.26.26,0,0,1-.26-.26v0c3.94-32,7.47-60.67,10-81.36l3.05-24.36c.36-2.85.64-5.06.84-6.58l.22-1.7c.05-.38.09-.57.09-.57s0,.22,0,.61l-.2,1.73c-.17,1.54-.43,3.77-.77,6.65-.68,5.77-1.67,14.11-2.89,24.44-2.49,20.65-5.93,49.26-9.78,81.2l-.26-.29h4.65l-.26.22.33-2.11C26.45,232.06,33.3,188.13,36,171l.1.11-6.25-.05-1.6,0C27.93,171.07,27.74,171.05,27.74,171.05Z"/><polygon class="cls-1" points="175.16 171.06 189.22 285.83 184.59 285.83 166.76 171.06 175.16 171.06"/><path class="cls-2" d="M175.16,171.05s-.19,0-.55,0l-1.6,0-6.25.05.09-.11c2.76,17.1,9.67,61.1,17.67,112.63.11.73.23,1.45.33,2.12l-.26-.22h4.62l-.25.3c-3.88-32-7.35-60.66-9.86-81.34-1.23-10.35-2.23-18.7-2.92-24.48-.33-2.88-.59-5.11-.77-6.65l-.2-1.74c0-.39-.05-.61-.05-.61l.09.57.22,1.7c.2,1.53.48,3.74.85,6.59.72,5.77,1.77,14.09,3.07,24.41,2.56,20.72,6.12,49.43,10.08,81.48a.25.25,0,0,1-.22.29h-4.66a.25.25,0,0,1-.25-.22c-.11-.67-.22-1.39-.33-2.12-8-51.53-14.78-95.55-17.34-112.68a.1.1,0,0,1,.08-.11h0l6.3,0,1.58,0Z"/><rect class="cls-2" y="163.4" width="192.91" height="7.66"/><path class="cls-4" d="M82.87,172a139.82,139.82,0,0,1,15.4-.42l-.51,4.18c15.1.72,36.69,2.34,42.84,5.85,9.52,5.45,10.22,15.39,8,22.76s-14.36,56.42-14.36,56.42l-22.43-5.73,9.89-47.48-51.55.32Z"/><path class="cls-4" d="M62.49,171.65a46.28,46.28,0,0,0-8.61,14.81c-2.33,6.46-1.19,16.14,2.2,19.14a17.2,17.2,0,0,0,11.42,4.24H79.13L81.52,259l27.42-.39s.73-63.18,0-71.49C107.83,174.36,84.27,172,84.27,172Z"/><path class="cls-1" d="M65.19,175.21a1.34,1.34,0,0,1,.32,0l.92,0L70,175.1,83,175l9,0a23.6,23.6,0,0,1,10.13,2,13.29,13.29,0,0,1,4.51,3.38,12.27,12.27,0,0,1,1.56,2.49,13.29,13.29,0,0,1,.89,2.85c.09.49.14,1,.2,1.5l.08,1.51c.06,1,.07,2,.1,3q0,3.06.09,6.21c.12,16.75-.06,31.91-.18,42.88-.09,5.46-.16,9.89-.2,13l-.09,3.53,0,.92a1.3,1.3,0,0,1,0,.31,1.92,1.92,0,0,1,0-.31v-.92l0-3.54c0-3.1,0-7.53,0-13,0-11,.14-26.13,0-42.88,0-2.09-.06-4.16-.09-6.19,0-1,0-2-.09-3l-.08-1.49c-.06-.48-.11-1-.2-1.44a12.09,12.09,0,0,0-.84-2.74,11.21,11.21,0,0,0-1.49-2.38,12.67,12.67,0,0,0-4.32-3.26,23.06,23.06,0,0,0-9.92-2l-9,0-13-.08-3.53-.05-.92,0Z"/><path class="cls-1" d="M130,198.11c.1.12-2.11,2-4.39,4.77s-3.8,5.23-3.93,5.15a5.94,5.94,0,0,1,.84-1.73,28.44,28.44,0,0,1,2.69-3.76,29.23,29.23,0,0,1,3.24-3.3A5.85,5.85,0,0,1,130,198.11Z"/><path class="cls-1" d="M132.17,203.07a31.49,31.49,0,0,1-5.14,2.58,32.16,32.16,0,0,1-5.35,2.11,32,32,0,0,1,5.14-2.59A32.23,32.23,0,0,1,132.17,203.07Z"/><path class="cls-1" d="M78.66,196.68c.15,0,.13,3.13.35,7s.58,6.93.43,7a7.42,7.42,0,0,1-.45-2c-.19-1.25-.39-3-.5-4.92a49.36,49.36,0,0,1,0-4.94A7.25,7.25,0,0,1,78.66,196.68Z"/><path class="cls-1" d="M158.31,163.4v-5h31.78v5S157.93,163,158.31,163.4Z"/><path class="cls-2" d="M158.31,163.4c-.05-.2,3.44-.3,9.13-.34s13.66,0,22.65.08l-.26.26v-5h0l.26.26c-13.67,0-25.59-.05-31.78-.13l.12-.13c0,1.65-.06,2.92-.08,3.75l0,.93c0,.21,0,.31,0,.3a3,3,0,0,1,0-.36l0-1-.08-3.64a.12.12,0,0,1,.12-.13h0c6.19-.08,18.11-.13,31.78-.13a.26.26,0,0,1,.26.26h0v5a.26.26,0,0,1-.26.25h0l-22.65-.25-6.71-.05h-1.81A2.3,2.3,0,0,0,158.31,163.4Z"/><path class="cls-2" d="M183.12,160.27c0,.15-5.58.26-12.46.26s-12.46-.11-12.46-.26,5.58-.26,12.46-.26S183.12,160.13,183.12,160.27Z"/><path class="cls-2" d="M190,161.41c0,.14-5.58.26-12.46.26s-12.46-.12-12.46-.26,5.58-.26,12.46-.26S190,161.26,190,161.41Z"/><rect class="cls-1" x="156.53" y="157.2" width="31.42" height="1.22"/><path class="cls-2" d="M188,158.42a1.45,1.45,0,0,1,0-.32l0-.9.07.06c-3.6.11-16.32.2-31.42.2h0l.26-.26h0v1.21l-.26-.26c8.69,0,16.5.05,22.17.11l6.74.08,1.85,0,.67,0a5.15,5.15,0,0,1-.6,0l-1.79,0-6.67.08c-5.67.06-13.57.11-22.37.11a.26.26,0,0,1-.26-.26v-1.21h0l.26-.27h0c15.1,0,27.82.09,31.42.2a.06.06,0,0,1,.06.06h0l0,.94C188,158.34,188,158.43,188,158.42Z"/><polygon class="cls-2" points="58.98 226.49 52.65 285.83 55.82 285.83 65.19 226.49 58.98 226.49"/><rect class="cls-2" x="159.23" y="155.66" width="27.47" height="1.54"/><rect class="cls-2" x="159.23" y="147.78" width="27.47" height="1.54"/><rect class="cls-1" x="160.14" y="149.39" width="26.51" height="6.27"/><path class="cls-2" d="M186.66,155.66a3.6,3.6,0,0,1,0-.45l0-1.24c0-1.12-.05-2.66-.09-4.58l.16.15c-5.9.07-15.58.11-26.52.11h0l.26-.26h0v6.25l-.26-.26,18.84.12,5.6.07,1.52,0,.56,0a2.83,2.83,0,0,1-.49,0l-1.47,0-5.54.07c-4.74,0-11.41.11-19,.12a.26.26,0,0,1-.25-.26h0v-6.25h0c.12-.11-.26.26.26-.26h0c10.94,0,20.62,0,26.52.11a.15.15,0,0,1,.15.14h0c0,2-.07,3.52-.09,4.67l0,1.21A1.7,1.7,0,0,1,186.66,155.66Z"/><path class="cls-2" d="M186.72,157.2h-.91a20.67,20.67,0,0,0,0-9.42h.88a.81.81,0,0,1,.81.81v7.82A.79.79,0,0,1,186.72,157.2Z"/><path class="cls-2" d="M184.11,151.75c0,.14-5.34.26-11.93.26s-11.93-.12-11.93-.26,5.34-.26,11.93-.26S184.11,151.6,184.11,151.75Z"/><path class="cls-2" d="M186.29,153.52c0,.14-5.88.26-13.14.26s-13.14-.12-13.14-.26,5.88-.26,13.14-.26S186.29,153.38,186.29,153.52Z"/><path class="cls-3" d="M151.6,136.34,144,163.4H91.63a3.75,3.75,0,0,1,3.67-3.76l12.76-.27,6.41-25.16a3.14,3.14,0,0,1,3.09-2.36l31.07.5A3.14,3.14,0,0,1,151.6,136.34Z"/><path class="cls-1" d="M133.65,149a2.82,2.82,0,1,1-2.82-2.82A2.81,2.81,0,0,1,133.65,149Z"/><rect class="cls-5" x="155.04" y="139.54" width="37.43" height="8.77"/><path class="cls-6" d="M166.27,148.26a6.14,6.14,0,1,1-.32-9"/><path class="cls-6" d="M172.8,148.26a6.13,6.13,0,1,1-.31-9"/><path class="cls-6" d="M179.34,148.26a6.13,6.13,0,1,1-.31-9"/><path class="cls-6" d="M185.88,148.26a6.13,6.13,0,1,1-.31-9"/><path class="cls-6" d="M192.42,148.26a6.14,6.14,0,1,1-.32-9"/><path class="cls-2" d="M189.51,145.16c0,.14-7.57.26-16.89.26s-16.9-.12-16.9-.26,7.56-.26,16.9-.26S189.51,145,189.51,145.16Z"/><path class="cls-2" d="M192.44,143c0,.14-7.56.26-16.89.26s-16.89-.12-16.89-.26,7.56-.26,16.89-.26S192.44,142.89,192.44,143Z"/><path class="cls-4" d="M76.68,103.19l-6.17-9.48a5.6,5.6,0,1,0-8.16,7.14c-2.07-.88-4.64.81-5,3a5.5,5.5,0,0,0,3,5.54c1.58.84,3.84.87,4.89-.58A5.12,5.12,0,0,0,70.06,112a6.57,6.57,0,0,0,5.18-2.93A9.31,9.31,0,0,0,76.68,103.19Z"/><path class="cls-4" d="M105.39,91.33c.08-2-1.87-4-3.84-3.54a12.29,12.29,0,0,0,2.63-2.56,4.16,4.16,0,0,0,.67-3.5A4.89,4.89,0,0,0,101.53,79a11.34,11.34,0,0,0-7.58.21A2.34,2.34,0,0,0,92.33,77a8.38,8.38,0,0,0-3.11-.59,12.42,12.42,0,0,0-4.37.68,5.8,5.8,0,0,0-3.74,3.36c-6.91,1.3-10.37,8-11.21,12.32l27.66,7.81a8.79,8.79,0,0,0,3.43-.28,3.4,3.4,0,0,0,2.3-2.38,2.14,2.14,0,0,0-1.71-2.55A4.59,4.59,0,0,0,105.39,91.33Z"/><path class="cls-2" d="M98.8,86.2a10.4,10.4,0,0,0-8.59-4.9L88.1,83a9.92,9.92,0,0,1,8.08,4.2,17.39,17.39,0,0,1,3,8.86A10.38,10.38,0,0,0,98.8,86.2Z"/><path class="cls-5" d="M100.28,92.11l0-.08a11.22,11.22,0,0,0-8.83-8.47l-1.89-.36-11.2,9L78,104.46l.7,13,0,.3c4.84,5.63,9.35,6.81,12.07,5.58a5.12,5.12,0,0,0,3-5.32,7.56,7.56,0,0,1,.31-3.73c.82-1.92,4.24-2.13,5.66-6.93C100.9,103.48,100.28,92.11,100.28,92.11Z"/><path class="cls-2" d="M98.53,92.28a1,1,0,0,0-.55-.35,2.3,2.3,0,0,0-.64-.09H97a1.8,1.8,0,0,0-.39.08h0a3.56,3.56,0,0,0-.41.17l0,0h0s0,0-.06,0a1.25,1.25,0,0,0-.59.57.74.74,0,0,0,.08.82.9.9,0,0,0,.48.17l.72.09a3.38,3.38,0,0,0,1,0,1.24,1.24,0,0,0,.83-.5A1,1,0,0,0,98.53,92.28Z"/><path class="cls-2" d="M89.53,89.62a1,1,0,0,0-.65-.06,2.23,2.23,0,0,0-.61.22l-.06,0-.28.16a1.54,1.54,0,0,0-.31.25l0,0a2.28,2.28,0,0,0-.29.33l0,0h0l0,0a1.36,1.36,0,0,0-.26.79.63.63,0,0,0,1,.62l.69-.26a3.18,3.18,0,0,0,.85-.41,1.24,1.24,0,0,0,.5-.82A1,1,0,0,0,89.53,89.62Z"/><path class="cls-2" d="M88,97.89a2.23,2.23,0,0,1,.16-1.2l.07,0a1,1,0,0,1,.85-.08.9.9,0,0,1,.43.67,3.31,3.31,0,0,1-.06,1.13,2.26,2.26,0,0,1-.16.58.61.61,0,0,1-1.18-.07A2.47,2.47,0,0,1,88,97.89Z"/><path class="cls-2" d="M96.24,97.89a2.13,2.13,0,0,1,.15-1.2l.07,0a1,1,0,0,1,.85-.08.9.9,0,0,1,.43.67,3.31,3.31,0,0,1-.06,1.13,2.26,2.26,0,0,1-.16.58.72.72,0,0,1-.42.4.7.7,0,0,1-.75-.47A2.16,2.16,0,0,1,96.24,97.89Z"/><path class="cls-2" d="M96.47,112.13l-2,1.6c-.42.57-.58.7-.51,1.41-3.24-.43-5.88-.77-8.26-3C89.56,113.23,92.19,113.66,96.47,112.13Z"/><path class="cls-2" d="M92,102.25c0-.08.43-.26,1-.78a3.89,3.89,0,0,0,1-1.74c0-.12,0-.31.06-.18s0,0-.16.06l-1.71.4h0a.23.23,0,0,1-.28-.17v0a9.29,9.29,0,0,1,0-2.58,8.57,8.57,0,0,1,.44,2.54l-.3-.21,1.71-.45a.63.63,0,0,1,.68.11.52.52,0,0,1,.09.42l-.06.23a3.83,3.83,0,0,1-.33.8,3.58,3.58,0,0,1-1,1.09C92.5,102.25,92,102.31,92,102.25Z"/><path class="cls-4" d="M78.84,99.89c6.63-4.18,10.42-11.26,11.53-18.54C80.5,78.06,72.49,84.4,70,91.9s1.8,15.37,8.72,19.19"/><path class="cls-5" d="M81.11,107.28A6.62,6.62,0,0,1,76.55,106a5,5,0,0,1-1.67-3.7,4.4,4.4,0,0,1,2-3.86A3.27,3.27,0,0,1,81,99"/><path class="cls-2" d="M80.08,104.84s-.17.07-.43,0a1.54,1.54,0,0,1-.73-.93,2.49,2.49,0,0,1,0-1.77,1,1,0,0,1,1.07-.5,1.64,1.64,0,0,1,1,.64,4.83,4.83,0,0,1,.32.45l-.45.25a4.54,4.54,0,0,0-2.12-2.2c-.72-.36-1.23-.42-1.22-.5a2.11,2.11,0,0,1,1.36.18,4.42,4.42,0,0,1,2.45,2.31.26.26,0,0,1-.45.25c-.09-.14-.19-.28-.29-.41-.37-.53-1-.64-1.26-.23a2.26,2.26,0,0,0-.06,1.43A1.55,1.55,0,0,0,80.08,104.84Z"/><path class="cls-2" d="M90.19,103.11s.48-.22,1.19.11a2.14,2.14,0,0,1,1.09,2.64.86.86,0,0,1-.92.48,3.2,3.2,0,0,1-.75-.28c-.43-.19-.81-.38-1.13-.54-.63-.32-1-.55-1-.61s.46,0,1.13.27l1.17.44c.45.19.88.36,1,0a1.73,1.73,0,0,0-.08-1.26,1.86,1.86,0,0,0-.72-.83C90.65,103.18,90.19,103.19,90.19,103.11Z"/><path class="cls-1" d="M74.55,106.45a4.21,4.21,0,0,1-1.83-.88,9,9,0,0,1-3.1-3.81A9.16,9.16,0,0,1,69,96.88,4.37,4.37,0,0,1,69.6,95c.09,0-.16.76-.25,2a9.94,9.94,0,0,0,.75,4.63,9.76,9.76,0,0,0,2.84,3.72C73.88,106,74.58,106.37,74.55,106.45Z"/><polygon class="cls-2" points="27.74 171.06 27.41 173.8 35.01 178.38 36.13 171.06 27.74 171.06"/><polygon class="cls-2" points="166.76 170.7 167.42 174.82 175.86 177.55 175.3 170.16 166.76 170.7"/><polygon class="cls-3" points="196.86 66.53 198.72 68.53 202.21 68.69 203.1 65.87 200.18 60.86 196.86 66.53"/><path class="cls-1" d="M130.23,11.38c3.23-5.85,8.81-8.38,15.29-10,4.93-1.25,10.28-1.83,15,0,6.74,2.63,11,10.18,10.32,17.38a21.2,21.2,0,0,1-12.29,17l-.58.12a19.35,19.35,0,0,0,8.74,8.69,11.57,11.57,0,0,1-13.4-7c-6.76,2.67-14.58.93-20.19-3.71S125.23,20.46,130.23,11.38Z"/><path class="cls-2" d="M130.23,11.38a.79.79,0,0,1-.08.21l-.27.58-.46,1-.53,1.35a19.11,19.11,0,0,0-1.1,9.26A15.73,15.73,0,0,0,130,30a15.52,15.52,0,0,0,2.34,2.93,21.35,21.35,0,0,0,11.39,5.5,18.6,18.6,0,0,0,9.52-1,.22.22,0,0,1,.3.13h0a11.37,11.37,0,0,0,13.1,6.85l0,.47A19.55,19.55,0,0,1,157.76,36a.27.27,0,0,1,.12-.35l.06,0,.58-.12-.05,0,.84-.4a21,21,0,0,0,10-11.08A18.51,18.51,0,0,0,170.66,17a17.2,17.2,0,0,0-1.51-6.74,16.15,16.15,0,0,0-9-8.74,21.93,21.93,0,0,0-11.1-.7,44.43,44.43,0,0,0-9,2.46,21.29,21.29,0,0,0-6,3.54,16.72,16.72,0,0,0-3,3.29c-.3.41-.48.76-.63,1a2.19,2.19,0,0,1-.23.33A14,14,0,0,1,131,10a15.72,15.72,0,0,1,2.92-3.38A21.4,21.4,0,0,1,140,3a43.74,43.74,0,0,1,9-2.55,22.3,22.3,0,0,1,11.31.65,16.6,16.6,0,0,1,9.24,9A17.69,17.69,0,0,1,171.16,17a19,19,0,0,1-1.36,7.28,21.49,21.49,0,0,1-10.26,11.37l-.87.41h0l-.58.12.19-.37a19,19,0,0,0,8.61,8.58.25.25,0,0,1-.05.48,11.83,11.83,0,0,1-13.68-7.18l.31.14a19,19,0,0,1-9.76,1,21.89,21.89,0,0,1-8.35-3.15,21.58,21.58,0,0,1-3.24-2.53,15.78,15.78,0,0,1-2.36-3,16,16,0,0,1-2.21-6.36,18.9,18.9,0,0,1,1.25-9.36l.57-1.34.49-.94.31-.57Z"/><text class="cls-7" transform="translate(142.95 26.88)">$</text></g></g></svg>