<svg xmlns="http://www.w3.org/2000/svg" viewBox="0 0 219.8 355.1"><defs><style>.cls-1{fill:#fff;}.cls-2{fill:#10100c;}.cls-3{fill:#3d3d3d;}.cls-4{fill:#ffb554;}.cls-5{fill:none;stroke:#10100c;stroke-miterlimit:10;stroke-width:3px;}</style></defs><title>img01</title><g id="Capa_2" data-name="Capa 2"><g id="IMG01"><path class="cls-1" d="M29.15,77.91,29,76l.39-17.85,1.94-14.86L46,33.72l11.45,3.41a24.55,24.55,0,0,0,.34,4s1.16,21.79-1.38,26c-2.36,3.89-7.92,4.26-9.16,6.49-1.54,2.78-1.82,9.9-1.82,9.9S31.82,83.84,29.15,77.91Z"/><path class="cls-2" d="M29.15,77.91a11.37,11.37,0,0,0,.68,1,8.14,8.14,0,0,0,2.78,2.12c2.76,1.39,7.27,2.28,12.85,2.25l-.17.17c.07-1.49.2-3,.42-4.68a18.49,18.49,0,0,1,1.25-5,3.25,3.25,0,0,1,.85-1.14A7.81,7.81,0,0,1,49,71.88c.82-.44,1.69-.81,2.54-1.21a10.47,10.47,0,0,0,4.53-3.45,2.32,2.32,0,0,0,.34-.64,5.11,5.11,0,0,0,.28-.68c.12-.49.28-1,.36-1.47.2-1,.32-2,.43-3.09.19-2.11.29-4.28.33-6.49.07-4.42,0-9-.24-13.73v0l-.15-1.29-.13-1.38,0-.7v-.68h0v0s0-.1.18-.19a.26.26,0,0,1,.3.11l0,0v0s0,0,0,.08a.26.26,0,0,1-.23.28h-.1L46,34l.21,0L31.43,43.5l.1-.16c-.73,5.5-1.39,10.49-2,14.85h0C29.33,67,29.15,73.2,29,76h0l.1,1.42a4.13,4.13,0,0,1,0,.47,2.56,2.56,0,0,1-.07-.45L28.92,76h0c0-2.82.11-9.08.27-17.85v0c.56-4.37,1.19-9.37,1.89-14.87a.25.25,0,0,1,.1-.16L45.9,33.51a.29.29,0,0,1,.22,0l11.45,3.4-.34.27v0h0l.11,0,.12,0s-.1,0,0,.08.09-.07.15-.06h.08v.61l.05.68.13,1.37.15,1.27v0c.23,4.72.31,9.33.23,13.77,0,2.22-.15,4.4-.35,6.52-.11,1.07-.24,2.11-.44,3.15-.09.51-.26,1-.38,1.52a7.76,7.76,0,0,1-.31.74,2.44,2.44,0,0,1-.38.69,10.84,10.84,0,0,1-4.73,3.59c-.86.41-1.73.77-2.53,1.2A3.7,3.7,0,0,0,47.34,74a18.46,18.46,0,0,0-1.25,4.88c-.22,1.62-.37,3.17-.45,4.64h0a.17.17,0,0,1-.17.16c-5.63,0-10.17-1-12.95-2.42A8,8,0,0,1,29.75,79a5,5,0,0,1-.48-.8A1.07,1.07,0,0,1,29.15,77.91Z"/><path class="cls-2" d="M53.56,50.32a2.68,2.68,0,0,1,.33-1.45l.09,0a1.2,1.2,0,0,1,1.06,0,1.08,1.08,0,0,1,.43.86,4.06,4.06,0,0,1-.21,1.38,3.38,3.38,0,0,1-.26.69.75.75,0,0,1-1.43-.23A2.9,2.9,0,0,1,53.56,50.32Z"/><path class="cls-2" d="M42.61,50.55a2.62,2.62,0,0,1,.33-1.44l.09-.06a1.21,1.21,0,0,1,1,0,1.13,1.13,0,0,1,.44.87,4,4,0,0,1-.21,1.37,3.17,3.17,0,0,1-.26.69.89.89,0,0,1-.56.43.86.86,0,0,1-.87-.66A2.9,2.9,0,0,1,42.61,50.55Z"/><path class="cls-2" d="M50.33,71.47l-1.91.84c-.58.64-1.62,1.58-1.63,2.45-3.89-.93-6.78-3.19-9.39-6.21A36.5,36.5,0,0,0,50.33,71.47Z"/><path class="cls-1" d="M30.09,64A6.44,6.44,0,0,1,25.31,62a6,6,0,0,1-1.59-4.7,5.38,5.38,0,0,1,2.85-4.46A4,4,0,0,1,31.51,54"/><path class="cls-2" d="M30.09,64a6.23,6.23,0,0,1-6.34-4.31,6.63,6.63,0,0,1-.24-2.76,5.47,5.47,0,0,1,3.1-4.38A4,4,0,0,1,31.51,54a4,4,0,0,0-4.74-1.07A5.14,5.14,0,0,0,24,57a6.15,6.15,0,0,0,.18,2.56,6.45,6.45,0,0,0,1.27,2.25,6.19,6.19,0,0,0,2.08,1.56A6.09,6.09,0,0,0,30.09,64Z"/><path class="cls-1" d="M27.2,55.11a5.45,5.45,0,0,1,4,3.59,3.43,3.43,0,0,0-.74-1.06,1.2,1.2,0,0,0-1.22-.24c-.54.26-.66,1-.65,1.58a2.86,2.86,0,0,0,.22,1.23,1.38,1.38,0,0,0,.9.82"/><path d="M27.2,55.11a5.23,5.23,0,0,1,4.27,3.52l-.45.19a2.45,2.45,0,0,0-1-1.18.76.76,0,0,0-1.09.47,3.42,3.42,0,0,0-.12,1.63A1.54,1.54,0,0,0,29.74,61a1.56,1.56,0,0,1-1.17-1.24,3.69,3.69,0,0,1,0-1.81,1.25,1.25,0,0,1,.64-.79,1.23,1.23,0,0,1,1,0,2.66,2.66,0,0,1,1.23,1.39l-.45.19A5.72,5.72,0,0,0,27.2,55.11Z"/><path class="cls-2" d="M46.77,57.6c0-.08.56-.23,1.29-.79a4.66,4.66,0,0,0,1.07-1.16,4.28,4.28,0,0,0,.41-.83c.07-.14.1-.37.1-.26s-.08,0-.26,0l-2.11.28h0a.24.24,0,0,1-.26-.2v0a12.6,12.6,0,0,1,.32-3.11,13.57,13.57,0,0,1,.16,3.12l-.27-.24,2.11-.33a.73.73,0,0,1,.76.2.52.52,0,0,1,0,.46L50,55a4.48,4.48,0,0,1-.49.92,4.36,4.36,0,0,1-1.26,1.19A2.35,2.35,0,0,1,46.77,57.6Z"/><path class="cls-2" d="M43.78,44.08a1.12,1.12,0,0,0-.71-.35,3.07,3.07,0,0,0-.8,0H42.2a2.57,2.57,0,0,0-.4.07,2.44,2.44,0,0,0-.46.14l-.05,0a3.1,3.1,0,0,0-.47.26l-.06,0h0l-.07,0a1.72,1.72,0,0,0-.64.79.93.93,0,0,0,.22,1,1.06,1.06,0,0,0,.6.14h.9a4,4,0,0,0,1.15-.11,1.53,1.53,0,0,0,.94-.72A1.22,1.22,0,0,0,43.78,44.08Z"/><path class="cls-2" d="M55.27,44a1.23,1.23,0,0,0-.71-.35,3.06,3.06,0,0,0-.8,0h-.07a2.57,2.57,0,0,0-.4.06,3.53,3.53,0,0,0-.46.15l0,0a2.42,2.42,0,0,0-.47.26l-.06,0h0l-.07,0a1.65,1.65,0,0,0-.64.78,1,1,0,0,0,.22,1,1,1,0,0,0,.6.14h.9a4,4,0,0,0,1.15-.1,1.52,1.52,0,0,0,.94-.73A1.22,1.22,0,0,0,55.27,44Z"/><path class="cls-2" d="M42.32,61.57s-.15.08-.42,0a1.66,1.66,0,0,1-1-.61,2.3,2.3,0,0,1-.46-1.66,4.19,4.19,0,0,1,.72-1.94c.17-.27.35-.53.52-.77a.26.26,0,0,1,.36-.07l.06.06a19.36,19.36,0,0,0,3,2.76,6.47,6.47,0,0,1-3.37-2.45h.41c-.16.25-.34.5-.5.76a4.17,4.17,0,0,0-.69,1.71,2,2,0,0,0,.28,1.39A2.31,2.31,0,0,0,42.32,61.57Z"/><path class="cls-1" d="M58.1,43.59l.79-.89c1.38-1.32,3.33-1.33,5.2-3.64,2.54-3.14.64-5.72.64-5.72-2.23-3.61-7.48-3.62-11.25-2.24,2-.91,6-1.81,5.26-4.08-.64-3.1-6.75-2.93-12.6-.67,3.37-1.71,3.14-4.31.51-3.65l-13,4.48a15.27,15.27,0,0,0-4.85,2.35c-3.22,2.66-4.47,7.53-4.69,11.71A28.56,28.56,0,0,0,25.58,51.4,14.11,14.11,0,0,0,26.24,53a4.61,4.61,0,0,1,1.25-.5,5.44,5.44,0,0,1,2.86.38,2.8,2.8,0,0,1,1.45,1.45,10.09,10.09,0,0,0,.85,2.22,1.93,1.93,0,0,0,2,1,1.81,1.81,0,0,0,1.16-1.37,5.17,5.17,0,0,0,0-1.88c-.35-2.81-.69-5.62-1-8.43,6-1.36,9.58-5.63,10.54-11.62l.08,0a2.41,2.41,0,0,0,2.27,2.48,21.78,21.78,0,0,0,4.63-.37s1.5,4.36,5.32,2.7Z"/><path class="cls-2" d="M58.1,43.59a1.82,1.82,0,0,1,0-.27L58,42.45c-.1-.8-.24-2-.43-3.43l.13.07a3.7,3.7,0,0,1-3,.11,5.14,5.14,0,0,1-2.45-2.85l.16.09a21.1,21.1,0,0,1-3.94.4,6.71,6.71,0,0,1-1.09,0,2.26,2.26,0,0,1-1.07-.45,3,3,0,0,1-1-2.14l.26.13-.07,0,.07-.11a15.29,15.29,0,0,1-3,7.21,13.59,13.59,0,0,1-7.61,4.6l.17-.24c.21,1.65.42,3.36.64,5.1L36,53.61a7,7,0,0,1,0,2.81,2.16,2.16,0,0,1-.93,1.22,1.68,1.68,0,0,1-1.57,0,2.67,2.67,0,0,1-1.12-1.06,6.25,6.25,0,0,1-.56-1.38l-.22-.68a1.79,1.79,0,0,0-.3-.56,3.06,3.06,0,0,0-1-.84,5.07,5.07,0,0,0-2.74-.36h0a4.48,4.48,0,0,0-1.17.47h0a.23.23,0,0,1-.32-.06l0,0c-.27-.71-.62-1.41-.82-2.15s-.43-1.47-.6-2.23a28.58,28.58,0,0,1-.72-4.67,23.8,23.8,0,0,1,1.32-9.62A11.79,11.79,0,0,1,29,29,23.18,23.18,0,0,1,35,26.46l11.62-4h0a2.28,2.28,0,0,1,1.78.15,1.09,1.09,0,0,1,.51.85,1.84,1.84,0,0,1-.18.91,5.44,5.44,0,0,1-2.45,2.19l-.19-.43a24.48,24.48,0,0,1,7-1.64,10.18,10.18,0,0,1,3.44.26A4.29,4.29,0,0,1,58,25.5,2.68,2.68,0,0,1,59,27v0a1.92,1.92,0,0,1-.52,1.94A5.4,5.4,0,0,1,56.83,30c-1.11.53-2.24.88-3.27,1.33l-.15-.36A13.34,13.34,0,0,1,60,30.24a6.79,6.79,0,0,1,4.81,3h0a4.63,4.63,0,0,1,.23,4.43,7.44,7.44,0,0,1-2.32,2.79,15.13,15.13,0,0,1-2.38,1.31,6.16,6.16,0,0,0-1.46.93h0c-.62.68-.82.87-.82.87l.76-.92h0a5.51,5.51,0,0,1,1.45-1,15.66,15.66,0,0,0,2.33-1.34,7.35,7.35,0,0,0,2.21-2.74,4.34,4.34,0,0,0-.25-4.16h0A6.56,6.56,0,0,0,60,30.57a13.23,13.23,0,0,0-6.44.71.19.19,0,0,1-.25-.11.2.2,0,0,1,.11-.24c1.06-.47,2.18-.82,3.26-1.34a5.25,5.25,0,0,0,1.47-1,1.47,1.47,0,0,0,.41-1.53v0a2.37,2.37,0,0,0-.77-1.22,3.79,3.79,0,0,0-1.4-.67,10,10,0,0,0-3.29-.23,24.39,24.39,0,0,0-6.85,1.63.24.24,0,0,1-.31-.13.25.25,0,0,1,.12-.3,5,5,0,0,0,2.22-2c.19-.42.21-.94-.16-1.14a1.82,1.82,0,0,0-1.39-.08h0L35.11,27a22.69,22.69,0,0,0-5.8,2.51,11.35,11.35,0,0,0-3.64,5.19,23.34,23.34,0,0,0-1.28,9.4,28.91,28.91,0,0,0,.69,4.58c.18.75.38,1.48.59,2.21s.54,1.38.8,2.07l-.38-.09a5,5,0,0,1,1.33-.54h0a5.44,5.44,0,0,1,3,.42,3.38,3.38,0,0,1,1.21,1,2.21,2.21,0,0,1,.38.71l.22.69a3.1,3.1,0,0,0,1.42,2.14,1.17,1.17,0,0,0,1.12,0,1.67,1.67,0,0,0,.72-.94,6.83,6.83,0,0,0,0-2.62L35.17,51c-.21-1.75-.42-3.45-.62-5.11a.22.22,0,0,1,.17-.24,13.14,13.14,0,0,0,7.4-4.42,14.93,14.93,0,0,0,3-7,.2.2,0,0,1,.08-.12l.08,0a.16.16,0,0,1,.23,0,.11.11,0,0,1,0,.08,2.67,2.67,0,0,0,.86,1.9,2.93,2.93,0,0,0,2,.45,23.37,23.37,0,0,0,3.88-.36.14.14,0,0,1,.16.09A4.91,4.91,0,0,0,54.7,39a3.54,3.54,0,0,0,2.88-.07.08.08,0,0,1,.11,0v0C57.94,41.74,58.05,43,58.1,43.59Z"/><path class="cls-1" d="M37.46,321.81l4.11-11.54,17.87,6.35L52.7,333.25l-13.42.29-3.05-8.26Z"/><path class="cls-2" d="M37.46,321.81a5.57,5.57,0,0,1-.26.92l-.86,2.59v-.08l3.12,8.24-.18-.13L52.69,333l-.22.16c1.35-3.35,2.83-7,4.36-10.78l2.37-5.86.16.34L41.5,310.45l.25-.12c-1.29,3.51-2.34,6.37-3.08,8.42L37.8,321a3.93,3.93,0,0,1-.34.78,7,7,0,0,1,.24-.82l.77-2.32c.7-2.05,1.7-4.93,2.91-8.47a.19.19,0,0,1,.25-.11h0l17.9,6.29a.26.26,0,0,1,.16.32v0c-.77,1.89-1.56,3.85-2.37,5.85l-4.38,10.77a.25.25,0,0,1-.23.16l-13.42.24a.21.21,0,0,1-.18-.13l-3-8.29a.11.11,0,0,1,0-.08l1-2.55A8.88,8.88,0,0,1,37.46,321.81Z"/><path class="cls-2" d="M25.6,344c2.48-7.34,5.12-11.57,7.6-18.91.45-1.33,1.1-2.86,2.47-3.21a3.21,3.21,0,0,1,3.2,1.59,33,33,0,0,1,1.62,3.46,8.49,8.49,0,0,0,14.83.42q7.07,8.58,14.11,17.17s5.77-.09,7.86,1.9a6.55,6.55,0,0,1,2.35,4.52c.4,3.11-.74,3.89-.74,3.89l-22.42.07Z"/><path class="cls-1" d="M79.07,354.5a6.33,6.33,0,0,0,.6-1.7l-21.3-.61c-16.67-6-14.66-6.08-31.33-12.12l-.51,1.31c-.31.83-.62,1.69-.93,2.61l30.88,10.9,22.42-.07S78.7,355.23,79.07,354.5Z"/><path class="cls-2" d="M79.07,354.5s0,.05,0,.14l-.08.18-.06.11v0s0,0,0,0l0-.05h0v0l0-.07,0,.05c-2.12.07-10.42.16-22.42.24h-.07l-30.9-10.86a.25.25,0,0,1-.16-.32h0c.27-.76.57-1.58.86-2.41L26.8,340a.26.26,0,0,1,.33-.15c5.95,2.14,11.61,4.34,16.82,6.55s10.11,4,14.49,5.62l-.06,0c10.51.34,18.17.61,21.3.75a.06.06,0,0,1,.06.06v0a5,5,0,0,1-.66,1.69,8.7,8.7,0,0,0,.54-1.72l.06.08c-3.13,0-10.79-.2-21.31-.46H58.3c-4.39-1.58-9.31-3.39-14.54-5.56S32.9,342.46,27,340.32l.33-.15-.58,1.5-.86,2.4-.16-.33,30.87,11-.07,0c12,0,20.3,0,22.42.11a0,0,0,0,1,0,0v0l0,.07v0h0s0,0,0,0,0,0,0,0h0l.06-.11.1-.16Z"/><polygon class="cls-1" points="25.43 321.29 25.21 332.92 21.86 340.65 14.58 341.28 7.88 333.46 8.13 319.59 25.43 321.29"/><path class="cls-2" d="M25.43,321.29a1.36,1.36,0,0,1-.35,0l-.95-.06-3.54-.29L8.11,319.82l.25-.22-.22,13.86-.07-.17,2.09,2.44,4.61,5.39-.21-.09,7.28-.62-.19.14c1.24-2.83,2.38-5.42,3.39-7.7l0,.07c.11-3.52.19-6.39.26-8.45l.09-2.33a5.09,5.09,0,0,1,.06-.85,7.4,7.4,0,0,1,0,.78v2.29c0,2.09,0,5-.05,8.57a.19.19,0,0,1,0,.07c-1,2.29-2.09,4.9-3.31,7.74a.21.21,0,0,1-.19.14l-7.29.66a.27.27,0,0,1-.21-.09l-4.62-5.39-2.09-2.43a.28.28,0,0,1-.06-.18c.1-5,.2-9.75.28-13.86a.22.22,0,0,1,.23-.22h0l12.6,1.35,3.48.4.91.12A1.29,1.29,0,0,1,25.43,321.29Z"/><path class="cls-2" d="M4.3,354.74c0-7.18,1-12.41,1-19.59,0-1.31.1-2.84,1.2-3.56a3,3,0,0,1,3.28.44,32.77,32.77,0,0,1,2.46,2.54,7.87,7.87,0,0,0,13.14-4.07l24.34,15.05a13.33,13.33,0,0,1,4.44,3.74c1.07,1.64,1.29,4,0,5.45Z"/><path class="cls-1" d="M5.79,350.17l49.13.9a4,4,0,0,1-.77,3.67H4.31c0-1.38,0-3.38.09-4.6Z"/><path class="cls-2" d="M5.79,350.17a1.29,1.29,0,0,1-.35,0h-1l.06-.05,0,4.59-.12-.12c8.76-.09,27.18-.14,48.44-.14h1.4l-.19.08a3.81,3.81,0,0,0,.7-3.44l.25.2L20,350.6l-10.42-.27-2.81-.1-.73,0-.25,0a.72.72,0,0,1,.25,0H9.59l10.41.11,34.92.56a.26.26,0,0,1,.25.2,4.33,4.33,0,0,1-.83,3.9.25.25,0,0,1-.19.09h-1.4c-21.26,0-39.68-.06-48.44-.15h0a.11.11,0,0,1-.11-.11h0l.15-4.6a.06.06,0,0,1,.06-.06h0l1,.05Z"/><path class="cls-1" d="M54.92,351.07a8.94,8.94,0,0,1-.48-1.15,7.27,7.27,0,0,0-2-2.64,29.92,29.92,0,0,0-4-3c-1.59-1-3.43-2-5.33-3.05-3.82-2.12-7.27-4.07-9.75-5.5L30.5,334a5.28,5.28,0,0,1-1-.69,5.73,5.73,0,0,1,1.14.51l3,1.58c2.53,1.35,6,3.24,9.82,5.36,1.9,1.07,3.74,2.06,5.34,3.11a25.57,25.57,0,0,1,4,3.15,6.77,6.77,0,0,1,1.91,2.84A4.42,4.42,0,0,1,54.92,351.07Z"/><path class="cls-3" d="M69.21,194.65c1,1.14,12.6,49.83,12.92,55.5S61.67,324.9,61.67,324.9L37.1,318.79l13-65.42-8.5-37.5-10.27,109-30-1.28,2.4-124.9a64.7,64.7,0,0,1-1.88-27.11,93.68,93.68,0,0,1,8.07-25.7H59Z"/><path class="cls-1" d="M42.74,174.54c.14,0-.18,11.18-.72,25s-1.09,24.94-1.23,24.93.18-11.17.71-24.95S42.59,174.54,42.74,174.54Z"/><path class="cls-1" d="M20.42,166.41a13,13,0,0,1-.14-3.66,13.15,13.15,0,0,1,.37-3.64,13.22,13.22,0,0,1,.15,3.66A12.84,12.84,0,0,1,20.42,166.41Z"/><path class="cls-1" d="M23.39,167.1a11.38,11.38,0,0,1,.05-3.45,11.9,11.9,0,0,1,.56-3.41,11,11,0,0,1-.05,3.45A11.9,11.9,0,0,1,23.39,167.1Z"/><path class="cls-1" d="M52.8,164.59a4.93,4.93,0,0,1-.36-2.16,4.81,4.81,0,0,1,.15-2.18,4.81,4.81,0,0,1,.37,2.16A4.61,4.61,0,0,1,52.8,164.59Z"/><path class="cls-1" d="M55.48,164.59a6.13,6.13,0,0,1-.28-2.51,6.25,6.25,0,0,1,.23-2.51,6.21,6.21,0,0,1,.29,2.5A6.42,6.42,0,0,1,55.48,164.59Z"/><path class="cls-1" d="M17.49,302.37a14.49,14.49,0,0,1-.57-3.93,28.43,28.43,0,0,1,1.94-10.64c1.54-4.33,4.28-9.08,6.89-14.5a42.59,42.59,0,0,0,1.78-4.25,9.23,9.23,0,0,0,.47-4.63,8.36,8.36,0,0,0-2.38-4.16,22.74,22.74,0,0,0-4-3.13,33.34,33.34,0,0,1-4.2-3,10.69,10.69,0,0,1-2.92-4.17,17.47,17.47,0,0,1-.39-9.48,46,46,0,0,1,6.05-14.85,107.31,107.31,0,0,1,6.13-8.93l1.79-2.34.47-.6c.11-.13.17-.2.18-.19a1.1,1.1,0,0,1-.13.22l-.44.63-1.71,2.4c-1.47,2.08-3.65,5.07-6,9a46.36,46.36,0,0,0-5.9,14.75,17,17,0,0,0,.4,9.21,10.17,10.17,0,0,0,2.79,4,32.06,32.06,0,0,0,4.14,3A23.25,23.25,0,0,1,26,259.9a8.92,8.92,0,0,1,2.5,4.42,9.59,9.59,0,0,1-.5,4.89,44,44,0,0,1-1.82,4.3c-2.65,5.44-5.4,10.14-7,14.42a29.23,29.23,0,0,0-2.09,10.5,22.09,22.09,0,0,0,.22,2.92l.12.76A.86.86,0,0,1,17.49,302.37Z"/><path class="cls-1" d="M128.66,66.93c.11-1.72-1.53-2.15-2.6-2.18-.39,0-5.14-.06-8.89-.06.19-.42,2.31-5.31,1.74-6.92s-2-1.22-2.64.94-2.5,3.5-4.07,5.48-2.33,9.08-2.33,9.08l-.61,1.44-2.52,5.52,9.59,5.85,2.2-5s6.73-1.43,7.72-2.76a1.87,1.87,0,0,0,0-2.39s.83-.12,1.4-1.33a2.23,2.23,0,0,0-.14-2.18,3.32,3.32,0,0,0,1.12-1.62c.48-1.24-1-1.88-1-1.88S128.56,68.54,128.66,66.93Z"/><path class="cls-2" d="M128.66,66.93a2.4,2.4,0,0,1-1,2v-.15a2.42,2.42,0,0,1,.75.52,1.39,1.39,0,0,1,.42,1,2.67,2.67,0,0,1-.39,1.14,3.09,3.09,0,0,1-.86,1l0-.19a2.55,2.55,0,0,1-1.34,3.76l.1-.29a2.05,2.05,0,0,1,.08,2.46,2.7,2.7,0,0,1-1.06.87,12.6,12.6,0,0,1-1.24.55,43.27,43.27,0,0,1-5.64,1.61l.16-.13c-.69,1.6-1.42,3.28-2.18,5a.25.25,0,0,1-.32.13l0,0-9.59-5.84a.27.27,0,0,1-.1-.33c.64-1.39,1.31-2.87,2-4.37.41-.86.78-1.73,1.13-2.58l0,0a36.07,36.07,0,0,1,1.64-7.75,5.32,5.32,0,0,1,1-1.7c.4-.49.83-1,1.24-1.4a13.69,13.69,0,0,0,2.18-2.77c.53-.93.61-2.33,1.83-3a1,1,0,0,1,1,.11,1.7,1.7,0,0,1,.55.74,3.15,3.15,0,0,1,.15,1.68,24.62,24.62,0,0,1-1.83,5.61l-.17-.26c4,.07,7.12.08,9.34.19a2.36,2.36,0,0,1,2.08,1.36,1.5,1.5,0,0,1,.07.88,3.16,3.16,0,0,0-.17-.85,2.28,2.28,0,0,0-2-1.19c-2.18,0-5.38,0-9.31,0a.18.18,0,0,1-.18-.19s0-.05,0-.07a24,24,0,0,0,1.74-5.51,2.71,2.71,0,0,0-.12-1.45c-.19-.46-.58-.82-1-.61a2.26,2.26,0,0,0-.94,1.16c-.21.48-.36,1.09-.65,1.62a13.85,13.85,0,0,1-2.24,2.88c-.41.46-.82.91-1.21,1.39a5,5,0,0,0-.89,1.57,36.6,36.6,0,0,0-1.6,7.66v0h0c-.36.86-.73,1.73-1.13,2.59l-2,4.38-.1-.33,9.57,5.87-.34.11,2.21-5a.23.23,0,0,1,.16-.13,43.6,43.6,0,0,0,5.58-1.55,9.38,9.38,0,0,0,1.21-.52,2.25,2.25,0,0,0,.92-.72,1.69,1.69,0,0,0,0-2,.18.18,0,0,1,0-.25.15.15,0,0,1,.07,0h0a2.3,2.3,0,0,0,1.38-1.46,2.11,2.11,0,0,0-.21-1.8.15.15,0,0,1,0-.2h0a3.42,3.42,0,0,0,1.17-2,1.61,1.61,0,0,0-1-1.35.08.08,0,0,1,0-.11.08.08,0,0,1,0,0,2.06,2.06,0,0,0,.89-1.33C128.63,67.13,128.64,66.93,128.66,66.93Z"/><path class="cls-2" d="M127.68,68.91a55.57,55.57,0,0,1-7.26.26,4.08,4.08,0,0,1-1.54-.19,2,2,0,0,1-1-1.1,1.76,1.76,0,0,1,0-1.37,2.33,2.33,0,0,1,.7-.93,2.89,2.89,0,0,1,1.47-.66c.38,0,.59,0,.58,0a4.39,4.39,0,0,0-1.81.9,1.65,1.65,0,0,0-.5,1.84,1.51,1.51,0,0,0,.79.82,4.12,4.12,0,0,0,1.35.14c2,0,3.83,0,5.14.07A8.21,8.21,0,0,1,127.68,68.91Z"/><path class="cls-2" d="M127.56,72.41a39.64,39.64,0,0,1-6.27.21,3.46,3.46,0,0,1-2.48-.6,1.71,1.71,0,0,1-.63-1,1.55,1.55,0,0,1,.28-1,2.79,2.79,0,0,1,1-1c.3-.17.53-.11.51-.08s-.17,0-.4.25a3.26,3.26,0,0,0-.78,1,1.23,1.23,0,0,0-.18.74,1.41,1.41,0,0,0,.51.74,3.12,3.12,0,0,0,2.17.45A37.55,37.55,0,0,1,127.56,72.41Z"/><path class="cls-2" d="M126.6,75.83a33.6,33.6,0,0,1-5.87.46,3,3,0,0,1-2.26-.88,1.33,1.33,0,0,1-.33-1.09,2.32,2.32,0,0,1,.28-.91,1.79,1.79,0,0,1,1-.85c.31-.1.49,0,.48,0s-.16,0-.41.19a1.75,1.75,0,0,0-.77.83c-.17.42-.34,1.11.08,1.51a2.58,2.58,0,0,0,1.91.67c1.58-.05,3.09-.08,4.14-.05A5.5,5.5,0,0,1,126.6,75.83Z"/><path class="cls-2" d="M126.06,78.5a4,4,0,0,1-1.44.87,5.87,5.87,0,0,1-1.79.44c-.69.06-1.41.12-2.23.12a2.75,2.75,0,0,1-2.15-.92,1.43,1.43,0,0,1-.34-1.07,2.37,2.37,0,0,1,.39-.83,2.55,2.55,0,0,1,.94-.85c.28-.15.48-.08.46-.06s-.15.06-.36.23a3,3,0,0,0-.73.88,2,2,0,0,0-.27.7,1,1,0,0,0,.28.69,2.34,2.34,0,0,0,1.8.7,13.63,13.63,0,0,0,3.87-.38A8,8,0,0,1,126.06,78.5Z"/><path class="cls-2" d="M115.46,76.65c0-.07.59-.55,1.28-1.59a6.67,6.67,0,0,0-.8-8.32.23.23,0,0,1,0-.27c.45-.63.75-1.25,1-1.64s.44-.59.47-.56-.08.25-.27.67a13.45,13.45,0,0,1-.88,1.77l0-.26a6.75,6.75,0,0,1,2.06,3.94A6.59,6.59,0,0,1,117,75.27,3.75,3.75,0,0,1,115.46,76.65Z"/><path class="cls-1" d="M104.84,76.24l-16.6,25.43L66,84.25,48.73,78.39l-2.28-3-.86,6.22L28.66,71.65l-4.51,4.92-9.66.24C3,77.75-.8,91.82.48,100l1.64,11,1.75,15L3.14,151c-.18,1.62.95,6.12,2.58,6.12l55.85,1c1.51,0,2-5.1,1.91-6.61l-4.23-22.9,2.82-18.41L81.68,122.4c4.34,2.71,11.55,3.8,15.71-1.84l21.43-33.43Z"/><path class="cls-2" d="M104.84,76.24l.9.68L108.43,79l10.46,8.07a.11.11,0,0,1,0,.14l-17.8,27.89-2.8,4.37a10.09,10.09,0,0,1-9.2,5.35,14.54,14.54,0,0,1-5.72-1.27,21.62,21.62,0,0,1-2.62-1.46l-2.57-1.6-5.27-3.28-11-6.84.34-.16c-.89,5.8-1.83,12-2.81,18.41v-.08c1.34,7.26,2.77,15,4.24,22.9h0v0a17.62,17.62,0,0,1-.35,4,8.33,8.33,0,0,1-.62,2,2,2,0,0,1-.75.85,2.73,2.73,0,0,1-1.1.09l-8.06-.13-16.6-.29-17.12-.29-8.74-.15L6,157.37H5.7l-.35-.06a1.59,1.59,0,0,1-.56-.34,3.42,3.42,0,0,1-.72-.94,9.79,9.79,0,0,1-.82-2.12A9,9,0,0,1,2.88,151v0c.26-8.45.5-16.78.74-24.94v0c-.34-2.93-.68-5.85-1-8.74s-.61-5.77-1.07-8.6S.68,103.1.27,100.32a26.16,26.16,0,0,1,3-16.18,15.4,15.4,0,0,1,5.59-5.82,14.26,14.26,0,0,1,7.66-1.8l7.66-.18-.16.08L28.5,71.5a.22.22,0,0,1,.28,0l16.92,10-.32.15.86-6.21a.2.2,0,0,1,.23-.18.22.22,0,0,1,.14.08l2.28,3-.1-.07L66.1,84.08l.05,0,22.18,17.46-.2,0,12.38-18.84,3.22-4.88.83-1.24c.18-.27.28-.4.28-.4l-.28.44L103.75,78l-3.19,4.94-12.2,18.86a.14.14,0,0,1-.19,0h0L65.93,84.39l0,0L48.66,78.58a.13.13,0,0,1-.09-.07l-2.29-3,.37-.1c-.27,2-.55,4-.85,6.22a.2.2,0,0,1-.24.18l-.08,0L28.55,71.85l.28,0-4.51,4.92a.25.25,0,0,1-.17.08L16.5,77a13.62,13.62,0,0,0-7.44,1.74,14.86,14.86,0,0,0-5.4,5.64A24,24,0,0,0,1,92c-1.2,5.42.37,11,1.07,16.67.47,2.83.72,5.72,1.08,8.61s.68,5.8,1,8.74v0c-.24,8.15-.49,16.48-.73,24.93v0a9,9,0,0,0,.36,2.75,9.19,9.19,0,0,0,.77,2,3.08,3.08,0,0,0,.61.8,1.21,1.21,0,0,0,.38.24l.2,0H6l4.41.08,8.73.15,17.13.3,16.59.29,8.07.15a3.13,3.13,0,0,0,.87,0,1.54,1.54,0,0,0,.53-.63,8.41,8.41,0,0,0,.58-1.82,17.17,17.17,0,0,0,.34-3.83v0c-1.46-7.93-2.88-15.64-4.22-22.9a.11.11,0,0,1,0-.08c1-6.4,1.94-12.61,2.83-18.41a.22.22,0,0,1,.25-.18.32.32,0,0,1,.09,0l11,6.86,5.25,3.29L81,121.73a21.17,21.17,0,0,0,2.57,1.44c3.53,1.57,7.7,1.79,10.83-.11A10.08,10.08,0,0,0,98,119.25l2.8-4.36,17.92-27.82,0,.14-10.33-8.12L105.75,77Z"/><polygon class="cls-4" points="47.72 90.2 53.67 131.07 46.17 155.8 37.4 143.16 43.54 89.03 47.72 90.2"/><path class="cls-2" d="M65.8,91.46a4.73,4.73,0,0,1-.15,1.08l-.54,2.89c-.47,2.45-1.08,5.83-1.72,9.58s-1.16,7-1.59,9.59c-.18,1.14-.33,2.11-.46,2.91a6.67,6.67,0,0,1-.18,1.07,17.32,17.32,0,0,1,.28-4c.3-2.47.8-5.88,1.44-9.63s1.31-7.13,1.86-9.56c.29-1.22.52-2.2.72-2.87A3.8,3.8,0,0,1,65.8,91.46Z"/><path class="cls-2" d="M112.68,87.85a1.18,1.18,0,1,0,1.17-1.17A1.18,1.18,0,0,0,112.68,87.85Z"/><path class="cls-1" d="M1.15,98c.57.95,8.31,35.67,20.19,43.59s42.94,17.29,42.94,17.29l6.91-17.5L38.81,124.66,25.9,96.14"/><path class="cls-2" d="M25.9,96.14s.1.17.26.5l.69,1.47,2.63,5.67c2.26,5,5.52,12.06,9.51,20.8l-.09-.1,32.41,16.71a.26.26,0,0,1,.12.32L64.52,159a.26.26,0,0,1-.32.16l-4.08-1.28c-6-1.93-11.78-3.92-17.31-6S32,147.59,27.1,145.16c-1.22-.6-2.39-1.27-3.56-1.9a35.35,35.35,0,0,1-3.3-2.16,25.61,25.61,0,0,1-4.94-5.69,70.6,70.6,0,0,1-6.12-12A170.82,170.82,0,0,1,3,104.94c-.62-2.21-1.06-3.94-1.37-5.11S1.15,98,1.15,98a1.89,1.89,0,0,1,.18.44c.1.29.23.74.4,1.32l1.46,5.09a181.24,181.24,0,0,0,6.33,18.38,71.13,71.13,0,0,0,6.14,11.9,25.53,25.53,0,0,0,4.86,5.57,35.73,35.73,0,0,0,3.26,2.11c1.16.63,2.32,1.29,3.54,1.88,4.86,2.41,10.14,4.57,15.67,6.66s11.32,4.08,17.29,6l4.07,1.28-.31.15c2.39-6,4.71-11.9,6.92-17.5l.12.32L38.72,124.83a.2.2,0,0,1-.09-.09c-3.93-8.76-7.12-15.9-9.35-20.87l-2.53-5.71-.65-1.5C26,96.32,25.9,96.14,25.9,96.14Z"/><path class="cls-4" d="M40.5,86.11c0-.07,3,4.09,3,4.09h4.18L48,85.73l-1.73-3.12-4.1.49Z"/><path class="cls-2" d="M90.11,114.17a25.71,25.71,0,0,1-1.38-6.11,26.19,26.19,0,0,1-.37-6.26c.15,0,.4,2.77.89,6.18S90.26,114.14,90.11,114.17Z"/><path class="cls-2" d="M38.81,124.66a28.34,28.34,0,0,1-3.65,2.79,40.6,40.6,0,0,1-3.71,2.7,13.83,13.83,0,0,1,3.4-3.12A15.92,15.92,0,0,1,38.81,124.66Z"/><path class="cls-2" d="M45.47,83.48a6,6,0,0,1-.78-.41l-.93-.49-.58-.31-.32-.17L42.69,82l-.08,0h0c-.09.25.3-.31.16-.29h0l.05,0a.18.18,0,0,1,.07.23v0h0a26.18,26.18,0,0,0-1.63,2.67A28.11,28.11,0,0,1,39.22,88a.26.26,0,0,1-.36.06l0,0c-.69-.67-1.46-1.34-2.27-2-2.91-2.29-5.78-4.07-7.75-5.52-1-.72-1.76-1.34-2.28-1.78a4.57,4.57,0,0,1-.77-.74,3.85,3.85,0,0,1,.89.58c.56.39,1.36,1,2.37,1.64,2,1.37,4.91,3.09,7.86,5.41.83.67,1.61,1.36,2.31,2l-.38,0a30.27,30.27,0,0,0,2.07-3.28,22.34,22.34,0,0,1,1.75-2.66l0,.25,0,0h0c-.14,0,.24-.54.16-.3h0l.09,0,.17.1.31.18.56.34c.36.22.65.41.89.57C45.26,83.23,45.5,83.45,45.47,83.48Z"/><path class="cls-2" d="M48.72,78.52a6.47,6.47,0,0,1,.55,2.07,20.45,20.45,0,0,1,.17,5.17c0,.51-.12,1-.19,1.49a.25.25,0,0,1-.29.21.27.27,0,0,1-.17-.1,19.57,19.57,0,0,1-2.09-3.6,4.6,4.6,0,0,1-.53-1.58c.13-.06,1.06,2.26,3,4.88l-.46.11c.07-.47.14-1,.18-1.46A42.35,42.35,0,0,0,48.72,78.52Z"/><path class="cls-1" d="M111.35,12C107,7,101.07,5.58,94.42,5.25,89.34,5,84,5.5,79.73,8.24c-6.07,3.91-8.72,12.14-6.66,19A21.14,21.14,0,0,0,88.46,41.5h.59a19.35,19.35,0,0,1-6.82,10.23,11.54,11.54,0,0,0,11.71-9.51c7.14,1.28,14.44-2,19-7.62S118,19.92,111.35,12Z"/><path class="cls-2" d="M111.35,12l.15.16.41.5.67.82.82,1.2a18.91,18.91,0,0,1,3.07,8.91,15.89,15.89,0,0,1-.9,6.65,15.24,15.24,0,0,1-1.72,3.42,21.53,21.53,0,0,1-10.21,7.84,19,19,0,0,1-9.75.93l.28-.2a11.82,11.82,0,0,1-12,9.73.26.26,0,0,1-.24-.27.23.23,0,0,1,.1-.19,19.09,19.09,0,0,0,6.72-10.1l.26.33h-.64l-.93-.23A21.43,21.43,0,0,1,75.2,32.44a19.14,19.14,0,0,1-2.78-6.86,17.72,17.72,0,0,1,.17-7.08A16.56,16.56,0,0,1,79.86,7.92,22.09,22.09,0,0,1,90.79,5a44.56,44.56,0,0,1,9.34.7,21.63,21.63,0,0,1,6.66,2.38,15.93,15.93,0,0,1,3.53,2.74,14,14,0,0,1,1,1.17s-.11-.08-.29-.27-.43-.49-.81-.83a17.24,17.24,0,0,0-3.56-2.63A21.49,21.49,0,0,0,100.08,6a44.33,44.33,0,0,0-9.27-.62A21.92,21.92,0,0,0,80.08,8.28a16.17,16.17,0,0,0-7,10.33,17.15,17.15,0,0,0-.15,6.89,18.74,18.74,0,0,0,2.71,6.66,21,21,0,0,0,12,8.86l.9.22h.54a.26.26,0,0,1,.26.26s0,0,0,.06a19.6,19.6,0,0,1-6.92,10.37l-.14-.45A11.34,11.34,0,0,0,93.7,42.19.24.24,0,0,1,94,42h0a18.6,18.6,0,0,0,9.51-.87,21.44,21.44,0,0,0,7.42-4.6,21.76,21.76,0,0,0,2.63-3,15.39,15.39,0,0,0,1.71-3.32,15.63,15.63,0,0,0,.93-6.52,18.91,18.91,0,0,0-2.91-8.84l-.79-1.22-.63-.84-.38-.52C111.38,12.1,111.34,12,111.35,12Z"/><polyline class="cls-5" points="87.91 22.93 93.3 27.34 100.85 19.71"/><path class="cls-1" d="M135.74,35.73l-.12-.43a22.21,22.21,0,0,0,6.89-5.65c4.52-5.57,5.07-14.47-1.37-22.29A18.85,18.85,0,0,0,128.77.72C122.47,0,114.94-.34,109.29,3.3a13.86,13.86,0,0,0-2.57,2.13A17.56,17.56,0,0,1,115.55,11c6.68,7.89,6.17,16.93,1.6,22.57a21.16,21.16,0,0,1-2,2.13l.14,0a29.27,29.27,0,0,0,6.51,1.62l1.68.22a19.47,19.47,0,0,0,7.49-.48A11.58,11.58,0,0,0,142.56,46,19.27,19.27,0,0,1,135.74,35.73Z"/><path class="cls-2" d="M135.74,35.73a.9.9,0,0,1,.07.19l.2.6a22.46,22.46,0,0,0,.91,2.25,19.56,19.56,0,0,0,5.72,7.08.13.13,0,0,1,0,.2.14.14,0,0,1-.1.05,11.26,11.26,0,0,1-6.9-2,11.71,11.71,0,0,1-4.89-7l.25.15a19.64,19.64,0,0,1-7.7.49,32.23,32.23,0,0,1-8.25-1.87.24.24,0,0,1-.14-.3.56.56,0,0,1,0-.08h0l1.25-1.34.63-.68c.2-.23.37-.5.56-.74a18.42,18.42,0,0,0,1-1.58,18.17,18.17,0,0,0,.79-1.74,15.92,15.92,0,0,0,1-7.72A19.39,19.39,0,0,0,117.43,14a26.51,26.51,0,0,0-2.54-3.39,16.56,16.56,0,0,0-3.26-2.75,19,19,0,0,0-5-2.22.27.27,0,0,1-.17-.33.17.17,0,0,1,.06-.1,15.89,15.89,0,0,1,6-3.86A24.8,24.8,0,0,1,119.41.07,45,45,0,0,1,126.1.2a28.22,28.22,0,0,1,6.33,1.07A18.64,18.64,0,0,1,142,8.11a20,20,0,0,1,4,9.52,18.31,18.31,0,0,1,0,4.57,17.33,17.33,0,0,1-1.14,3.95,17.19,17.19,0,0,1-3.88,5.42,20.39,20.39,0,0,1-5.28,3.75v0a3.19,3.19,0,0,1,.1.43s0,0-.13-.42v0a24.51,24.51,0,0,0,5.15-3.87A17.29,17.29,0,0,0,144.52,26a16.71,16.71,0,0,0,1.08-3.88,17.2,17.2,0,0,0,0-4.48,19.65,19.65,0,0,0-4-9.3,18.24,18.24,0,0,0-9.35-6.65,28,28,0,0,0-6.23-1,44.14,44.14,0,0,0-6.62-.11,24.25,24.25,0,0,0-6.68,1.3,15.24,15.24,0,0,0-5.86,3.73l-.11-.43a19.38,19.38,0,0,1,5.12,2.28,17.38,17.38,0,0,1,3.37,2.84,28.79,28.79,0,0,1,2.6,3.47,20,20,0,0,1,2.83,7.9,16.55,16.55,0,0,1-1,8,18.16,18.16,0,0,1-.82,1.79,18.14,18.14,0,0,1-1,1.63c-.2.25-.37.52-.58.76l-.65.69-1.27,1.37-.08-.39a32.16,32.16,0,0,0,8.14,1.88,19.24,19.24,0,0,0,7.54-.45.19.19,0,0,1,.24.15h0a11.36,11.36,0,0,0,4.69,6.78,11,11,0,0,0,6.68,2l-.08.25a19.15,19.15,0,0,1-5.68-7.24A14,14,0,0,1,135.74,35.73Z"/><path class="cls-1" d="M160.12,330.4V318.51H141.7l.77,17.41,12.17,4.63,5.48-6.57Z"/><path class="cls-2" d="M160.12,330.4a5.55,5.55,0,0,1,.06.92l0,2.66a.11.11,0,0,1,0,.07l-5.41,6.62a.21.21,0,0,1-.21.06l-12.2-4.58a.24.24,0,0,1-.16-.22c-.16-3.51-.33-7.32-.51-11.28l-.27-6.13a.27.27,0,0,1,.25-.27h0l18.42.07a.19.19,0,0,1,.19.19h0c0,3.63-.06,6.58-.08,8.7l-.06,2.37a4,4,0,0,1,0,.82,4.35,4.35,0,0,1-.06-.82c0-.6,0-1.39-.05-2.37,0-2.12,0-5.07-.08-8.7l.19.19-18.42.07.26-.27c.09,2,.18,4,.27,6.13.17,4,.33,7.77.48,11.28l-.16-.22,12.16,4.67-.21.06L160,333.9l0,.08.05-2.66A5.55,5.55,0,0,1,160.12,330.4Z"/><path class="cls-1" d="M163.77,354.55c.11-7.52-.93-12.25-.81-19.77,0-1.37-.08-3-1.21-3.74a3.09,3.09,0,0,0-3.45.42,32.4,32.4,0,0,0-2.61,2.63A8.24,8.24,0,0,1,142,329.65L116.3,345.11a14,14,0,0,0-4.71,3.86c-1.14,1.7-1.4,4.17,0,5.7Z"/><path class="cls-2" d="M163.77,354.55h-.24l-.74,0-2.88,0-10.84.1-37.52.21a.24.24,0,0,1-.18-.09,4.69,4.69,0,0,1-.67-4.64,8.18,8.18,0,0,1,3.08-3.77c1.34-1,2.78-1.76,4.19-2.63l4.32-2.6,19.57-11.76a.25.25,0,0,1,.34.09l0,.08A8.1,8.1,0,0,0,149,336a8.28,8.28,0,0,0,4.55-.75,7.7,7.7,0,0,0,1.87-1.24c.55-.49,1-1.06,1.53-1.61A7,7,0,0,1,158.7,331a3.59,3.59,0,0,1,2.15-.45,2.31,2.31,0,0,1,1.76,1.21,4.77,4.77,0,0,1,.51,2c0,1.32,0,2.54,0,3.73s.06,2.32.12,3.39c.25,4.31.55,7.74.57,10.1,0,1.18,0,2.07,0,2.71l0,.69c0,.16,0,.23,0,.23a1.41,1.41,0,0,1,0-.25l0-.69c0-.6,0-1.52-.08-2.69-.07-2.35-.41-5.76-.71-10.08-.07-1.08-.11-2.21-.15-3.41s0-2.45,0-3.71a4.38,4.38,0,0,0-.47-1.81,2,2,0,0,0-1.48-1,3.14,3.14,0,0,0-1.91.42,6.58,6.58,0,0,0-1.6,1.36c-.5.54-1,1.13-1.55,1.65a8.28,8.28,0,0,1-2,1.32,8.67,8.67,0,0,1-4.79.8,8.55,8.55,0,0,1-7.24-6.75l.37.17-19.56,11.78-4.31,2.59c-1.41.87-2.86,1.67-4.15,2.6a7.61,7.61,0,0,0-2.9,3.53,4.18,4.18,0,0,0,.55,4.14l-.19-.09,37.35,0,10.9,0,2.93,0h.77Z"/><path class="cls-2" d="M163.72,350.5c0,.14-11.88.33-26.54.42s-26.55,0-26.56-.1,11.89-.33,26.55-.42S163.72,350.35,163.72,350.5Z"/><path class="cls-1" d="M126.64,339.06a4.84,4.84,0,0,1,2.73,3.53"/><path class="cls-2" d="M129.37,342.59c-.15,0-.38-1-1.14-1.94s-1.65-1.45-1.59-1.59,1.16.17,2,1.27A2.7,2.7,0,0,1,129.37,342.59Z"/><path class="cls-1" d="M130.76,336.44a4.86,4.86,0,0,1,2.73,3.53"/><path class="cls-2" d="M133.49,340c-.15,0-.38-1-1.14-1.94s-1.65-1.45-1.59-1.59,1.16.18,2,1.27A2.7,2.7,0,0,1,133.49,340Z"/><path class="cls-1" d="M134.86,334.15a4.84,4.84,0,0,1,2.73,3.53"/><path class="cls-2" d="M137.59,337.68c-.15,0-.39-1-1.14-1.94s-1.66-1.45-1.59-1.59,1.16.18,2,1.27A2.74,2.74,0,0,1,137.59,337.68Z"/><circle class="cls-1" cx="129.37" cy="342.59" r="1.16"/><path class="cls-2" d="M130.53,342.59c-.08,0-.09-.46-.57-.78a1,1,0,0,0-.9-.09.93.93,0,0,0,0,1.73,1,1,0,0,0,.9-.09c.48-.32.49-.79.57-.77s.08.1.06.3a1.09,1.09,0,0,1-.41.76,1.32,1.32,0,0,1-1.29.25,1.39,1.39,0,0,1,0-2.63,1.32,1.32,0,0,1,1.29.25,1.09,1.09,0,0,1,.41.76C130.61,342.48,130.56,342.59,130.53,342.59Z"/><path class="cls-1" d="M134.88,340a1.16,1.16,0,1,1-1.16-1.16A1.16,1.16,0,0,1,134.88,340Z"/><path class="cls-2" d="M134.88,340c-.08,0-.08-.46-.57-.78a1,1,0,0,0-.9-.09,1,1,0,0,0-.59.87,1,1,0,0,0,1.49.77c.49-.32.49-.79.57-.77s.08.1.07.31a1.22,1.22,0,0,1-.41.76A1.37,1.37,0,0,1,132.3,340a1.4,1.4,0,0,1,.94-1.32,1.34,1.34,0,0,1,1.3.25,1.18,1.18,0,0,1,.41.76C135,339.91,134.92,340,134.88,340Z"/><circle class="cls-1" cx="137.79" cy="337.45" r="1.16"/><path class="cls-2" d="M139,337.45c-.08,0-.09-.46-.57-.78a1,1,0,0,0-.9-.09,1,1,0,0,0-.59.87.92.92,0,0,0,.59.86,1,1,0,0,0,.9-.08c.48-.33.49-.8.57-.78s.08.1.06.31a1.13,1.13,0,0,1-.4.76,1.34,1.34,0,0,1-1.3.24,1.38,1.38,0,0,1-.94-1.31,1.4,1.4,0,0,1,.94-1.32,1.37,1.37,0,0,1,1.3.25,1.11,1.11,0,0,1,.4.76C139,337.34,139,337.45,139,337.45Z"/><path class="cls-2" d="M139.76,331.07a16.33,16.33,0,0,0,1.81,3.93,12.47,12.47,0,0,0,3.28,3.3,11,11,0,0,0,10.86,1.12,12.51,12.51,0,0,0,3.88-2.55,16.51,16.51,0,0,0,2.58-3.48,4,4,0,0,1-.43,1.1,10.7,10.7,0,0,1-1.89,2.64,12.39,12.39,0,0,1-4,2.74,11.72,11.72,0,0,1-5.81.94,11.6,11.6,0,0,1-5.5-2.12,12.41,12.41,0,0,1-3.32-3.49,10.68,10.68,0,0,1-1.3-3A3.93,3.93,0,0,1,139.76,331.07Z"/><path class="cls-1" d="M206.19,330.4V318.51H187.77l.77,17.41,12.18,4.63,5.47-6.57Z"/><path class="cls-2" d="M206.19,330.4a5.55,5.55,0,0,1,.06.92c0,.66,0,1.55.05,2.66a.19.19,0,0,1,0,.07c-1.34,1.63-3.18,3.88-5.41,6.62a.23.23,0,0,1-.22.06l-12.2-4.58a.24.24,0,0,1-.16-.22c-.16-3.51-.33-7.32-.51-11.28-.09-2.09-.18-4.14-.26-6.13a.26.26,0,0,1,.24-.27h0l18.42.07a.18.18,0,0,1,.19.19h0c0,3.63-.06,6.58-.08,8.7l-.05,2.37a4.35,4.35,0,0,1-.06.82,4,4,0,0,1-.05-.82c0-.6,0-1.39-.06-2.37,0-2.12-.05-5.07-.08-8.7l.19.19-18.42.07.26-.27c.09,2,.18,4,.27,6.13.17,4,.33,7.77.48,11.28l-.16-.22,12.17,4.67-.22.06,5.53-6.52,0,.08c0-1.11,0-2,0-2.66A5.55,5.55,0,0,1,206.19,330.4Z"/><path class="cls-1" d="M209.84,354.55c.12-7.52-.93-12.25-.81-19.77,0-1.37-.08-3-1.21-3.74a3.09,3.09,0,0,0-3.45.42,32.4,32.4,0,0,0-2.61,2.63,8.23,8.23,0,0,1-13.7-4.44l-25.69,15.46a13.93,13.93,0,0,0-4.7,3.86c-1.14,1.7-1.41,4.17,0,5.7Z"/><path class="cls-2" d="M209.84,354.55h-.24l-.74,0-2.88,0-10.84.1-37.51.21a.25.25,0,0,1-.19-.09,4.67,4.67,0,0,1-.66-4.64,8.1,8.1,0,0,1,3.07-3.77c1.34-1,2.78-1.76,4.2-2.63l4.31-2.6,19.57-11.76a.25.25,0,0,1,.34.09l0,.08a8.1,8.1,0,0,0,6.8,6.39,8.28,8.28,0,0,0,4.55-.75,7.7,7.7,0,0,0,1.87-1.24c.55-.49,1-1.06,1.53-1.61a7,7,0,0,1,1.72-1.44,3.62,3.62,0,0,1,2.16-.45,2.35,2.35,0,0,1,1.76,1.21,4.75,4.75,0,0,1,.5,2c.05,1.32,0,2.54,0,3.73s.06,2.32.12,3.39c.26,4.31.55,7.74.57,10.1,0,1.18,0,2.07,0,2.71l0,.69c0,.16,0,.23,0,.23a1.41,1.41,0,0,1,0-.25l0-.69c0-.6,0-1.52-.07-2.69-.08-2.35-.42-5.76-.71-10.08-.08-1.08-.12-2.21-.16-3.41s0-2.45,0-3.71a4.37,4.37,0,0,0-.46-1.81,2,2,0,0,0-1.49-1,3.14,3.14,0,0,0-1.91.42,6.58,6.58,0,0,0-1.6,1.36,21.56,21.56,0,0,1-1.55,1.65,8.28,8.28,0,0,1-2,1.32,8.67,8.67,0,0,1-4.79.8,8.55,8.55,0,0,1-7.24-6.75l.37.17-19.55,11.78-4.32,2.59c-1.41.87-2.86,1.67-4.15,2.6a7.61,7.61,0,0,0-2.9,3.53,4.18,4.18,0,0,0,.55,4.14l-.19-.09,37.35,0,10.9,0,2.93,0h.77Z"/><path class="cls-2" d="M209.79,350.5c0,.14-11.88.33-26.54.42s-26.55,0-26.55-.1,11.88-.33,26.54-.42S209.79,350.35,209.79,350.5Z"/><path class="cls-1" d="M172.71,339.06a4.84,4.84,0,0,1,2.73,3.53"/><path class="cls-2" d="M175.44,342.59c-.15,0-.38-1-1.14-1.94s-1.65-1.45-1.59-1.59,1.16.17,2,1.27A2.7,2.7,0,0,1,175.44,342.59Z"/><path class="cls-1" d="M176.83,336.44a4.86,4.86,0,0,1,2.73,3.53"/><path class="cls-2" d="M179.56,340c-.15,0-.38-1-1.14-1.94s-1.65-1.45-1.59-1.59,1.16.18,2,1.27A2.7,2.7,0,0,1,179.56,340Z"/><path class="cls-1" d="M180.93,334.15a4.84,4.84,0,0,1,2.73,3.53"/><path class="cls-2" d="M183.66,337.68c-.15,0-.38-1-1.14-1.94s-1.65-1.45-1.59-1.59,1.16.18,2,1.27A2.7,2.7,0,0,1,183.66,337.68Z"/><path class="cls-1" d="M176.6,342.59a1.16,1.16,0,1,1-1.16-1.17A1.16,1.16,0,0,1,176.6,342.59Z"/><path class="cls-2" d="M176.6,342.59c-.08,0-.08-.46-.57-.78a1,1,0,0,0-.9-.09.93.93,0,0,0,0,1.73,1,1,0,0,0,.9-.09c.49-.32.49-.79.57-.77s.08.1.06.3a1.11,1.11,0,0,1-.4.76,1.34,1.34,0,0,1-1.3.25,1.39,1.39,0,0,1,0-2.63,1.34,1.34,0,0,1,1.3.25,1.11,1.11,0,0,1,.4.76C176.68,342.48,176.63,342.59,176.6,342.59Z"/><circle class="cls-1" cx="179.79" cy="340.02" r="1.16"/><path class="cls-2" d="M181,340c-.09,0-.09-.46-.58-.78a1,1,0,0,0-.9-.09,1,1,0,0,0-.59.87,1,1,0,0,0,1.49.77c.49-.32.49-.79.58-.77s.07.1.06.31a1.22,1.22,0,0,1-.41.76,1.34,1.34,0,0,1-1.29.24,1.39,1.39,0,0,1-.95-1.31,1.41,1.41,0,0,1,.95-1.32,1.32,1.32,0,0,1,1.29.25,1.18,1.18,0,0,1,.41.76C181,339.91,181,340,181,340Z"/><circle class="cls-1" cx="183.86" cy="337.45" r="1.16"/><path class="cls-2" d="M185,337.45c-.08,0-.08-.46-.57-.78a1,1,0,0,0-.9-.09,1,1,0,0,0-.59.87.94.94,0,0,0,.59.86,1,1,0,0,0,.9-.08c.49-.33.49-.8.57-.78s.08.1.07.31a1.2,1.2,0,0,1-.41.76,1.32,1.32,0,0,1-1.29.24,1.37,1.37,0,0,1-.95-1.31,1.39,1.39,0,0,1,.95-1.32,1.35,1.35,0,0,1,1.29.25,1.18,1.18,0,0,1,.41.76C185.1,337.34,185.06,337.45,185,337.45Z"/><path class="cls-2" d="M185.83,331.07a16.84,16.84,0,0,0,1.81,3.93,12.47,12.47,0,0,0,3.28,3.3,11,11,0,0,0,10.86,1.12,12.51,12.51,0,0,0,3.88-2.55,16.51,16.51,0,0,0,2.58-3.48,3.58,3.58,0,0,1-.43,1.1,10.7,10.7,0,0,1-1.89,2.64,12.45,12.45,0,0,1-3.95,2.74,11.78,11.78,0,0,1-5.82.94,11.64,11.64,0,0,1-5.5-2.12,12.22,12.22,0,0,1-3.31-3.49,10.47,10.47,0,0,1-1.31-3A4.4,4.4,0,0,1,185.83,331.07Z"/><path class="cls-3" d="M143.31,192.77c-1,1.13-13,48.15-13.36,53.83s5.76,76.72,5.76,76.72h30.07l-2.4-69.94,8.5-37.5,10,105.93h30.26l-2.37-123.08a64.7,64.7,0,0,0,1.88-27.11,93.68,93.68,0,0,0-8.07-25.7H154.43Z"/><path class="cls-1" d="M170.33,176.07c.15,0,.68,10.82,1.21,24.17s.82,24.18.68,24.18-.68-10.81-1.2-24.16S170.19,176.08,170.33,176.07Z"/><path class="cls-1" d="M192.59,166.41a12.84,12.84,0,0,1-.38-3.64,12.78,12.78,0,0,1,.15-3.66,13.15,13.15,0,0,1,.37,3.64A13,13,0,0,1,192.59,166.41Z"/><path class="cls-1" d="M103.05,141.15l29.14-10.65L150,105l13.57,12.56-15.48,25.33a11.34,11.34,0,0,1-7.49,5.22l-38.82,7.67-7.75-8.24Z"/><path class="cls-2" d="M103.05,141.15s-.19.16-.58.45l-1.71,1.26-6.62,4.8v-.19l7.78,8.21-.16-.05,29.48-5.89,8.81-1.75a11.16,11.16,0,0,0,7.58-4.81l10.43-17,5.31-8.7.05.33L149.86,105.2l.37,0-17.88,25.46a.31.31,0,0,1-.09.07l-21.33,7.69-5.83,2.08-1.52.52-.53.17.5-.22,1.5-.57,5.79-2.17,21.28-7.87-.09.07,17.8-25.51a.24.24,0,0,1,.34-.06l0,0,13.58,12.55a.25.25,0,0,1,0,.32l-5.31,8.7-10.45,17.06a11.72,11.72,0,0,1-7.91,5l-8.81,1.73L101.84,156a.18.18,0,0,1-.16-.05L94,147.64a.12.12,0,0,1,0-.17h0l6.7-4.71,1.75-1.21C102.84,141.27,103.05,141.15,103.05,141.15Z"/><path class="cls-1" d="M70.09,141.91,79,145.38a40.68,40.68,0,0,1,9.54-4.84c6.27-2.35,9.7-5.47,10.06-2.61.18,1.47-1.44,3.15-1.44,3.15l-3.53,4.3s11.5,6.79,11.24,9.28-1.44,2.48-1.44,2.48.53,2.61-2,2.74c0,0,.13,3.14-3.52,2.75,0,0,1.83,2-2.62,1.83s-31.81-7.21-31.81-7.21Z"/><path class="cls-2" d="M70.09,141.91a2,2,0,0,1-.11.3l-.32.8-1.28,3.07-4.74,11.24-.12-.25c4.59,1.16,10,2.51,16.1,4,3,.71,6.23,1.46,9.57,2.16,1.66.34,3.37.68,5.1.93a10.21,10.21,0,0,0,2.59,0,1.67,1.67,0,0,0,1.05-.43c.2-.2,0-.61-.21-.89h0a.28.28,0,0,1,0-.37.25.25,0,0,1,.2-.06,3.42,3.42,0,0,0,2.27-.42,2.5,2.5,0,0,0,1-2v0a.27.27,0,0,1,.25-.26,1.75,1.75,0,0,0,1.45-.71,2.54,2.54,0,0,0,.27-1.72.28.28,0,0,1,.22-.31h0a1.08,1.08,0,0,0,.69-.55,3.45,3.45,0,0,0,.38-1,2.3,2.3,0,0,0,.07-1,3.09,3.09,0,0,0-.53-.9,20.11,20.11,0,0,0-3.32-3,85.38,85.38,0,0,0-7.21-4.82.25.25,0,0,1-.09-.34l0,0,3.54-4.29h0A6.14,6.14,0,0,0,98,139.35a2.33,2.33,0,0,0,.23-1.72c-.1-.61-.65-.69-1.23-.55a9.06,9.06,0,0,0-1.69.62c-2.2,1-4.28,2.08-6.32,2.85a45,45,0,0,0-10,4.94h0a.15.15,0,0,1-.13,0l-6.5-2.62-1.72-.71-.45-.19c-.1,0-.15-.07-.15-.08l.57.2,1.73.64,6.62,2.5-.14,0a44.15,44.15,0,0,1,10-5.08c2-.78,4.07-1.83,6.29-2.89a10.61,10.61,0,0,1,1.77-.66,1.82,1.82,0,0,1,1.06,0,1.11,1.11,0,0,1,.48.35,1.67,1.67,0,0,1,.23.51,2.78,2.78,0,0,1-.25,2,6.87,6.87,0,0,1-1.16,1.69h0l-3.52,4.31-.06-.37A83.19,83.19,0,0,1,101,150a20.2,20.2,0,0,1,3.41,3.09,3.42,3.42,0,0,1,.62,1.07,1.34,1.34,0,0,1,0,.68c0,.2-.06.4-.1.6a3.77,3.77,0,0,1-.45,1.16,1.51,1.51,0,0,1-1.13.8l.26-.31a3,3,0,0,1-.35,2.1,2.25,2.25,0,0,1-1.85.95l.24-.27a3,3,0,0,1-1.2,2.51,3.9,3.9,0,0,1-2.61.51l.21-.44a1.81,1.81,0,0,1,.4.7.93.93,0,0,1-.15.86,2,2,0,0,1-1.38.62,10,10,0,0,1-2.73,0c-1.77-.25-3.47-.59-5.14-1-3.35-.71-6.54-1.46-9.58-2.19-6.07-1.46-11.5-2.85-16.08-4.05a.17.17,0,0,1-.12-.22v0l4.95-11.26,1.34-3,.35-.76A1.24,1.24,0,0,1,70.09,141.91Z"/><path class="cls-1" d="M84.16,155.84A3.56,3.56,0,0,0,81,156.93c-1.54,1.49-3.65,4.53-3.1,5.93s1.56,2,2.57,1.6A9.6,9.6,0,0,0,84.16,161C84.63,159.9,85.71,157.09,84.16,155.84Z"/><path class="cls-2" d="M84.16,155.84a1.4,1.4,0,0,1,.66.72A4,4,0,0,1,85,159.2a11.37,11.37,0,0,1-.56,1.75,6.29,6.29,0,0,1-1.24,1.75,11.47,11.47,0,0,1-1.75,1.54,2.94,2.94,0,0,1-1.18.56,1.92,1.92,0,0,1-1.38-.28,2.92,2.92,0,0,1-.91-1,3.15,3.15,0,0,1-.27-.59,1.88,1.88,0,0,1-.09-.69,5.63,5.63,0,0,1,.8-2.25,14.2,14.2,0,0,1,2.42-3.09,3.93,3.93,0,0,1,2.38-1.16,1.63,1.63,0,0,1,1,.11s-.35,0-.94.09a3.89,3.89,0,0,0-2.15,1.23,14.72,14.72,0,0,0-2.26,3.06,5.3,5.3,0,0,0-.71,2,1.57,1.57,0,0,0,.06.49,3.38,3.38,0,0,0,.24.51,2.37,2.37,0,0,0,.74.83,1.45,1.45,0,0,0,1,.21,2.6,2.6,0,0,0,1-.47,11.39,11.39,0,0,0,1.69-1.45A5.84,5.84,0,0,0,84,160.78a11.23,11.23,0,0,0,.6-1.66,4.07,4.07,0,0,0,0-2.48A6.74,6.74,0,0,0,84.16,155.84Z"/><path class="cls-1" d="M88.75,157.49a3.53,3.53,0,0,0-3.12,1.1c-1.55,1.48-3.65,4.52-3.11,5.92s1.56,2,2.58,1.61a9.6,9.6,0,0,0,3.65-3.49C89.23,161.55,90.31,158.74,88.75,157.49Z"/><path class="cls-2" d="M88.75,157.49s.36.14.67.72a4,4,0,0,1,.14,2.65A10.57,10.57,0,0,1,89,162.6a6.05,6.05,0,0,1-1.23,1.75A11.47,11.47,0,0,1,86,165.89a2.92,2.92,0,0,1-1.19.56,1.9,1.9,0,0,1-1.37-.28,2.73,2.73,0,0,1-.91-1,4,4,0,0,1-.28-.59,2.1,2.1,0,0,1-.08-.69,5.48,5.48,0,0,1,.8-2.25,13.86,13.86,0,0,1,2.41-3.08,3.92,3.92,0,0,1,2.39-1.17c.63,0,1,.08,1,.11s-.34,0-.93.09a3.94,3.94,0,0,0-2.16,1.23,15.08,15.08,0,0,0-2.25,3.06,5.14,5.14,0,0,0-.71,2,1.3,1.3,0,0,0,.06.49,3,3,0,0,0,.24.52,2.43,2.43,0,0,0,.74.82,1.39,1.39,0,0,0,1,.21,2.46,2.46,0,0,0,1-.47A11.39,11.39,0,0,0,87.42,164a6.05,6.05,0,0,0,1.19-1.59,11.13,11.13,0,0,0,.59-1.66,4,4,0,0,0,0-2.48A4.92,4.92,0,0,0,88.75,157.49Z"/><path class="cls-1" d="M93.26,158.65a3.55,3.55,0,0,0-3.13,1.1c-1.54,1.48-3.65,4.52-3.1,5.92s1.56,2,2.57,1.61a9.75,9.75,0,0,0,3.66-3.48C93.73,162.71,94.81,159.9,93.26,158.65Z"/><path class="cls-2" d="M93.26,158.65a1.4,1.4,0,0,1,.66.72,4,4,0,0,1,.14,2.65,9.7,9.7,0,0,1-.56,1.74,6.05,6.05,0,0,1-1.23,1.75,11.47,11.47,0,0,1-1.75,1.54,2.8,2.8,0,0,1-1.19.56,1.9,1.9,0,0,1-1.37-.28,2.73,2.73,0,0,1-.91-1,3.15,3.15,0,0,1-.27-.59,1.88,1.88,0,0,1-.09-.69,5.48,5.48,0,0,1,.8-2.25,13.88,13.88,0,0,1,2.42-3.08,3.9,3.9,0,0,1,2.38-1.17,1.63,1.63,0,0,1,1,.11s-.35,0-.94.09A4,4,0,0,0,90.17,160,14.72,14.72,0,0,0,87.91,163a5.3,5.3,0,0,0-.71,2,1.3,1.3,0,0,0,.06.49,4,4,0,0,0,.24.52,2.43,2.43,0,0,0,.74.82,1.4,1.4,0,0,0,1,.21,2.46,2.46,0,0,0,1-.47,11.39,11.39,0,0,0,1.69-1.45,5.9,5.9,0,0,0,1.19-1.59,11.23,11.23,0,0,0,.6-1.66,4.08,4.08,0,0,0,0-2.48A6.74,6.74,0,0,0,93.26,158.65Z"/><path class="cls-1" d="M97,161.34a2.86,2.86,0,0,0-2.51.88c-1.24,1.19-2.94,3.64-2.5,4.77s1.26,1.58,2.07,1.29a7.73,7.73,0,0,0,2.94-2.8C97.36,164.61,98.22,162.35,97,161.34Z"/><path class="cls-2" d="M97,161.34s.3.11.56.57a3.22,3.22,0,0,1,.13,2.15,9.12,9.12,0,0,1-.45,1.41,4.71,4.71,0,0,1-1,1.42,9,9,0,0,1-1.41,1.25,2.57,2.57,0,0,1-1,.46,1.58,1.58,0,0,1-1.14-.24,2.17,2.17,0,0,1-.75-.82,4.37,4.37,0,0,1-.23-.49,1.65,1.65,0,0,1-.07-.57,4.48,4.48,0,0,1,.65-1.83,11.74,11.74,0,0,1,2-2.49,3.24,3.24,0,0,1,1.94-.93c.52,0,.79.08.78.11s-.28,0-.75.09a3.24,3.24,0,0,0-1.71,1,12.25,12.25,0,0,0-1.8,2.45,4.35,4.35,0,0,0-.56,1.62,1.17,1.17,0,0,0,0,.38,2.42,2.42,0,0,0,.19.4,1.79,1.79,0,0,0,.58.64,1.29,1.29,0,0,0,1.54-.2,9.65,9.65,0,0,0,1.36-1.16,4.8,4.8,0,0,0,.94-1.26A8.75,8.75,0,0,0,97.3,164a3.26,3.26,0,0,0,0-2A5.45,5.45,0,0,0,97,161.34Z"/><path class="cls-1" d="M103.05,141.15s-8.1-.52-11.79,1.95-10,2.35-10.15,3.28-.21,2.66,2.56,3.38,11.63.47,14.35,0a13.4,13.4,0,0,0,5-2.52"/><path class="cls-2" d="M103.05,147.24s-.11.14-.36.34a13.74,13.74,0,0,1-1.13.81,9.8,9.8,0,0,1-4.83,1.72,68.6,68.6,0,0,1-7.6.33,37.28,37.28,0,0,1-4.51-.25,6.61,6.61,0,0,1-2.35-.7,2.76,2.76,0,0,1-1.48-2.11,3,3,0,0,1,0-.67c0-.11,0-.22,0-.33a.79.79,0,0,1,.09-.23.55.55,0,0,1,.17-.17,3.44,3.44,0,0,1,1.24-.44c.79-.18,1.57-.3,2.33-.45A27,27,0,0,0,89,144a12.48,12.48,0,0,0,1.84-.87,10.35,10.35,0,0,1,1.77-.93,15.93,15.93,0,0,1,3.47-.88,31.37,31.37,0,0,1,5.12-.3c.61,0,1.08,0,1.4.07a1.5,1.5,0,0,1,.48.08,2.08,2.08,0,0,1-.49,0l-1.39,0a37.6,37.6,0,0,0-5.07.46,15.92,15.92,0,0,0-3.35.92,10.13,10.13,0,0,0-1.7.92,12,12,0,0,1-1.91.92,24.78,24.78,0,0,1-4.37,1.17c-.77.15-1.55.28-2.32.45a3.73,3.73,0,0,0-1,.35s0,0,0,.05h0s0,0,0,.06a2.36,2.36,0,0,0,0,.28,2,2,0,0,0,0,.55A2.23,2.23,0,0,0,82.53,149a6.22,6.22,0,0,0,2.16.65,38,38,0,0,0,4.44.27c2.85,0,5.42,0,7.56-.22a10,10,0,0,0,4.76-1.52C102.49,147.62,103,147.21,103.05,147.24Z"/><path class="cls-2" d="M94.58,156a10.8,10.8,0,0,1,7,4c-.11.11-1.44-1.12-3.35-2.19S94.54,156.13,94.58,156Z"/><path class="cls-2" d="M97.89,152.81a6.51,6.51,0,0,1,3.32,1.61,6.7,6.7,0,0,1,2.35,2.85c-.13.09-1.11-1.22-2.67-2.44S97.83,153,97.89,152.81Z"/><path class="cls-1" d="M188.56,72.39a15.39,15.39,0,0,1-10,5.55c-5.22.53-7.09-2.86-7.09-2.86,1.31-.49-2.75.7-6.82,1.92a19.14,19.14,0,0,0-10.88,8.45l-10.9,18.06,14.67,12.18a.88.88,0,0,1,0,.16c.68,4.51-9.63,45.58-8.65,46.23s62.9,3,62.9,3V94S212.91,74.29,188.56,72.39Z"/><path class="cls-2" d="M188.56,72.39l.51,0,1.51.17c.67.09,1.51.16,2.48.33l3.33.8a24.78,24.78,0,0,1,8.36,4.36c.68.63,1.39,1.29,2.08,2l.95,1.19.48.62.41.67a20,20,0,0,1,2.65,6.19,20.65,20.65,0,0,1,.59,3.6c.09,1.25,0,2.52.05,3.82,0,2.59,0,5.3,0,8.11,0,5.63,0,11.69,0,18.12,0,12.86,0,27.21,0,42.62a.25.25,0,0,1-.25.25h0c-13.34-.5-27.79-1.07-42.75-1.75-6.08-.29-12.07-.55-18-1l-1.1-.09-.56-.07-.28,0a2.8,2.8,0,0,1-.36-.1s-.09-.07-.13-.13a.33.33,0,0,1,0-.14.62.62,0,0,1,0-.18c0-.11,0-.2,0-.3s0-.38.05-.56c0-.37.1-.74.16-1.1.23-1.45.52-2.87.8-4.29.6-2.83,1.2-5.62,1.78-8.39q1.8-8.28,3.49-16.17c.55-2.63,1.08-5.22,1.55-7.78.23-1.28.45-2.55.64-3.81a15.86,15.86,0,0,0,.25-3.73l.08.15c-5.13-4.28-10-8.35-14.65-12.19a.23.23,0,0,1-.05-.28q3.45-5.69,6.57-10.86l3-5a34.58,34.58,0,0,1,3.1-4.63,19.33,19.33,0,0,1,8.26-5.71c1.49-.5,2.93-.89,4.31-1.3l2-.59,1-.27.49-.13.13,0h.11s.16,0,.13.15-.07.09-.09.11a1.54,1.54,0,0,1-.24.1l.07-.18a6.29,6.29,0,0,0,3.52,2.53,9.28,9.28,0,0,0,3.89.22,14,14,0,0,0,5.75-2.09,15.6,15.6,0,0,0,3-2.35c.31-.29.52-.54.67-.7l.21-.24a7.82,7.82,0,0,1-.83,1,15.56,15.56,0,0,1-2.94,2.42A14.26,14.26,0,0,1,179,78a9.53,9.53,0,0,1-4-.2,6.48,6.48,0,0,1-3.69-2.63.12.12,0,0,1,0-.16h0l.21-.09h0s.11.1.08.09,0,0,0,.06a.42.42,0,0,0,0,.07h-.05l-.12,0-.48.13-1,.28-2,.6c-1.37.42-2.83.82-4.29,1.32a19,19,0,0,0-8.1,5.64,32.73,32.73,0,0,0-3,4.6l-3,5L143,103.62l0-.27,14.68,12.16a.19.19,0,0,1,.08.15,16,16,0,0,1-.25,3.86c-.18,1.27-.4,2.54-.63,3.83-.47,2.56-1,5.16-1.54,7.79q-1.7,7.88-3.47,16.18c-.59,2.76-1.18,5.56-1.78,8.38-.28,1.42-.56,2.84-.79,4.27-.06.36-.12.72-.16,1.08,0,.17,0,.35,0,.52v.25a.78.78,0,0,0,0,.09s0,0-.06,0a.15.15,0,0,0-.09.06l0,0c.07-.11.09-.13.08-.11a.55.55,0,0,1,.17,0l.27,0a5,5,0,0,0,.54.06l1.09.09c5.87.42,11.87.67,17.94,1,15,.68,29.41,1.25,42.75,1.77l-.26.25c0-15.41,0-29.77,0-42.63,0-6.43,0-12.48,0-18.11,0-2.82,0-5.53,0-8.12,0-1.3,0-2.57,0-3.79a21.38,21.38,0,0,0-.56-3.55,20,20,0,0,0-2.58-6.11l-.41-.67c-.15-.21-.31-.4-.47-.6l-.93-1.18c-.67-.72-1.37-1.37-2-2a25.16,25.16,0,0,0-8.26-4.38l-3.3-.84c-1-.18-1.79-.26-2.45-.36l-1.51-.22Z"/><path class="cls-1" d="M188.4,96.14l.19,22.74,26.16.26S214.62,88.22,207,81"/><path class="cls-2" d="M207,81a8.88,8.88,0,0,1,1.92,2.37,30.35,30.35,0,0,1,3,7.82c1.77,6.91,2.9,16.8,3.1,27.93a.25.25,0,0,1-.25.26h0l-4.69,0-21.47-.24a.24.24,0,0,1-.23-.22c0-6.78,0-12.45,0-16.48,0-2,0-3.51,0-4.63l0-1.22a2.37,2.37,0,0,1,0-.42,1.8,1.8,0,0,1,0,.42c0,.32,0,.72,0,1.22l.11,4.63c0,4,.13,9.7.23,16.47l-.23-.22,21.48.17,4.68,0-.26.26c-.18-11.1-1.24-21-2.92-27.85a31.49,31.49,0,0,0-2.83-7.81A17,17,0,0,0,207,81Z"/><path d="M202.54,79.58c0,.09-1,0-2.55.32A13.28,13.28,0,0,0,190.46,87c-.72,1.41-1,2.38-1.05,2.35a6.57,6.57,0,0,1,.72-2.51,12.46,12.46,0,0,1,9.8-7.26A6.54,6.54,0,0,1,202.54,79.58Z"/><path d="M157.54,92.79c.14,0,.26,5.7.26,12.73s-.12,12.74-.26,12.74-.26-5.7-.26-12.74S157.39,92.79,157.54,92.79Z"/><path class="cls-2" d="M172.37,139.34a3.57,3.57,0,0,1,.23-.55l.72-1.52c.63-1.31,1.54-3.22,2.6-5.6s2.28-5.25,3.49-8.46a6.9,6.9,0,0,0,.48-2.5,2.9,2.9,0,0,0-1.09-2.21,5,5,0,0,0-2.53-.9,20,20,0,0,0-2.91,0,9.81,9.81,0,0,1-3-.38,3.72,3.72,0,0,1-2.33-1.86,4.08,4.08,0,0,1-.16-2.87,12.1,12.1,0,0,1,1-2.5,49.71,49.71,0,0,1,4.8-7.85,46.78,46.78,0,0,1,4-4.72c.52-.52.92-.92,1.21-1.18s.44-.39.45-.37a3.42,3.42,0,0,1-.38.45l-1.13,1.24a55.35,55.35,0,0,0-3.87,4.8,52.86,52.86,0,0,0-4.66,7.84,12.62,12.62,0,0,0-1,2.41,3.66,3.66,0,0,0,.13,2.53,3.25,3.25,0,0,0,2,1.59,9.43,9.43,0,0,0,2.83.35,19.77,19.77,0,0,1,3,.06,5.44,5.44,0,0,1,2.79,1,3.39,3.39,0,0,1,1.27,2.6,7.51,7.51,0,0,1-.53,2.67c-1.24,3.24-2.5,6.08-3.61,8.45s-2.06,4.26-2.75,5.55c-.34.64-.62,1.14-.81,1.47A2,2,0,0,1,172.37,139.34Z"/><path class="cls-1" d="M188.42,75.55l.17-1.89-.4-17.85L186.26,41l-14.73-9.59-11.45,3.41a26.46,26.46,0,0,1-.34,4s-1.17,21.78,1.38,26c2.36,3.89,7.92,4.25,9.16,6.49a17.34,17.34,0,0,1,1.4,5.3,5.07,5.07,0,0,0,5.62,4.32C181.46,80.35,186.85,79,188.42,75.55Z"/><path class="cls-2" d="M188.42,75.55a2.15,2.15,0,0,1-.13.3,4.16,4.16,0,0,1-.5.82A7.91,7.91,0,0,1,184.88,79a20.17,20.17,0,0,1-5.59,1.74c-.57.11-1.16.2-1.76.27a5.29,5.29,0,0,1-5.31-2.41,5.32,5.32,0,0,1-.75-2.14c-.11-.74-.24-1.5-.41-2.26-.39-1.47-.69-3.23-2.23-4s-3.12-1.4-4.7-2.34a7.62,7.62,0,0,1-3.72-4.19,28.22,28.22,0,0,1-.91-5.84c-.16-2-.23-4-.26-6.14-.06-4.17,0-8.49.24-12.93v0c.09-.71.18-1.48.25-2.25l.07-.87,0-.44v-.36h0s0,0,0,0a.33.33,0,0,0,.08.12.26.26,0,0,0,.31,0c.11-.09.09-.1.1-.12l0-.05-.34-.27,11.45-3.4a.22.22,0,0,1,.21,0l14.73,9.61a.2.2,0,0,1,.1.16c.7,5.49,1.33,10.5,1.89,14.86v0c.16,8.78.26,15,.27,17.86h0c-.07.62-.12,1.08-.16,1.42a2.87,2.87,0,0,1-.07.46,2.38,2.38,0,0,1,0-.47c0-.34.06-.81.1-1.43h0c-.11-2.82-.29-9.07-.52-17.85v0c-.58-4.36-1.24-9.36-2-14.85l.1.16-14.75-9.57.21,0L160.15,35h0a.26.26,0,0,1-.32-.17.21.21,0,0,1,0-.11.44.44,0,0,1,0-.1s0,0,.1-.12a.28.28,0,0,1,.31,0,.23.23,0,0,1,.08.12c0,.08,0,0,0,.06v.43l0,.45-.07.89c-.07.78-.16,1.56-.26,2.27v0c-.22,4.42-.31,8.74-.26,12.89,0,2.08.09,4.12.25,6.11a28,28,0,0,0,.87,5.74,7.17,7.17,0,0,0,3.5,3.94c1.53.93,3.2,1.48,4.69,2.37a4.49,4.49,0,0,1,1,.81,3.62,3.62,0,0,1,.67,1.12,15.17,15.17,0,0,1,.7,2.34c.39,1.54.3,3.12,1.08,4.29a5,5,0,0,0,3.14,2.24,9.87,9.87,0,0,0,3.57-.19,20.49,20.49,0,0,0,5.56-1.63,8.25,8.25,0,0,0,2.91-2.17,5.39,5.39,0,0,0,.53-.78A1.53,1.53,0,0,1,188.42,75.55Z"/><path class="cls-2" d="M164.52,48c-.06-.48,0-1.05-.33-1.44l-.09-.06a1.21,1.21,0,0,0-1,0,1.13,1.13,0,0,0-.44.87,3.78,3.78,0,0,0,.22,1.37,2.4,2.4,0,0,0,.26.69.84.84,0,0,0,.55.43.86.86,0,0,0,.87-.66A2.74,2.74,0,0,0,164.52,48Z"/><path class="cls-2" d="M175.3,48.19a2.68,2.68,0,0,0-.33-1.45l-.1-.05a1.17,1.17,0,0,0-1.05,0,1.1,1.1,0,0,0-.43.86,4.06,4.06,0,0,0,.21,1.38,2.73,2.73,0,0,0,.26.69.75.75,0,0,0,1.43-.23A2.9,2.9,0,0,0,175.3,48.19Z"/><path class="cls-2" d="M167.24,69.11l1.91.83c.58.64,1.62,1.59,1.63,2.45,3.89-.92,6.77-3.18,9.39-6.2A36.5,36.5,0,0,1,167.24,69.11Z"/><path class="cls-1" d="M187.48,61.65a6.46,6.46,0,0,0,4.78-2.06,6,6,0,0,0,1.58-4.7A5.37,5.37,0,0,0,191,50.42a4,4,0,0,0-4.94,1.19"/><path class="cls-2" d="M187.48,61.65A6.14,6.14,0,0,0,190,61a6.3,6.3,0,0,0,2.08-1.55,6.45,6.45,0,0,0,1.27-2.25,6.53,6.53,0,0,0,.18-2.57,5.16,5.16,0,0,0-2.77-4.08,4,4,0,0,0-4.74,1.06A4,4,0,0,1,191,50.2a5.45,5.45,0,0,1,3.1,4.37,6.6,6.6,0,0,1-.24,2.76,6.36,6.36,0,0,1-1.4,2.38A6.28,6.28,0,0,1,187.48,61.65Z"/><path class="cls-1" d="M190.37,52.74a5.5,5.5,0,0,0-4,3.6,3.51,3.51,0,0,1,.75-1.06A1.18,1.18,0,0,1,188.3,55c.54.25.66,1,.65,1.57a3.28,3.28,0,0,1-.22,1.24,1.41,1.41,0,0,1-.9.82"/><path class="cls-2" d="M190.37,52.74a5.74,5.74,0,0,0-3.8,3.67l-.45-.19a2.7,2.7,0,0,1,1.23-1.39,1.19,1.19,0,0,1,1.67.78,3.73,3.73,0,0,1,0,1.82,1.58,1.58,0,0,1-1.17,1.24,1.54,1.54,0,0,0,.92-1.3,3.38,3.38,0,0,0-.12-1.62.76.76,0,0,0-1.09-.47,2.38,2.38,0,0,0-1,1.17l-.45-.19A5.23,5.23,0,0,1,190.37,52.74Z"/><path class="cls-2" d="M170.8,55.24a2.41,2.41,0,0,1-1.5-.49,4.36,4.36,0,0,1-1.75-2.12l-.09-.26a.54.54,0,0,1,0-.47.72.72,0,0,1,.76-.19l2.11.32-.27.24a13.57,13.57,0,0,1,.16-3.12,12.44,12.44,0,0,1,.31,3.11.24.24,0,0,1-.22.25h0l-2.12-.28-.21,0h-.05l0-.05h.06a.18.18,0,0,0,0,.06l.08.23a4.19,4.19,0,0,0,.41.82,4.55,4.55,0,0,0,1.07,1.17C170.24,55,170.82,55.15,170.8,55.24Z"/><path class="cls-2" d="M173.79,41.71a1.2,1.2,0,0,1,.71-.35,3.57,3.57,0,0,1,.8,0h.07a2.57,2.57,0,0,1,.4.06,3.53,3.53,0,0,1,.46.15l.05,0a3.1,3.1,0,0,1,.47.26l.06,0h0l.07,0a1.65,1.65,0,0,1,.64.78,1,1,0,0,1-.22,1,1,1,0,0,1-.61.14h-.89a3.68,3.68,0,0,1-1.15-.1,1.5,1.5,0,0,1-.94-.72A1.24,1.24,0,0,1,173.79,41.71Z"/><path class="cls-2" d="M162.3,41.62a1.1,1.1,0,0,1,.71-.35,3.05,3.05,0,0,1,.8,0h.07a2.79,2.79,0,0,1,.4.07,2.44,2.44,0,0,1,.46.14l0,0a3.1,3.1,0,0,1,.47.26l.06,0h0l.07,0a1.65,1.65,0,0,1,.64.78,1,1,0,0,1-.22,1,1.08,1.08,0,0,1-.61.14h-.89a4,4,0,0,1-1.15-.11,1.47,1.47,0,0,1-.94-.72A1.2,1.2,0,0,1,162.3,41.62Z"/><path class="cls-2" d="M176,54.81c.06,0,.16.28.12.74a2.36,2.36,0,0,1-.84,1.62,2.47,2.47,0,0,1-1.75.52c-.46,0-.71-.21-.69-.27s1.15.1,2.11-.65S175.77,54.78,176,54.81Z"/><path class="cls-3" d="M193.87,35.11c-.7-3.91-5.52-3.75-5.52-3.75.57-2.6-2.29-4.17-2.29-4.17a4.85,4.85,0,0,0-5.07.62,5.66,5.66,0,0,0-9.65-4.95,7.7,7.7,0,0,0-11.93.47c-.94,1.24-1.36,3.26-.11,4.19A8.18,8.18,0,0,0,153.89,29a5.38,5.38,0,0,0-2.19,5,4,4,0,0,0,4,3.4,3.84,3.84,0,0,0,3.48,3.86l.5,0,.33-4.57c3.81,1.66,5.32-2.7,5.32-2.7a3.28,3.28,0,0,0,5.06-1.22s2,4.14,5.42,3c0,0,.69,4.69,5.18,3.55,0,0-1.21,4,1.86,4.27q-.53,4.22-1,8.43a5.17,5.17,0,0,0,0,1.88,1.81,1.81,0,0,0,1.16,1.37,2,2,0,0,0,2-1,11.29,11.29,0,0,0,.85-2.23,3.69,3.69,0,0,1,1.63-1.61,4.87,4.87,0,0,1,2.56-.45l1.13.27c1-1.47,2.49-6.93,2.78-9.27A21.74,21.74,0,0,0,193.87,35.11Z"/><rect class="cls-4" x="163.6" y="199.6" width="56.2" height="37.42" rx="2.72"/><rect class="cls-1" x="174.78" y="210.79" width="5.92" height="13.64"/><path class="cls-1" d="M213.37,143.27l-1.67-24.13H193.11c0,.75,1.08,23.88,1.08,23.88L190,186.49h-.1a12.13,12.13,0,0,0-4.88,3.83c-1.63,2.49-6,7-5.67,9.41v.07a1.63,1.63,0,0,0,2.45,1.14l2.8-1.67v6.85s-.51,4.12,1.75,4.18a3,3,0,0,0,3-2s.51,2.29,2.44,2.47,2.67-2.47,2.67-2.47.47,3,2.44,2.6a4.17,4.17,0,0,0,2.79-2.14s1.41,1.94,2.66,1.84c2-.17,2.22-3.12,2.22-3.12l2.32-18.78h0Z"/><path class="cls-2" d="M213.37,143.27s0,.11,0,.34l-.13,1c-.12.9-.29,2.2-.52,3.89-.47,3.42-1.16,8.4-2,14.69s-1.95,13.94-3.17,22.64c-.65,4.35-1.13,9-1.75,13.85-.3,2.44-.6,4.93-.92,7.48a6.8,6.8,0,0,1-.41,2,2.75,2.75,0,0,1-1.38,1.57,1.94,1.94,0,0,1-1.1.14,2.73,2.73,0,0,1-1-.44,6.57,6.57,0,0,1-1.47-1.46l.41,0a4.34,4.34,0,0,1-3.06,2.29,1.71,1.71,0,0,1-1.08-.16,2.09,2.09,0,0,1-.8-.73,5,5,0,0,1-.75-1.92l.48,0a5,5,0,0,1-.89,1.71,2.38,2.38,0,0,1-1.8.95,2.63,2.63,0,0,1-1.92-.83,4.16,4.16,0,0,1-1-1.84l.48,0a3.22,3.22,0,0,1-1.47,1.74,3,3,0,0,1-1.12.37,2.57,2.57,0,0,1-1.22-.08,1.69,1.69,0,0,1-.94-.84,3.24,3.24,0,0,1-.4-1.14,8.13,8.13,0,0,1-.07-2.36v0c0-2.16,0-4.49,0-6.85l.39.22-1.61,1-.81.48a3.1,3.1,0,0,1-.93.45,1.91,1.91,0,0,1-2-.74,2.46,2.46,0,0,1-.22-2.09,12.6,12.6,0,0,1,1.92-3.51c.77-1.08,1.61-2.11,2.42-3.16.43-.56.86-1.12,1.24-1.69a8.59,8.59,0,0,1,1.42-1.64,13.48,13.48,0,0,1,3.59-2.3.25.25,0,0,1,.12,0h0l.1,0-.29.23c1.51-15.54,2.93-30.23,4.21-43.48v0c-.38-8.64-.73-16.65-1-23.89a.18.18,0,0,1,.18-.2h0l18.59,0a.16.16,0,0,1,.16.15c.5,7.62.89,13.66,1.16,17.8l.28,4.72.07,1.21c0,.27,0,.41,0,.41s0-.14-.05-.41l-.1-1.22-.37-4.71c-.3-4.14-.74-10.17-1.3-17.78l.15.14-18.59,0,.2-.2c.33,7.24.71,15.23,1.11,23.87v0c-1.27,13.24-2.68,27.94-4.16,43.48a.27.27,0,0,1-.29.23h-.11l.13,0a13.54,13.54,0,0,0-3.43,2.2,8.46,8.46,0,0,0-1.33,1.54c-.4.61-.83,1.17-1.27,1.73-.82,1.05-1.65,2.08-2.41,3.14a12.4,12.4,0,0,0-1.84,3.35,2,2,0,0,0,.14,1.64,1.36,1.36,0,0,0,1.42.54,2.54,2.54,0,0,0,.78-.38l.82-.48,1.61-1a.24.24,0,0,1,.35.09.2.2,0,0,1,0,.13v6.87h0a8.08,8.08,0,0,0,.06,2.2,1.94,1.94,0,0,0,1,1.61,2.07,2.07,0,0,0,1,.05,2.59,2.59,0,0,0,1-.31,2.77,2.77,0,0,0,1.23-1.45h0a.26.26,0,0,1,.33-.15.25.25,0,0,1,.16.17c.28,1.18,1.21,2.33,2.4,2.28s1.9-1.26,2.23-2.29a.24.24,0,0,1,.31-.16.25.25,0,0,1,.17.19,4.38,4.38,0,0,0,.66,1.72,1.39,1.39,0,0,0,1.41.69,3.86,3.86,0,0,0,2.69-2h0a.25.25,0,0,1,.33-.11.27.27,0,0,1,.08.07,6.69,6.69,0,0,0,1.36,1.35,2.41,2.41,0,0,0,.8.37,1.51,1.51,0,0,0,.83-.12,2.28,2.28,0,0,0,1.13-1.3,6.48,6.48,0,0,0,.38-1.83q.48-3.83.94-7.47c.63-4.87,1.13-9.51,1.79-13.86,1.26-8.69,2.37-16.31,3.29-22.61s1.66-11.26,2.16-14.68c.26-1.68.46-3,.59-3.88l.17-1A2.85,2.85,0,0,1,213.37,143.27Z"/><path class="cls-2" d="M190.07,201.24a22.14,22.14,0,0,1-.32,3.84,21.14,21.14,0,0,1-.52,3.81,17.74,17.74,0,0,1,.84-7.65Z"/><path class="cls-2" d="M195.12,203.38a8.34,8.34,0,0,1-.12,3,8.91,8.91,0,0,1-.65,2.9,8.86,8.86,0,0,1,.13-3A8.65,8.65,0,0,1,195.12,203.38Z"/><path class="cls-2" d="M200.4,203a28,28,0,0,1-.68,6.12,8,8,0,0,1,0-3.1A8.22,8.22,0,0,1,200.4,203Z"/></g></g></svg>