<svg xmlns="http://www.w3.org/2000/svg" viewBox="0 0 172.04 121.02"><defs><style>.cls-1{isolation:isolate;}.cls-2{opacity:0.47;mix-blend-mode:multiply;}.cls-3,.cls-4,.cls-5{stroke:#000;stroke-miterlimit:10;stroke-width:0.75px;}.cls-4{fill:none;}.cls-5,.cls-6{fill:#fff;}.cls-7{fill:#303030;}</style></defs><title>img04</title><g class="cls-1"><g id="Capa_2" data-name="Capa 2"><g id="IMG04"><g class="cls-2"><polygon class="cls-3" points="171.29 85.75 171.29 98.26 132.99 120.37 59.48 77.65 59.48 65.15 171.29 85.75"/><polygon class="cls-3" points="132.99 107.87 132.99 120.37 171.29 98.26 171.29 85.75 132.99 107.87"/><polygon class="cls-3" points="59.48 65.15 132.99 107.87 171.29 85.75 97.78 43.03 59.48 65.15"/><path d="M115.43,69.14a16.75,16.75,0,0,1,8.29,2c2,1.19,3.17,2.72,3.17,4.31s-1.15,3.15-3.22,4.35a16.92,16.92,0,0,1-8.32,2h0a16.72,16.72,0,0,1-8.29-2c-2-1.19-3.18-2.72-3.17-4.31s1.14-3.15,3.22-4.35A16.89,16.89,0,0,1,115.43,69.14Z"/><path class="cls-4" d="M115.43,69.14a16.75,16.75,0,0,1,8.29,2c2,1.19,3.17,2.72,3.17,4.31s-1.15,3.15-3.22,4.35a16.92,16.92,0,0,1-8.32,2h0a16.72,16.72,0,0,1-8.29-2c-2-1.19-3.18-2.72-3.17-4.31s1.14-3.15,3.22-4.35A16.89,16.89,0,0,1,115.43,69.14Z"/><path class="cls-3" d="M101.39,68.09A.76.76,0,0,1,101,68l-10.68-6.2a.77.77,0,1,1,.78-1.33l10.67,6.2a.77.77,0,0,1-.39,1.44Z"/><path class="cls-3" d="M140.05,90.56a.76.76,0,0,1-.38-.11L129,84.25a.78.78,0,0,1-.28-1,.77.77,0,0,1,1.06-.28l10.67,6.2a.77.77,0,0,1-.39,1.44Z"/><path d="M69.9,59.13,87.36,49.05h0l10.41-6,10.35,6,52,30.22,11.15,6.48-10.55,6.09-17.33,10-10.42,6-10.34-6L69.82,71.16l-10.34-6Zm3.71,8.94L128.47,100l4.53,2.63,4.57-2.64,19-11,5.58-3.22-5.92-3.44L102.3,51l-4.52-2.63L93.21,51,73.66,62.24l-5,2.92Z"/><path class="cls-4" d="M69.9,59.13,87.36,49.05h0l10.41-6,10.35,6,52,30.22,11.15,6.48-10.55,6.09-17.33,10-10.42,6-10.34-6L69.82,71.16l-10.34-6Zm3.71,8.94L128.47,100l4.53,2.63,4.57-2.64,19-11,5.58-3.22-5.92-3.44L102.3,51l-4.52-2.63L93.21,51,73.66,62.24l-5,2.92Z"/><path d="M156.24,82.3a10.32,10.32,0,0,1,3.11-2.61c.25-.15.52-.29.79-.42l11.15,6.48-10.55,6.09a13.46,13.46,0,0,1-1.47-.74A11.12,11.12,0,0,1,156.58,89a5.31,5.31,0,0,1-1.48-3.54A5.13,5.13,0,0,1,156.24,82.3Z"/><path class="cls-4" d="M156.24,82.3a10.32,10.32,0,0,1,3.11-2.61c.25-.15.52-.29.79-.42l11.15,6.48-10.55,6.09a13.46,13.46,0,0,1-1.47-.74A11.12,11.12,0,0,1,156.58,89a5.31,5.31,0,0,1-1.48-3.54A5.13,5.13,0,0,1,156.24,82.3Z"/><path d="M128.47,100a26.4,26.4,0,0,1,9.1,0,19.75,19.75,0,0,1,5.84,1.91l-10.42,6-10.34-6A20.21,20.21,0,0,1,128.47,100Z"/><path class="cls-4" d="M128.47,100a26.4,26.4,0,0,1,9.1,0,19.75,19.75,0,0,1,5.84,1.91l-10.42,6-10.34-6A20.21,20.21,0,0,1,128.47,100Z"/><path d="M97.78,43l10.35,6A20.07,20.07,0,0,1,102.3,51a26.08,26.08,0,0,1-4.57.4A26.49,26.49,0,0,1,93.21,51c-.48-.08-.95-.18-1.41-.29a18.87,18.87,0,0,1-4.43-1.62Z"/><path class="cls-4" d="M97.78,43l10.35,6A20.07,20.07,0,0,1,102.3,51a26.08,26.08,0,0,1-4.57.4A26.49,26.49,0,0,1,93.21,51c-.48-.08-.95-.18-1.41-.29a18.87,18.87,0,0,1-4.43-1.62Z"/><path d="M69.9,59.13l.56.31a9.83,9.83,0,0,1,3.2,2.8,4.77,4.77,0,0,1,0,5.83,9.93,9.93,0,0,1-3.23,2.78l-.56.31-10.34-6Z"/><path class="cls-4" d="M69.9,59.13l.56.31a9.83,9.83,0,0,1,3.2,2.8,4.77,4.77,0,0,1,0,5.83,9.93,9.93,0,0,1-3.23,2.78l-.56.31-10.34-6Z"/><path class="cls-3" d="M122.33,72.08l-1-.57a.8.8,0,0,0-.71,0l-.78.46a7.55,7.55,0,0,0-3.2-.59,5.89,5.89,0,0,0-2.69.74c-.8.46-1.19.93-1.18,1.4a2.42,2.42,0,0,0,.72,1.53c0,.06.17.21.37.44a6,6,0,0,1,.87,1.17c.12.28,0,.5-.28.68a2.33,2.33,0,0,1-2.44-.2A5.18,5.18,0,0,1,110.63,76a3,3,0,0,1-.45-.67.59.59,0,0,0-.18-.17,1.1,1.1,0,0,0-1,0l-1.12.65c-.16.09-.21.23-.13.35a6.65,6.65,0,0,0,1.88,1.72l-.92.53a.22.22,0,0,0,0,.41l1,.57a.8.8,0,0,0,.71,0l1-.56a7.12,7.12,0,0,0,3.07.53,6,6,0,0,0,2.76-.78,2.16,2.16,0,0,0,1-1,1.28,1.28,0,0,0-.08-1.06,5.16,5.16,0,0,0-.92-1.22c-.36-.39-.61-.67-.75-.86a.89.89,0,0,1-.22-.56c0-.18.14-.35.4-.5a1.78,1.78,0,0,1,1.14-.21,3.57,3.57,0,0,1,1.3.46,3.29,3.29,0,0,1,1.13,1,3.47,3.47,0,0,1,.3.52.42.42,0,0,0,.19.18,1.07,1.07,0,0,0,1,0l1.13-.66c.16-.09.21-.23.13-.35a4.06,4.06,0,0,0-.51-.65,6.62,6.62,0,0,0-.9-.76l.75-.43c.19-.11.19-.29,0-.41"/><polygon class="cls-3" points="168.28 73.11 168.28 85.61 129.97 107.73 56.46 65.01 56.46 52.5 168.28 73.11"/><polygon points="129.97 95.22 129.97 107.73 168.28 85.61 168.28 73.11 129.97 95.22"/><polygon class="cls-4" points="129.97 95.22 129.97 107.73 168.28 85.61 168.28 73.11 129.97 95.22"/><polygon class="cls-3" points="56.46 52.5 129.97 95.22 168.27 73.11 94.77 30.39 56.46 52.5"/><path d="M112.41,56.49a16.83,16.83,0,0,1,8.29,2c2,1.19,3.18,2.72,3.17,4.32s-1.14,3.15-3.22,4.35a17,17,0,0,1-8.32,2h0a16.83,16.83,0,0,1-8.29-2c-2.05-1.19-3.17-2.72-3.17-4.32s1.15-3.15,3.22-4.35A17,17,0,0,1,112.41,56.49Z"/><path class="cls-4" d="M112.41,56.49a16.83,16.83,0,0,1,8.29,2c2,1.19,3.18,2.72,3.17,4.32s-1.14,3.15-3.22,4.35a17,17,0,0,1-8.32,2h0a16.83,16.83,0,0,1-8.29-2c-2.05-1.19-3.17-2.72-3.17-4.32s1.15-3.15,3.22-4.35A17,17,0,0,1,112.41,56.49Z"/><path class="cls-3" d="M98.37,55.44a.75.75,0,0,1-.38-.1l-10.67-6.2a.77.77,0,0,1,.77-1.34L98.76,54A.77.77,0,0,1,99,55.06.76.76,0,0,1,98.37,55.44Z"/><path class="cls-3" d="M137,77.91a.75.75,0,0,1-.38-.1L126,71.6a.76.76,0,0,1-.28-1,.77.77,0,0,1,1-.28l10.67,6.2a.77.77,0,0,1-.39,1.44Z"/><path class="cls-3" d="M66.88,46.49,84.35,36.4h0l10.41-6,10.35,6,52,30.22,11.15,6.49L157.72,79.2l-17.33,10-10.42,6-10.34-6L66.8,58.51l-10.34-6Zm3.72,8.93L125.45,87.3,130,89.93l4.57-2.64,19-11,5.59-3.22-5.93-3.44L99.29,38.31l-4.53-2.63-4.57,2.64L70.65,49.6l-5.06,2.92Z"/><path d="M153.22,69.65A10.59,10.59,0,0,1,156.33,67l.79-.42,11.15,6.49L157.72,79.2q-.76-.35-1.47-.75a10.66,10.66,0,0,1-2.69-2.14,5.36,5.36,0,0,1-1.48-3.54A5.15,5.15,0,0,1,153.22,69.65Z"/><path class="cls-4" d="M153.22,69.65A10.59,10.59,0,0,1,156.33,67l.79-.42,11.15,6.49L157.72,79.2q-.76-.35-1.47-.75a10.66,10.66,0,0,1-2.69-2.14,5.36,5.36,0,0,1-1.48-3.54A5.15,5.15,0,0,1,153.22,69.65Z"/><path d="M125.45,87.3a27.08,27.08,0,0,1,9.1,0,20.35,20.35,0,0,1,5.84,1.91l-10.42,6-10.34-6A20.52,20.52,0,0,1,125.45,87.3Z"/><path class="cls-4" d="M125.45,87.3a27.08,27.08,0,0,1,9.1,0,20.35,20.35,0,0,1,5.84,1.91l-10.42,6-10.34-6A20.52,20.52,0,0,1,125.45,87.3Z"/><path d="M94.76,30.39l10.35,6a20.31,20.31,0,0,1-5.82,1.91,26.29,26.29,0,0,1-4.58.39,26.59,26.59,0,0,1-4.52-.38c-.48-.08-1-.18-1.41-.29a19.34,19.34,0,0,1-4.43-1.63Z"/><path class="cls-4" d="M94.76,30.39l10.35,6a20.31,20.31,0,0,1-5.82,1.91,26.29,26.29,0,0,1-4.58.39,26.59,26.59,0,0,1-4.52-.38c-.48-.08-1-.18-1.41-.29a19.34,19.34,0,0,1-4.43-1.63Z"/><path d="M66.88,46.49c.19.1.38.2.56.31a9.86,9.86,0,0,1,3.21,2.8,4.79,4.79,0,0,1-.05,5.82,10,10,0,0,1-3.23,2.78l-.57.31-10.34-6Z"/><path class="cls-4" d="M66.88,46.49c.19.1.38.2.56.31a9.86,9.86,0,0,1,3.21,2.8,4.79,4.79,0,0,1-.05,5.82,10,10,0,0,1-3.23,2.78l-.57.31-10.34-6Z"/><path class="cls-3" d="M119.31,59.44l-1-.57a.81.81,0,0,0-.71,0l-.78.46a7.25,7.25,0,0,0-3.2-.59,5.92,5.92,0,0,0-2.69.73c-.8.46-1.19.93-1.18,1.41a2.48,2.48,0,0,0,.72,1.53c0,.06.17.2.38.44a6.3,6.3,0,0,1,.86,1.17c.12.27,0,.49-.27.67a2.33,2.33,0,0,1-2.45-.2,5.18,5.18,0,0,1-1.39-1.13,3.68,3.68,0,0,1-.45-.66.42.42,0,0,0-.18-.17,1,1,0,0,0-1,0l-1.12.65c-.15.09-.21.23-.13.35a6.41,6.41,0,0,0,1.89,1.71l-.93.54c-.19.11-.19.29,0,.4l1,.58a.78.78,0,0,0,.7,0l1-.57a6.93,6.93,0,0,0,3.06.53,6,6,0,0,0,2.76-.77,2.29,2.29,0,0,0,1.05-1,1.29,1.29,0,0,0-.08-1.05,5.32,5.32,0,0,0-.93-1.22c-.36-.39-.61-.68-.75-.86a.84.84,0,0,1-.21-.56q0-.28.39-.51a1.85,1.85,0,0,1,1.14-.2A3.69,3.69,0,0,1,117.26,62a5.39,5.39,0,0,1,.3.52.44.44,0,0,0,.18.18,1.06,1.06,0,0,0,1,0l1.12-.65c.16-.1.22-.23.13-.36a4.56,4.56,0,0,0-.51-.65,6,6,0,0,0-.9-.75l.75-.43a.22.22,0,0,0,0-.41"/><polygon class="cls-3" points="170.73 60.54 170.73 73.05 132.43 95.16 58.92 52.44 58.92 39.94 170.73 60.54"/><polygon points="132.42 82.66 132.42 95.16 170.73 73.05 170.73 60.54 132.42 82.66"/><polygon class="cls-4" points="132.42 82.66 132.42 95.16 170.73 73.05 170.73 60.54 132.42 82.66"/><polygon class="cls-3" points="58.91 39.94 132.42 82.66 170.73 60.54 97.22 17.82 58.91 39.94"/><path d="M114.86,43.93a16.79,16.79,0,0,1,8.3,2c2,1.19,3.17,2.72,3.17,4.31s-1.15,3.15-3.23,4.35a16.87,16.87,0,0,1-8.32,2h0a16.75,16.75,0,0,1-8.29-2c-2-1.19-3.17-2.72-3.17-4.31s1.15-3.15,3.23-4.35A16.85,16.85,0,0,1,114.86,43.93Z"/><path class="cls-4" d="M114.86,43.93a16.79,16.79,0,0,1,8.3,2c2,1.19,3.17,2.72,3.17,4.31s-1.15,3.15-3.23,4.35a16.87,16.87,0,0,1-8.32,2h0a16.75,16.75,0,0,1-8.29-2c-2-1.19-3.17-2.72-3.17-4.31s1.15-3.15,3.23-4.35A16.85,16.85,0,0,1,114.86,43.93Z"/><path class="cls-3" d="M100.83,42.88a.79.79,0,0,1-.39-.11l-10.67-6.2a.77.77,0,0,1,.77-1.33l10.68,6.2a.77.77,0,0,1,.27,1.05A.76.76,0,0,1,100.83,42.88Z"/><path class="cls-3" d="M139.49,65.35a.79.79,0,0,1-.39-.11L128.43,59a.77.77,0,0,1-.28-1,.76.76,0,0,1,1-.28l10.68,6.2a.78.78,0,0,1-.39,1.44Z"/><path class="cls-3" d="M69.33,33.92,86.8,23.84h0l10.42-6,10.34,6,52,30.22,11.16,6.48-10.55,6.09-17.34,10-10.42,6-10.33-6L69.26,46l-10.35-6Zm3.72,8.94,54.86,31.88,4.52,2.63L137,74.73l19-11,5.58-3.22-5.92-3.44L101.74,25.74l-4.53-2.63-4.57,2.64L73.1,37l-5,2.92Z"/><path d="M155.68,57.09a10.27,10.27,0,0,1,3.1-2.61c.26-.15.52-.29.79-.42l11.16,6.48-10.55,6.09a12.61,12.61,0,0,1-1.47-.74A10.74,10.74,0,0,1,156,63.75a5.32,5.32,0,0,1-1.49-3.54A5.15,5.15,0,0,1,155.68,57.09Z"/><path class="cls-4" d="M155.68,57.09a10.27,10.27,0,0,1,3.1-2.61c.26-.15.52-.29.79-.42l11.16,6.48-10.55,6.09a12.61,12.61,0,0,1-1.47-.74A10.74,10.74,0,0,1,156,63.75a5.32,5.32,0,0,1-1.49-3.54A5.15,5.15,0,0,1,155.68,57.09Z"/><path d="M127.91,74.74a26.19,26.19,0,0,1,4.58-.4,26.46,26.46,0,0,1,4.51.39,19.75,19.75,0,0,1,5.84,1.91l-10.42,6-10.33-6A20,20,0,0,1,127.91,74.74Z"/><path class="cls-4" d="M127.91,74.74a26.19,26.19,0,0,1,4.58-.4,26.46,26.46,0,0,1,4.51.39,19.75,19.75,0,0,1,5.84,1.91l-10.42,6-10.33-6A20,20,0,0,1,127.91,74.74Z"/><path d="M97.22,17.82l10.34,6a20,20,0,0,1-5.82,1.9,26.28,26.28,0,0,1-4.58.4,26.67,26.67,0,0,1-4.52-.39c-.47-.08-.94-.18-1.41-.29a19,19,0,0,1-4.43-1.62Z"/><path class="cls-4" d="M97.22,17.82l10.34,6a20,20,0,0,1-5.82,1.9,26.28,26.28,0,0,1-4.58.4,26.67,26.67,0,0,1-4.52-.39c-.47-.08-.94-.18-1.41-.29a19,19,0,0,1-4.43-1.62Z"/><path d="M69.33,33.92l.56.31A10,10,0,0,1,73.1,37a4.81,4.81,0,0,1,0,5.83,10,10,0,0,1-3.23,2.78l-.56.31-10.35-6Z"/><path class="cls-4" d="M69.33,33.92l.56.31A10,10,0,0,1,73.1,37a4.81,4.81,0,0,1,0,5.83,10,10,0,0,1-3.23,2.78l-.56.31-10.35-6Z"/><path class="cls-3" d="M121.76,46.87l-1-.57a.78.78,0,0,0-.7,0l-.79.46a7.4,7.4,0,0,0-3.2-.59,5.92,5.92,0,0,0-2.69.74c-.79.46-1.19.93-1.18,1.4a2.5,2.5,0,0,0,.73,1.53,4.81,4.81,0,0,0,.37.44,5.86,5.86,0,0,1,.86,1.17.5.5,0,0,1-.27.68,2.35,2.35,0,0,1-2.45-.2,5.13,5.13,0,0,1-1.38-1.13,3.48,3.48,0,0,1-.46-.67.69.69,0,0,0-.17-.17,1.12,1.12,0,0,0-1,0l-1.11.65c-.16.09-.22.23-.14.35a6.7,6.7,0,0,0,1.89,1.72l-.92.53a.22.22,0,0,0,0,.41l1,.57a.78.78,0,0,0,.7,0l1-.56a7.07,7.07,0,0,0,3.06.53,6,6,0,0,0,2.76-.78,2.24,2.24,0,0,0,1-1,1.28,1.28,0,0,0-.08-1.06,5.55,5.55,0,0,0-.93-1.22c-.35-.39-.61-.67-.75-.86a.87.87,0,0,1-.21-.56c0-.18.13-.35.39-.5a1.79,1.79,0,0,1,1.14-.21,3.68,3.68,0,0,1,1.31.46,3.49,3.49,0,0,1,1.13,1,4.63,4.63,0,0,1,.3.52.45.45,0,0,0,.18.18,1.09,1.09,0,0,0,1,0l1.13-.66c.15-.09.21-.23.13-.35a4.78,4.78,0,0,0-.52-.65,5.93,5.93,0,0,0-.89-.76l.74-.43c.19-.11.2-.29,0-.41"/><path class="cls-4" d="M69.33,31.19,86.8,21.11h0l10.42-6,10.34,6,52,30.22,11.16,6.48L160.18,63.9l-17.34,10-10.42,6-10.33-6L69.26,43.22l-10.35-6Z"/></g><polygon class="cls-5" points="166.29 82.75 166.29 95.26 127.99 117.37 54.48 74.65 54.48 62.15 166.29 82.75"/><polygon class="cls-5" points="127.99 104.87 127.99 117.37 166.29 95.26 166.29 82.75 127.99 104.87"/><polygon class="cls-5" points="54.48 62.15 127.99 104.87 166.29 82.75 92.78 40.03 54.48 62.15"/><path class="cls-6" d="M110.43,66.14a16.75,16.75,0,0,1,8.29,2c2,1.19,3.17,2.72,3.17,4.31s-1.15,3.15-3.22,4.35a16.92,16.92,0,0,1-8.32,2h0a16.72,16.72,0,0,1-8.29-2c-2-1.19-3.18-2.72-3.17-4.31s1.14-3.15,3.22-4.35A16.89,16.89,0,0,1,110.43,66.14Z"/><path class="cls-4" d="M110.43,66.14a16.75,16.75,0,0,1,8.29,2c2,1.19,3.17,2.72,3.17,4.31s-1.15,3.15-3.22,4.35a16.92,16.92,0,0,1-8.32,2h0a16.72,16.72,0,0,1-8.29-2c-2-1.19-3.18-2.72-3.17-4.31s1.14-3.15,3.22-4.35A16.89,16.89,0,0,1,110.43,66.14Z"/><path class="cls-5" d="M96.39,65.09A.76.76,0,0,1,96,65l-10.68-6.2a.77.77,0,1,1,.78-1.33l10.67,6.2a.77.77,0,0,1-.39,1.44Z"/><path class="cls-5" d="M135.05,87.56a.76.76,0,0,1-.38-.11L124,81.25a.78.78,0,0,1-.28-1,.77.77,0,0,1,1.06-.28l10.67,6.2a.77.77,0,0,1-.39,1.44Z"/><path class="cls-6" d="M64.9,56.13,82.36,46.05h0l10.41-6,10.35,6,52,30.22,11.15,6.48-10.55,6.09-17.33,10-10.42,6-10.34-6L64.82,68.16l-10.34-6Zm3.71,8.94L123.47,97,128,99.58l4.57-2.64,19-11,5.58-3.22-5.92-3.44L97.3,48l-4.52-2.63L88.21,48,68.66,59.24l-5,2.92Z"/><path class="cls-4" d="M64.9,56.13,82.36,46.05h0l10.41-6,10.35,6,52,30.22,11.15,6.48-10.55,6.09-17.33,10-10.42,6-10.34-6L64.82,68.16l-10.34-6Zm3.71,8.94L123.47,97,128,99.58l4.57-2.64,19-11,5.58-3.22-5.92-3.44L97.3,48l-4.52-2.63L88.21,48,68.66,59.24l-5,2.92Z"/><path class="cls-6" d="M151.24,79.3a10.32,10.32,0,0,1,3.11-2.61c.25-.15.52-.29.79-.42l11.15,6.48-10.55,6.09a13.46,13.46,0,0,1-1.47-.74A11.12,11.12,0,0,1,151.58,86a5.31,5.31,0,0,1-1.48-3.54A5.13,5.13,0,0,1,151.24,79.3Z"/><path class="cls-4" d="M151.24,79.3a10.32,10.32,0,0,1,3.11-2.61c.25-.15.52-.29.79-.42l11.15,6.48-10.55,6.09a13.46,13.46,0,0,1-1.47-.74A11.12,11.12,0,0,1,151.58,86a5.31,5.31,0,0,1-1.48-3.54A5.13,5.13,0,0,1,151.24,79.3Z"/><path class="cls-6" d="M123.47,97a26.4,26.4,0,0,1,9.1,0,19.75,19.75,0,0,1,5.84,1.91l-10.42,6-10.34-6A20.21,20.21,0,0,1,123.47,97Z"/><path class="cls-4" d="M123.47,97a26.4,26.4,0,0,1,9.1,0,19.75,19.75,0,0,1,5.84,1.91l-10.42,6-10.34-6A20.21,20.21,0,0,1,123.47,97Z"/><path class="cls-6" d="M92.78,40l10.35,6A20.07,20.07,0,0,1,97.3,48a26.08,26.08,0,0,1-4.57.4A26.49,26.49,0,0,1,88.21,48c-.48-.08-.95-.18-1.41-.29a18.87,18.87,0,0,1-4.43-1.62Z"/><path class="cls-4" d="M92.78,40l10.35,6A20.07,20.07,0,0,1,97.3,48a26.08,26.08,0,0,1-4.57.4A26.49,26.49,0,0,1,88.21,48c-.48-.08-.95-.18-1.41-.29a18.87,18.87,0,0,1-4.43-1.62Z"/><path class="cls-6" d="M64.9,56.13l.56.31a9.83,9.83,0,0,1,3.2,2.8,4.77,4.77,0,0,1,0,5.83,9.93,9.93,0,0,1-3.23,2.78l-.56.31-10.34-6Z"/><path class="cls-4" d="M64.9,56.13l.56.31a9.83,9.83,0,0,1,3.2,2.8,4.77,4.77,0,0,1,0,5.83,9.93,9.93,0,0,1-3.23,2.78l-.56.31-10.34-6Z"/><path class="cls-5" d="M117.33,69.08l-1-.57a.8.8,0,0,0-.71,0l-.78.46a7.55,7.55,0,0,0-3.2-.59,5.89,5.89,0,0,0-2.69.74c-.8.46-1.19.93-1.18,1.4a2.42,2.42,0,0,0,.72,1.53c0,.06.17.21.37.44a6,6,0,0,1,.87,1.17c.12.28,0,.5-.28.68a2.33,2.33,0,0,1-2.44-.2A5.18,5.18,0,0,1,105.63,73a3,3,0,0,1-.45-.67.59.59,0,0,0-.18-.17,1.1,1.1,0,0,0-1,0l-1.12.65c-.16.09-.21.23-.13.35a6.65,6.65,0,0,0,1.88,1.72l-.92.53a.22.22,0,0,0,0,.41l1,.57a.8.8,0,0,0,.71,0l1-.56a7.12,7.12,0,0,0,3.07.53,6,6,0,0,0,2.76-.78,2.16,2.16,0,0,0,1-1,1.28,1.28,0,0,0-.08-1.06,5.16,5.16,0,0,0-.92-1.22c-.36-.39-.61-.67-.75-.86a.89.89,0,0,1-.22-.56c0-.18.14-.35.4-.5a1.78,1.78,0,0,1,1.14-.21,3.57,3.57,0,0,1,1.3.46,3.29,3.29,0,0,1,1.13,1,3.47,3.47,0,0,1,.3.52.42.42,0,0,0,.19.18,1.07,1.07,0,0,0,1,0l1.13-.66c.16-.09.21-.23.13-.35a4.06,4.06,0,0,0-.51-.65,6.62,6.62,0,0,0-.9-.76l.75-.43c.19-.11.19-.29,0-.41"/><polygon class="cls-5" points="163.28 70.11 163.28 82.61 124.97 104.73 51.46 62.01 51.46 49.5 163.28 70.11"/><polygon class="cls-6" points="124.97 92.22 124.97 104.73 163.28 82.61 163.28 70.11 124.97 92.22"/><polygon class="cls-4" points="124.97 92.22 124.97 104.73 163.28 82.61 163.28 70.11 124.97 92.22"/><polygon class="cls-5" points="51.46 49.5 124.97 92.22 163.27 70.11 89.77 27.39 51.46 49.5"/><path class="cls-6" d="M107.41,53.49a16.83,16.83,0,0,1,8.29,2c2,1.19,3.18,2.72,3.17,4.32s-1.14,3.15-3.22,4.35a17,17,0,0,1-8.32,2h0a16.83,16.83,0,0,1-8.29-2C97,63,95.87,61.42,95.87,59.82s1.15-3.15,3.22-4.35A17,17,0,0,1,107.41,53.49Z"/><path class="cls-4" d="M107.41,53.49a16.83,16.83,0,0,1,8.29,2c2,1.19,3.18,2.72,3.17,4.32s-1.14,3.15-3.22,4.35a17,17,0,0,1-8.32,2h0a16.83,16.83,0,0,1-8.29-2C97,63,95.87,61.42,95.87,59.82s1.15-3.15,3.22-4.35A17,17,0,0,1,107.41,53.49Z"/><path class="cls-5" d="M93.37,52.44a.75.75,0,0,1-.38-.1l-10.67-6.2a.77.77,0,0,1,.77-1.34L93.76,51A.77.77,0,0,1,94,52.06.76.76,0,0,1,93.37,52.44Z"/><path class="cls-5" d="M132,74.91a.75.75,0,0,1-.38-.1L121,68.6a.76.76,0,0,1-.28-1,.77.77,0,0,1,1-.28l10.67,6.2a.77.77,0,0,1-.39,1.44Z"/><path class="cls-5" d="M61.88,43.49,79.35,33.4h0l10.41-6,10.35,6,52,30.22,11.15,6.49L152.72,76.2l-17.33,10-10.42,6-10.34-6L61.8,55.51l-10.34-6Zm3.72,8.93L120.45,84.3,125,86.93l4.57-2.64,19-11,5.59-3.22-5.93-3.44L94.29,35.31l-4.53-2.63-4.57,2.64L65.65,46.6l-5.06,2.92Z"/><path class="cls-6" d="M148.22,66.65A10.59,10.59,0,0,1,151.33,64l.79-.42,11.15,6.49L152.72,76.2q-.76-.35-1.47-.75a10.66,10.66,0,0,1-2.69-2.14,5.36,5.36,0,0,1-1.48-3.54A5.15,5.15,0,0,1,148.22,66.65Z"/><path class="cls-4" d="M148.22,66.65A10.59,10.59,0,0,1,151.33,64l.79-.42,11.15,6.49L152.72,76.2q-.76-.35-1.47-.75a10.66,10.66,0,0,1-2.69-2.14,5.36,5.36,0,0,1-1.48-3.54A5.15,5.15,0,0,1,148.22,66.65Z"/><path class="cls-6" d="M120.45,84.3a27.08,27.08,0,0,1,9.1,0,20.35,20.35,0,0,1,5.84,1.91l-10.42,6-10.34-6A20.52,20.52,0,0,1,120.45,84.3Z"/><path class="cls-4" d="M120.45,84.3a27.08,27.08,0,0,1,9.1,0,20.35,20.35,0,0,1,5.84,1.91l-10.42,6-10.34-6A20.52,20.52,0,0,1,120.45,84.3Z"/><path class="cls-6" d="M89.76,27.39l10.35,6a20.31,20.31,0,0,1-5.82,1.91,26.29,26.29,0,0,1-4.58.39,26.59,26.59,0,0,1-4.52-.38c-.48-.08-1-.18-1.41-.29a19.34,19.34,0,0,1-4.43-1.63Z"/><path class="cls-4" d="M89.76,27.39l10.35,6a20.31,20.31,0,0,1-5.82,1.91,26.29,26.29,0,0,1-4.58.39,26.59,26.59,0,0,1-4.52-.38c-.48-.08-1-.18-1.41-.29a19.34,19.34,0,0,1-4.43-1.63Z"/><path class="cls-6" d="M61.88,43.49c.19.1.38.2.56.31a9.86,9.86,0,0,1,3.21,2.8,4.79,4.79,0,0,1-.05,5.82,10,10,0,0,1-3.23,2.78l-.57.31-10.34-6Z"/><path class="cls-4" d="M61.88,43.49c.19.1.38.2.56.31a9.86,9.86,0,0,1,3.21,2.8,4.79,4.79,0,0,1-.05,5.82,10,10,0,0,1-3.23,2.78l-.57.31-10.34-6Z"/><path class="cls-5" d="M114.31,56.44l-1-.57a.81.81,0,0,0-.71,0l-.78.46a7.25,7.25,0,0,0-3.2-.59,5.92,5.92,0,0,0-2.69.73c-.8.46-1.19.93-1.18,1.41a2.48,2.48,0,0,0,.72,1.53c0,.06.17.2.38.44a6.3,6.3,0,0,1,.86,1.17c.12.27,0,.49-.27.67a2.33,2.33,0,0,1-2.45-.2,5.18,5.18,0,0,1-1.39-1.13,3.68,3.68,0,0,1-.45-.66.42.42,0,0,0-.18-.17,1,1,0,0,0-1,0l-1.12.65c-.15.09-.21.23-.13.35a6.41,6.41,0,0,0,1.89,1.71l-.93.54c-.19.11-.19.29,0,.4l1,.58a.78.78,0,0,0,.7,0l1-.57a6.93,6.93,0,0,0,3.06.53,6,6,0,0,0,2.76-.77,2.29,2.29,0,0,0,1.05-1,1.29,1.29,0,0,0-.08-1.05,5.32,5.32,0,0,0-.93-1.22c-.36-.39-.61-.68-.75-.86a.84.84,0,0,1-.21-.56q0-.28.39-.51a1.85,1.85,0,0,1,1.14-.2A3.69,3.69,0,0,1,112.26,59a5.39,5.39,0,0,1,.3.52.44.44,0,0,0,.18.18,1.06,1.06,0,0,0,1,0l1.12-.65c.16-.1.22-.23.13-.36a4.56,4.56,0,0,0-.51-.65,6,6,0,0,0-.9-.75l.75-.43a.22.22,0,0,0,0-.41"/><polygon class="cls-5" points="165.73 57.54 165.73 70.05 127.42 92.16 53.92 49.44 53.92 36.94 165.73 57.54"/><polygon class="cls-6" points="127.42 79.66 127.42 92.16 165.73 70.05 165.73 57.54 127.42 79.66"/><polygon class="cls-4" points="127.42 79.66 127.42 92.16 165.73 70.05 165.73 57.54 127.42 79.66"/><polygon class="cls-5" points="53.91 36.94 127.42 79.66 165.73 57.54 92.22 14.82 53.91 36.94"/><path class="cls-6" d="M109.86,40.93a16.79,16.79,0,0,1,8.3,2c2,1.19,3.17,2.72,3.17,4.31s-1.15,3.15-3.23,4.35a16.87,16.87,0,0,1-8.32,2h0a16.75,16.75,0,0,1-8.29-2c-2-1.19-3.17-2.72-3.17-4.31s1.15-3.15,3.23-4.35A16.85,16.85,0,0,1,109.86,40.93Z"/><path class="cls-4" d="M109.86,40.93a16.79,16.79,0,0,1,8.3,2c2,1.19,3.17,2.72,3.17,4.31s-1.15,3.15-3.23,4.35a16.87,16.87,0,0,1-8.32,2h0a16.75,16.75,0,0,1-8.29-2c-2-1.19-3.17-2.72-3.17-4.31s1.15-3.15,3.23-4.35A16.85,16.85,0,0,1,109.86,40.93Z"/><path class="cls-5" d="M95.83,39.88a.79.79,0,0,1-.39-.11l-10.67-6.2a.77.77,0,0,1,.77-1.33l10.68,6.2a.77.77,0,0,1,.27,1.05A.76.76,0,0,1,95.83,39.88Z"/><path class="cls-5" d="M134.49,62.35a.79.79,0,0,1-.39-.11L123.43,56a.77.77,0,0,1-.28-1,.76.76,0,0,1,1-.28l10.68,6.2a.78.78,0,0,1-.39,1.44Z"/><path class="cls-5" d="M64.33,30.92,81.8,20.84h0l10.42-6,10.34,6,52,30.22,11.16,6.48-10.55,6.09-17.34,10-10.42,6-10.33-6L64.26,43l-10.35-6Zm3.72,8.94,54.86,31.88,4.52,2.63L132,71.73l19-11,5.58-3.22-5.92-3.44L96.74,22.74l-4.53-2.63-4.57,2.64L68.1,34l-5,2.92Z"/><path class="cls-6" d="M150.68,54.09a10.27,10.27,0,0,1,3.1-2.61c.26-.15.52-.29.79-.42l11.16,6.48-10.55,6.09a12.61,12.61,0,0,1-1.47-.74A10.74,10.74,0,0,1,151,60.75a5.32,5.32,0,0,1-1.49-3.54A5.15,5.15,0,0,1,150.68,54.09Z"/><path class="cls-4" d="M150.68,54.09a10.27,10.27,0,0,1,3.1-2.61c.26-.15.52-.29.79-.42l11.16,6.48-10.55,6.09a12.61,12.61,0,0,1-1.47-.74A10.74,10.74,0,0,1,151,60.75a5.32,5.32,0,0,1-1.49-3.54A5.15,5.15,0,0,1,150.68,54.09Z"/><path class="cls-6" d="M122.91,71.74a26.19,26.19,0,0,1,4.58-.4,26.46,26.46,0,0,1,4.51.39,19.75,19.75,0,0,1,5.84,1.91l-10.42,6-10.33-6A20,20,0,0,1,122.91,71.74Z"/><path class="cls-4" d="M122.91,71.74a26.19,26.19,0,0,1,4.58-.4,26.46,26.46,0,0,1,4.51.39,19.75,19.75,0,0,1,5.84,1.91l-10.42,6-10.33-6A20,20,0,0,1,122.91,71.74Z"/><path class="cls-6" d="M92.22,14.82l10.34,6a20,20,0,0,1-5.82,1.9,26.28,26.28,0,0,1-4.58.4,26.67,26.67,0,0,1-4.52-.39c-.47-.08-.94-.18-1.41-.29a19,19,0,0,1-4.43-1.62Z"/><path class="cls-4" d="M92.22,14.82l10.34,6a20,20,0,0,1-5.82,1.9,26.28,26.28,0,0,1-4.58.4,26.67,26.67,0,0,1-4.52-.39c-.47-.08-.94-.18-1.41-.29a19,19,0,0,1-4.43-1.62Z"/><path class="cls-6" d="M64.33,30.92l.56.31A10,10,0,0,1,68.1,34a4.81,4.81,0,0,1,0,5.83,10,10,0,0,1-3.23,2.78l-.56.31-10.35-6Z"/><path class="cls-4" d="M64.33,30.92l.56.31A10,10,0,0,1,68.1,34a4.81,4.81,0,0,1,0,5.83,10,10,0,0,1-3.23,2.78l-.56.31-10.35-6Z"/><path class="cls-5" d="M116.76,43.87l-1-.57a.78.78,0,0,0-.7,0l-.79.46a7.4,7.4,0,0,0-3.2-.59,5.92,5.92,0,0,0-2.69.74c-.79.46-1.19.93-1.18,1.4a2.5,2.5,0,0,0,.73,1.53,4.81,4.81,0,0,0,.37.44,5.86,5.86,0,0,1,.86,1.17.5.5,0,0,1-.27.68,2.35,2.35,0,0,1-2.45-.2,5.13,5.13,0,0,1-1.38-1.13,3.48,3.48,0,0,1-.46-.67.69.69,0,0,0-.17-.17,1.12,1.12,0,0,0-1,0l-1.11.65c-.16.09-.22.23-.14.35a6.7,6.7,0,0,0,1.89,1.72l-.92.53a.22.22,0,0,0,0,.41l1,.57a.78.78,0,0,0,.7,0l1-.56a7.07,7.07,0,0,0,3.06.53,6,6,0,0,0,2.76-.78,2.24,2.24,0,0,0,1-1,1.28,1.28,0,0,0-.08-1.06,5.55,5.55,0,0,0-.93-1.22c-.35-.39-.61-.67-.75-.86a.87.87,0,0,1-.21-.56c0-.18.13-.35.39-.5a1.79,1.79,0,0,1,1.14-.21,3.68,3.68,0,0,1,1.31.46,3.49,3.49,0,0,1,1.13,1,4.63,4.63,0,0,1,.3.52.45.45,0,0,0,.18.18,1.09,1.09,0,0,0,1,0l1.13-.66c.15-.09.21-.23.13-.35a4.78,4.78,0,0,0-.52-.65,5.93,5.93,0,0,0-.89-.76l.74-.43c.19-.11.2-.29,0-.41"/><path class="cls-4" d="M64.33,28.19,81.8,18.11h0l10.42-6,10.34,6,52,30.22,11.16,6.48L155.18,60.9l-17.34,10-10.42,6-10.33-6L64.26,40.22l-10.35-6Z"/><g class="cls-2"><path d="M12.41,55.36s9,1.25,11,3,5.72,4.13,6.58,6.7,4.12,9.78,4.12,9.78-5.68,1.67-6,9.77,1.62,15.55.94,18.11-11,6.29-11,6.29-12,1.87-12.2-1.47.33-6.73.23-8-.47-12.83,0-15.49,3.79-14.3,5.3-17.24.35-11.2.35-11.2Z"/><path d="M115.84,7.14s-.23-1.72-1.82-1.66-6.53,2.69-6.53,2.69a67.77,67.77,0,0,1,6.62-1.93A1.66,1.66,0,0,1,115.84,7.14Z"/><polygon points="119.41 11.5 71.11 24.44 120.24 13.03 119.41 11.5"/><polygon points="91.08 30.37 74.05 35.22 90.92 31.75 91.08 30.37"/><path d="M59.6,32.65s-8.23,2.54-10.4,2-2.33-1.32-2.33-1.32.22,1.77,2.79,1.83S59.6,32.65,59.6,32.65Z"/><path d="M60.83,38.66s-6.68,1.87-9.12,1.69-2.77-1.71-2.77-1.71.35,2.44,3.47,2.32S60.83,38.66,60.83,38.66Z"/><path d="M63.1,46.15s-9,2.08-10.67,1.69a1.81,1.81,0,0,1-1.52-2,2.15,2.15,0,0,0,2.28,2.59C56,48.55,63.1,46.15,63.1,46.15Z"/><path d="M61.11,27s-6.73,1.67-9.27.87-2.68-1-5.36-.22L34.82,31.05s12.11-2.94,13.91-2.89,1.63,1.14,5.72.63A23.46,23.46,0,0,0,61.11,27Z"/><path d="M17.56,38.88a25.37,25.37,0,0,1,4.83-1.16,10.62,10.62,0,0,1,4.13.36,22.94,22.94,0,0,0-4.37.18Z"/><path d="M25.43,57.17a10.5,10.5,0,0,1,3.37-.81c1,.12,2,1.56,2,1.56a2.63,2.63,0,0,0-2.26-2A3.75,3.75,0,0,0,25.43,57.17Z"/><path d="M25.79,59.23a3.53,3.53,0,0,1,1.8-1,1.92,1.92,0,0,1,1.45.47s-.35-.28-1.55-.07A3.54,3.54,0,0,0,25.79,59.23Z"/><path d="M29.63,39.87S29,43,25.21,46.78a63.53,63.53,0,0,1-6.16,5.45,20,20,0,0,0,7.14-5.51A23.06,23.06,0,0,0,29.63,39.87Z"/><path d="M68.08,26.13,72,38.61a10.37,10.37,0,0,0-.82,4.57,44.15,44.15,0,0,0,1.3,8.74s-2-5.75-2.12-9.5.38-4.34.38-4.34Z"/><path d="M35.39,38.45A10.27,10.27,0,0,0,34,44.23c0,3.79,1.87,5.44,1.87,5.44a12.24,12.24,0,0,1-1.29-5.6A22.55,22.55,0,0,1,35.39,38.45Z"/><path d="M47.4,58.84s8.54-2.75,12.15-1.12,4.38,4.21,4.38,4.21-1-4.09-4.61-5.31S47.4,58.84,47.4,58.84Z"/><path d="M46.85,67.65s2.22,2.56,3.81,3.14a7.44,7.44,0,0,0,3.25.35A10.41,10.41,0,0,1,50.06,70C48.52,69,46.85,67.65,46.85,67.65Z"/><path d="M32.66,68.81s1.39,3.66,2.13,3.88,2.32-.18,3.76.28a7.27,7.27,0,0,1,2.25,1.11,5.77,5.77,0,0,0-3.23-2c-1.94-.32-1.9.51-3-.57A15.15,15.15,0,0,1,32.66,68.81Z"/><path d="M16.92,58.24A16.29,16.29,0,0,1,26,63.44a27.34,27.34,0,0,1,5,9.29s-3.31-6.34-6.65-9.5A30.23,30.23,0,0,0,16.92,58.24Z"/><path d="M9.34,77.48a31.12,31.12,0,0,0-1.78,11c.19,5.87.74,7.29.52,11.09s-.37,6-.37,6a48.64,48.64,0,0,0,1.13-8.69c.28-5.38-1.22-6.91-.51-12.11S9.34,77.48,9.34,77.48Z"/><path d="M123.8,14.61A10.94,10.94,0,0,0,120,9.73c-1.46-1.06-3.58-5.45-3.58-5.45l-1.16-.46-8.67,3-2,6.92-33.12,9L64,25.26s-6.64,1.28-9.27,1.53A14,14,0,0,1,49,25.69l-15.7,4.7s.79,2-.07,2.62-4.31,2.23-4.31,2.23L28.2,37.5S26.64,36,25.72,35.87s-9.91,2.27-9.91,2.27l.55,3.16a29.46,29.46,0,0,1,5.11,0c2.54.25,3.92,3.06,3.92,3.06s-1.73,2.1-3.75,4.08-8.8,6.41-8.8,6.41c.23.93,5.58,1.55,7.56,2.4a26.16,26.16,0,0,1,7.89,6c2.3,2.66,5.27,10.86,5.27,10.86a21.27,21.27,0,0,1,4.61.11c1.15.36,4.22,3.3,8.28,4.55s9.91-1.58,14.94-4.81,5.14-13.49,6-16.44,7.33-3.87,7.33-3.87-1.33-4.89-2-8.06A11.13,11.13,0,0,1,73.88,39l18.58-4.84a23,23,0,0,1,.44-2.95c.34-1.53,2.59-3.72,2.59-3.72l28-8.09A5.64,5.64,0,0,0,123.8,14.61ZM62.25,68.12c-1.65,1.44-4.69,5.29-8.9,6.71s-8.43,1.89-10.32-.2a12.51,12.51,0,0,1-2.54-5.07l1.1-3.34s2.1.82,3.63,1.63,3.81,4.26,6.63,4.46,4-1.09,4-1.09A10.3,10.3,0,0,1,51,68.28c-1.85-2.2-1.29-7.17.11-9.07,0,0,6.79-1.8,9.78.86S63.91,66.68,62.25,68.12Z"/><path d="M49,59.13a.39.39,0,0,0-.23.18c-4.39,1.6-9.22,6.53-8.45,11.49,1,6.66,9.58,6.2,14.24,4.11,4.45-2,10.53-6.32,8.92-12C61.77,56.82,53.55,58.18,49,59.13Zm1.26,1.12v0h0Zm-2.8.8-.29.13.25-.14Zm-4.68,5.12a2,2,0,0,0-.05.26h-.06A2.72,2.72,0,0,1,42.77,66.17Zm1.31-2A12.42,12.42,0,0,1,50,60.89a6.81,6.81,0,0,0-.57,5.55,7.23,7.23,0,0,0,2.32,3.24c.93.72,2.46,1,3.45,1.69a5.94,5.94,0,0,1-5.1-.25,26.69,26.69,0,0,1-3.5-2.78,8.7,8.7,0,0,0-3.54-1.85A7.84,7.84,0,0,1,44.08,64.22Zm12,8.72c-3.5,2-10,4-13.37.32a5.39,5.39,0,0,1-1-5.89c3.39,0,5.19,3.13,7.93,4.64,2.19,1.21,4.33.83,6.56-.05a.5.5,0,0,0,.23-.78c-1.11-1.44-3.22-1.38-4.56-2.68-2.63-2.54-2.29-6.37.09-8.9a.47.47,0,0,0,.1-.16c2.9-.44,6.12-.66,8.38.89C66.62,64.6,59.76,70.84,56,72.94Z"/><path d="M120.87,9.64a.26.26,0,0,0-.18-.06.44.44,0,0,0-.34-.26,9.75,9.75,0,0,1-3.6-5.95.48.48,0,0,0-.61-.35c-2.09.68-4.18,1.35-6.25,2.08-1.19.42-3.11.71-4.08,1.65-.24.23-.15.54-.3.81s.13.42.1.56c-.8,3.07-.72,4.88-4,6.2l-.09.07C90.78,17.23,80,20,69.34,23.13a.39.39,0,0,0-.23.18.3.3,0,0,0-.31,0A49.79,49.79,0,0,1,58.11,26a20.79,20.79,0,0,1-5.1.33c-1.15-.15-2.17-1.09-3.16-1.21-2.07-.25-4.75,1.34-6.67,1.93q-5,1.53-10.09,2.83a.45.45,0,0,0-.23.7,11.56,11.56,0,0,1,0,1.44c-.1.84-.4,1-1.12,1.32-1,.42-1.95.8-2.92,1.23a.66.66,0,0,0-.37.71c-.12.49-.22,1-.32,1.49-1.22-1.43-1.82-1.59-3.9-1.19-2.88.55-5.73,1.24-8.56,2a.61.61,0,0,0-.36.87,20.56,20.56,0,0,0,.55,3,.45.45,0,0,0,.47.37c3.15-.48,6.68-.42,8.44,2.62-.65.7-1.34,1.37-2,2a49.11,49.11,0,0,1-11.07,8.44h0c-.28,0-.43.34-.34.57a.54.54,0,0,0-.08.36C13.17,67,6,76.61,5.15,87.57c-.43,5.41.71,10.76,0,16.14-.38,2.91-.4,6.17,3,7.08,3.84,1,9.28-1,13-2,3.11-.83,7.6-1.65,9-5,1.21-2.93-.29-7-.76-9.9-.95-6-1.79-15.39,5.06-18.38a.48.48,0,0,0,.21-.19c4.18-1.57,5.84,1.07,9,3a8.08,8.08,0,0,0,5.12,1.06c4.09-.29,8.39-1.4,11.66-3.94a17.19,17.19,0,0,0,5.9-8.53,24.78,24.78,0,0,0,.7-5.43c.38-5.06,3.18-6.33,7.68-7.34a.59.59,0,0,0,.61-.74C74,49.16,72,44.07,74.05,39.8a.52.52,0,0,0,.19-.2c6-2,12.19-3.34,18.31-5a.4.4,0,0,0,.24-.25A.62.62,0,0,0,93,34a10.24,10.24,0,0,1,.81-3.65A9.83,9.83,0,0,1,95.62,28c9.21-2.64,18.46-5.14,27.77-7.44a.5.5,0,0,0,.65-.2C126.37,17,123.75,11.85,120.87,9.64Zm-1.9,0,0,0-.1,0ZM106.58,8.26c.51-1.44,7.28-4.38,8.9-3.56.88.44,1,1.75,1.53,2.61a8,8,0,0,0,1.07,1.42c-4.18.76-8,2.93-12.32,2.93C106.24,10.53,106.14,9.5,106.58,8.26Zm13.77,2.15.07,0c1.89,2.25,3.94,5.15,3.3,8.11-8.84,2.26-17.85,4.54-26.56,7.2-3.79,1.16-7.55,2.32-11.35,3.45-4.28,1.26-9.24,4.2-13.74,3-.78-2.68-1.54-5.37-2.36-8a.45.45,0,0,0-.1-.17C86.57,19.58,103.49,15.15,120.35,10.41ZM69.17,23.89ZM73.8,37.76v0l0,0ZM120,20.34l.26,0-.77.2ZM25.11,42.47a.17.17,0,0,0-.12-.06l.27-.18A1.2,1.2,0,0,0,25.11,42.47Zm-8.36-1.75a21.26,21.26,0,0,0-.56-2.08c3.16-.88,8-2.9,11.07-1.27a6.17,6.17,0,0,1-.57,2.44c-.5,1-1.26,1.36-2,2.08a1.38,1.38,0,0,0-.23.27C22.45,40.46,19.36,40.36,16.75,40.72ZM6.34,95.55A48.65,48.65,0,0,1,7.41,80.43c2.05-8.56,6.53-15.57,4.86-24.65,4.54.71,9,1.76,12.65,4.72,3.94,3.16,6,8.11,7.8,12.79a5.76,5.76,0,0,1-.57,2c-4,2.69-5,8-5,12.61a49,49,0,0,0,.38,5.8c.24,2.06,1.12,4.8.66,6.84-.76,3.38-3.29,5.26-6.3,6.51-5.27,1.82-13,3.71-15.83-.27a13.14,13.14,0,0,1,.35-3.72A36.86,36.86,0,0,0,6.34,95.55Zm.77,13.29.14.11h0A1.36,1.36,0,0,1,7.11,108.84Zm22.06-7.65a1.89,1.89,0,0,0,0-.23,2.28,2.28,0,0,1,0,.26ZM28.45,82v0a2.17,2.17,0,0,0,.07-.24Zm-.2.79c0-.06,0-.13,0-.2S28.26,82.76,28.25,82.82Zm4.81-8.63a1.42,1.42,0,0,0-.12.25c0-.12.06-.23.08-.35Zm-.18.45a1.46,1.46,0,0,1,0,.22l-.08,0,.12-.32A.18.18,0,0,0,32.88,74.64Zm-3.27-15.2A4.32,4.32,0,0,1,28,61.9h0a17.68,17.68,0,0,0-2.36-2.3c-.11-.09-.23-.16-.35-.25a2.68,2.68,0,0,1,.81-1c1.3-.62,2.89-1,3.48.41,0,0,0,.1,0,.15S29.6,59.27,29.61,59.44Zm-4.7-.32.07-.07a.73.73,0,0,0-.05.09ZM29.07,102a4.07,4.07,0,0,0,0-.5l.06,0C29.13,101.72,29.11,101.88,29.07,102Zm45-48.81c-3.07.6-6.4,1.62-7.68,4.77-.66,1.64-.36,3.45-.47,5.17A15.61,15.61,0,0,1,56,76.71c-3,1.11-8.11,2.38-11.17.88-1.85-.9-3-2.82-5-3.58a6.41,6.41,0,0,0-2.54-.45s0-.08-.09-.08a11.41,11.41,0,0,0-2.61-.09,2.84,2.84,0,0,1-.85-.43,51.68,51.68,0,0,0-2.17-5.35C31,65.75,30.38,63.93,30,62a4.12,4.12,0,0,0,.17-4.15c-1.06-1.68-3.22-1-4.81-.13a.06.06,0,0,0-.05,0,31.55,31.55,0,0,1-6.19-1.56h0A27,27,0,0,0,13.5,55a40,40,0,0,0,10.57-8.15c3.55-3.59,4.43-6.39,5.22-11.31l2.14-.92a6.28,6.28,0,0,0,1.84-.94c.82-.75.64-2.06.49-3.11C37,29.81,40.2,29,43.38,28c1.94-.59,4.52-1.93,6.58-1.58.76.13,1.45.75,2.34.86,5.31.66,11.77-1.41,16.67-3.21l0,0a.46.46,0,0,0-.08.33c.85,5.17,2.67,10.25,4.37,15.19C71,43.78,72.8,48.89,74.11,53.23ZM92,33.86a75.4,75.4,0,0,0-13,3,19.43,19.43,0,0,1-5.37.4c-.25-.8-.51-1.6-.75-2.39q10.38-3.26,20.83-6.29A8,8,0,0,0,92,33.86Z"/><path d="M60.64,28.68h-.12c-7.91,1.83-15.83,3.59-23.69,5.62a.34.34,0,0,0-.17.11.71.71,0,0,0-.44.27.46.46,0,0,0-.27.12c-3.18,2.79-4.51,8.85-3.28,12.83a11.09,11.09,0,0,0,8.67,7.6.44.44,0,0,0,.41-.15,3.62,3.62,0,0,1,.13.35c.13.32.42.29.63.1,8.13-2.29,16.64-3,24.54-6.1a.53.53,0,0,0,.31-.31.62.62,0,0,0,.08-.33c-.69-7-2.37-14.11-6.16-20.12A.37.37,0,0,0,60.64,28.68ZM59.33,30l.36,1.21c-1.63.46-3.28.88-4.94,1.23-1.13.24-2.28.45-3.43.62a8,8,0,0,1-2.11.07c.09-.18.1-.4.25-.55s.4-.21.57-.37c0,0,0,0,0,0ZM55.25,51.16l-.06,0a.19.19,0,0,1-.08-.07c1-.92,3-1.28,4.13-1.62a50.69,50.69,0,0,1,5.29-1.23c-.22,1.47-4.33,1.86-5.38,2.11C57.86,50.62,56.53,50.83,55.25,51.16ZM58,44.06c1.33-.4,3.47-1.57,4.88-1.08a.42.42,0,0,0,.33,0c.15.51.3,1,.44,1.54-1.59.42-3.18.81-4.79,1.13-1,.2-2,.37-3,.53s-1.93.71-2.4-.33a1.36,1.36,0,0,1-.07-.25C54.39,44.58,56.79,44.4,58,44.06Zm6.82,4.75v0h0S64.78,48.83,64.78,48.81ZM52.34,38.65a.62.62,0,0,1-.41-.57c.71-.52,4-1.06,4.49-1.19,1.55-.4,3.1-.76,4.66-1.09h0l.33,1.12c-1.47.39-3,.74-4.45,1C56,38.11,53.48,38.9,52.34,38.65ZM49,34.18c1.78.2,4.09-.53,5.81-.86s3.44-.77,5.14-1.24c.22.75.45,1.5.68,2.24a28.6,28.6,0,0,0-8.55,2.3c-.8.33-2.82.85-2.6,2.14.38,2.25,9.4-.18,12.18-.95.33,1.11.65,2.22,1,3.33-3,.77-6.25,1.39-9,2.78-.8.41-2.38,1.22-2.21,2.39.24,1.74,2.9,1,3.91.81a78.28,78.28,0,0,0,8.45-1.78c.19.69.38,1.38.56,2.07A34.73,34.73,0,0,0,57,49.18c-1.29.46-2.71.9-3.23,2.22a4.2,4.2,0,0,0-.79.22h0c-1.59.35-3.16.75-4.73,1.15s-4.58,1.65-6,.8a118.23,118.23,0,0,1-5-18.49s0,0,0-.06c3.49-.75,7-1.54,10.44-2.34C47.47,33.45,47.89,34.05,49,34.18Zm-12.4.76,0,0s0,0,0,0A.13.13,0,0,0,36.62,34.94Zm6.66,19.48h0l-.06,0Zm-7.4-18.35c.62,1.86,1.22,3.73,1.86,5.58q.88,4,2.11,7.88v0c.12.54.21,1.13.38,1.67.11.7.23,1.41.35,2.12a24.58,24.58,0,0,1-3.41-2,16.07,16.07,0,0,1-3-2.61c-.17-.34-.33-.69-.47-1A13,13,0,0,1,35.88,36.07ZM66.24,47.26a1,1,0,0,0-.15.2.78.78,0,0,1-.48.09H65.5c-.91-3.45-1.87-6.89-2.91-10.31a.48.48,0,0,0-.11-.35q-1-3.32-2.12-6.57l.15-.07a.78.78,0,0,1,.52.08.17.17,0,0,0,.12,0A57.56,57.56,0,0,1,66.24,47.26Z"/></g><path class="cls-7" d="M7.41,52.36s9,1.25,11,3,5.72,4.13,6.58,6.7,4.12,9.78,4.12,9.78-5.68,1.67-6,9.77,1.62,15.55.94,18.11-11,6.29-11,6.29-12,1.87-12.2-1.47.33-6.73.23-8-.47-12.83,0-15.49,3.79-14.3,5.3-17.24.35-11.2.35-11.2Z"/><path class="cls-6" d="M110.84,4.14s-.23-1.72-1.82-1.66-6.53,2.69-6.53,2.69a67.77,67.77,0,0,1,6.62-1.93A1.66,1.66,0,0,1,110.84,4.14Z"/><polygon class="cls-6" points="114.41 8.5 66.11 21.44 115.24 10.03 114.41 8.5"/><polygon class="cls-6" points="86.08 27.37 69.05 32.22 85.92 28.75 86.08 27.37"/><path class="cls-6" d="M54.6,29.65s-8.23,2.54-10.4,2-2.33-1.32-2.33-1.32.22,1.77,2.79,1.83S54.6,29.65,54.6,29.65Z"/><path class="cls-6" d="M55.83,35.66s-6.68,1.87-9.12,1.69-2.77-1.71-2.77-1.71.35,2.44,3.47,2.32S55.83,35.66,55.83,35.66Z"/><path class="cls-6" d="M58.1,43.15s-9,2.08-10.67,1.69a1.81,1.81,0,0,1-1.52-2,2.15,2.15,0,0,0,2.28,2.59C51,45.55,58.1,43.15,58.1,43.15Z"/><path class="cls-6" d="M56.11,24s-6.73,1.67-9.27.87-2.68-1-5.36-.22L29.82,28.05s12.11-2.94,13.91-2.89,1.63,1.14,5.72.63A23.46,23.46,0,0,0,56.11,24Z"/><path class="cls-6" d="M12.56,35.88a25.37,25.37,0,0,1,4.83-1.16,10.62,10.62,0,0,1,4.13.36,22.94,22.94,0,0,0-4.37.18Z"/><path class="cls-6" d="M20.43,54.17a10.5,10.5,0,0,1,3.37-.81c1,.12,2,1.56,2,1.56a2.63,2.63,0,0,0-2.26-2A3.75,3.75,0,0,0,20.43,54.17Z"/><path class="cls-6" d="M20.79,56.23a3.53,3.53,0,0,1,1.8-1,1.92,1.92,0,0,1,1.45.47s-.35-.28-1.55-.07A3.54,3.54,0,0,0,20.79,56.23Z"/><path class="cls-6" d="M24.63,36.87S24,40,20.21,43.78a63.53,63.53,0,0,1-6.16,5.45,20,20,0,0,0,7.14-5.51A23.06,23.06,0,0,0,24.63,36.87Z"/><path class="cls-6" d="M63.08,23.13,67,35.61a10.37,10.37,0,0,0-.82,4.57,44.15,44.15,0,0,0,1.3,8.74s-2-5.75-2.12-9.5.38-4.34.38-4.34Z"/><path class="cls-6" d="M30.39,35.45A10.27,10.27,0,0,0,29,41.23c.05,3.79,1.87,5.44,1.87,5.44a12.24,12.24,0,0,1-1.29-5.6A22.55,22.55,0,0,1,30.39,35.45Z"/><path class="cls-6" d="M42.4,55.84s8.54-2.75,12.15-1.12,4.38,4.21,4.38,4.21-1-4.09-4.61-5.31S42.4,55.84,42.4,55.84Z"/><path class="cls-6" d="M41.85,64.65s2.22,2.56,3.81,3.14a7.44,7.44,0,0,0,3.25.35A10.41,10.41,0,0,1,45.06,67C43.52,66,41.85,64.65,41.85,64.65Z"/><path class="cls-6" d="M27.66,65.81s1.39,3.66,2.13,3.88,2.32-.18,3.76.28a7.27,7.27,0,0,1,2.25,1.11,5.77,5.77,0,0,0-3.23-2c-1.94-.32-1.9.51-3-.57A15.15,15.15,0,0,1,27.66,65.81Z"/><path class="cls-6" d="M11.92,55.24A16.29,16.29,0,0,1,21,60.44a27.34,27.34,0,0,1,5,9.29s-3.31-6.34-6.65-9.5A30.23,30.23,0,0,0,11.92,55.24Z"/><path class="cls-6" d="M4.34,74.48a31.12,31.12,0,0,0-1.78,11c.19,5.87.74,7.29.52,11.09s-.37,6-.37,6a48.64,48.64,0,0,0,1.13-8.69c.28-5.38-1.22-6.91-.51-12.11S4.34,74.48,4.34,74.48Z"/><path class="cls-6" d="M118.8,11.61A10.94,10.94,0,0,0,115,6.73c-1.46-1.06-3.58-5.45-3.58-5.45L110.23.82l-8.67,3-2,6.92-33.12,9L59,22.26s-6.64,1.28-9.27,1.53A14,14,0,0,1,44,22.69l-15.7,4.7s.79,2-.07,2.62-4.31,2.23-4.31,2.23L23.2,34.5S21.64,33,20.72,32.87s-9.91,2.27-9.91,2.27l.55,3.16a29.46,29.46,0,0,1,5.11,0c2.54.25,3.92,3.06,3.92,3.06s-1.73,2.1-3.75,4.08-8.8,6.41-8.8,6.41c.23.93,5.58,1.55,7.56,2.4a26.16,26.16,0,0,1,7.89,6c2.3,2.66,5.27,10.86,5.27,10.86a21.27,21.27,0,0,1,4.61.11c1.15.36,4.22,3.3,8.28,4.55s9.91-1.58,14.94-4.81,5.14-13.49,6-16.44,7.33-3.87,7.33-3.87-1.33-4.89-2-8.06A11.13,11.13,0,0,1,68.88,36l18.58-4.84a23,23,0,0,1,.44-3c.34-1.53,2.59-3.72,2.59-3.72l28-8.09A5.64,5.64,0,0,0,118.8,11.61ZM57.25,65.12c-1.65,1.44-4.69,5.29-8.9,6.71s-8.43,1.89-10.32-.2a12.51,12.51,0,0,1-2.54-5.07l1.1-3.34s2.1.82,3.63,1.63,3.81,4.26,6.63,4.46,4-1.09,4-1.09A10.3,10.3,0,0,1,46,65.28c-1.85-2.2-1.29-7.17.11-9.07,0,0,6.79-1.8,9.78.86S58.91,63.68,57.25,65.12Z"/><path d="M44,56.13a.39.39,0,0,0-.23.18c-4.39,1.6-9.22,6.53-8.45,11.49,1,6.66,9.58,6.2,14.24,4.11,4.45-2,10.53-6.32,8.92-12C56.77,53.82,48.55,55.18,44,56.13Zm1.26,1.12v0h0Zm-2.8.8-.29.13.25-.14Zm-4.68,5.12a2,2,0,0,0-.05.26h-.06A2.72,2.72,0,0,1,37.77,63.17Zm1.31-2A12.42,12.42,0,0,1,45,57.89a6.81,6.81,0,0,0-.57,5.55,7.23,7.23,0,0,0,2.32,3.24c.93.72,2.46,1,3.45,1.69a5.94,5.94,0,0,1-5.1-.25,26.69,26.69,0,0,1-3.5-2.78,8.7,8.7,0,0,0-3.54-1.85A7.84,7.84,0,0,1,39.08,61.22Zm12,8.72c-3.5,2-10,4-13.37.32a5.39,5.39,0,0,1-1-5.89c3.39,0,5.19,3.13,7.93,4.64,2.19,1.21,4.33.83,6.56-.05a.5.5,0,0,0,.23-.78c-1.11-1.44-3.22-1.38-4.56-2.68-2.63-2.54-2.29-6.37.09-8.9a.47.47,0,0,0,.1-.16c2.9-.44,6.12-.66,8.38.89C61.62,61.6,54.76,67.84,51,69.94Z"/><path d="M115.87,6.64a.26.26,0,0,0-.18-.06.44.44,0,0,0-.34-.26,9.75,9.75,0,0,1-3.6-5.95.48.48,0,0,0-.61-.35C109.05.7,107,1.37,104.89,2.1c-1.19.42-3.11.71-4.08,1.65-.24.23-.15.54-.3.81s.13.42.1.56c-.8,3.07-.72,4.88-4,6.2l-.09.07C85.78,14.23,75,17,64.34,20.13a.39.39,0,0,0-.23.18.3.3,0,0,0-.31,0A49.79,49.79,0,0,1,53.11,23a20.79,20.79,0,0,1-5.1.33c-1.15-.15-2.17-1.09-3.16-1.21-2.07-.25-4.75,1.34-6.67,1.93q-5,1.53-10.09,2.83a.45.45,0,0,0-.23.7,11.56,11.56,0,0,1,0,1.44c-.1.84-.4,1-1.12,1.32-1,.42-1.95.8-2.92,1.23a.66.66,0,0,0-.37.71c-.12.49-.22,1-.32,1.49-1.22-1.43-1.82-1.59-3.9-1.19-2.88.55-5.73,1.24-8.56,2a.61.61,0,0,0-.36.87,20.56,20.56,0,0,0,.55,3,.45.45,0,0,0,.47.37c3.15-.48,6.68-.42,8.44,2.62-.65.7-1.34,1.37-2,2A49.11,49.11,0,0,1,6.72,51.91h0c-.28,0-.43.34-.34.57a.54.54,0,0,0-.08.36C8.17,64,1,73.61.15,84.57c-.43,5.41.71,10.76,0,16.14-.38,2.91-.4,6.17,3,7.08,3.84,1,9.28-1,13-2,3.11-.83,7.6-1.65,9-5,1.21-2.93-.29-7-.76-9.9-.95-6-1.79-15.39,5.06-18.38a.48.48,0,0,0,.21-.19c4.18-1.57,5.84,1.07,9,3a8.08,8.08,0,0,0,5.12,1.06c4.09-.29,8.39-1.4,11.66-3.94a17.19,17.19,0,0,0,5.9-8.53,24.78,24.78,0,0,0,.7-5.43c.38-5.06,3.18-6.33,7.68-7.34a.59.59,0,0,0,.61-.74C69,46.16,67,41.07,69.05,36.8a.52.52,0,0,0,.19-.2c6-2,12.19-3.34,18.31-5a.4.4,0,0,0,.24-.25A.62.62,0,0,0,88,31a10.24,10.24,0,0,1,.81-3.65A9.83,9.83,0,0,1,90.62,25c9.21-2.64,18.46-5.14,27.77-7.44a.5.5,0,0,0,.65-.2C121.37,14,118.75,8.85,115.87,6.64Zm-1.9,0,0,0-.1,0ZM101.58,5.26c.51-1.44,7.28-4.38,8.9-3.56.88.44,1,1.75,1.53,2.61a8,8,0,0,0,1.07,1.42c-4.18.76-8,2.93-12.32,2.93C101.24,7.53,101.14,6.5,101.58,5.26Zm13.77,2.15.07,0c1.89,2.25,3.94,5.15,3.3,8.11-8.84,2.26-17.85,4.54-26.56,7.2-3.79,1.16-7.55,2.32-11.35,3.45-4.28,1.26-9.24,4.2-13.74,3-.78-2.68-1.54-5.37-2.36-8a.45.45,0,0,0-.1-.17C81.57,16.58,98.49,12.15,115.35,7.41ZM64.17,20.89ZM68.8,34.76v0l0,0ZM115,17.34l.26,0-.77.2ZM20.11,39.47a.17.17,0,0,0-.12-.06l.27-.18A1.2,1.2,0,0,0,20.11,39.47Zm-8.36-1.75a21.26,21.26,0,0,0-.56-2.08c3.16-.88,8-2.9,11.07-1.27a6.17,6.17,0,0,1-.57,2.44c-.5,1-1.26,1.36-2,2.08a1.38,1.38,0,0,0-.23.27C17.45,37.46,14.36,37.36,11.75,37.72ZM1.34,92.55A48.65,48.65,0,0,1,2.41,77.43c2.05-8.56,6.53-15.57,4.86-24.65,4.54.71,9,1.76,12.65,4.72,3.94,3.16,6,8.11,7.8,12.79a5.76,5.76,0,0,1-.57,2c-4,2.69-5,8-5,12.61a49,49,0,0,0,.38,5.8c.24,2.06,1.12,4.8.66,6.84-.76,3.38-3.29,5.26-6.3,6.51-5.27,1.82-13,3.71-15.83-.27a13.14,13.14,0,0,1,.35-3.72A36.86,36.86,0,0,0,1.34,92.55Zm.77,13.29.14.11h0A1.36,1.36,0,0,1,2.11,105.84Zm22.06-7.65a1.89,1.89,0,0,0,0-.23,2.28,2.28,0,0,1,0,.26ZM23.45,79v0a2.17,2.17,0,0,0,.07-.24Zm-.2.79c0-.06,0-.13,0-.2S23.26,79.76,23.25,79.82Zm4.81-8.63a1.42,1.42,0,0,0-.12.25c0-.12.06-.23.08-.35Zm-.18.45a1.46,1.46,0,0,1,0,.22l-.08,0,.12-.32A.18.18,0,0,0,27.88,71.64Zm-3.27-15.2A4.32,4.32,0,0,1,23,58.9h0a17.68,17.68,0,0,0-2.36-2.3c-.11-.09-.23-.16-.35-.25a2.68,2.68,0,0,1,.81-1c1.3-.62,2.89-1,3.48.41,0,0,0,.1,0,.15S24.6,56.27,24.61,56.44Zm-4.7-.32.07-.07a.73.73,0,0,0-.05.09ZM24.07,99a4.07,4.07,0,0,0,0-.5l.06,0C24.13,98.72,24.11,98.88,24.07,99Zm45-48.81c-3.07.6-6.4,1.62-7.68,4.77-.66,1.64-.36,3.45-.47,5.17A15.61,15.61,0,0,1,51,73.71c-3,1.11-8.11,2.38-11.17.88-1.85-.9-3-2.82-5-3.58a6.41,6.41,0,0,0-2.54-.45s0-.08-.09-.08a11.41,11.41,0,0,0-2.61-.09,2.84,2.84,0,0,1-.85-.43,51.68,51.68,0,0,0-2.17-5.35C26,62.75,25.38,60.93,25,59a4.12,4.12,0,0,0,.17-4.15c-1.06-1.68-3.22-1-4.81-.13a.06.06,0,0,0-.05,0,31.55,31.55,0,0,1-6.19-1.56h0A27,27,0,0,0,8.5,52a40,40,0,0,0,10.57-8.15c3.55-3.59,4.43-6.39,5.22-11.31l2.14-.92a6.28,6.28,0,0,0,1.84-.94c.82-.75.64-2.06.49-3.11C32,26.81,35.2,26,38.38,25c1.94-.59,4.52-1.93,6.58-1.58.76.13,1.45.75,2.34.86,5.31.66,11.77-1.41,16.67-3.21l0,0a.46.46,0,0,0-.08.33c.85,5.17,2.67,10.25,4.37,15.19C66,40.78,67.8,45.89,69.11,50.23ZM87,30.86a75.4,75.4,0,0,0-13,3,19.43,19.43,0,0,1-5.37.4c-.25-.8-.51-1.6-.75-2.39q10.38-3.25,20.83-6.29A8,8,0,0,0,87,30.86Z"/><path d="M55.64,25.68h-.12c-7.91,1.83-15.83,3.59-23.69,5.62a.34.34,0,0,0-.17.11.71.71,0,0,0-.44.27.46.46,0,0,0-.27.12c-3.18,2.79-4.51,8.85-3.28,12.83a11.09,11.09,0,0,0,8.67,7.6.44.44,0,0,0,.41-.15,3.62,3.62,0,0,1,.13.35c.13.32.42.29.63.1,8.13-2.29,16.64-3,24.54-6.1a.53.53,0,0,0,.31-.31.62.62,0,0,0,.08-.33c-.69-7-2.37-14.11-6.16-20.12A.37.37,0,0,0,55.64,25.68ZM54.33,27l.36,1.21c-1.63.46-3.28.88-4.94,1.23-1.13.24-2.28.45-3.43.62a8,8,0,0,1-2.11.07c.09-.18.1-.4.25-.55s.4-.21.57-.37c0,0,0,0,0,0ZM50.25,48.16l-.06,0a.19.19,0,0,1-.08-.07c1-.92,3-1.28,4.13-1.62a50.69,50.69,0,0,1,5.29-1.23c-.22,1.47-4.33,1.86-5.38,2.11C52.86,47.62,51.53,47.83,50.25,48.16ZM53,41.06c1.33-.4,3.47-1.57,4.88-1.08a.42.42,0,0,0,.33,0c.15.51.3,1,.44,1.54-1.59.42-3.18.81-4.79,1.13-1,.2-2,.37-3,.53s-1.93.71-2.4-.33a1.36,1.36,0,0,1-.07-.25C49.39,41.58,51.79,41.4,53,41.06Zm6.82,4.75v0h0S59.78,45.83,59.78,45.81ZM47.34,35.65a.62.62,0,0,1-.41-.57c.71-.52,4-1.06,4.49-1.19,1.55-.4,3.1-.76,4.66-1.09h0l.33,1.12c-1.47.39-3,.74-4.45,1C51,35.11,48.48,35.9,47.34,35.65ZM44,31.18c1.78.2,4.09-.53,5.81-.86s3.44-.77,5.14-1.24c.22.75.45,1.5.68,2.24a28.6,28.6,0,0,0-8.55,2.3c-.8.33-2.82.85-2.6,2.14.38,2.25,9.4-.18,12.18-.95.33,1.11.65,2.22,1,3.33-3,.77-6.25,1.39-9,2.78-.8.41-2.38,1.22-2.21,2.39.24,1.74,2.9,1,3.91.81a78.28,78.28,0,0,0,8.45-1.78c.19.69.38,1.38.56,2.07A34.73,34.73,0,0,0,52,46.18c-1.29.46-2.71.9-3.23,2.22a4.2,4.2,0,0,0-.79.22h0c-1.59.35-3.16.75-4.73,1.15s-4.58,1.65-6,.8a118.23,118.23,0,0,1-5-18.49s0,0,0-.06c3.49-.75,7-1.54,10.44-2.34C42.47,30.45,42.89,31.05,44,31.18Zm-12.4.76,0,0,0,0A.13.13,0,0,0,31.62,31.94Zm6.66,19.48h0l-.06,0Zm-7.4-18.35c.62,1.86,1.22,3.73,1.86,5.58q.88,4,2.11,7.88v0c.12.54.21,1.13.38,1.67.11.7.23,1.41.35,2.12a24.58,24.58,0,0,1-3.41-2,16.07,16.07,0,0,1-3-2.61c-.17-.34-.33-.69-.47-1A13,13,0,0,1,30.88,33.07ZM61.24,44.26a1,1,0,0,0-.15.2.78.78,0,0,1-.48.09H60.5c-.91-3.45-1.87-6.89-2.91-10.31a.48.48,0,0,0-.11-.35q-1-3.32-2.12-6.57l.15-.07a.78.78,0,0,1,.52.08.17.17,0,0,0,.12,0A57.56,57.56,0,0,1,61.24,44.26Z"/></g></g></g></svg>