<svg xmlns="http://www.w3.org/2000/svg" viewBox="0 0 207.67 160.74"><defs><style>.cls-1{fill:#ececec;}.cls-2{fill:#fafafa;}.cls-3{fill:#e1e1e1;}.cls-4{fill:#fff;}.cls-5{fill:#10100c;}.cls-6{fill:#1a2e35;}.cls-7{opacity:0.3;}.cls-8{fill:#ffb554;}.cls-9{fill:#375a64;}</style></defs><title>img02</title><g id="Capa_2" data-name="Capa 2"><g id="IMG02"><polygon class="cls-1" points="163.84 129.74 168.55 160.71 195.93 160.71 202.29 130.18 163.84 129.74"/><path class="cls-2" d="M198.46,149.59c0,.08-7,.16-15.67.16s-15.67-.08-15.67-.16,7-.16,15.67-.16S198.46,149.5,198.46,149.59Z"/><path class="cls-2" d="M198.57,148.06c0,.09-7.07.16-15.78.16s-15.78-.07-15.78-.16,7.06-.16,15.78-.16S198.57,148,198.57,148.06Z"/><path class="cls-2" d="M198.51,146.34c0,.09-7.06.16-15.77.16s-15.78-.07-15.78-.16,7.06-.16,15.78-.16S198.51,146.25,198.51,146.34Z"/><path class="cls-2" d="M171.7,158.94a23.52,23.52,0,0,1-.84-3.9,24.6,24.6,0,0,1-.53-3.95,23.52,23.52,0,0,1,.84,3.9A26,26,0,0,1,171.7,158.94Z"/><path class="cls-2" d="M173.56,158.61a29.36,29.36,0,0,1-.34-3.8A30.86,30.86,0,0,1,173,151a18,18,0,0,1,.5,3.8A19.34,19.34,0,0,1,173.56,158.61Z"/><path class="cls-2" d="M177,158.61a19.17,19.17,0,0,1-.71-3.9,19.42,19.42,0,0,1-.21-4,35.44,35.44,0,0,1,.53,3.92A34.53,34.53,0,0,1,177,158.61Z"/><path class="cls-2" d="M179.34,158.78a19.25,19.25,0,0,1-.38-4,18.61,18.61,0,0,1,.12-4,33.61,33.61,0,0,1,.2,4A34.56,34.56,0,0,1,179.34,158.78Z"/><path class="cls-2" d="M183.56,158.61a21.79,21.79,0,0,1-.29-3.76,22.29,22.29,0,0,1,0-3.77,21.79,21.79,0,0,1,.29,3.76A23.63,23.63,0,0,1,183.56,158.61Z"/><path class="cls-2" d="M186.64,158.78a23.25,23.25,0,0,1-.13-3.9,24,24,0,0,1,.19-3.89,23.25,23.25,0,0,1,.13,3.9A24,24,0,0,1,186.64,158.78Z"/><path class="cls-2" d="M189.53,158.36a25.06,25.06,0,0,1,.23-4.07,27.91,27.91,0,0,1,.55-4,25.06,25.06,0,0,1-.23,4.07A27.91,27.91,0,0,1,189.53,158.36Z"/><path class="cls-2" d="M193.25,158a14.15,14.15,0,0,1,.46-3.46,13.79,13.79,0,0,1,1-3.34,31.1,31.1,0,0,1-.7,3.41A30.6,30.6,0,0,1,193.25,158Z"/><path class="cls-1" d="M190.62,68.61a1,1,0,0,1,0,.16c0,.11-.07.26-.13.43-.12.41-.3,1-.52,1.68s-.51,1.61-.8,2.65-.66,2.21-1,3.53-.72,2.75-1.07,4.31-.69,3.23-1,5c-.66,3.53-1.26,7.44-1.68,11.56s-.58,8.07-.64,11.66c0,1.8,0,3.51.05,5.1s.11,3.09.19,4.44.19,2.58.27,3.66.18,2,.27,2.76.13,1.31.18,1.74c0,.18,0,.33,0,.45s0,.16,0,.16,0,0,0-.15,0-.27-.08-.45q-.08-.65-.24-1.74c-.1-.75-.22-1.68-.31-2.75s-.25-2.3-.32-3.66-.2-2.85-.24-4.45-.07-3.31-.08-5.11c0-3.6.22-7.56.62-11.69s1-8,1.71-11.59c.36-1.76.69-3.44,1.09-5s.74-3,1.1-4.31.73-2.49,1-3.53.6-1.91.85-2.63.44-1.25.58-1.66c.07-.17.12-.31.16-.42S190.61,68.61,190.62,68.61Z"/><path class="cls-1" d="M185.67,87.79a10.17,10.17,0,0,1,4.26-5.37,2.45,2.45,0,0,1,2.25-.42c1,.46,1,1.81.75,2.83a7.51,7.51,0,0,1-3.1,4.23,6.32,6.32,0,0,1-4.65,1.17"/><path class="cls-1" d="M184,100.74c.71-2.67,2.84-6.47,5.05-8.12a3.3,3.3,0,0,1,1.15-.62,1.35,1.35,0,0,1,1.23.27,1.89,1.89,0,0,1,.28,1.77,10.8,10.8,0,0,1-8,8"/><path class="cls-1" d="M183.55,112.15a15.7,15.7,0,0,1,5.1-6.42,2.42,2.42,0,0,1,1.78-.63c1,.17,1.41,1.36,1.32,2.33-.18,2-1.72,3.64-3.31,4.89a20.55,20.55,0,0,1-4.71,2.43"/><path class="cls-1" d="M183.81,120.34a15,15,0,0,1,4.34-4.94,3,3,0,0,1,1.3-.58,1.34,1.34,0,0,1,1.28.48c.43.64,0,1.51-.45,2.12a12.37,12.37,0,0,1-6.19,4.54"/><path class="cls-1" d="M183.59,117a48.09,48.09,0,0,0-6.2-6.32,1.4,1.4,0,0,0-1.24-.47.94.94,0,0,0-.57.84,2.35,2.35,0,0,0,.24,1,12,12,0,0,0,8,6.72"/><path class="cls-1" d="M183.79,106.35c-1.62-2-3.25-4-4.87-5.95a6.25,6.25,0,0,0-1.58-1.5,2,2,0,0,0-2.08,0,2,2,0,0,0-.67,2,5.06,5.06,0,0,0,.95,2,14.53,14.53,0,0,0,3.55,3.78,6,6,0,0,0,4.45,1.37"/><path class="cls-1" d="M184.47,94.34A17,17,0,0,0,179.56,87a2.85,2.85,0,0,0-1.27-.75,2.16,2.16,0,0,0-2.24,1.57A4,4,0,0,0,176.5,91a8.37,8.37,0,0,0,2.29,2.42,19.62,19.62,0,0,0,5.42,2.93"/><path class="cls-1" d="M186.42,83.63c-.48-3.44-2.27-6.31-4.35-9.09-.43-.59-1-1.22-1.77-1.11a1.45,1.45,0,0,0-1,.88,3.38,3.38,0,0,0-.19,1.38,10.63,10.63,0,0,0,6.91,9.5"/><path class="cls-1" d="M187.78,78.17a28.81,28.81,0,0,1-.18-5.33,9.64,9.64,0,0,1,1.77-5,4.05,4.05,0,0,1,1.77-1.41,2.24,2.24,0,0,1,2.17.29,2.36,2.36,0,0,1,.75,1.91,6.06,6.06,0,0,1-.55,2c-1.3,3.12-3.47,6.58-5.73,7.46"/><path class="cls-3" d="M166.55,82.27a2.12,2.12,0,0,1,0,.44c0,.32,0,.73,0,1.25s0,1.21,0,2,0,1.64.09,2.61c.09,1.94.28,4.24.57,6.79s.75,5.33,1.35,8.23,1.34,5.62,2.07,8.07,1.51,4.64,2.21,6.44c.33.92.68,1.72,1,2.44s.55,1.32.77,1.82.36.86.49,1.15a2.38,2.38,0,0,1,.15.41,2.3,2.3,0,0,1-.21-.38l-.55-1.13c-.23-.49-.51-1.09-.81-1.8s-.67-1.51-1-2.42c-.73-1.81-1.51-4-2.28-6.44s-1.49-5.19-2.11-8.1-1-5.7-1.32-8.26-.45-4.86-.5-6.81c-.05-1,0-1.85-.05-2.62s0-1.44,0-2,0-.93,0-1.25A1.89,1.89,0,0,1,166.55,82.27Z"/><path class="cls-3" d="M167.31,96.39a7.25,7.25,0,0,1,1.74-4.57,1.75,1.75,0,0,1,1.45-.77c.75.11,1.09,1,1.11,1.77a5.32,5.32,0,0,1-1.2,3.54,4.54,4.54,0,0,1-2.91,1.8"/><path class="cls-3" d="M169,105.57A12.19,12.19,0,0,1,170.66,99a2.31,2.31,0,0,1,.65-.67.94.94,0,0,1,.89-.08,1.35,1.35,0,0,1,.57,1.15,7.68,7.68,0,0,1-3.71,7.19"/><path class="cls-3" d="M171.11,113.43A11.07,11.07,0,0,1,173.2,108a1.73,1.73,0,0,1,1.07-.82c.7-.09,1.25.62,1.41,1.31a5.43,5.43,0,0,1-1.2,4,14.94,14.94,0,0,1-2.69,2.66"/><path class="cls-3" d="M173.05,119a10.69,10.69,0,0,1,1.89-4.29,2.25,2.25,0,0,1,.76-.68.92.92,0,0,1,1,.06c.44.34.34,1,.16,1.53a8.86,8.86,0,0,1-3.24,4.43"/><path class="cls-3" d="M172.18,116.73a34.23,34.23,0,0,0-5.58-3,1,1,0,0,0-.94-.06.66.66,0,0,0-.21.69,1.75,1.75,0,0,0,.38.66,8.61,8.61,0,0,0,6.89,2.86"/><path class="cls-3" d="M170,109.43l-4.59-3a4.43,4.43,0,0,0-1.4-.68,1.46,1.46,0,0,0-1.43.43,1.43,1.43,0,0,0,0,1.48,3.84,3.84,0,0,0,1.07,1.13,10.29,10.29,0,0,0,3.23,1.8,4.27,4.27,0,0,0,3.33,0"/><path class="cls-3" d="M167.9,101.11a12.2,12.2,0,0,0-4.92-4,2.1,2.1,0,0,0-1-.23,1.53,1.53,0,0,0-1.19,1.55,2.88,2.88,0,0,0,1,2.1,6.09,6.09,0,0,0,2.08,1.16,13.84,13.84,0,0,0,4.32.82"/><path class="cls-3" d="M166.92,93.4A14.22,14.22,0,0,0,162,88.14c-.43-.3-1-.6-1.45-.37a1,1,0,0,0-.5.82,2.38,2.38,0,0,0,.16,1,7.6,7.6,0,0,0,6.75,5"/><path class="cls-3" d="M166.67,89.39a21,21,0,0,1-1.26-3.59,6.86,6.86,0,0,1,.13-3.76,3,3,0,0,1,.9-1.34,1.6,1.6,0,0,1,1.54-.27,1.66,1.66,0,0,1,.92,1.14,4.49,4.49,0,0,1,.07,1.51c-.21,2.4-.95,5.22-2.3,6.31"/><path class="cls-1" d="M201.17,82a3,3,0,0,1,0,.44c0,.32,0,.73,0,1.25s0,1.21,0,2,0,1.65-.05,2.62c-.06,1.95-.22,4.26-.5,6.81s-.73,5.35-1.33,8.26-1.35,5.64-2.1,8.1-1.55,4.63-2.28,6.44c-.34.91-.71,1.71-1,2.42s-.58,1.31-.82,1.8l-.54,1.13a2.3,2.3,0,0,1-.21.38,2.07,2.07,0,0,1,.15-.41c.12-.29.29-.67.49-1.15s.48-1.11.76-1.82.64-1.52,1-2.44c.7-1.8,1.45-4,2.21-6.44s1.45-5.18,2.07-8.08,1-5.68,1.35-8.22.48-4.85.56-6.79c.07-1,.07-1.84.1-2.61s0-1.44,0-2,0-.93,0-1.25A2.5,2.5,0,0,1,201.17,82Z"/><path class="cls-1" d="M200.41,96.09a7.26,7.26,0,0,0-1.75-4.57,1.75,1.75,0,0,0-1.44-.77c-.75.11-1.09,1-1.12,1.77a5.37,5.37,0,0,0,1.2,3.54,4.57,4.57,0,0,0,2.92,1.8"/><path class="cls-1" d="M198.75,105.27a12.28,12.28,0,0,0-1.69-6.62,2.31,2.31,0,0,0-.65-.67,1,1,0,0,0-.9-.08,1.37,1.37,0,0,0-.57,1.15,7.7,7.7,0,0,0,3.71,7.19"/><path class="cls-1" d="M196.61,113.13a11.27,11.27,0,0,0-2.09-5.46,1.75,1.75,0,0,0-1.08-.82c-.69-.09-1.25.62-1.4,1.31a5.43,5.43,0,0,0,1.2,4,14.6,14.6,0,0,0,2.69,2.66"/><path class="cls-1" d="M194.67,118.65a10.83,10.83,0,0,0-1.89-4.29,2.25,2.25,0,0,0-.76-.68.93.93,0,0,0-1,.06c-.43.34-.33,1-.15,1.53a8.8,8.8,0,0,0,3.24,4.43"/><path class="cls-1" d="M195.53,116.43a34.74,34.74,0,0,1,5.59-3,1,1,0,0,1,.94-.06.66.66,0,0,1,.21.69,1.65,1.65,0,0,1-.39.66,8.59,8.59,0,0,1-6.88,2.86"/><path class="cls-1" d="M197.69,109.13l4.6-3a4.43,4.43,0,0,1,1.4-.68,1.45,1.45,0,0,1,1.42.43,1.39,1.39,0,0,1,0,1.48,3.6,3.6,0,0,1-1.07,1.13,10.18,10.18,0,0,1-3.23,1.8,4.25,4.25,0,0,1-3.32,0"/><path class="cls-1" d="M199.82,100.81a12.2,12.2,0,0,1,4.92-4,2.1,2.1,0,0,1,1-.23A1.54,1.54,0,0,1,207,98.17a2.88,2.88,0,0,1-1,2.1,6.09,6.09,0,0,1-2.08,1.16,13.9,13.9,0,0,1-4.33.82"/><path class="cls-1" d="M200.79,93.1a14.25,14.25,0,0,1,4.92-5.26c.42-.3,1-.6,1.44-.37a1,1,0,0,1,.51.82,2.39,2.39,0,0,1-.17,1,7.58,7.58,0,0,1-6.74,5"/><path class="cls-1" d="M201,89.09a20.17,20.17,0,0,0,1.27-3.59,6.77,6.77,0,0,0-.14-3.76,2.81,2.81,0,0,0-.9-1.34,1.6,1.6,0,0,0-1.54-.27,1.69,1.69,0,0,0-.92,1.14,4.49,4.49,0,0,0-.06,1.51c.21,2.4.94,5.22,2.29,6.31"/><path class="cls-1" d="M160.69,123.6v5.8a2.29,2.29,0,0,0,2.29,2.28h39.65a2.28,2.28,0,0,0,2.28-2.28v-5.8Z"/><polygon class="cls-3" points="164.13 131.68 164.46 133.52 201.05 136.13 201.98 131.68 164.13 131.68"/><path class="cls-4" d="M73.51,15.48l26.25-1.6a4.82,4.82,0,0,1,5.58,3.34L119.88,71a17.3,17.3,0,0,1-.7,11.09l-1.52,3.7c-3.47,8.45-14.58,10.77-20.85,4.13a6,6,0,0,1-1-1.24,10.15,10.15,0,0,1-.57-1.15l-1.92-5.1c-1.56-4.71-2.94-9.56-2.93-9.52s-10.5,1.53-16.72-10.83c-3.09-6.15-6.15-16.86-8.37-25.71C63.34,28.37,65.46,17.14,73.51,15.48Z"/><path class="cls-5" d="M105.76,94a12.51,12.51,0,0,1-9.12-3.92,6,6,0,0,1-1-1.3c-.09-.18-.17-.33-.25-.47a3.85,3.85,0,0,1-.33-.71l-1.92-5.09c-1.27-3.82-2.42-7.75-2.88-9.35-1.6.14-11,.39-16.76-11-3.17-6.31-6.31-17.49-8.38-25.76C63.68,30.67,64.47,24,67.07,19.9a9.69,9.69,0,0,1,6.39-4.64h0l26.26-1.6a5,5,0,0,1,5.81,3.5l14.55,53.76a17.62,17.62,0,0,1-.71,11.24l-1.52,3.7a13.07,13.07,0,0,1-9.75,7.9A12.67,12.67,0,0,1,105.76,94ZM90.46,72.65c.14,0,.2.17.22.27.45,1.54,1.62,5.54,2.9,9.4l1.92,5.1a3.29,3.29,0,0,0,.3.63c.08.15.17.31.26.5A6.06,6.06,0,0,0,97,89.73a12,12,0,0,0,11.08,3.56,12.58,12.58,0,0,0,9.4-7.61L119,82A17.17,17.17,0,0,0,119.66,71L105.11,17.28a4.54,4.54,0,0,0-5.3-3.17L73.54,15.72a9.31,9.31,0,0,0-6.08,4.42c-2.54,4.05-3.3,10.53-1.89,16.14,2.06,8.24,5.19,19.39,8.35,25.67C80,74,90.29,72.67,90.4,72.65Z"/><path class="cls-5" d="M90.43,72.88a34.69,34.69,0,0,0,15.95-10.2S104.87,73.08,91.45,76Z"/><path class="cls-6" d="M85.14,30.5c.33.43,2-.38,4.24-.79s4.07-.39,4.21-.92c.06-.25-.38-.61-1.22-.86a7.12,7.12,0,0,0-3.37-.1,7.25,7.25,0,0,0-3.07,1.39C85.25,29.78,85,30.29,85.14,30.5Z"/><path class="cls-6" d="M67.64,36.25c.44.31,1.55-.51,3-1s2.83-.6,3-1.12c.06-.24-.27-.59-.94-.8A4.62,4.62,0,0,0,67.87,35C67.47,35.62,67.44,36.1,67.64,36.25Z"/><path class="cls-4" d="M109.6,36.13c2.42-1.21,7.1-2.47,9.21,4,2.89,8.85-6.6,9.92-6.7,9.68"/><path class="cls-5" d="M112.38,50.07c-.25,0-.43,0-.48-.17a.23.23,0,0,1,.13-.3.23.23,0,0,1,.2,0,8.53,8.53,0,0,0,5.46-2.47c1.54-1.7,1.84-4,.9-6.93-.76-2.33-1.92-3.83-3.44-4.47a6.77,6.77,0,0,0-5.45.6.23.23,0,0,1-.21-.41c1.52-.76,3.76-1.48,5.83-.62,1.66.7,2.91,2.29,3.71,4.75,2.09,6.42-2.29,8.78-4.27,9.49A9.71,9.71,0,0,1,112.38,50.07Z"/><path class="cls-6" d="M113.72,45.58s.19.06.49.09a1.63,1.63,0,0,0,1.16-.35c.83-.65,1.13-2.39.65-4a5.33,5.33,0,0,0-1.15-2.07,1.88,1.88,0,0,0-1.55-.81.84.84,0,0,0-.77.72c0,.29.08.45,0,.48s-.24-.09-.29-.48a1,1,0,0,1,.17-.67,1.21,1.21,0,0,1,.78-.5,2.28,2.28,0,0,1,2.06.85,5.48,5.48,0,0,1,1.34,2.29c.52,1.81.15,3.77-1,4.56a1.74,1.74,0,0,1-1.49.23C113.81,45.79,113.7,45.6,113.72,45.58Z"/><path class="cls-6" d="M93.2,53.5c0,.14-1.43.68-3,1.75s-2.64,2.22-2.75,2.13A8.72,8.72,0,0,1,93.2,53.5Z"/><path class="cls-4" d="M103.92,130.42c-2.6-11.07-14.66-60.37-14.66-60.37L83,71.31l-3.88,7.57-6.65,2.93c-1.61.53-6.92,3.36-7.89,4.76-2.33,3.33-5.38,9.44-6.48,22.56-1.7,20.35-4.88,45,3.7,51.1l48.8.27S106.52,141.49,103.92,130.42Z"/><path class="cls-5" d="M110.57,160.73h0l-48.8-.26a.21.21,0,0,1-.13-.05c-7.85-5.56-6.06-25.74-4.33-45.24.19-2.05.37-4.08.53-6.07.85-10.2,3-17.62,6.51-22.68,1-1.45,6.37-4.3,8-4.84l6.55-2.89,3.84-7.49a.23.23,0,0,1,.16-.13l6.29-1.26a.23.23,0,0,1,.27.18c.12.49,12.1,49.42,14.67,60.36h0c2.57,10.95,6.61,29.9,6.65,30.09a.19.19,0,0,1,0,.19A.21.21,0,0,1,110.57,160.73ZM61.85,160l48.44.26c-.52-2.41-4.2-19.58-6.59-29.79C101.21,119.9,90,73.9,89.08,70.32l-6,1.2L79.29,79a.2.2,0,0,1-.11.11L72.53,82c-1.57.53-6.84,3.32-7.79,4.68-3.49,5-5.59,12.33-6.43,22.45-.17,2-.35,4-.53,6.07C56.14,133.64,54.29,154.52,61.85,160Z"/><path class="cls-4" d="M173.32,154.84c-.18.93-.44,1.84-.66,2.75-.78,3.29-3.18,2.91-3.18,2.91H148.07l-9.94-.09L99.77,160S84.63,95.17,84.62,95.16s6.9-18.93,6.9-18.93,17.46,12.14,26.92-8l-.63-5.79,12.6,6.4L149,73.72v-.11s11.28,2.49,15.25,12.48,7,38,8,45.95c.51,4,1,7.86,1.4,10.58A37.68,37.68,0,0,1,173.32,154.84Z"/><path class="cls-5" d="M169.68,160.74H148.07l-48.3-.45a.25.25,0,0,1-.23-.18c-.15-.65-15-64.29-15.15-64.88v-.06c0-.06,0-.08,6.91-19a.24.24,0,0,1,.14-.14.26.26,0,0,1,.21,0c.07,0,7.55,5.15,15.2,3.1,4.71-1.26,8.53-4.93,11.36-10.9l-.64-5.72a.26.26,0,0,1,.1-.22.23.23,0,0,1,.24,0l12.59,6.38,18.32,4.77h0a.22.22,0,0,1,.19-.05c.12,0,11.45,2.64,15.42,12.62,3.5,8.82,6.23,31.44,7.55,42.32.18,1.48.33,2.73.45,3.69.41,3.2.88,6.76,1.4,10.58a38,38,0,0,1-.29,12.3c-.13.64-.29,1.28-.45,1.91l-.21.84C172.22,160.48,170.35,160.74,169.68,160.74Zm-.2-.47c.12,0,2.24.3,3-2.74l.21-.85c.16-.61.32-1.25.44-1.88h0a37.39,37.39,0,0,0,.29-12.15c-.52-3.81-1-7.38-1.4-10.59-.12-.95-.27-2.21-.45-3.69-1.31-10.85-4.05-33.44-7.53-42.19-3.58-9-13.31-11.88-14.86-12.29h0a.25.25,0,0,1-.2,0l-18.56-4.84h-.05l-12.23-6.2.59,5.35a.19.19,0,0,1,0,.13c-2.89,6.14-6.82,9.91-11.68,11.21-7.07,1.89-14-2.13-15.34-3C89.26,83.08,84.92,95,84.84,95.23h0c.29,1,1.48,6.15,7.59,32.33L100,159.81l48.11.46Z"/><path class="cls-6" d="M150.69,144.91s0,0,0-.13l0-.37c0-.35-.06-.82-.09-1.43-.07-1.25-.17-3-.29-5.24s-.24-4.85-.39-7.77-.27-6.14-.51-9.52c-.43-6.74-.82-12.84-1.1-17.28-.13-2.2-.23-4-.31-5.24,0-.61-.05-1.08-.07-1.43a2.38,2.38,0,0,1,0-.48s.08.67.18,1.9.23,3,.39,5.24c.3,4.43.71,10.54,1.16,17.28.25,3.37.37,6.59.5,9.52s.24,5.55.34,7.78.15,4,.2,5.24c0,.6,0,1.08,0,1.43v.37C150.7,144.86,150.7,144.91,150.69,144.91Z"/><line class="cls-4" x1="95.31" y1="76.5" x2="85.84" y2="82.52"/><path class="cls-5" d="M85.84,82.75a.23.23,0,0,1-.13-.43l9.47-6a.24.24,0,0,1,.32.08.23.23,0,0,1-.07.32l-9.47,6A.19.19,0,0,1,85.84,82.75Z"/><path class="cls-4" d="M85.84,82.52c-.1,1-15.57,35.37-15.57,35.37L93.1,128l4.71-42.85a11.79,11.79,0,0,0-2.26-8.3l-.24-.32"/><path class="cls-5" d="M93.1,128.2a.15.15,0,0,1-.09,0L70.17,118.1a.22.22,0,0,1-.12-.13.28.28,0,0,1,0-.18c4.28-9.49,15.4-34.33,15.55-35.3a.24.24,0,0,1,.47.05c-.1,1-13.51,30.83-15.49,35.23l22.33,9.86L97.58,85.1A11.45,11.45,0,0,0,95.36,77l-.24-.32a.23.23,0,0,1,0-.33.23.23,0,0,1,.32,0l.24.32A12,12,0,0,1,98,85.15L93.33,128a.22.22,0,0,1-.11.18A.27.27,0,0,1,93.1,128.2Z"/><path class="cls-4" d="M71.1,116.64c-.61,1.21-12.69,23.66-12.69,25.77s13.41,16.66,13.41,16.66l12.7-.91s9.08-25.64,9.08-35.34"/><path class="cls-5" d="M71.82,159.31a.25.25,0,0,1-.17-.08c-1.38-1.5-13.47-14.68-13.47-16.82,0-1.69,6.77-14.67,11.87-24.28.46-.86.76-1.43.84-1.6a.23.23,0,0,1,.31-.1.24.24,0,0,1,.11.31l-.85,1.6c-7.84,14.8-11.81,22.9-11.81,24.07,0,1.48,7.9,10.6,13.27,16.42l12.43-.89c.73-2.08,9-25.94,9-35.12a.23.23,0,0,1,.46,0c0,9.63-9,35.16-9.09,35.41a.24.24,0,0,1-.21.16l-12.69.92Z"/><g class="cls-7"><path d="M151.23,157l-21.94-30.74-5.49,1.95c6.4,7.43,9.34,17.53,16.46,24.28a54,54,0,0,0,9,6.43c.76.46,5.23,2.31,5.77,1.6S151.67,157.61,151.23,157Z"/></g><path class="cls-4" d="M155,160.51A47.06,47.06,0,0,1,143.56,151c-6.15-6.71-11.86-14.35-11.86-14.35l-6-8.17,8.45-22.72s6.89.9,7.62,2.4a4.37,4.37,0,0,1,.36,2.84l-.43,3.82a12.9,12.9,0,0,1,2.12,5c.22,2.32-1.39,2.85-1.39,2.85a3.86,3.86,0,0,1-.2,2.71,2.17,2.17,0,0,1-1.75,1.44l13.75,10.24"/><path class="cls-5" d="M155,160.74a.2.2,0,0,1-.11,0,48.08,48.08,0,0,1-11.53-9.54c-6.07-6.64-11.81-14.29-11.86-14.37l-6-8.17a.22.22,0,0,1,0-.22l8.45-22.72a.24.24,0,0,1,.25-.15c.71.1,7,1,7.8,2.53a4.55,4.55,0,0,1,.38,3l-.42,3.7a12.7,12.7,0,0,1,2.11,5,2.8,2.8,0,0,1-1.34,3,4.11,4.11,0,0,1-.26,2.68A2.69,2.69,0,0,1,141,127l13.35,9.94a.24.24,0,1,1-.28.38L140.31,127a.24.24,0,0,1-.08-.26.22.22,0,0,1,.22-.16,2,2,0,0,0,1.54-1.31,3.66,3.66,0,0,0,.19-2.53.25.25,0,0,1,0-.19.26.26,0,0,1,.14-.11s1.43-.51,1.23-2.6a13,13,0,0,0-2.08-4.91.22.22,0,0,1,0-.16l.44-3.81a4.24,4.24,0,0,0-.34-2.72c-.49-1-4.54-1.87-7.26-2.24l-8.34,22.42,6,8.07c.06.08,5.77,7.71,11.84,14.33a47.74,47.74,0,0,0,11.39,9.45.23.23,0,0,1-.1.43Z"/><path class="cls-8" d="M115.78,100s0,.76,0,1l3.52,28.77a1.63,1.63,0,0,0,1.63,1.43H132a1.62,1.62,0,0,0,1.61-1.36l5.1-29.82Z"/><g class="cls-7"><path d="M131.78,105.05a5.24,5.24,0,0,0,1.27,3.25,16.19,16.19,0,0,0,2.62,2.41,42.63,42.63,0,0,0-8.36-.83,1.88,1.88,0,0,0-1.5.46,1.68,1.68,0,0,0,0,1.78,8.5,8.5,0,0,0,4,3.8,25.58,25.58,0,0,0,5.36,1.72,18.85,18.85,0,0,1-8.62-.92c-.72-.26-1.69-.48-2.1.16s0,1.19.36,1.69A15.28,15.28,0,0,0,132,124a4.52,4.52,0,0,1,1.33.63,1.25,1.25,0,0,1,.46,1.32,1.23,1.23,0,0,1-1.28.66,4,4,0,0,1-1.45-.53,18.62,18.62,0,0,0-6.17-1.87,13.39,13.39,0,0,0,9,7.58,2.15,2.15,0,0,0-.87-2.26,3.91,3.91,0,0,0,2.92-2.3,12,12,0,0,0,.91-3.76c.63-4.58,1.49-9.14,2.57-13.64"/></g><path class="cls-4" d="M139.93,113c-.09-.14-.13-1.26-2.09-2s-11.54-2-11.67-2a2,2,0,0,0,0,3.58c2.41,1.77,8.57,3.21,8.57,3.21l1.45,2.24L123.66,115s-1.78,2.28.32,3.73,9.52,3.81,9.52,3.81l1,1.35-.36,1.49-8.53-2.65a2,2,0,0,0-.09,2.65c1.14,1.26,6.7,3.76,6.7,3.76l1.78,1s-.91,1.81.59,2.61,1.6.66,1.6.66,3.65-2.7,3.78-4.26a6.18,6.18,0,0,0,0-2l.52-.29"/><path class="cls-5" d="M136.14,133.63a5.05,5.05,0,0,1-1.7-.7,2,2,0,0,1-.78-2.71l-1.59-.89c-.21-.09-5.6-2.52-6.76-3.8a2.22,2.22,0,0,1,.09-3,.24.24,0,0,1,.24-.06l8.29,2.58.28-1.15-.85-1.2c-.83-.27-7.5-2.44-9.51-3.82a2.39,2.39,0,0,1-1.1-1.63,3.56,3.56,0,0,1,.73-2.43.22.22,0,0,1,.24-.08l11.95,3-1.08-1.66c-.8-.2-6.27-1.55-8.56-3.23-1.29-1-1.31-1.91-1.1-2.56a2.43,2.43,0,0,1,1.24-1.45c.06,0,9.68,1.24,11.74,2,1.79.64,2.09,1.62,2.2,2l0,.08a.22.22,0,0,1-.08.31.23.23,0,0,1-.32-.08.54.54,0,0,1-.07-.17c-.1-.31-.34-1.13-1.91-1.69-1.82-.64-10.7-1.84-11.55-1.94a2.31,2.31,0,0,0-.91,1.47,1.94,1.94,0,0,0,1,1.69c2.35,1.72,8.43,3.16,8.49,3.18a.21.21,0,0,1,.14.1l1.46,2.23a.23.23,0,0,1,0,.26.21.21,0,0,1-.24.09l-12.38-3.12a3,3,0,0,0-.55,1.95,1.92,1.92,0,0,0,.9,1.31c2,1.41,9.39,3.77,9.47,3.79a.24.24,0,0,1,.11.09l1,1.35a.25.25,0,0,1,0,.19l-.37,1.49a.19.19,0,0,1-.11.14.19.19,0,0,1-.18,0l-8.37-2.6a1.71,1.71,0,0,0,0,2.23c1.1,1.2,6.57,3.67,6.63,3.69l1.79,1a.23.23,0,0,1,.1.3c0,.07-.79,1.63.49,2.3a7.78,7.78,0,0,0,1.41.64c1-.78,3.53-2.88,3.63-4a6.57,6.57,0,0,0,0-1.9.23.23,0,0,1,.11-.27l.52-.29a.22.22,0,0,1,.31.08.22.22,0,0,1-.09.32l-.37.21a8.43,8.43,0,0,1,0,1.89c-.14,1.59-3.47,4.13-3.84,4.4A.19.19,0,0,1,136.14,133.63Z"/><path class="cls-4" d="M141.57,109.16a2.06,2.06,0,0,0-1-2.56,62.2,62.2,0,0,0-6.81-1.89c-.14-.21-2,0-2,0s-.91,2,2,3.65,4,2.44,4,2.44v.51"/><path class="cls-5" d="M137.79,111.54a.23.23,0,0,1-.23-.23v-.39c-.34-.22-1.53-1-3.88-2.36-3-1.77-2.06-3.92-2.05-3.94a.22.22,0,0,1,.18-.14c1.51-.17,1.95-.08,2.1,0a58.28,58.28,0,0,1,6.8,1.89,2.22,2.22,0,0,1,1.08,2.84.25.25,0,0,1-.3.15.24.24,0,0,1-.14-.3,1.8,1.8,0,0,0-.83-2.26,60.65,60.65,0,0,0-6.78-1.88.24.24,0,0,1-.11-.06,7.25,7.25,0,0,0-1.62.05c-.13.42-.37,1.89,1.9,3.23,2.84,1.67,4,2.43,4,2.44a.26.26,0,0,1,.1.2v.51A.23.23,0,0,1,137.79,111.54Zm-4.19-6.71Z"/><g class="cls-7"><path d="M118.07,100.55,116,102a32.38,32.38,0,0,0,22-.28Z"/></g><rect class="cls-6" x="114.43" y="99.25" width="25.65" height="2.82"/><path class="cls-6" d="M116.34,99.51c.08-.26,1.14-3.4,1.14-3.4l19.6.32,1.45,3.32Z"/><path class="cls-9" d="M140.08,99.25c0,.07-5.74.12-12.82.12s-12.83-.05-12.83-.12,5.74-.12,12.83-.12S140.08,99.18,140.08,99.25Z"/><rect class="cls-9" x="118.1" y="97.42" width="7.57" height="1.05" rx="0.51"/><path class="cls-6" d="M156.29,78.84a2.94,2.94,0,0,1-.33.6c-.25.42-.57,1-1,1.6-.8,1.35-1.88,3.23-3,5.37s-2,4.11-2.6,5.56c-.29.69-.54,1.26-.73,1.71a3.65,3.65,0,0,1-.29.62,3.59,3.59,0,0,1,.2-.66c.14-.41.37-1,.66-1.74.58-1.47,1.45-3.46,2.54-5.6s2.2-4,3-5.36c.42-.66.77-1.19,1-1.55A3.45,3.45,0,0,1,156.29,78.84Z"/><path class="cls-6" d="M74.74,99a2.55,2.55,0,0,1-.32-.48c-.22-.35-.5-.8-.82-1.33-.71-1.11-1.71-2.64-2.9-4.26s-2.37-3-3.23-4l-1-1.17a2.47,2.47,0,0,1-.36-.45s.16.12.43.38.64.64,1.09,1.13a50.07,50.07,0,0,1,3.3,4,51.24,51.24,0,0,1,2.85,4.32c.33.58.59,1,.75,1.38A2.19,2.19,0,0,1,74.74,99Z"/><path class="cls-5" d="M95.35,108h-.11c0-.21,2.28-20.79,2.58-24.69s-3.26-7.9-3.3-7.94l.09-.08s3.63,4.12,3.33,8S95.37,107.82,95.35,108Z"/><path class="cls-5" d="M95.58,108.11l-.59-.06V108c0-.2,2.28-20.77,2.58-24.67.29-3.74-3.2-7.73-3.24-7.77l0,0,.44-.39,0,0c.16.17,3.71,4.19,3.39,8.21s-2.56,24.5-2.58,24.7Zm-.46-.16.36,0c.13-1.22,2.28-20.84,2.58-24.64s-2.91-7.61-3.32-8.08l-.27.24c.38.45,3.51,4.24,3.23,7.81C97.4,87.13,95.25,106.73,95.12,108Z"/><path class="cls-6" d="M169.48,160.5a1.87,1.87,0,0,1,0-.4l-.11-1.15c-.08-1-.23-2.44-.51-4.2a53.62,53.62,0,0,0-1.35-6.13c-.65-2.27-1.45-4.76-2.39-7.31a17.83,17.83,0,0,0-3.91-6.51,9.33,9.33,0,0,0-1.32-1.08,8.83,8.83,0,0,0-1.43-.74,10,10,0,0,0-2.81-.67,9.27,9.27,0,0,0-2.39.08,7.17,7.17,0,0,0-1.72.53,9.85,9.85,0,0,0-1.32.81l.3-.27a2.45,2.45,0,0,1,.4-.29,4.27,4.27,0,0,1,.58-.33,6.67,6.67,0,0,1,1.74-.58,9,9,0,0,1,2.43-.12,10,10,0,0,1,2.87.65,9.2,9.2,0,0,1,1.47.74,10.83,10.83,0,0,1,1.36,1.11,17.93,17.93,0,0,1,4,6.58c.95,2.57,1.74,5.05,2.38,7.34a50.87,50.87,0,0,1,1.3,6.16c.26,1.77.38,3.22.44,4.22,0,.5,0,.89.05,1.16S169.48,160.5,169.48,160.5Z"/><path class="cls-6" d="M167.59,135.69s-.51-.49-1.4-1.19a12.26,12.26,0,0,0-3.85-2.09,11.91,11.91,0,0,0-4.35-.5c-1.13.08-1.82.25-1.83.2a2.87,2.87,0,0,1,.47-.14,9.26,9.26,0,0,1,1.34-.24,11,11,0,0,1,4.44.44,11.51,11.51,0,0,1,3.89,2.19,10.35,10.35,0,0,1,1,.94C167.49,135.54,167.61,135.67,167.59,135.69Z"/><g class="cls-7"><path d="M170.26,150.19c-.47-7.85-3.76-17.56-13.8-18l1.39.4c4.57,2.24,5.42,4.87,6.89,8.19a88.78,88.78,0,0,1,3.36,10.36,1.57,1.57,0,0,0,.71,1.08,1.08,1.08,0,0,0,1.26-.57A2.86,2.86,0,0,0,170.26,150.19Z"/></g><path class="cls-4" d="M96.46,78.31s-3.2-5-5.41-8.26-5.21-7.23-5.21-7.23-3.26-11.41-6.22-10.33l-.29.37A1.76,1.76,0,0,0,79,54.44l2.45,9-3.57-5.49S75.3,49.05,71.78,49c0,0-1-2-2.3-1.48S68.39,51,68.39,51s1,10.89,1.43,12.07,5.11,8.51,5.11,8.51-.5,2.49.12,3.06,4.75,5.15,6.44,6.43,4.36,3,4.36,3"/><path class="cls-5" d="M85.85,84.28a.28.28,0,0,1-.13,0s-2.69-1.68-4.37-3a67.45,67.45,0,0,1-5.3-5.23c-.56-.6-1-1.06-1.16-1.22-.64-.59-.31-2.59-.2-3.19-.54-.83-4.68-7.33-5.08-8.47S68.2,51.5,68.16,51.05c0-.13-.24-3.17,1.24-3.72,1.31-.49,2.27,1,2.53,1.47,3.5.23,6,8.36,6.16,9l2.74,4.22-2-7.56a2,2,0,0,1,.36-1.78l.3-.38a.23.23,0,0,1,.1-.07,1.49,1.49,0,0,1,1.23.1c2.63,1.34,5.07,9.6,5.28,10.35.3.39,3.11,4.17,5.19,7.19,2.19,3.19,5.39,8.23,5.42,8.28a.23.23,0,0,1-.39.25S93,73.35,90.86,70.18,85.69,63,85.66,63a.2.2,0,0,1,0-.08c0-.08-2.55-8.81-5.06-10.09a1,1,0,0,0-.8-.1l-.25.32a1.53,1.53,0,0,0-.28,1.37l2.44,9a.22.22,0,0,1-.13.27.23.23,0,0,1-.29-.08l-3.57-5.49,0-.06c0-.09-2.56-8.73-5.87-8.75a.21.21,0,0,1-.2-.13s-.9-1.78-2-1.37c-1,.36-1,2.47-.94,3.25.35,3.76,1.1,11.1,1.42,12,.41,1.14,5,8.38,5.09,8.45a.25.25,0,0,1,0,.17c-.19,1-.31,2.52,0,2.85l1.18,1.24a67.86,67.86,0,0,0,5.24,5.18c1.67,1.27,4.31,2.92,4.34,2.93a.23.23,0,0,1-.12.43Z"/><polyline class="cls-4" points="71.78 49.03 73.11 59.68 77.43 67.83"/><path class="cls-5" d="M77.43,68.06a.25.25,0,0,1-.21-.12l-4.31-8.16a.11.11,0,0,1,0-.08L71.55,49.06a.24.24,0,0,1,.2-.26A.22.22,0,0,1,72,49l1.33,10.6,4.29,8.12a.23.23,0,0,1-.2.34Z"/><path class="cls-4" d="M77.43,67.83a3.45,3.45,0,0,1-.38-.61l-1-1.72c-.79-1.45-1.89-3.49-3.1-5.77v0c0-.24-.06-.49-.1-.75-.34-2.73-.63-5.21-.83-7-.09-.87-.17-1.58-.23-2.13s-.06-.78,0-.78a4,4,0,0,1,.15.77c.08.54.18,1.25.3,2.12.25,1.78.57,4.26.91,7q0,.39.09.75v0c1.21,2.28,2.27,4.33,3,5.8.36.72.66,1.3.88,1.75A4.41,4.41,0,0,1,77.43,67.83Z"/><path class="cls-5" d="M77.41,68.08c-.14,0-.24-.19-.56-.75l-.95-1.71c-.83-1.52-1.93-3.57-3.1-5.78a.18.18,0,0,1,0-.1L72.67,59c-.34-2.66-.63-5.15-.84-7l-.23-2.12c-.09-.92-.09-1,.15-1s.27.06.41,1l.3,2.12c.26,1.88.58,4.37.91,7l.09.69c1.16,2.2,2.23,4.24,3,5.75l.88,1.75c.37.75.42.84.2,1h0A.27.27,0,0,1,77.41,68.08Zm0-.25Zm0,0Z"/><path class="cls-3" d="M3.85,107.14h57c1.89,0,3.69,1,4,3l7.59,46.55h30a1.9,1.9,0,0,1,0,3.79H6.62L.08,111.91A4.05,4.05,0,0,1,3.85,107.14Z"/><path class="cls-6" d="M3.85,107.14a7.37,7.37,0,0,0-1,.16,3.88,3.88,0,0,0-2.21,1.77,4.36,4.36,0,0,0-.58,2,5.85,5.85,0,0,0,.09,1.23l.19,1.34c.25,1.85.54,4,.87,6.39,1.3,9.61,3.18,23.45,5.49,40.43l-.1-.09,92.61,0h3.17a1.8,1.8,0,0,0,.57-.11,1.7,1.7,0,0,0,.85-.78,1.91,1.91,0,0,0-.31-2.19,1.55,1.55,0,0,0-1-.47H72.32l0-.1c-2.54-15.62-4.91-30.2-7-43.27L64.87,111c-.07-.4-.13-.81-.21-1.2a3.16,3.16,0,0,0-.47-1.06,3.59,3.59,0,0,0-1.87-1.31,5.58,5.58,0,0,0-1.14-.21c-.38,0-.78,0-1.17,0H51l-16,0-22.85,0-6.11,0H4.39l-.54,0H6l6.11,0,22.85,0,16,0h9c.39,0,.78,0,1.18,0a5.22,5.22,0,0,1,1.18.21,3.71,3.71,0,0,1,2,1.39,3.31,3.31,0,0,1,.51,1.13c.08.41.14.8.21,1.21q.2,1.2.39,2.43c2.14,13.07,4.52,27.64,7.08,43.26l-.12-.1H102.5a1.74,1.74,0,0,1,1.19.54,2.14,2.14,0,0,1,.35,2.47,2,2,0,0,1-1,.9,1.88,1.88,0,0,1-.66.12H99.23l-92.61,0H6.54v-.09c-2.27-17-4.12-30.83-5.41-40.44-.32-2.4-.6-4.54-.85-6.39-.06-.47-.12-.91-.17-1.34A5.9,5.9,0,0,1,0,111.1,4.38,4.38,0,0,1,.61,109a3.84,3.84,0,0,1,2.26-1.77,3.35,3.35,0,0,1,.73-.12Z"/><circle class="cls-4" cx="33.56" cy="133.24" r="3.95"/><path class="cls-6" d="M69.51,160c-.09,0-2.1-11.71-4.49-26.18s-4.25-26.22-4.17-26.24,2.1,11.71,4.5,26.19S69.6,160,69.51,160Z"/><path class="cls-5" d="M85.12,51.86A3.16,3.16,0,0,1,83,51.72a5.87,5.87,0,0,1-2.1-1.17,5.94,5.94,0,0,1-1-1.07c-.07-.11-.14-.2-.21-.32a.78.78,0,0,1-.11-.26.65.65,0,0,1,0-.39.73.73,0,0,1,.51-.44,1.65,1.65,0,0,1,.44-.08l2.95-.29-.29.42c-.63-2.46-1-4.2-.84-4.24A17.87,17.87,0,0,1,83.81,48a.32.32,0,0,1-.22.4h-.06c-.9.11-1.89.23-2.94.34l-.3,0-.07,0s0,0,0,0h.06a.56.56,0,0,1,0,.08l.18.27a6.13,6.13,0,0,0,.83,1,6.44,6.44,0,0,0,1.84,1.19C84.3,51.74,85.13,51.74,85.12,51.86Z"/><path class="cls-5" d="M74.15,43.32c-.22-.76-.26-1.7-.9-2.26L73.09,41a2,2,0,0,0-1.7.27,1.84,1.84,0,0,0-.49,1.51A6.48,6.48,0,0,0,71.59,45a4.17,4.17,0,0,0,.59,1,1.23,1.23,0,0,0,2.25-.72A4.74,4.74,0,0,0,74.15,43.32Z"/><path class="cls-5" d="M90.3,38.57a4.28,4.28,0,0,0-.73-2.32l-.15-.08a2,2,0,0,0-1.72.15,1.85,1.85,0,0,0-.6,1.47A6.54,6.54,0,0,0,87.62,40a4.44,4.44,0,0,0,.52,1.1,1.22,1.22,0,0,0,2.29-.56A4.71,4.71,0,0,0,90.3,38.57Z"/><path class="cls-4" d="M64.45,34.84l-1.51-1c-2.51-1.32-5.3-.52-8.92-3.05-4.94-3.44-3.28-7.92-3.28-7.92,1.69-6.08,9.19-8.27,15.16-7.84-3.31-.47-9.31-.13-9.22-3.67-.35-4.69,8.44-7,17.74-6.15C68.91,4.2,68.15.39,72.2.25l20.43,1a22.34,22.34,0,0,1,7.89,1.35c5.71,2.47,9.51,8.92,11.55,14.8a42.6,42.6,0,0,1,2.09,15.14,17.67,17.67,0,0,1-.28,2.59,6.76,6.76,0,0,0-2-.21,8.2,8.2,0,0,0-4,1.73,4.1,4.1,0,0,0-1.46,2.66,15.45,15.45,0,0,1-.31,3.54,2.84,2.84,0,0,1-2.46,2.22,2.7,2.7,0,0,1-2.23-1.47,8,8,0,0,1-.76-2.69q-1-6.24-2-12.48c-9.09.51-16-4.1-19.87-12.27l-.13,0c.21,1.06.43,3.61-2.23,4.49A32.48,32.48,0,0,1,69.74,22s-.34,6.85-6.49,6.06Z"/><path class="cls-5" d="M64.45,34.84c-.11-.58-.49-2.56-1.28-6.74a.09.09,0,0,1,.07-.1h0l1,.05a10.22,10.22,0,0,0,1.07-.11,5,5,0,0,0,2.09-1A7.37,7.37,0,0,0,69.61,22a.13.13,0,0,1,.12-.12,32.55,32.55,0,0,0,5.72-1.09,12.25,12.25,0,0,0,1.48-.5,3.08,3.08,0,0,0,1.18-1,4,4,0,0,0,.46-3.14.17.17,0,0,1,.13-.2h.09l.13,0a.18.18,0,0,1,.1.09A22.35,22.35,0,0,0,86.26,25a19.6,19.6,0,0,0,12.47,3.3.22.22,0,0,1,.23.18c.39,2.46.8,5,1.21,7.57.21,1.29.42,2.6.64,3.92a10,10,0,0,0,1,3.81,2.58,2.58,0,0,0,1.48,1.1,1.9,1.9,0,0,0,1.71-.51c1-.88,1.18-2.33,1.18-3.73l0-1.08a3.08,3.08,0,0,1,.24-1.12,5.06,5.06,0,0,1,1.29-1.86,8.08,8.08,0,0,1,4.11-1.82h0a7.38,7.38,0,0,1,2.07.22l-.33.19.17-1.64a11.62,11.62,0,0,0,.11-1.67c0-1.13,0-2.26-.07-3.4a42.42,42.42,0,0,0-.9-6.86,36.34,36.34,0,0,0-2.18-6.72,30.66,30.66,0,0,0-3.56-6.24,16.92,16.92,0,0,0-7.4-5.95c-3-1.09-6.24-1-9.37-1.21L72.18.49h0a2.88,2.88,0,0,0-2.06.73c-.49.51-.22,1.32.26,1.86a5.36,5.36,0,0,0,1.86,1.27,11.18,11.18,0,0,0,2.2.67h0a.24.24,0,0,1,.18.29.22.22,0,0,1-.25.18A36.55,36.55,0,0,0,63.9,6,15.09,15.09,0,0,0,59.26,7.7a5.73,5.73,0,0,0-1.75,1.56,3.57,3.57,0,0,0-.62,2.14v0a2.32,2.32,0,0,0,1.27,2.11,8,8,0,0,0,2.54.79c1.76.3,3.51.34,5.22.57a.18.18,0,0,1,.16.21.19.19,0,0,1-.2.17,19.43,19.43,0,0,0-9.54,1.66,11.37,11.37,0,0,0-3.52,2.56A8.74,8.74,0,0,0,50.88,23h0a6.27,6.27,0,0,0,0,3.38,6.92,6.92,0,0,0,1.44,2.74,9.57,9.57,0,0,0,2.11,1.85,11.15,11.15,0,0,0,2.21,1.15,21.81,21.81,0,0,0,3.89.94,8.88,8.88,0,0,1,2.49.82h0l1.49,1-1.53-.92h0a8.77,8.77,0,0,0-2.47-.75,21.4,21.4,0,0,1-3.93-.9,10.78,10.78,0,0,1-2.27-1.15,9.7,9.7,0,0,1-2.18-1.88,6.8,6.8,0,0,1-1.47-6.37h0a9.16,9.16,0,0,1,2-3.61,11.69,11.69,0,0,1,3.61-2.65,19.78,19.78,0,0,1,9.71-1.74l0,.39c-1.67-.22-3.43-.25-5.23-.55A8.27,8.27,0,0,1,58,13.89a3,3,0,0,1-1.1-1,2.71,2.71,0,0,1-.4-1.47v0A4,4,0,0,1,57.15,9,6.07,6.07,0,0,1,59,7.33,15.24,15.24,0,0,1,63.8,5.55,36.84,36.84,0,0,1,74.44,5l-.06.47a11.09,11.09,0,0,1-2.3-.7A5.84,5.84,0,0,1,70,3.4a2.57,2.57,0,0,1-.6-1.17A1.51,1.51,0,0,1,69.78.9a2.26,2.26,0,0,1,.53-.44A4.66,4.66,0,0,1,70.92.2,6.11,6.11,0,0,1,72.19,0h0L90.47.92c3.11.2,6.39.1,9.52,1.23a17.52,17.52,0,0,1,7.64,6.13,31.68,31.68,0,0,1,3.61,6.34,36.46,36.46,0,0,1,2.22,6.82,42.42,42.42,0,0,1,.9,6.94c.06,1.15.08,2.3.07,3.43a14,14,0,0,1-.12,1.71l-.18,1.69a.24.24,0,0,1-.26.21h-.07a7.57,7.57,0,0,0-1.9-.19h0a7.58,7.58,0,0,0-3.83,1.69,4.57,4.57,0,0,0-1.17,1.66,3,3,0,0,0-.21,1l0,1.07a10.07,10.07,0,0,1-.23,2.17,3.82,3.82,0,0,1-1.13,1.92,2.36,2.36,0,0,1-2.14.6,3,3,0,0,1-1.77-1.3,10.45,10.45,0,0,1-1.09-4c-.21-1.33-.41-2.64-.62-3.93l-1.2-7.57.23.19A20,20,0,0,1,86,25.28a22.63,22.63,0,0,1-7.33-9l.11.09-.13,0,.22-.2a4.42,4.42,0,0,1-.53,3.4,3.42,3.42,0,0,1-1.32,1.07,13.57,13.57,0,0,1-1.52.51,33,33,0,0,1-5.79,1.05l.13-.12a7.58,7.58,0,0,1-2.29,5,5,5,0,0,1-2.19,1.05,11,11,0,0,1-1.11.11l-1.05-.07.1-.1C64,32.27,64.36,34.26,64.45,34.84Z"/></g></g></svg>