<svg xmlns="http://www.w3.org/2000/svg" viewBox="0 0 86.36 92.08"><defs><style>.cls-1{fill:#129a63;}</style></defs><title>mano</title><g id="Capa_2" data-name="Capa 2"><g id="Peronsaje"><path class="cls-1" d="M38.77,83.13a2.13,2.13,0,0,0-1.32-2.83,2.4,2.4,0,0,0-3,1.27,2.12,2.12,0,0,0,1.3,2.83A2.43,2.43,0,0,0,38.77,83.13Z"/><path class="cls-1" d="M1.13,75.36,41.41,89.85l3.72-8.91a1.46,1.46,0,0,0-1.82.77l-3.09,7.35-37-13.34,3.1-7.34a1.29,1.29,0,0,0-.71-1.66l-.08,0-.1,0-.57-.19-.08.16Z"/><path class="cls-1" d="M7.52,66a2.26,2.26,0,0,0,.37.22L43,78.86l.87.33c10.85,3.9,14.11-2.25,14.26-2.51,0,0,0-.05,0-.08l5.34-12.5c1.53-3.66,0-7.63-3.35-8.84a6.39,6.39,0,0,0-4,0L68.38,26.33a7,7,0,0,0-3.88-9.21,7.79,7.79,0,0,0-10.09,4L47.89,36.4a5.75,5.75,0,0,0-3-2.47,6.87,6.87,0,0,0-6.63,1.33,5.87,5.87,0,0,0-3.54-3.57,6.88,6.88,0,0,0-6.86,1.52,5.88,5.88,0,0,0-3.47-3.4c-3.38-1.22-7.38.76-8.91,4.42L4.81,59.43C3.38,62.85,7.33,65.89,7.52,66Zm-.1-5.66L18.09,35.18c1-2.3,3.34-3.59,5.26-2.9s2.73,3.14,1.78,5.43l0,.1-.68,1.6a1.29,1.29,0,0,0,.78,1.7A1.49,1.49,0,0,0,27,40.33l.66-1.6,0-.07.68-1.6c.95-2.29,3.32-3.59,5.26-2.9s2.73,3.14,1.78,5.43l-.21.44-.51,1.23A1.32,1.32,0,0,0,35.52,43a1.46,1.46,0,0,0,1.83-.78L37.86,41l.21-.47.51-1.23c1-2.3,3.32-3.59,5.27-2.9s2.73,3.13,1.75,5.43l-.7,1.7a1.25,1.25,0,0,0,.79,1.69,1.43,1.43,0,0,0,1.82-.75l.72-1.7L57,22.17a4.94,4.94,0,0,1,6-2.77,4.35,4.35,0,0,1,2.9,5.83L51.25,59.68l-.67,1.64,0,0a1.27,1.27,0,0,0,.79,1.7,1.43,1.43,0,0,0,1.82-.75l0,0,.7-1.65c1-2.29,3.32-3.59,5.26-2.89s2.73,3.13,1.75,5.42L55.61,75.6c-.24.37-2.79,4.25-11.47.83,0,0,0,0,0,0L9.15,63.83C8.62,63.39,6.85,61.74,7.42,60.35Z"/><path class="cls-1" d="M.89,77.73,40.49,92a1.48,1.48,0,0,0,1.85-.75L46,82.64a1.28,1.28,0,0,0-.82-1.7,1.46,1.46,0,0,0-1.82.77l-3.09,7.35-37-13.34,3.1-7.34a1.29,1.29,0,0,0-.71-1.66l-.08,0-.1,0a1.43,1.43,0,0,0-.65,0,1.38,1.38,0,0,0-1.08.82L.11,76A1.26,1.26,0,0,0,.89,77.73Z"/><path class="cls-1" d="M51.47,18.67a1.46,1.46,0,0,1-1.83.76L38.88,15.56a1.28,1.28,0,0,1-.79-1.7,1.46,1.46,0,0,1,1.83-.77L50.68,17A1.29,1.29,0,0,1,51.47,18.67Z"/><path class="cls-1" d="M56.74,12.76a1.36,1.36,0,0,1-.78-.69L51.37,2.16A1.31,1.31,0,0,1,52.11.41,1.44,1.44,0,0,1,54,1.08L58.55,11a1.31,1.31,0,0,1-.73,1.75A1.55,1.55,0,0,1,56.74,12.76Z"/><path class="cls-1" d="M66.72,12.7A1.28,1.28,0,0,1,65.93,11L70.19.85A1.46,1.46,0,0,1,72,.09a1.28,1.28,0,0,1,.79,1.7L68.55,11.94A1.46,1.46,0,0,1,66.72,12.7Z"/><path class="cls-1" d="M74.81,19.25a1.49,1.49,0,0,1-1.08,0,1.35,1.35,0,0,1-.77-.7,1.3,1.3,0,0,1,.73-1.74L84.31,12.4a1.44,1.44,0,0,1,1.86.67,1.31,1.31,0,0,1-.74,1.75Z"/><path class="cls-1" d="M72.89,26.94a1.44,1.44,0,0,1,1.82-.76l10.76,3.87a1.28,1.28,0,0,1,.79,1.7,1.46,1.46,0,0,1-1.83.77L73.68,28.64A1.27,1.27,0,0,1,72.89,26.94Z"/><path class="cls-1" d="M35.71,84.4a2.43,2.43,0,0,0,3.06-1.27,2.13,2.13,0,0,0-1.32-2.83,2.4,2.4,0,0,0-3,1.27A2.12,2.12,0,0,0,35.71,84.4Z"/></g></g></svg>